# Blender v2.83.5 OBJ File: ''
# www.blender.org
mtllib hole-cover.mtl
o Cylinder.001
v 0.195090 0.000000 -0.980785
v 0.000000 0.000000 -1.000000
v 0.382683 0.000000 -0.923880
v 0.555570 0.000000 -0.831470
v 0.707107 0.000000 -0.707107
v 0.831470 0.000000 -0.555570
v 0.923880 0.000000 -0.382683
v 0.980785 0.000000 -0.195090
v 1.000000 0.000000 -0.000000
v 0.980785 0.000000 0.195090
v 0.923880 0.000000 0.382683
v 0.831470 0.000000 0.555570
v 0.707107 0.000000 0.707107
v 0.555570 0.000000 0.831470
v 0.382683 0.000000 0.923880
v 0.195090 0.000000 0.980785
v 0.000000 0.000000 1.000000
v -0.195091 0.000000 0.980785
v -0.382684 0.000000 0.923879
v -0.555571 0.000000 0.831469
v -0.707107 0.000000 0.707106
v -0.831470 0.000000 0.555570
v -0.923880 0.000000 0.382683
v -0.980785 0.000000 0.195089
v -1.000000 0.000000 -0.000001
v -0.980785 0.000000 -0.195091
v -0.923879 0.000000 -0.382684
v -0.831469 0.000000 -0.555571
v -0.707106 0.000000 -0.707108
v -0.555569 0.000000 -0.831470
v -0.382682 0.000000 -0.923880
v -0.195089 0.000000 -0.980786
vt 0.100266 0.001001
vt 0.221221 0.112787
vt 0.121956 0.248999
vt 0.100266 0.248999
vt 0.078993 0.244234
vt 0.058954 0.234886
vt 0.040920 0.221316
vt 0.025583 0.204045
vt 0.013533 0.183736
vt 0.005232 0.161169
vt 0.001001 0.137213
vt 0.001001 0.112787
vt 0.005233 0.088831
vt 0.013533 0.066264
vt 0.025583 0.045955
vt 0.040920 0.028684
vt 0.058954 0.015113
vt 0.078993 0.005766
vt 0.121956 0.001001
vt 0.143229 0.005766
vt 0.163268 0.015114
vt 0.181302 0.028684
vt 0.196639 0.045955
vt 0.208690 0.066265
vt 0.216990 0.088831
vt 0.221221 0.137213
vt 0.216990 0.161169
vt 0.208689 0.183736
vt 0.196639 0.204045
vt 0.181302 0.221316
vt 0.163268 0.234887
vt 0.143229 0.244234
vn 0.0000 1.0000 0.0000
usemtl bake
s 1
f 18/1/1 10/2/1 1/3/1
f 1/3/1 2/4/1 32/5/1
f 32/5/1 31/6/1 1/3/1
f 31/6/1 30/7/1 1/3/1
f 30/7/1 29/8/1 28/9/1
f 28/9/1 27/10/1 30/7/1
f 27/10/1 26/11/1 30/7/1
f 26/11/1 25/12/1 24/13/1
f 24/13/1 23/14/1 22/15/1
f 22/15/1 21/16/1 18/1/1
f 21/16/1 20/17/1 18/1/1
f 20/17/1 19/18/1 18/1/1
f 18/1/1 17/19/1 16/20/1
f 16/20/1 15/21/1 14/22/1
f 14/22/1 13/23/1 12/24/1
f 12/24/1 11/25/1 10/2/1
f 10/2/1 9/26/1 8/27/1
f 8/27/1 7/28/1 6/29/1
f 6/29/1 5/30/1 4/31/1
f 4/31/1 3/32/1 1/3/1
f 26/11/1 24/13/1 18/1/1
f 24/13/1 22/15/1 18/1/1
f 18/1/1 16/20/1 10/2/1
f 16/20/1 14/22/1 10/2/1
f 14/22/1 12/24/1 10/2/1
f 10/2/1 8/27/1 1/3/1
f 8/27/1 6/29/1 1/3/1
f 6/29/1 4/31/1 1/3/1
f 1/3/1 30/7/1 18/1/1
f 30/7/1 26/11/1 18/1/1
