# Blender v2.80 (sub 75) OBJ File: 'level-1.blend'
# www.blender.org
mtllib level-1.mtl
o ground.000
v -4.267200 0.000000 0.000000
v 0.000000 0.000000 0.000000
v -4.267200 0.000000 -1.219200
v 0.000000 0.000000 -1.219200
vt 7.000000 2.000000
vt 0.000100 2.000000
vt 0.000100 0.000100
vt 7.000000 0.000100
vn 0.0000 1.0000 0.0000
usemtl ground
s off
f 1/1/1 2/2/1 4/3/1 3/4/1
o wall.000
v -4.267200 0.000000 0.000000
v -4.267200 0.076200 0.000000
v -4.267200 0.000000 0.152400
v -4.267200 0.076200 0.152400
v 0.000000 0.000000 0.000000
v 0.000000 0.076200 0.000000
v 0.000000 0.000000 0.152400
v 0.000000 0.076200 0.152400
vt 0.500100 0.000100
vt 0.250050 0.000100
vt 0.250050 3.500000
vt 0.500100 3.500000
vt 0.499900 3.500000
vt 0.749950 3.500000
vt 0.749950 0.000100
vt 0.499900 0.000100
vn 0.0000 0.0000 -1.0000
vn 0.0000 0.0000 1.0000
vn 0.0000 -1.0000 0.0000
usemtl wall-side
s off
f 7/5/2 8/6/2 12/7/2 11/8/2
f 9/9/3 10/10/3 6/11/3 5/12/3
usemtl wall-top
f 12/7/4 8/6/4 6/11/4 10/10/4
o wall.003
v -4.267200 0.000000 -1.371600
v -4.267200 0.076200 -1.371600
v -4.267200 0.000000 -1.219200
v -4.267200 0.076200 -1.219200
v 0.000000 0.000000 -1.371600
v 0.000000 0.076200 -1.371600
v 0.000000 0.000000 -1.219200
v 0.000000 0.076200 -1.219200
vt 0.500100 0.000100
vt 0.250050 0.000100
vt 0.250050 3.500000
vt 0.500100 3.500000
vt 0.499900 3.500000
vt 0.749950 3.500000
vt 0.749950 0.000100
vt 0.499900 0.000100
vn 0.0000 0.0000 -1.0000
vn 0.0000 0.0000 1.0000
vn 0.0000 -1.0000 0.0000
usemtl wall-side
s off
f 15/13/5 16/14/5 20/15/5 19/16/5
f 17/17/6 18/18/6 14/19/6 13/20/6
usemtl wall-top
f 20/15/7 16/14/7 14/19/7 18/18/7
o wall.002
v -4.419600 0.000000 0.000000
v -4.419600 0.076200 0.000000
v -4.267200 0.000000 0.000000
v -4.267200 0.076200 0.000000
v -4.419600 0.000000 -1.219200
v -4.419600 0.076200 -1.219200
v -4.267200 0.000000 -1.219200
v -4.267200 0.076200 -1.219200
vt 0.500100 0.000100
vt 0.250050 0.000100
vt 0.250050 1.000000
vt 0.500100 1.000000
vt 0.499900 1.000000
vt 0.749950 1.000000
vt 0.749950 0.000100
vt 0.499900 0.000100
vn -1.0000 0.0000 0.0000
vn 1.0000 0.0000 0.0000
vn 0.0000 -1.0000 0.0000
usemtl wall-side
s off
f 23/21/8 24/22/8 28/23/8 27/24/8
f 25/25/9 26/26/9 22/27/9 21/28/9
usemtl wall-top
f 28/23/10 24/22/10 22/27/10 26/26/10
o wall.001
v 0.000000 0.000000 0.000000
v 0.000000 0.076200 0.000000
v 0.152400 0.000000 0.000000
v 0.152400 0.076200 0.000000
v -0.000000 0.000000 -1.219200
v -0.000000 0.076200 -1.219200
v 0.152400 0.000000 -1.219200
v 0.152400 0.076200 -1.219200
vt 0.500100 0.000100
vt 0.250050 0.000100
vt 0.250050 1.000000
vt 0.500100 1.000000
vt 0.499900 1.000000
vt 0.749950 1.000000
vt 0.749950 0.000100
vt 0.499900 0.000100
vn -1.0000 0.0000 0.0000
vn 1.0000 0.0000 -0.0000
vn 0.0000 -1.0000 -0.0000
usemtl wall-side
s off
f 31/29/11 32/30/11 36/31/11 35/32/11
f 33/33/12 34/34/12 30/35/12 29/36/12
usemtl wall-top
f 36/31/13 32/30/13 30/35/13 34/34/13
o wall-corner.000
v 0.000000 0.000000 0.152400
v 0.000000 0.152400 0.152400
v 0.000000 0.000000 0.000000
v 0.000000 0.152400 0.000000
v 0.152400 0.000000 0.152400
v 0.152400 0.152400 0.152400
v 0.152400 0.000000 0.000000
v 0.152400 0.152400 0.000000
vt 1.992188 -0.023438
vt 1.992188 0.476562
vt 1.492188 0.476562
vt 1.492188 -0.023438
vt 0.992187 0.476562
vt 0.992187 -0.023438
vt 0.492187 0.476562
vt 0.492187 -0.023438
vt -0.007813 0.476562
vt -0.007813 -0.023438
vt 0.992187 0.976562
vt 0.492187 0.976562
vn -1.0000 0.0000 0.0000
vn 0.0000 0.0000 -1.0000
vn 1.0000 0.0000 0.0000
vn 0.0000 0.0000 1.0000
vn 0.0000 1.0000 0.0000
usemtl wall-side
s off
f 37/37/14 38/38/14 40/39/14 39/40/14
f 39/40/15 40/39/15 44/41/15 43/42/15
f 43/42/16 44/41/16 42/43/16 41/44/16
f 41/44/17 42/43/17 38/45/17 37/46/17
usemtl wall-top
f 44/41/18 40/47/18 38/48/18 42/43/18
o wall-corner.003
v 0.000000 0.000000 -1.219200
v 0.000000 0.152400 -1.219200
v 0.000000 0.000000 -1.371600
v 0.000000 0.152400 -1.371600
v 0.152400 0.000000 -1.219200
v 0.152400 0.152400 -1.219200
v 0.152400 0.000000 -1.371600
v 0.152400 0.152400 -1.371600
vt 1.992188 -0.023438
vt 1.992188 0.476562
vt 1.492188 0.476562
vt 1.492188 -0.023438
vt 0.992187 0.476562
vt 0.992187 -0.023438
vt 0.492187 0.476562
vt 0.492187 -0.023438
vt -0.007813 0.476562
vt -0.007813 -0.023438
vt 0.992187 0.976562
vt 0.492187 0.976562
vn -1.0000 0.0000 0.0000
vn 0.0000 0.0000 -1.0000
vn 1.0000 0.0000 0.0000
vn 0.0000 0.0000 1.0000
vn 0.0000 1.0000 0.0000
usemtl wall-side
s off
f 45/49/19 46/50/19 48/51/19 47/52/19
f 47/52/20 48/51/20 52/53/20 51/54/20
f 51/54/21 52/53/21 50/55/21 49/56/21
f 49/56/22 50/55/22 46/57/22 45/58/22
usemtl wall-top
f 52/53/23 48/59/23 46/60/23 50/55/23
o wall-corner.002
v -4.419600 0.000000 -1.219200
v -4.419600 0.152400 -1.219200
v -4.419600 0.000000 -1.371600
v -4.419600 0.152400 -1.371600
v -4.267200 0.000000 -1.219200
v -4.267200 0.152400 -1.219200
v -4.267200 0.000000 -1.371600
v -4.267200 0.152400 -1.371600
vt 1.992188 -0.023438
vt 1.992188 0.476562
vt 1.492188 0.476562
vt 1.492188 -0.023438
vt 0.992187 0.476562
vt 0.992187 -0.023438
vt 0.492187 0.476562
vt 0.492187 -0.023438
vt -0.007813 0.476562
vt -0.007813 -0.023438
vt 0.992187 0.976562
vt 0.492187 0.976562
vn -1.0000 0.0000 0.0000
vn 0.0000 0.0000 -1.0000
vn 1.0000 0.0000 0.0000
vn 0.0000 0.0000 1.0000
vn 0.0000 1.0000 0.0000
usemtl wall-side
s off
f 53/61/24 54/62/24 56/63/24 55/64/24
f 55/64/25 56/63/25 60/65/25 59/66/25
f 59/66/26 60/65/26 58/67/26 57/68/26
f 57/68/27 58/67/27 54/69/27 53/70/27
usemtl wall-top
f 60/65/28 56/71/28 54/72/28 58/67/28
o wall-corner.001
v -4.419600 0.000000 0.152400
v -4.419600 0.152400 0.152400
v -4.419600 0.000000 0.000000
v -4.419600 0.152400 0.000000
v -4.267200 0.000000 0.152400
v -4.267200 0.152400 0.152400
v -4.267200 0.000000 0.000000
v -4.267200 0.152400 0.000000
vt 1.992188 -0.023438
vt 1.992188 0.476562
vt 1.492188 0.476562
vt 1.492188 -0.023438
vt 0.992187 0.476562
vt 0.992187 -0.023438
vt 0.492187 0.476562
vt 0.492187 -0.023438
vt -0.007813 0.476562
vt -0.007813 -0.023438
vt 0.992187 0.976562
vt 0.492187 0.976562
vn -1.0000 0.0000 0.0000
vn 0.0000 0.0000 -1.0000
vn 1.0000 0.0000 0.0000
vn 0.0000 0.0000 1.0000
vn 0.0000 1.0000 0.0000
usemtl wall-side
s off
f 61/73/29 62/74/29 64/75/29 63/76/29
f 63/76/30 64/75/30 68/77/30 67/78/30
f 67/78/31 68/77/31 66/79/31 65/80/31
f 65/80/32 66/79/32 62/81/32 61/82/32
usemtl wall-top
f 68/77/33 64/83/33 62/84/33 66/79/33
