# Created by Kenney (www.kenney.nl)

mtllib bridge_woodNarrow.mtl

g bridge_woodNarrow

v 0.4 0.15 -0.35
v 0.4 0.2 -0.35
v -0.4 0.15 -0.35
v -0.4 0.2 -0.35
v -0.4 0.1 -0.3
v -0.4 0.15 -0.3
v -0.4 0.1 0.3
v -0.4 0.15 0.3
v -0.38 0.3 0.28
v -0.4 0.3 0.4
v -0.38 0.3 0.42
v -0.52 0.3 0.42
v -0.5 0.3 0.4
v -0.5 0.3 0.3
v -0.4 0.3 0.3
v -0.52 0.3 0.28
v -0.38 0.3 -0.42
v -0.4 0.3 -0.3
v -0.38 0.3 -0.28
v -0.52 0.3 -0.28
v -0.5 0.3 -0.3
v -0.5 0.3 -0.4
v -0.4 0.3 -0.4
v -0.52 0.3 -0.42
v 0.4 0.15 -0.3
v 0.4 0.1 -0.3
v 0.4 0.15 0.3
v 0.4 0.1 0.3
v 0.5 0 0.4
v 0.4 0 0.4
v 0.5 0.3 0.4
v 0.4 0.2 0.4
v 0.4 0.25 0.4
v -0.4 0.2 0.4
v -0.4 0.25 0.4
v 0.4 0.3 0.4
v -0.5 0 0.4
v -0.4 0 0.4
v 0.4 0.2 -0.4
v -0.4 0.2 -0.4
v 0.4 0 0.35
v 0.4 0.15 0.35
v 0.4 0.2 0.35
v 0.4 0.25 -0.3
v -0.4 0.25 -0.3
v 0.4 0.25 -0.4
v -0.4 0.25 -0.4
v -0.4 0.15 0.35
v -0.4 0.2 0.35
v 0.52 0.3 0.28
v 0.52 0.3 0.42
v 0.38 0.3 0.42
v 0.4 0.3 0.3
v 0.5 0.3 0.3
v 0.38 0.3 0.28
v 0.5 0.1 0.3
v 0.42 0.15 0.3
v 0.42 0.2 0.3
v 0.4 0.25 0.3
v -0.42 0.2 0.3
v -0.4 0.25 0.3
v -0.42 0.15 0.3
v -0.5 0.1 0.3
v 0.52 0.3 -0.42
v 0.5 0.3 -0.3
v 0.52 0.3 -0.28
v 0.38 0.3 -0.28
v 0.4 0.3 -0.3
v 0.4 0.3 -0.4
v 0.5 0.3 -0.4
v 0.38 0.3 -0.42
v 0.5 0.1 -0.3
v 0.42 0.15 -0.3
v 0.42 0.2 -0.3
v -0.42 0.2 -0.3
v -0.42 0.15 -0.3
v -0.5 0.1 -0.3
v -0.4 0 0.35
v -0.5 0 -0.4
v -0.4 0 -0.4
v 0.5 0 -0.4
v 0.4 0 -0.4
v 0.4 0 -0.35
v -0.4 0 -0.35
v -0.5 0.05 -0.3
v -0.5 0.05 0.3
v 0.5 0.05 -0.3
v 0.5 0.05 0.3
v -0.52 0.35 -0.42
v -0.52 0.35 -0.28
v 0.52 0.35 -0.28
v 0.38 0.35 -0.28
v 0.52 0.35 -0.42
v 0.38 0.35 -0.42
v -0.52 0.35 0.28
v -0.52 0.35 0.42
v -0.38 0.35 -0.28
v 0.38 0.35 0.28
v 0.38 0.35 0.42
v -0.38 0.35 -0.42
v -0.38 0.35 0.28
v -0.38 0.35 0.42
v 0.52 0.35 0.42
v 0.52 0.35 0.28
v 0.52 0.1 -0.3
v 0.52 0.1 0.3
v -0.52 0.05 -0.3
v -0.52 0.1 -0.3
v -0.52 0.05 0.3
v -0.52 0.1 0.3
v 0.52 0.05 0.3
v 0.52 0.05 -0.3

vn 0 0 -1
vn -1 0 0
vn 0 -1 0
vn 1 0 0
vn 0 0 1
vn 0 1 0

vt -15.74803 5.905512
vt -15.74803 7.874016
vt 15.74803 5.905512
vt 15.74803 7.874016
vt -11.81102 3.937008
vt -11.81102 5.905512
vt 11.81102 3.937008
vt 11.81102 5.905512
vt -14.96063 11.02362
vt -15.74803 15.74803
vt -14.96063 16.53543
vt -20.47244 16.53543
vt -19.68504 15.74803
vt -19.68504 11.81102
vt -15.74803 11.81102
vt -20.47244 11.02362
vt -14.96063 -16.53543
vt -15.74803 -11.81102
vt -14.96063 -11.02362
vt -20.47244 -11.02362
vt -19.68504 -11.81102
vt -19.68504 -15.74803
vt -15.74803 -15.74803
vt -20.47244 -16.53543
vt 19.68504 -3.796277E-12
vt 15.74803 -3.796277E-12
vt 19.68504 11.81102
vt 15.74803 9.84252
vt -15.74803 9.84252
vt 15.74803 11.81102
vt -19.68504 -3.796277E-12
vt -15.74803 -3.796277E-12
vt 15.74803 -13.77953
vt 15.74803 -15.74803
vt -15.74803 -13.77953
vt 13.77953 0
vt 13.77953 5.905512
vt 15.74803 0
vt 13.77953 7.874016
vt 15.74803 -11.81102
vt 20.47244 11.02362
vt 19.68504 15.74803
vt 20.47244 16.53543
vt 14.96063 16.53543
vt 15.74803 15.74803
vt 14.96063 11.02362
vt -15.74803 3.937008
vt -19.68504 3.937008
vt -16.53543 5.905512
vt -16.53543 7.874016
vt 16.53543 7.874016
vt 16.53543 5.905512
vt 15.74803 3.937008
vt 19.68504 3.937008
vt 20.47244 -16.53543
vt 19.68504 -11.81102
vt 20.47244 -11.02362
vt 14.96063 -11.02362
vt 19.68504 -15.74803
vt 14.96063 -16.53543
vt 15.74803 13.77953
vt -15.74803 13.77953
vt -13.77953 7.874016
vt -13.77953 5.905512
vt -13.77953 0
vt -15.74803 0
vt 11.81102 11.81102
vt 11.81102 9.84252
vt -11.81102 9.84252
vt -11.81102 11.81102
vt 19.68504 -9.683528E-12
vt 15.74803 -9.683528E-12
vt -19.68504 -9.683528E-12
vt -15.74803 -9.683528E-12
vt -15.74803 6.129599E-24
vt -13.77953 6.129599E-24
vt 15.74803 -7.870408E-26
vt 13.77953 -7.870408E-26
vt -11.81102 1.968504
vt -15.74803 -4.973799E-13
vt 15.74803 -4.973799E-13
vt 11.81102 1.968504
vt 15.74803 2.664535E-13
vt -15.74803 2.664535E-13
vt -16.53543 11.81102
vt -16.53543 13.77953
vt -11.02362 11.81102
vt -11.02362 13.77953
vt 11.02362 11.81102
vt 11.02362 13.77953
vt 16.53543 11.81102
vt 16.53543 13.77953
vt 15.74803 -3.67203E-28
vt -15.74803 -3.67203E-28
vt -14.96063 11.81102
vt -20.47244 11.81102
vt -14.96063 13.77953
vt -20.47244 13.77953
vt 20.47244 11.81102
vt 14.96063 11.81102
vt 20.47244 13.77953
vt 14.96063 13.77953
vt -20.47244 -11.81102
vt -11.81102 7.874016
vt 11.81102 7.874016
vt -16.53543 -11.81102
vt 20.47244 -11.81102
vt 16.53543 -11.81102
vt -19.68504 1.968504
vt -20.47244 1.968504
vt -20.47244 3.937008
vt 19.68504 1.968504
vt 20.47244 1.968504
vt 20.47244 3.937008

usemtl woodBark

f 3/3/1 2/2/1 1/1/1
f 2/2/1 3/3/1 4/4/1
f 7/7/2 6/6/2 5/5/2
f 6/6/2 7/7/2 8/8/2
f 11/11/3 10/10/3 9/9/3
f 10/10/3 11/11/3 12/12/3
f 10/10/3 12/12/3 13/13/3
f 13/13/3 12/12/3 14/14/3
f 15/15/3 9/9/3 10/10/3
f 9/9/3 15/15/3 16/16/3
f 16/16/3 15/15/3 14/14/3
f 16/16/3 14/14/3 12/12/3
f 19/19/3 18/18/3 17/17/3
f 18/18/3 19/19/3 20/20/3
f 18/18/3 20/20/3 21/21/3
f 21/21/3 20/20/3 22/22/3
f 23/23/3 17/17/3 18/18/3
f 17/17/3 23/23/3 24/24/3
f 24/24/3 23/23/3 22/22/3
f 24/24/3 22/22/3 20/20/3
f 27/6/4 26/7/4 25/8/4
f 26/7/4 27/6/4 28/5/4
f 31/27/5 30/26/5 29/25/5
f 30/26/5 31/27/5 32/4/5
f 32/4/5 31/27/5 33/28/5
f 32/4/5 33/28/5 34/2/5
f 34/2/5 33/28/5 35/29/5
f 33/28/5 31/27/5 36/30/5
f 13/14/5 34/2/5 35/29/5
f 37/31/5 34/2/5 13/14/5
f 34/2/5 37/31/5 38/32/5
f 13/14/5 35/29/5 10/15/5
f 4/35/3 39/34/3 2/33/3
f 39/34/3 4/35/3 40/23/3
f 30/38/2 42/37/2 41/36/2
f 42/37/2 30/38/2 43/39/2
f 43/39/2 30/38/2 32/4/2
f 46/23/6 45/40/6 44/18/6
f 45/40/6 46/23/6 47/34/6
f 42/3/5 49/2/5 48/1/5
f 49/2/5 42/3/5 43/4/5
f 51/43/3 31/42/3 50/41/3
f 31/42/3 51/43/3 52/44/3
f 31/42/3 52/44/3 36/45/3
f 36/45/3 52/44/3 53/30/3
f 54/27/3 50/41/3 31/42/3
f 50/41/3 54/27/3 55/46/3
f 55/46/3 54/27/3 53/30/3
f 55/46/3 53/30/3 52/44/3
f 27/1/1 56/48/1 28/47/1
f 56/48/1 27/1/1 57/49/1
f 57/49/1 54/14/1 56/48/1
f 54/14/1 57/49/1 58/50/1
f 54/14/1 58/50/1 59/29/1
f 59/29/1 58/50/1 60/51/1
f 59/29/1 60/51/1 61/28/1
f 60/51/1 14/27/1 61/28/1
f 62/52/1 14/27/1 60/51/1
f 7/53/1 14/27/1 62/52/1
f 14/27/1 7/53/1 63/54/1
f 7/53/1 62/52/1 8/3/1
f 61/28/1 14/27/1 15/30/1
f 54/14/1 59/29/1 53/15/1
f 66/57/3 65/56/3 64/55/3
f 65/56/3 66/57/3 67/58/3
f 65/56/3 67/58/3 68/40/3
f 68/40/3 67/58/3 69/34/3
f 70/59/3 64/55/3 65/56/3
f 64/55/3 70/59/3 71/60/3
f 71/60/3 70/59/3 69/34/3
f 71/60/3 69/34/3 67/58/3
f 61/30/6 33/10/6 59/15/6
f 33/10/6 61/30/6 35/45/6
f 34/10/3 43/61/3 32/45/3
f 43/61/3 34/10/3 49/62/3
f 65/27/5 73/52/5 72/54/5
f 73/52/5 65/27/5 74/51/5
f 74/51/5 65/27/5 44/28/5
f 74/51/5 44/28/5 75/50/5
f 44/28/5 65/27/5 68/30/5
f 45/29/5 75/50/5 44/28/5
f 21/14/5 75/50/5 45/29/5
f 21/14/5 76/49/5 75/50/5
f 21/14/5 5/47/5 76/49/5
f 5/47/5 21/14/5 77/48/5
f 76/49/5 5/47/5 6/1/5
f 21/14/5 45/29/5 18/15/5
f 25/3/5 72/54/5 73/52/5
f 72/54/5 25/3/5 26/53/5
f 34/2/4 48/64/4 49/63/4
f 48/64/4 34/2/4 78/65/4
f 78/65/4 34/2/4 38/66/4
f 18/67/4 47/28/4 23/30/4
f 47/28/4 18/67/4 45/68/4
f 44/69/2 69/15/2 46/29/2
f 69/15/2 44/69/2 68/70/2
f 33/28/2 53/67/2 59/68/2
f 53/67/2 33/28/2 36/30/2
f 10/15/4 61/69/4 15/70/4
f 61/69/4 10/15/4 35/29/4
f 22/27/1 80/72/1 79/71/1
f 80/72/1 22/27/1 40/4/1
f 40/4/1 22/27/1 47/28/1
f 40/4/1 47/28/1 39/2/1
f 39/2/1 47/28/1 46/29/1
f 47/28/1 22/27/1 23/30/1
f 70/14/1 39/2/1 46/29/1
f 81/73/1 39/2/1 70/14/1
f 39/2/1 81/73/1 82/74/1
f 70/14/1 46/29/1 69/15/1
f 82/75/2 2/63/2 39/2/2
f 2/63/2 82/75/2 83/76/2
f 2/63/2 83/76/2 1/64/2
f 37/13/3 78/62/3 38/10/3
f 78/62/3 37/13/3 84/35/3
f 84/35/3 37/13/3 80/23/3
f 80/23/3 37/13/3 79/22/3
f 83/33/3 78/62/3 84/35/3
f 78/62/3 83/33/3 41/61/3
f 81/59/3 41/61/3 83/33/3
f 81/59/3 30/45/3 41/61/3
f 30/45/3 81/59/3 29/42/3
f 81/59/3 83/33/3 82/34/3
f 4/39/4 80/77/4 40/4/4
f 80/77/4 4/39/4 84/78/4
f 84/78/4 4/39/4 3/37/4
f 79/80/2 85/79/2 22/15/2
f 85/79/2 79/80/2 37/81/2
f 85/79/2 37/81/2 86/82/2
f 86/82/2 37/81/2 13/30/2
f 13/30/2 63/7/2 86/82/2
f 63/7/2 13/30/2 14/67/2
f 77/5/2 22/15/2 85/79/2
f 22/15/2 77/5/2 21/70/2
f 65/67/4 81/83/4 70/30/4
f 81/83/4 65/67/4 87/82/4
f 87/82/4 65/67/4 72/7/4
f 87/82/4 29/84/4 81/83/4
f 29/84/4 87/82/4 88/79/4
f 29/84/4 88/79/4 56/5/4
f 29/84/4 56/5/4 31/15/4
f 31/15/4 56/5/4 54/70/4

usemtl wood

f 20/87/2 89/86/2 24/85/2
f 89/86/2 20/87/2 90/88/2
f 93/24/6 92/19/6 91/20/6
f 92/19/6 93/24/6 94/17/6
f 12/91/2 95/90/2 16/89/2
f 95/90/2 12/91/2 96/92/2
f 3/3/1 83/94/1 84/93/1
f 83/94/1 3/3/1 1/1/1
f 94/97/1 64/96/1 71/95/1
f 64/96/1 94/97/1 93/98/1
f 91/90/4 64/91/4 93/92/4
f 64/91/4 91/90/4 66/89/4
f 97/97/5 20/96/5 19/95/5
f 20/96/5 97/97/5 90/98/5
f 91/101/5 67/100/5 66/99/5
f 67/100/5 91/101/5 92/102/5
f 52/91/2 98/90/2 55/89/2
f 98/90/2 52/91/2 99/92/2
f 97/90/4 17/91/4 100/92/4
f 17/91/4 97/90/4 19/89/4
f 100/60/6 90/57/6 97/58/6
f 90/57/6 100/60/6 89/55/6
f 89/101/1 17/100/1 24/99/1
f 17/100/1 89/101/1 100/102/1
f 67/87/2 94/86/2 71/85/2
f 94/86/2 67/87/2 92/88/2
f 102/86/4 9/87/4 101/88/4
f 9/87/4 102/86/4 11/85/4
f 102/97/5 12/96/5 11/95/5
f 12/96/5 102/97/5 96/98/5
f 95/101/1 9/100/1 16/99/1
f 9/100/1 95/101/1 101/102/1
f 103/101/5 52/100/5 51/99/5
f 52/100/5 103/101/5 99/102/5
f 95/41/6 102/44/6 101/46/6
f 102/44/6 95/41/6 96/43/6
f 98/9/6 103/12/6 104/16/6
f 103/12/6 98/9/6 99/11/6
f 98/97/1 50/96/1 55/95/1
f 50/96/1 98/97/1 104/98/1
f 103/86/4 50/87/4 104/88/4
f 50/87/4 103/86/4 51/85/4
f 42/3/5 78/66/5 41/38/5
f 78/66/5 42/3/5 48/1/5

usemtl stone

f 72/21/6 106/96/6 105/103/6
f 106/96/6 72/21/6 56/14/6
f 56/14/6 72/21/6 26/18/6
f 56/14/6 26/18/6 28/15/6
f 109/82/2 108/5/2 107/79/2
f 108/5/2 109/82/2 110/7/2
f 62/8/2 75/104/2 76/6/2
f 75/104/2 62/8/2 60/105/2
f 62/85/3 6/18/3 8/15/3
f 6/18/3 62/85/3 76/106/3
f 88/27/3 112/107/3 111/99/3
f 112/107/3 88/27/3 87/56/3
f 27/30/3 73/108/3 57/91/3
f 73/108/3 27/30/3 25/40/3
f 72/48/1 112/110/1 87/109/1
f 112/110/1 72/48/1 105/111/1
f 109/96/3 85/21/3 86/14/3
f 85/21/3 109/96/3 107/103/3
f 63/48/5 109/110/5 86/109/5
f 109/110/5 63/48/5 110/111/5
f 77/56/6 7/30/6 5/40/6
f 7/30/6 77/56/6 63/27/6
f 63/27/6 77/56/6 108/107/6
f 63/27/6 108/107/6 110/99/6
f 107/113/1 77/54/1 85/112/1
f 77/54/1 107/113/1 108/114/1
f 106/5/4 112/82/4 105/7/4
f 112/82/4 106/5/4 111/79/4
f 75/108/6 58/85/6 74/106/6
f 58/85/6 75/108/6 60/91/6
f 106/114/5 88/112/5 111/113/5
f 88/112/5 106/114/5 56/54/5
f 58/104/4 73/8/4 74/105/4
f 73/8/4 58/104/4 57/6/4

