# Created by Kenney (www.kenney.nl)

mtllib bridge_woodRound.mtl

g bridge_woodRound

v -0.38 0.4 -0.52
v -0.4 0.4 -0.4
v -0.38 0.4 -0.38
v -0.52 0.4 -0.38
v -0.5 0.4 -0.4
v -0.5 0.4 -0.5
v -0.4 0.4 -0.5
v -0.52 0.4 -0.52
v 0.4 0.15 -0.4
v 0.4 0.1 -0.4
v 0.4 0.15 0.4
v 0.4 0.1 0.4
v 0.4 0.25 -0.45
v 0.4 0.25 -0.5
v 5.486527E-14 0.25 -0.45
v -0.4 0.25 -0.5
v -0.4 0.25 -0.45
v 0.5 0 0.5
v 0.4 0 0.5
v 0.5 0.4 0.5
v 0.4 0.25 0.5
v 0.4 0.35 0.5
v -0.4 0.25 0.5
v -0.4 0.35 0.5
v 0.4 0.4 0.5
v -0.5 0.4 0.5
v -0.5 0 0.5
v -0.4 0 0.5
v -0.4 0.4 0.5
v 0.4 0 0.45
v 0.3569864 0.07067967 0.45
v 0.4 0.25 0.45
v 0.3016317 0.1321747 0.45
v 0.2782663 0.15 0.45
v 0.2358495 0.1823592 0.45
v 0.1619139 0.2194984 0.45
v 0.08238094 0.2423081 0.45
v 6.641585E-14 0.25 0.45
v -0.08238094 0.2423081 0.45
v -0.4 0.25 0.45
v -0.1619139 0.2194984 0.45
v -0.2358495 0.1823592 0.45
v -0.2782663 0.15 0.45
v -0.3016317 0.1321747 0.45
v -0.3569864 0.07067967 0.45
v -0.4 0 0.45
v -0.38 0.4 0.38
v -0.38 0.4 0.52
v -0.52 0.4 0.52
v -0.5 0.4 0.4
v -0.4 0.4 0.4
v -0.52 0.4 0.38
v -0.4 0.35 -0.5
v -0.4 0.35 -0.4
v -0.5 0 -0.5
v -0.4 0 -0.5
v 0.4 0.35 -0.5
v 0.5 0.4 -0.5
v 0.5 0 -0.5
v 0.4 0 -0.5
v 0.4 0.4 -0.5
v -0.2058636 0.08723532 -0.45
v -0.2436432 0.04664858 -0.45
v -0.2058636 0.08723532 0.45
v -0.2436432 0.04664858 0.45
v -0.05622499 0.1599233 0.45
v -0.05622499 0.1599233 -0.45
v -0.09200526 0.15 0.45
v -0.1105063 0.1448689 -0.45
v -0.1105063 0.1448689 0.45
v 6.35282E-14 0.165 0.45
v 5.486527E-14 0.165 -0.45
v 0.05622499 0.1599233 0.45
v 0.05622499 0.1599233 -0.45
v 0.4 0.35 -0.4
v 0.4 0.4 -0.4
v -0.4 0.1 -0.4
v -0.4 0.15 -0.4
v -0.4 0.1 0.4
v -0.4 0.15 0.4
v 0.4 0.35 0.4
v 0.4 0.4 0.4
v 0.4 0 -0.45
v 0.3569864 0.07067967 -0.45
v 0.3016317 0.1321747 -0.45
v 0.2782663 0.15 -0.45
v 0.2358495 0.1823592 -0.45
v 0.1619139 0.2194984 -0.45
v 0.08238094 0.2423081 -0.45
v -0.08238094 0.2423081 -0.45
v -0.1619139 0.2194984 -0.45
v -0.2358495 0.1823592 -0.45
v -0.2782663 0.15 -0.45
v -0.3016317 0.1321747 -0.45
v -0.3569864 0.07067967 -0.45
v -0.4 0 -0.45
v 0.5 0.1 -0.4
v 0.42 0.15 -0.4
v 0.5 0.4 -0.4
v 0.42 0.2 -0.4
v -0.42 0.2 -0.4
v -0.42 0.15 -0.4
v -0.5 0.1 -0.4
v 0.52 0.4 0.38
v 0.52 0.4 0.52
v 0.38 0.4 0.52
v 0.5 0.4 0.4
v 0.38 0.4 0.38
v -0.273 0 -0.45
v -0.273 0 0.45
v 0.273 0 0.45
v 0.273 0 -0.45
v -0.1609673 0.1203571 0.45
v -0.1609673 0.1203571 -0.45
v -0.1899167 0.099 0.45
v -0.1899167 0.099 -0.45
v 0.5 0.05 -0.4
v 0.5 0.05 0.4
v 0.5 0.1 0.4
v 0.1609673 0.1203571 0.45
v 0.1609673 0.1203571 -0.45
v 0.1105063 0.1448689 0.45
v 0.1105063 0.1448689 -0.45
v -0.4 0.35 0.4
v 0.2058636 0.08723532 0.45
v 0.2058636 0.08723532 -0.45
v 0.1899167 0.099 0.45
v 0.1899167 0.099 -0.45
v -0.5 0.05 -0.4
v -0.5 0.05 0.4
v -0.5 0.1 0.4
v 0.52 0.4 -0.52
v 0.52 0.4 -0.38
v 0.38 0.4 -0.38
v 0.38 0.4 -0.52
v 0.09200526 0.15 0.45
v 0.2436432 0.04664858 -0.45
v 0.2436432 0.04664858 0.45
v 0.42 0.15 0.4
v 0.42 0.2 0.4
v -0.42 0.2 0.4
v -0.42 0.15 0.4
v -0.52 0.1 -0.4
v -0.52 0.1 0.4
v -0.52 0.05 -0.4
v -0.52 0.05 0.4
v 0.52 0.05 0.4
v 0.52 0.05 -0.4
v 0.52 0.1 -0.4
v 0.52 0.1 0.4
v 0.32 0.2 -0.3
v -0.32 0.2 -0.3
v -0.32 0.2 0.3
v 0.32 0.2 0.3
v -0.52 0.45 -0.52
v -0.38 0.45 -0.52
v -0.52 0.45 -0.38
v 0.38 0.45 -0.52
v 0.52 0.45 -0.52
v 0.52 0.45 -0.38
v 0.38 0.45 -0.38
v 0.38 0.45 0.38
v 0.38 0.45 0.52
v -0.52 0.45 0.38
v -0.52 0.45 0.52
v 0.52 0.45 0.38
v 0.52 0.45 0.52
v -0.38 0.45 0.38
v -0.38 0.45 -0.38
v -0.38 0.45 0.52

vn 0 -1 0
vn 1 0 0
vn 0 0 1
vn 0 0 -1
vn 0.6656808 -0.7462366 0
vn 0.7926546 -0.6096708 0
vn 0.1793194 -0.9837909 0
vn 0.2672535 -0.9636263 0
vn 0.3535515 -0.9354151 0
vn 0.08992587 -0.9959485 0
vn -0.1793194 -0.9837909 0
vn -0.08992587 -0.9959485 0
vn -1 0 0
vn 0.5174755 -0.855698 0
vn 0.5936666 -0.8047111 0
vn -0.5174755 -0.855698 0
vn -0.3535515 -0.9354151 0
vn 0 1 0
vn -0.6656808 -0.7462366 0
vn -0.5936666 -0.8047111 0
vn -0.2672535 -0.9636263 0
vn -0.7926546 -0.6096708 0
vn -0.846352 -0.5326239 0
vn 0.846352 -0.5326239 0

vt -14.96063 -20.47244
vt -15.74803 -15.74803
vt -14.96063 -14.96063
vt -20.47244 -14.96063
vt -19.68504 -15.74803
vt -19.68504 -19.68504
vt -15.74803 -19.68504
vt -20.47244 -20.47244
vt 15.74803 5.905512
vt 15.74803 3.937008
vt -15.74803 5.905512
vt -15.74803 3.937008
vt 15.74803 -17.71654
vt 15.74803 -19.68504
vt 2.16005E-12 -17.71654
vt -15.74803 -17.71654
vt 19.68504 -3.591662E-12
vt 15.74803 -3.591662E-12
vt 19.68504 15.74803
vt 15.74803 9.84252
vt 15.74803 13.77953
vt -15.74803 9.84252
vt -15.74803 13.77953
vt 15.74803 15.74803
vt -19.68504 15.74803
vt -19.68504 -3.591662E-12
vt -15.74803 -3.591662E-12
vt -15.74803 15.74803
vt 15.74803 -2.533087E-11
vt 14.05458 2.782664
vt 11.87527 5.203729
vt 10.95536 5.905512
vt 9.285415 7.179498
vt 6.374565 8.641667
vt 3.243344 9.539689
vt -2.388875E-11 9.84252
vt -3.243344 9.539689
vt -6.374565 8.641667
vt -9.285415 7.179498
vt -10.95536 5.905512
vt -11.87527 5.203729
vt -14.05458 2.782664
vt -15.74803 -1.46566E-13
vt -14.96063 14.96063
vt -15.74803 19.68504
vt -14.96063 20.47244
vt -20.47244 20.47244
vt -19.68504 19.68504
vt -20.47244 14.96063
vt 19.68504 13.77953
vt 19.68504 -1.508877E-11
vt 15.74803 -1.508877E-11
vt -19.68504 -1.508877E-11
vt -15.74803 -1.508877E-11
vt 17.71654 -3.008265
vt 17.71654 -5.191293
vt -17.71654 -3.008265
vt -17.71654 -5.191293
vt -17.71654 -0.4503861
vt 17.71654 -0.4503861
vt -17.71654 -1.912231
vt 17.71654 -2.668111
vt -17.71654 -2.668111
vt -17.71654 0.584164
vt 17.71654 0.584164
vt -17.71654 -1.638423
vt 17.71654 -1.638423
vt -19.68504 13.77953
vt -15.74803 1.46566E-13
vt -2.256115E-11 9.84252
vt 15.74803 -2.603826E-13
vt 19.68504 3.937008
vt 16.53543 5.905512
vt 16.53543 7.874016
vt -16.53543 7.874016
vt -16.53543 5.905512
vt -19.68504 3.937008
vt 20.47244 14.96063
vt 19.68504 19.68504
vt 20.47244 20.47244
vt 14.96063 20.47244
vt 15.74803 19.68504
vt 14.96063 14.96063
vt -15.74803 17.71654
vt -10.74803 -17.71654
vt -10.74803 17.71654
vt 15.74803 17.71654
vt 2.614797E-12 17.71654
vt 17.71654 2.1081E-14
vt 17.71654 9.84252
vt 19.68504 2.1081E-14
vt 19.68504 9.84252
vt -17.71654 9.84252
vt -17.71654 0
vt -19.68504 9.84252
vt -19.68504 0
vt 10.74803 17.71654
vt 10.74803 -17.71654
vt 19.68504 -19.68504
vt -17.71654 -2.286621
vt 17.71654 -2.286621
vt -17.71654 -3.702956
vt 17.71654 -3.702956
vt -17.71654 -4.483152
vt 17.71654 -4.483152
vt 19.68504 2.945013E-14
vt 15.74803 1.968504
vt -19.68504 2.945013E-14
vt -15.74803 1.968504
vt 17.71654 -3.62995
vt -17.71654 -3.62995
vt 17.71654 -1.421311
vt -17.71654 -1.421311
vt -19.68504 -1.285521E-13
vt 19.68504 -1.285521E-13
vt 15.74803 -15.74803
vt 20.47244 -20.47244
vt 19.68504 -15.74803
vt 20.47244 -14.96063
vt 14.96063 -14.96063
vt 14.96063 -20.47244
vt -19.68504 2.258679E-14
vt -17.71654 2.258679E-14
vt 17.71654 -1.912231
vt -17.71654 -5.724659
vt -17.71654 -3.554689
vt 17.71654 -5.724659
vt 17.71654 -3.554689
vt 20.47244 -15.74803
vt 20.47244 15.74803
vt 19.68504 1.968504
vt 20.47244 1.968504
vt 20.47244 3.937008
vt -19.68504 1.968504
vt -20.47244 1.968504
vt -20.47244 3.937008
vt -20.47244 -15.74803
vt -20.47244 15.74803
vt 16.53543 15.74803
vt 16.53543 -15.74803
vt -16.53543 15.74803
vt -12.59842 -11.81102
vt -16.53543 -15.74803
vt 12.59842 -11.81102
vt 12.59842 11.81102
vt -12.59842 11.81102
vt 15.74803 7.874016
vt -15.74803 7.874016
vt 14.96063 15.74803
vt 20.47244 17.71654
vt 14.96063 17.71654
vt -20.47244 17.71654
vt -14.96063 15.74803
vt -14.96063 17.71654
vt 10.74803 -2.603826E-13
vt 9.592254 1.836558
vt 8.104868 3.434461
vt 7.477036 3.897638
vt 6.337296 4.738469
vt 4.35064 5.7035
vt 2.213582 6.296195
vt -2.402728E-11 6.496063
vt -2.213582 6.296195
vt -4.35064 5.7035
vt -6.337296 4.738469
vt -7.477036 3.897638
vt -8.104868 3.434461
vt -9.592254 1.836558
vt -10.74803 -2.603826E-13
vt 10.74803 1.816181E-11
vt 3.622254 5.905512
vt 1.779346E-11 6.496063
vt -3.622254 5.905512
vt -10.74803 1.816181E-11

usemtl woodBark

f 3/3/1 2/2/1 1/1/1
f 2/2/1 3/3/1 4/4/1
f 2/2/1 4/4/1 5/5/1
f 5/5/1 4/4/1 6/6/1
f 7/7/1 1/1/1 2/2/1
f 1/1/1 7/7/1 8/8/1
f 8/8/1 7/7/1 6/6/1
f 8/8/1 6/6/1 4/4/1
f 11/11/2 10/10/2 9/9/2
f 10/10/2 11/11/2 12/12/2
f 15/15/1 14/14/1 13/13/1
f 14/14/1 15/15/1 16/7/1
f 16/7/1 15/15/1 17/16/1
f 20/19/3 19/18/3 18/17/3
f 19/18/3 20/19/3 21/20/3
f 21/20/3 20/19/3 22/21/3
f 21/20/3 22/21/3 23/22/3
f 23/22/3 22/21/3 24/23/3
f 22/21/3 20/19/3 25/24/3
f 26/25/3 23/22/3 24/23/3
f 27/26/3 23/22/3 26/25/3
f 23/22/3 27/26/3 28/27/3
f 26/25/3 24/23/3 29/28/3
f 32/20/3 31/30/3 30/29/3
f 31/30/3 32/20/3 33/31/3
f 33/31/3 32/20/3 34/32/3
f 34/32/3 32/20/3 35/33/3
f 35/33/3 32/20/3 36/34/3
f 36/34/3 32/20/3 37/35/3
f 37/35/3 32/20/3 38/36/3
f 40/22/3 39/37/3 38/36/3
f 40/22/3 41/38/3 39/37/3
f 40/22/3 42/39/3 41/38/3
f 40/22/3 43/40/3 42/39/3
f 40/22/3 44/41/3 43/40/3
f 40/22/3 45/42/3 44/41/3
f 45/42/3 40/22/3 46/43/3
f 48/46/1 29/45/1 47/44/1
f 29/45/1 48/46/1 49/47/1
f 29/45/1 49/47/1 26/48/1
f 26/48/1 49/47/1 50/25/1
f 51/28/1 47/44/1 29/45/1
f 47/44/1 51/28/1 52/49/1
f 52/49/1 51/28/1 50/25/1
f 52/49/1 50/25/1 49/47/1
f 2/24/2 53/50/2 7/19/2
f 53/50/2 2/24/2 54/21/2
f 6/19/4 56/52/4 55/51/4
f 56/52/4 6/19/4 16/20/4
f 16/20/4 6/19/4 53/21/4
f 16/20/4 53/21/4 14/22/4
f 14/22/4 53/21/4 57/23/4
f 53/21/4 6/19/4 7/24/4
f 58/25/4 14/22/4 57/23/4
f 59/53/4 14/22/4 58/25/4
f 14/22/4 59/53/4 60/54/4
f 58/25/4 57/23/4 61/28/4
f 64/57/5 63/56/6 62/55/5
f 63/56/6 64/57/5 65/58/6
f 68/61/8 67/60/7 66/59/7
f 67/60/7 68/61/8 69/62/9
f 69/62/9 68/61/8 70/63/9
f 66/66/7 72/65/10 71/64/10
f 72/65/10 66/66/7 67/67/7
f 71/65/12 74/66/11 73/67/11
f 74/66/11 71/65/12 72/64/12
f 75/23/13 61/25/13 57/68/13
f 61/25/13 75/23/13 76/28/13
f 79/10/13 78/11/13 77/12/13
f 78/11/13 79/10/13 80/9/13
f 22/50/13 82/24/13 81/21/13
f 82/24/13 22/50/13 25/19/13
f 84/42/4 13/22/4 83/69/4
f 13/22/4 84/42/4 85/41/4
f 13/22/4 85/41/4 86/40/4
f 13/22/4 86/40/4 87/39/4
f 13/22/4 87/39/4 88/38/4
f 13/22/4 88/38/4 89/37/4
f 13/22/4 89/37/4 15/70/4
f 90/35/4 17/20/4 15/70/4
f 91/34/4 17/20/4 90/35/4
f 92/33/4 17/20/4 91/34/4
f 93/32/4 17/20/4 92/33/4
f 94/31/4 17/20/4 93/32/4
f 95/30/4 17/20/4 94/31/4
f 17/20/4 95/30/4 96/71/4
f 99/19/3 98/73/3 97/72/3
f 98/73/3 99/19/3 100/74/3
f 100/74/3 99/19/3 75/21/3
f 100/74/3 75/21/3 101/75/3
f 75/21/3 99/19/3 76/24/3
f 54/23/3 101/75/3 75/21/3
f 5/25/3 101/75/3 54/23/3
f 5/25/3 102/76/3 101/75/3
f 103/77/3 102/76/3 5/25/3
f 102/76/3 103/77/3 77/12/3
f 102/76/3 77/12/3 78/11/3
f 5/25/3 54/23/3 2/28/3
f 9/9/3 97/72/3 98/73/3
f 97/72/3 9/9/3 10/10/3
f 105/80/1 20/79/1 104/78/1
f 20/79/1 105/80/1 106/81/1
f 20/79/1 106/81/1 25/82/1
f 25/82/1 106/81/1 82/24/1
f 107/19/1 104/78/1 20/79/1
f 104/78/1 107/19/1 108/83/1
f 108/83/1 107/19/1 82/24/1
f 108/83/1 82/24/1 106/81/1
f 27/48/1 46/84/1 28/45/1
f 46/84/1 27/48/1 96/16/1
f 96/16/1 27/48/1 56/7/1
f 56/7/1 27/48/1 55/6/1
f 109/85/1 46/84/1 96/16/1
f 46/84/1 109/85/1 110/86/1
f 23/45/1 32/87/1 21/82/1
f 32/87/1 23/45/1 38/88/1
f 38/88/1 23/45/1 40/84/1
f 19/91/13 32/90/13 30/89/13
f 32/90/13 19/91/13 21/92/13
f 23/95/2 46/94/2 40/93/2
f 46/94/2 23/95/2 28/96/2
f 111/97/1 83/13/1 30/87/1
f 83/13/1 111/97/1 112/98/1
f 59/99/1 30/87/1 83/13/1
f 59/99/1 19/82/1 30/87/1
f 19/82/1 59/99/1 18/79/1
f 59/99/1 83/13/1 60/14/1
f 115/102/15 114/101/14 113/100/14
f 114/101/14 115/102/15 116/103/15
f 116/103/15 115/102/15 64/104/5
f 116/103/15 64/104/5 62/105/5
f 99/24/2 59/106/2 58/19/2
f 59/106/2 99/24/2 117/107/2
f 117/107/2 99/24/2 97/10/2
f 117/107/2 18/108/2 59/106/2
f 18/108/2 117/107/2 118/109/2
f 18/108/2 118/109/2 119/12/2
f 18/108/2 119/12/2 20/25/2
f 20/25/2 119/12/2 107/28/2
f 122/112/17 121/111/16 120/110/16
f 121/111/16 122/112/17 123/113/17
f 124/24/18 22/45/18 81/28/18
f 22/45/18 124/24/18 24/82/18
f 127/103/20 126/104/19 125/105/19
f 126/104/19 127/103/20 128/102/20
f 128/102/20 127/103/20 120/101/16
f 128/102/20 120/101/16 121/100/16
f 55/114/13 129/109/13 6/25/13
f 129/109/13 55/114/13 27/115/13
f 129/109/13 27/115/13 130/107/13
f 130/107/13 27/115/13 26/19/13
f 26/19/13 131/10/13 130/107/13
f 131/10/13 26/19/13 50/24/13
f 103/12/13 6/25/13 129/109/13
f 6/25/13 103/12/13 5/28/13
f 57/7/18 54/116/18 75/2/18
f 54/116/18 57/7/18 53/14/18
f 133/119/1 99/118/1 132/117/1
f 99/118/1 133/119/1 134/120/1
f 99/118/1 134/120/1 76/116/1
f 76/116/1 134/120/1 61/14/1
f 58/99/1 132/117/1 99/118/1
f 132/117/1 58/99/1 135/121/1
f 135/121/1 58/99/1 61/14/1
f 135/121/1 61/14/1 134/120/1
f 29/25/2 124/23/2 51/28/2
f 124/23/2 29/25/2 24/68/2
f 17/90/2 56/91/2 16/92/2
f 56/91/2 17/90/2 96/89/2
f 83/123/13 14/95/13 60/122/13
f 14/95/13 83/123/13 13/93/13
f 113/111/14 69/112/9 70/113/9
f 69/112/9 113/111/14 114/110/14
f 136/124/21 123/63/17 122/62/17
f 123/63/17 136/124/21 74/59/11
f 74/59/11 136/124/21 73/60/11
f 138/56/22 126/57/19 137/58/22
f 126/57/19 138/56/22 125/55/19
f 111/127/23 137/126/22 112/125/23
f 137/126/22 111/127/23 138/128/22
f 65/126/6 109/127/24 63/128/6
f 109/127/24 65/126/6 110/125/24
f 11/11/4 119/77/4 12/12/4
f 119/77/4 11/11/4 139/76/4
f 139/76/4 107/25/4 119/77/4
f 107/25/4 139/76/4 140/75/4
f 107/25/4 140/75/4 81/23/4
f 81/23/4 140/75/4 141/74/4
f 81/23/4 141/74/4 124/21/4
f 141/74/4 50/19/4 124/21/4
f 142/73/4 50/19/4 141/74/4
f 142/73/4 131/72/4 50/19/4
f 131/72/4 142/73/4 79/10/4
f 79/10/4 142/73/4 80/9/4
f 124/21/4 50/19/4 51/24/4
f 107/25/4 81/23/4 82/28/4

usemtl stone

f 103/118/18 79/24/18 77/116/18
f 79/24/18 103/118/18 131/19/18
f 131/19/18 103/118/18 143/129/18
f 131/19/18 143/129/18 144/130/18
f 146/107/13 143/12/13 145/109/13
f 143/12/13 146/107/13 144/10/13
f 118/19/1 148/129/1 147/130/1
f 148/129/1 118/19/1 117/118/1
f 145/132/4 103/72/4 129/131/4
f 103/72/4 145/132/4 143/133/4
f 150/12/2 148/107/2 149/10/2
f 148/107/2 150/12/2 147/109/2
f 131/77/3 146/135/3 130/134/3
f 146/135/3 131/77/3 144/136/3
f 97/5/18 150/138/18 149/137/18
f 150/138/18 97/5/18 119/25/18
f 119/25/18 97/5/18 10/2/18
f 119/25/18 10/2/18 12/28/18
f 11/24/1 98/140/1 139/139/1
f 98/140/1 11/24/1 9/116/1
f 100/143/18 151/142/18 140/141/18
f 151/142/18 100/143/18 101/140/18
f 151/142/18 101/140/18 152/144/18
f 152/144/18 101/140/18 153/145/18
f 154/146/18 140/141/18 151/142/18
f 140/141/18 154/146/18 141/139/18
f 141/139/18 154/146/18 153/145/18
f 141/139/18 153/145/18 101/140/18
f 146/138/1 129/5/1 130/25/1
f 129/5/1 146/138/1 145/137/1
f 97/77/4 148/135/4 117/134/4
f 148/135/4 97/77/4 149/136/4
f 140/148/2 98/9/2 100/147/2
f 98/9/2 140/148/2 139/11/2
f 150/133/3 118/131/3 147/132/3
f 118/131/3 150/133/3 119/72/3
f 142/9/13 101/148/13 102/11/13
f 101/148/13 142/9/13 141/147/13

usemtl wood

f 155/150/4 1/149/4 8/130/4
f 1/149/4 155/150/4 156/151/4
f 142/141/1 78/2/1 80/28/1
f 78/2/1 142/141/1 102/143/1
f 4/153/13 155/152/13 8/138/13
f 155/152/13 4/153/13 157/154/13
f 158/154/4 132/138/4 135/153/4
f 132/138/4 158/154/4 159/152/4
f 160/150/3 134/149/3 133/130/3
f 134/149/3 160/150/3 161/151/3
f 106/130/13 162/151/13 108/149/13
f 162/151/13 106/130/13 163/150/13
f 49/130/13 164/151/13 52/149/13
f 164/151/13 49/130/13 165/150/13
f 159/8/18 161/3/18 160/4/18
f 161/3/18 159/8/18 158/1/18
f 134/153/13 158/152/13 135/138/13
f 158/152/13 134/153/13 161/154/13
f 162/154/4 104/138/4 108/153/4
f 104/138/4 162/154/4 166/152/4
f 162/44/18 167/47/18 166/49/18
f 167/47/18 162/44/18 163/46/18
f 96/71/4 63/156/4 109/155/4
f 63/156/4 96/71/4 95/30/4
f 63/156/4 95/30/4 62/157/4
f 62/157/4 95/30/4 94/31/4
f 62/157/4 94/31/4 116/158/4
f 116/158/4 94/31/4 114/159/4
f 114/159/4 94/31/4 69/160/4
f 69/160/4 94/31/4 93/32/4
f 69/160/4 93/32/4 67/161/4
f 67/161/4 93/32/4 92/33/4
f 67/161/4 92/33/4 72/162/4
f 72/162/4 92/33/4 87/39/4
f 87/39/4 92/33/4 88/38/4
f 88/38/4 92/33/4 91/34/4
f 88/38/4 91/34/4 90/35/4
f 88/38/4 90/35/4 89/37/4
f 89/37/4 90/35/4 15/70/4
f 87/39/4 74/163/4 72/162/4
f 86/40/4 74/163/4 87/39/4
f 86/40/4 123/164/4 74/163/4
f 85/41/4 123/164/4 86/40/4
f 85/41/4 121/165/4 123/164/4
f 85/41/4 128/166/4 121/165/4
f 85/41/4 126/167/4 128/166/4
f 84/42/4 126/167/4 85/41/4
f 84/42/4 137/168/4 126/167/4
f 83/69/4 137/168/4 84/42/4
f 137/168/4 83/69/4 112/169/4
f 164/150/4 47/149/4 52/130/4
f 47/149/4 164/150/4 168/151/4
f 169/154/3 4/138/3 3/153/3
f 4/138/3 169/154/3 157/152/3
f 160/151/2 132/130/2 159/150/2
f 132/130/2 160/151/2 133/149/2
f 170/152/2 47/153/2 168/154/2
f 47/153/2 170/152/2 48/138/2
f 31/30/3 111/170/3 30/29/3
f 111/170/3 31/30/3 138/156/3
f 138/156/3 31/30/3 125/157/3
f 125/157/3 31/30/3 33/31/3
f 125/157/3 33/31/3 127/158/3
f 127/158/3 33/31/3 120/159/3
f 120/159/3 33/31/3 122/160/3
f 122/160/3 33/31/3 34/32/3
f 122/160/3 34/32/3 136/171/3
f 136/171/3 34/32/3 73/161/3
f 73/161/3 34/32/3 35/33/3
f 73/161/3 35/33/3 71/172/3
f 71/172/3 35/33/3 42/39/3
f 42/39/3 35/33/3 41/38/3
f 41/38/3 35/33/3 36/34/3
f 41/38/3 36/34/3 37/35/3
f 41/38/3 37/35/3 39/37/3
f 39/37/3 37/35/3 38/36/3
f 42/39/3 66/163/3 71/172/3
f 42/39/3 68/173/3 66/163/3
f 43/40/3 68/173/3 42/39/3
f 43/40/3 70/164/3 68/173/3
f 44/41/3 70/164/3 43/40/3
f 44/41/3 113/165/3 70/164/3
f 44/41/3 115/166/3 113/165/3
f 44/41/3 64/167/3 115/166/3
f 45/42/3 64/167/3 44/41/3
f 45/42/3 65/168/3 64/167/3
f 45/42/3 110/174/3 65/168/3
f 110/174/3 45/42/3 46/43/3
f 167/150/3 106/149/3 105/130/3
f 106/149/3 167/150/3 163/151/3
f 167/152/2 104/153/2 166/154/2
f 104/153/2 167/152/2 105/138/2
f 170/154/3 49/138/3 48/153/3
f 49/138/3 170/154/3 165/152/3
f 156/121/18 157/119/18 169/120/18
f 157/119/18 156/121/18 155/117/18
f 169/151/2 1/130/2 156/150/2
f 1/130/2 169/151/2 3/149/2
f 164/78/18 170/81/18 168/83/18
f 170/81/18 164/78/18 165/80/18

usemtl stoneDark

f 152/144/18 154/146/18 151/142/18
f 154/146/18 152/144/18 153/145/18

