# Created by Kenney (www.kenney.nl)

mtllib bridge_side_stone.mtl

g bridge_side_stone

v 0.5 0.35 -0.5
v 0.5 0 -0.5
v 0.5 0.35 -0.4
v 0.5 0.05 -0.4
v 0.5 0.1 -0.4
v 0.5 0 0.5
v 0.5 0.05 0.4
v 0.5 0.1 0.4
v 0.5 0.35 0.5
v 0.5 0.35 0.4
v 0.4 0.3 -0.4
v -0.5 0.3 -0.4
v 0.4 0.3 -0.5
v -0.5 0.3 -0.5
v 0.4 0 -0.5
v 0.4 0.25 -0.5
v 0.4 0 -0.45
v 0.4 0.25 -0.45
v 0.4 0.15 -0.45
v -0.5 0.15 0.45
v -0.5 0.25 0.45
v 0.4 0.15 0.45
v 0.4 0.25 0.45
v -0.5 0.25 -0.45
v -0.5 0.25 -0.5
v 0.4 0.35 -0.5
v 0.4 0.35 -0.4
v -0.5 0 -0.45
v -0.5 0.15 -0.45
v -0.5 0 0.45
v -0.5 0.2 -0.4
v -0.5 0.2 0.4
v -0.5 0.3 0.4
v -0.5 0.3 0.5
v -0.5 0.25 0.5
v 0.4 0.25 0.5
v 0.52 0.35 0.38
v 0.52 0.35 0.52
v 0.38 0.35 0.52
v 0.4 0.35 0.5
v 0.4 0.35 0.4
v 0.38 0.35 0.38
v 0.4 0 0.45
v 0.4 0 0.5
v 0.4 0.15 -0.4
v 0.4 0.1 -0.4
v 0.4 0.15 0.4
v 0.4 0.1 0.4
v 0.4 0.3 0.4
v 0.4 0.3 0.5
v 0.42 0.15 -0.4
v 0.42 0.2 -0.4
v 0.42 0.15 0.4
v 0.42 0.2 0.4
v 0.52 0.35 -0.52
v 0.52 0.35 -0.38
v 0.38 0.35 -0.38
v 0.38 0.35 -0.52
v 0.52 0.05 -0.4
v 0.52 0.1 -0.4
v 0.52 0.1 0.4
v 0.52 0.05 0.4
v 0.52 0.375 -0.38
v 0.38 0.375 -0.38
v 0.38 0.375 -0.52
v 0.52 0.375 -0.52
v 0.5025 0.4 -0.3975
v 0.3975 0.4 -0.3975
v 0.38 0.375 0.38
v 0.38 0.375 0.52
v 0.52 0.375 0.38
v 0.52 0.375 0.52
v 0.5025 0.4 0.3975
v 0.5025 0.4 0.5025
v 0.3975 0.4 0.3975
v 0.3975 0.4 0.5025
v 0.5025 0.4 -0.5025
v 0.3975 0.4 -0.5025

vn 1 0 0
vn 0 1 0
vn -1 0 0
vn 0 0 1
vn 0 -1 0
vn 0 0 -1
vn 0 0.5734624 0.8192319
vn 0.8192319 0.5734624 0
vn -0.8192319 0.5734624 0
vn 0 0.5734624 -0.8192319

vt 19.68504 13.77953
vt 19.68504 1.471389E-13
vt 15.74803 13.77953
vt 15.74803 1.968504
vt 15.74803 3.937008
vt -19.68504 1.471389E-13
vt -15.74803 1.968504
vt -15.74803 3.937008
vt -19.68504 13.77953
vt -15.74803 13.77953
vt -15.74803 -15.74803
vt 19.68504 -15.74803
vt -15.74803 -19.68504
vt 19.68504 -19.68504
vt -19.68504 2.258679E-14
vt -19.68504 9.84252
vt -17.71654 2.258679E-14
vt -17.71654 9.84252
vt -17.71654 5.905512
vt -19.68504 5.905512
vt 15.74803 5.905512
vt 15.74803 9.84252
vt 15.74803 -17.71654
vt 15.74803 -19.68504
vt -19.68504 -17.71654
vt -19.68504 -19.68504
vt -19.68504 11.81102
vt -15.74803 11.81102
vt -17.71654 5.21957E-13
vt 17.71654 5.163104E-13
vt -15.74803 7.874016
vt 15.74803 7.874016
vt 17.71654 9.84252
vt 15.74803 11.81102
vt 19.68504 11.81102
vt 17.71654 5.905512
vt 19.68504 9.84252
vt 15.74803 19.68504
vt 15.74803 17.71654
vt -19.68504 19.68504
vt -19.68504 17.71654
vt 20.47244 14.96063
vt 19.68504 19.68504
vt 20.47244 20.47244
vt 14.96063 20.47244
vt 15.74803 15.74803
vt 19.68504 15.74803
vt 14.96063 14.96063
vt 17.71654 2.1081E-14
vt 19.68504 2.1081E-14
vt -15.74803 9.84252
vt -19.68504 2.812402E-14
vt -15.74803 2.812402E-14
vt -15.74803 5.905512
vt -15.74803 15.74803
vt -15.74803 19.68504
vt 19.68504 3.937008
vt 16.53543 5.905512
vt 16.53543 7.874016
vt -19.68504 7.874016
vt -19.68504 3.937008
vt -16.53543 5.905512
vt -16.53543 7.874016
vt 19.68504 7.874016
vt 19.68504 -3.950994E-12
vt 15.74803 -3.950994E-12
vt 19.68504 5.905512
vt 20.47244 -20.47244
vt 20.47244 -14.96063
vt 14.96063 -14.96063
vt 15.74803 -15.74803
vt 14.96063 -20.47244
vt -16.53543 -15.74803
vt -16.53543 15.74803
vt 19.68504 -2.635125E-15
vt -15.74803 4.991882E-27
vt -19.68504 1.968504
vt -20.47244 1.968504
vt -20.47244 3.937008
vt -20.47244 -15.74803
vt -20.47244 15.74803
vt -19.68504 -15.74803
vt -19.68504 15.74803
vt -19.68504 -8.281822E-15
vt 15.74803 5.029749E-31
vt 20.47244 15.74803
vt 20.47244 -15.74803
vt 20.47244 13.77953
vt 14.96063 13.77953
vt 20.47244 14.76378
vt 14.96063 14.76378
vt -14.96063 13.77953
vt -20.47244 13.77953
vt -14.96063 14.76378
vt -20.47244 14.76378
vt 16.53543 15.74803
vt 16.53543 -15.74803
vt 20.47244 1.968504
vt 19.68504 1.968504
vt 20.47244 3.937008
vt 20.47244 20.67432
vt 14.96063 20.67432
vt 19.78346 21.87575
vt 15.64961 21.87575
vt -14.96063 0.3547855
vt -20.47244 0.3547855
vt -15.64961 1.556218
vt -19.78346 1.556218
vt -19.78346 -15.64961
vt -15.64961 -15.64961
vt -19.78346 -19.78346
vt -15.64961 -19.78346
vt -20.47244 20.67432
vt -19.78346 21.87575
vt -14.96063 20.67432
vt -15.64961 21.87575
vt 20.47244 0.3547855
vt 14.96063 0.3547855
vt 19.78346 1.556218
vt 15.64961 1.556218
vt -19.78346 19.78346
vt -15.64961 19.78346
vt -19.78346 15.64961
vt -15.64961 15.64961

usemtl stoneDark

f 3/3/1 2/2/1 1/1/1
f 2/2/1 3/3/1 4/4/1
f 4/4/1 3/3/1 5/5/1
f 4/4/1 6/6/1 2/2/1
f 6/6/1 4/4/1 7/7/1
f 6/6/1 7/7/1 8/8/1
f 6/6/1 8/8/1 9/9/1
f 9/9/1 8/8/1 10/10/1
f 13/13/2 12/12/2 11/11/2
f 12/12/2 13/13/2 14/14/2
f 17/17/3 16/16/3 15/15/3
f 16/16/3 17/17/3 18/18/3
f 18/18/3 17/17/3 19/19/3
f 22/21/4 21/16/4 20/20/4
f 21/16/4 22/21/4 23/22/4
f 24/25/5 16/24/5 18/23/5
f 16/24/5 24/25/5 25/26/5
f 11/28/3 26/9/3 13/27/3
f 26/9/3 11/28/3 27/10/3
f 30/30/3 29/19/3 28/29/3
f 29/19/3 30/30/3 31/31/3
f 29/19/3 31/31/3 24/18/3
f 31/31/3 30/30/3 32/32/3
f 21/33/3 32/32/3 30/30/3
f 21/33/3 33/34/3 32/32/3
f 33/34/3 21/33/3 34/35/3
f 21/33/3 30/30/3 20/36/3
f 34/35/3 21/33/3 35/37/3
f 12/28/3 24/18/3 31/31/3
f 12/28/3 25/16/3 24/18/3
f 25/16/3 12/28/3 14/27/3
f 35/40/5 23/39/5 36/38/5
f 23/39/5 35/40/5 21/41/5
f 38/44/5 9/43/5 37/42/5
f 9/43/5 38/44/5 39/45/5
f 9/43/5 39/45/5 40/38/5
f 40/38/5 39/45/5 41/46/5
f 10/47/5 37/42/5 9/43/5
f 37/42/5 10/47/5 42/48/5
f 42/48/5 10/47/5 41/46/5
f 42/48/5 41/46/5 39/45/5
f 44/50/3 22/36/3 43/49/3
f 22/36/3 44/50/3 23/33/3
f 23/33/3 44/50/3 36/37/3
f 14/35/6 16/51/6 25/37/6
f 16/51/6 14/35/6 13/28/6
f 1/9/6 16/51/6 13/28/6
f 2/52/6 16/51/6 1/9/6
f 16/51/6 2/52/6 15/53/6
f 1/9/6 13/28/6 26/10/6
f 47/54/1 46/5/1 45/21/1
f 46/5/1 47/54/1 48/8/1
f 33/47/2 50/56/2 49/55/2
f 50/56/2 33/47/2 34/43/2
f 5/57/4 45/21/4 46/5/4
f 45/21/4 5/57/4 51/58/4
f 3/1/4 51/58/4 5/57/4
f 51/58/4 3/1/4 52/59/4
f 52/59/4 3/1/4 11/34/4
f 52/59/4 11/34/4 31/60/4
f 11/34/4 3/1/4 27/3/4
f 12/27/4 31/60/4 11/34/4
f 50/35/3 41/3/3 49/34/3
f 41/3/3 50/35/3 40/1/3
f 30/41/5 17/23/5 43/39/5
f 17/23/5 30/41/5 28/25/5
f 2/14/5 43/39/5 17/23/5
f 2/14/5 44/38/5 43/39/5
f 44/38/5 2/14/5 6/43/5
f 2/14/5 17/23/5 15/24/5
f 47/54/6 8/61/6 48/8/6
f 8/61/6 47/54/6 53/62/6
f 53/62/6 10/9/6 8/61/6
f 10/9/6 53/62/6 54/63/6
f 10/9/6 54/63/6 49/28/6
f 49/28/6 54/63/6 32/64/6
f 49/28/6 32/64/6 33/35/6
f 10/9/6 49/28/6 41/10/6
f 9/1/4 44/66/4 6/65/4
f 44/66/4 9/1/4 36/22/4
f 36/22/4 9/1/4 50/34/4
f 36/22/4 50/34/4 34/27/4
f 50/34/4 9/1/4 40/3/4
f 34/27/4 35/16/4 36/22/4
f 29/67/6 18/51/6 19/54/6
f 18/51/6 29/67/6 24/37/6
f 56/69/5 3/12/5 55/68/5
f 3/12/5 56/69/5 57/70/5
f 3/12/5 57/70/5 27/71/5
f 27/71/5 57/70/5 26/24/5
f 1/14/5 55/68/5 3/12/5
f 55/68/5 1/14/5 58/72/5
f 58/72/5 1/14/5 26/24/5
f 58/72/5 26/24/5 57/70/5

usemtl stone

f 31/12/2 54/74/2 52/73/2
f 54/74/2 31/12/2 32/47/2
f 54/31/1 51/21/1 52/32/1
f 51/21/1 54/31/1 53/54/1
f 29/67/6 17/76/6 28/75/6
f 17/76/6 29/67/6 19/54/6
f 5/61/6 59/78/6 4/77/6
f 59/78/6 5/61/6 60/79/6
f 5/82/2 61/81/2 60/80/2
f 61/81/2 5/82/2 8/83/2
f 8/83/2 5/82/2 46/11/2
f 8/83/2 46/11/2 48/55/2
f 43/85/4 20/20/4 30/84/4
f 20/20/4 43/85/4 22/21/4
f 7/47/5 59/87/5 62/86/5
f 59/87/5 7/47/5 4/12/5
f 61/8/1 59/4/1 60/5/1
f 59/4/1 61/8/1 62/7/1
f 63/90/4 57/89/4 56/88/4
f 57/89/4 63/90/4 64/91/4
f 65/94/6 55/93/6 58/92/6
f 55/93/6 65/94/6 66/95/6
f 57/92/3 65/95/3 58/93/3
f 65/95/3 57/92/3 64/94/3
f 47/46/5 51/97/5 53/96/5
f 51/97/5 47/46/5 45/71/5
f 61/100/4 7/99/4 62/98/4
f 7/99/4 61/100/4 8/57/4
f 67/103/7 64/102/7 63/101/7
f 64/102/7 67/103/7 68/104/7
f 63/91/1 55/88/1 66/90/1
f 55/88/1 63/91/1 56/89/1
f 39/88/3 69/91/3 42/89/3
f 69/91/3 39/88/3 70/90/3
f 73/107/8 72/106/8 71/105/8
f 72/106/8 73/107/8 74/108/8
f 70/101/9 75/104/9 69/102/9
f 75/104/9 70/101/9 76/103/9
f 72/90/4 39/89/4 38/88/4
f 39/89/4 72/90/4 70/91/4
f 77/111/2 68/110/2 67/109/2
f 68/110/2 77/111/2 78/112/2
f 78/107/10 66/106/10 65/105/10
f 66/106/10 78/107/10 77/108/10
f 64/115/9 78/114/9 65/113/9
f 78/114/9 64/115/9 68/116/9
f 69/94/6 37/93/6 42/92/6
f 37/93/6 69/94/6 71/95/6
f 77/119/8 63/118/8 66/117/8
f 63/118/8 77/119/8 67/120/8
f 74/119/7 70/118/7 72/117/7
f 70/118/7 74/119/7 76/120/7
f 72/95/1 37/92/1 71/94/1
f 37/92/1 72/95/1 38/93/1
f 75/116/10 71/113/10 69/115/10
f 71/113/10 75/116/10 73/114/10
f 73/123/2 76/122/2 74/121/2
f 76/122/2 73/123/2 75/124/2

