# Created by Kenney (www.kenney.nl)

mtllib bridge_center_stone.mtl

g bridge_center_stone

v -0.5 0.2 0.4
v 0.5 0.2 0.4
v -0.5 0.3 0.4
v 0.5 0.3 0.4
v -0.5 0.2 -0.4
v -0.5 0.3 -0.4
v 0.5 0.2 -0.4
v 0.5 0.3 -0.4
v -0.5 0.25 -0.5
v 0.5 0.25 -0.5
v -0.5 0.3 -0.5
v 0.5 0.3 -0.5
v -0.5 0 -0.45
v -0.5 0.15 -0.45
v -0.5 0 0.45
v -0.5 0.25 -0.45
v -0.5 0.25 0.45
v -0.5 0.3 0.5
v -0.5 0.15 0.45
v -0.5 0.25 0.5
v 0.5 0.25 -0.45
v 0.5 0.15 -0.45
v 0.5 0 -0.45
v 0.5 0 0.45
v 0.5 0.25 0.45
v 0.5 0.3 0.5
v 0.5 0.25 0.5
v 0.5 0.15 0.45

vn 0 0 -1
vn 0 0 1
vn -1 0 0
vn 1 0 0
vn 0 -1 0
vn 0 1 0

vt 19.68504 7.874016
vt -19.68504 7.874016
vt 19.68504 11.81102
vt -19.68504 11.81102
vt 19.68504 9.84252
vt -19.68504 9.84252
vt -17.71654 5.373974E-13
vt -17.71654 5.905512
vt 17.71654 5.317507E-13
vt -15.74803 7.874016
vt -17.71654 9.84252
vt 15.74803 7.874016
vt 17.71654 9.84252
vt 15.74803 11.81102
vt 17.71654 5.905512
vt -15.74803 11.81102
vt 17.71654 5.343738E-13
vt -17.71654 5.287271E-13
vt 19.68504 17.71654
vt 19.68504 -17.71654
vt -19.68504 17.71654
vt -19.68504 -17.71654
vt -19.68504 5.905512
vt 19.68504 5.905512
vt 19.68504 19.68504
vt -19.68504 19.68504
vt 19.68504 -19.68504
vt -19.68504 -19.68504
vt -19.68504 -15.74803
vt 19.68504 -15.74803
vt -19.68504 15.74803
vt 19.68504 15.74803
vt -19.68504 5.646697E-15
vt 19.68504 1.054831E-12
vt 19.68504 1.129339E-14
vt -19.68504 1.060478E-12

usemtl stoneDark

f 3/3/1 2/2/1 1/1/1
f 2/2/1 3/3/1 4/4/1
f 7/1/2 6/4/2 5/2/2
f 6/4/2 7/1/2 8/3/2
f 11/3/1 10/6/1 9/5/1
f 10/6/1 11/3/1 12/4/1
f 15/9/3 14/8/3 13/7/3
f 14/8/3 15/9/3 5/10/3
f 14/8/3 5/10/3 16/11/3
f 5/10/3 15/9/3 1/12/3
f 17/13/3 1/12/3 15/9/3
f 17/13/3 3/14/3 1/12/3
f 3/14/3 17/13/3 18/3/3
f 17/13/3 15/9/3 19/15/3
f 18/3/3 17/13/3 20/5/3
f 6/16/3 16/11/3 5/10/3
f 6/16/3 9/6/3 16/11/3
f 9/6/3 6/16/3 11/4/3
f 8/14/4 10/5/4 12/3/4
f 10/5/4 8/14/4 21/13/4
f 21/13/4 8/14/4 22/15/4
f 22/15/4 8/14/4 23/17/4
f 23/17/4 8/14/4 7/12/4
f 7/12/4 24/18/4 23/17/4
f 24/18/4 7/12/4 2/10/4
f 24/18/4 2/10/4 25/11/4
f 4/16/4 25/11/4 2/10/4
f 25/11/4 4/16/4 26/4/4
f 25/11/4 26/4/4 27/6/4
f 24/18/4 25/11/4 28/8/4
f 27/5/2 18/4/2 20/6/2
f 18/4/2 27/5/2 26/3/2
f 15/21/5 23/20/5 24/19/5
f 23/20/5 15/21/5 13/22/5
f 28/24/2 17/6/2 19/23/2
f 17/6/2 28/24/2 25/5/2
f 16/5/1 22/23/1 14/24/1
f 22/23/1 16/5/1 21/6/1
f 20/26/5 25/19/5 27/25/5
f 25/19/5 20/26/5 17/21/5
f 16/22/5 10/27/5 21/20/5
f 10/27/5 16/22/5 9/28/5
f 12/28/6 6/30/6 8/29/6
f 6/30/6 12/28/6 11/27/6
f 3/32/6 26/26/6 4/31/6
f 26/26/6 3/32/6 18/25/6

usemtl stone

f 5/30/6 2/31/6 7/29/6
f 2/31/6 5/30/6 1/32/6
f 24/34/2 19/23/2 15/33/2
f 19/23/2 24/34/2 28/24/2
f 14/24/1 23/36/1 13/35/1
f 23/36/1 14/24/1 22/23/1

