# Created by Kenney (www.kenney.nl)

mtllib bridge_side_wood.mtl

g bridge_side_wood

v 0.4 0.3 -0.4
v -0.5 0.3 -0.4
v 0.4 0.3 -0.5
v -0.5 0.3 -0.5
v 0.4 0 -0.5
v 0.4 0.25 -0.5
v 0.4 0 -0.45
v 0.4 0.25 -0.45
v 0.4 0.15 -0.45
v -0.5 0.15 0.45
v -0.5 0.25 0.45
v 0.4 0.15 0.45
v 0.4 0.25 0.45
v 0.5 0.35 -0.5
v 0.5 0 -0.5
v 0.5 0.35 -0.4
v 0.5 0.05 -0.4
v 0.5 0.1 -0.4
v 0.5 0 0.5
v 0.5 0.05 0.4
v 0.5 0.1 0.4
v 0.5 0.35 0.5
v 0.5 0.35 0.4
v 0.4 0.35 -0.5
v 0.4 0.35 -0.4
v -0.5 0 -0.45
v -0.5 0.15 -0.45
v -0.5 0 0.45
v -0.5 0.2 -0.4
v -0.5 0.25 -0.45
v -0.5 0.2 0.4
v -0.5 0.3 0.4
v -0.5 0.3 0.5
v -0.5 0.25 0.5
v -0.5 0.25 -0.5
v 0.4 0 0.5
v 0.4 0.25 0.5
v 0.4 0.3 0.5
v 0.4 0.35 0.5
v 0.4 0.3 0.4
v 0.4 0.15 -0.4
v 0.4 0.1 -0.4
v 0.4 0.15 0.4
v 0.4 0.1 0.4
v 0.4 0 0.45
v 0.42 0.15 0.4
v 0.42 0.2 0.4
v 0.4 0.35 0.4
v 0.52 0.35 -0.52
v 0.52 0.35 -0.38
v 0.38 0.35 -0.38
v 0.38 0.35 -0.52
v 0.52 0.35 0.38
v 0.52 0.35 0.52
v 0.38 0.35 0.52
v 0.38 0.35 0.38
v 0.42 0.15 -0.4
v 0.42 0.2 -0.4
v 0.52 0.1 -0.4
v 0.52 0.05 -0.4
v 0.52 0.1 0.4
v 0.52 0.05 0.4
v 0.52 0.4 0.52
v 0.38 0.4 0.52
v 0.52 0.4 -0.52
v 0.52 0.4 -0.38
v 0.52 0.4 0.38
v 0.38 0.4 0.38
v 0.38 0.4 -0.52
v 0.38 0.4 -0.38

vn 0 1 0
vn -1 0 0
vn 0 0 1
vn 1 0 0
vn 0 -1 0
vn 0 0 -1

vt -15.74803 -15.74803
vt 19.68504 -15.74803
vt -15.74803 -19.68504
vt 19.68504 -19.68504
vt -19.68504 2.258679E-14
vt -19.68504 9.84252
vt -17.71654 2.258679E-14
vt -17.71654 9.84252
vt -17.71654 5.905512
vt -19.68504 5.905512
vt 15.74803 5.905512
vt 15.74803 9.84252
vt 19.68504 13.77953
vt 19.68504 1.471389E-13
vt 15.74803 13.77953
vt 15.74803 1.968504
vt 15.74803 3.937008
vt -19.68504 1.471389E-13
vt -15.74803 1.968504
vt -15.74803 3.937008
vt -19.68504 13.77953
vt -15.74803 13.77953
vt -19.68504 11.81102
vt -15.74803 11.81102
vt -17.71654 5.21957E-13
vt 17.71654 5.163104E-13
vt -15.74803 7.874016
vt 15.74803 7.874016
vt 17.71654 9.84252
vt 15.74803 11.81102
vt 19.68504 11.81102
vt 17.71654 5.905512
vt 19.68504 9.84252
vt 19.68504 -3.950994E-12
vt 15.74803 -3.950994E-12
vt 15.74803 19.68504
vt 15.74803 17.71654
vt -19.68504 19.68504
vt -19.68504 17.71654
vt 15.74803 -17.71654
vt 15.74803 -19.68504
vt -19.68504 -17.71654
vt -19.68504 -19.68504
vt -15.74803 9.84252
vt -19.68504 2.812402E-14
vt -15.74803 2.812402E-14
vt -15.74803 15.74803
vt -15.74803 19.68504
vt 19.68504 15.74803
vt 19.68504 19.68504
vt -15.74803 5.905512
vt -19.68504 3.937008
vt -16.53543 5.905512
vt -16.53543 7.874016
vt 19.68504 7.874016
vt 19.68504 5.905512
vt 20.47244 -20.47244
vt 20.47244 -14.96063
vt 14.96063 -14.96063
vt 15.74803 -15.74803
vt 14.96063 -20.47244
vt 20.47244 14.96063
vt 20.47244 20.47244
vt 14.96063 20.47244
vt 15.74803 15.74803
vt 14.96063 14.96063
vt 19.68504 3.937008
vt 16.53543 5.905512
vt 16.53543 7.874016
vt -19.68504 7.874016
vt 17.71654 2.1081E-14
vt 19.68504 2.1081E-14
vt -16.53543 -15.74803
vt -16.53543 15.74803
vt 16.53543 15.74803
vt 16.53543 -15.74803
vt -20.47244 -15.74803
vt -20.47244 15.74803
vt -19.68504 -15.74803
vt -19.68504 15.74803
vt 20.47244 1.968504
vt 19.68504 1.968504
vt 20.47244 3.937008
vt -19.68504 1.968504
vt -20.47244 1.968504
vt -20.47244 3.937008
vt 20.47244 15.74803
vt 20.47244 -15.74803
vt 19.68504 -2.635125E-15
vt -15.74803 4.991882E-27
vt 20.47244 13.77953
vt 14.96063 13.77953
vt 14.96063 15.74803
vt -20.47244 14.96063
vt -20.47244 20.47244
vt -14.96063 14.96063
vt -14.96063 20.47244
vt -19.68504 -8.281822E-15
vt 15.74803 5.029749E-31
vt -20.47244 13.77953
vt -14.96063 13.77953
vt -14.96063 15.74803
vt -20.47244 -14.96063
vt -14.96063 -14.96063
vt -20.47244 -20.47244
vt -14.96063 -20.47244

usemtl woodBark

f 3/3/1 2/2/1 1/1/1
f 2/2/1 3/3/1 4/4/1
f 7/7/2 6/6/2 5/5/2
f 6/6/2 7/7/2 8/8/2
f 8/8/2 7/7/2 9/9/2
f 12/11/3 11/6/3 10/10/3
f 11/6/3 12/11/3 13/12/3
f 16/15/4 15/14/4 14/13/4
f 15/14/4 16/15/4 17/16/4
f 17/16/4 16/15/4 18/17/4
f 17/16/4 19/18/4 15/14/4
f 19/18/4 17/16/4 20/19/4
f 19/18/4 20/19/4 21/20/4
f 19/18/4 21/20/4 22/21/4
f 22/21/4 21/20/4 23/22/4
f 1/24/2 24/21/2 3/23/2
f 24/21/2 1/24/2 25/22/2
f 28/26/2 27/9/2 26/25/2
f 27/9/2 28/26/2 29/27/2
f 27/9/2 29/27/2 30/8/2
f 29/27/2 28/26/2 31/28/2
f 11/29/2 31/28/2 28/26/2
f 11/29/2 32/30/2 31/28/2
f 32/30/2 11/29/2 33/31/2
f 11/29/2 28/26/2 10/32/2
f 33/31/2 11/29/2 34/33/2
f 2/24/2 30/8/2 29/27/2
f 2/24/2 35/6/2 30/8/2
f 35/6/2 2/24/2 4/23/2
f 22/13/3 36/35/3 19/34/3
f 36/35/3 22/13/3 37/12/3
f 37/12/3 22/13/3 38/30/3
f 37/12/3 38/30/3 33/23/3
f 38/30/3 22/13/3 39/15/3
f 33/23/3 34/6/3 37/12/3
f 34/38/5 13/37/5 37/36/5
f 13/37/5 34/38/5 11/39/5
f 30/42/5 6/41/5 8/40/5
f 6/41/5 30/42/5 35/43/5
f 4/31/6 6/44/6 35/33/6
f 6/44/6 4/31/6 3/24/6
f 14/21/6 6/44/6 3/24/6
f 15/45/6 6/44/6 14/21/6
f 6/44/6 15/45/6 5/46/6
f 14/21/6 3/24/6 24/22/6
f 32/49/1 38/48/1 40/47/1
f 38/48/1 32/49/1 33/50/1
f 43/51/4 42/17/4 41/11/4
f 42/17/4 43/51/4 44/20/4
f 28/39/5 7/40/5 45/37/5
f 7/40/5 28/39/5 26/42/5
f 15/4/5 45/37/5 7/40/5
f 15/4/5 36/36/5 45/37/5
f 36/36/5 15/4/5 19/50/5
f 15/4/5 7/40/5 5/41/5
f 43/51/6 21/52/6 44/20/6
f 21/52/6 43/51/6 46/53/6
f 46/53/6 23/21/6 21/52/6
f 23/21/6 46/53/6 47/54/6
f 23/21/6 47/54/6 40/24/6
f 40/24/6 47/54/6 31/55/6
f 40/24/6 31/55/6 32/31/6
f 23/21/6 40/24/6 48/22/6
f 27/56/6 8/44/6 9/51/6
f 8/44/6 27/56/6 30/33/6
f 50/58/5 16/2/5 49/57/5
f 16/2/5 50/58/5 51/59/5
f 16/2/5 51/59/5 25/60/5
f 25/60/5 51/59/5 24/41/5
f 14/4/5 49/57/5 16/2/5
f 49/57/5 14/4/5 52/61/5
f 52/61/5 14/4/5 24/41/5
f 52/61/5 24/41/5 51/59/5
f 54/63/5 22/50/5 53/62/5
f 22/50/5 54/63/5 55/64/5
f 22/50/5 55/64/5 39/36/5
f 39/36/5 55/64/5 48/65/5
f 23/49/5 53/62/5 22/50/5
f 53/62/5 23/49/5 56/66/5
f 56/66/5 23/49/5 48/65/5
f 56/66/5 48/65/5 55/64/5
f 18/67/3 41/11/3 42/17/3
f 41/11/3 18/67/3 57/68/3
f 16/13/3 57/68/3 18/67/3
f 57/68/3 16/13/3 58/69/3
f 58/69/3 16/13/3 1/30/3
f 58/69/3 1/30/3 29/70/3
f 1/30/3 16/13/3 25/15/3
f 2/23/3 29/70/3 1/30/3
f 38/31/2 48/15/2 40/30/2
f 48/15/2 38/31/2 39/13/2
f 36/72/2 12/32/2 45/71/2
f 12/32/2 36/72/2 13/29/2
f 13/29/2 36/72/2 37/33/2

usemtl stone

f 29/2/1 47/74/1 58/73/1
f 47/74/1 29/2/1 31/49/1
f 47/27/4 57/11/4 58/28/4
f 57/11/4 47/27/4 46/51/4
f 61/20/4 60/16/4 59/17/4
f 60/16/4 61/20/4 62/19/4
f 43/65/5 57/76/5 46/75/5
f 57/76/5 43/65/5 41/60/5
f 18/79/1 61/78/1 59/77/1
f 61/78/1 18/79/1 21/80/1
f 21/80/1 18/79/1 42/1/1
f 21/80/1 42/1/1 44/47/1
f 61/83/3 20/82/3 62/81/3
f 20/82/3 61/83/3 21/67/3
f 18/52/6 60/85/6 17/84/6
f 60/85/6 18/52/6 59/86/6
f 20/49/5 60/88/5 62/87/5
f 60/88/5 20/49/5 17/2/5

usemtl wood

f 27/56/6 7/90/6 26/89/6
f 7/90/6 27/56/6 9/51/6
f 63/87/3 55/92/3 54/91/3
f 55/92/3 63/87/3 64/93/3
f 66/93/4 49/91/4 65/87/4
f 49/91/4 66/93/4 50/92/4
f 68/96/1 63/95/1 67/94/1
f 63/95/1 68/96/1 64/97/1
f 55/91/2 68/93/2 56/92/2
f 68/93/2 55/91/2 64/87/2
f 45/99/3 10/10/3 28/98/3
f 10/10/3 45/99/3 12/11/3
f 51/101/2 69/78/2 52/100/2
f 69/78/2 51/101/2 70/102/2
f 66/87/3 51/92/3 50/91/3
f 51/92/3 66/87/3 70/93/3
f 65/105/1 70/104/1 66/103/1
f 70/104/1 65/105/1 69/106/1
f 69/102/6 49/100/6 52/101/6
f 49/100/6 69/102/6 65/78/6
f 68/102/6 53/100/6 56/101/6
f 53/100/6 68/102/6 67/78/6
f 63/78/4 53/101/4 67/102/4
f 53/101/4 63/78/4 54/100/4

