# Created by Kenney (www.kenney.nl)

mtllib bridge_stoneNarrow.mtl

g bridge_stoneNarrow

v -0.4 0 -0.35
v 0.4 0 -0.35
v -0.4 0.15 -0.35
v 0.4 0.15 -0.35
v -0.5 0.05 0.3
v -0.52 0.05 0.3
v -0.5 0.1 0.3
v -0.52 0.1 0.3
v 0.52 0.05 0.3
v 0.52 0.05 -0.3
v 0.5 0.05 0.3
v 0.5 0.05 -0.3
v 0.5 0.1 -0.3
v 0.52 0.1 -0.3
v 0.42 0.2 -0.3
v 0.42 0.15 -0.3
v 0.42 0.2 0.3
v 0.42 0.15 0.3
v 0.52 0.1 0.3
v 0.5 0.1 0.3
v -0.5 0.05 -0.3
v -0.5 0.1 -0.3
v -0.52 0.05 -0.3
v -0.52 0.1 -0.3
v -0.4 0.15 0.3
v -0.4 0.15 -0.3
v -0.42 0.15 0.3
v -0.42 0.15 -0.3
v -0.42 0.2 -0.3
v -0.42 0.2 0.3
v 0.4 0.1 -0.3
v 0.4 0.1 0.3
v 0.4 0.15 0.3
v 0.4 0.15 -0.3
v -0.4 0.1 -0.3
v -0.4 0.1 0.3
v 0.4 0 0.35
v -0.4 0 0.35
v 0.4 0.15 0.35
v -0.4 0.15 0.35
v 0.38 0.3 0.28
v 0.52 0.3 0.28
v 0.38 0.325 0.28
v 0.52 0.325 0.28
v 0.38 0.3 0.42
v 0.38 0.325 0.42
v -0.52 0.3 -0.42
v -0.38 0.3 -0.42
v -0.52 0.325 -0.42
v -0.38 0.325 -0.42
v -0.38 0.325 0.42
v -0.52 0.325 0.42
v -0.3975 0.35 0.4025
v -0.5025 0.35 0.4025
v -0.5025 0.35 -0.4025
v -0.3975 0.35 -0.4025
v 0.3975 0.35 0.2975
v 0.3975 0.35 0.4025
v 0.52 0.325 -0.42
v 0.52 0.3 -0.42
v 0.52 0.325 -0.28
v 0.52 0.3 -0.28
v 0.5025 0.35 -0.2975
v 0.3975 0.35 -0.2975
v 0.5025 0.35 -0.4025
v 0.3975 0.35 -0.4025
v -0.38 0.325 -0.28
v -0.3975 0.35 -0.2975
v -0.38 0.3 -0.28
v -0.52 0.3 -0.28
v -0.52 0.325 -0.28
v 0.52 0.325 0.42
v 0.52 0.3 0.42
v 0.38 0.325 -0.42
v 0.38 0.325 -0.28
v -0.38 0.325 0.28
v -0.38 0.3 0.28
v -0.38 0.3 0.42
v -0.52 0.3 0.42
v 0.5025 0.35 0.2975
v -0.5025 0.35 -0.2975
v -0.52 0.325 0.28
v -0.5025 0.35 0.2975
v -0.3975 0.35 0.2975
v 0.5025 0.35 0.4025
v -0.52 0.3 0.28
v 0.38 0.3 -0.42
v 0.38 0.3 -0.28
v -0.4 0.3 0.4
v -0.5 0.3 0.4
v -0.5 0.3 0.3
v -0.4 0.3 0.3
v -0.4 0.2 -0.4
v -0.4 0 -0.4
v -0.4 0.2 -0.35
v 0.5 0 0.4
v 0.4 0 0.4
v 0.5 0.3 0.4
v 0.4 0.2 0.4
v 0.4 0.25 0.4
v -0.4 0.2 0.4
v -0.4 0.25 0.4
v 0.4 0.3 0.4
v -0.5 0 0.4
v -0.4 0 0.4
v 0.5 0.3 -0.3
v 0.4 0.3 -0.3
v 0.4 0.3 -0.4
v 0.5 0.3 -0.4
v -0.5 0.3 -0.4
v -0.5 0 -0.4
v -0.5 0.3 -0.3
v 0.4 0.2 -0.35
v 0.4 0.2 -0.4
v -0.4 0.25 -0.4
v 0.4 0.25 -0.4
v -0.4 0.3 -0.4
v 0.5 0 -0.4
v 0.4 0 -0.4
v 0.4 0.25 -0.3
v -0.4 0.25 -0.3
v -0.4 0.3 -0.3
v 0.5 0.3 0.3
v 0.4 0.25 0.3
v -0.4 0.25 0.3
v 0.4 0.3 0.3
v -0.4 0.2 0.35
v 0.4 0.2 0.35

vn 0 0 -1
vn 0 0 1
vn 0 -1 0
vn 1 0 0
vn 0 1 0
vn -1 0 0
vn 0 0.5734624 0.8192319
vn 0 0.5734624 -0.8192319
vn -0.8192319 0.5734624 0
vn 0.8192319 0.5734624 0

vt 15.74803 -3.67203E-28
vt -15.74803 -3.67203E-28
vt 15.74803 5.905512
vt -15.74803 5.905512
vt -19.68504 1.968504
vt -20.47244 1.968504
vt -19.68504 3.937008
vt -20.47244 3.937008
vt 20.47244 11.81102
vt 20.47244 -11.81102
vt 19.68504 11.81102
vt 19.68504 -11.81102
vt 11.81102 7.874016
vt 11.81102 5.905512
vt -11.81102 7.874016
vt -11.81102 5.905512
vt 20.47244 1.968504
vt 19.68504 1.968504
vt 20.47244 3.937008
vt 19.68504 3.937008
vt -15.74803 11.81102
vt -15.74803 -11.81102
vt -16.53543 11.81102
vt -16.53543 -11.81102
vt 16.53543 -11.81102
vt 16.53543 11.81102
vt -20.47244 -11.81102
vt -20.47244 11.81102
vt -19.68504 -11.81102
vt -19.68504 11.81102
vt 15.74803 11.81102
vt 15.74803 -11.81102
vt -11.81102 1.968504
vt -11.81102 3.937008
vt 11.81102 1.968504
vt 11.81102 3.937008
vt 15.74803 0
vt -15.74803 0
vt -14.96063 11.81102
vt -14.96063 12.79528
vt -20.47244 12.79528
vt 11.02362 11.81102
vt 11.02362 12.79528
vt 16.53543 12.79528
vt 14.96063 11.81102
vt 20.47244 12.79528
vt 14.96063 12.79528
vt -14.96063 0.99985
vt -20.47244 0.99985
vt -15.64961 2.201283
vt -19.78346 2.201283
vt 20.47244 0.99985
vt 14.96063 0.99985
vt 19.78346 2.201283
vt 15.64961 2.201283
vt 11.02362 19.06166
vt 11.7126 20.26309
vt 16.53543 19.06166
vt 15.84646 20.26309
vt -19.78346 -11.7126
vt -15.64961 -11.7126
vt -19.78346 -15.84646
vt -15.64961 -15.84646
vt -11.02362 12.79528
vt -11.02362 11.81102
vt -16.53543 12.79528
vt -16.53543 19.06166
vt -15.84646 20.26309
vt -11.02362 19.06166
vt -11.7126 20.26309
vt 20.47244 16.80393
vt 14.96063 16.80393
vt 19.78346 18.00536
vt 15.64961 18.00536
vt -14.96063 16.80393
vt -20.47244 16.80393
vt -15.64961 18.00536
vt -19.78346 18.00536
vt -16.53543 -1.257876
vt -15.84646 -0.05644314
vt -11.02362 -1.257876
vt -11.7126 -0.05644314
vt 15.64961 -11.7126
vt 19.78346 -11.7126
vt 15.64961 -15.84646
vt 19.78346 -15.84646
vt 15.64961 15.84646
vt 19.78346 15.84646
vt 15.64961 11.7126
vt 19.78346 11.7126
vt 16.53543 -1.257876
vt 11.02362 -1.257876
vt 15.84646 -0.05644314
vt 11.7126 -0.05644314
vt -19.78346 15.84646
vt -15.64961 15.84646
vt -19.78346 11.7126
vt -15.64961 11.7126
vt -14.96063 11.02362
vt -15.74803 15.74803
vt -14.96063 16.53543
vt -20.47244 16.53543
vt -19.68504 15.74803
vt -20.47244 11.02362
vt 15.74803 7.874016
vt 13.77953 7.874016
vt 13.77953 0
vt 13.77953 5.905512
vt 19.68504 -3.806351E-12
vt 15.74803 -3.806351E-12
vt 15.74803 9.84252
vt -15.74803 7.874016
vt -15.74803 9.84252
vt -19.68504 -3.806351E-12
vt -15.74803 -3.806351E-12
vt 20.47244 -16.53543
vt 20.47244 -11.02362
vt 14.96063 -11.02362
vt 15.74803 -15.74803
vt 19.68504 -15.74803
vt 14.96063 -16.53543
vt -15.74803 -4.973799E-13
vt 15.74803 -4.973799E-13
vt 11.81102 11.81102
vt -11.81102 11.81102
vt 15.74803 -13.77953
vt -15.74803 -13.77953
vt -15.74803 -15.74803
vt 19.68504 -1.603992E-11
vt 15.74803 -1.603992E-11
vt -19.68504 -1.603992E-11
vt -15.74803 -1.603992E-11
vt 16.53543 5.905512
vt 16.53543 7.874016
vt -16.53543 7.874016
vt -16.53543 5.905512
vt -15.74803 3.937008
vt 15.74803 3.937008
vt -14.96063 -16.53543
vt -14.96063 -11.02362
vt -20.47244 -11.02362
vt -19.68504 -15.74803
vt -20.47244 -16.53543
vt 15.74803 2.664535E-13
vt -15.74803 2.664535E-13
vt 20.47244 11.02362
vt 19.68504 15.74803
vt 20.47244 16.53543
vt 14.96063 16.53543
vt 15.74803 15.74803
vt 14.96063 11.02362
vt -15.74803 13.77953
vt 15.74803 13.77953
vt -13.77953 0
vt -13.77953 7.874016
vt -13.77953 5.905512
vt -11.81102 9.84252
vt 11.81102 9.84252

usemtl stone

f 3/3/1 2/2/1 1/1/1
f 2/2/1 3/3/1 4/4/1
f 7/7/2 6/6/2 5/5/2
f 6/6/2 7/7/2 8/8/2
f 11/11/3 10/10/3 9/9/3
f 10/10/3 11/11/3 12/12/3
f 13/7/1 10/6/1 12/5/1
f 10/6/1 13/7/1 14/8/1
f 17/15/4 16/14/4 15/13/4
f 16/14/4 17/15/4 18/16/4
f 19/19/2 11/18/2 9/17/2
f 11/18/2 19/19/2 20/20/2
f 23/17/1 22/20/1 21/18/1
f 22/20/1 23/17/1 24/19/1
f 27/23/3 26/22/3 25/21/3
f 26/22/3 27/23/3 28/24/3
f 29/25/5 17/23/5 15/24/5
f 17/23/5 29/25/5 30/26/5
f 13/29/5 19/28/5 14/27/5
f 19/28/5 13/29/5 20/30/5
f 20/30/5 13/29/5 31/22/5
f 20/30/5 31/22/5 32/21/5
f 33/31/3 16/25/3 18/26/3
f 16/25/3 33/31/3 34/32/3
f 6/28/3 21/29/3 5/30/3
f 21/29/3 6/28/3 23/27/3
f 27/14/6 29/15/6 28/16/6
f 29/15/6 27/14/6 30/13/6
f 6/35/6 24/34/6 23/33/6
f 24/34/6 6/35/6 8/36/6
f 22/12/5 36/31/5 35/32/5
f 36/31/5 22/12/5 7/11/5
f 7/11/5 22/12/5 24/10/5
f 7/11/5 24/10/5 8/9/5
f 19/34/4 10/35/4 14/36/4
f 10/35/4 19/34/4 9/33/4
f 39/3/2 38/38/2 37/37/2
f 38/38/2 39/3/2 40/4/2
f 43/40/1 42/28/1 41/39/1
f 42/28/1 43/40/1 44/41/1
f 45/26/6 43/43/6 41/42/6
f 43/43/6 45/26/6 46/44/6
f 49/46/1 48/45/1 47/9/1
f 48/45/1 49/46/1 50/47/1
f 53/50/7 52/49/7 51/48/7
f 52/49/7 53/50/7 54/51/7
f 55/54/8 50/53/8 49/52/8
f 50/53/8 55/54/8 56/55/8
f 46/58/9 57/57/9 43/56/9
f 57/57/9 46/58/9 58/59/9
f 61/43/4 60/26/4 59/44/4
f 60/26/4 61/43/4 62/42/4
f 65/62/5 64/61/5 63/60/5
f 64/61/5 65/62/5 66/63/5
f 56/59/10 67/56/10 50/58/10
f 67/56/10 56/59/10 68/57/10
f 67/40/2 70/28/2 69/39/2
f 70/28/2 67/40/2 71/41/2
f 72/66/4 42/65/4 44/64/4
f 42/65/4 72/66/4 73/23/4
f 75/69/9 66/68/9 74/67/9
f 66/68/9 75/69/9 64/70/9
f 47/23/6 71/64/6 49/66/6
f 71/64/6 47/23/6 70/65/6
f 51/66/4 77/65/4 76/64/4
f 77/65/4 51/66/4 78/23/4
f 63/73/7 75/72/7 61/71/7
f 75/72/7 63/73/7 64/74/7
f 51/40/2 79/28/2 78/39/2
f 79/28/2 51/40/2 52/41/2
f 57/77/8 44/76/8 43/75/8
f 44/76/8 57/77/8 80/78/8
f 71/81/9 55/80/9 49/79/9
f 55/80/9 71/81/9 81/82/9
f 68/77/7 71/76/7 67/75/7
f 71/76/7 68/77/7 81/78/7
f 56/85/5 81/84/5 68/83/5
f 81/84/5 56/85/5 55/86/5
f 67/43/4 48/26/4 50/44/4
f 48/26/4 67/43/4 69/42/4
f 83/73/8 76/72/8 82/71/8
f 76/72/8 83/73/8 84/74/8
f 85/54/7 46/53/7 72/52/7
f 46/53/7 85/54/7 58/55/7
f 79/26/6 82/43/6 86/42/6
f 82/43/6 79/26/6 52/44/6
f 84/89/5 54/88/5 53/87/5
f 54/88/5 84/89/5 83/90/5
f 72/46/2 45/45/2 73/9/2
f 45/45/2 72/46/2 46/47/2
f 65/93/10 61/92/10 59/91/10
f 61/92/10 65/93/10 63/94/10
f 52/91/9 83/94/9 82/92/9
f 83/94/9 52/91/9 54/93/9
f 88/65/6 74/66/6 87/23/6
f 74/66/6 88/65/6 75/64/6
f 80/97/5 58/96/5 85/95/5
f 58/96/5 80/97/5 57/98/5
f 61/46/2 88/45/2 62/9/2
f 88/45/2 61/46/2 75/47/2
f 82/46/1 77/45/1 86/9/1
f 77/45/1 82/46/1 76/47/1
f 84/70/10 51/67/10 76/69/10
f 51/67/10 84/70/10 53/68/10
f 80/82/10 72/79/10 44/81/10
f 72/79/10 80/82/10 85/80/10
f 66/50/8 59/49/8 74/48/8
f 59/49/8 66/50/8 65/51/8
f 74/40/1 60/28/1 87/39/1
f 60/28/1 74/40/1 59/41/1

usemtl stoneDark

f 78/101/3 89/100/3 77/99/3
f 89/100/3 78/101/3 79/102/3
f 89/100/3 79/102/3 90/103/3
f 90/103/3 79/102/3 91/30/3
f 92/21/3 77/99/3 89/100/3
f 77/99/3 92/21/3 86/104/3
f 86/104/3 92/21/3 91/30/3
f 86/104/3 91/30/3 79/102/3
f 95/106/4 94/37/4 93/105/4
f 94/37/4 95/106/4 1/107/4
f 1/107/4 95/106/4 3/108/4
f 36/36/6 26/16/6 35/34/6
f 26/16/6 36/36/6 25/14/6
f 33/16/4 31/36/4 34/14/4
f 31/36/4 33/16/4 32/34/4
f 98/11/2 97/110/2 96/109/2
f 97/110/2 98/11/2 99/105/2
f 99/105/2 98/11/2 100/111/2
f 99/105/2 100/111/2 101/112/2
f 101/112/2 100/111/2 102/113/2
f 100/111/2 98/11/2 103/31/2
f 90/30/2 101/112/2 102/113/2
f 104/114/2 101/112/2 90/30/2
f 101/112/2 104/114/2 105/115/2
f 90/30/2 102/113/2 89/21/2
f 62/117/3 106/12/3 60/116/3
f 106/12/3 62/117/3 88/118/3
f 106/12/3 88/118/3 107/32/3
f 107/32/3 88/118/3 108/119/3
f 109/120/3 60/116/3 106/12/3
f 60/116/3 109/120/3 87/121/3
f 87/121/3 109/120/3 108/119/3
f 87/121/3 108/119/3 88/118/3
f 111/122/6 21/33/6 110/21/6
f 21/33/6 111/122/6 104/123/6
f 21/33/6 104/123/6 5/35/6
f 5/35/6 104/123/6 90/31/6
f 90/31/6 7/36/6 5/35/6
f 7/36/6 90/31/6 91/124/6
f 22/34/6 110/21/6 21/33/6
f 110/21/6 22/34/6 112/125/6
f 95/127/3 114/119/3 113/126/3
f 114/119/3 95/127/3 93/128/3
f 110/11/1 94/130/1 111/129/1
f 94/130/1 110/11/1 93/105/1
f 93/105/1 110/11/1 115/111/1
f 93/105/1 115/111/1 114/112/1
f 114/112/1 115/111/1 116/113/1
f 115/111/1 110/11/1 117/31/1
f 109/30/1 114/112/1 116/113/1
f 118/131/1 114/112/1 109/30/1
f 114/112/1 118/131/1 119/132/1
f 109/30/1 116/113/1 108/21/1
f 106/11/2 16/133/2 13/20/2
f 16/133/2 106/11/2 15/134/2
f 15/134/2 106/11/2 120/111/2
f 15/134/2 120/111/2 29/135/2
f 120/111/2 106/11/2 107/31/2
f 121/113/2 29/135/2 120/111/2
f 112/30/2 29/135/2 121/113/2
f 112/30/2 28/136/2 29/135/2
f 112/30/2 35/137/2 28/136/2
f 35/137/2 112/30/2 22/7/2
f 28/136/2 35/137/2 26/4/2
f 112/30/2 121/113/2 122/21/2
f 34/3/2 13/20/2 16/133/2
f 13/20/2 34/3/2 31/138/2
f 33/4/1 20/7/1 32/137/1
f 20/7/1 33/4/1 18/136/1
f 18/136/1 123/30/1 20/7/1
f 123/30/1 18/136/1 17/135/1
f 123/30/1 17/135/1 124/113/1
f 124/113/1 17/135/1 30/134/1
f 124/113/1 30/134/1 125/111/1
f 30/134/1 91/11/1 125/111/1
f 27/133/1 91/11/1 30/134/1
f 36/138/1 91/11/1 27/133/1
f 91/11/1 36/138/1 7/20/1
f 36/138/1 27/133/1 25/3/1
f 125/111/1 91/11/1 92/31/1
f 123/30/1 124/113/1 126/21/1
f 69/140/3 122/22/3 48/139/3
f 122/22/3 69/140/3 70/141/3
f 122/22/3 70/141/3 112/29/3
f 112/29/3 70/141/3 110/142/3
f 117/128/3 48/139/3 122/22/3
f 48/139/3 117/128/3 47/143/3
f 47/143/3 117/128/3 110/142/3
f 47/143/3 110/142/3 70/141/3
f 106/124/4 118/144/4 109/31/4
f 118/144/4 106/124/4 12/35/4
f 12/35/4 106/124/4 13/36/4
f 12/35/4 96/145/4 118/144/4
f 96/145/4 12/35/4 11/33/4
f 96/145/4 11/33/4 20/34/4
f 96/145/4 20/34/4 98/21/4
f 98/21/4 20/34/4 123/125/4
f 39/3/2 127/112/2 40/4/2
f 127/112/2 39/3/2 128/105/2
f 97/37/6 39/108/6 37/107/6
f 39/108/6 97/37/6 128/106/6
f 128/106/6 97/37/6 99/105/6
f 73/148/3 98/147/3 42/146/3
f 98/147/3 73/148/3 45/149/3
f 98/147/3 45/149/3 103/150/3
f 103/150/3 45/149/3 126/31/3
f 123/11/3 42/146/3 98/147/3
f 42/146/3 123/11/3 41/151/3
f 41/151/3 123/11/3 126/31/3
f 41/151/3 126/31/3 45/149/3
f 104/103/3 38/152/3 105/100/3
f 38/152/3 104/103/3 1/127/3
f 1/127/3 104/103/3 94/128/3
f 94/128/3 104/103/3 111/142/3
f 2/126/3 38/152/3 1/127/3
f 38/152/3 2/126/3 37/153/3
f 118/120/3 37/153/3 2/126/3
f 118/120/3 97/150/3 37/153/3
f 97/150/3 118/120/3 96/147/3
f 118/120/3 2/126/3 119/119/3
f 2/154/6 114/112/6 119/38/6
f 114/112/6 2/154/6 113/155/6
f 113/155/6 2/154/6 4/156/6
f 101/112/4 40/156/4 127/155/4
f 40/156/4 101/112/4 38/154/4
f 38/154/4 101/112/4 105/38/4
f 125/31/5 100/100/5 124/21/5
f 100/100/5 125/31/5 102/150/5
f 101/100/3 128/153/3 99/150/3
f 128/153/3 101/100/3 127/152/3
f 3/3/1 113/112/1 4/4/1
f 113/112/1 3/3/1 95/105/1
f 116/128/5 121/32/5 120/22/5
f 121/32/5 116/128/5 115/119/5
f 89/21/4 125/157/4 92/125/4
f 125/157/4 89/21/4 102/113/4
f 100/111/6 126/124/6 124/158/6
f 126/124/6 100/111/6 103/31/6
f 120/157/6 108/21/6 116/113/6
f 108/21/6 120/157/6 107/125/6
f 122/124/4 115/111/4 117/31/4
f 115/111/4 122/124/4 121/158/4

