# Created by Kenney (www.kenney.nl)

mtllib bridge_center_wood.mtl

g bridge_center_wood

v -0.5 0.15 0.45
v -0.5 0.25 0.45
v 0.5 0.15 0.45
v 0.5 0.25 0.45
v -0.5 0.2 -0.4
v -0.5 0.3 -0.4
v 0.5 0.2 -0.4
v 0.5 0.3 -0.4
v 0.5 0.25 0.5
v -0.5 0.25 0.5
v -0.5 0.25 -0.5
v 0.5 0.25 -0.5
v -0.5 0.3 -0.5
v 0.5 0.3 -0.5
v -0.5 0.15 -0.45
v 0.5 0.15 -0.45
v -0.5 0.25 -0.45
v 0.5 0.25 -0.45
v 0.5 0 -0.45
v 0.5 0 0.45
v 0.5 0.2 0.4
v 0.5 0.3 0.4
v 0.5 0.3 0.5
v -0.5 0 -0.45
v -0.5 0 0.45
v -0.5 0.2 0.4
v -0.5 0.3 0.4
v -0.5 0.3 0.5

vn 0 0 1
vn 0 -1 0
vn 0 0 -1
vn 1 0 0
vn -1 0 0
vn 0 1 0

vt -19.68504 5.905512
vt -19.68504 9.84252
vt 19.68504 5.905512
vt 19.68504 9.84252
vt -19.68504 7.874016
vt -19.68504 11.81102
vt 19.68504 7.874016
vt 19.68504 11.81102
vt 19.68504 19.68504
vt 19.68504 17.71654
vt -19.68504 19.68504
vt -19.68504 17.71654
vt 15.74803 11.81102
vt 17.71654 9.84252
vt 17.71654 5.905512
vt 17.71654 5.287271E-13
vt 15.74803 7.874016
vt -17.71654 5.230804E-13
vt -15.74803 7.874016
vt -17.71654 9.84252
vt -15.74803 11.81102
vt -17.71654 5.905512
vt -17.71654 5.317507E-13
vt 17.71654 5.26104E-13
vt 19.68504 -17.71654
vt -19.68504 -17.71654
vt -19.68504 -15.74803
vt 19.68504 -15.74803
vt -19.68504 -19.68504
vt 19.68504 -19.68504
vt -19.68504 15.74803
vt 19.68504 15.74803
vt 19.68504 5.646697E-15
vt -19.68504 1.054831E-12
vt -19.68504 -1.846616E-30
vt 19.68504 1.049184E-12

usemtl woodBark

f 3/3/1 2/2/1 1/1/1
f 2/2/1 3/3/1 4/4/1
f 7/7/1 6/6/1 5/5/1
f 6/6/1 7/7/1 8/8/1
f 10/11/2 4/10/2 9/9/2
f 4/10/2 10/11/2 2/12/2
f 13/8/3 12/2/3 11/4/3
f 12/2/3 13/8/3 14/6/3
f 17/4/3 16/1/3 15/3/3
f 16/1/3 17/4/3 18/2/3
f 8/13/4 12/4/4 14/8/4
f 12/4/4 8/13/4 18/14/4
f 18/14/4 8/13/4 16/15/4
f 16/15/4 8/13/4 19/16/4
f 19/16/4 8/13/4 7/17/4
f 7/17/4 20/18/4 19/16/4
f 20/18/4 7/17/4 21/19/4
f 20/18/4 21/19/4 4/20/4
f 22/21/4 4/20/4 21/19/4
f 4/20/4 22/21/4 23/6/4
f 4/20/4 23/6/4 9/2/4
f 20/18/4 4/20/4 3/22/4
f 25/24/5 15/22/5 24/23/5
f 15/22/5 25/24/5 5/19/5
f 15/22/5 5/19/5 17/20/5
f 5/19/5 25/24/5 26/17/5
f 2/14/5 26/17/5 25/24/5
f 2/14/5 27/13/5 26/17/5
f 27/13/5 2/14/5 28/8/5
f 2/14/5 25/24/5 1/15/5
f 28/8/5 2/14/5 10/4/5
f 6/21/5 17/20/5 5/19/5
f 6/21/5 11/2/5 17/20/5
f 11/2/5 6/21/5 13/6/5
f 25/12/2 19/25/2 20/10/2
f 19/25/2 25/12/2 24/26/2
f 9/4/1 28/6/1 10/2/1
f 28/6/1 9/4/1 23/8/1
f 14/29/6 6/28/6 8/27/6
f 6/28/6 14/29/6 13/30/6
f 27/8/3 21/5/3 26/7/3
f 21/5/3 27/8/3 22/6/3
f 27/32/6 23/11/6 22/31/6
f 23/11/6 27/32/6 28/9/6
f 17/26/2 12/30/2 18/25/2
f 12/30/2 17/26/2 11/29/2

usemtl wood

f 15/3/3 19/34/3 24/33/3
f 19/34/3 15/3/3 16/1/3
f 20/36/1 1/1/1 25/35/1
f 1/1/1 20/36/1 3/3/1

usemtl stone

f 5/28/6 21/31/6 7/27/6
f 21/31/6 5/28/6 26/32/6

