# Created by Kenney (www.kenney.nl)

mtllib cactus_tall.mtl

g cactus_tall

v 0.0555 0.7 0.09612882
v -0.0555 0.7 0.09612882
v 0.02775 0.75 0.04806441
v -0.02775 0.75 0.04806441
v -0.06215848 0.1831432 0.07052823
v -0.09215847 0.1831432 0.0185667
v -0.1408079 0.1831432 0.1159365
v -0.1708079 0.1831432 0.06397497
v 0.111 0.7 -1.804779E-16
v 0.0555 0.75 -1.082867E-15
v 0.0555 0.7 -0.09612882
v 0.02775 0.75 -0.04806441
v 0.05 0 -0.08660254
v -0.03 0.25 -0.09000478
v -0.05 0 -0.08660254
v -0.0555 0.7 -0.09612882
v -0.03 0.31 -0.09082132
v 0.03 0.31 -0.09082132
v 0.03 0.25 -0.09000478
v -0.1667887 0.2131432 0.1309365
v -0.1967887 0.2131432 0.07897497
v 0.1 0 0
v -0.1558079 0.5731432 0.08995573
v -0.1667887 0.5431432 0.1309365
v -0.1967887 0.5431432 0.07897497
v -0.1 0 0
v -0.05 0 0.08660254
v -0.06286561 0.2431432 0.07093649
v -0.09286561 0.2431432 0.01897497
v -0.111 0.7 -1.804779E-16
v 0.09553824 0.4699112 0.02051801
v 0.09483109 0.4099112 0.02010974
v 0.06553824 0.4699112 0.07247954
v 0.05 0 0.08660254
v 0.06483109 0.4099112 0.07207127
v -0.1148271 0.2431432 0.1009365
v -0.1448271 0.2431432 0.04897497
v -0.1448271 0.5431432 0.04897497
v -0.1148271 0.5431432 0.1009365
v -0.03 0.61 -0.2066025
v 0 0.64 -0.1766025
v -0.03 0.61 -0.1466025
v 0.03 0.25 -0.1766025
v -0.03 0.25 -0.1766025
v 0.1994613 0.4399112 0.08051801
v 0.1734805 0.4099112 0.06551801
v 0.1694613 0.4399112 0.1324795
v 0.1434805 0.4099112 0.1174795
v 0.1584805 0.6999112 0.09149878
v 0.1694613 0.6699112 0.1324795
v 0.1174998 0.6699112 0.1024795
v 0.1474998 0.4699112 0.05051801
v 0.1994613 0.6699112 0.08051801
v 0.1474998 0.6699112 0.05051801
v 0.03 0.31 -0.1466025
v -0.03 0.31 -0.1466025
v 0.03 0.61 -0.1466025
v 0.1174998 0.4699112 0.1024795
v -0.02775 0.75 -0.04806441
v -0.0555 0.75 -1.082867E-15
v 0.03 0.61 -0.2066025
v 0.03 0.28 -0.2066025
v -0.03 0.28 -0.2066025

vn 0 0.693015 0.7209232
vn 0 -1 0
vn 0.6243378 0.693015 -0.3604616
vn 0 -0.01360771 -0.9999074
vn -0.6123725 -0.7071068 0.3535534
vn 0.8659452 -0.01360771 -0.4999537
vn -0.6123725 0.7071068 0.3535534
vn -0.8659452 -0.01360771 0.4999537
vn 0.8659452 -0.01360771 0.4999537
vn -0.8659452 -0.01360771 -0.4999537
vn 0 1 0
vn 0 -0.01360771 0.9999074
vn -0.3535534 0.7071068 -0.6123725
vn 0.6243378 0.693015 0.3604616
vn 0.3535534 0.7071068 0.6123725
vn -0.8660254 0 0.5
vn 0.6123725 0.7071068 -0.3535534
vn 0.8660254 0 -0.5
vn -0.7071068 0.7071068 0
vn 0.6123725 -0.7071068 0.3535534
vn -0.3535534 0.7071068 0.6123725
vn 0.5 0 -0.8660254
vn 0.5 0 0.8660254
vn 0.8660254 0 0.5
vn 0 0 1
vn 0.6123725 0.7071068 0.3535534
vn 0 0.693015 -0.7209232
vn -0.6243378 0.693015 -0.3604616
vn -0.6243378 0.693015 0.3604616
vn -0.6123725 0.7071068 -0.3535534
vn -0.5 0 -0.8660254
vn 1 0 0
vn 0 0 -1
vn -1 0 0
vn -0.5 0 0.8660254
vn 0.7071068 0.7071068 0
vn 0 0.7071068 0.7071068
vn 0 0.7071068 -0.7071068
vn 0.3535534 0.7071068 -0.6123725
vn -0.8660254 0 -0.5
vn 0 -0.7071068 -0.7071068

vt 2.185039 17.24518
vt -2.185039 17.24518
vt 1.09252 19.97571
vt -1.09252 19.97571
vt -2.447184 2.776702
vt -3.628286 0.7309726
vt -5.543618 4.564429
vt -6.72472 2.5187
vt -1.968504 0.04639615
vt 1.181102 9.889827
vt 1.968504 0.04639615
vt 2.185039 27.608
vt 1.181102 12.25225
vt -1.181102 12.25225
vt -1.181102 9.889827
vt -2.185039 27.608
vt 1.181102 10.10702
vt -1.181102 10.10702
vt 1.181102 11.77735
vt -1.181102 11.77735
vt 8.748557E-14 10.94712
vt 1.181102 9.276788
vt -1.181102 9.276788
vt -1.181102 7.257425
vt 1.181102 7.257425
vt 1.181102 9.619848
vt -1.181102 9.619848
vt 1.181102 18.54855
vt 1.181102 16.18613
vt -1.181102 18.54855
vt -1.181102 16.18613
vt 2.475024 2.792775
vt 4.520753 3.973878
vt 3.656126 0.7470462
vt 5.701856 1.928149
vt 5.902026 14.28532
vt 7.083128 15.95565
vt 8.264231 14.28532
vt -7.083128 15.95565
vt -5.902026 14.28532
vt -8.264231 14.28532
vt -1.181102 8.391463
vt -1.181102 21.38359
vt 1.181102 8.391463
vt 1.181102 21.38359
vt 1.181102 19.29384
vt -1.181102 19.29384
vt -7.682743E-14 20.96417
vt 1.181102 9.572566
vt -1.181102 9.572566
vt -8.133958 16.14653
vt -6.952856 17.81686
vt -5.771754 16.14653
vt 1.181102 -3.543495
vt 1.181102 -6.952856
vt -1.181102 -3.543495
vt -1.181102 -6.952856
vt 1.181102 18.17623
vt 1.181102 16.5059
vt -1.181102 18.17623
vt -1.181102 16.5059
vt 7.204628 19.48472
vt 8.38573 17.81439
vt 6.023526 17.81439
vt -7.204628 16.13824
vt -8.38573 17.31934
vt -3.629174 16.13824
vt -3.661321 18.50044
vt -6.023526 18.50044
vt -8.38573 26.37446
vt -6.023526 26.37446
vt -3.507674 7.210361
vt -7.083128 7.210361
vt -3.539822 9.572566
vt -8.264231 8.391463
vt -5.902026 9.572566
vt -8.264231 21.38359
vt -5.902026 21.38359
vt 1.181102 26.37446
vt 1.181102 17.31934
vt -1.181102 26.37446
vt -1.181102 17.31934
vt 1.181102 12.20472
vt -1.181102 12.20472
vt 1.181102 24.01575
vt -1.181102 24.01575
vt -5.807077 1.988898
vt -4.625975 4.034627
vt -3.761348 0.8077958
vt -2.580246 2.853525
vt 1.181102 12.71995
vt -1.181102 12.71995
vt -1.274536E-13 14.39028
vt -2.185039 -4.263256E-14
vt -1.09252 1.8923
vt -1.09252 -1.8923
vt 1.09252 -1.8923
vt 1.09252 1.8923
vt 2.185039 -4.263256E-14
vt -1.181102 -5.771754
vt -1.181102 -3.575643
vt 1.181102 -5.771754
vt 1.181102 -3.575643
vt -1.181102 22.90883
vt -1.336709E-13 24.57916
vt 1.181102 22.90883
vt 3.507674 7.210361
vt 3.539822 9.572566
vt 7.083128 7.210361
vt 8.264231 8.391463
vt 5.902026 9.572566
vt 8.264231 21.38359
vt 5.902026 21.38359
vt 8.133958 24.01575
vt 8.133958 11.02362
vt 5.771754 24.01575
vt 6.952856 9.84252
vt 5.771754 12.20472
vt 3.543495 9.84252
vt 3.575643 12.20472
vt 6.829942 2.579449
vt 3.733508 0.7917222
vt 5.648839 4.625179
vt 2.552405 2.837451
vt 1.181102 11.02362
vt -1.181102 11.02362
vt -6.952856 9.84252
vt -5.771754 12.20472
vt -3.543495 9.84252
vt -3.575643 12.20472
vt -5.771754 24.01575
vt -8.133958 24.01575
vt -8.133958 11.02362
vt 8.38573 17.31934
vt 6.023526 18.50044
vt 8.38573 26.37446
vt 6.023526 26.37446
vt 3.661321 18.50044
vt 3.629174 16.13824
vt 7.204628 16.13824
vt 3.937008 0
vt 1.968504 -3.409549
vt 1.968504 3.409549
vt -1.968504 3.409549
vt -1.968504 -3.409549
vt -3.937008 0
vt 6.952856 17.81686
vt 8.133958 16.14653
vt 5.771754 16.14653
vt -1.691082E-29 22.73327
vt 1.181102 21.06294
vt -1.181102 21.06294
vt -1.181102 11.23012
vt -2.029299E-27 12.90045
vt 1.181102 11.23012
vt -8.38573 17.81439
vt -7.204628 19.48472
vt -6.023526 17.81439
vt -1.181102 18.50044
vt 1.181102 18.50044
vt -1.181102 11.87612
vt -1.181102 13.54646
vt 1.181102 11.87612
vt 1.181102 13.54646

usemtl leafsGreen

f 3/3/1 2/2/1 1/1/1
f 2/2/1 3/3/1 4/4/1
f 7/7/2 6/6/2 5/5/2
f 6/6/2 7/7/2 8/8/2
f 11/1/3 10/4/3 9/2/3
f 10/4/3 11/1/3 12/3/3
f 15/11/4 14/10/4 13/9/4
f 14/10/4 15/11/4 16/12/4
f 14/10/4 16/12/4 17/13/4
f 17/13/4 16/12/4 18/14/4
f 19/15/4 13/9/4 14/10/4
f 13/9/4 19/15/4 11/16/4
f 11/16/4 19/15/4 18/14/4
f 11/16/4 18/14/4 16/12/4
f 20/19/5 8/18/5 7/17/5
f 8/18/5 20/19/5 21/20/5
f 9/16/6 13/11/6 11/12/6
f 13/11/6 9/16/6 22/9/6
f 25/23/7 24/22/7 23/21/7
f 27/11/8 6/24/8 26/9/8
f 6/24/8 27/11/8 5/25/8
f 5/25/8 27/11/8 28/26/8
f 29/27/8 26/9/8 6/24/8
f 29/27/8 30/16/8 26/9/8
f 30/16/8 29/27/8 2/12/8
f 2/12/8 29/27/8 28/26/8
f 2/12/8 28/26/8 27/11/8
f 9/12/9 31/28/9 22/11/9
f 31/28/9 9/12/9 1/16/9
f 22/11/9 31/28/9 32/29/9
f 31/28/9 1/16/9 33/30/9
f 33/30/9 1/16/9 34/9/9
f 32/29/9 34/9/9 22/11/9
f 34/9/9 32/29/9 35/31/9
f 34/9/9 35/31/9 33/30/9
f 15/9/10 30/12/10 16/16/10
f 30/12/10 15/9/10 26/11/10
f 29/34/11 36/33/11 28/32/11
f 36/33/11 29/34/11 37/35/11
f 1/12/12 27/9/12 34/11/12
f 27/9/12 1/12/12 2/16/12
f 25/38/13 23/37/13 38/36/13
f 10/3/14 1/2/14 9/1/14
f 1/2/14 10/3/14 3/4/14
f 24/41/15 39/40/15 23/39/15
f 20/44/16 25/43/16 21/42/16
f 25/43/16 20/44/16 24/45/16
f 23/48/17 39/47/17 38/46/17
f 39/43/18 37/49/18 38/45/18
f 37/49/18 39/43/18 36/50/18
f 42/53/19 41/52/19 40/51/19
f 14/56/2 43/55/2 19/54/2
f 43/55/2 14/56/2 44/57/2
f 47/60/20 46/59/20 45/58/20
f 46/59/20 47/60/20 48/61/20
f 51/64/21 50/63/21 49/62/21
f 32/67/22 45/66/22 46/65/22
f 45/66/22 32/67/22 31/68/22
f 45/66/22 31/68/22 52/69/22
f 52/69/22 53/70/22 45/66/22
f 53/70/22 52/69/22 54/71/22
f 28/74/23 7/73/23 5/72/23
f 7/73/23 28/74/23 20/75/23
f 20/75/23 28/74/23 36/76/23
f 20/75/23 36/76/23 24/77/23
f 24/77/23 36/76/23 39/78/23
f 50/81/24 45/80/24 53/79/24
f 45/80/24 50/81/24 47/82/24
f 57/85/25 56/84/25 55/83/25
f 56/84/25 57/85/25 42/86/25
f 31/89/11 58/88/11 52/87/11
f 58/88/11 31/89/11 33/90/11
f 49/93/26 50/92/26 53/91/26
f 12/96/11 3/95/11 10/94/11
f 3/95/11 12/96/11 59/97/11
f 3/95/11 59/97/11 4/98/11
f 4/98/11 59/97/11 60/99/11
f 59/3/27 11/2/27 16/1/27
f 11/2/27 59/3/27 12/4/27
f 56/102/11 18/101/11 55/100/11
f 18/101/11 56/102/11 17/103/11
f 16/2/28 60/3/28 59/4/28
f 60/3/28 16/2/28 30/1/28
f 60/4/29 2/1/29 4/3/29
f 2/1/29 60/4/29 30/2/29
f 51/106/30 49/105/30 54/104/30
f 8/109/31 29/108/31 6/107/31
f 29/108/31 8/109/31 21/110/31
f 29/108/31 21/110/31 37/111/31
f 37/111/31 21/110/31 25/112/31
f 37/111/31 25/112/31 38/113/31
f 57/116/32 62/115/32 61/114/32
f 62/115/32 57/116/32 43/117/32
f 43/117/32 57/116/32 55/118/32
f 43/117/32 55/118/32 19/119/32
f 19/119/32 55/118/32 18/120/32
f 48/123/2 32/122/2 46/121/2
f 32/122/2 48/123/2 35/124/2
f 40/85/33 62/126/33 63/125/33
f 62/126/33 40/85/33 61/86/33
f 14/129/34 56/128/34 44/127/34
f 56/128/34 14/129/34 17/130/34
f 42/131/34 44/127/34 56/128/34
f 40/132/34 44/127/34 42/131/34
f 44/127/34 40/132/34 63/133/34
f 50/136/35 58/135/35 47/134/35
f 58/135/35 50/136/35 51/137/35
f 33/138/35 47/134/35 58/135/35
f 35/139/35 47/134/35 33/138/35
f 47/134/35 35/139/35 48/140/35
f 34/143/2 13/142/2 22/141/2
f 13/142/2 34/143/2 27/144/2
f 13/142/2 27/144/2 15/145/2
f 15/145/2 27/144/2 26/146/2
f 57/149/36 61/148/36 41/147/36
f 42/152/37 57/151/37 41/150/37
f 40/155/38 41/154/38 61/153/38
f 54/158/39 49/157/39 53/156/39
f 58/160/40 54/81/40 52/159/40
f 54/81/40 58/160/40 51/79/40
f 44/163/41 62/162/41 43/161/41
f 62/162/41 44/163/41 63/164/41

