# Created by Kenney (www.kenney.nl)

mtllib cactus_short.mtl

g cactus_short

v -0.04961 0.492 -0.08592704
v -0.09921999 0.492 1.804779E-16
v -0.041 0 -0.07101408
v -0.08199999 0 1.804779E-16
v 0.06112944 0.533 0
v 0.09921999 0.492 1.804779E-16
v 0.03056472 0.533 0.05293965
v 0.04961 0.492 0.08592704
v -0.08539508 0.3401938 0.01474269
v -0.041 0 0.07101408
v -0.05546508 0.3401938 0.06658297
v -0.05703641 0.4000538 0.06749018
v -0.08696641 0.4000538 0.01564989
v -0.04961 0.492 0.08592704
v 0.041 0 0.07101408
v 0.1384051 0.1799779 0.1144684
v 0.08656485 0.2099079 0.08453842
v 0.1384051 0.2697679 0.1144684
v 0.08656485 0.2697679 0.08453842
v 0.05204508 0.2099079 0.06460842
v 0.05047376 0.1500479 0.06370122
v 0.112485 0.1500479 0.09950343
v 0.1683351 0.1799779 0.06262815
v 0.142415 0.1500479 0.04766315
v -0.1214862 0.4599138 0.03557989
v -0.1214862 0.4000538 0.03557989
v -0.09155618 0.4599138 0.08742017
v -0.09155618 0.4000538 0.08742017
v 0.1164948 0.2099079 0.03269815
v 0.08197508 0.2099079 0.01276815
v 0.1164948 0.2697679 0.03269815
v 0.04961 0.492 -0.08592704
v -0.03056472 0.533 -0.05293965
v 0.03056472 0.533 -0.05293965
v 0.08040376 0.1500479 0.01186094
v 0.1683351 0.2697679 0.06262815
v -0.1174763 0.3401938 0.1023852
v -0.1474063 0.3401938 0.0505449
v -0.1733265 0.3701238 0.06550989
v -0.1733265 0.4599138 0.06550989
v -0.1433965 0.3701238 0.1173502
v -0.1433965 0.4599138 0.1173502
v 0.02993 0.3003987 -0.1199794
v -0.02993 0.3003987 -0.1199794
v 0.02993 0.3602588 -0.1199794
v -0.02993 0.3602588 -0.1199794
v -0.03056472 0.533 0.05293965
v -0.06112944 0.533 0
v 0.041 0 -0.07101408
v -0.02993 0.2405387 -0.07830502
v -0.02993 0.3003987 -0.08011944
v 0.02993 0.3003987 -0.08011944
v 0.02993 0.2405387 -0.07830502
v -0.02993 0.2704687 -0.1798394
v 0.02993 0.2704687 -0.1798394
v -0.02993 0.3602588 -0.1798394
v 0.02993 0.3602588 -0.1798394
v 0.02993 0.2405387 -0.1499094
v -0.02993 0.2405387 -0.1499094
v 0.08199999 0 1.804779E-16

vn -0.8656278 -0.03029697 -0.4997705
vn 0.6747453 0.626864 0.3895644
vn -0.8656278 -0.03029697 0.4997705
vn 0 -0.03029697 0.9995409
vn -0.5 0 0.8660254
vn 0.6123725 -0.7071068 0.3535534
vn 0.8660254 0 -0.5
vn 0 1 0
vn -0.8660254 0 -0.5
vn 0 0.626864 -0.7791287
vn 0.5 0 -0.8660254
vn 0 -1 0
vn -0.8660254 0 0.5
vn -0.5 0 -0.8660254
vn 0.5 0 0.8660254
vn 0 0 1
vn 0 0.626864 0.7791287
vn -0.6747453 0.626864 0.3895644
vn 0 -0.03029697 -0.9995409
vn 0 0 -1
vn 0 -0.7071068 -0.7071068
vn 0.8660254 0 0.5
vn -0.6123725 -0.7071068 0.3535534
vn -1 0 0
vn 1 0 0
vn 0.6747453 0.626864 -0.3895644
vn 0.8656278 -0.03029697 -0.4997705
vn 0.8656278 -0.03029697 0.4997705
vn -0.6747453 0.626864 -0.3895644

vt -1.95315 19.46368
vt 1.95315 19.46368
vt -1.614173 0.08470519
vt 1.614173 0.08470519
vt 1.203336 15.0429
vt 1.95315 12.97113
vt -1.203336 15.0429
vt -1.95315 12.97113
vt -1.178347 13.48431
vt 1.178347 13.48431
vt 1.178347 15.84209
vt -1.178347 15.84209
vt 6.972306 7.085744
vt 4.615613 8.264091
vt 6.972306 10.62078
vt 4.615613 10.62078
vt 3.046322 8.264091
vt 2.974889 5.907397
vt 5.79396 5.907397
vt 1.178347 9.940542
vt 1.178347 8.274109
vt -1.178347 9.940542
vt -1.178347 8.274109
vt 1.178347 18.10684
vt 1.178347 15.75015
vt -1.178347 18.10684
vt -1.178347 15.75015
vt -4.586411 1.287329
vt -3.408065 3.328285
vt -3.227365 0.502683
vt -2.049019 2.543639
vt -1.178347 8.264091
vt -1.178347 10.62078
vt 1.178347 8.264091
vt 1.178347 10.62078
vt -2.974889 5.907397
vt -5.79396 5.907397
vt -3.046322 8.264091
vt -6.972306 7.085744
vt -4.615613 8.264091
vt -6.972306 10.62078
vt -4.615613 10.62078
vt -2.183665 2.621377
vt -3.362011 0.5804209
vt -4.625052 4.030912
vt -5.803399 1.989956
vt -1.178347 14.5718
vt 1.178347 14.5718
vt 3.604574 3.441739
vt 5.64553 4.620086
vt 4.782921 1.400783
vt 6.823876 2.57913
vt 7.199215 14.5718
vt 4.842523 15.75015
vt 7.199215 18.10684
vt 4.842523 18.10684
vt 3.273231 15.75015
vt 3.201798 13.39346
vt 6.020869 13.39346
vt -3.201798 13.39346
vt -6.020869 13.39346
vt -3.273231 15.75015
vt -7.199215 14.5718
vt -4.842523 15.75015
vt -7.199215 18.10684
vt -4.842523 18.10684
vt 1.178347 11.82672
vt -1.178347 11.82672
vt 1.178347 14.18342
vt -1.178347 14.18342
vt 1.178347 9.559084
vt 1.178347 11.91686
vt -1.178347 11.91686
vt -1.178347 9.559084
vt 1.178347 10.64838
vt -1.178347 10.64838
vt -1.178347 10.86963
vt -1.178347 12.53606
vt 1.178347 10.86963
vt 1.178347 12.53606
vt -6.627367 2.465675
vt -5.449021 4.506631
vt -1.178347 -7.080293
vt -1.178347 -4.7236
vt 1.178347 -7.080293
vt 1.178347 -4.7236
vt 2.245528 2.657094
vt 3.423874 0.6161376
vt 3.228346 7.105427E-15
vt 1.614173 -2.79583
vt 1.614173 2.79583
vt -1.614173 2.79583
vt -1.614173 -2.79583
vt -3.228346 7.105427E-15
vt 1.178347 7.085744
vt -1.178347 7.085744
vt 5.60689 1.876502
vt 3.165502 0.4669663
vt 4.428543 3.917458
vt 1.987156 2.507922
vt 1.178347 13.728
vt -1.178347 13.728
vt 1.178347 15.39443
vt -1.178347 15.39443
vt -1.178347 -3.154309
vt 1.178347 -3.154309
vt -5.901946 9.470029
vt -4.7236 11.82672
vt -3.082875 9.470029
vt -3.154309 11.82672
vt -4.7236 14.18342
vt -7.080293 14.18342
vt -7.080293 10.64838
vt 7.080293 14.18342
vt 7.080293 10.64838
vt 4.7236 14.18342
vt 5.901946 9.470029
vt 4.7236 11.82672
vt 3.082875 9.470029
vt 3.154309 11.82672
vt 1.178347 -3.082875
vt 1.178347 -5.901946
vt -1.178347 -3.082875
vt -1.178347 -5.901946
vt -2.406671 0
vt -1.203336 2.084238
vt -1.203336 -2.084238
vt 1.203336 -2.084238
vt 1.203336 2.084238
vt 2.406671 0
vt 1.178347 8.352591
vt 1.178347 5.994816
vt -1.178347 8.352591
vt -1.178347 5.994816

usemtl leafsGreen

f 3/3/1 2/2/1 1/1/1
f 2/2/1 3/3/1 4/4/1
f 7/7/2 6/6/2 5/5/2
f 6/6/2 7/7/2 8/8/2
f 4/3/3 9/9/3 2/1/3
f 9/9/3 4/3/3 10/4/3
f 9/9/3 10/4/3 11/10/3
f 11/10/3 10/4/3 12/11/3
f 13/12/3 2/1/3 9/9/3
f 2/1/3 13/12/3 14/2/3
f 14/2/3 13/12/3 12/11/3
f 14/2/3 12/11/3 10/4/3
f 8/2/4 10/3/4 15/4/4
f 10/3/4 8/2/4 14/1/4
f 18/15/5 17/14/5 16/13/5
f 17/14/5 18/15/5 19/16/5
f 20/17/5 16/13/5 17/14/5
f 21/18/5 16/13/5 20/17/5
f 16/13/5 21/18/5 22/19/5
f 16/22/6 24/21/6 23/20/6
f 24/21/6 16/22/6 22/23/6
f 27/26/7 26/25/7 25/24/7
f 26/25/7 27/26/7 28/27/7
f 30/30/8 17/29/8 29/28/8
f 17/29/8 30/30/8 20/31/8
f 17/34/9 31/33/9 29/32/9
f 31/33/9 17/34/9 19/35/9
f 33/5/10 32/8/10 1/6/10
f 32/8/10 33/5/10 34/7/10
f 30/38/11 24/37/11 35/36/11
f 24/37/11 30/38/11 23/39/11
f 23/39/11 30/38/11 29/40/11
f 29/40/11 36/41/11 23/39/11
f 36/41/11 29/40/11 31/42/11
f 37/45/12 9/44/12 11/43/12
f 9/44/12 37/45/12 38/46/12
f 41/48/13 40/26/13 39/47/13
f 40/26/13 41/48/13 42/24/13
f 25/51/8 42/50/8 27/49/8
f 42/50/8 25/51/8 40/52/8
f 40/55/14 26/54/14 39/53/14
f 26/54/14 40/55/14 25/56/14
f 13/57/14 39/53/14 26/54/14
f 9/58/14 39/53/14 13/57/14
f 39/53/14 9/58/14 38/59/14
f 12/62/15 37/61/15 11/60/15
f 37/61/15 12/62/15 41/63/15
f 41/63/15 12/62/15 28/64/15
f 28/64/15 42/65/15 41/63/15
f 42/65/15 28/64/15 27/66/15
f 45/69/16 44/68/16 43/67/16
f 44/68/16 45/69/16 46/70/16
f 7/5/17 14/8/17 8/6/17
f 14/8/17 7/5/17 47/7/17
f 2/8/18 47/5/18 48/7/18
f 47/5/18 2/8/18 14/6/18
f 3/4/19 50/71/19 49/3/19
f 50/71/19 3/4/19 1/2/19
f 50/71/19 1/2/19 51/72/19
f 51/72/19 1/2/19 52/73/19
f 53/74/19 49/3/19 50/71/19
f 49/3/19 53/74/19 32/1/19
f 32/1/19 53/74/19 52/73/19
f 32/1/19 52/73/19 1/2/19
f 56/69/20 55/76/20 54/75/20
f 55/76/20 56/69/20 57/70/20
f 59/79/21 55/78/21 58/77/21
f 55/78/21 59/79/21 54/80/21
f 31/28/8 18/82/8 36/81/8
f 18/82/8 31/28/8 19/29/8
f 56/85/8 45/84/8 57/83/8
f 45/84/8 56/85/8 46/86/8
f 13/88/8 28/49/8 12/87/8
f 28/49/8 13/88/8 26/51/8
f 15/91/12 49/90/12 60/89/12
f 49/90/12 15/91/12 10/92/12
f 49/90/12 10/92/12 3/93/12
f 3/93/12 10/92/12 4/94/12
f 18/33/22 23/95/22 36/35/22
f 23/95/22 18/33/22 16/96/22
f 22/99/12 35/98/12 24/97/12
f 35/98/12 22/99/12 21/100/12
f 41/103/23 38/102/23 37/101/23
f 38/102/23 41/103/23 39/104/23
f 44/86/8 52/105/8 43/84/8
f 52/105/8 44/86/8 51/106/8
f 50/109/24 44/108/24 59/107/24
f 44/108/24 50/109/24 51/110/24
f 46/111/24 59/107/24 44/108/24
f 56/112/24 59/107/24 46/111/24
f 59/107/24 56/112/24 54/113/24
f 45/116/25 55/115/25 57/114/25
f 55/115/25 45/116/25 58/117/25
f 58/117/25 45/116/25 43/118/25
f 58/117/25 43/118/25 53/119/25
f 53/119/25 43/118/25 52/120/25
f 34/5/26 6/8/26 32/6/26
f 6/8/26 34/5/26 5/7/26
f 50/123/12 58/122/12 53/121/12
f 58/122/12 50/123/12 59/124/12
f 6/1/27 49/4/27 32/2/27
f 49/4/27 6/1/27 60/3/27
f 34/127/8 7/126/8 5/125/8
f 7/126/8 34/127/8 33/128/8
f 7/126/8 33/128/8 47/129/8
f 47/129/8 33/128/8 48/130/8
f 6/2/28 30/131/28 60/4/28
f 30/131/28 6/2/28 8/1/28
f 60/4/28 30/131/28 35/132/28
f 30/131/28 8/1/28 20/133/28
f 20/133/28 8/1/28 15/3/28
f 35/132/28 15/3/28 60/4/28
f 15/3/28 35/132/28 21/134/28
f 15/3/28 21/134/28 20/133/28
f 2/6/29 33/7/29 1/8/29
f 33/7/29 2/6/29 48/5/29

