# Created by Kenney (www.kenney.nl)

mtllib campfire_bricks.mtl

g campfire_bricks

v -0.2053595 0 -0.126415
v -0.2053595 0.0676 -0.126415
v -0.1565692 0 -0.07762465
v -0.1565692 0.0676 -0.07762465
v 0.05582216 0 -0.1656
v 0.05582216 0 -0.2346
v -0.05582216 0 -0.1656
v -0.05582216 0 -0.2346
v 0.05582216 0.0476 -0.2346
v 0.05582216 0.0476 -0.1656
v -0.1656 0 0.05582216
v -0.2346 0 0.05582216
v -0.1656 0.0376 0.05582216
v -0.2346 0.0376 0.05582216
v -0.126415 0 -0.2053595
v -0.07762465 0 -0.1565692
v -0.126415 0.0676 -0.2053595
v -0.07762465 0.0676 -0.1565692
v -0.07762465 0 0.1565692
v -0.1565692 0 0.07762465
v -0.126415 0 0.2053595
v -0.2053595 0 0.126415
v -0.1656 0.0376 2.743263E-14
v -0.17972 0.0376 -0.05582216
v -0.2346 0.0376 -0.05582216
v 0.2053595 0 -0.126415
v 0.126415 0 -0.2053595
v 0.1565692 0 -0.07762465
v 0.07762465 0 -0.1565692
v 0.05582216 0.0676 0.1656
v 0.05582216 0 0.1656
v 0.05582216 0.0676 0.2346
v 0.05582216 0 0.2346
v 0.2053595 0.0476 0.126415
v 0.2053595 0 0.126415
v 0.126415 0.0476 0.2053595
v 0.126415 0 0.2053595
v 0.07762465 0 0.1565692
v 0.07762465 0.0476 0.1565692
v -0.05582216 0.0476 -0.2221057
v -0.05582216 0.0238 -0.2346
v 0.0229074 0.0476 -0.2346
v -0.1656 0.0238 -0.05582216
v -0.1656 0 -0.05582216
v -0.1565692 0.0576 0.07762465
v -0.07762465 0.0576 0.1565692
v -0.2346 0 -0.05582216
v -0.05582216 0.0476 -0.1656
v -0.05582216 0.0676 0.1656
v 0.02166259 0.0676 0.2346
v -0.05582216 0.0676 0.2152075
v -0.05582216 0 0.2346
v -0.05582216 0 0.1656
v 0.2346 0.0376 -0.05582216
v 0.2346 0.0376 0.05582216
v 0.1656 0.0376 -0.05582216
v 0.1777848 0.0376 0.05582216
v 0.1656 0.0376 -0.04131898
v 0.2346 0 -0.05582216
v 0.2346 0 0.05582216
v -0.2053595 0.0576 0.126415
v -0.1384921 0.0576 0.1932824
v -0.126415 0.01053648 0.2053595
v 0.126415 0.0576 -0.2053595
v 0.2053595 0.0576 -0.126415
v -0.1143379 0.0576 0.1932824
v 0.1565692 0.0576 -0.07762465
v 0.1656 0 0.05582216
v 0.1656 0 -0.05582216
v 0.1565692 0 0.07762465
v 0.1565692 0.0476 0.07762465
v 0.07762465 0.00994591 -0.1565692
v 0.08380126 0.0576 -0.1627457
v 0.1656 0.03013475 0.05582216
v -0.05582216 0.05307741 0.2346
v 0.08380126 0.0576 -0.1503925

vn -0.7071073 0 0.7071062
vn 0 -1 0
vn 1 0 0
vn 0 0 1
vn 0.7071062 0 -0.7071073
vn 0 1 0
vn 0.7071068 0 0.7071068
vn -0.7071062 0 0.7071073
vn -0.139146 0.4602902 -0.8767961
vn 0.7071068 0 -0.7071068
vn 0 0 -1
vn -1 0 0
vn 0.6882817 0.7042429 -0.1740984
vn -0.7071068 0 0.7071068
vn 0.7071064 -3.53638E-07 0.7071072
vn 0 0.2485588 0.9686168
vn -0.7071068 0 -0.7071068
vn -0.7071073 0 -0.7071062
vn 0.7071073 0 0.7071062
vn 0.7071073 0 -0.7071062
vn -0.7071062 0 -0.7071073
vn -0.1483608 0.7915738 0.5927901
vn -0.7071066 -5.297367E-07 0.7071069
vn -0.5212994 0.8508649 0.06538852
vn -0.9917045 0.1285382 0

vt -9.236218 5.522026E-30
vt -9.236218 2.661417
vt -6.519684 5.522026E-30
vt -6.519684 2.661417
vt 2.197723 -6.519685
vt 2.197723 -9.23622
vt -2.197723 -6.519685
vt -2.197723 -9.23622
vt 9.23622 1.874016
vt 9.23622 5.522026E-30
vt 6.519685 1.874016
vt 6.519685 5.522026E-30
vt -6.519685 5.522026E-30
vt -9.23622 5.522026E-30
vt -6.519685 1.480315
vt -9.23622 1.480315
vt 9.236218 5.522026E-30
vt 6.519684 5.522026E-30
vt 9.236218 2.661417
vt 6.519684 2.661417
vt -3.056089 6.16414
vt -6.16414 3.056089
vt -4.97697 8.085018
vt -8.085018 4.97697
vt 6.519685 1.080025E-12
vt 6.519685 2.197723
vt 7.075592 -2.197723
vt 9.23622 2.197723
vt 9.23622 -2.197723
vt 8.085018 -4.97697
vt 4.97697 -8.085018
vt 6.16414 -3.056089
vt 3.056089 -6.16414
vt -6.519685 2.661417
vt -9.23622 2.661417
vt 2.197722 1.874016
vt 2.197722 5.522026E-30
vt -2.197722 1.874016
vt -2.197722 5.522026E-30
vt 9.236218 1.874016
vt 6.519684 1.874016
vt 0.8000028 -2.47004
vt 0.722904 -3.525504
vt -2.338376 -2.47004
vt 2.197723 0.9370079
vt 2.197723 5.522026E-30
vt -1.080025E-12 1.480315
vt -2.197723 5.522026E-30
vt -2.197723 1.480315
vt 2.197724 2.267716
vt 2.197724 5.522026E-30
vt -2.197724 2.267716
vt -2.197724 5.522026E-30
vt 9.23622 1.480315
vt 6.519685 0.9370079
vt 7.075592 1.480315
vt -3.056089 -6.16414
vt -4.97697 -8.085018
vt -6.16414 -3.056089
vt -8.085018 -4.97697
vt -9.23622 0.9370079
vt -8.744321 1.874016
vt -6.519685 1.874016
vt 3.729397 4.736948
vt 1.598778 5.502213
vt 3.865719 5.502213
vt -2.197723 6.519685
vt -2.197723 9.23622
vt 2.197723 6.519685
vt -0.8528579 9.23622
vt 2.197723 8.472735
vt 2.197723 9.23622
vt -9.23622 -2.197723
vt -9.23622 2.197723
vt -6.519685 -2.197723
vt -6.999401 2.197723
vt -6.519685 -1.626732
vt -6.519685 2.197723
vt 2.197723 1.480315
vt -2.197722 5.541413E-07
vt -2.197722 2.267717
vt 2.197722 5.541413E-07
vt 1.525298 2.267717
vt 2.197722 0.4148227
vt -0.9018661 -9.23622
vt 2.197723 -8.744321
vt 2.197722 2.267716
vt -2.197722 2.267716
vt -6.519685 7.772E-07
vt -9.236218 7.771998E-07
vt -6.519685 2.267717
vt -9.236218 0.4148229
vt -8.563793 2.267717
vt 3.056089 6.16414
vt 4.501492 7.609542
vt 6.16414 3.056089
vt 5.452446 7.609542
vt 8.085018 4.97697
vt -4.501492 0.3051294
vt -4.97697 -1.607799
vt -5.452446 0.3051294
vt -2.197722 2.661417
vt 2.197722 2.661417
vt 2.197723 2.661417
vt -2.197723 2.661417
vt -2.197723 1.874016
vt -0.9018661 1.874016
vt 6.519684 2.267716
vt 9.236218 2.267716
vt 6.519685 -2.197723
vt 4.97697 8.085018
vt 2.197723 1.874016
vt 2.197724 2.661417
vt -2.197724 2.661417
vt -2.197724 1.874016
vt 2.197724 1.874016
vt -6.519684 1.874016
vt -9.236218 1.874016
vt -6.519684 1.827796E-08
vt -9.236218 1.827796E-08
vt -6.519684 0.3915714
vt -9.236218 2.267717
vt -6.863584 2.267717
vt 6.519685 1.186408
vt 6.999401 1.480315
vt -0.07489561 -5.30217
vt 3.069775 -5.30217
vt 0.1104688 -6.237827
vt 6.519685 2.661417
vt 8.472735 2.661417
vt 9.23622 2.089662
vt -1.626732 1.480315
vt 2.197723 1.186408
vt -3.299262 -5.920963
vt -3.299262 -6.407313
vt 2.197725 -3.453717E-06
vt -2.197723 -3.453717E-06
vt 2.197725 2.267713
vt -2.197723 0.3915679
vt -1.853821 2.267713
vt -2.197723 2.089662
vt 0.8528579 2.661417
vt -0.8026536 6.454241
vt 3.05177 6.454241
vt 2.992065 5.894827
vt -6.16414 0.7811472
vt -6.407313 2.672986
vt -5.920963 2.672986

usemtl stone

f 3/3/1 2/2/1 1/1/1
f 2/2/1 3/3/1 4/4/1
f 7/7/2 6/6/2 5/5/2
f 6/6/2 7/7/2 8/8/2
f 10/11/3 6/10/3 9/9/3
f 6/10/3 10/11/3 5/12/3
f 13/15/4 12/14/4 11/13/4
f 12/14/4 13/15/4 14/16/4
f 17/19/5 16/18/5 15/17/5
f 16/18/5 17/19/5 18/20/5
f 21/23/2 20/22/2 19/21/2
f 20/22/2 21/23/2 22/24/2
f 24/27/6 13/26/6 23/25/6
f 13/26/6 24/27/6 14/28/6
f 14/28/6 24/27/6 25/29/6
f 28/32/2 27/31/2 26/30/2
f 27/31/2 28/32/2 29/33/2
f 32/35/3 31/13/3 30/34/3
f 31/13/3 32/35/3 33/14/3
f 36/38/7 35/37/7 34/36/7
f 35/37/7 36/38/7 37/39/7
f 36/40/8 38/18/8 37/17/8
f 38/18/8 36/40/8 39/41/8
f 42/44/9 41/43/9 40/42/9
f 23/47/3 44/46/3 43/45/3
f 44/46/3 23/47/3 11/48/3
f 11/48/3 23/47/3 13/49/3
f 46/52/10 20/51/10 45/50/10
f 20/51/10 46/52/10 19/53/10
f 25/54/11 44/12/11 47/10/11
f 44/12/11 25/54/11 43/55/11
f 43/55/11 25/54/11 24/56/11
f 3/59/2 15/58/2 16/57/2
f 15/58/2 3/59/2 1/60/2
f 7/13/12 41/61/12 8/14/12
f 41/61/12 7/13/12 40/62/12
f 40/62/12 7/13/12 48/63/12
f 24/66/13 23/65/13 43/64/13
f 49/69/6 32/68/6 30/67/6
f 32/68/6 49/69/6 50/70/6
f 50/70/6 49/69/6 51/71/6
f 52/68/2 31/69/2 33/72/2
f 31/69/2 52/68/2 53/67/2
f 56/75/6 55/74/6 54/73/6
f 55/74/6 56/75/6 57/76/6
f 57/76/6 56/75/6 58/77/6
f 12/74/2 44/75/2 11/78/2
f 44/75/2 12/74/2 47/73/2
f 55/49/3 59/46/3 54/79/3
f 59/46/3 55/49/3 60/48/3
f 21/82/14 61/81/14 22/80/14
f 61/81/14 21/82/14 62/83/14
f 62/83/14 21/82/14 63/84/14
f 42/85/6 10/7/6 9/8/6
f 10/7/6 42/85/6 48/5/6
f 48/5/6 42/85/6 40/86/6
f 65/88/10 27/37/10 64/87/10
f 27/37/10 65/88/10 26/39/10
f 46/91/15 21/90/15 19/89/15
f 21/90/15 46/91/15 63/92/15
f 63/92/15 46/91/15 66/93/15
f 45/96/6 66/95/6 46/94/6
f 66/95/6 45/96/6 62/97/6
f 62/97/6 45/96/6 61/98/6
f 62/101/16 63/100/16 66/99/16
f 1/37/17 17/102/17 15/39/17
f 17/102/17 1/37/17 2/103/17
f 17/31/6 4/32/6 18/33/6
f 4/32/6 17/31/6 2/30/6
f 49/104/11 31/48/11 53/46/11
f 31/48/11 49/104/11 30/105/11
f 41/45/11 6/48/11 8/46/11
f 6/48/11 41/45/11 9/106/11
f 9/106/11 41/45/11 42/107/11
f 22/17/18 45/108/18 20/18/18
f 45/108/18 22/17/18 61/109/18
f 67/108/19 26/17/19 65/109/19
f 26/17/19 67/108/19 28/18/19
f 68/26/2 59/29/2 60/28/2
f 59/29/2 68/26/2 69/110/2
f 37/111/2 70/96/2 35/98/2
f 70/96/2 37/111/2 38/94/2
f 10/112/4 7/48/4 5/46/4
f 7/48/4 10/112/4 48/106/4
f 4/114/7 16/51/7 18/113/7
f 16/51/7 4/114/7 3/53/7
f 12/46/12 25/49/12 47/48/12
f 25/49/12 12/46/12 14/79/12
f 38/51/17 71/115/17 70/53/17
f 71/115/17 38/51/17 39/116/17
f 56/15/11 59/14/11 69/13/11
f 59/14/11 56/15/11 54/16/11
f 34/118/20 70/3/20 71/117/20
f 70/3/20 34/118/20 35/1/20
f 71/22/6 36/23/6 34/24/6
f 36/23/6 71/22/6 39/21/6
f 72/121/21 27/120/21 29/119/21
f 27/120/21 72/121/21 64/122/21
f 64/122/21 72/121/21 73/123/21
f 55/54/4 68/12/4 60/10/4
f 68/12/4 55/54/4 74/124/4
f 74/124/4 55/54/4 57/125/4
f 75/128/22 50/127/22 51/126/22
f 52/10/12 49/129/12 53/12/12
f 49/129/12 52/10/12 51/130/12
f 51/130/12 52/10/12 75/131/12
f 68/46/12 56/49/12 69/48/12
f 56/49/12 68/46/12 58/132/12
f 58/132/12 68/46/12 74/133/12
f 64/58/6 67/59/6 65/60/6
f 67/59/6 64/58/6 76/134/6
f 76/134/6 64/58/6 73/135/6
f 67/138/23 29/137/23 28/136/23
f 29/137/23 67/138/23 72/139/23
f 72/139/23 67/138/23 76/140/23
f 32/104/4 52/48/4 33/46/4
f 52/48/4 32/104/4 75/141/4
f 75/141/4 32/104/4 50/142/4
f 74/145/24 57/144/24 58/143/24
f 76/148/25 73/147/25 72/146/25

