# Created by Kenney (www.kenney.nl)

mtllib campfire_stones.mtl

g campfire_stones

v -0.1897965 0 -0.1726675
v -0.136588 0.06313381 -0.1590818
v -0.1882637 0 -0.1674438
v -0.1489721 0.03201853 -0.118613
v -0.1294666 0.06313381 -0.1348122
v -0.1494716 0.0274187 -0.1080936
v -0.08073189 0.077751 0.1813657
v -0.08624643 0.077751 0.2078518
v -0.1227264 0.077751 0.1651613
v -0.1243331 0.077751 0.2131767
v -0.1393672 0.077751 0.1792505
v -0.156477 0 -0.03128791
v -0.179636 0 -0.03128791
v -0.1871917 0.077751 -0.07200399
v -0.2063169 0.02485684 -0.04430477
v -0.2450391 0.02485684 -0.04430477
v -0.2242998 0.077751 -0.07200399
v -0.108844 0 0.1254109
v -0.1099011 0 0.126468
v -0.1536064 0.049878 0.1190083
v -0.12892 0.01660734 0.1284511
v -0.175683 0.02079584 0.1709175
v -0.1797334 0.049878 0.1451353
v -0.1773865 0 0.1939534
v -0.182194 0 0.1987609
v 0.08423848 0.007178478 -0.1919608
v 0.08006943 0.01080538 -0.1900014
v 0.04580539 0.049878 -0.1873372
v 0.04419686 0.006535683 -0.1216742
v 0.02733082 0.049878 -0.1553382
v 0.03883342 0 -0.1029031
v 0.04066599 0 -0.1060772
v 0.09547158 0 0.05351557
v 0.117109 0.049878 0.09380197
v 0.0633295 0 0.1255243
v 0.09791391 0.049878 0.1368051
v 0.06749179 0.01903815 0.1500791
v -0.1334036 0 0.08058859
v -0.1585123 0.049878 0.1100548
v 0.1387594 0.049878 0.1403577
v 0.1328918 0.049878 0.1487126
v 0.1336844 0.049878 0.09656574
v -0.2763084 0 -0.1046379
v -0.230439 0.077751 -0.09292605
v -0.2597508 0 -0.04821037
v -0.2482593 0.02028451 -0.04677494
v -0.07416906 0.06313381 -0.177707
v -0.08642115 0.06313381 -0.1348122
v -0.0996669 0.06313381 -0.1960029
v 0.06298628 0.07188299 0.1944398
v 0.05704628 0.07188299 0.2047282
v 0.03593084 0.07188299 0.1543478
v -0.002109676 0.07188299 0.2120956
v 0.02828319 0.07188299 0.1499325
v -0.01514516 0.07188299 0.1917048
v -0.02071576 0.07188299 0.2013534
v 0.02240939 0 0.1016992
v 0.06310847 0 0.1251968
v 0.187366 0 -0.1224889
v 0.187366 0 -0.06221418
v 0.1485317 0.07188299 -0.1094577
v 0.1485317 0.07188299 -0.08797326
v 0.1812754 0.01127378 -0.0552295
v -0.03367867 0.01626733 -0.1918064
v -0.03965563 0.01733023 -0.1737761
v -0.03209559 0 -0.1530386
v -0.05079212 0 -0.08758154
v 0.1207899 0 0.05773709
v 0.1592769 0.01096572 0.07221818
v 0.1994653 0.077751 0.01374698
v 0.1732258 0.077751 0.0399864
v 0.1807862 0.077751 -0.01986915
v 0.1540906 0.077751 -0.01547905
v 0.1540906 0.077751 0.02953332
v 0.08773445 0 -0.1958389
v 0.1318934 0 -0.1958389
v 0.1125733 0.07188299 -0.1570046
v 0.1006933 0.07188299 -0.1570046
v 0.1133746 0 -0.05004623
v 0.1133746 0 0.05368633
v -0.02943708 0 -0.236485
v -0.005194365 0.049878 -0.1982434
v -0.03915713 0 -0.2107159
v -0.01112503 0.049878 -0.1825204
v -0.1047105 0 -0.2577535
v -0.2029584 0 -0.1779879
v -0.1986104 0.077751 -0.1247546
v -0.1766296 0.077751 -0.1089823
v -0.1403978 0 -0.08758154
v 0.132179 0.003734734 -0.05115657
v 0.1373904 0.07188299 -0.08797326
v -0.2098437 0.049878 0.1089262
v -0.255544 0 0.1105539
v -0.1491141 0 0.2577535
v -0.1441635 0 0.07675936
v -0.1500628 0.01091969 0.08306716
v -0.1978092 0.02388905 0.07606055
v -0.206965 0.02434942 0.07315668
v -0.2000457 0.049878 0.09527399
v -0.01024151 0 0.2522427
v -0.04921477 0 0.2297415
v -0.05728732 0.02232714 0.2111527
v -0.04197226 0.0094405 0.1707024
v -0.03384551 3.456697E-05 0.1558349
v -0.05222667 0 0.2442075
v -0.2189562 0.07188299 -0.01889918
v -0.1441635 0 0.01561647
v -0.1829979 0.07188299 0.02864766
v 0.1686348 0 0.08387364
v 0.1762839 0 0.1498772
v 0.2499744 0 0.02081905
v 0.18046 0 0.09033345
v -0.2331108 0 0.07929596
v -0.2908635 0 0.01561647
v -0.2520292 0.07188299 0.0245775
v -0.2908635 0 0.06261176
v -0.2520292 0.07188299 0.03340822
v -0.2308362 0.07188299 -0.01889918
v -0.194139 0.07188299 0.05013211
v 0.108754 0 0.1928364
v 0.09638092 0 0.1745014
v 0.08101773 0 0.2408771
v -0.03385034 0 0.1558136
v 0.0553761 0 -0.2296767
v 0.04066599 0 -0.0754936
v 0.1231743 0 -0.05165779
v 0.1469099 0 0.1917029
v 0.2024574 0 -0.06469596
v -0.1829979 0.07188299 0.05013211
v 0.07950036 0.07188299 -0.1135279
v 0.07950036 0.07188299 -0.1046971
v 0.03874933 0.049878 -0.1947158

vn -0.7683336 0.5990279 0.2254528
vn 0 1 0
vn 0 0.4639118 0.8858814
vn 0.572385 0.5871546 0.5723851
vn 0.7010257 0.5871546 0.4047373
vn -0.7391797 0.587155 -0.3299429
vn 0.7098935 0.5871549 -0.3889736
vn -0.8500418 0.4639119 0.2494285
vn 0.4399084 0.475315 -0.7619423
vn 0.8798158 0.4753149 0
vn 0.7699362 0.5990281 0.2199174
vn 0.1331324 0.5871547 -0.7984515
vn 0 0.4753149 -0.8798158
vn -0.8858814 0.4639117 0
vn -0.7573863 0.5871549 -0.2856838
vn 0.466818 0.599028 -0.650574
vn -0.6264126 0.463912 -0.6264127
vn 0.851815 0.4639118 0.2433041
vn 0 0.475315 0.8798157
vn -0.6223961 0.5871551 0.5175636
vn 0.5164615 0.463912 -0.7197591
vn -0.8099204 0.4639119 0.3589075
vn 0.2714009 0.587155 -0.7626209
vn -0.4399077 0.4753152 0.7619427
vn -0.761943 0.4753149 -0.4399076
vn 0.8672827 0.4639119 0.1805728
vn 0.7017342 0.475315 -0.5307021
vn 0.8040932 0.5871548 -0.09318499
vn 0.6264127 0.4639119 0.6264127
vn -0.6576384 0.5871549 -0.4719754
vn -0.8798156 0.4753151 0
vn -0.7908596 0.4753149 -0.3855085
vn 0 0.475315 -0.8798157
vn -0.2441847 0.4753152 0.8452511
vn -0.5724283 0.4639117 -0.6761003
vn -0.4246979 0.4639118 0.7774429
vn 0 -1 0
vn -0.2608658 0.587155 0.7662885
vn -0.6099165 0.475315 -0.6340957
vn 0.7743663 0.4639119 -0.430282
vn 0.3189146 0.463912 -0.826486
vn 0.1226636 0.463912 0.8773479
vn -0.5662004 0.5990279 -0.5662003
vn 0.662432 0.5871549 0.4652236
vn -0.8798156 0.4753152 0
vn 0.585031 0.587155 -0.559453
vn 0.8798156 0.4753151 0
vn 0 0.5990282 0.800728
vn -0.1437529 0.4639119 -0.8741401
vn -0.2441847 0.475315 0.8452511
vn 0.1087346 0.475315 0.8730707
vn -0.7908596 0.4753151 -0.3855085
vn -0.4672335 0.5871547 0.6610161
vn 0.7292899 0.475315 -0.4921503
vn 0.7619427 0.4753149 0.4399081
vn 0.06477197 0.5871548 -0.806879
vn 0.7017342 0.475315 -0.530702

vt -8.626814 -3.148477
vt -7.523763 -0.04432337
vt -8.412483 -3.148477
vt -6.132241 -1.574194
vt -6.527984 -0.04432324
vt -5.740383 -1.800359
vt 3.178421 7.140381
vt 3.395529 8.183141
vt 4.831746 6.502415
vt 4.895005 8.392785
vt 5.486897 7.057106
vt -6.160512 0.5714495
vt -7.072284 0.5714495
vt -7.369751 4.026837
vt -8.122712 1.67613
vt -9.647208 1.67613
vt -8.830702 4.026836
vt -6.521388 -0.2707981
vt -6.580246 -0.2707979
vt -7.589281 2.155097
vt -7.164915 0.536926
vt -9.648959 0.7406405
vt -9.043973 2.155097
vt -10.33768 -0.2707979
vt -10.60535 -0.270798
vt 8.203235 0.7610878
vt 8.054359 0.9374881
vt 7.289034 2.837847
vt 5.018557 0.7298247
vt 5.834342 2.837846
vt 4.272967 0.4119514
vt 4.417265 0.4119515
vt 0.391887 2.519539
vt 1.493009 4.945435
vt 3.49648 2.519539
vt 3.347053 4.945435
vt 4.312459 3.44549
vt -0.2586898 3.599613
vt -2.270888 3.599613
vt -0.8010491 6.025508
vt -1.202996 6.025508
vt -5.462969 5.525894
vt -5.231962 5.854825
vt -5.263166 3.801801
vt -4.610589 3.692991
vt -3.854878 5.386029
vt -7.015825 -4.304301
vt -6.064919 -0.8489138
vt -4.700603 -4.304301
vt -5.206488 -0.8489139
vt -4.518993 -3.402823
vt -4.389981 -3.199621
vt 2.920042 -6.996339
vt 3.402408 -5.307568
vt 3.923894 -7.71665
vt 5.097109 -5.307568
vt 5.377481 -6.263062
vt -2.479775 7.655109
vt -2.245917 8.060164
vt -1.4146 6.076687
vt 0.0830581 8.350221
vt -1.113511 5.902853
vt 0.5962663 7.547434
vt 0.8155811 7.927298
vt -2.766013 1.43847
vt -4.616221 1.43847
vt -3.91576 4.655097
vt -4.263427 4.655097
vt 4.822397 -3.506215
vt 2.449376 -3.506214
vt 4.309359 -0.2895874
vt 3.463513 -0.2895873
vt 2.174388 -3.001735
vt 6.89688 2.51892
vt 6.149697 2.571181
vt 5.925315 4.823244
vt 4.169006 4.823245
vt 5.446401 1.719091
vt 2.766288 1.71909
vt -4.054058 0.8572652
vt -5.064602 0.8572652
vt -5.155182 3.28316
vt -6.652971 1.390601
vt -5.816768 3.283161
vt -7.852963 0.5412197
vt -6.819915 1.574268
vt -7.117568 -0.7822501
vt -6.066561 -0.6094115
vt -6.066561 1.162729
vt -3.454112 -3.66477
vt -5.192655 -3.66477
vt -3.316475 -3.343547
vt -4.432019 -0.4481425
vt -3.15234 -3.18125
vt -3.964302 -0.4481425
vt -1.970324 2.070701
vt -0.6094115 5.526087
vt 2.113635 2.070701
vt 1.162729 5.526087
vt -8.302303 -2.566013
vt -7.230455 -0.1401174
vt -7.217997 -2.566013
vt -6.597555 -1.774825
vt -6.568868 -0.1401173
vt -5.850333 -1.723129
vt 9.265479 -3.499213
vt 6.088974 -3.499213
vt 7.686821 -0.3950592
vt 5.479714 -2.699383
vt 6.451278 -0.3950597
vt 4.779108 -4.919836
vt 0.6951491 -4.919836
vt 3.828202 -1.464448
vt 2.056062 -1.464448
vt 2.879415 4.327939
vt 2.47579 4.123514
vt 2.215777 6.360367
vt 0.7017164 6.360367
vt 1.797396 2.90498
vt -0.5075234 2.90498
vt 5.203897 1.086668
vt 5.409072 4.136173
vt 7.136827 1.424026
vt 5.847703 4.136173
vt -1.984965 -3.750124
vt -0.1309215 -3.750125
vt -3.086088 -6.176021
vt 1.430452 -6.17602
vt 10.57735 -0.4801346
vt 9.865293 -0.4801345
vt 9.216437 2.975253
vt 7.487676 0.942824
vt 8.151316 2.975253
vt 3.349821 -3.473005
vt 4.229016 -0.9418206
vt 4.15181 -4.397208
vt 5.689966 -0.9418207
vt 6.899205 -4.397208
vt 4.333984 2.789023
vt 3.88434 2.789023
vt 4.469532 3.320119
vt 4.426701 5.214919
vt 6.332996 3.950904
vt 6.710926 3.973296
vt 6.162333 5.214919
vt 4.616218 -4.183698
vt 2.844468 -4.183698
vt 4.103179 -0.96707
vt 2.203309 -3.184601
vt 3.257334 -0.96707
vt 6.646407 1.243989
vt 6.834404 4.038172
vt 8.32706 1.820641
vt 7.273034 4.038172
vt -6.278034 0.02623655
vt -6.916296 0.4442522
vt -7.638342 3.480088
vt -8.598298 1.016956
vt -8.703464 3.480087
vt -9.831736 0.02470036
vt -9.249994 0.02470022
vt 6.290821 3.440283
vt 5.248459 2.327987
vt 5.79321 5.544614
vt 2.933204 2.327987
vt 3.446243 5.544614
vt -3.546208 -3.115771
vt -4.044446 -3.649106
vt -4.38241 -1.223211
vt -6.660403 -3.649106
vt -6.118042 -1.223211
vt 5.170184 -0.0418496
vt 6.379422 -3.497237
vt 3.709233 -0.04184939
vt 2.50902 -3.497237
vt 7.090875 -2.124847
vt 7.63947 -0.8832245
vt 7.887426 -3.30912
vt 9.402181 -3.30912
vt 8.301056 -0.8832243
vt 0.6148218 -5.442985
vt 0.9676182 -2.226357
vt 2.46503 -5.442985
vt 1.315284 -2.226357
vt 2.774762 -4.764607
vt 2.627324 -3.856914
vt 5.570278 -4.764607
vt 3.313271 -1.54798
vt 5.217481 -1.54798
vt 9.773987 -0.1726857
vt 9.647208 0.03191727
vt 9.08804 2.136249
vt 8.122712 0.03191734
vt 8.620323 2.136249
vt -6.650714 -1.567297
vt -7.028746 -1.546696
vt -6.79521 0.5803413
vt -9.167548 0.5803413
vt -10.31729 -2.636286
vt -7.950587 -2.636286
vt 7.141422 0.8482357
vt 7.889218 3.565564
vt 9.626844 1.03438
vt 8.747649 3.565564
vt 7.940035 0.1321942
vt 7.40954 0.1321943
vt 6.739822 3.587581
vt 6.866225 0.6195301
vt 5.88139 3.587581
vt 4.930485 0.1321942
vt 5.263144 0.1321944
vt 4.281655 7.591985
vt 3.794524 6.870134
vt 3.189674 9.483349
vt 3.758724 2.106912
vt 2.493287 4.941902
vt -0.403209 9.930817
vt 2.484586 4.929009
vt 0.8822592 4.003904
vt -1.332691 6.134394
vt -1.937589 9.044942
vt -4.326816 4.979057
vt -2.056168 9.61447
vt -5.870636 10.14778
vt -5.252111 3.172779
vt -5.675728 3.022022
vt -5.675728 0.6148218
vt -7.072283 -1.231807
vt -6.983721 7.635961
vt -7.172993 7.825233
vt -7.411955 -6.592274
vt -9.17759 3.121888
vt -10.06079 4.352515
vt -7.990487 -7.007398
vt -10.22641 -1.898046
vt -11.45132 2.46503
vt -11.45132 0.6148218
vt -10.87828 -4.119603
vt -6.160512 -1.231807
vt -5.527473 -3.448092
vt -7.472302 -6.797935
vt -4.12246 -10.14778
vt -1.99969 -3.448092
vt -1.541619 -8.2959
vt -1.263606 -6.025142
vt -1.15894 -9.310434
vt 1.528875 -4.051301
vt 1.601023 -4.176267
vt 2.180161 -9.042389
vt 1.601023 -2.972189
vt 3.454112 -7.710194
vt 4.84938 -2.033771
vt 5.192655 -7.710194
vt 4.755507 2.273114
vt 5.783854 7.547357
vt 6.639167 3.302112
vt 7.104726 3.556435
vt 7.376614 -4.822398
vt 7.376614 -2.449377
vt 7.970765 -2.547085
vt 9.841513 0.8196475
vt 4.463566 -1.970324
vt 4.463566 2.113635
vt 6.94031 5.900678
vt -4.285197 4.937438
vt 7.907535 -3.100626
vt 5.806092 -3.100626
vt 6.839642 -0.6747301
vt 4.419543 -2.174675
vt 5.38495 -0.6747307
vt -5.907983 -1.176211
vt -7.787764 -0.5958571
vt -7.20464 1.551781
vt -7.643268 1.551781
vt 5.213049 1.66231
vt 2.139778 1.66231
vt 5.213492 1.663857
vt 3.289525 4.878938
vt 5.849858 2.084755
vt 5.661862 4.878938
vt 7.20464 1.127861
vt 7.20464 1.973705
vt 8.620323 -0.7440622
vt 7.643269 1.973705
vt 9.922407 1.315284
vt 9.08804 -0.7440622
vt 9.922407 0.9676182
vt -1.645028 -3.806188
vt -5.496597 -3.806187
vt -2.773298 -0.3508004
vt -4.287359 -0.3508005
vt 2.244272 2.877586
vt -0.9650252 2.877585
vt 2.914739 3.615644
vt -0.9655042 2.879122
vt 0.394803 6.332973
vt 2.166944 6.332973
vt -3.36763 -4.285224
vt -7.219198 -4.285224
vt -4.4959 -0.8298372
vt -6.00996 -0.8298373
vt -2.681884 -2.940386
vt -0.6262012 -2.940386
vt -4.260544 -6.044539
vt 0.4768488 -6.044539
vt 6.047497 4.685367
vt 7.076119 5.713989
vt 6.240644 4.332868
vt 7.875815 3.750945
vt 8.261561 4.288435
vt -1.382411 -2.900095
vt -0.840053 -5.325991
vt -1.784357 -2.900095
vt -2.852251 -5.325991
vt 6.953919 -4.290641
vt 7.36975 -2.834803
vt 7.819308 -4.911598
vt 8.830701 -2.834803
vt 9.072401 -3.658506
vt -4.790322 1.05345
vt -4.469602 3.977619
vt -4.176267 0.7609907
vt -4.121935 3.977619
vt -2.972189 0.7609907
vt 3.185139 -4.594573
vt 3.169916 -4.245436
vt 5.028422 -4.594573
vt 4.084116 -2.168677
vt 4.486063 -2.168676
vt -0.6148208 2.69776
vt -3.022021 2.69776
vt -1.127859 5.914388
vt -1.973704 5.914388
vt -3.27036 3.186395
vt -1.99969 2.065504
vt -5.527474 2.065504
vt -3.402408 5.169658
vt -5.88471 3.413623
vt -5.097109 5.169658
vt -4.724134 -0.5659271
vt -5.11513 -0.565927
vt -6.085046 2.88946
vt -5.461747 -0.399949
vt -7.395078 -0.06490119
vt -7.15017 2.88946
vt -8.27844 -0.565927
vt -7.676309 -0.5659273
vt -5.847703 -4.30936
vt -5.847703 -3.463514
vt -4.432019 -6.181283
vt -5.409072 -3.463514
vt -3.129936 -4.121935
vt -3.964302 -6.181283
vt -3.129936 -4.469602
vt 4.094412 1.568432
vt 0.7132215 1.568432
vt 4.440479 1.735554
vt 1.862967 4.785059
vt 4.235304 4.785059
vt 1.993194 -4.660393
vt -1.627447 -4.660393
vt 1.23256 -1.443766
vt -1.114408 -1.443765
vt -8.105306 0.1632146
vt -7.293344 2.896322
vt -5.068413 -0.02784636
vt -5.389134 2.896322
vt -1.089957 2.460626
vt -4.509605 2.460626
vt -2.651331 4.886521
vt -5.22391 3.303509
vt -4.505375 4.886521
vt -5.47554 0.3316176
vt -5.491095 0.3316173
vt -5.828337 3.548245
vt -6.384089 1.183538
vt -7.817314 0.3316176
vt -7.732547 3.548245
vt -8.688155 0.3316174
vt -4.434022 -3.56677
vt -6.617982 -3.56677
vt -5.38963 -0.3501427
vt -5.857347 -0.350143
vt 1.90022 -5.394687
vt -1.449623 -5.394687
vt 0.8283706 -2.968792
vt -0.9072615 -2.968792
vt 3.017398 -4.179153
vt -0.6032418 -4.179153
vt 2.256764 -0.9625255
vt -0.09020348 -0.9625257
vt -1.803362 -7.37548
vt -1.076016 -6.115679
vt -1.525564 -7.665978
vt 0.2045026 -7.804859
vt 0.4379932 -7.185844

usemtl stone

f 3/3/1 2/2/1 1/1/1
f 2/2/1 3/3/1 4/4/1
f 2/2/1 4/4/1 5/5/1
f 5/5/1 4/4/1 6/6/1
f 9/9/2 8/8/2 7/7/2
f 8/8/2 9/9/2 10/10/2
f 10/10/2 9/9/2 11/11/2
f 14/14/3 13/13/3 12/12/3
f 13/13/3 14/14/3 15/15/3
f 15/15/3 14/14/3 16/16/3
f 16/16/3 14/14/3 17/17/3
f 20/20/4 19/19/4 18/18/4
f 19/19/4 20/20/4 21/21/4
f 21/21/4 20/20/4 22/22/4
f 22/22/4 20/20/4 23/23/4
f 22/22/4 23/23/4 24/24/4
f 24/24/4 23/23/4 25/25/4
f 28/28/5 27/27/5 26/26/5
f 27/27/5 28/28/5 29/29/5
f 29/29/5 28/28/5 30/30/5
f 29/29/5 30/30/5 31/31/5
f 29/29/5 31/31/5 32/32/5
f 35/35/6 34/34/6 33/33/6
f 34/34/6 35/35/6 36/36/6
f 36/36/6 35/35/6 37/37/6
f 39/40/7 18/39/7 38/38/7
f 18/39/7 39/40/7 20/41/7
f 42/44/2 41/43/2 40/42/2
f 41/43/2 42/44/2 34/45/2
f 41/43/2 34/45/2 36/46/2
f 45/49/8 44/48/8 43/47/8
f 44/48/8 45/49/8 17/50/8
f 17/50/8 45/49/8 46/51/8
f 17/50/8 46/51/8 16/52/8
f 49/55/2 48/54/2 47/53/2
f 48/54/2 49/55/2 5/56/2
f 5/56/2 49/55/2 2/57/2
f 52/60/2 51/59/2 50/58/2
f 51/59/2 52/60/2 53/61/2
f 53/61/2 52/60/2 54/62/2
f 53/61/2 54/62/2 55/63/2
f 53/61/2 55/63/2 56/64/2
f 54/67/9 58/66/9 57/65/9
f 58/66/9 54/67/9 52/68/9
f 61/71/10 60/70/10 59/69/10
f 60/70/10 61/71/10 62/72/10
f 60/70/10 62/72/10 63/73/10
f 47/76/11 65/75/11 64/74/11
f 65/75/11 47/76/11 48/77/11
f 65/75/11 48/77/11 66/78/11
f 66/78/11 48/77/11 67/79/11
f 34/82/12 68/81/12 33/80/12
f 68/81/12 34/82/12 69/83/12
f 69/83/12 34/82/12 42/84/12
f 72/87/2 71/86/2 70/85/2
f 71/86/2 72/87/2 73/88/2
f 71/86/2 73/88/2 74/89/2
f 26/92/13 76/91/13 75/90/13
f 76/91/13 26/92/13 77/93/13
f 77/93/13 26/92/13 27/94/13
f 77/93/13 27/94/13 78/95/13
f 80/98/14 73/97/14 79/96/14
f 73/97/14 80/98/14 74/99/14
f 83/102/15 82/101/15 81/100/15
f 82/101/15 83/102/15 64/103/15
f 82/101/15 64/103/15 84/104/15
f 84/104/15 64/103/15 65/105/15
f 49/108/16 83/107/16 85/106/16
f 83/107/16 49/108/16 64/109/16
f 64/109/16 49/108/16 47/110/16
f 44/113/17 86/112/17 43/111/17
f 86/112/17 44/113/17 87/114/17
f 88/117/18 6/116/18 4/115/18
f 6/116/18 88/117/18 14/118/18
f 6/116/18 14/118/18 89/119/18
f 89/119/18 14/118/18 12/120/18
f 63/123/19 91/122/19 90/121/19
f 91/122/19 63/123/19 62/124/19
f 93/127/20 23/126/20 92/125/20
f 23/126/20 93/127/20 25/128/20
f 87/131/21 3/130/21 86/129/21
f 3/130/21 87/131/21 4/132/21
f 4/132/21 87/131/21 88/133/21
f 24/136/22 11/135/22 22/134/22
f 11/135/22 24/136/22 10/137/22
f 10/137/22 24/136/22 94/138/22
f 96/141/23 38/140/23 95/139/23
f 38/140/23 96/141/23 39/142/23
f 39/142/23 96/141/23 97/143/23
f 39/142/23 97/143/23 98/144/23
f 39/142/23 98/144/23 99/145/23
f 53/148/24 101/147/24 100/146/24
f 101/147/24 53/148/24 102/149/24
f 102/149/24 53/148/24 56/150/24
f 102/153/25 55/152/25 103/151/25
f 55/152/25 102/153/25 56/154/25
f 7/157/26 103/156/26 104/155/26
f 103/156/26 7/157/26 102/158/26
f 102/158/26 7/157/26 8/159/26
f 102/158/26 8/159/26 105/160/26
f 102/158/26 105/160/26 101/161/26
f 106/164/27 13/163/27 15/162/27
f 13/163/27 106/164/27 107/165/27
f 107/165/27 106/164/27 108/166/27
f 42/169/28 109/168/28 69/167/28
f 109/168/28 42/169/28 110/170/28
f 110/170/28 42/169/28 40/171/28
f 71/174/29 111/173/29 70/172/29
f 111/173/29 71/174/29 112/175/29
f 113/178/30 99/177/30 98/176/30
f 99/177/30 113/178/30 93/179/30
f 99/177/30 93/179/30 92/180/30
f 116/183/31 115/182/31 114/181/31
f 115/182/31 116/183/31 117/184/31
f 114/187/32 46/186/32 45/185/32
f 46/186/32 114/187/32 118/188/32
f 118/188/32 114/187/32 115/189/32
f 118/192/33 16/191/33 46/190/33
f 16/191/33 118/192/33 15/193/33
f 15/193/33 118/192/33 106/194/33
f 119/197/34 98/196/34 97/195/34
f 117/198/34 98/196/34 119/197/34
f 116/199/34 98/196/34 117/198/34
f 98/196/34 116/199/34 113/200/34
f 22/203/35 9/202/35 21/201/35
f 9/202/35 22/203/35 11/204/35
f 71/207/36 109/206/36 112/205/36
f 109/206/36 71/207/36 69/208/36
f 74/209/36 69/208/36 71/207/36
f 80/210/36 69/208/36 74/209/36
f 69/208/36 80/210/36 68/211/36
f 122/214/37 121/213/37 120/212/37
f 121/213/37 122/214/37 33/215/37
f 33/215/37 122/214/37 35/216/37
f 35/216/37 122/214/37 100/217/37
f 35/216/37 100/217/37 58/218/37
f 58/218/37 100/217/37 57/219/37
f 57/219/37 100/217/37 123/220/37
f 123/220/37 100/217/37 101/221/37
f 123/220/37 101/221/37 19/222/37
f 19/222/37 101/221/37 105/223/37
f 19/222/37 105/223/37 94/224/37
f 19/222/37 94/224/37 38/225/37
f 38/225/37 94/224/37 95/226/37
f 95/226/37 94/224/37 107/227/37
f 107/227/37 94/224/37 13/228/37
f 13/228/37 94/224/37 24/229/37
f 13/228/37 24/229/37 25/230/37
f 3/231/37 13/228/37 25/230/37
f 25/230/37 113/232/37 3/231/37
f 113/232/37 25/230/37 93/233/37
f 3/231/37 113/232/37 86/234/37
f 45/235/37 86/234/37 113/232/37
f 116/236/37 45/235/37 113/232/37
f 45/235/37 116/236/37 114/237/37
f 86/234/37 45/235/37 43/238/37
f 3/231/37 12/239/37 13/228/37
f 3/231/37 89/240/37 12/239/37
f 1/241/37 89/240/37 3/231/37
f 85/242/37 89/240/37 1/241/37
f 85/242/37 67/243/37 89/240/37
f 83/244/37 67/243/37 85/242/37
f 83/244/37 66/245/37 67/243/37
f 81/246/37 66/245/37 83/244/37
f 81/246/37 31/247/37 66/245/37
f 81/246/37 32/248/37 31/247/37
f 124/249/37 32/248/37 81/246/37
f 124/249/37 125/250/37 32/248/37
f 75/251/37 125/250/37 124/249/37
f 75/251/37 126/252/37 125/250/37
f 126/252/37 75/251/37 76/253/37
f 76/253/37 68/254/37 126/252/37
f 76/253/37 127/255/37 68/254/37
f 76/253/37 109/256/37 127/255/37
f 76/253/37 112/257/37 109/256/37
f 59/258/37 112/257/37 76/253/37
f 60/259/37 112/257/37 59/258/37
f 128/260/37 112/257/37 60/259/37
f 112/257/37 128/260/37 111/261/37
f 68/254/37 127/255/37 121/213/37
f 68/254/37 121/213/37 33/215/37
f 68/254/37 79/262/37 126/252/37
f 79/262/37 68/254/37 80/263/37
f 127/255/37 109/256/37 110/264/37
f 38/225/37 18/265/37 19/222/37
f 41/268/38 121/267/38 127/266/38
f 121/267/38 41/268/38 37/269/38
f 37/269/38 41/268/38 36/270/38
f 129/273/19 97/272/19 96/271/19
f 97/272/19 129/273/19 119/274/19
f 104/277/39 57/276/39 123/275/39
f 57/276/39 104/277/39 54/278/39
f 54/278/39 104/277/39 103/279/39
f 54/278/39 103/279/39 55/280/39
f 106/283/2 129/282/2 108/281/2
f 129/282/2 106/283/2 119/284/2
f 119/284/2 106/283/2 117/285/2
f 117/285/2 106/283/2 118/286/2
f 117/285/2 118/286/2 115/287/2
f 72/290/40 111/289/40 128/288/40
f 111/289/40 72/290/40 70/291/40
f 21/294/41 123/293/41 19/292/41
f 123/293/41 21/294/41 104/295/41
f 104/295/41 21/294/41 7/296/41
f 7/296/41 21/294/41 9/297/41
f 8/300/42 94/299/42 105/298/42
f 94/299/42 8/300/42 10/301/42
f 85/304/43 2/303/43 49/302/43
f 2/303/43 85/304/43 1/305/43
f 39/308/2 23/307/2 20/306/2
f 23/307/2 39/308/2 99/309/2
f 23/307/2 99/309/2 92/310/2
f 41/313/44 110/312/44 40/311/44
f 110/312/44 41/313/44 127/314/44
f 87/317/2 14/316/2 88/315/2
f 14/316/2 87/317/2 17/318/2
f 17/318/2 87/317/2 44/319/2
f 32/322/45 130/321/45 29/320/45
f 130/321/45 32/322/45 131/323/45
f 131/323/45 32/322/45 125/324/45
f 124/327/46 26/326/46 75/325/46
f 26/326/46 124/327/46 28/328/46
f 28/328/46 124/327/46 132/329/46
f 108/332/47 95/331/47 107/330/47
f 95/331/47 108/332/47 129/333/47
f 95/331/47 129/333/47 96/334/47
f 48/337/48 89/336/48 67/335/48
f 89/336/48 48/337/48 6/338/48
f 6/338/48 48/337/48 5/339/48
f 73/342/49 126/341/49 79/340/49
f 126/341/49 73/342/49 90/343/49
f 90/343/49 73/342/49 63/344/49
f 72/345/49 63/344/49 73/342/49
f 128/346/49 63/344/49 72/345/49
f 63/344/49 128/346/49 60/347/49
f 77/350/2 62/349/2 61/348/2
f 62/349/2 77/350/2 91/351/2
f 91/351/2 77/350/2 131/352/2
f 131/352/2 77/350/2 78/353/2
f 131/352/2 78/353/2 130/354/2
f 90/357/50 125/356/50 126/355/50
f 125/356/50 90/357/50 131/358/50
f 131/358/50 90/357/50 91/359/50
f 51/362/51 100/361/51 122/360/51
f 100/361/51 51/362/51 53/363/51
f 29/366/52 78/365/52 27/364/52
f 78/365/52 29/366/52 130/367/52
f 30/370/53 66/369/53 31/368/53
f 66/369/53 30/370/53 65/371/53
f 65/371/53 30/370/53 84/372/53
f 52/375/54 35/374/54 58/373/54
f 35/374/54 52/375/54 37/376/54
f 37/376/54 52/375/54 121/377/54
f 121/377/54 52/375/54 50/378/54
f 121/377/54 50/378/54 120/379/54
f 50/382/55 122/381/55 120/380/55
f 122/381/55 50/382/55 51/383/55
f 82/386/56 124/385/56 81/384/56
f 124/385/56 82/386/56 132/387/56
f 77/390/57 59/389/57 76/388/57
f 59/389/57 77/390/57 61/391/57
f 132/394/2 30/393/2 28/392/2
f 30/393/2 132/394/2 82/395/2
f 30/393/2 82/395/2 84/396/2

