# Created by Kenney (www.kenney.nl)

mtllib canoe_paddle.mtl

g canoe_paddle

v 0.0157216 0.02545049 -0.06115841
v 0.0157216 0.02545049 0.3347648
v -0.0157216 0.02545049 -0.06115841
v -0.0157216 0.02545049 0.3347648
v 0.0157216 0.0106537 0.3347648
v -0.0157216 0.0106537 0.3347648
v 0.0383607 0 -0.1
v -0.0383607 0 -0.1
v 0.0157216 0.0106537 -0.06115841
v -0.0157216 0.0106537 -0.06115841
v 0 0.02610419 -0.2554272
v 0 0.01 -0.2554272
v 0.0383607 0.03610419 -0.2054272
v 0.0383607 0 -0.2054272
v -0.0383607 0 -0.2054272
v -0.0383607 0.03610419 -0.2054272
v -0.0383607 0.03610419 -0.1
v 0.0383607 0.03610419 -0.1

vn 0 1 0
vn 0 0 1
vn 0 -0.9643813 0.2645161
vn 0.7933967 0 -0.608705
vn -1 0 0
vn 0.8639579 0 0.5035641
vn 0 -0.9805807 -0.1961161
vn 0 0.9643813 0.2645162
vn -0.7933967 0 -0.608705
vn 0 -1 0
vn 1 0 0
vn -0.8639579 0 0.5035641
vn 0 0.9805807 -0.1961161

vt -0.6189606 -2.407811
vt -0.6189606 13.17972
vt 0.6189606 -2.407811
vt 0.6189606 13.17972
vt 0.6189606 0.419437
vt -0.6189606 0.419437
vt 0.6189606 1.001988
vt -0.6189606 1.001988
vt 1.510264 -3.796777
vt -1.510264 -3.796777
vt 0.6189606 -2.2111
vt -0.6189606 -2.2111
vt 7.978547 1.027724
vt 7.978547 0.3937008
vt 5.497437 1.421425
vt 5.497437 3.065213E-17
vt -8.087686 0
vt -8.087686 1.421425
vt -3.937008 0
vt -3.937008 1.421425
vt 4.161923 1.421425
vt 4.161923 -6.126364E-18
vt 2.391934 1.001988
vt 2.391934 0.419437
vt -1.510264 7.930628
vt 0 9.938116
vt 1.510264 7.930628
vt -1.510264 -8.087686
vt -1.510264 -3.937008
vt 1.510264 -8.087686
vt 1.510264 -3.937008
vt 1.510264 4.172766
vt 0.6189606 2.58709
vt -1.510264 4.172766
vt -0.6189606 2.58709
vt -7.978547 0.3937008
vt -7.978547 1.027724
vt -5.497437 3.065213E-17
vt -5.497437 1.421425
vt 2.407811 1.001988
vt 2.407811 0.419437
vt -13.17972 1.001988
vt -13.17972 0.419437
vt -4.161923 -6.126364E-18
vt -4.161923 1.421425
vt -2.391934 0.419437
vt -2.391934 1.001988
vt 8.087686 1.421425
vt 8.087686 0
vt 3.937008 1.421425
vt 3.937008 0
vt 0 -9.659351
vt -1.510264 -7.651864
vt 1.510264 -7.651864
vt -2.407811 0.419437
vt -2.407811 1.001988
vt 13.17972 0.419437
vt 13.17972 1.001988

usemtl wood

f 3/3/1 2/2/1 1/1/1
f 2/2/1 3/3/1 4/4/1
f 2/7/2 6/6/2 5/5/2
f 6/6/2 2/7/2 4/8/2
f 9/11/3 8/10/3 7/9/3
f 8/10/3 9/11/3 10/12/3
f 13/15/4 12/14/4 11/13/4
f 12/14/4 13/15/4 14/16/4
f 8/19/5 16/18/5 15/17/5
f 16/18/5 8/19/5 17/20/5
f 1/23/6 7/22/6 18/21/6
f 7/22/6 1/23/6 9/24/6
f 15/27/7 12/26/7 14/25/7
f 16/30/1 18/29/1 13/28/1
f 18/29/1 16/30/1 17/31/1
f 17/34/8 1/33/8 18/32/8
f 1/33/8 17/34/8 3/35/8
f 15/38/9 11/37/9 12/36/9
f 11/37/9 15/38/9 16/39/9
f 6/2/10 9/3/10 5/4/10
f 9/3/10 6/2/10 10/1/10
f 2/42/11 9/41/11 1/40/11
f 9/41/11 2/42/11 5/43/11
f 10/46/12 17/45/12 8/44/12
f 17/45/12 10/46/12 3/47/12
f 8/29/10 14/30/10 7/31/10
f 14/30/10 8/29/10 15/28/10
f 18/50/11 14/49/11 13/48/11
f 14/49/11 18/50/11 7/51/11
f 16/54/13 13/53/13 11/52/13
f 6/57/5 3/56/5 10/55/5
f 3/56/5 6/57/5 4/58/5

