# Created by Kenney (www.kenney.nl)

mtllib canoe.mtl

g canoe

v 0 0 0.4715
v -0.0261798 0 0.3982427
v -0.04513759 0.1825 0.4856619
v 0.1118828 0.1825 -0.2971216
v 0.04786274 0 -0.3221058
v 0.06489204 0 -0.2436397
v -0.06489204 0 -0.2436397
v -0.1118828 0.1825 -0.2971216
v -0.07714455 0 -0.1634119
v -0.04786274 0 0.3221058
v -0.1118828 0.1825 0.2971216
v -0.08252198 0.1825 0.392812
v -0.08453166 0 -0.08200241
v -0.1457443 0.1825 -0.100003
v -0.087 0 0
v -0.06489204 0 0.2436397
v -0.1330078 0.1825 0.1992828
v -0.08252198 0.1825 -0.392812
v -0.1330078 0.1825 -0.1992828
v -0.07714455 0 0.1634119
v -0.04786274 0 -0.3221058
v -0.15 0.1825 -1.443823E-15
v -0.1457443 0.1825 0.100003
v 0.04513759 0.1825 -0.4856619
v 0 0 -0.4715
v 0.0261798 0 -0.3982427
v 0.09796215 0.0876 2.887646E-15
v 0.09389455 0.0876 0.0955819
v 0.09389455 0.0876 -0.0955819
v 0.0817212 0.0876 -0.1904727
v 0.0817212 0.0876 0.1904727
v 0.0615301 0.0876 -0.2839861
v 0.0615301 0.0876 0.2839861
v 0.03346727 0.0876 -0.3754461
v -0.0615301 0.0876 0.2839861
v -0.03346727 0.0876 -0.3754461
v -0.0615301 0.0876 -0.2839861
v -0.0817212 0.0876 -0.1904727
v -0.0817212 0.0876 0.1904727
v -0.09389455 0.0876 -0.0955819
v -0.09389455 0.0876 0.0955819
v -0.09796215 0.0876 -5.775291E-15
v 0.08252198 0.1825 -0.392812
v -0.08453166 0 0.08200241
v 5.775291E-15 0.1825 -0.575
v -0.04513759 0.1825 -0.4856619
v -0.0261798 0 -0.3982427
v 5.775291E-15 0.1825 0.575
v 0.1330078 0.1825 -0.1992828
v 0.07714455 0 -0.1634119
v 0.1457443 0.1825 -0.100003
v 0.08453166 0 -0.08200241
v 0.15 0.1825 -1.443823E-15
v 0.04786274 0 0.3221058
v 0.0261798 0 0.3982427
v 0.04513759 0.1825 0.4856619
v 0.1330078 0.1825 0.1992828
v 0.07714455 0 0.1634119
v 0.1118828 0.1825 0.2971216
v 0.08252198 0.1825 0.392812
v 0.08453166 0 0.08200241
v 0.06489204 0 0.2436397
v 0.087 0 0
v 0.1457443 0.1825 0.100003
v 5.775291E-15 0.1825 -0.4585672
v 5.775291E-15 0.1606 -0.4585672
v -0.03346727 0.1825 -0.3754461
v -0.03346727 0.1606 -0.3754461
v 0.0817212 0.1825 -0.1904727
v 0.09389455 0.1825 -0.0955819
v -0.0615301 0.1606 0.2839861
v 0.0615301 0.1606 0.2839861
v -0.0817212 0.1825 -0.1904727
v -0.09389455 0.1825 -0.0955819
v -0.0817212 0.1825 0.1904727
v -0.0615301 0.1825 0.2839861
v 0.09796215 0.1387 2.887646E-15
v -0.09796215 0.1387 -5.775291E-15
v 0.09389455 0.1387 0.0955819
v -0.09389455 0.1387 0.0955819
v 0.09389455 0.1606 0.0955819
v -0.09389455 0.1606 0.0955819
v -0.03346727 0.1825 0.3754461
v -0.03346727 0.1606 0.3754461
v -0.0615301 0.1825 -0.2839861
v -0.09796215 0.1825 -5.775291E-15
v -0.09796215 0.1606 -5.775291E-15
v -0.09389455 0.1825 0.0955819
v 0.09796215 0.1606 2.887646E-15
v 0.0615301 0.1825 -0.2839861
v 0.03346727 0.1606 -0.3754461
v 0.03346727 0.1825 -0.3754461
v 0.09796215 0.1825 2.887646E-15
v 0.0817212 0.1825 0.1904727
v 0.0615301 0.1825 0.2839861
v 0.03346727 0.1606 0.3754461
v 0.03346727 0.1825 0.3754461
v 5.775291E-15 0.1606 0.4585672
v 0.09389455 0.1825 0.0955819
v 5.775291E-15 0.1825 0.4585672

vn 0.02829649 -0.5391137 0.8417575
vn -0.9153433 -0.2656863 0.3025846
vn -0.8830209 -0.2552078 0.3938822
vn 0.9265988 -0.2924966 -0.2363482
vn 0.9270901 -0.2880874 -0.2398116
vn 0.9352263 -0.3060244 -0.1780471
vn -0.9421042 -0.2824839 -0.1806726
vn -0.9187872 -0.3146884 -0.2383302
vn -0.9453191 -0.3030634 -0.1205174
vn -0.9270901 -0.2880874 0.2398116
vn -0.9265988 -0.2924966 0.2363482
vn -0.9083599 -0.2745026 0.3154848
vn -0.9464326 -0.3170854 -0.06100908
vn -0.9420085 -0.3257797 -0.08054528
vn -0.9459528 -0.3242995 -0.001810756
vn -0.9352263 -0.3060244 0.1780471
vn -0.9385079 -0.3075 0.1569926
vn -0.8984746 -0.304032 -0.3167143
vn -0.9331049 -0.3222881 -0.1595174
vn -0.9406469 -0.318459 0.1173344
vn -0.9360062 -0.2559042 -0.2416724
vn -0.9458672 -0.3245503 -0.001485937
vn -0.9447703 -0.3183929 0.07768645
vn 0.8830209 -0.2552078 -0.3938822
vn -0.02829649 -0.5391137 -0.8417575
vn 0.9153433 -0.2656863 -0.3025846
vn 0 1 0
vn 0.9083599 -0.2745026 -0.3154848
vn -0.9440707 -0.324692 0.05749554
vn -0.008172029 -0.5223269 -0.8527061
vn -0.8714907 -0.2918407 -0.3941231
vn -0.9260378 -0.2243038 -0.3035487
vn 0.008172029 -0.5223269 0.8527061
vn 0.9385079 -0.3075 -0.1569926
vn 0.9406469 -0.318459 -0.1173344
vn 0.9447703 -0.3183929 -0.07768645
vn 0.9440707 -0.324692 -0.05749554
vn 0.9458672 -0.3245503 0.001485937
vn 0.9360062 -0.2559042 0.2416724
vn 0.9260378 -0.2243038 0.3035487
vn 0.8714907 -0.2918407 0.3941231
vn 0.9331049 -0.3222881 0.1595174
vn 0.9453191 -0.3030634 0.1205174
vn 0.9187872 -0.3146884 0.2383302
vn 0.8984746 -0.304032 0.3167143
vn 0.9464326 -0.3170854 0.06100908
vn 0.9421042 -0.2824839 0.1806726
vn 0.9459528 -0.3242995 0.001810756
vn 0.9420085 -0.3257797 0.08054528
vn 0.9276322 0 0.3734951
vn 0.9426734 0 0.3337164
vn 0.9473121 0 0.3203119
vn -0.9855642 0 0.1693022
vn -0.9963845 0 0.08495829
vn 0 0 -1
vn 0.9855642 0 0.1693022
vn 0.9963845 0 0.08495829
vn 0.9855642 0 -0.1693022
vn 0.9676173 0 -0.2524219
vn 0.9774746 0 -0.211053
vn 0.9711003 0 -0.2386719
vn 0 -1 0
vn 0 0 1
vn 0.9426734 0 -0.3337164
vn 0.9676173 0 0.2524219
vn 0.95601 0 0.2933342
vn 1 0 0
vn 0.9998994 0 0.01418398
vn 0.9963845 0 -0.08495829
vn 0.9950793 0 -0.09908234
vn -0.9676173 0 0.2524219
vn -0.9276322 0 0.3734951
vn -0.9473121 0 0.3203119
vn -0.9426734 0 0.3337164
vn -1 0 0
vn -0.9998994 0 0.01418398
vn -0.9855642 0 -0.1693022
vn -0.9774746 0 -0.211053
vn -0.9676173 0 -0.2524219
vn -0.9711003 0 -0.2386719
vn -0.9426734 0 -0.3337164
vn -0.9963845 0 -0.08495829
vn -0.9950793 0 -0.09908234
vn -0.9276322 0 -0.3734951
vn -0.95601 0 0.2933342
vn 0.9276322 0 -0.3734951

vt 17.4803 1.566366
vt 14.41752 1.566366
vt 17.40731 8.988516
vt 10.49736 8.886992
vt 11.99318 1.356544
vt 8.832046 1.356544
vt -9.09647 1.13754
vt -10.89862 8.636416
vt -5.901272 1.13754
vt 11.57073 1.563238
vt 9.891031 9.054814
vt 13.83172 9.054814
vt -3.126849 1.096927
vt -3.762705 8.681816
vt 0.1030541 1.096927
vt 8.83685 1.35277
vt 6.563867 8.882688
vt 10.50455 8.882688
vt -13.83172 9.227617
vt -9.891031 9.227617
vt -8.420747 1.656675
vt -10.50455 8.985839
vt -6.563867 8.985839
vt -5.647615 1.395267
vt 5.901272 1.252954
vt 6.965289 8.824227
vt 9.09647 1.252954
vt -11.99318 1.17197
vt -14.42415 8.610126
vt -8.832046 1.17197
vt -3.689604 8.716133
vt 0.2510861 8.716133
vt 0.1456299 1.115763
vt 5.994772 1.196071
vt 3.174988 8.759131
vt 7.115675 8.759131
vt -6.132748 1.10719
vt -7.340458 8.656875
vt -2.914482 1.10719
vt -3.856778 1.136868E-13
vt -3.696636 3.763067
vt -3.696636 -3.763067
vt -3.21737 -7.498925
vt -3.21737 7.498925
vt -2.422445 -11.18055
vt -2.422445 11.18055
vt -1.317609 -14.78134
vt 2.422445 11.18055
vt 1.317609 -14.78134
vt 2.422445 -11.18055
vt 3.21737 -7.498925
vt 3.21737 7.498925
vt 3.696636 -3.763067
vt 3.696636 3.763067
vt 3.856778 -2.273737E-13
vt 3.084024 1.112464
vt -0.2510861 8.699831
vt 3.689604 8.699831
vt -20.2053 9.876742
vt -16.26461 9.876742
vt -13.52931 2.357082
vt 2.914482 1.169855
vt 3.402483 8.765691
vt 6.132748 1.169855
vt 16.56834 2.074116
vt 16.26461 9.490408
vt 20.2053 9.490408
vt -17.4803 1.171087
vt -21.31744 8.48581
vt -14.41752 1.171087
vt 14.15924 1.807906
vt 13.13242 9.260191
vt 17.07311 9.260191
vt 11.68026 1.466422
vt 13.98377 8.945033
vt 14.79696 1.466422
vt -0.1030541 1.116718
vt -0.1776796 8.717454
vt 3.126849 1.116718
vt -11.68026 1.190183
vt -14.79696 1.190183
vt -17.90262 8.564603
vt -17.07311 9.527046
vt -13.13242 9.527046
vt -11.05981 1.981182
vt -7.115675 8.812457
vt -3.174988 8.812457
vt -2.77872 1.211283
vt 16.74731 7.18504
vt 16.74731 6.322834
vt 13.21953 7.18504
vt 13.21953 6.322834
vt -7.028574 3.448819
vt -7.028574 7.18504
vt -3.262099 3.448819
vt -3.262099 7.18504
vt 2.422445 3.448819
vt -2.422445 3.448819
vt 2.422445 6.322834
vt -2.422445 6.322834
vt 7.028574 7.18504
vt 7.028574 3.448819
vt 3.262099 7.18504
vt 3.262099 3.448819
vt -6.650973 7.18504
vt -6.650973 3.448819
vt -10.41744 7.18504
vt -10.41744 3.448819
vt -10.41744 6.322834
vt 3.856778 1.136868E-13
vt -3.856778 -2.273737E-13
vt 3.696636 5.46063
vt -3.696636 5.46063
vt 3.696636 6.322834
vt -3.696636 6.322834
vt -9.978136 7.18504
vt -9.978136 6.322834
vt -13.74461 7.18504
vt -13.74461 6.322834
vt 13.74461 7.18504
vt 13.74461 6.322834
vt 9.978136 7.18504
vt 13.74461 3.448819
vt 9.978136 3.448819
vt 0.1639815 7.18504
vt 0.1639815 6.322834
vt -3.602491 7.18504
vt -3.602491 6.322834
vt -16.74731 6.322834
vt -16.74731 7.18504
vt -13.21953 6.322834
vt -13.21953 7.18504
vt -3.602491 3.448819
vt 0.1639815 3.448819
vt 0.1639815 5.46063
vt -2.273737E-13 -18.05383
vt 6.650973 3.448819
vt 6.650973 7.18504
vt 10.41744 3.448819
vt 10.41744 7.18504
vt 10.41744 6.322834
vt 9.978136 6.322834
vt 3.425197 0
vt 3.328018 -3.228441
vt 3.328018 3.228441
vt 3.037187 6.433539
vt 3.037187 -6.433539
vt 2.554805 9.592114
vt 2.554805 -9.592114
vt 1.88436 12.68133
vt 1.88436 -12.68133
vt 1.030701 15.67885
vt 1.030701 -15.67885
vt 0 18.56299
vt 0 -18.56299
vt -1.030701 15.67885
vt -1.030701 -15.67885
vt -1.88436 12.68133
vt -1.88436 -12.68133
vt -2.554805 9.592114
vt -2.554805 -9.592114
vt -3.037187 6.433539
vt -3.037187 -6.433539
vt -3.328018 3.228441
vt -3.328018 -3.228441
vt -3.425197 0
vt -1.317609 14.78134
vt -2.273737E-13 18.05383
vt 1.317609 14.78134
vt 3.262099 5.46063
vt 3.262099 6.322834
vt 1.317609 3.448819
vt -1.317609 3.448819
vt 1.317609 6.322834
vt -1.317609 6.322834
vt 3.602491 7.18504
vt 3.602491 3.448819
vt -0.1639815 7.18504
vt -0.1639815 3.448819
vt -0.1639815 6.322834
vt -0.1639815 5.46063
vt -13.74461 3.448819
vt -9.978136 3.448819
vt -3.602491 5.46063
vt 3.856778 5.46063
vt -3.856778 5.46063
vt 3.856778 6.322834
vt -3.856778 6.322834
vt -5.905512 -5.684342E-14
vt -5.737965 3.937126
vt -5.737965 -3.937126
vt -5.236527 -7.845779
vt -5.236527 7.845779
vt -4.404835 -11.6977
vt -4.404835 11.6977
vt -3.248897 -15.46504
vt -1.777071 -19.12055
vt -2.273737E-13 -22.63779
vt 1.777071 -19.12055
vt 3.248897 -15.46504
vt 4.404835 -11.6977
vt 4.404835 11.6977
vt 3.248897 15.46504
vt 1.777071 19.12055
vt -2.273737E-13 22.63779
vt -1.777071 19.12055
vt -3.248897 15.46504
vt 5.236527 -7.845779
vt 5.236527 7.845779
vt 5.737965 -3.937126
vt 5.737965 3.937126
vt 5.905512 -5.684342E-14
vt 3.602491 6.322834
vt -3.262099 6.322834
vt -3.262099 5.46063
vt 3.602491 5.46063

usemtl leafsFall

f 3/3/3 2/2/2 1/1/1
f 6/6/6 5/5/5 4/4/4
f 9/9/9 8/8/8 7/7/7
f 12/12/12 11/11/11 10/10/10
f 15/15/15 14/14/14 13/13/13
f 11/18/11 17/17/17 16/16/16
f 10/5/10 11/4/11 16/6/16
f 7/21/7 8/20/8 18/19/18
f 9/24/9 19/23/19 8/22/8
f 16/27/16 17/26/17 20/25/20
f 7/30/7 18/29/18 21/28/21
f 15/33/15 22/32/22 14/31/14
f 17/36/17 23/35/23 20/34/20
f 13/39/13 19/38/19 9/37/9
f 26/2/26 25/1/25 24/3/24
f 29/42/27 28/41/27 27/40/27
f 28/41/27 29/42/27 30/43/27
f 28/41/27 30/43/27 31/44/27
f 31/44/27 30/43/27 32/45/27
f 31/44/27 32/45/27 33/46/27
f 33/46/27 32/45/27 34/47/27
f 33/46/27 34/47/27 35/48/27
f 35/48/27 34/47/27 36/49/27
f 35/48/27 36/49/27 37/50/27
f 35/48/27 37/50/27 38/51/27
f 35/48/27 38/51/27 39/52/27
f 39/52/27 38/51/27 40/53/27
f 39/52/27 40/53/27 41/54/27
f 41/54/27 40/53/27 42/55/27
f 4/11/4 5/10/5 43/12/28
f 23/58/23 22/57/22 44/56/29
f 47/61/32 46/60/31 45/59/30
f 20/64/20 23/63/23 44/62/29
f 48/67/33 3/66/3 1/65/1
f 47/70/32 45/69/30 25/68/25
f 3/73/3 12/72/12 2/71/2
f 2/76/2 12/75/12 10/74/10
f 44/79/29 22/78/22 15/77/15
f 50/25/35 6/27/6 49/26/34
f 53/57/38 52/56/37 51/58/36
f 56/82/41 55/81/40 54/80/39
f 59/22/44 58/24/43 57/23/42
f 21/85/21 18/84/18 46/83/31
f 49/17/34 6/16/6 4/18/4
f 21/80/21 46/82/31 47/81/32
f 56/83/41 54/85/39 60/84/45
f 5/74/5 26/76/26 43/75/28
f 52/62/37 50/64/35 51/63/36
f 57/38/42 58/37/43 61/39/46
f 59/8/44 62/7/47 58/9/43
f 63/77/48 52/79/37 53/78/38
f 43/72/28 26/71/26 24/73/24
f 51/35/36 50/34/35 49/36/34
f 60/29/45 54/28/39 62/30/47
f 13/88/13 14/87/14 19/86/19
f 48/69/33 1/68/1 55/70/40
f 25/65/25 45/67/30 24/66/24
f 48/59/33 55/61/40 56/60/41
f 60/19/45 62/21/47 59/20/44
f 64/14/49 61/13/46 63/15/48
f 57/86/42 61/88/46 64/87/49
f 64/31/49 63/33/48 53/32/38

usemtl wood

f 67/91/51 66/90/50 65/89/50
f 66/90/50 67/91/51 68/92/52
f 29/95/54 69/94/53 30/93/53
f 69/94/53 29/95/54 70/96/54
f 71/99/55 33/98/55 35/97/55
f 33/98/55 71/99/55 72/100/55
f 74/103/57 38/102/56 73/101/56
f 38/102/56 74/103/57 40/104/57
f 76/107/59 39/106/58 75/105/58
f 39/106/58 76/107/59 35/108/60
f 35/108/60 76/107/59 71/109/61
f 79/54/62 78/111/62 77/110/62
f 78/111/62 79/54/62 80/41/62
f 81/114/63 80/113/63 79/112/63
f 80/113/63 81/114/63 82/115/63
f 83/118/64 71/117/61 76/116/59
f 71/117/61 83/118/64 84/119/64
f 85/122/65 68/121/52 67/120/51
f 68/121/52 85/122/65 36/123/66
f 36/123/66 85/122/65 37/124/65
f 88/127/69 87/126/68 86/125/67
f 87/126/68 88/127/69 82/128/70
f 87/55/27 81/41/27 89/40/27
f 81/41/27 87/55/27 82/54/27
f 30/106/53 90/107/71 32/108/71
f 90/107/71 30/106/53 69/105/53
f 91/131/73 65/130/72 66/129/72
f 65/130/72 91/131/73 92/132/74
f 27/134/75 70/127/54 29/133/54
f 70/127/54 27/134/75 93/125/75
f 93/125/75 27/134/75 77/135/76
f 93/125/75 77/135/76 89/126/76
f 68/49/27 91/47/27 66/136/27
f 33/139/78 94/138/77 31/137/77
f 94/138/77 33/139/78 95/140/79
f 95/140/79 33/139/78 72/141/80
f 96/121/81 95/122/79 72/142/80
f 95/122/79 96/121/81 97/120/81
f 61/145/62 52/144/62 63/143/62
f 52/144/62 61/145/62 58/146/62
f 52/144/62 58/146/62 50/147/62
f 50/147/62 58/146/62 62/148/62
f 50/147/62 62/148/62 6/149/62
f 6/149/62 62/148/62 54/150/62
f 6/149/62 54/150/62 5/151/62
f 5/151/62 54/150/62 55/152/62
f 5/151/62 55/152/62 26/153/62
f 26/153/62 55/152/62 1/154/62
f 26/153/62 1/154/62 25/155/62
f 25/155/62 1/154/62 2/156/62
f 25/155/62 2/156/62 47/157/62
f 47/157/62 2/156/62 10/158/62
f 47/157/62 10/158/62 21/159/62
f 21/159/62 10/158/62 16/160/62
f 21/159/62 16/160/62 7/161/62
f 7/161/62 16/160/62 20/162/62
f 7/161/62 20/162/62 9/163/62
f 9/163/62 20/162/62 44/164/62
f 9/163/62 44/164/62 13/165/62
f 13/165/62 44/164/62 15/166/62
f 71/48/27 96/167/27 72/46/27
f 96/167/27 71/48/27 98/168/27
f 98/168/27 71/48/27 84/169/27
f 31/102/77 79/170/83 28/104/82
f 79/170/83 31/102/77 81/171/83
f 81/171/83 31/102/77 99/103/82
f 99/103/82 31/102/77 94/101/77
f 91/174/63 36/173/63 34/172/63
f 36/173/63 91/174/63 68/175/63
f 86/178/67 40/177/57 74/176/57
f 40/177/57 86/178/67 42/179/67
f 42/179/67 86/178/67 87/180/68
f 42/179/67 87/180/68 78/181/68
f 98/90/84 97/91/81 96/92/81
f 97/91/81 98/90/84 100/89/84
f 32/183/71 91/119/73 34/182/85
f 91/119/73 32/183/71 92/118/74
f 92/118/74 32/183/71 90/116/71
f 80/184/70 42/134/67 78/135/68
f 42/134/67 80/184/70 41/133/69
f 87/187/55 77/186/55 78/185/55
f 77/186/55 87/187/55 89/188/55
f 100/130/86 84/131/64 83/132/64
f 84/131/64 100/130/86 98/129/86
f 51/191/27 64/190/27 53/189/27
f 64/190/27 51/191/27 49/192/27
f 64/190/27 49/192/27 57/193/27
f 57/193/27 49/192/27 4/194/27
f 57/193/27 4/194/27 59/195/27
f 59/195/27 4/194/27 43/196/27
f 59/195/27 43/196/27 93/40/27
f 93/40/27 43/196/27 70/42/27
f 70/42/27 43/196/27 69/43/27
f 69/43/27 43/196/27 24/197/27
f 69/43/27 24/197/27 90/45/27
f 90/45/27 24/197/27 92/47/27
f 92/47/27 24/197/27 45/198/27
f 92/47/27 45/198/27 65/136/27
f 65/136/27 45/198/27 46/199/27
f 65/136/27 46/199/27 67/49/27
f 67/49/27 46/199/27 85/50/27
f 85/50/27 46/199/27 18/200/27
f 85/50/27 18/200/27 73/51/27
f 73/51/27 18/200/27 74/53/27
f 74/53/27 18/200/27 8/201/27
f 74/53/27 8/201/27 86/55/27
f 11/202/27 86/55/27 8/201/27
f 11/202/27 88/54/27 86/55/27
f 12/203/27 88/54/27 11/202/27
f 12/203/27 75/52/27 88/54/27
f 12/203/27 76/48/27 75/52/27
f 3/204/27 76/48/27 12/203/27
f 3/204/27 83/169/27 76/48/27
f 48/205/27 83/169/27 3/204/27
f 48/205/27 100/168/27 83/169/27
f 48/205/27 97/167/27 100/168/27
f 56/206/27 97/167/27 48/205/27
f 56/206/27 95/46/27 97/167/27
f 56/206/27 94/44/27 95/46/27
f 60/207/27 94/44/27 56/206/27
f 60/207/27 99/41/27 94/44/27
f 60/207/27 93/40/27 99/41/27
f 93/40/27 60/207/27 59/195/27
f 11/202/27 8/201/27 19/208/27
f 11/202/27 19/208/27 17/209/27
f 17/209/27 19/208/27 14/210/27
f 17/209/27 14/210/27 23/211/27
f 23/211/27 14/210/27 22/212/27
f 81/213/83 93/178/75 89/180/76
f 93/178/75 81/213/83 99/176/82
f 73/138/56 37/139/65 85/140/65
f 37/139/65 73/138/56 38/137/56
f 75/94/58 82/214/70 88/96/69
f 82/214/70 75/94/58 80/215/70
f 80/215/70 75/94/58 41/95/69
f 41/95/69 75/94/58 39/93/58
f 28/177/82 77/181/76 27/179/75
f 77/181/76 28/177/82 79/216/83

