# Created by Kenney (www.kenney.nl)

mtllib cliff_rock.mtl

g cliff_rock

v -0.3333333 0 -0.4
v -0.5 0 -0.3315
v -0.3333333 1 -0.4
v -0.5 1 -0.3315
v 0.3333333 0 -0.4
v 0.1666667 0 -0.3315
v 0.3333333 1 -0.4
v 0.1666667 1 -0.3315
v -1.645958E-13 0 -0.4
v -1.645958E-13 1 -0.4
v -0.5 0 -0.5
v 0.5 0 -0.5
v -0.5 1 -0.5
v 0.5 1 -0.5
v 0.5 0 -0.3315
v -0.1666667 0 -0.3315
v -0.1666667 1 -0.3315
v 0.5 1 -0.3315

vn 0.380145 0 0.9249269
vn -0.380145 0 0.9249269
vn 0 0 -1
vn 0 -1 0
vn -1 0 0
vn 0 1 0
vn 1 0 0

vt -6.151614 -6.971046E-15
vt -13.24588 -6.971046E-15
vt -6.151614 39.37008
vt -13.24588 39.37008
vt 18.12468 -6.971046E-15
vt 11.03041 -6.971046E-15
vt 18.12468 39.37008
vt 11.03041 39.37008
vt 1.107733 -6.979939E-15
vt -5.986535 1.254884E-16
vt 1.107733 39.37008
vt -5.986535 39.37008
vt 19.68504 -3.716686E-29
vt -19.68504 -3.716686E-29
vt 19.68504 39.37008
vt -19.68504 39.37008
vt 19.68504 -13.05118
vt 19.68504 -19.68504
vt 13.12336 -15.74803
vt -19.68504 -19.68504
vt -6.48015E-12 -15.74803
vt 6.56168 -13.05118
vt -6.56168 -13.05118
vt -13.12336 -15.74803
vt -19.68504 -13.05118
vt -1.107733 -7.019711E-15
vt -1.107733 39.37008
vt 5.986535 8.571577E-17
vt 5.986535 39.37008
vt 13.24588 -6.971046E-15
vt 6.151614 -6.971046E-15
vt 13.24588 39.37008
vt 6.151614 39.37008
vt -19.68504 0
vt -13.05118 -6.971046E-15
vt -13.05118 39.37008
vt 6.471809E-12 -15.74803
vt 19.68504 2.842171E-14
vt 13.05118 39.37008
vt 13.05118 2.145066E-14
vt -11.03041 -6.971046E-15
vt -18.12468 -6.971046E-15
vt -11.03041 39.37008
vt -18.12468 39.37008

usemtl dirt

f 3/3/1 2/2/1 1/1/1
f 2/2/1 3/3/1 4/4/1
f 7/7/1 6/6/1 5/5/1
f 6/6/1 7/7/1 8/8/1
f 8/11/2 9/10/2 6/9/2
f 9/10/2 8/11/2 10/12/2
f 13/15/3 12/14/3 11/13/3
f 12/14/3 13/15/3 14/16/3
f 5/19/4 12/18/4 15/17/4
f 12/18/4 5/19/4 11/20/4
f 11/20/4 5/19/4 9/21/4
f 9/21/4 5/19/4 6/22/4
f 11/20/4 9/21/4 16/23/4
f 11/20/4 16/23/4 1/24/4
f 11/20/4 1/24/4 2/25/4
f 9/28/1 17/27/1 16/26/1
f 17/27/1 9/28/1 10/29/1
f 18/32/2 5/31/2 15/30/2
f 5/31/2 18/32/2 7/33/2
f 2/35/5 13/16/5 11/34/5
f 13/16/5 2/35/5 4/36/5
f 14/20/6 7/24/6 18/25/6
f 7/24/6 14/20/6 13/18/6
f 7/24/6 13/18/6 10/37/6
f 7/24/6 10/37/6 8/23/6
f 10/37/6 13/18/6 17/22/6
f 17/22/6 13/18/6 3/19/6
f 3/19/6 13/18/6 4/17/6
f 18/39/7 12/38/7 14/15/7
f 12/38/7 18/39/7 15/40/7
f 17/43/2 1/42/2 16/41/2
f 1/42/2 17/43/2 3/44/2

