# Created by Kenney (www.kenney.nl)

mtllib cliff_diagonal_stone.mtl

g cliff_diagonal_stone

v 0.5 0 0.6685
v 0.5 0 0.5
v 0.3808525 0 0.6191475
v 0.3153641 0 0.5
v 0.2626227 0 0.404044
v -0.5 0 -0.5
v -0.07071068 0 0.07071068
v 0.04751917 0 0.2858142
v -0.2858142 0 -0.04751917
v -0.404044 0 -0.2626227
v -0.5 0 -0.3153641
v -0.6191475 0 -0.3808525
v -0.6685 0 -0.5
v -0.5 1 -0.5
v 0.5 1 0.5
v -0.07071068 1 0.07071068
v 0.04751917 1 0.2858142
v -0.404044 1 -0.2626227
v -0.6191475 1 -0.3808525
v -0.2858142 1 -0.04751917
v 0.2626227 1 0.404044
v 0.5 1 0.6685
v 0.3808525 1 0.6191475
v -0.6685 1 -0.5

vn 0 -1 0
vn 0.7071068 0 -0.7071068
vn -0.8763484 0 0.4816777
vn -0.4816777 0 0.8763484
vn -0.3826834 0 0.9238795
vn 0 1 0
vn 1 0 0
vn 0 0 -1
vn -0.9238795 0 0.3826834

vt 19.68504 26.3189
vt 19.68504 19.68504
vt 14.99419 24.37589
vt 12.41591 19.68504
vt 10.33947 15.90724
vt -19.68504 -19.68504
vt -2.783885 2.783885
vt 1.870834 11.25253
vt -11.25253 -1.870834
vt -15.90724 -10.33947
vt -19.68504 -12.41591
vt -24.37589 -14.99419
vt -26.3189 -19.68504
vt 27.83885 -8.065056E-16
vt -27.83885 -8.065056E-16
vt 27.83885 39.37008
vt -27.83885 39.37008
vt 1.098718 1.757539E-14
vt 1.098718 39.37008
vt 10.76227 1.057496E-14
vt 10.76227 39.37008
vt -23.23142 1.139137E-14
vt -28.58414 2.927348E-14
vt -18.92058 2.143321E-14
vt -18.92058 39.37008
vt -28.58414 39.37008
vt -1.098718 1.894661E-14
vt -10.76227 1.968144E-14
vt -1.098718 39.37008
vt -10.76227 39.37008
vt 16.72315 9.458786E-15
vt 7.059593 1.729905E-14
vt 16.72315 39.37008
vt 7.059593 39.37008
vt 28.25841 6.70106E-15
vt 23.18108 7.599613E-15
vt 28.25841 39.37008
vt 23.18108 39.37008
vt -16.72315 2.878494E-14
vt -16.72315 39.37008
vt -7.059593 2.178452E-14
vt -7.059593 39.37008
vt 18.92058 -1.4665E-15
vt 18.92058 39.37008
vt 23.23142 -3.530531E-15
vt 28.58414 39.37008
vt 28.58414 -8.466929E-15
vt -19.68504 26.3189
vt -14.99419 24.37589
vt -19.68504 19.68504
vt -10.33947 15.90724
vt 19.68504 -19.68504
vt 2.783885 2.783885
vt -1.870834 11.25253
vt 11.25253 -1.870834
vt 15.90724 -10.33947
vt 24.37589 -14.99419
vt 26.3189 -19.68504
vt -19.68504 -1.501736E-14
vt -26.3189 -2.191112E-14
vt -19.68504 39.37008
vt -26.3189 39.37008
vt 26.3189 9.267427E-14
vt 19.68504 1.270912E-13
vt 26.3189 39.37008
vt 19.68504 39.37008
vt -28.25841 39.37008
vt -23.18108 39.37008
vt -28.25841 4.538964E-14
vt -23.18108 1.11228E-13

usemtl stone

f 3/3/1 2/2/1 1/1/1
f 2/2/1 3/3/1 4/4/1
f 2/2/1 4/4/1 5/5/1
f 2/2/1 5/5/1 6/6/1
f 6/6/1 5/5/1 7/7/1
f 7/7/1 5/5/1 8/8/1
f 6/6/1 7/7/1 9/9/1
f 6/6/1 9/9/1 10/10/1
f 6/6/1 10/10/1 11/11/1
f 6/6/1 11/11/1 12/12/1
f 6/6/1 12/12/1 13/13/1
f 14/16/2 2/15/2 6/14/2
f 2/15/2 14/16/2 15/17/2
f 8/20/3 16/19/3 7/18/3
f 16/19/3 8/20/3 17/21/3
f 10/24/4 12/23/4 11/22/4
f 12/23/4 10/24/4 18/25/4
f 12/23/4 18/25/4 19/26/4
f 16/29/4 9/28/4 7/27/4
f 9/28/4 16/29/4 20/30/4
f 21/33/4 8/32/4 5/31/4
f 8/32/4 21/33/4 17/34/4
f 22/37/5 3/36/5 1/35/5
f 3/36/5 22/37/5 23/38/5
f 9/41/3 18/40/3 10/39/3
f 18/40/3 9/41/3 20/42/3
f 4/45/3 21/44/3 5/43/3
f 21/44/3 4/45/3 23/46/3
f 23/46/3 4/45/3 3/47/3
f 15/50/6 23/49/6 22/48/6
f 23/49/6 15/50/6 21/51/6
f 21/51/6 15/50/6 14/52/6
f 21/51/6 14/52/6 16/53/6
f 21/51/6 16/53/6 17/54/6
f 16/53/6 14/52/6 20/55/6
f 20/55/6 14/52/6 18/56/6
f 18/56/6 14/52/6 19/57/6
f 19/57/6 14/52/6 24/58/6
f 15/61/7 1/60/7 2/59/7
f 1/60/7 15/61/7 22/62/7
f 24/65/8 6/64/8 13/63/8
f 6/64/8 24/65/8 14/66/8
f 13/69/9 19/68/9 24/67/9
f 19/68/9 13/69/9 12/70/9

