# Created by Kenney (www.kenney.nl)

mtllib cliff_blockQuarter_stone.mtl

g cliff_blockQuarter_stone

v 0.5 0.25 -0.5
v 0.5 0.25 0.5
v -0.5 0.25 -0.5
v -0.5 0.25 0.5
v 0.5 0 -0.5
v 0.5 0 0.5
v -0.5 0 0.5
v -0.5 0 -0.5

vn 0 1 0
vn 1 0 0
vn 0 0 1
vn 0 0 -1
vn -1 0 0
vn 0 -1 0

vt -19.68504 -19.68504
vt -19.68504 19.68504
vt 19.68504 -19.68504
vt 19.68504 19.68504
vt 19.68504 9.84252
vt 19.68504 0
vt -19.68504 9.84252
vt -19.68504 0

usemtl grass

f 3/3/1 2/2/1 1/1/1
f 2/2/1 3/3/1 4/4/1

usemtl stone

f 2/7/2 5/6/2 1/5/2
f 5/6/2 2/7/2 6/8/2
f 2/5/3 7/8/3 6/6/3
f 7/8/3 2/5/3 4/7/3
f 3/5/4 5/8/4 8/6/4
f 5/8/4 3/5/4 1/7/4
f 7/6/5 3/7/5 8/8/5
f 3/7/5 7/6/5 4/5/5
f 7/2/6 5/3/6 6/4/6
f 5/3/6 7/2/6 8/1/6

