# Created by Kenney (www.kenney.nl)

mtllib cliff_cornerInner_rock.mtl

g cliff_cornerInner_rock

v 0.3315 0 -0.1666667
v 0.3315 1 -0.1666667
v 0.4 0 -1.788145E-08
v 0.4 1 -1.788145E-08
v -0.5 0 -0.4999999
v 0.4999999 0 -0.5
v -0.5 1 -0.5
v 0.4999999 1 -0.5
v 0.3315 0 0.1666667
v 0.3315 1 0.1666667
v 0.3315 0 0.5
v 0.3315 1 0.5
v 0.5 0 0.4999999
v 0.5 1 0.4999999
v 0.4 0 0.3333333
v 0.4 1 0.3333333
v 0.4 0 -0.3333333
v 0.4 1 -0.3333333
v 0.3333333 0 -0.4
v -5.960485E-09 0 -0.4
v 0.1666667 0 -0.3315
v -0.1666667 0 -0.3315
v -0.3333333 0 -0.4
v -0.5 0 -0.3315
v 0.3333333 1 -0.4
v 0.1666667 1 -0.3315
v -0.3333333 1 -0.4
v -0.5 1 -0.3315
v -5.960485E-09 1 -0.4
v -0.1666667 1 -0.3315

vn -0.9249269 0 0.380145
vn 0 0 -1
vn -0.9249269 0 -0.3801449
vn 0 0 1
vn 0 -1 0
vn -0.7071067 0 0.7071068
vn 0.380145 0 0.9249269
vn -0.380145 0 0.9249269
vn 1 0 0
vn 0 1 0
vn -1 0 0

vt -1.107733 6.92238E-15
vt -1.107733 39.37008
vt 5.986535 1.402781E-14
vt 5.986535 39.37008
vt 19.68504 9.777689E-08
vt -19.68504 9.777689E-08
vt 19.68504 39.37008
vt -19.68504 39.37008
vt -5.986535 1.406758E-14
vt -5.986535 39.37008
vt 1.107733 6.962153E-15
vt 1.107733 39.37008
vt 13.05118 3.539276E-14
vt 13.05118 39.37008
vt 19.68504 4.23638E-14
vt 6.151614 6.971046E-15
vt 6.151614 39.37008
vt 13.24588 6.971046E-15
vt 13.24588 39.37008
vt -18.12468 6.971046E-15
vt -18.12468 39.37008
vt -11.03041 6.971046E-15
vt -11.03041 39.37008
vt 19.68504 -19.68504
vt 15.74803 13.12336
vt 19.68504 19.68504
vt 13.05118 19.68504
vt 15.74803 -7.039939E-07
vt 13.05118 6.561679
vt 15.74803 -13.12336
vt 13.05118 -6.56168
vt 13.12336 -15.74803
vt -19.68504 -19.68504
vt -2.346648E-07 -15.74803
vt 6.561679 -13.05118
vt -6.56168 -13.05118
vt -13.12336 -15.74803
vt -19.68504 -13.05118
vt -1.855923 -2.958267E-24
vt -1.855923 39.37008
vt 1.855923 6.971046E-15
vt 1.855923 39.37008
vt 18.12468 0
vt 11.03041 0
vt 18.12468 39.37008
vt 11.03041 39.37008
vt -6.151614 0
vt -13.24588 0
vt -6.151614 39.37008
vt -13.24588 39.37008
vt 1.107733 -8.893265E-18
vt -5.986535 7.096534E-15
vt 19.68504 1.394209E-14
vt -19.68504 1.394209E-14
vt -1.107733 -4.866592E-17
vt 5.986535 7.056762E-15
vt 11.03041 6.971046E-15
vt 18.12468 6.971046E-15
vt -13.05118 19.68504
vt -15.74803 13.12336
vt -19.68504 19.68504
vt -19.68504 -19.68504
vt -15.74803 -7.039939E-07
vt -15.74803 -13.12336
vt 19.68504 -19.68504
vt 2.346647E-07 -15.74803
vt -6.561679 -13.05118
vt 6.56168 -13.05118
vt 19.68504 -13.05118
vt -13.05118 -6.56168
vt -13.05118 6.561679
vt -11.03041 0
vt -18.12468 0
vt -13.05118 39.37008
vt -19.68504 -1.466653E-07
vt -13.05118 -1.466653E-07

usemtl dirt

f 3/3/1 2/2/1 1/1/1
f 2/2/1 3/3/1 4/4/1
f 7/7/2 6/6/2 5/5/2
f 6/6/2 7/7/2 8/8/2
f 9/11/3 4/10/3 3/9/3
f 4/10/3 9/11/3 10/12/3
f 13/15/4 12/14/4 11/13/4
f 12/14/4 13/15/4 14/7/4
f 11/18/3 16/17/3 15/16/3
f 16/17/3 11/18/3 12/19/3
f 1/22/3 18/21/3 17/20/3
f 18/21/3 1/22/3 2/23/3
f 13/26/5 15/25/5 6/24/5
f 15/25/5 13/26/5 11/27/5
f 3/28/5 6/24/5 15/25/5
f 9/29/5 3/28/5 15/25/5
f 17/30/5 6/24/5 3/28/5
f 1/31/5 17/30/5 3/28/5
f 19/32/5 6/24/5 17/30/5
f 6/24/5 19/32/5 5/33/5
f 5/33/5 19/32/5 20/34/5
f 20/34/5 19/32/5 21/35/5
f 5/33/5 20/34/5 22/36/5
f 5/33/5 22/36/5 23/37/5
f 5/33/5 23/37/5 24/38/5
f 17/41/6 25/40/6 19/39/6
f 25/40/6 17/41/6 18/42/6
f 25/45/7 21/44/7 19/43/7
f 21/44/7 25/45/7 26/46/7
f 27/49/7 24/48/7 23/47/7
f 24/48/7 27/49/7 28/50/7
f 26/12/8 20/52/8 21/51/8
f 20/52/8 26/12/8 29/10/8
f 14/8/9 6/53/9 8/7/9
f 6/53/9 14/8/9 13/54/9
f 20/56/7 30/2/7 22/55/7
f 30/2/7 20/56/7 29/4/7
f 15/58/1 10/46/1 9/57/1
f 10/46/1 15/58/1 16/45/1
f 14/61/10 16/60/10 12/59/10
f 16/60/10 14/61/10 8/62/10
f 8/62/10 4/63/10 16/60/10
f 4/63/10 8/62/10 18/64/10
f 18/64/10 8/62/10 25/37/10
f 25/37/10 8/62/10 7/65/10
f 25/37/10 7/65/10 29/66/10
f 25/37/10 29/66/10 26/67/10
f 29/66/10 7/65/10 30/68/10
f 30/68/10 7/65/10 27/32/10
f 27/32/10 7/65/10 28/69/10
f 2/70/10 4/63/10 18/64/10
f 10/71/10 16/60/10 4/63/10
f 30/23/8 23/73/8 22/72/8
f 23/73/8 30/23/8 27/21/8
f 5/75/11 28/74/11 7/8/11
f 28/74/11 5/75/11 24/76/11

