# Created by Kenney (www.kenney.nl)

mtllib cliff_cave_rock.mtl

g cliff_cave_rock

v -0.5 0 -0.5
v -0.5 1 -0.5
v -0.5 0 -0.3315
v -0.5 1 -0.3315
v 0.2744485 0.487419 -0.3757983
v 0.2744485 0.487419 -0.5
v 0.1666667 0.487419 -0.3315
v 0.1665299 0.487419 -0.5
v 0.1665299 0.487419 -0.3315562
v 0.06617067 0.7979775 -0.3728038
v 0.06617067 0.7979775 -0.5
v -1.155058E-14 0.7979775 -0.4
v -0.1586595 0.7979775 -0.5
v -0.1586595 0.7979775 -0.3347909
v -1.155058E-14 1 -0.4
v -0.1666667 1 -0.3315
v -0.1666667 0.762818 -0.3315
v -0.2425525 0.4296055 -0.3626891
v -0.3144982 0.4296055 -0.3922588
v -0.3333333 1 -0.4
v -0.3333333 0.334968 -0.4
v 0.1666667 1 -0.3315
v 0.5 1 -0.5
v 0.5 0 -0.5
v 0.5 1 -0.3315
v 0.5 0 -0.3315
v 0.4 0 -0.3726
v 0.3333333 0.2588148 -0.4
v 0.3333333 1 -0.4
v -0.2425525 0.4296055 -0.5
v -0.3144982 0.4296055 -0.5
v -0.4 0 -0.3726
v -0.4 0 -0.5
v 0.4 0 -0.5

vn -1 0 0
vn 0 -1 0
vn 0.380145 0 0.9249269
vn -0.380145 0 0.9249269
vn 1 0 0
vn 0.9750343 -0.2220543 0
vn -0.9515482 -0.3074997 0
vn -0.9683897 -0.2494421 0
vn 0 1 0
vn 0 0 -1
vn 0.9807643 -0.1951956 0

vt -19.68504 6.971046E-15
vt -19.68504 39.37008
vt -13.05118 0
vt -13.05118 39.37008
vt 10.80506 -14.79521
vt 10.80506 -19.68504
vt 6.56168 -13.05118
vt 6.556295 -19.68504
vt 6.556295 -13.05339
vt 2.605145 -14.67732
vt 2.605145 -19.68504
vt -4.713876E-13 -15.74803
vt -6.246436 -19.68504
vt -6.246436 -13.18075
vt 5.986535 31.41644
vt -0.7669019 31.41644
vt 5.986535 39.37008
vt -1.107733 39.37008
vt -1.107733 30.03221
vt -14.26054 16.9136
vt -17.32295 16.9136
vt -11.03041 30.03221
vt -18.12468 39.37008
vt -18.12468 13.18772
vt -11.03041 39.37008
vt 1.107733 19.18972
vt 1.101912 19.18972
vt 1.107733 39.37008
vt -3.16994 31.41644
vt -5.986535 39.37008
vt -5.986535 31.41644
vt 19.68504 39.37008
vt 19.68504 3.539276E-14
vt 13.05118 39.37008
vt 13.05118 2.842171E-14
vt 13.24588 -9.115502E-16
vt 8.989321 2.573973E-15
vt 13.24588 39.37008
vt 6.151614 10.18956
vt 6.151614 39.37008
vt -9.549311 -14.2791
vt -9.549311 -19.68504
vt -12.38182 -15.44326
vt -12.38182 -19.68504
vt -15.74803 -14.66929
vt -15.74803 -19.68504
vt -19.68504 -13.05118
vt -19.68504 -19.68504
vt 19.68504 -13.05118
vt 19.68504 -19.68504
vt 15.74803 -14.66929
vt 15.74803 -19.68504
vt 19.68504 29.24506
vt 19.68504 14.37088
vt 13.18075 29.24506
vt 14.2791 14.37088
vt 13.05118 27.82538
vt -13.24588 -4.248201E-16
vt -13.24588 39.37008
vt -8.989321 3.060703E-15
vt -6.151614 13.18772
vt -6.151614 39.37008
vt 18.12468 10.18956
vt 15.61821 19.18972
vt 18.12468 39.37008
vt 11.03041 19.18972
vt 11.03041 39.37008
vt -19.68504 16.24389
vt -19.68504 29.09317
vt -13.05339 16.24389
vt -14.67732 29.09317
vt -19.68504 -3.928222
vt -19.68504 15.88789
vt -14.66929 -3.928222
vt -15.74803 6.593946
vt -14.79521 15.88789
vt -13.12336 -15.74803
vt 4.464062E-13 -15.74803
vt -6.56168 -13.05118
vt 13.12336 -15.74803
vt 19.68504 6.971046E-15
vt 15.74803 6.971046E-15
vt 12.38182 16.9136
vt 6.246436 31.41644
vt -2.605145 31.41644
vt -6.556295 19.18972
vt -10.80506 19.18972
vt -15.74803 6.971046E-15
vt 9.549311 16.9136
vt 19.68504 14.17138
vt 19.68504 -3.073947
vt 15.44326 14.17138
vt 15.74803 10.37242
vt 14.66929 -3.073947

usemtl dirt

f 3/3/1 2/2/1 1/1/1
f 2/2/1 3/3/1 4/4/1
f 7/7/2 6/6/2 5/5/2
f 6/6/2 7/7/2 8/8/2
f 8/8/2 7/7/2 9/9/2
f 12/12/2 11/11/2 10/10/2
f 11/11/2 12/12/2 13/13/2
f 13/13/2 12/12/2 14/14/2
f 15/17/3 14/16/3 12/15/3
f 14/16/3 15/17/3 16/18/3
f 16/18/3 17/19/3 14/16/3
f 17/22/4 19/21/4 18/20/4
f 20/23/4 19/21/4 17/22/4
f 19/21/4 20/23/4 21/24/4
f 20/23/4 17/22/4 16/25/4
f 22/28/4 9/27/4 7/26/4
f 9/27/4 22/28/4 10/29/4
f 15/30/4 10/29/4 22/28/4
f 10/29/4 15/30/4 12/31/4
f 25/34/5 24/33/5 23/32/5
f 24/33/5 25/34/5 26/35/5
f 25/38/4 27/37/4 26/36/4
f 27/37/4 25/38/4 28/39/4
f 28/39/4 25/38/4 29/40/4
f 19/43/2 30/42/2 18/41/2
f 30/42/2 19/43/2 31/44/2
f 3/47/2 33/46/2 32/45/2
f 33/46/2 3/47/2 1/48/2
f 27/51/2 24/50/2 26/49/2
f 24/50/2 27/51/2 34/52/2
f 14/55/6 30/54/6 13/53/6
f 30/54/6 14/55/6 18/56/6
f 18/56/6 14/55/6 17/57/6
f 32/60/3 4/59/3 3/58/3
f 4/59/3 32/60/3 21/61/3
f 4/59/3 21/61/3 20/62/3
f 29/65/3 5/64/3 28/63/3
f 5/64/3 29/65/3 7/66/3
f 7/66/3 29/65/3 22/67/3
f 9/70/7 11/69/7 8/68/7
f 11/69/7 9/70/7 10/71/7
f 27/74/8 6/73/8 34/72/8
f 6/73/8 27/74/8 28/75/8
f 5/76/8 6/73/8 28/75/8
f 23/48/9 29/77/9 25/47/9
f 29/77/9 23/48/9 2/50/9
f 29/77/9 2/50/9 15/78/9
f 29/77/9 15/78/9 22/79/9
f 15/78/9 2/50/9 16/7/9
f 16/7/9 2/50/9 20/80/9
f 20/80/9 2/50/9 4/49/9
f 2/32/10 33/82/10 1/81/10
f 33/82/10 2/32/10 31/83/10
f 31/83/10 2/32/10 13/84/10
f 23/2/10 13/84/10 2/32/10
f 23/2/10 11/85/10 13/84/10
f 23/2/10 8/86/10 11/85/10
f 23/2/10 6/87/10 8/86/10
f 24/1/10 6/87/10 23/2/10
f 6/87/10 24/1/10 34/88/10
f 13/84/10 30/89/10 31/83/10
f 19/92/11 33/91/11 31/90/11
f 33/91/11 19/92/11 21/93/11
f 32/94/11 33/91/11 21/93/11

