# Created by Kenney (www.kenney.nl)

mtllib cliff_cornerInnerTop_rock.mtl

g cliff_cornerInnerTop_rock

v -0.1666667 0 -0.3315
v -0.3333333 0 -0.4
v -0.1666667 1 -0.3315
v -0.3333333 1 -0.4
v 5.775292E-14 0 -0.4
v 5.775292E-14 1 -0.4
v -0.5 0 -0.5
v 0.5 0 -0.5
v -0.5 1 -0.5
v 0.5 1 -0.5
v 0.3333333 0 -0.4
v 0.3333333 1 -0.4
v 0.4 0 -0.3333333
v 0.4 1 -0.3333333
v 0.3315 0 0.1666667
v 0.3315 1 0.1666667
v 0.4 0 0.3333333
v 0.4 1 0.3333333
v 0.3315 0 -0.1666667
v 0.3315 1 -0.1666667
v 0.4 0 -1.19209E-08
v 0.4 1 -1.19209E-08
v 0.5 1 0.5
v 0.5 0 0.5
v -0.5 1 -0.3315
v -0.5 0 -0.3315
v 0.1666667 0 -0.3315
v 0.1666667 1 -0.3315
v 0.3315 0 0.5
v 0.3315 1 0.5
v 0.3 0.9 0.3333333
v 0.2315 0.9 0.5
v 0.2767403 0.9 -0.2767403
v 0.1666667 0.9 -0.2315
v 0.2315 0.9 -0.1666667
v 0.3 0.9 -9.879447E-09
v 0.2315 0.9 0.1666667
v 0.248625 0.9 0.2083333
v 0.29075 0.925 0.25
v 0.282875 0.9 0.2916667
v 0.08333334 0.9499999 -0.31575
v 0.125 0.9 -0.248625
v 0.04166667 0.9 -0.282875
v 4.620233E-14 0.9 -0.3
v 0.31575 0.9499999 0.08333332
v 0.282875 0.9 0.04166666
v 0.248625 0.9 0.125
v -0.1666667 0.9 -0.2315
v -0.3333333 0.9 -0.3
v -0.5 0.9 -0.2315
v -0.25 0.9499999 -0.31575
v -0.2083333 0.9 -0.248625
v -0.2916667 0.9 -0.282875

vn -0.380145 0 0.9249269
vn 0.380145 0 0.9249269
vn 0 0 -1
vn -0.7071068 0 0.7071068
vn -0.9249269 0 0.380145
vn -0.9249269 0 -0.3801449
vn 1 0 0
vn -1 0 0
vn 0 -1 0
vn 0 0 1
vn -0.6790131 0.6790131 -0.2790744
vn 0.2790744 0.6790131 0.6790131
vn -0.437073 0.7860881 0.437073
vn -0.6790131 0.679013 0.2790744
vn -0.6790131 0.679013 0.2790744
vn -0.2790744 0.6790131 0.6790131
vn -0.6790131 0.679013 -0.2790744
vn 0 1 0

vt -11.03041 0
vt -18.12468 0
vt -11.03041 39.37008
vt -18.12468 39.37008
vt -1.107733 -4.866592E-17
vt -1.107733 39.37008
vt 5.986535 7.056762E-15
vt 5.986535 39.37008
vt 19.68504 9.777689E-08
vt -19.68504 9.777689E-08
vt 19.68504 39.37008
vt -19.68504 39.37008
vt -1.855923 -2.958267E-24
vt -1.855923 39.37008
vt 1.855923 6.971046E-15
vt 1.855923 39.37008
vt 11.03041 6.971046E-15
vt 11.03041 39.37008
vt 18.12468 6.971046E-15
vt 18.12468 39.37008
vt -1.107733 6.942266E-15
vt 5.986535 1.404769E-14
vt -5.986535 1.411835E-14
vt -5.986535 39.37008
vt 1.107733 7.012918E-15
vt 1.107733 39.37008
vt -18.12468 6.971046E-15
vt -11.03041 6.971046E-15
vt 19.68504 1.394209E-14
vt -19.68504 1.394209E-14
vt -13.05118 39.37008
vt -19.68504 -1.466653E-07
vt -13.05118 -1.466653E-07
vt -6.151614 0
vt -13.24588 0
vt -6.151614 39.37008
vt -13.24588 39.37008
vt 1.107733 -8.893265E-18
vt -5.986535 7.096534E-15
vt 19.68504 -19.68504
vt 15.74803 13.12336
vt 19.68504 19.68504
vt 13.05118 19.68504
vt 15.74803 -4.693269E-07
vt 13.05118 6.561679
vt 15.74803 -13.12336
vt 13.05118 -6.56168
vt 13.12336 -15.74803
vt -19.68504 -19.68504
vt 2.273737E-12 -15.74803
vt 6.56168 -13.05118
vt -6.56168 -13.05118
vt -13.12336 -15.74803
vt -19.68504 -13.05118
vt 13.05118 3.539276E-14
vt 13.05118 39.37008
vt 19.68504 4.23638E-14
vt 18.12468 0
vt 11.03041 0
vt 6.151614 6.971046E-15
vt 6.151614 39.37008
vt 13.24588 6.971046E-15
vt 13.24588 39.37008
vt 6.151613 42.1804
vt 13.24588 42.1804
vt 7.648247 36.81756
vt 14.74252 36.81756
vt 14.21913 30.04266
vt 9.533781 30.04266
vt 18.12468 35.40551
vt 11.03041 35.40551
vt -1.855923 40.38333
vt 1.855923 40.38333
vt 4.434847E-07 34.01394
vt -1.107734 38.79296
vt 5.986535 38.79296
vt -2.604367 33.43011
vt 4.489901 33.43011
vt 9.533781 30.04267
vt 11.30735 30.04267
vt 13.45507 31.38338
vt 14.85448 30.04267
vt 16.62805 30.04267
vt 2.604367 33.43011
vt -1.691084 36.11153
vt 1.107733 38.79296
vt -5.986535 38.79296
vt 0.8308001 33.43011
vt -2.716334 33.43011
vt -4.489901 33.43011
vt 1.107733 38.79296
vt -1.691084 36.11154
vt -4.489902 33.43011
vt -2.716335 33.43011
vt 0.8307997 33.43011
vt 2.604367 33.43011
vt -18.12468 35.40551
vt -11.03042 35.40551
vt -14.21913 30.04267
vt -9.533782 30.04267
vt -1.107733 38.79296
vt 5.986535 38.79296
vt -7.648247 36.81756
vt -14.74252 36.81756
vt -6.151614 42.1804
vt -13.24588 42.1804
vt -13.05118 19.68504
vt -15.74803 13.12336
vt -19.68504 19.68504
vt -15.74803 -4.693269E-07
vt -15.74803 -13.12336
vt -2.283368E-12 -15.74803
vt 19.68504 -13.05118
vt -13.05118 -6.56168
vt -13.05118 6.561679
vt -9.533781 30.04266
vt -13.82923 32.72409
vt -11.03041 35.40551
vt -11.30735 30.04266
vt -14.85448 30.04266
vt -16.62805 30.04266

usemtl dirt

f 3/3/1 2/2/1 1/1/1
f 2/2/1 3/3/1 4/4/1
f 5/7/2 3/6/2 1/5/2
f 3/6/2 5/7/2 6/8/2
f 9/11/3 8/10/3 7/9/3
f 8/10/3 9/11/3 10/12/3
f 13/15/4 12/14/4 11/13/4
f 12/14/4 13/15/4 14/16/4
f 17/19/5 16/18/5 15/17/5
f 16/18/5 17/19/5 18/20/5
f 21/22/5 20/6/5 19/21/5
f 20/6/5 21/22/5 22/8/5
f 15/25/6 22/24/6 21/23/6
f 22/24/6 15/25/6 16/26/6
f 19/28/6 14/4/6 13/27/6
f 14/4/6 19/28/6 20/3/6
f 23/12/7 8/29/7 10/11/7
f 8/29/7 23/12/7 24/30/7
f 7/32/8 25/31/8 9/12/8
f 25/31/8 7/32/8 26/33/8
f 4/36/2 26/35/2 2/34/2
f 26/35/2 4/36/2 25/37/2
f 28/26/1 5/39/1 27/38/1
f 5/39/1 28/26/1 6/24/1
f 24/42/9 17/41/9 8/40/9
f 17/41/9 24/42/9 29/43/9
f 21/44/9 8/40/9 17/41/9
f 15/45/9 21/44/9 17/41/9
f 13/46/9 8/40/9 21/44/9
f 19/47/9 13/46/9 21/44/9
f 11/48/9 8/40/9 13/46/9
f 8/40/9 11/48/9 7/49/9
f 7/49/9 11/48/9 5/50/9
f 5/50/9 11/48/9 27/51/9
f 7/49/9 5/50/9 1/52/9
f 7/49/9 1/52/9 2/53/9
f 7/49/9 2/53/9 26/54/9
f 24/57/10 30/56/10 29/55/10
f 30/56/10 24/57/10 23/11/10
f 12/20/2 27/59/2 11/58/2
f 27/59/2 12/20/2 28/18/2
f 29/62/6 18/61/6 17/60/6
f 18/61/6 29/62/6 30/63/6

usemtl grass

f 31/66/11 30/65/11 18/64/11
f 30/65/11 31/66/11 32/67/11
f 12/70/12 34/69/12 33/68/12
f 34/69/12 12/70/12 28/71/12
f 33/74/13 14/73/13 12/72/13
f 35/77/14 22/76/14 20/75/14
f 22/76/14 35/77/14 36/78/14
f 37/79/15 18/70/15 16/71/15
f 18/70/15 37/79/15 38/80/15
f 18/70/15 38/80/15 39/81/15
f 18/70/15 39/81/15 40/82/15
f 18/70/15 40/82/15 31/83/15
f 28/86/16 41/85/16 34/84/16
f 41/85/16 28/86/16 6/87/16
f 34/84/16 41/85/16 42/88/16
f 41/85/16 6/87/16 43/89/16
f 43/89/16 6/87/16 44/90/16
f 22/87/17 45/92/17 16/91/17
f 45/92/17 22/87/17 36/93/17
f 45/92/17 36/93/17 46/94/17
f 16/91/17 45/92/17 47/95/17
f 16/91/17 47/95/17 37/96/17
f 33/99/17 20/98/17 14/97/17
f 20/98/17 33/99/17 35/100/17
f 44/78/12 3/101/12 48/77/12
f 3/101/12 44/78/12 6/102/12
f 4/105/12 50/104/12 49/103/12
f 50/104/12 4/105/12 25/106/12
f 23/109/18 18/108/18 30/107/18
f 18/108/18 23/109/18 10/49/18
f 10/49/18 22/110/18 18/108/18
f 22/110/18 10/49/18 14/111/18
f 14/111/18 10/49/18 12/53/18
f 12/53/18 10/49/18 9/40/18
f 12/53/18 9/40/18 6/112/18
f 12/53/18 6/112/18 28/52/18
f 6/112/18 9/40/18 3/51/18
f 3/51/18 9/40/18 4/48/18
f 4/48/18 9/40/18 25/113/18
f 20/114/18 22/110/18 14/111/18
f 16/115/18 18/108/18 22/110/18
f 3/118/16 51/117/16 48/116/16
f 51/117/16 3/118/16 4/97/16
f 48/116/16 51/117/16 52/119/16
f 51/117/16 4/97/16 53/120/16
f 53/120/16 4/97/16 49/121/16

