# Created by Kenney (www.kenney.nl)

mtllib cliff_top_rock.mtl

g cliff_top_rock

v 0.3333333 0.9 -0.3
v 0.2916667 0.9 -0.282875
v 0.3333333 1 -0.4
v 0.1666667 1 -0.3315
v 0.25 0.925 -0.29075
v 0.2083333 0.9 -0.248625
v 0.1666667 0.9 -0.2315
v 0.5 1 -0.3315
v 0.5 1 -0.5
v -0.5 1 -0.5
v -5.960234E-09 1 -0.4
v -0.1666667 1 -0.3315
v -0.3333333 1 -0.4
v -0.5 1 -0.3315
v -0.1666667 0.9 -0.2315
v -0.2083333 0.9 -0.248625
v -0.25 0.9499999 -0.31575
v -0.3333333 0.9 -0.3
v -0.2916667 0.9 -0.282875
v 0.125 0.9 -0.248625
v 0.08333333 0.9499999 -0.31575
v -4.470174E-09 0.9 -0.3
v 0.04166666 0.9 -0.282875
v 0.5 0.9 -0.2315
v -0.5 0.9 -0.2315
v 0.5 0 -0.5
v 0.5 0 -0.3315
v -0.1666667 0 -0.3315
v -0.3333333 0 -0.4
v 0.3333333 0 -0.4
v 0.1666667 0 -0.3315
v -5.960234E-09 0 -0.4
v -0.5 0 -0.5
v -0.5 0 -0.3315

vn 0.2790744 0.6790131 0.6790131
vn 0 1 0
vn -0.2790744 0.6790131 0.6790131
vn 1 0 0
vn -0.380145 0 0.9249269
vn 0.380145 0 0.9249269
vn 0 -1 0
vn 0 0 -1
vn -1 0 0

vt 16.62805 30.04266
vt 14.85448 30.04266
vt 18.12468 35.40551
vt 11.03041 35.40551
vt 13.45507 31.38338
vt 11.30735 30.04266
vt 9.533781 30.04266
vt -19.68504 -13.05118
vt -13.12336 -15.74803
vt -19.68504 -19.68504
vt 19.68504 -19.68504
vt 2.346548E-07 -15.74803
vt -6.561679 -13.05118
vt 6.56168 -13.05118
vt 13.12336 -15.74803
vt 19.68504 -13.05118
vt -9.533781 30.04266
vt -11.30735 30.04266
vt -11.03041 35.40551
vt -13.82923 32.72409
vt -18.12468 35.40551
vt -16.62805 30.04266
vt -14.85448 30.04266
vt 2.604367 33.43011
vt 0.8308001 33.43011
vt 1.107733 38.79296
vt -1.691084 36.11153
vt -5.986535 38.79296
vt -4.489901 33.43011
vt -2.716334 33.43011
vt 14.74252 36.81756
vt 7.648247 36.81756
vt 13.24588 42.1804
vt 6.151614 42.1804
vt -7.648247 36.81756
vt -14.74252 36.81756
vt -6.151614 42.1804
vt -13.24588 42.1804
vt 4.489901 33.43011
vt -2.604367 33.43011
vt 5.986535 38.79296
vt -1.107733 38.79296
vt 19.68504 39.37008
vt 19.68504 2.842171E-14
vt 13.05118 39.37008
vt 13.05118 2.145066E-14
vt -11.03041 -6.971046E-15
vt -18.12468 -6.971046E-15
vt -11.03041 39.37008
vt -18.12468 39.37008
vt 13.24588 -6.971046E-15
vt 6.151614 -6.971046E-15
vt 13.24588 39.37008
vt 6.151614 39.37008
vt 1.107733 -6.979939E-15
vt -5.986535 1.254884E-16
vt 1.107733 39.37008
vt -5.986535 39.37008
vt 18.12468 -6.971046E-15
vt 11.03041 -6.971046E-15
vt 18.12468 39.37008
vt 11.03041 39.37008
vt 19.68504 -13.05118
vt -2.346549E-07 -15.74803
vt 6.561679 -13.05118
vt -6.56168 -13.05118
vt -19.68504 -13.05118
vt -1.107733 -7.019711E-15
vt -1.107733 39.37008
vt 5.986535 8.571577E-17
vt 5.986535 39.37008
vt -6.151614 -6.971046E-15
vt -13.24588 -6.971046E-15
vt -6.151614 39.37008
vt -13.24588 39.37008
vt 19.68504 -3.716686E-29
vt -19.68504 -3.716686E-29
vt -19.68504 39.37008
vt -19.68504 0
vt -13.05118 -6.971046E-15
vt -13.05118 39.37008

usemtl grass

f 3/3/1 2/2/1 1/1/1
f 2/2/1 3/3/1 4/4/1
f 2/2/1 4/4/1 5/5/1
f 5/5/1 4/4/1 6/6/1
f 6/6/1 4/4/1 7/7/1
f 9/10/2 3/9/2 8/8/2
f 3/9/2 9/10/2 10/11/2
f 3/9/2 10/11/2 11/12/2
f 3/9/2 11/12/2 4/13/2
f 11/12/2 10/11/2 12/14/2
f 12/14/2 10/11/2 13/15/2
f 13/15/2 10/11/2 14/16/2
f 12/19/3 16/18/3 15/17/3
f 16/18/3 12/19/3 17/20/3
f 13/21/3 17/20/3 12/19/3
f 18/22/3 17/20/3 13/21/3
f 17/20/3 18/22/3 19/23/3
f 4/26/3 20/25/3 7/24/3
f 20/25/3 4/26/3 21/27/3
f 11/28/3 21/27/3 4/26/3
f 22/29/3 21/27/3 11/28/3
f 21/27/3 22/29/3 23/30/3
f 8/33/3 1/32/3 24/31/3
f 1/32/3 8/33/3 3/34/3
f 13/37/1 25/36/1 18/35/1
f 25/36/1 13/37/1 14/38/1
f 11/41/1 15/40/1 22/39/1
f 15/40/1 11/41/1 12/42/1

usemtl dirt

f 8/45/4 26/44/4 9/43/4
f 26/44/4 8/45/4 27/46/4
f 12/49/5 29/48/5 28/47/5
f 29/48/5 12/49/5 13/50/5
f 8/53/5 30/52/5 27/51/5
f 30/52/5 8/53/5 3/54/5
f 4/57/5 32/56/5 31/55/5
f 32/56/5 4/57/5 11/58/5
f 3/61/6 31/60/6 30/59/6
f 31/60/6 3/61/6 4/62/6
f 30/15/7 26/11/7 27/63/7
f 26/11/7 30/15/7 33/10/7
f 33/10/7 30/15/7 32/64/7
f 32/64/7 30/15/7 31/65/7
f 33/10/7 32/64/7 28/66/7
f 33/10/7 28/66/7 29/9/7
f 33/10/7 29/9/7 34/67/7
f 32/70/6 12/69/6 28/68/6
f 12/69/6 32/70/6 11/71/6
f 13/74/6 34/73/6 29/72/6
f 34/73/6 13/74/6 14/75/6
f 10/43/8 26/77/8 33/76/8
f 26/77/8 10/43/8 9/78/8
f 34/80/9 10/78/9 33/79/9
f 10/78/9 34/80/9 14/81/9

