# Created by Kenney (www.kenney.nl)

mtllib cliff_blockDiagonal_rock.mtl

g cliff_blockDiagonal_rock

v 0.5 1 -0.5000001
v 0.5 1 0.4999999
v -0.5 1 -0.5000001
v 0.5 0 -0.5000001
v 0.5 0 0.4999999
v -0.5 0 -0.5000001

vn 0 1 0
vn 1 0 0
vn -0.7071068 0 0.7071068
vn 0 -1 0
vn 0 0 -1

vt -19.68504 -19.68504
vt -19.68504 19.68504
vt 19.68504 -19.68504
vt 19.68504 39.37008
vt 19.68504 0
vt -19.68503 39.37008
vt -19.68503 0
vt -27.83885 0
vt -27.83885 39.37008
vt 27.83885 0
vt 27.83885 39.37008
vt 19.68504 19.68504
vt 19.68504 0
vt -19.68504 0
vt 19.68504 39.37008
vt -19.68504 39.37008

usemtl grass

f 3/3/1 2/2/1 1/1/1

usemtl dirt

f 2/6/2 4/5/2 1/4/2
f 4/5/2 2/6/2 5/7/2
f 5/10/3 3/9/3 6/8/3
f 3/9/3 5/10/3 2/11/3
f 6/1/4 4/3/4 5/12/4
f 3/15/5 4/14/5 6/13/5
f 4/14/5 3/15/5 1/16/5

