# Created by Kenney (www.kenney.nl)

mtllib cliff_half_stone.mtl

g cliff_half_stone

v 0.1666667 0 -0.08149999
v 1.155058E-14 0 -0.15
v 0.1666667 0.5 -0.3315
v 2.310117E-14 0.5 -0.4
v -0.1666667 0 -0.08149999
v -0.3333333 0 -0.15
v -0.1666667 0.5 -0.3315
v -0.3333333 0.5 -0.4
v -0.5 0 -0.08149999
v -0.5 0.5 -0.3315
v -0.5 0 -0.5
v 0.5 0 -0.5
v -0.5 0.5 -0.5
v 0.5 0.5 -0.5
v 0.3333333 0 -0.15
v 0.3333333 0.5 -0.4
v 0.5 0.5 -0.3315
v 0.5 0 -0.08149999
v 0.5 0.4 -0.2315
v 0.3333333 0.4 -0.3
v 0.1666667 0.4 -0.2315
v 0.08333334 0.45 -0.31575
v 0.125 0.4 -0.248625
v 0.04166667 0.4 -0.282875
v 1.732587E-14 0.4 -0.3
v -0.1666667 0.4 -0.2315
v 0.2916667 0.4 -0.282875
v 0.25 0.425 -0.29075
v 0.2083333 0.4 -0.248625
v -0.25 0.45 -0.31575
v -0.2083333 0.4 -0.248625
v -0.2916667 0.4 -0.282875
v -0.3333333 0.4 -0.3
v -0.5 0.4 -0.2315

vn -0.3450346 0.4197502 0.8395003
vn 0.3450346 0.4197502 0.8395003
vn 0 0 -1
vn 1 0 0
vn -1 0 0
vn 0 -1 0
vn -0.2790744 0.6790131 0.6790131
vn 0.2790744 0.6790131 0.6790131
vn 0 1 0

vt 4.849318 2.292746
vt -2.244951 2.292746
vt 1.107733 23.98091
vt -5.986535 23.98091
vt -7.288831 0.1987046
vt -14.3831 0.1987046
vt -11.03041 21.88687
vt -18.12468 21.88687
vt -4.849318 2.292746
vt -1.107733 23.98091
vt 2.244951 2.292746
vt 5.986535 23.98091
vt -9.893198 4.386786
vt -16.98747 4.386786
vt -6.151614 26.07495
vt -13.24588 26.07495
vt 19.68504 0
vt -19.68504 0
vt 19.68504 19.68504
vt -19.68504 19.68504
vt 14.3831 0.1987046
vt 7.288831 0.1987046
vt 18.12468 21.88687
vt 11.03041 21.88687
vt 19.68504 1.075791E-13
vt 13.05118 19.68504
vt 3.208661 9.692092E-14
vt 16.98747 4.386786
vt 9.893198 4.386786
vt 13.24588 26.07495
vt 6.151614 26.07495
vt -3.208661 -1.065814E-14
vt -13.05118 19.68504
vt 19.68504 -19.68504
vt -19.68504 -19.68504
vt 19.68504 -3.208661
vt 13.12336 -5.905512
vt 6.56168 -3.208661
vt 4.547474E-13 -5.905512
vt -6.56168 -3.208661
vt -13.12336 -5.905512
vt -19.68504 -3.208661
vt 13.24588 27.7291
vt 14.74252 22.36625
vt 6.151614 27.7291
vt 7.648247 22.36625
vt 2.604367 18.97881
vt -1.691084 21.66023
vt 1.107733 24.34166
vt -5.986535 24.34166
vt 0.8308001 18.97881
vt -2.716334 18.97881
vt -4.489901 18.97881
vt -2.604367 18.97881
vt -1.107733 24.34166
vt 4.489901 18.97881
vt 5.986535 24.34166
vt 16.62805 15.59136
vt 14.85448 15.59136
vt 18.12468 20.95421
vt 13.45507 16.93207
vt 11.03041 20.95421
vt 9.533781 15.59136
vt 11.30735 15.59136
vt -19.68504 -13.05118
vt -13.12336 -15.74803
vt -9.136653E-13 -15.74803
vt -6.56168 -13.05118
vt 6.56168 -13.05118
vt 13.12336 -15.74803
vt 19.68504 -13.05118
vt -9.533781 15.59136
vt -13.82923 18.27279
vt -11.03041 20.95421
vt -18.12468 20.95421
vt -11.30735 15.59136
vt -14.85448 15.59136
vt -16.62805 15.59136
vt -7.648247 22.36625
vt -14.74252 22.36625
vt -6.151614 27.7291
vt -13.24588 27.7291

usemtl stone

f 3/3/1 2/2/1 1/1/1
f 2/2/1 3/3/1 4/4/1
f 7/7/1 6/6/1 5/5/1
f 6/6/1 7/7/1 8/8/1
f 2/11/2 7/10/2 5/9/2
f 7/10/2 2/11/2 4/12/2
f 8/15/2 9/14/2 6/13/2
f 9/14/2 8/15/2 10/16/2
f 13/19/3 12/18/3 11/17/3
f 12/18/3 13/19/3 14/20/3
f 16/23/2 1/22/2 15/21/2
f 1/22/2 16/23/2 3/24/2
f 17/26/4 12/25/4 14/19/4
f 12/25/4 17/26/4 18/27/4
f 17/30/1 15/29/1 18/28/1
f 15/29/1 17/30/1 16/31/1
f 9/32/5 13/20/5 11/18/5
f 13/20/5 9/32/5 10/33/5
f 18/36/6 11/35/6 12/34/6
f 11/35/6 18/36/6 15/37/6
f 11/35/6 15/37/6 1/38/6
f 11/35/6 1/38/6 2/39/6
f 11/35/6 2/39/6 5/40/6
f 11/35/6 5/40/6 6/41/6
f 11/35/6 6/41/6 9/42/6

usemtl grass

f 16/45/7 19/44/7 17/43/7
f 19/44/7 16/45/7 20/46/7
f 3/49/7 22/48/7 21/47/7
f 22/48/7 3/49/7 4/50/7
f 21/47/7 22/48/7 23/51/7
f 22/48/7 4/50/7 24/52/7
f 24/52/7 4/50/7 25/53/7
f 25/56/8 7/55/8 26/54/8
f 7/55/8 25/56/8 4/57/8
f 16/60/8 27/59/8 20/58/8
f 27/59/8 16/60/8 28/61/8
f 3/62/8 28/61/8 16/60/8
f 21/63/8 28/61/8 3/62/8
f 28/61/8 21/63/8 29/64/8
f 14/35/9 16/66/9 17/65/9
f 16/66/9 14/35/9 13/34/9
f 16/66/9 13/34/9 4/67/9
f 16/66/9 4/67/9 3/68/9
f 4/67/9 13/34/9 7/69/9
f 7/69/9 13/34/9 8/70/9
f 8/70/9 13/34/9 10/71/9
f 7/74/7 30/73/7 26/72/7
f 30/73/7 7/74/7 8/75/7
f 26/72/7 30/73/7 31/76/7
f 30/73/7 8/75/7 32/77/7
f 32/77/7 8/75/7 33/78/7
f 8/81/8 34/80/8 33/79/8
f 34/80/8 8/81/8 10/82/8

