# Created by Kenney (www.kenney.nl)

mtllib cliff_topDiagonal_rock.mtl

g cliff_topDiagonal_rock

v -0.6685 1 -0.5
v -0.6191475 1 -0.3808525
v -0.7685 0.9 -0.5
v -0.6898582 0.9 -0.3101418
v 0.04751917 1 0.2858142
v -0.0231915 0.9 0.3565249
v -0.07071068 1 0.07071068
v -0.1414214 0.9 0.1414214
v -0.404044 1 -0.2626227
v -0.4747547 0.9 -0.191912
v 0.2626227 1 0.404044
v 0.191912 0.9 0.4747547
v 0.1381361 0.9 0.4451972
v 0.1020379 0.925 0.3979621
v 0.03058437 0.9 0.3860823
v 0.3101418 0.9 0.6898582
v 0.3808525 1 0.6191475
v 0.5 0.9 0.7685
v 0.5 1 0.6685
v -0.2858142 1 -0.04751917
v -0.3565249 0.9 0.0231915
v -0.3802844 0.9499999 -0.1197156
v -0.4451972 0.9 -0.1381361
v -0.3860823 0.9 -0.03058437
v 0.5 1 0.5
v -0.5 1 -0.5
v 0.5 0 0.6685
v 0.5 0 0.5
v 0.3808525 0 0.6191475
v 0.2626227 0 0.404044
v -0.5 0 -0.5
v -0.07071068 0 0.07071068
v 0.04751917 0 0.2858142
v -0.2858142 0 -0.04751917
v -0.404044 0 -0.2626227
v -0.5 0 -0.3153641
v -0.6191475 0 -0.3808525
v -0.6685 0 -0.5
v 0.3153641 0 0.5

vn -0.6785984 0.6785984 0.2810847
vn -0.6321015 0.692633 0.3474294
vn -0.3474294 0.692633 0.6321015
vn -0.2810847 0.6785984 0.6785984
vn 0 1 0
vn 0 -1 0
vn 0 0 -1
vn -0.4816777 0 0.8763484
vn -0.8763484 0 0.4816777
vn 1 0 0
vn -0.3826834 0 0.9238795
vn -0.9238795 0 0.3826834
vn 0.7071068 0 -0.7071068

vt -28.25841 17.52922
vt -23.18108 17.52922
vt -29.76504 12.16917
vt -21.67445 12.16917
vt 10.76227 25.77869
vt 11.86099 20.32041
vt 1.098718 25.77869
vt 2.197436 20.32041
vt -18.92058 29.36612
vt -20.0193 23.90783
vt -28.58414 29.36612
vt -29.68286 23.90783
vt 16.72315 22.19127
vt 15.62443 16.73298
vt 7.059593 22.19127
vt 13.20854 16.73298
vt 11.06733 18.09755
vt 8.376763 16.73298
vt 5.960875 16.73298
vt 21.67445 12.16917
vt 23.18108 17.52922
vt 29.76504 12.16917
vt 28.25841 17.52922
vt -1.098718 25.77869
vt -2.197436 20.32041
vt -10.76227 25.77869
vt -11.86099 20.32041
vt 28.58414 29.36612
vt 29.68286 23.90783
vt 18.92058 29.36612
vt 20.0193 23.90783
vt -7.059593 22.19127
vt -5.960875 16.73298
vt -16.72315 22.19127
vt -11.34201 19.46212
vt -13.20854 16.73298
vt -15.62443 16.73298
vt -8.376763 16.73298
vt -19.68504 26.3189
vt -14.99419 24.37589
vt -19.68504 19.68504
vt -10.33947 15.90724
vt 19.68504 -19.68504
vt 2.783885 2.783885
vt -1.870834 11.25253
vt 11.25253 -1.870834
vt 15.90724 -10.33947
vt 24.37589 -14.99419
vt 26.3189 -19.68504
vt 19.68504 26.3189
vt 19.68504 19.68504
vt 14.99419 24.37589
vt 10.33947 15.90724
vt -19.68504 -19.68504
vt -2.783885 2.783885
vt 1.870834 11.25253
vt -11.25253 -1.870834
vt -15.90724 -10.33947
vt -19.68504 -12.41591
vt -24.37589 -14.99419
vt -26.3189 -19.68504
vt 12.41591 19.68504
vt 26.3189 9.348078E-14
vt 19.68504 1.278977E-13
vt 26.3189 39.37008
vt 19.68504 39.37008
vt -1.098718 1.956152E-14
vt -10.76227 2.029636E-14
vt -1.098718 39.37008
vt -10.76227 39.37008
vt 18.92058 -6.662511E-16
vt 18.92058 39.37008
vt 23.23142 -2.730281E-15
vt 28.58414 39.37008
vt 28.58414 -7.666679E-15
vt -23.23142 1.219787E-14
vt -28.58414 3.007998E-14
vt -18.92058 2.223972E-14
vt -18.92058 39.37008
vt -28.58414 39.37008
vt -16.72315 3.083684E-14
vt -16.72315 39.37008
vt -7.059593 2.383641E-14
vt -7.059593 39.37008
vt -19.68504 -1.421085E-14
vt -26.3189 -2.110461E-14
vt -19.68504 39.37008
vt -26.3189 39.37008
vt 1.098718 1.955851E-14
vt 1.098718 39.37008
vt 10.76227 1.255808E-14
vt 10.76227 39.37008
vt 16.72315 9.796663E-15
vt 7.059593 1.763693E-14
vt 16.72315 39.37008
vt 7.059593 39.37008
vt 28.25841 8.97073E-15
vt 23.18108 9.869283E-15
vt 28.25841 39.37008
vt 23.18108 39.37008
vt -28.25841 39.37008
vt -23.18108 39.37008
vt -28.25841 4.734434E-14
vt -23.18108 1.131827E-13
vt 27.83885 3.155444E-29
vt -27.83885 -3.155444E-29
vt 27.83885 39.37008
vt -27.83885 39.37008

usemtl grass

f 3/3/1 2/2/1 1/1/1
f 2/2/1 3/3/1 4/4/1
f 7/7/2 6/6/2 5/5/2
f 6/6/2 7/7/2 8/8/2
f 2/11/3 10/10/3 9/9/3
f 10/10/3 2/11/3 4/12/3
f 5/15/3 12/14/3 11/13/3
f 12/14/3 5/15/3 13/16/3
f 13/16/3 5/15/3 14/17/3
f 14/17/3 5/15/3 15/18/3
f 15/18/3 5/15/3 6/19/3
f 18/22/4 17/21/4 16/20/4
f 17/21/4 18/22/4 19/23/4
f 20/26/3 8/25/3 7/24/3
f 8/25/3 20/26/3 21/27/3
f 11/30/2 16/29/2 17/28/2
f 16/29/2 11/30/2 12/31/2
f 9/34/2 21/33/2 20/32/2
f 21/33/2 9/34/2 22/35/2
f 22/35/2 9/34/2 23/36/2
f 23/36/2 9/34/2 10/37/2
f 24/38/2 21/33/2 22/35/2
f 25/41/5 17/40/5 19/39/5
f 17/40/5 25/41/5 11/42/5
f 11/42/5 25/41/5 26/43/5
f 11/42/5 26/43/5 7/44/5
f 11/42/5 7/44/5 5/45/5
f 7/44/5 26/43/5 20/46/5
f 20/46/5 26/43/5 9/47/5
f 9/47/5 26/43/5 2/48/5
f 2/48/5 26/43/5 1/49/5

usemtl dirt

f 29/52/6 28/51/6 27/50/6
f 28/51/6 29/52/6 30/53/6
f 28/51/6 30/53/6 31/54/6
f 31/54/6 30/53/6 32/55/6
f 32/55/6 30/53/6 33/56/6
f 31/54/6 32/55/6 34/57/6
f 31/54/6 34/57/6 35/58/6
f 31/54/6 35/58/6 36/59/6
f 31/54/6 36/59/6 37/60/6
f 31/54/6 37/60/6 38/61/6
f 30/53/6 29/52/6 39/62/6
f 1/65/7 31/64/7 38/63/7
f 31/64/7 1/65/7 26/66/7
f 7/69/8 34/68/8 32/67/8
f 34/68/8 7/69/8 20/70/8
f 39/73/9 11/72/9 30/71/9
f 11/72/9 39/73/9 17/74/9
f 17/74/9 39/73/9 29/75/9
f 35/78/8 37/77/8 36/76/8
f 37/77/8 35/78/8 9/79/8
f 37/77/8 9/79/8 2/80/8
f 34/83/9 9/82/9 35/81/9
f 9/82/9 34/83/9 20/84/9
f 25/87/10 27/86/10 28/85/10
f 27/86/10 25/87/10 19/88/10
f 33/91/9 7/90/9 32/89/9
f 7/90/9 33/91/9 5/92/9
f 11/95/8 33/94/8 30/93/8
f 33/94/8 11/95/8 5/96/8
f 19/99/11 29/98/11 27/97/11
f 29/98/11 19/99/11 17/100/11
f 38/103/12 2/102/12 1/101/12
f 2/102/12 38/103/12 37/104/12
f 26/107/13 28/106/13 31/105/13
f 28/106/13 26/107/13 25/108/13

