# Created by Kenney (www.kenney.nl)

mtllib cliff_blockSlope_rock.mtl

g cliff_blockSlope_rock

v -0.4315 -3.72529E-09 -0.3333333
v -0.4315 0.8333333 -0.3333333
v -0.5 -3.72529E-09 -0.1666667
v -0.5 0.6666667 -0.1666667
v -0.4315 -3.72529E-09 -8.236344E-09
v -0.4315 0.5 -8.236344E-09
v 0.5 -3.72529E-09 -0.5
v 0.4315 -3.72529E-09 -0.3333333
v 0.4999999 1 -0.5
v 0.4315 0.8333333 -0.3333333
v 0.4315 0.1666667 0.3333333
v 0.4315 0 0.3333333
v 0.5 0 0.5
v -0.5 -3.72529E-09 -0.5
v -0.5000001 1 -0.5
v -0.5 0 0.5
v 0.4315 -3.72529E-09 -4.15352E-09
v -0.4315 0 0.3333333
v -0.5 0 0.1666667
v 0.4999999 -3.72529E-09 -0.1666667
v 0.5 0 0.1666667
v -0.5 0.3333333 0.1666667
v -0.4315 0.1666667 0.3333333
v 0.4999999 0.3333333 0.1666667
v 0.4999999 0.6666667 -0.1666667
v 0.4315 0.5 -4.15352E-09
v -0.5315 0.7333333 -0.3333333
v -0.6 0.5666667 -0.1666667
v -0.5315 0.06666666 0.3333333
v 0.5315 0.7333333 -0.3333333
v 0.6 0.9 -0.5
v 0.6 0.5666667 -0.1666667
v 0.5315 0.06666666 0.3333333
v 0.6 0.2333333 0.1666667
v -0.6 0.2333333 0.1666667
v 0.5315 0.4 -4.15352E-09
v -0.5315 0.4 -4.153522E-09
v -0.6 0.9 -0.5

vn -0.924927 0 -0.3801449
vn -0.9249269 0 0.380145
vn 0.9249269 0 0.3801451
vn 0.9249269 0 -0.380145
vn -0.924927 0 0.3801449
vn 0 -1 0
vn -0.9249269 0 0.380145
vn 0 0 -1
vn 0.9249269 0 0.380145
vn -0.9249269 0 -0.3801449
vn -0.6527557 0.6527559 0.3844733
vn -0.6527555 0.652756 0.3844735
vn 0.5005684 0.5005684 0.706302
vn 0.6527559 0.6527559 0.3844731
vn -0.5005682 0.5005686 0.706302
vn 0 0.7071068 0.7071068
vn -0.6527556 0.652756 0.3844734
vn -0.5005684 0.5005684 0.706302
vn -0.5005683 0.5005685 0.706302

vt -5.680176 2.263497E-09
vt -5.680176 32.8084
vt 1.414092 3.521343E-08
vt 1.414093 26.24672
vt -13.55224 7.609565E-08
vt -13.55224 26.24672
vt -6.457975 1.090456E-07
vt -6.457975 19.68504
vt 25.69039 -4.47299E-07
vt 18.59612 -4.14349E-07
vt 25.69039 39.37008
vt 18.59612 32.8084
vt -18.59612 6.56168
vt -18.59612 -3.294996E-08
vt -25.69039 -4.618528E-14
vt -25.69039 7.606292E-08
vt -25.69039 39.37008
vt -18.59612 1.090129E-07
vt -18.59612 32.8084
vt 19.68504 19.68504
vt 16.98819 13.12336
vt -19.68504 19.68504
vt 16.98819 -1.635244E-07
vt 16.98819 -13.12336
vt -16.98819 13.12336
vt -16.98819 -3.242655E-07
vt -19.68504 6.56168
vt -16.98819 -13.12336
vt -19.68504 -6.56168
vt -19.68504 -19.68504
vt 19.68504 -19.68504
vt 19.68504 -6.56168
vt 19.68504 6.56168
vt -1.414095 2.76477E-07
vt -1.414095 13.12336
vt 5.680174 3.09427E-07
vt 5.680174 6.56168
vt -19.68504 -2.965496E-07
vt -19.68504 39.37008
vt 19.68504 -2.965496E-07
vt 19.68504 39.37008
vt 1.414094 13.12336
vt 1.414094 -4.082771E-07
vt -5.680175 6.561679
vt -5.680175 -3.753271E-07
vt 13.55224 26.24672
vt 13.55224 -3.137083E-07
vt 6.457974 19.68504
vt 6.457974 -2.807583E-07
vt 18.59612 -3.294992E-08
vt 18.59612 6.56168
vt 25.69039 4.618528E-14
vt 6.457973 1.099903E-09
vt 6.457973 19.68504
vt 13.55224 3.404985E-08
vt 13.55224 13.12336
vt -6.457975 -1.987996E-07
vt -13.55224 13.12336
vt -13.55224 -1.658497E-07
vt 5.680173 32.8084
vt 5.680173 -3.108862E-07
vt -1.414095 26.24672
vt -1.414095 -2.779363E-07
vt -19.92936 19.6472
vt -15.64419 10.98569
vt -21.92743 14.45029
vt -17.64227 5.788791
vt 2.686011 -8.931502
vt 6.971177 -17.59301
vt 0.6879387 -14.1284
vt 24.66065 24.29686
vt 21.44853 28.84465
vt 30.65508 31.87651
vt 27.44296 36.4243
vt 17.64226 5.788792
vt 15.64419 10.98569
vt 21.92743 14.45029
vt 19.92936 19.6472
vt 9.484114 -9.14406
vt 6.272001 -4.596271
vt 15.47854 -1.56441
vt 12.26643 2.983379
vt -9.484122 -9.144063
vt -15.47855 -1.564413
vt -6.272007 -4.596272
vt -12.26644 2.983377
vt -0.6879557 -14.1284
vt -6.971193 -17.593
vt -2.686025 -8.931498
vt 17.07238 7.576401
vt 13.86027 12.12419
vt 23.06681 15.15605
vt 19.8547 19.70384
vt 19.68504 4.639808
vt 16.98819 -4.639809
vt 16.98819 13.91943
vt -19.68504 -13.91943
vt 19.68504 -13.91943
vt 16.98819 32.47866
vt 19.68504 23.19904
vt -16.98819 -4.639808
vt -16.98819 13.91943
vt -16.98819 32.47866
vt -19.68504 41.75827
vt 19.68504 41.75827
vt -19.68504 23.19904
vt -19.68504 4.639808
vt -8.621675 5.357847
vt -4.336508 -3.303656
vt -10.61975 0.1609455
vt -6.334579 -8.500558
vt -24.66065 24.29686
vt -30.65508 31.87651
vt -21.44854 28.84465
vt -27.44297 36.4243
vt 6.334568 -8.500554
vt 4.336499 -3.303653
vt 10.61974 0.1609477
vt 8.621667 5.357849
vt -17.07238 7.576399
vt -23.06681 15.15605
vt -13.86027 12.12419
vt -19.8547 19.70384

usemtl dirt

f 3/3/1 2/2/1 1/1/1
f 2/2/1 3/3/1 4/4/1
f 5/7/2 4/6/2 3/5/2
f 4/6/2 5/7/2 6/8/2
f 9/11/3 8/10/3 7/9/3
f 8/10/3 9/11/3 10/12/3
f 13/15/4 12/14/4 11/13/4
f 1/18/5 15/17/5 14/16/5
f 15/17/5 1/18/5 2/19/5
f 16/22/6 12/21/6 13/20/6
f 12/21/6 16/22/6 17/23/6
f 17/23/6 16/22/6 8/24/6
f 8/24/6 16/22/6 18/25/6
f 5/26/6 8/24/6 18/25/6
f 19/27/6 5/26/6 18/25/6
f 1/28/6 8/24/6 5/26/6
f 3/29/6 1/28/6 5/26/6
f 14/30/6 8/24/6 1/28/6
f 8/24/6 14/30/6 7/31/6
f 8/24/6 20/32/6 17/23/6
f 17/23/6 21/33/6 12/21/6
f 18/36/7 22/35/7 19/34/7
f 22/35/7 18/36/7 23/37/7
f 14/40/8 9/39/8 7/38/8
f 9/39/8 14/40/8 15/41/8
f 11/44/9 21/43/9 24/42/9
f 21/43/9 11/44/9 12/45/9
f 26/48/9 20/47/9 25/46/9
f 20/47/9 26/48/9 17/49/9
f 16/52/10 23/51/10 18/50/10
f 19/55/1 6/54/1 5/53/1
f 6/54/1 19/55/1 22/56/1
f 24/58/4 17/57/4 26/8/4
f 17/57/4 24/58/4 21/59/4
f 25/62/4 8/61/4 10/60/4
f 8/61/4 25/62/4 20/63/4

usemtl grass

f 27/66/11 4/65/11 2/64/11
f 4/65/11 27/66/11 28/67/11
f 29/70/12 16/69/12 23/68/12
f 31/73/13 10/72/13 30/71/13
f 10/72/13 31/73/13 9/74/13
f 30/77/14 25/76/14 32/75/14
f 25/76/14 30/77/14 10/78/14
f 34/81/13 11/80/13 33/79/13
f 11/80/13 34/81/13 24/82/13
f 23/85/15 35/84/15 29/83/15
f 35/84/15 23/85/15 22/86/15
f 11/89/14 13/88/14 33/87/14
f 32/92/13 26/91/13 36/90/13
f 26/91/13 32/92/13 25/93/13
f 26/96/16 11/95/16 24/94/16
f 16/97/16 11/95/16 26/96/16
f 11/95/16 16/97/16 13/98/16
f 16/97/16 26/96/16 10/99/16
f 10/99/16 26/96/16 25/100/16
f 16/97/16 10/99/16 23/101/16
f 10/99/16 6/102/16 23/101/16
f 10/99/16 2/103/16 6/102/16
f 10/99/16 15/104/16 2/103/16
f 15/104/16 10/99/16 9/105/16
f 4/106/16 6/102/16 2/103/16
f 22/107/16 23/101/16 6/102/16
f 37/110/17 22/109/17 6/108/17
f 22/109/17 37/110/17 35/111/17
f 2/114/18 38/113/18 27/112/18
f 38/113/18 2/114/18 15/115/18
f 36/118/14 24/117/14 34/116/14
f 24/117/14 36/118/14 26/119/14
f 6/122/19 28/121/19 37/120/19
f 28/121/19 6/122/19 4/123/19

