# Created by Kenney (www.kenney.nl)

mtllib cliff_cornerInner_stone.mtl

g cliff_cornerInner_stone

v 0.3315 0 -0.1666667
v 0.3315 1 -0.1666667
v 0.4 0 -1.788145E-08
v 0.4 1 -1.788145E-08
v -0.5 0 -0.4999999
v 0.4999999 0 -0.5
v -0.5 1 -0.5
v 0.4999999 1 -0.5
v 0.3315 0 0.1666667
v 0.3315 1 0.1666667
v 0.3315 0 0.5
v 0.3315 1 0.5
v 0.5 0 0.4999999
v 0.5 1 0.4999999
v 0.4 0 0.3333333
v 0.4 1 0.3333333
v 0.4 0 -0.3333333
v 0.4 1 -0.3333333
v 0.3333333 0 -0.4
v -5.960485E-09 0 -0.4
v 0.1666667 0 -0.3315
v -0.1666667 0 -0.3315
v -0.3333333 0 -0.4
v -0.5 0 -0.3315
v 0.3333333 1 -0.4
v 0.1666667 1 -0.3315
v -0.3333333 1 -0.4
v -0.5 1 -0.3315
v -5.960485E-09 1 -0.4
v -0.1666667 1 -0.3315

vn -0.9249269 0 0.380145
vn 0.9249269 0 -0.380145
vn 0 0 -1
vn 0 0 1
vn -0.9249269 0 -0.3801449
vn 0.9249269 0 0.3801449
vn 0 -1 0
vn 0 1 0
vn -0.7071067 0 0.7071068
vn 0.7071067 0 -0.7071068
vn 0.380145 0 0.9249269
vn -0.380145 0 -0.9249269
vn -0.380145 0 0.9249269
vn 0.380145 0 -0.9249269
vn 1 0 0
vn -1 0 0

vt -1.107733 6.92238E-15
vt -1.107733 39.37008
vt 5.986535 1.402781E-14
vt 5.986535 39.37008
vt 19.68504 9.777689E-08
vt -19.68504 9.777689E-08
vt 19.68504 39.37008
vt -19.68504 39.37008
vt -5.986535 1.406758E-14
vt -5.986535 39.37008
vt 1.107733 6.962153E-15
vt 1.107733 39.37008
vt 13.05118 3.539276E-14
vt 13.05118 39.37008
vt 19.68504 4.23638E-14
vt 6.151614 6.971046E-15
vt 6.151614 39.37008
vt 13.24588 6.971046E-15
vt 13.24588 39.37008
vt -18.12468 6.971046E-15
vt -18.12468 39.37008
vt -11.03041 6.971046E-15
vt -11.03041 39.37008
vt 19.68504 -19.68504
vt 15.74803 13.12336
vt 19.68504 19.68504
vt 13.05118 19.68504
vt 15.74803 -7.039939E-07
vt 13.05118 6.561679
vt 15.74803 -13.12336
vt 13.05118 -6.56168
vt 13.12336 -15.74803
vt -19.68504 -19.68504
vt -2.346648E-07 -15.74803
vt 6.561679 -13.05118
vt -6.56168 -13.05118
vt -13.12336 -15.74803
vt -19.68504 -13.05118
vt -1.855923 -2.958267E-24
vt -1.855923 39.37008
vt 1.855923 6.971046E-15
vt 1.855923 39.37008
vt 18.12468 0
vt 11.03041 0
vt 18.12468 39.37008
vt 11.03041 39.37008
vt -6.151614 0
vt -13.24588 0
vt -6.151614 39.37008
vt -13.24588 39.37008
vt 1.107733 -8.893265E-18
vt -5.986535 7.096534E-15
vt 19.68504 1.394209E-14
vt -19.68504 1.394209E-14
vt -1.107733 -4.866592E-17
vt 5.986535 7.056762E-15
vt 11.03041 6.971046E-15
vt 18.12468 6.971046E-15
vt -13.05118 19.68504
vt -15.74803 13.12336
vt -19.68504 19.68504
vt -19.68504 -19.68504
vt -15.74803 -7.039939E-07
vt -15.74803 -13.12336
vt 19.68504 -19.68504
vt 2.346647E-07 -15.74803
vt -6.561679 -13.05118
vt 6.56168 -13.05118
vt 19.68504 -13.05118
vt -13.05118 -6.56168
vt -13.05118 6.561679
vt -11.03041 0
vt -18.12468 0
vt -13.05118 39.37008
vt -19.68504 -1.466653E-07
vt -13.05118 -1.466653E-07

usemtl stone

f 3/3/1 2/2/1 1/1/1
f 2/2/1 3/3/1 4/4/1
f 1/1/2 2/2/2 3/3/2
f 4/4/2 3/3/2 2/2/2
f 7/7/3 6/6/3 5/5/3
f 6/6/3 7/7/3 8/8/3
f 5/5/4 6/6/4 7/7/4
f 8/8/4 7/7/4 6/6/4
f 9/11/5 4/10/5 3/9/5
f 4/10/5 9/11/5 10/12/5
f 3/9/6 4/10/6 9/11/6
f 10/12/6 9/11/6 4/10/6
f 13/15/4 12/14/4 11/13/4
f 12/14/4 13/15/4 14/7/4
f 11/13/3 12/14/3 13/15/3
f 14/7/3 13/15/3 12/14/3
f 11/18/5 16/17/5 15/16/5
f 16/17/5 11/18/5 12/19/5
f 15/16/6 16/17/6 11/18/6
f 12/19/6 11/18/6 16/17/6
f 1/22/5 18/21/5 17/20/5
f 18/21/5 1/22/5 2/23/5
f 17/20/6 18/21/6 1/22/6
f 2/23/6 1/22/6 18/21/6
f 13/26/7 15/25/7 6/24/7
f 15/25/7 13/26/7 11/27/7
f 3/28/7 6/24/7 15/25/7
f 9/29/7 3/28/7 15/25/7
f 17/30/7 6/24/7 3/28/7
f 1/31/7 17/30/7 3/28/7
f 19/32/7 6/24/7 17/30/7
f 6/24/7 19/32/7 5/33/7
f 5/33/7 19/32/7 20/34/7
f 20/34/7 19/32/7 21/35/7
f 5/33/7 20/34/7 22/36/7
f 5/33/7 22/36/7 23/37/7
f 5/33/7 23/37/7 24/38/7
f 6/24/8 15/25/8 13/26/8
f 11/27/8 13/26/8 15/25/8
f 15/25/8 6/24/8 3/28/8
f 15/25/8 3/28/8 9/29/8
f 3/28/8 6/24/8 17/30/8
f 3/28/8 17/30/8 1/31/8
f 17/30/8 6/24/8 19/32/8
f 5/33/8 19/32/8 6/24/8
f 20/34/8 19/32/8 5/33/8
f 21/35/8 19/32/8 20/34/8
f 22/36/8 20/34/8 5/33/8
f 23/37/8 22/36/8 5/33/8
f 24/38/8 23/37/8 5/33/8
f 17/41/9 25/40/9 19/39/9
f 25/40/9 17/41/9 18/42/9
f 19/39/10 25/40/10 17/41/10
f 18/42/10 17/41/10 25/40/10
f 25/45/11 21/44/11 19/43/11
f 21/44/11 25/45/11 26/46/11
f 19/43/12 21/44/12 25/45/12
f 26/46/12 25/45/12 21/44/12
f 27/49/11 24/48/11 23/47/11
f 24/48/11 27/49/11 28/50/11
f 23/47/12 24/48/12 27/49/12
f 28/50/12 27/49/12 24/48/12
f 26/12/13 20/52/13 21/51/13
f 20/52/13 26/12/13 29/10/13
f 21/51/14 20/52/14 26/12/14
f 29/10/14 26/12/14 20/52/14
f 14/8/15 6/53/15 8/7/15
f 6/53/15 14/8/15 13/54/15
f 8/7/16 6/53/16 14/8/16
f 13/54/16 14/8/16 6/53/16
f 20/56/11 30/2/11 22/55/11
f 30/2/11 20/56/11 29/4/11
f 22/55/12 30/2/12 20/56/12
f 29/4/12 20/56/12 30/2/12
f 15/58/1 10/46/1 9/57/1
f 10/46/1 15/58/1 16/45/1
f 9/57/2 10/46/2 15/58/2
f 16/45/2 15/58/2 10/46/2
f 14/61/8 16/60/8 12/59/8
f 16/60/8 14/61/8 8/62/8
f 8/62/8 4/63/8 16/60/8
f 4/63/8 8/62/8 18/64/8
f 18/64/8 8/62/8 25/37/8
f 25/37/8 8/62/8 7/65/8
f 25/37/8 7/65/8 29/66/8
f 25/37/8 29/66/8 26/67/8
f 29/66/8 7/65/8 30/68/8
f 30/68/8 7/65/8 27/32/8
f 27/32/8 7/65/8 28/69/8
f 2/70/8 4/63/8 18/64/8
f 10/71/8 16/60/8 4/63/8
f 12/59/7 16/60/7 14/61/7
f 8/62/7 14/61/7 16/60/7
f 16/60/7 4/63/7 8/62/7
f 18/64/7 8/62/7 4/63/7
f 25/37/7 8/62/7 18/64/7
f 7/65/7 8/62/7 25/37/7
f 29/66/7 7/65/7 25/37/7
f 26/67/7 29/66/7 25/37/7
f 30/68/7 7/65/7 29/66/7
f 27/32/7 7/65/7 30/68/7
f 28/69/7 7/65/7 27/32/7
f 18/64/7 4/63/7 2/70/7
f 4/63/7 16/60/7 10/71/7
f 30/23/13 23/73/13 22/72/13
f 23/73/13 30/23/13 27/21/13
f 22/72/14 23/73/14 30/23/14
f 27/21/14 30/23/14 23/73/14
f 5/75/16 28/74/16 7/8/16
f 28/74/16 5/75/16 24/76/16
f 7/8/15 28/74/15 5/75/15
f 24/76/15 5/75/15 28/74/15

