# Created by Kenney (www.kenney.nl)

mtllib cliff_blockCave_rock.mtl

g cliff_blockCave_rock

v -0.04624439 0.7979775 -0.4
v -0.200606 0.6137915 -0.4
v -0.1586595 0.7979775 0.05
v 0.06617067 0.7979775 -0.4
v 0.06617067 0.7979775 0.5
v -0.1586595 0.7979775 0.5
v 0.1665299 0.487419 -0.4
v 0.1665299 0.487419 0.5
v -0.2425525 0.4296055 -0.4
v -0.2425525 0.4296055 0.5
v -0.3144982 0.4296055 -0.4
v -0.3144982 0.4296055 0.5
v -0.3572491 0.2148028 -0.4
v -0.2185392 0 -0.4
v -0.4 0 0.05
v -0.5 0 -0.5
v -0.5 1 -0.5
v -0.5 0 0.5
v -0.5 1 0.5
v 0.5 0 0.5
v 0.4 0 -0.1094497
v 0.4 0 0.5
v 0.5 0 -0.5
v 0.2730201 0 -0.4
v -0.4 0 0.5
v 0.3372242 0.2437095 -0.4
v 0.2744485 0.487419 -0.4
v 0.2744485 0.487419 0.5
v 0.5 1 -0.5
v 0.5 1 0.5

vn 0.752758 -0.6308674 0.1880474
vn 0 -1 0
vn -0.9515482 -0.3074997 0
vn 0.9750343 -0.2220543 0
vn 0.7956563 0.5137987 0.3208454
vn -1 0 0
vn -0.9683897 -0.2494421 0
vn 1 0 0
vn 0.9807643 -0.1951956 0
vn 0 0 -1
vn -0.8907291 0.2346585 0.3892775
vn 0 0 1
vn 0 1 0

vt 14.83726 20.85352
vt 13.36436 11.5076
vt -3.423721 20.85352
vt 2.605145 -15.74803
vt -1.820645 -15.74803
vt 2.605145 19.68504
vt -6.246436 19.68504
vt -6.246436 1.968504
vt -15.74803 29.09317
vt 19.68504 29.09317
vt -15.74803 16.24389
vt 19.68504 16.24389
vt 15.74803 21.80797
vt 15.74803 14.37088
vt -1.968504 29.24506
vt -19.68504 14.37088
vt -19.68504 29.24506
vt -9.549311 -15.74803
vt -12.38182 -15.74803
vt -9.549311 19.68504
vt -12.38182 19.68504
vt 9.345209 16.98336
vt 11.38755 7.125917
vt -7.71518 7.125917
vt -19.68504 0
vt -19.68504 39.37008
vt 19.68504 0
vt 19.68504 39.37008
vt 19.68504 19.68504
vt 15.74803 -4.309042
vt 15.74803 19.68504
vt 19.68504 -19.68504
vt 10.74882 -15.74803
vt -19.68504 -19.68504
vt -8.603907 -15.74803
vt -15.74803 1.968504
vt -19.68504 19.68504
vt -15.74803 19.68504
vt -15.74803 5.979836
vt -15.74803 15.88789
vt -4.309042 -3.928222
vt 19.68504 15.88789
vt 19.68504 -3.928222
vt 10.80506 -15.74803
vt 6.556295 -15.74803
vt 10.80506 19.68504
vt 6.556295 19.68504
vt 15.74803 5.548718
vt -1.968504 -3.073947
vt 15.74803 14.17138
vt -19.68504 14.17138
vt -19.68504 -3.073947
vt -10.12569 3.791084
vt -9.113436 13.66155
vt 2.358007 3.791084
vt 13.27654 9.594862
vt -9.549311 16.9136
vt 10.80506 19.18972
vt 6.556295 19.18972
vt -7.897873 24.16502
vt 2.605145 31.41644
vt -1.820645 31.41644
vt -12.38182 16.9136
vt -14.06493 8.456802
vt -8.603907 0
vt 10.74882 0
vt -6.246436 31.41644
vt -15.74803 0
vt 15.74803 0

usemtl dirt

f 3/3/1 2/2/1 1/1/1
f 5/6/2 1/5/2 4/4/2
f 1/5/2 5/6/2 6/7/2
f 1/5/2 6/7/2 3/8/2
f 7/11/3 5/10/3 4/9/3
f 5/10/3 7/11/3 8/12/3
f 3/15/4 9/14/4 2/13/4
f 9/14/4 3/15/4 10/16/4
f 10/16/4 3/15/4 6/17/4
f 10/20/2 11/19/2 9/18/2
f 11/19/2 10/20/2 12/21/2
f 15/24/5 14/23/5 13/22/5
f 18/27/6 17/26/6 16/25/6
f 17/26/6 18/27/6 19/28/6
f 22/31/2 21/30/2 20/29/2
f 21/30/2 23/32/2 20/29/2
f 24/33/2 23/32/2 21/30/2
f 23/32/2 24/33/2 16/34/2
f 16/34/2 24/33/2 14/35/2
f 16/34/2 14/35/2 15/36/2
f 15/36/2 18/37/2 16/34/2
f 18/37/2 15/36/2 25/38/2
f 21/41/7 27/40/7 26/39/7
f 27/40/7 21/41/7 28/42/7
f 28/42/7 21/41/7 22/43/7
f 30/26/8 23/27/8 29/28/8
f 23/27/8 30/26/8 20/25/8
f 28/46/2 7/45/2 27/44/2
f 7/45/2 28/46/2 8/47/2
f 11/50/9 15/49/9 13/48/9
f 15/49/9 11/50/9 12/51/9
f 15/49/9 12/51/9 25/52/9
f 17/28/10 23/25/10 16/27/10
f 23/25/10 17/28/10 29/26/10
f 21/55/11 26/54/11 24/53/11
f 27/58/12 9/57/12 26/56/12
f 9/57/12 27/58/12 7/59/12
f 9/57/12 7/59/12 2/60/12
f 2/60/12 7/59/12 4/61/12
f 2/60/12 4/61/12 1/62/12
f 11/63/12 26/56/12 9/57/12
f 13/64/12 26/56/12 11/63/12
f 14/65/12 26/56/12 13/64/12
f 26/56/12 14/65/12 24/66/12
f 6/67/12 12/63/12 10/57/12
f 19/26/12 12/63/12 6/67/12
f 18/25/12 12/63/12 19/26/12
f 12/63/12 18/25/12 25/68/12
f 19/26/12 6/67/12 30/28/12
f 5/61/12 30/28/12 6/67/12
f 8/59/12 30/28/12 5/61/12
f 28/58/12 30/28/12 8/59/12
f 22/69/12 30/28/12 28/58/12
f 30/28/12 22/69/12 20/27/12

usemtl grass

f 17/32/13 30/37/13 29/34/13
f 30/37/13 17/32/13 19/29/13

