# Created by Kenney (www.kenney.nl)

mtllib cliff_halfCorner_rock.mtl

g cliff_halfCorner_rock

v 0.5 0.5 -0.5
v 0.5 0.5 -0.3315
v 0.3315 0.5 -0.5
v 0.373625 0.5 -0.373625
v 0.5 0.4 -0.2315
v 0.298625 0.4 -0.298625
v 0.2315 0.4 -0.5
v 0.186125 0 -0.186125
v 0.5 0 -0.08149999
v 0.5 0 -0.5
v 0.08149999 0 -0.5

vn 0 1 0
vn -0.2294157 0.6882472 0.6882472
vn -0.6882472 0.6882472 0.2294157
vn -0.2857143 0.4285714 0.8571428
vn 1 0 0
vn -0.8571428 0.4285714 0.2857143
vn 0 0 -1
vn 0 -1 0

vt -19.68504 -19.68504
vt -19.68504 -13.05118
vt -13.05118 -19.68504
vt -14.70965 -14.70965
vt 14.54772 27.08683
vt 15.79271 21.66004
vt 9.303197 27.08683
vt 7.43571 21.66004
vt -15.79271 21.66004
vt -14.54772 27.08683
vt -7.43571 21.66004
vt -9.303197 27.08683
vt 4.63448 3.972411
vt 9.303197 25.75976
vt 17.6602 3.972411
vt 14.54772 25.75976
vt 19.68504 19.68504
vt 19.68504 8.526513E-14
vt 13.05118 19.68504
vt 3.208661 8.615331E-14
vt -17.6602 3.972411
vt -14.54772 25.75976
vt -4.63448 3.972411
vt -9.303197 25.75976
vt -3.208661 2.842171E-14
vt -19.68504 2.842171E-14
vt -13.05118 19.68504
vt -19.68504 19.68504
vt 19.68504 -19.68504
vt 3.208661 -19.68504
vt 19.68504 -3.208661
vt 7.327756 -7.327756

usemtl grass

f 3/3/1 2/2/1 1/1/1
f 2/2/1 3/3/1 4/4/1
f 4/7/2 5/6/2 2/5/2
f 5/6/2 4/7/2 6/8/2
f 6/11/3 3/10/3 7/9/3
f 3/10/3 6/11/3 4/12/3

usemtl dirt

f 9/15/4 4/14/4 8/13/4
f 4/14/4 9/15/4 2/16/4
f 2/19/5 10/18/5 1/17/5
f 10/18/5 2/19/5 9/20/5
f 8/23/6 3/22/6 11/21/6
f 3/22/6 8/23/6 4/24/6
f 3/27/7 10/26/7 11/25/7
f 10/26/7 3/27/7 1/28/7
f 9/31/8 11/30/8 10/29/8
f 11/30/8 9/31/8 8/32/8

