# Created by Kenney (www.kenney.nl)

mtllib cliff_cornerTop_rock.mtl

g cliff_cornerTop_rock

v 0.3315 0 -0.5
v 0.3315 1 -0.5
v 0.373625 0 -0.373625
v 0.373625 1 -0.373625
v 0.5 0 -0.5
v 0.5 1 -0.5
v 0.5 0 -0.3315
v 0.5 1 -0.3315
v 0.298625 0.9 -0.298625
v 0.2315 0.9 -0.5
v 0.5 0.9 -0.2315

vn -0.9486833 0 0.3162278
vn 0 0 -1
vn -0.3162278 0 0.9486833
vn 0 -1 0
vn 1 0 0
vn -0.6882472 0.6882472 0.2294157
vn -0.2294157 0.6882472 0.6882472
vn 0 1 0

vt -14.54772 0
vt -14.54772 39.37008
vt -9.303197 0
vt -9.303197 39.37008
vt -13.05118 3.552714E-15
vt -19.68504 3.552714E-15
vt -13.05118 39.37008
vt -19.68504 39.37008
vt 14.54772 0
vt 9.303197 0
vt 14.54772 39.37008
vt 9.303197 39.37008
vt 19.68504 -13.05118
vt 19.68504 -19.68504
vt 14.70965 -14.70965
vt 13.05118 -19.68504
vt 19.68504 39.37008
vt 19.68504 0
vt 13.05118 39.37008
vt 13.05118 0
vt -9.303197 41.36786
vt -7.43571 35.94106
vt -14.54772 41.36786
vt -15.79271 35.94106
vt 15.79271 35.94106
vt 7.43571 35.94106
vt 14.54772 41.36786
vt 9.303197 41.36786
vt -19.68504 -13.05118
vt -14.70965 -14.70965
vt -19.68504 -19.68504
vt -13.05118 -19.68504

usemtl dirt

f 3/3/1 2/2/1 1/1/1
f 2/2/1 3/3/1 4/4/1
f 2/7/2 5/6/2 1/5/2
f 5/6/2 2/7/2 6/8/2
f 8/11/3 3/10/3 7/9/3
f 3/10/3 8/11/3 4/12/3
f 3/15/4 5/14/4 7/13/4
f 5/14/4 3/15/4 1/16/4
f 8/19/5 5/18/5 6/17/5
f 5/18/5 8/19/5 7/20/5

usemtl grass

f 2/23/6 9/22/6 4/21/6
f 9/22/6 2/23/6 10/24/6
f 8/27/7 9/26/7 11/25/7
f 9/26/7 8/27/7 4/28/7
f 6/31/8 4/30/8 8/29/8
f 4/30/8 6/31/8 2/32/8

