# Created by Kenney (www.kenney.nl)

mtllib cliff_steps_stone.mtl

g cliff_steps_stone

v 0.1666667 0.2 0.3
v 0.1666667 0.4 0.3
v 0.3333333 0.2 0.2315
v 0.3333333 0.4 0.2315
v -0.1666667 0.6 -0.1
v -0.3333333 0.6 -0.1685
v -0.1666667 0.8 -0.1
v -0.3333333 0.8 -0.1685
v -1.155058E-13 0.6 -0.1685
v -1.155058E-13 0.8 -0.1685
v -0.5 0.4 0.1
v -0.5 0.6 0.1
v -0.3333333 0.4 0.0315
v -0.3333333 0.6 0.0315
v 0.5 0 0.5
v 0.3333333 0 0.4315
v 0.5 0.2 0.5
v 0.3333333 0.2 0.4315
v -0.3333333 0 0.4315
v -0.5 0 0.5
v -0.3333333 0.2 0.4315
v -0.5 0.2 0.5
v -0.5 0 -0.5
v 0.5 0 -0.5
v -0.5 1 -0.5
v 0.5 1 -0.5
v 0.5 0.8 -0.3
v 0.3333333 0.8 -0.3685
v 0.5 1 -0.3
v 0.3333333 1 -0.3685
v -0.3333333 0.8 -0.3685
v -0.5 0.8 -0.3
v -0.3333333 1 -0.3685
v -0.5 1 -0.3
v 0.5 0.6 -0.1
v 0.3333333 0.6 -0.1685
v 0.5 0.8 -0.1
v 0.3333333 0.8 -0.1685
v 0.5 0.4 0.1
v 0.3333333 0.4 0.0315
v 0.5 0.6 0.1
v 0.3333333 0.6 0.0315
v -0.1666667 0.8 -0.3
v -0.1666667 1 -0.3
v -0.1666667 0.2 0.3
v -0.1666667 0.4 0.3
v -2.367869E-13 0.2 0.2315
v -2.367869E-13 0.4 0.2315
v 0.5 0.2 0.3
v 0.5 0.4 0.3
v 0.1666667 0 0.5
v 0.1666667 0.2 0.5
v -0.5 0.6 -0.1
v -0.5 0.2 0.3
v -0.5 0.4 0.3
v -0.5 0.8 -0.1
v 0.1666667 0.4 0.1
v -1.732587E-13 0.4 0.0315
v 0.1666667 0.6 0.1
v -1.732587E-13 0.6 0.0315
v -0.3333333 0.2 0.2315
v -0.3333333 0.4 0.2315
v -0.1666667 0.4 0.1
v -0.1666667 0.6 0.1
v 0.1666667 0.8 -0.3
v -5.197762E-14 0.8 -0.3685
v 0.1666667 1 -0.3
v -5.197762E-14 1 -0.3685
v 0.1666667 0.6 -0.1
v 0.1666667 0.8 -0.1
v -0.1666667 0 0.5
v -0.1666667 0.2 0.5
v -3.003151E-13 0 0.4315
v -3.003151E-13 0.2 0.4315
v 0.1666667 0.75 -0.05
v -1.270564E-13 0.75 -0.1185
v 0.5 0.55 0.15
v 0.3333333 0.55 0.08149999
v -0.1666667 0.9499999 -0.25
v -6.93035E-14 0.9499999 -0.3185
v 0.1666667 0.55 0.15
v -0.1666667 0.55 0.15
v -1.905846E-13 0.55 0.08149999
v -0.3333333 0.35 0.2815
v -0.375 0.35 0.298625
v -0.4166667 0.375 0.29075
v -0.5 0.35 0.35
v -0.4583333 0.35 0.332875
v -0.3333333 0.9499999 -0.3185
v -0.5 0.9499999 -0.25
v 0.5 0.9499999 -0.25
v 0.3333333 0.9499999 -0.3185
v 0.5 0.35 0.35
v 0.3333333 0.35 0.2815
v -0.1666667 0.35 0.35
v -2.541128E-13 0.35 0.2815
v 0.1666667 0.15 0.55
v -3.118657E-13 0.15 0.4815
v -0.1666667 0.15 0.55
v -0.3333333 0.15 0.4815
v 0.3333333 0.15 0.4815
v 0.2916667 0.15 0.498625
v 0.25 0.175 0.49075
v 0.2083333 0.15 0.532875
v -0.3333333 0.75 -0.1185
v -0.5 0.75 -0.05
v -0.3333333 0.55 0.08149999
v 0.08333334 0.575 0.09075
v 0.125 0.55 0.132875
v 0.04166667 0.55 0.098625
v -0.5 0.15 0.55
v 0.5 0.15 0.55
v -0.25 0.975 -0.30925
v -0.2083333 0.9499999 -0.267125
v -0.2916667 0.9499999 -0.301375
v 0.1666667 0.9499999 -0.25
v 0.1666667 0.35 0.35
v -0.5 0.55 0.15
v -0.1666667 0.75 -0.05
v 0.5 0.75 -0.05
v 0.3333333 0.75 -0.1185
v 0.2916667 0.75 -0.101375
v 0.25 0.775 -0.10925
v 0.2083333 0.75 -0.067125

vn 0.380145 0 0.9249269
vn -0.380145 0 0.9249269
vn 0 0 -1
vn -1 0 0
vn 1 0 0
vn 0 -1 0
vn 0 1 0
vn -0.2790744 0.6790131 0.6790131
vn 0.2790744 0.6790131 0.6790131

vt 1.579173 7.874016
vt 1.579173 15.74803
vt 8.673442 7.874016
vt 8.673442 15.74803
vt -7.565708 23.62205
vt -14.65998 23.62205
vt -7.565708 31.49606
vt -14.65998 31.49606
vt -4.572441 23.62205
vt -4.572441 31.49606
vt 2.521828 23.62205
vt 2.521828 31.49606
vt -19.70386 15.74803
vt -19.70386 23.62205
vt -12.60959 15.74803
vt -12.60959 23.62205
vt 25.69039 -1.422342E-13
vt 18.59612 -1.06707E-13
vt 25.69039 7.874016
vt 18.59612 7.874016
vt -18.59612 -1.421085E-13
vt -25.69039 -1.421085E-13
vt -18.59612 7.874016
vt -25.69039 7.874016
vt 19.68504 0
vt -19.68504 0
vt 19.68504 39.37008
vt -19.68504 39.37008
vt 13.71732 31.49606
vt 6.623053 31.49606
vt 13.71732 39.37008
vt 6.623053 39.37008
vt -6.623053 31.49606
vt -13.71732 31.49606
vt -6.623053 39.37008
vt -13.71732 39.37008
vt 16.71059 23.62205
vt 9.616321 23.62205
vt 16.71059 31.49606
vt 9.616321 31.49606
vt 19.70386 15.74803
vt 12.60959 15.74803
vt 19.70386 23.62205
vt 12.60959 23.62205
vt -10.55898 31.49606
vt -17.65324 31.49606
vt -10.55898 39.37008
vt -17.65324 39.37008
vt -10.55898 7.874016
vt -10.55898 15.74803
vt -3.464707 7.874016
vt -3.464707 15.74803
vt 22.69712 7.874016
vt 15.60286 7.874016
vt 22.69712 15.74803
vt 15.60286 15.74803
vt -1.414094 -6.572531E-14
vt -1.414094 7.874016
vt 5.680174 -3.73036E-14
vt 5.680174 7.874016
vt 19.68504 -1.421085E-13
vt -11.81102 31.49606
vt -3.937008 23.62205
vt 3.937008 15.74803
vt 11.81102 7.874016
vt 19.68504 7.874016
vt 11.81102 15.74803
vt 3.937008 23.62205
vt -3.937008 31.49606
vt -11.81102 39.37008
vt 11.81102 39.37008
vt 11.81102 31.49606
vt -19.68504 -1.421085E-13
vt 3.937008 31.49606
vt -3.937008 15.74803
vt -11.81102 7.874016
vt -11.81102 15.74803
vt -19.68504 7.874016
vt 7.565708 15.74803
vt 0.4714396 15.74803
vt 7.565708 23.62205
vt 0.4714396 23.62205
vt -22.69712 7.874016
vt -22.69712 15.74803
vt -15.60286 7.874016
vt -15.60286 15.74803
vt -4.572441 15.74803
vt -11.66671 15.74803
vt -11.66671 23.62205
vt 1.579173 31.49606
vt -5.515095 31.49606
vt 1.579173 39.37008
vt -5.515095 39.37008
vt 4.572441 23.62205
vt -2.521828 23.62205
vt 4.572441 31.49606
vt -2.521828 31.49606
vt -1.579173 7.874016
vt -8.673442 7.874016
vt -1.579173 15.74803
vt -8.673442 15.74803
vt 4.572441 15.74803
vt 11.66671 15.74803
vt 11.66671 23.62205
vt 1.414094 -7.298599E-14
vt -5.680174 -7.298599E-14
vt 1.414094 7.874016
vt -5.680174 7.874016
vt 7.565708 31.49606
vt 14.65998 23.62205
vt 14.65998 31.49606
vt -1.579173 31.49606
vt -1.579173 39.37008
vt 5.515095 31.49606
vt 5.515095 39.37008
vt 19.68504 -19.68504
vt -19.68504 -19.68504
vt 19.68504 19.68504
vt 13.12336 16.98819
vt 6.56168 19.68504
vt -1.182343E-11 16.98819
vt -6.56168 19.68504
vt -13.12336 16.98819
vt -19.68504 19.68504
vt -13.55224 -8.977424E-14
vt -13.55224 7.874016
vt -6.457974 -8.266881E-14
vt -6.457974 7.874016
vt 10.55898 7.874016
vt 3.464707 7.874016
vt 10.55898 15.74803
vt 3.464707 15.74803
vt 10.55898 31.49606
vt 10.55898 39.37008
vt 17.65324 31.49606
vt 17.65324 39.37008
vt 13.55224 -8.253807E-14
vt 6.457974 -8.253807E-14
vt 13.55224 7.874016
vt 6.457974 7.874016
vt -7.565708 15.74803
vt -0.4714396 15.74803
vt -0.4714396 23.62205
vt -16.71059 23.62205
vt -16.71059 31.49606
vt -9.616321 23.62205
vt -9.616321 31.49606
vt -19.68504 -11.81102
vt -19.68504 -3.937008
vt -13.12336 -14.50787
vt -13.12336 -6.633858
vt -6.56168 -11.81102
vt -6.56168 -3.937008
vt 2.037836E-12 -14.50787
vt 4.538947E-12 -6.633858
vt 6.56168 -11.81102
vt 6.56168 -3.937008
vt 13.12336 -14.50787
vt 13.12336 -6.633858
vt 19.68504 -11.81102
vt 19.68504 -3.937008
vt 2.043583E-12 -14.50787
vt -19.68504 3.937008
vt -19.68504 11.81102
vt -13.12336 1.240157
vt -13.12336 9.114173
vt -6.56168 3.937008
vt -6.56168 11.81102
vt 6.817708E-12 1.240157
vt 9.318819E-12 9.114173
vt 6.56168 3.937008
vt 6.56168 11.81102
vt 13.12336 1.240157
vt 13.12336 9.114173
vt 19.68504 3.937008
vt 19.68504 11.81102
vt 4.572441 27.2884
vt 5.320757 24.60697
vt -2.521828 27.2884
vt -1.773511 24.60697
vt 19.70386 19.95014
vt 20.45217 17.26872
vt 12.60959 19.95014
vt 13.35791 17.26872
vt -2.32749 35.33267
vt -1.579173 38.0141
vt 4.766778 35.33267
vt 5.515095 38.0141
vt 10.91839 10.49383
vt 3.824124 10.49383
vt 11.66671 13.17525
vt 4.572441 13.17525
vt -8.314025 13.88127
vt -7.565708 16.5627
vt -1.219756 13.88127
vt -0.4714396 16.5627
vt -16.35117 6.543022
vt -18.12474 6.543022
vt -15.60286 9.224446
vt -19.52415 7.883734
vt -22.69712 9.224446
vt -23.44544 6.543022
vt -21.67187 6.543022
vt 9.320341E-12 9.114173
vt 1.182145E-11 16.98819
vt -7.37137 38.72012
vt -14.46564 38.72012
vt -6.623053 41.40154
vt -13.71732 41.40154
vt 13.71732 41.40154
vt 14.46564 38.72012
vt 6.623053 41.40154
vt 7.37137 38.72012
vt 22.69712 9.224446
vt 23.44544 6.543022
vt 15.60286 9.224446
vt 16.35117 6.543022
vt -1.579173 2.449554
vt -0.8308563 -0.2318707
vt -8.673442 2.449554
vt -7.925125 -0.2318707
vt -11.30729 3.155576
vt -10.55898 5.837
vt -4.213024 3.155576
vt -3.464707 5.837
vt 13.55224 -4.888698
vt 14.30056 -7.570123
vt 6.457974 -4.888698
vt 7.206291 -7.570123
vt -14.30056 -7.570123
vt -13.55224 -4.888698
vt -7.206291 -7.570123
vt -6.457974 -4.888698
vt 1.414094 -8.276144
vt 2.162411 -10.95757
vt -5.680174 -8.276144
vt -4.931857 -10.95757
vt 4.931857 -10.95757
vt 3.15829 -10.95757
vt 5.680174 -8.276144
vt 1.758881 -9.616857
vt -1.414094 -8.276144
vt -2.162411 -10.95757
vt -0.3888441 -10.95757
vt -10.36464 27.99442
vt -17.45891 27.99442
vt -9.616321 30.67584
vt -16.71059 30.67584
vt -4.572441 13.17525
vt -3.824124 10.49383
vt -11.66671 13.17525
vt -10.91839 10.49383
vt 7.565708 16.5627
vt 8.314025 13.88127
vt 0.4714396 16.5627
vt 4.392732 15.22199
vt 6.540458 13.88127
vt 2.993324 13.88127
vt 1.219756 13.88127
vt -19.34444 -4.182676
vt -26.43871 -4.182676
vt -18.59612 -1.501252
vt -25.69039 -1.501252
vt 25.69039 -1.501252
vt 26.43871 -4.182676
vt 18.59612 -1.501252
vt 19.34444 -4.182676
vt -10.55898 34.62665
vt -9.810658 31.94522
vt -17.65324 34.62665
vt -13.73195 33.28593
vt -11.58423 31.94522
vt -15.13136 31.94522
vt -16.90493 31.94522
vt 16.90493 31.94522
vt 9.810658 31.94522
vt 17.65324 34.62665
vt 10.55898 34.62665
vt 7.925125 -0.2318707
vt 0.8308563 -0.2318707
vt 8.673442 2.449554
vt 1.579173 2.449554
vt -13.35791 17.26872
vt -20.45217 17.26872
vt -12.60959 19.95014
vt -19.70386 19.95014
vt 10.55898 5.837
vt 11.30729 3.155576
vt 3.464707 5.837
vt 4.213024 3.155576
vt 4.542449E-12 -6.633858
vt 6.816186E-12 1.240157
vt 1.579173 38.0141
vt 2.32749 35.33267
vt -5.515095 38.0141
vt -4.766778 35.33267
vt -5.320757 24.60697
vt -4.572441 27.2884
vt 1.773511 24.60697
vt 2.521828 27.2884
vt 16.71059 30.67584
vt 17.45891 27.99442
vt 9.616321 30.67584
vt 10.36464 27.99442
vt -7.565708 23.90095
vt -6.817391 21.21953
vt -14.65998 23.90095
vt -13.91166 21.21953
vt 13.91166 21.21953
vt 12.13809 21.21953
vt 14.65998 23.90095
vt 10.73868 22.56024
vt 7.565708 23.90095
vt 6.817391 21.21953
vt 8.590959 21.21953

usemtl stone

f 3/3/1 2/2/1 1/1/1
f 2/2/1 3/3/1 4/4/1
f 7/7/2 6/6/2 5/5/2
f 6/6/2 7/7/2 8/8/2
f 9/11/1 7/10/1 5/9/1
f 7/10/1 9/11/1 10/12/1
f 13/15/1 12/14/1 11/13/1
f 12/14/1 13/15/1 14/16/1
f 17/19/2 16/18/2 15/17/2
f 16/18/2 17/19/2 18/20/2
f 21/23/1 20/22/1 19/21/1
f 20/22/1 21/23/1 22/24/1
f 25/27/3 24/26/3 23/25/3
f 24/26/3 25/27/3 26/28/3
f 29/31/2 28/30/2 27/29/2
f 28/30/2 29/31/2 30/32/2
f 33/35/1 32/34/1 31/33/1
f 32/34/1 33/35/1 34/36/1
f 37/39/2 36/38/2 35/37/2
f 36/38/2 37/39/2 38/40/2
f 41/43/2 40/42/2 39/41/2
f 40/42/2 41/43/2 42/44/2
f 44/47/2 31/46/2 43/45/2
f 31/46/2 44/47/2 33/48/2
f 47/51/1 46/50/1 45/49/1
f 46/50/1 47/51/1 48/52/1
f 50/55/2 3/54/2 49/53/2
f 3/54/2 50/55/2 4/56/2
f 16/59/1 52/58/1 51/57/1
f 52/58/1 16/59/1 18/60/1
f 20/61/4 25/28/4 23/26/4
f 25/28/4 20/61/4 32/62/4
f 32/62/4 20/61/4 53/63/4
f 53/63/4 20/61/4 11/64/4
f 11/64/4 20/61/4 54/65/4
f 54/65/4 20/61/4 22/66/4
f 55/67/4 11/64/4 54/65/4
f 12/68/4 53/63/4 11/64/4
f 56/69/4 32/62/4 53/63/4
f 34/70/4 25/28/4 32/62/4
f 29/71/5 24/25/5 26/27/5
f 24/25/5 29/71/5 27/72/5
f 24/25/5 27/72/5 15/73/5
f 15/73/5 27/72/5 35/68/5
f 35/68/5 27/72/5 37/74/5
f 15/73/5 35/68/5 39/75/5
f 39/75/5 35/68/5 41/63/5
f 15/73/5 39/75/5 49/76/5
f 49/76/5 39/75/5 50/77/5
f 15/73/5 49/76/5 17/78/5
f 59/81/2 58/80/2 57/79/2
f 58/80/2 59/81/2 60/82/2
f 61/85/1 55/84/1 54/83/1
f 55/84/1 61/85/1 62/86/1
f 64/9/2 13/88/2 63/87/2
f 13/88/2 64/9/2 14/89/2
f 67/92/2 66/91/2 65/90/2
f 66/91/2 67/92/2 68/93/2
f 70/96/2 9/95/2 69/94/2
f 9/95/2 70/96/2 10/97/2
f 46/100/2 61/99/2 45/98/2
f 61/99/2 46/100/2 62/101/2
f 40/103/1 59/94/1 57/102/1
f 59/94/1 40/103/1 42/104/1
f 72/107/2 19/106/2 71/105/2
f 19/106/2 72/107/2 21/108/2
f 36/110/1 70/109/1 69/81/1
f 70/109/1 36/110/1 38/111/1
f 66/114/1 44/113/1 43/112/1
f 44/113/1 66/114/1 68/115/1
f 15/118/6 23/117/6 24/116/6
f 23/117/6 15/118/6 16/119/6
f 23/117/6 16/119/6 51/120/6
f 23/117/6 51/120/6 73/121/6
f 23/117/6 73/121/6 71/122/6
f 23/117/6 71/122/6 19/123/6
f 23/117/6 19/123/6 20/124/6
f 73/127/1 72/126/1 71/125/1
f 72/126/1 73/127/1 74/128/1
f 2/131/2 47/130/2 1/129/2
f 47/130/2 2/131/2 48/132/2
f 28/135/1 67/134/1 65/133/1
f 67/134/1 28/135/1 30/136/1
f 52/139/2 73/138/2 51/137/2
f 73/138/2 52/139/2 74/140/2
f 58/142/1 64/5/1 63/141/1
f 64/5/1 58/142/1 60/143/1
f 6/146/1 56/145/1 53/144/1
f 56/145/1 6/146/1 8/147/1

usemtl grass

f 28/150/7 37/149/7 27/148/7
f 37/149/7 28/150/7 38/151/7
f 38/151/7 28/150/7 65/152/7
f 38/151/7 65/152/7 70/153/7
f 70/153/7 65/152/7 66/154/7
f 70/153/7 66/154/7 10/155/7
f 10/155/7 66/154/7 43/156/7
f 10/155/7 43/156/7 7/157/7
f 7/157/7 43/156/7 31/158/7
f 7/157/7 31/158/7 8/159/7
f 8/159/7 31/158/7 32/160/7
f 8/159/7 32/160/7 56/161/7
f 26/117/7 30/150/7 29/148/7
f 30/150/7 26/117/7 25/116/7
f 30/150/7 25/116/7 68/162/7
f 30/150/7 68/162/7 67/152/7
f 68/162/7 25/116/7 44/156/7
f 44/156/7 25/116/7 33/158/7
f 33/158/7 25/116/7 34/160/7
f 40/165/7 50/164/7 39/163/7
f 50/164/7 40/165/7 4/166/7
f 4/166/7 40/165/7 57/167/7
f 4/166/7 57/167/7 2/168/7
f 2/168/7 57/167/7 58/169/7
f 2/168/7 58/169/7 48/170/7
f 48/170/7 58/169/7 63/171/7
f 48/170/7 63/171/7 46/172/7
f 46/172/7 63/171/7 13/173/7
f 46/172/7 13/173/7 62/174/7
f 62/174/7 13/173/7 11/175/7
f 62/174/7 11/175/7 55/176/7
f 10/179/8 75/178/8 70/177/8
f 75/178/8 10/179/8 76/180/8
f 42/183/8 77/182/8 41/181/8
f 77/182/8 42/183/8 78/184/8
f 80/187/9 44/186/9 79/185/9
f 44/186/9 80/187/9 68/188/9
f 42/191/9 81/190/9 78/189/9
f 81/190/9 42/191/9 59/192/9
f 83/195/9 64/194/9 82/193/9
f 64/194/9 83/195/9 60/196/9
f 62/199/9 85/198/9 84/197/9
f 85/198/9 62/199/9 86/200/9
f 55/201/9 86/200/9 62/199/9
f 87/202/9 86/200/9 55/201/9
f 86/200/9 87/202/9 88/203/9
f 3/166/7 17/124/7 49/164/7
f 17/124/7 3/166/7 18/123/7
f 18/123/7 3/166/7 1/168/7
f 18/123/7 1/168/7 52/122/7
f 52/122/7 1/168/7 47/204/7
f 52/122/7 47/204/7 74/205/7
f 74/205/7 47/204/7 45/172/7
f 74/205/7 45/172/7 72/120/7
f 72/120/7 45/172/7 61/174/7
f 72/120/7 61/174/7 21/119/7
f 21/119/7 61/174/7 54/176/7
f 21/119/7 54/176/7 22/118/7
f 33/208/9 90/207/9 89/206/9
f 90/207/9 33/208/9 34/209/9
f 30/212/8 91/211/8 29/210/8
f 91/211/8 30/212/8 92/213/8
f 4/216/8 93/215/8 50/214/8
f 93/215/8 4/216/8 94/217/8
f 62/220/8 95/219/8 46/218/8
f 95/219/8 62/220/8 84/221/8
f 96/224/9 46/223/9 95/222/9
f 46/223/9 96/224/9 48/225/9
f 74/228/8 97/227/8 52/226/8
f 97/227/8 74/228/8 98/229/8
f 98/232/9 72/231/9 99/230/9
f 72/231/9 98/232/9 74/233/9
f 21/236/8 99/235/8 72/234/8
f 99/235/8 21/236/8 100/237/8
f 18/240/9 102/239/9 101/238/9
f 102/239/9 18/240/9 103/241/9
f 52/242/9 103/241/9 18/240/9
f 97/243/9 103/241/9 52/242/9
f 103/241/9 97/243/9 104/244/9
f 8/247/9 106/246/9 105/245/9
f 106/246/9 8/247/9 56/248/9
f 14/251/8 82/250/8 64/249/8
f 82/250/8 14/251/8 107/252/8
f 60/255/8 81/254/8 59/253/8
f 81/254/8 60/255/8 108/256/8
f 81/254/8 108/256/8 109/257/8
f 108/256/8 60/255/8 110/258/8
f 110/258/8 60/255/8 83/259/8
f 21/262/9 111/261/9 100/260/9
f 111/261/9 21/262/9 22/263/9
f 18/266/8 112/265/8 17/264/8
f 112/265/8 18/266/8 101/267/8
f 33/270/8 79/269/8 44/268/8
f 79/269/8 33/270/8 113/271/8
f 79/269/8 113/271/8 114/272/8
f 113/271/8 33/270/8 115/273/8
f 115/273/8 33/270/8 89/274/8
f 30/277/9 116/276/9 92/275/9
f 116/276/9 30/277/9 67/278/9
f 4/281/9 117/280/9 94/279/9
f 117/280/9 4/281/9 2/282/9
f 14/285/9 118/284/9 107/283/9
f 118/284/9 14/285/9 12/286/9
f 48/289/8 117/288/8 2/287/8
f 117/288/8 48/289/8 96/290/8
f 36/151/7 41/163/7 35/149/7
f 41/163/7 36/151/7 42/165/7
f 42/165/7 36/151/7 69/153/7
f 42/165/7 69/153/7 59/167/7
f 59/167/7 69/153/7 9/291/7
f 59/167/7 9/291/7 60/292/7
f 60/292/7 9/291/7 5/157/7
f 60/292/7 5/157/7 64/171/7
f 64/171/7 5/157/7 6/159/7
f 64/171/7 6/159/7 14/173/7
f 14/173/7 6/159/7 53/161/7
f 14/173/7 53/161/7 12/175/7
f 68/295/8 116/294/8 67/293/8
f 116/294/8 68/295/8 80/296/8
f 76/299/9 7/298/9 119/297/9
f 7/298/9 76/299/9 10/300/9
f 38/303/8 120/302/8 37/301/8
f 120/302/8 38/303/8 121/304/8
f 8/307/8 119/306/8 7/305/8
f 119/306/8 8/307/8 105/308/8
f 38/311/9 122/310/9 121/309/9
f 122/310/9 38/311/9 123/312/9
f 70/313/9 123/312/9 38/311/9
f 75/314/9 123/312/9 70/313/9
f 123/312/9 75/314/9 124/315/9

