# Created by Kenney (www.kenney.nl)

mtllib crops_cornStageB.mtl

g crops_cornStageB

v -0.025 0.5 -0.025
v -0.025 0.75 -0.025
v -0.025 0.5 0.025
v -0.025 0.75 0.025
v -0.025 0.25 0.025
v -0.025 0.25 -0.025
v -0.025 0.05 0.025
v -0.025 0.05 -0.025
v 0.025 0.5 -0.025
v 0.025 0.75 -0.025
v 0.025 0.25 -0.025
v 0.025 0.05 -0.025
v 0.025 0.25 0.025
v 0.025 0.05 0.025
v 0.025 0.5 0.025
v 0.025 0.75 0.025
v -0.0375 0 -0.0375
v 0.0375 0 -0.0375
v 0.0375 0 0.0375
v -0.0375 0 0.0375
v 0.0125 1 -0.0125
v 0.0125 1 0.0125
v -0.0125 1 -0.0125
v -0.0125 1 0.0125
v 0.03214 0.6088325 -0.04354373
v -0.03214 0.6088325 -0.04354373
v 0.04321 0.6550189 -0.0862797
v -0.04321 0.6550189 -0.0862797
v 0.02106999 0.6789647 -0.152101
v -0.02107001 0.6789647 -0.152101
v 0.04321 0.6550189 0.0862797
v 0.02107 0.6789647 0.152101
v -0.04321 0.6550189 0.0862797
v -0.02107 0.6789647 0.152101
v -0.03214 0.6088325 0.04354373
v 0.03214 0.6088325 0.04354373
v 0.0862797 0.4050189 -0.04321
v 0.0862797 0.4050189 0.04321
v 0.04354373 0.3588325 -0.03214
v 0.04354373 0.3588325 0.03214
v 0.152101 0.4289646 0.02106999
v 0.152101 0.4289646 -0.02107001
v 0.152101 0.9289646 0.02106999
v 0.0862797 0.9050189 0.04321
v 0.152101 0.9289646 -0.02107001
v 0.0862797 0.9050189 -0.04321
v 0.04354373 0.8588325 -0.03214
v 0.04354373 0.8588325 0.03214
v -0.0862797 0.4050189 0.04321
v -0.152101 0.4289646 0.02107001
v -0.0862797 0.4050189 -0.04321
v -0.152101 0.4289646 -0.02106999
v -0.04354373 0.3588325 -0.03214
v -0.04354373 0.3588325 0.03214
v -0.0862797 0.9050189 -0.04321
v -0.04354373 0.8588325 -0.03214
v -0.0862797 0.9050189 0.04321
v -0.04354373 0.8588325 0.03214
v -0.152101 0.9289646 0.02107001
v -0.152101 0.9289646 -0.02106999

vn -1 0 0
vn 0 0 -1
vn 1 0 0
vn 0 0 1
vn 0 0.2425356 -0.9701425
vn 0 0.2425356 0.9701425
vn 0.9701425 0.2425356 0
vn 0 1 0
vn -0.9701425 0.2425356 0
vn 0 0.04993761 -0.9987524
vn 0 0.04993761 0.9987524
vn 0.9987524 0.04993761 0
vn -0.9987524 0.04993761 0
vn 0 -1 0
vn 0 0.1679669 0.9857926
vn 0 -0.1679669 -0.9857926
vn 0 0.9397444 0.3418779
vn 0 -0.9397444 -0.3418779
vn 0 0.6791583 0.7339918
vn 0 -0.6791583 -0.7339918
vn 0 0.9397444 -0.3418779
vn 0 -0.9397444 0.3418779
vn 0 0.1679669 -0.9857926
vn 0 -0.1679669 0.9857926
vn 0 0.6791583 -0.7339918
vn 0 -0.6791583 0.7339918
vn -0.7339918 0.6791583 0
vn 0.7339918 -0.6791583 0
vn -0.9857926 0.1679669 0
vn 0.9857926 -0.1679669 0
vn -0.3418779 0.9397444 0
vn 0.3418779 -0.9397444 0
vn 0.3418779 0.9397444 0
vn -0.3418779 -0.9397444 0
vn 0.9857926 0.1679669 0
vn -0.9857926 -0.1679669 0
vn 0.7339918 0.6791583 0
vn -0.7339918 -0.6791583 0

vt -0.984252 19.68504
vt -0.984252 29.52756
vt 0.984252 19.68504
vt 0.984252 29.52756
vt 0.984252 9.84252
vt -0.984252 9.84252
vt 0.984252 1.968504
vt -0.984252 1.968504
vt 1.476378 -0.3580742
vt -1.476378 -0.3580742
vt 0.984252 1.671013
vt -0.984252 1.671013
vt -0.492126 -0.492126
vt -0.492126 0.492126
vt 0.492126 -0.492126
vt 0.492126 0.492126
vt 0.984252 29.44157
vt -0.984252 29.44157
vt 0.492126 39.29638
vt -0.492126 39.29638
vt 1.476378 1.476378
vt 1.476378 -1.476378
vt -1.476378 1.476378
vt -1.476378 -1.476378
vt 0.984252 19.57069
vt -0.9842519 19.57069
vt 1.265354 23.91719
vt -1.265354 23.91719
vt 1.701181 12.00856
vt -1.701181 12.00856
vt 0.8295276 14.76611
vt -0.8295275 14.76611
vt -1.265354 18.75792
vt -1.701181 21.23528
vt 1.265354 18.75792
vt 1.701181 21.23528
vt -0.8295276 14.76611
vt -0.984252 19.57069
vt -1.701181 14.01095
vt 1.701181 14.01095
vt -1.265354 11.53359
vt 1.265354 11.53359
vt -1.265354 14.2145
vt 1.265354 14.2145
vt -0.9842519 9.868005
vt 0.984252 9.868005
vt 0.8295276 11.40117
vt 1.701181 8.643618
vt -0.8295275 11.40117
vt -1.701181 8.643618
vt 0.8295276 18.13105
vt 1.701181 15.3735
vt -0.8295275 18.13105
vt -1.701181 15.3735
vt -1.701181 28.45961
vt 1.701181 28.45961
vt -1.265354 25.98225
vt 1.265354 25.98225
vt -1.265354 33.61987
vt 1.265354 33.61987
vt -0.9842519 29.27337
vt 0.984252 29.27337

usemtl grass

f 3/3/1 2/2/1 1/1/1
f 2/2/1 3/3/1 4/4/1
f 1/1/1 5/5/1 3/3/1
f 5/5/1 1/1/1 6/6/1
f 6/6/1 7/7/1 5/5/1
f 7/7/1 6/6/1 8/8/1
f 2/4/2 9/1/2 1/3/2
f 9/1/2 2/4/2 10/2/2
f 11/6/2 1/3/2 9/1/2
f 1/3/2 11/6/2 6/5/2
f 12/8/2 6/5/2 11/6/2
f 6/5/2 12/8/2 8/7/2
f 13/6/3 12/7/3 11/5/3
f 12/7/3 13/6/3 14/8/3
f 11/5/3 15/1/3 13/6/3
f 15/1/3 11/5/3 9/3/3
f 9/3/3 16/2/3 15/1/3
f 16/2/3 9/3/3 10/4/3
f 15/3/4 5/6/4 13/5/4
f 5/6/4 15/3/4 3/1/4
f 16/4/4 3/1/4 15/3/4
f 3/1/4 16/4/4 4/2/4
f 7/8/4 13/5/4 5/6/4
f 13/5/4 7/8/4 14/7/4
f 8/11/5 18/10/5 17/9/5
f 18/10/5 8/11/5 12/12/5
f 14/11/6 20/10/6 19/9/6
f 20/10/6 14/11/6 7/12/6
f 12/11/7 19/10/7 18/9/7
f 19/10/7 12/11/7 14/12/7
f 23/15/8 22/14/8 21/13/8
f 22/14/8 23/15/8 24/16/8
f 20/9/9 8/12/9 17/10/9
f 8/12/9 20/9/9 7/11/9
f 23/19/10 10/18/10 2/17/10
f 10/18/10 23/19/10 21/20/10
f 22/19/11 4/18/11 16/17/11
f 4/18/11 22/19/11 24/20/11
f 21/19/12 16/18/12 10/17/12
f 16/18/12 21/19/12 22/20/12
f 4/17/13 23/20/13 2/18/13
f 23/20/13 4/17/13 24/19/13
f 20/23/14 18/22/14 19/21/14
f 18/22/14 20/23/14 17/24/14
f 25/27/15 1/26/15 9/25/15
f 1/26/15 25/27/15 26/28/15
f 9/25/16 1/26/16 25/27/16
f 26/28/16 25/27/16 1/26/16
f 29/31/17 28/30/17 27/29/17
f 28/30/17 29/31/17 30/32/17
f 27/29/18 28/30/18 29/31/18
f 30/32/18 29/31/18 28/30/18
f 25/35/19 28/34/19 26/33/19
f 28/34/19 25/35/19 27/36/19
f 26/33/20 28/34/20 25/35/20
f 27/36/20 25/35/20 28/34/20
f 33/29/21 32/37/21 31/30/21
f 32/37/21 33/29/21 34/31/21
f 31/30/22 32/37/22 33/29/22
f 34/31/22 33/29/22 32/37/22
f 35/27/23 15/38/23 3/25/23
f 15/38/23 35/27/23 36/28/23
f 3/25/24 15/38/24 35/27/24
f 36/28/24 35/27/24 15/38/24
f 35/35/25 31/34/25 36/33/25
f 31/34/25 35/35/25 33/36/25
f 36/33/26 31/34/26 35/35/26
f 33/36/26 35/35/26 31/34/26
f 39/41/27 38/40/27 37/39/27
f 38/40/27 39/41/27 40/42/27
f 37/39/28 38/40/28 39/41/28
f 40/42/28 39/41/28 38/40/28
f 11/45/29 40/44/29 39/43/29
f 40/44/29 11/45/29 13/46/29
f 39/43/30 40/44/30 11/45/30
f 13/46/30 11/45/30 40/44/30
f 42/49/31 38/48/31 41/47/31
f 38/48/31 42/49/31 37/50/31
f 41/47/32 38/48/32 42/49/32
f 37/50/32 42/49/32 38/48/32
f 45/53/31 44/52/31 43/51/31
f 44/52/31 45/53/31 46/54/31
f 43/51/32 44/52/32 45/53/32
f 46/54/32 45/53/32 44/52/32
f 47/57/27 44/56/27 46/55/27
f 44/56/27 47/57/27 48/58/27
f 46/55/28 44/56/28 47/57/28
f 48/58/28 47/57/28 44/56/28
f 10/61/29 48/60/29 47/59/29
f 48/60/29 10/61/29 16/62/29
f 47/59/30 48/60/30 10/61/30
f 16/62/30 10/61/30 48/60/30
f 51/48/33 50/49/33 49/50/33
f 50/49/33 51/48/33 52/47/33
f 49/50/34 50/49/34 51/48/34
f 52/47/34 51/48/34 50/49/34
f 54/43/35 6/46/35 53/44/35
f 6/46/35 54/43/35 5/45/35
f 53/44/36 6/46/36 54/43/36
f 5/45/36 54/43/36 6/46/36
f 49/39/37 53/42/37 51/40/37
f 53/42/37 49/39/37 54/41/37
f 51/40/38 53/42/38 49/39/38
f 54/41/38 49/39/38 53/42/38
f 57/55/37 56/58/37 55/56/37
f 56/58/37 57/55/37 58/57/37
f 55/56/38 56/58/38 57/55/38
f 58/57/38 57/55/38 56/58/38
f 55/52/33 59/53/33 57/54/33
f 59/53/33 55/52/33 60/51/33
f 57/54/34 59/53/34 55/52/34
f 60/51/34 55/52/34 59/53/34
f 58/59/35 2/62/35 56/60/35
f 2/62/35 58/59/35 4/61/35
f 56/60/36 2/62/36 58/59/36
f 4/61/36 58/59/36 2/62/36

