# Created by Kenney (www.kenney.nl)

mtllib crops_dirtDoubleRow.mtl

g crops_dirtDoubleRow

v 0.5 0.05 -0.1266571
v 0.5 0 -0.062
v 0.375 0.05 -0.1266571
v 0.375 0 -0.062
v -0.125 0 -0.5
v -0.125 0.05 -0.4353428
v -0.375 0 -0.4353428
v -0.375 0.05 -0.3706857
v -0.5 0 -0.4353428
v -0.5 0.05 -0.3706857
v 0.125 0.05 -0.1913143
v 0.125 0 -0.1266571
v -0.125 0.05 -0.1913143
v -0.125 0 -0.1266571
v -0.375 0.05 -0.1266571
v -0.375 0 -0.062
v 0.5 0 -0.4353428
v 0.5 0.05 -0.3706857
v 0.375 0 -0.4353428
v 0.375 0.05 -0.3706857
v 0.125 0 -0.5
v 0.125 0.05 -0.4353428
v -0.5 0.05 -0.1266571
v -0.5 0 -0.062
v 0.125 0.05 0.3086857
v 0.125 0 0.3733428
v -0.125 0.05 0.3086857
v -0.125 0 0.3733428
v -0.125 0 7.219114E-15
v -0.125 0.05 0.06465714
v -0.375 0 0.06465714
v -0.375 0.05 0.1293143
v 0.5 0.05 0.3733428
v 0.5 0 0.438
v 0.375 0.05 0.3733428
v 0.375 0 0.438
v 0.5 0 0.06465714
v 0.5 0.05 0.1293143
v 0.375 0 0.06465714
v 0.375 0.05 0.1293143
v 0.125 0 7.219114E-15
v 0.125 0.05 0.06465714
v -0.375 0.05 0.3733428
v -0.375 0 0.438
v -0.5 0.05 0.3733428
v -0.5 0 0.438
v -0.5 0 0.06465714
v -0.5 0.05 0.1293143

vn 0 0.791062 0.611736
vn -0.1562687 0.7813435 -0.6042206
vn 0 0.791062 -0.611736
vn 0.1562687 0.7813435 0.6042206
vn -0.1562687 0.7813435 0.6042206
vn 0.1562687 0.7813435 -0.6042206
vn 0 -1 0
vn 1 0 0
vn 0 1 0
vn -1 0 0

vt 19.68504 5.148837
vt 19.68504 1.930939
vt 14.76378 5.148837
vt 14.76378 1.930939
vt -0.1644431 -15.85362
vt 0.4729388 -12.69948
vt 10.00193 -15.85362
vt 10.63931 -12.69948
vt 14.76378 -13.55839
vt 14.76378 -10.3405
vt 19.68504 -13.55839
vt 19.68504 -10.3405
vt 4.92126 7.16253
vt 4.92126 3.944632
vt -4.92126 7.16253
vt -4.92126 3.944632
vt -2.878541 7.888999
vt -3.515924 4.734857
vt -13.04491 7.888999
vt -13.68229 4.734857
vt -19.68504 -13.55839
vt -19.68504 -10.3405
vt -14.76378 -13.55839
vt -14.76378 -10.3405
vt 13.04491 7.888999
vt 13.68229 4.734857
vt 2.878541 7.888999
vt 3.515924 4.734857
vt -4.92126 -15.57209
vt -4.92126 -12.35419
vt 4.92126 -15.57209
vt 4.92126 -12.35419
vt -14.76378 5.148837
vt -14.76378 1.930939
vt -19.68504 5.148837
vt -19.68504 1.930939
vt -10.00193 -15.85362
vt -10.63931 -12.69948
vt 0.1644431 -15.85362
vt -0.4729388 -12.69948
vt 4.92126 -8.409556
vt 4.92126 -11.62745
vt -4.92126 -8.409556
vt -4.92126 -11.62745
vt 4.764493 -0.9627981
vt 5.401875 2.191344
vt 14.93086 -0.9627981
vt 15.56824 2.191344
vt 19.68504 -10.42325
vt 19.68504 -13.64115
vt 14.76378 -10.42325
vt 14.76378 -13.64115
vt -19.68504 2.013693
vt -19.68504 5.231591
vt -14.76378 2.013693
vt -14.76378 5.231591
vt -14.93086 -0.9627981
vt -15.56824 2.191344
vt -4.764493 -0.9627981
vt -5.401875 2.191344
vt 17.97385 -7.001825
vt 18.61123 -10.15597
vt 7.807478 -7.001825
vt 8.44486 -10.15597
vt -14.76378 -10.42325
vt -14.76378 -13.64115
vt -19.68504 -10.42325
vt -19.68504 -13.64115
vt 14.76378 2.013693
vt 14.76378 5.231591
vt 19.68504 2.013693
vt 19.68504 5.231591
vt -4.92126 2.248333E-13
vt -4.92126 3.217898
vt 4.92126 2.248333E-13
vt 4.92126 3.217898
vt -7.807478 -7.001825
vt -8.44486 -10.15597
vt -17.97385 -7.001825
vt -18.61123 -10.15597
vt 19.68504 -2.440945
vt 19.68504 -17.13948
vt 14.76378 -2.440945
vt 14.76378 -17.13948
vt 4.92126 -4.986502
vt 4.92126 -19.68504
vt -4.92126 -4.986502
vt -4.92126 -19.68504
vt -14.76378 -2.440945
vt -14.76378 -17.13948
vt -19.68504 -2.440945
vt -19.68504 -17.13948
vt 17.13948 0
vt 2.440945 0
vt 14.59393 1.968504
vt 4.986502 1.968504
vt -19.68504 -14.59393
vt -19.68504 -4.986502
vt -14.76378 -14.59393
vt -14.76378 -4.986502
vt -4.92126 -17.13948
vt -4.92126 -7.532059
vt 4.92126 -17.13948
vt 4.92126 -7.532059
vt 14.76378 -14.59393
vt 14.76378 -4.986502
vt 19.68504 -14.59393
vt 19.68504 -4.986502
vt -17.13948 0
vt -14.59393 1.968504
vt -2.440945 0
vt -4.986502 1.968504
vt -2.545557 0
vt -17.24409 0
vt -5.091114 1.968504
vt -14.69854 1.968504
vt 19.68504 17.24409
vt 19.68504 2.545557
vt 14.76378 17.24409
vt 14.76378 2.545557
vt 4.92126 14.69854
vt 4.92126 2.842171E-13
vt -4.92126 14.69854
vt -4.92126 2.842171E-13
vt -14.76378 17.24409
vt -14.76378 2.545557
vt -19.68504 17.24409
vt -19.68504 2.545557
vt -19.68504 5.091114
vt -19.68504 14.69854
vt -14.76378 5.091114
vt -14.76378 14.69854
vt -4.92126 2.545557
vt -4.92126 12.15298
vt 4.92126 2.545557
vt 4.92126 12.15298
vt 14.76378 5.091114
vt 14.76378 14.69854
vt 19.68504 5.091114
vt 19.68504 14.69854
vt 2.545557 0
vt 5.091114 1.968504
vt 17.24409 0
vt 14.69854 1.968504

usemtl dirtDark

f 3/3/1 2/2/1 1/1/1
f 2/2/1 3/3/1 4/4/1
f 7/7/2 6/6/2 5/5/2
f 6/6/2 7/7/2 8/8/2
f 9/11/3 8/10/3 7/9/3
f 8/10/3 9/11/3 10/12/3
f 13/15/1 12/14/1 11/13/1
f 12/14/1 13/15/1 14/16/1
f 15/19/4 14/18/4 13/17/4
f 14/18/4 15/19/4 16/20/4
f 19/23/3 18/22/3 17/21/3
f 18/22/3 19/23/3 20/24/3
f 11/27/5 4/26/5 3/25/5
f 4/26/5 11/27/5 12/28/5
f 5/31/3 22/30/3 21/29/3
f 22/30/3 5/31/3 6/32/3
f 23/35/1 16/34/1 15/33/1
f 16/34/1 23/35/1 24/36/1
f 21/39/6 20/38/6 19/37/6
f 20/38/6 21/39/6 22/40/6
f 27/43/1 26/42/1 25/41/1
f 26/42/1 27/43/1 28/44/1
f 31/47/2 30/46/2 29/45/2
f 30/46/2 31/47/2 32/48/2
f 35/51/1 34/50/1 33/49/1
f 34/50/1 35/51/1 36/52/1
f 39/55/3 38/54/3 37/53/3
f 38/54/3 39/55/3 40/56/3
f 41/59/6 40/58/6 39/57/6
f 40/58/6 41/59/6 42/60/6
f 25/63/5 36/62/5 35/61/5
f 36/62/5 25/63/5 26/64/5
f 45/67/1 44/66/1 43/65/1
f 44/66/1 45/67/1 46/68/1
f 47/71/3 32/70/3 31/69/3
f 32/70/3 47/71/3 48/72/3
f 29/75/3 42/74/3 41/73/3
f 42/74/3 29/75/3 30/76/3
f 43/79/4 28/78/4 27/77/4
f 28/78/4 43/79/4 44/80/4

usemtl dirt

f 4/83/7 17/82/7 2/81/7
f 17/82/7 4/83/7 19/84/7
f 19/84/7 4/83/7 12/85/7
f 19/84/7 12/85/7 21/86/7
f 21/86/7 12/85/7 14/87/7
f 21/86/7 14/87/7 5/88/7
f 5/88/7 14/87/7 16/89/7
f 5/88/7 16/89/7 7/90/7
f 7/90/7 16/89/7 24/91/7
f 7/90/7 24/91/7 9/92/7
f 18/95/8 2/94/8 17/93/8
f 2/94/8 18/95/8 1/96/8
f 20/99/9 1/98/9 18/97/9
f 1/98/9 20/99/9 3/100/9
f 3/100/9 20/99/9 22/101/9
f 3/100/9 22/101/9 11/102/9
f 11/102/9 22/101/9 6/103/9
f 11/102/9 6/103/9 13/104/9
f 13/104/9 6/103/9 8/105/9
f 13/104/9 8/105/9 15/106/9
f 15/106/9 8/105/9 10/107/9
f 15/106/9 10/107/9 23/108/9
f 24/111/10 10/110/10 9/109/10
f 10/110/10 24/111/10 23/112/10
f 38/115/8 34/114/8 37/113/8
f 34/114/8 38/115/8 33/116/8
f 36/119/7 37/118/7 34/117/7
f 37/118/7 36/119/7 39/120/7
f 39/120/7 36/119/7 26/121/7
f 39/120/7 26/121/7 41/122/7
f 41/122/7 26/121/7 28/123/7
f 41/122/7 28/123/7 29/124/7
f 29/124/7 28/123/7 44/125/7
f 29/124/7 44/125/7 31/126/7
f 31/126/7 44/125/7 46/127/7
f 31/126/7 46/127/7 47/128/7
f 40/131/9 33/130/9 38/129/9
f 33/130/9 40/131/9 35/132/9
f 35/132/9 40/131/9 42/133/9
f 35/132/9 42/133/9 25/134/9
f 25/134/9 42/133/9 30/135/9
f 25/134/9 30/135/9 27/136/9
f 27/136/9 30/135/9 32/137/9
f 27/136/9 32/137/9 43/138/9
f 43/138/9 32/137/9 48/139/9
f 43/138/9 48/139/9 45/140/9
f 46/143/10 48/142/10 47/141/10
f 48/142/10 46/143/10 45/144/10

