# Created by Kenney (www.kenney.nl)

mtllib crop_carrot.mtl

g crop_carrot

v -0.1206398 0.4200111 -0.03321
v -0.1206398 0.4200111 0.03321
v -0.171571 0.416081 -0.01107
v -0.171571 0.416081 0.01107
v 0.03321 0.4200111 -0.1206398
v -0.03320999 0.4200111 -0.1206398
v 0.01107001 0.416081 -0.171571
v -0.01106999 0.416081 -0.171571
v -0.01107 0.3031 0.01107
v 0.01107 0.3031 0.01107
v -0.02214 0.3947298 0.0732239
v 0.02214 0.3947298 0.0732239
v 0.03321 0.4200111 0.1206398
v 0.01107 0.416081 0.171571
v -0.03321 0.4200111 0.1206398
v -0.01107 0.416081 0.171571
v 0.06389733 0.5770818 -0.03321
v 0.06389733 0.5770818 0.03321
v 0.02705598 0.4954516 -0.02214
v 0.02705598 0.4954516 0.02214
v -0.02214 0.4594834 0.02705598
v 0.02214 0.4594834 0.02705598
v -0.03321 0.5258495 0.06389733
v 0.03321 0.5258495 0.06389733
v -0.06389733 0.4657071 -0.03321
v -0.02705597 0.4172599 -0.02214
v -0.06389733 0.4657071 0.03321
v -0.02705598 0.4172599 0.02214
v 0.01107 0.3031 -0.01107
v 0.1206398 0.6194037 -0.01107
v 0.1206398 0.6194037 0.01107
v 0.01107 0.5602574 0.1206398
v -0.01107 0.5602574 0.1206398
v -0.01107 0.3031 -0.01107
v -0.1206398 0.490825 -0.01107
v -0.1206398 0.490825 0.01107
v 0.02214 0.4594834 -0.02705598
v -0.02214 0.4594834 -0.02705598
v 0.03321 0.5258495 -0.06389733
v -0.03321 0.5258495 -0.06389733
v 0.0732239 0.3947298 -0.02214
v 0.0732239 0.3947298 0.02214
v -0.0732239 0.3947298 -0.02214
v -0.0732239 0.3947298 0.02214
v 0.171571 0.416081 -0.01107
v 0.171571 0.416081 0.01107
v 0.1206398 0.4200111 -0.03321
v 0.1206398 0.4200111 0.03321
v 0.02214 0.3947298 -0.0732239
v -0.02214 0.3947298 -0.0732239
v 0.01107 0.5602574 -0.1206398
v -0.01107 0.5602574 -0.1206398
v 0.0363315 0.3031 -0.020976
v 0.0363315 0.3031 0.020976
v -1.082867E-15 0.3031 -0.041952
v -0.0363315 0.3031 -0.020976
v -1.082867E-15 0.3031 0.041952
v -0.0363315 0.3031 0.020976
v 0 0.0262 -0.0393
v 0.0340348 0.0262 -0.01965
v -7.219114E-16 0.2631 -0.06659999
v 0.05767729 0.2631 -0.0333
v 0.02314366 0 0.013362
v 0 0 0.026724
v 0.0340348 0.0262 0.01965
v 0 0.0262 0.0393
v 0.02314366 0 -0.013362
v -0.02314366 0 0.013362
v -0.0340348 0.0262 0.01965
v -0.0340348 0.0262 -0.01965
v -0.05767729 0.2631 -0.0333
v -0.02314366 0 -0.013362
v 0 0 -0.026724
v -7.219114E-16 0.2631 0.06659999
v -0.05767729 0.2631 0.0333
v 0.05767729 0.2631 0.0333

vn -0.07693703 0.997036 0
vn 0.07693703 -0.997036 0
vn 0 0.997036 -0.07693703
vn 0 -0.997036 0.07693703
vn 0 0.5613562 -0.8275743
vn 0 -0.5613562 0.8275743
vn 0 0.997036 0.07693703
vn 0 -0.997036 -0.07693703
vn -0.9114707 0.4113651 0
vn 0.9114707 -0.4113651 0
vn 0 0.8824083 -0.4704844
vn 0 -0.8824083 0.4704844
vn 0 0.4853545 -0.8743175
vn 0 -0.4853545 0.8743175
vn 0 0.101693 -0.9948158
vn 0 -0.101693 0.9948158
vn 0.7959921 0.605307 0
vn -0.7959921 -0.605307 0
vn -0.9965643 0.08282254 0
vn 0.9965643 -0.08282254 0
vn -0.5978731 0.8015907 0
vn 0.5978731 -0.8015907 0
vn 0 0.8550734 -0.5185071
vn 0 -0.8550734 0.5185071
vn 0.9903375 0.1386784 0
vn -0.9903375 -0.1386784 0
vn 0.4047785 0.9144148 0
vn -0.4047785 -0.9144148 0
vn 0 0.4853545 0.8743175
vn 0 -0.4853545 -0.8743175
vn 0 1 0
vn -0.8275743 0.5613562 0
vn 0.8275743 -0.5613562 0
vn 0.4704844 0.8824083 0
vn -0.4704844 -0.8824083 0
vn 0.8275743 0.5613562 0
vn -0.8275743 -0.5613562 0
vn 0.07693703 0.997036 0
vn -0.07693703 -0.997036 0
vn -0.4704844 0.8824083 0
vn 0.4704844 -0.8824083 0
vn 0 0.5613562 0.8275743
vn 0 -0.5613562 -0.8275743
vn 0 0.8550734 0.5185071
vn 0 -0.8550734 -0.5185071
vn 0 0.101693 0.9948158
vn 0 -0.101693 -0.9948158
vn 0 0.8824083 0.4704844
vn 0 -0.8824083 -0.4704844
vn 0.4975285 -0.09930616 -0.8617446
vn 0.461698 -0.3838485 0.7996844
vn 0.9233961 -0.3838485 0
vn -0.461698 -0.3838485 0.7996844
vn -0.4975285 -0.09930616 -0.8617446
vn -0.9233961 -0.3838485 0
vn 0 -1 0
vn 0.461698 -0.3838485 -0.7996844
vn -0.4411194 0.4708022 0.7640412
vn -0.461698 -0.3838485 -0.7996844
vn -0.8822388 0.4708022 0
vn -0.4411194 0.4708022 -0.7640412
vn -0.995057 -0.09930616 0
vn 0.995057 -0.09930616 0
vn 0.4975285 -0.09930616 0.8617446
vn 0.8822388 0.4708022 0
vn 0.4411194 0.4708022 0.7640412
vn 0.4411194 0.4708022 -0.7640412
vn -0.4975285 -0.09930616 0.8617446

vt -1.30748 -3.463301
vt 1.30748 -3.463301
vt -0.4358267 -5.474426
vt 0.4358268 -5.474426
vt 0.4358268 10.12016
vt -0.4358268 10.12016
vt 0.8716536 14.47925
vt -0.8716536 14.47925
vt -0.4358268 -5.474426
vt -1.30748 21.74324
vt 1.30748 21.74324
vt -0.8716536 18.2173
vt 0.8716536 18.2173
vt -1.30748 11.97096
vt 1.30748 11.97096
vt -0.8716536 9.855417
vt 0.8716536 9.855417
vt 0.8716536 16.33331
vt -0.8716536 16.33331
vt 1.30748 19.32174
vt -1.30748 19.32174
vt 0.4358268 11.91553
vt -0.4358268 11.91553
vt 0.8716536 18.10444
vt -0.8716536 18.10444
vt 1.30748 16.11719
vt 0.8716536 13.72097
vt -1.30748 16.11719
vt -0.8716536 13.72097
vt -0.8716536 19.52718
vt 0.8716536 19.52718
vt -0.4358268 11.92817
vt 0.4358268 11.92817
vt -0.4358268 18.38695
vt 0.4358268 18.38695
vt -1.30748 15.60005
vt 1.30748 15.60005
vt -1.30748 12.88557
vt -0.4358268 15.49816
vt 1.30748 12.88557
vt 0.4358268 15.49816
vt 0.8716536 16.41654
vt 0.4358267 11.87821
vt -0.8716536 16.41654
vt -0.4358268 11.87821
vt 1.30748 9.721924
vt -1.30748 9.721924
vt 0.4358267 12.16497
vt -0.4358268 12.16497
vt -0.4358268 -0.4358268
vt -0.4358268 0.4358268
vt 0.4358267 -0.4358268
vt 0.4358268 0.4358268
vt 0.4358267 10.12016
vt -0.4358267 11.91553
vt 0.8716535 9.855417
vt -1.430374 -0.8258268
vt -1.430374 0.8258268
vt 4.263256E-14 -1.651654
vt 1.430374 -0.8258268
vt 4.263256E-14 1.651654
vt 1.430374 0.8258268
vt 0.773622 1.159463
vt -0.773622 1.159463
vt 1.311024 10.53257
vt -1.311024 10.53257
vt 0.526063 0.3497504
vt -0.526063 0.3497504
vt 0.773622 1.466818
vt -0.773622 1.466818
vt 0.9111679 0.526063
vt 0.9111679 -0.526063
vt 0 1.052126
vt 0 -1.052126
vt -0.9111679 0.526063
vt -0.9111679 -0.526063
vt 1.311024 8.069387
vt -1.311024 8.069387
vt 0.8258268 9.854395
vt -0.8258268 9.854395

usemtl grass

f 3/3/1 2/2/1 1/1/1
f 2/2/1 3/3/1 4/4/1
f 1/1/2 2/2/2 3/3/2
f 4/4/2 3/3/2 2/2/2
f 7/3/3 6/2/3 5/1/3
f 6/2/3 7/3/3 8/4/3
f 5/1/4 6/2/4 7/3/4
f 8/4/4 7/3/4 6/2/4
f 11/7/5 10/6/5 9/5/5
f 10/6/5 11/7/5 12/8/5
f 9/5/6 10/6/6 11/7/6
f 12/8/6 11/7/6 10/6/6
f 15/1/7 14/4/7 13/2/7
f 14/4/7 15/1/7 16/9/7
f 13/2/8 14/4/8 15/1/8
f 16/9/8 15/1/8 14/4/8
f 19/12/9 18/11/9 17/10/9
f 18/11/9 19/12/9 20/13/9
f 17/10/10 18/11/10 19/12/10
f 20/13/10 19/12/10 18/11/10
f 12/16/11 15/15/11 13/14/11
f 15/15/11 12/16/11 11/17/11
f 13/14/12 15/15/12 12/16/12
f 11/17/12 12/16/12 15/15/12
f 23/20/13 22/19/13 21/18/13
f 22/19/13 23/20/13 24/21/13
f 21/18/14 22/19/14 23/20/14
f 24/21/14 23/20/14 22/19/14
f 21/24/15 10/23/15 9/22/15
f 10/23/15 21/24/15 22/25/15
f 9/22/16 10/23/16 21/24/16
f 22/25/16 21/24/16 10/23/16
f 27/28/17 26/27/17 25/26/17
f 26/27/17 27/28/17 28/29/17
f 25/26/18 26/27/18 27/28/18
f 28/29/18 27/28/18 26/27/18
f 29/32/19 20/31/19 19/30/19
f 20/31/19 29/32/19 10/33/19
f 19/30/20 20/31/20 29/32/20
f 10/33/20 29/32/20 20/31/20
f 17/36/21 31/35/21 30/34/21
f 31/35/21 17/36/21 18/37/21
f 30/34/22 31/35/22 17/36/22
f 18/37/22 17/36/22 31/35/22
f 23/40/23 32/39/23 24/38/23
f 32/39/23 23/40/23 33/41/23
f 24/38/24 32/39/24 23/40/24
f 33/41/24 23/40/24 32/39/24
f 28/44/25 34/43/25 26/42/25
f 34/43/25 28/44/25 9/45/25
f 26/42/26 34/43/26 28/44/26
f 9/45/26 28/44/26 34/43/26
f 35/48/27 27/47/27 25/46/27
f 27/47/27 35/48/27 36/49/27
f 25/46/28 27/47/28 35/48/28
f 36/49/28 35/48/28 27/47/28
f 39/20/29 38/19/29 37/18/29
f 38/19/29 39/20/29 40/21/29
f 37/18/30 38/19/30 39/20/30
f 40/21/30 39/20/30 38/19/30
f 34/52/31 10/51/31 29/50/31
f 10/51/31 34/52/31 9/53/31
f 29/6/32 42/7/32 41/8/32
f 42/7/32 29/6/32 10/5/32
f 41/8/33 42/7/33 29/6/33
f 10/5/33 29/6/33 42/7/33
f 1/15/34 44/16/34 43/17/34
f 44/16/34 1/15/34 2/14/34
f 43/17/35 44/16/35 1/15/35
f 2/14/35 1/15/35 44/16/35
f 44/8/36 34/54/36 43/7/36
f 34/54/36 44/8/36 9/6/36
f 43/7/37 34/54/37 44/8/37
f 9/6/37 44/8/37 34/54/37
f 47/2/38 46/9/38 45/4/38
f 46/9/38 47/2/38 48/1/38
f 45/4/39 46/9/39 47/2/39
f 48/1/39 47/2/39 46/9/39
f 41/16/40 48/15/40 47/14/40
f 48/15/40 41/16/40 42/17/40
f 47/14/41 48/15/41 41/16/41
f 42/17/41 41/16/41 48/15/41
f 49/7/42 34/6/42 29/54/42
f 34/6/42 49/7/42 50/8/42
f 29/54/43 34/6/43 49/7/43
f 50/8/43 49/7/43 34/6/43
f 51/41/44 40/38/44 39/40/44
f 40/38/44 51/41/44 52/39/44
f 39/40/45 40/38/45 51/41/45
f 52/39/45 51/41/45 40/38/45
f 37/24/46 34/55/46 29/22/46
f 34/55/46 37/24/46 38/25/46
f 29/22/47 34/55/47 37/24/47
f 38/25/47 37/24/47 34/55/47
f 6/14/48 49/56/48 5/15/48
f 49/56/48 6/14/48 50/16/48
f 5/15/49 49/56/49 6/14/49
f 50/16/49 6/14/49 49/56/49

usemtl leafsFall

f 55/59/31 54/58/31 53/57/31
f 54/58/31 55/59/31 29/50/31
f 29/50/31 55/59/31 34/52/31
f 34/52/31 55/59/31 56/60/31
f 34/52/31 56/60/31 9/53/31
f 10/51/31 54/58/31 29/50/31
f 54/58/31 10/51/31 57/61/31
f 57/61/31 10/51/31 9/53/31
f 57/61/31 9/53/31 58/62/31
f 58/62/31 9/53/31 56/60/31
f 61/65/50 60/64/50 59/63/50
f 60/64/50 61/65/50 62/66/50
f 65/69/51 64/68/51 63/67/51
f 64/68/51 65/69/51 66/70/51
f 65/70/52 67/67/52 60/69/52
f 67/67/52 65/70/52 63/68/52
f 66/69/53 68/68/53 64/67/53
f 68/68/53 66/69/53 69/70/53
f 71/65/54 59/64/54 70/63/54
f 59/64/54 71/65/54 61/66/54
f 72/68/55 69/69/55 70/70/55
f 69/69/55 72/68/55 68/67/55
f 64/73/56 67/72/56 63/71/56
f 67/72/56 64/73/56 73/74/56
f 73/74/56 64/73/56 68/75/56
f 73/74/56 68/75/56 72/76/56
f 59/69/57 67/68/57 73/67/57
f 67/68/57 59/69/57 60/70/57
f 57/79/58 75/78/58 74/77/58
f 75/78/58 57/79/58 58/80/58
f 70/69/59 73/68/59 72/67/59
f 73/68/59 70/69/59 59/70/59
f 75/77/60 56/80/60 71/78/60
f 56/80/60 75/77/60 58/79/60
f 56/79/61 61/78/61 71/77/61
f 61/78/61 56/79/61 55/80/61
f 70/64/62 75/65/62 71/66/62
f 75/65/62 70/64/62 69/63/62
f 76/66/63 60/63/63 62/65/63
f 60/63/63 76/66/63 65/64/63
f 76/65/64 66/64/64 65/63/64
f 66/64/64 76/65/64 74/66/64
f 53/79/65 76/78/65 62/77/65
f 76/78/65 53/79/65 54/80/65
f 54/79/66 74/78/66 76/77/66
f 74/78/66 54/79/66 57/80/66
f 55/79/67 62/78/67 61/77/67
f 62/78/67 55/79/67 53/80/67
f 74/65/68 69/64/68 66/63/68
f 69/64/68 74/65/68 75/66/68

