# Created by Kenney (www.kenney.nl)

mtllib crop_melon.mtl

g crop_melon

v 0.1808261 0.087 -0.04845221
v 0.143154 0 -0.038358
v 0.2088 0.087 2.165734E-15
v 0.1653 0 0
v -0.2088 0.261 0
v -0.1808261 0.261 0.04845221
v -0.2088 0.087 2.165734E-15
v -0.1808261 0.087 0.04845221
v -0.1653 0 0
v -0.143154 0 0.038358
v -0.1044 0.261 -0.1808261
v -0.1323739 0.261 -0.1323739
v -0.1044 0.087 -0.1808261
v -0.1323739 0.087 -0.1323739
v 0.1044 0.087 -0.1808261
v 0.1044 0.261 -0.1808261
v 0.04845221 0.087 -0.1808261
v 0.04845221 0.261 -0.1808261
v -0.1323739 0.087 0.1323739
v -0.1323739 0.261 0.1323739
v -0.1044 0.087 0.1808261
v -0.1044 0.261 0.1808261
v 0.143154 0 0.038358
v 0.123975 0 0.071577
v 0.123975 0 -0.071577
v 0.104796 0 0.104796
v 0.104796 0 -0.104796
v 0.08265 0 0.143154
v 0.08265 0 -0.143154
v 0.038358 0 0.143154
v 0.038358 0 -0.143154
v 3.609557E-16 0 0.143154
v 3.609557E-16 0 -0.143154
v -0.038358 0 0.143154
v -0.038358 0 -0.143154
v -0.08265 0 0.143154
v -0.08265 0 -0.143154
v -0.104796 0 -0.104796
v -0.104796 0 0.104796
v -0.123975 0 0.071577
v -0.123975 0 -0.071577
v -0.143154 0 -0.038358
v -0.1808261 0.261 -0.04845221
v -0.143154 0.348 -0.038358
v -0.1653 0.348 0
v 0.1808261 0.261 -0.04845221
v 0.2088 0.261 0
v -0.04845221 0.087 -0.1808261
v -0.02497431 0.348 -0.066438
v -0.038358 0.348 -0.066438
v -0.038358 0.348 -0.143154
v -0.08265 0.348 -0.143154
v -0.04504985 0.348 -0.05484739
v -0.104796 0.348 -0.104796
v -0.1808261 0.087 -0.04845221
v 0.1044 0.087 0.1808261
v 0.04845221 0.087 0.1808261
v 0.1323739 0.261 -0.1323739
v 0.08265 0.348 -0.143154
v 0.104796 0.348 -0.104796
v 0.1323739 0.087 0.1323739
v -0.04845221 0.087 0.1808261
v -0.04845221 0.261 0.1808261
v -0.038358 0.348 0.143154
v -0.08265 0.348 0.143154
v 0.1323739 0.087 -0.1323739
v -0.04845221 0.261 -0.1808261
v 0.1653 0.348 0
v 0.143154 0.348 0.038358
v 0.1808261 0.261 0.04845221
v 0.1323739 0.261 0.1323739
v 0.1044 0.261 0.1808261
v 0.143154 0.348 -0.038358
v 0.076716 0.348 1.443823E-15
v 0.07002416 0.348 -0.01159062
v 0.07002416 0.348 0.01159062
v 0.104796 0.348 0.104796
v 0.08265 0.348 0.143154
v 0.04504985 0.348 0.05484739
v 0.038358 0.348 0.143154
v 0.038358 0.348 0.066438
v 0.02497431 0.348 0.066438
v 0.04845221 0.261 0.1808261
v -0.143154 0.348 0.038358
v 0.038358 0.348 -0.143154
v -0.02497431 0.348 0.066438
v -0.038358 0.348 0.066438
v -0.04504985 0.348 0.05484739
v -0.104796 0.348 0.104796
v 0.04504985 0.348 -0.05484739
v 0.038358 0.348 -0.066438
v 0.02497431 0.348 -0.066438
v -0.07002416 0.348 -0.01159062
v -0.076716 0.348 3.609557E-15
v -0.07002416 0.348 0.01159062
v 0.1808261 0.087 0.04845221
v 0.1566 0.087 -0.09041305
v 3.609557E-16 0.087 -0.1808261
v 3.609557E-16 0.261 -0.1808261
v -0.1566 0.261 -0.09041305
v -0.123975 0.348 -0.071577
v -0.1566 0.087 -0.09041305
v 3.609557E-16 0.261 0.1808261
v 3.609557E-16 0.348 0.143154
v 0.1566 0.087 0.09041305
v -0.1566 0.087 0.09041305
v -0.1566 0.261 0.09041305
v 0.123975 0.348 -0.071577
v 0.038358 0.348 0
v 0.019179 0.348 0.033219
v -0.019179 0.348 0.033219
v 0.019179 0.348 -0.033219
v 3.609557E-16 0.348 -0.143154
v -0.019179 0.348 -0.033219
v -0.038358 0.348 1.443823E-15
v -0.123975 0.348 0.071577
v 0.123975 0.348 0.071577
v 0.1566 0.261 -0.09041305
v 3.609557E-16 0.087 0.1808261
v 0.1566 0.261 0.09041305

vn 0.7947195 -0.3973597 -0.4588315
vn -0.8660254 0 0.5
vn -0.7947195 -0.3973597 0.4588315
vn -0.8660254 0 -0.5
vn 0 0 -1
vn 0 -1 0
vn -0.7947195 0.3973597 -0.4588315
vn 0.8660254 0 -0.5
vn 0 -0.3973597 -0.9176629
vn 0 1 0
vn -0.7947195 -0.3973597 -0.4588315
vn 0 -0.3973597 0.9176629
vn 0.7947195 0.3973597 -0.4588315
vn 0.7947195 -0.3973597 0.4588315
vn 0 0.3973597 0.9176629
vn 0.7947195 0.3973597 0.4588315
vn 0.8660254 0 0.5
vn 0 0 1
vn -0.7947195 0.3973597 0.4588315
vn 0 0.3973597 -0.9176629

vt -1.907567 5.972035
vt -1.510157 2.239513
vt -4.110236 5.972035
vt -3.253937 2.239513
vt -4.110236 10.27559
vt -1.907567 10.27559
vt -4.110236 3.425197
vt -1.907567 3.425197
vt 1.907567 3.425197
vt 1.907567 10.27559
vt 4.110236 3.425197
vt 4.110236 10.27559
vt 6.507874 0
vt 5.635984 -1.510157
vt 5.635984 1.510157
vt 4.880906 2.817992
vt 4.880906 -2.817992
vt 4.125827 4.125827
vt 4.125827 -4.125827
vt 3.253937 5.635984
vt 3.253937 -5.635984
vt 1.510157 5.635984
vt 1.510157 -5.635984
vt 1.421085E-14 5.635984
vt 1.421085E-14 -5.635984
vt -1.510157 5.635984
vt -1.510157 -5.635984
vt -3.253937 5.635984
vt -3.253937 -5.635984
vt -4.125827 -4.125827
vt -4.125827 4.125827
vt -4.880906 2.817992
vt -4.880906 -2.817992
vt -5.635984 1.510157
vt -5.635984 -1.510157
vt -6.507874 0
vt 1.907567 6.60067
vt 1.510157 10.33319
vt 4.110236 6.60067
vt 3.253937 10.33319
vt 3.253937 2.239513
vt 1.510157 2.239513
vt 4.110236 5.972035
vt 1.907567 5.972035
vt 0.9832404 -2.615669
vt 1.510157 -2.615669
vt 1.773616 -2.159346
vt -4.110236 6.60067
vt -3.253937 10.33319
vt -1.907567 6.60067
vt -1.510157 10.33319
vt -3.020315 5.684342E-14
vt -2.756856 -0.4563235
vt -2.756856 0.4563235
vt -1.773616 2.159346
vt -1.510157 2.615669
vt -0.9832404 2.615669
vt 0.9832404 2.615669
vt 1.510157 2.615669
vt 1.773616 2.159346
vt -1.773616 -2.159346
vt -1.510157 -2.615669
vt -0.9832404 -2.615669
vt 2.756856 -0.4563235
vt 3.020315 1.421085E-13
vt 2.756856 0.4563235
vt -7.993606E-14 5.972035
vt -3.730349E-14 2.239513
vt 1.703531E-13 3.425197
vt 1.703531E-13 10.27559
vt -7.283063E-14 6.60067
vt -5.417888E-14 10.33319
vt 1.645674E-13 2.239513
vt 2.116143E-13 5.972035
vt -5.151435E-14 5.972035
vt -3.637952E-14 6.60067
vt -2.583986E-14 10.33319
vt -8.926193E-14 3.425197
vt -8.926193E-14 10.27559
vt 3.508305E-14 2.239513
vt 1.021405E-14 5.972035
vt -6.217249E-15 3.425197
vt -5.551115E-14 10.27559
vt -1.510157 -4.203895E-45
vt -0.7550787 1.307835
vt -1.421085E-14 5.635984
vt 0.7550787 1.307835
vt -0.7550787 -1.307835
vt -1.421085E-14 -5.635984
vt 0.7550787 -1.307835
vt 1.510157 5.684342E-14
vt -5.684342E-14 10.33319
vt -3.597123E-14 6.60067
vt 1.890904E-13 6.60067
vt 1.46736E-13 10.33319
vt -6.439294E-14 10.27559
vt -1.065814E-13 3.425197
vt -5.861978E-14 2.239513
vt 1.065814E-14 5.972035
vt -3.085902E-14 2.239513
vt -4.271952E-14 5.972035
vt 2.04281E-14 10.33319
vt -7.549517E-15 6.60067
vt -3.330669E-14 6.60067
vt -3.419487E-14 10.33319
vt -5.500064E-14 3.425197
vt -5.500064E-14 10.27559
vt -1.998401E-14 3.425197
vt -1.998401E-14 10.27559

usemtl grass

f 3/3/1 2/2/1 1/1/1
f 2/2/1 3/3/1 4/4/1
f 7/7/2 6/6/2 5/5/2
f 6/6/2 7/7/2 8/8/2
f 10/2/3 7/3/3 9/4/3
f 7/3/3 10/2/3 8/1/3
f 13/7/4 12/6/4 11/5/4
f 12/6/4 13/7/4 14/8/4
f 17/8/5 16/5/5 15/7/5
f 16/5/5 17/8/5 18/6/5
f 21/11/2 20/10/2 19/9/2
f 20/10/2 21/11/2 22/12/2
f 23/15/6 2/14/6 4/13/6
f 2/14/6 23/15/6 24/16/6
f 2/14/6 24/16/6 25/17/6
f 25/17/6 24/16/6 26/18/6
f 25/17/6 26/18/6 27/19/6
f 27/19/6 26/18/6 28/20/6
f 27/19/6 28/20/6 29/21/6
f 29/21/6 28/20/6 30/22/6
f 29/21/6 30/22/6 31/23/6
f 31/23/6 30/22/6 32/24/6
f 31/23/6 32/24/6 33/25/6
f 33/25/6 32/24/6 34/26/6
f 33/25/6 34/26/6 35/27/6
f 35/27/6 34/26/6 36/28/6
f 35/27/6 36/28/6 37/29/6
f 37/29/6 36/28/6 38/30/6
f 38/30/6 36/28/6 39/31/6
f 38/30/6 39/31/6 40/32/6
f 38/30/6 40/32/6 41/33/6
f 41/33/6 40/32/6 10/34/6
f 41/33/6 10/34/6 42/35/6
f 42/35/6 10/34/6 9/36/6
f 5/39/7 44/38/7 43/37/7
f 44/38/7 5/39/7 45/40/7
f 47/5/8 1/8/8 46/6/8
f 1/8/8 47/5/8 3/7/8
f 13/43/9 35/42/9 37/41/9
f 35/42/9 13/43/9 48/44/9
f 51/23/10 50/46/10 49/45/10
f 50/46/10 51/23/10 52/21/10
f 50/46/10 52/21/10 53/47/10
f 53/47/10 52/21/10 54/19/10
f 42/42/11 7/43/11 55/44/11
f 7/43/11 42/42/11 9/41/11
f 56/43/12 30/42/12 28/41/12
f 30/42/12 56/43/12 57/44/12
f 59/40/13 58/37/13 16/39/13
f 58/37/13 59/40/13 60/38/13
f 61/1/14 28/4/14 26/2/14
f 28/4/14 61/1/14 56/3/14
f 62/1/12 36/4/12 34/2/12
f 36/4/12 62/1/12 21/3/12
f 12/50/7 52/49/7 11/48/7
f 52/49/7 12/50/7 54/51/7
f 64/51/15 22/48/15 63/50/15
f 22/48/15 64/51/15 65/49/15
f 58/10/8 15/11/8 16/12/8
f 15/11/8 58/10/8 66/9/8
f 11/12/5 48/9/5 13/11/5
f 48/9/5 11/12/5 67/10/5
f 69/38/16 47/39/16 68/40/16
f 47/39/16 69/38/16 70/37/16
f 72/5/17 61/8/17 71/6/17
f 61/8/17 72/5/17 56/7/17
f 75/53/10 74/52/10 73/35/10
f 76/54/10 73/35/10 74/52/10
f 69/34/10 73/35/10 76/54/10
f 73/35/10 69/34/10 68/36/10
f 79/55/10 78/28/10 77/31/10
f 78/28/10 79/55/10 80/26/10
f 80/26/10 79/55/10 81/56/10
f 80/26/10 81/56/10 82/57/10
f 66/44/1 29/41/1 15/43/1
f 29/41/1 66/44/1 27/42/1
f 72/12/18 57/9/18 56/11/18
f 57/9/18 72/12/18 83/10/18
f 73/51/13 47/48/13 46/50/13
f 47/48/13 73/51/13 68/49/13
f 6/50/19 45/49/19 5/48/19
f 45/49/19 6/50/19 84/51/19
f 17/1/9 29/4/9 31/2/9
f 29/4/9 17/1/9 15/3/9
f 85/51/20 16/48/20 18/50/20
f 16/48/20 85/51/20 59/49/20
f 52/40/20 67/37/20 11/39/20
f 67/37/20 52/40/20 51/38/20
f 87/59/10 64/22/10 86/58/10
f 64/22/10 87/59/10 65/20/10
f 65/20/10 87/59/10 88/60/10
f 65/20/10 88/60/10 89/18/10
f 37/4/11 14/1/11 13/3/11
f 14/1/11 37/4/11 38/2/11
f 78/40/15 83/37/15 72/39/15
f 83/37/15 78/40/15 80/38/15
f 20/37/19 65/40/19 89/38/19
f 65/40/19 20/37/19 22/39/19
f 59/29/10 90/61/10 60/30/10
f 90/61/10 59/29/10 85/27/10
f 90/61/10 85/27/10 91/62/10
f 91/62/10 85/27/10 92/63/10
f 55/9/4 5/12/4 43/10/4
f 5/12/4 55/9/4 7/11/4
f 62/8/18 22/5/18 21/7/18
f 22/5/18 62/8/18 63/6/18
f 36/41/3 19/44/3 39/42/3
f 19/44/3 36/41/3 21/43/3
f 44/14/10 94/65/10 93/64/10
f 94/65/10 44/14/10 84/15/10
f 84/15/10 44/14/10 45/13/10
f 84/15/10 95/66/10 94/65/10
f 3/43/14 23/42/14 4/41/14
f 23/42/14 3/43/14 96/44/14
f 78/49/16 71/50/16 77/51/16
f 71/50/16 78/49/16 72/48/16
f 70/10/17 3/11/17 47/12/17
f 3/11/17 70/10/17 96/9/17

usemtl leafsDark

f 97/67/1 27/42/1 66/44/1
f 27/42/1 97/67/1 25/68/1
f 25/68/1 97/67/1 1/1/1
f 25/68/1 1/1/1 2/2/1
f 48/9/5 17/8/5 98/69/5
f 17/8/5 48/9/5 67/10/5
f 17/8/5 67/10/5 18/6/5
f 18/6/5 67/10/5 99/70/5
f 100/71/7 54/51/7 12/50/7
f 54/51/7 100/71/7 101/72/7
f 101/72/7 100/71/7 43/37/7
f 101/72/7 43/37/7 44/38/7
f 48/44/9 33/73/9 35/42/9
f 33/73/9 48/44/9 31/2/9
f 31/2/9 48/44/9 98/74/9
f 17/1/9 31/2/9 98/74/9
f 38/2/11 102/75/11 14/1/11
f 102/75/11 38/2/11 41/68/11
f 102/75/11 41/68/11 55/44/11
f 55/44/11 41/68/11 42/42/11
f 80/38/15 103/76/15 83/37/15
f 103/76/15 80/38/15 63/50/15
f 63/50/15 80/38/15 64/51/15
f 64/51/15 80/38/15 104/77/15
f 102/78/4 12/6/4 14/8/4
f 12/6/4 102/78/4 100/79/4
f 100/79/4 102/78/4 55/9/4
f 100/79/4 55/9/4 43/10/4
f 96/44/14 24/80/14 23/42/14
f 24/80/14 96/44/14 105/81/14
f 24/80/14 105/81/14 26/2/14
f 26/2/14 105/81/14 61/1/14
f 106/82/2 6/6/2 8/8/2
f 6/6/2 106/82/2 107/83/2
f 107/83/2 106/82/2 20/10/2
f 20/10/2 106/82/2 19/9/2
f 75/53/10 76/54/10 74/52/10
f 79/55/10 76/54/10 75/53/10
f 75/53/10 90/61/10 79/55/10
f 75/53/10 60/30/10 90/61/10
f 75/53/10 108/33/10 60/30/10
f 108/33/10 75/53/10 73/35/10
f 79/55/10 90/61/10 81/56/10
f 81/56/10 90/61/10 109/84/10
f 81/56/10 109/84/10 110/85/10
f 81/56/10 110/85/10 82/57/10
f 104/86/10 82/57/10 110/85/10
f 82/57/10 104/86/10 80/26/10
f 104/86/10 110/85/10 111/87/10
f 104/86/10 111/87/10 64/22/10
f 91/62/10 109/84/10 90/61/10
f 109/84/10 91/62/10 112/88/10
f 112/88/10 91/62/10 92/63/10
f 92/63/10 113/89/10 112/88/10
f 113/89/10 92/63/10 85/27/10
f 112/88/10 113/89/10 114/90/10
f 114/90/10 113/89/10 49/45/10
f 49/45/10 113/89/10 51/23/10
f 49/45/10 115/91/10 114/90/10
f 115/91/10 49/45/10 50/46/10
f 115/91/10 50/46/10 87/59/10
f 87/59/10 50/46/10 88/60/10
f 88/60/10 50/46/10 53/47/10
f 88/60/10 53/47/10 89/18/10
f 89/18/10 53/47/10 95/66/10
f 95/66/10 53/47/10 93/64/10
f 54/19/10 93/64/10 53/47/10
f 93/64/10 54/19/10 101/17/10
f 93/64/10 101/17/10 44/14/10
f 94/65/10 95/66/10 93/64/10
f 89/18/10 95/66/10 84/15/10
f 89/18/10 84/15/10 116/16/10
f 86/58/10 115/91/10 87/59/10
f 115/91/10 86/58/10 111/87/10
f 64/22/10 111/87/10 86/58/10
f 76/54/10 117/32/10 69/34/10
f 117/32/10 76/54/10 77/31/10
f 77/31/10 76/54/10 79/55/10
f 6/50/19 116/92/19 84/51/19
f 116/92/19 6/50/19 107/93/19
f 116/92/19 107/93/19 89/38/19
f 89/38/19 107/93/19 20/37/19
f 51/38/20 99/94/20 67/37/20
f 99/94/20 51/38/20 18/50/20
f 18/50/20 51/38/20 85/51/20
f 85/51/20 51/38/20 113/95/20
f 118/96/8 66/9/8 58/10/8
f 66/9/8 118/96/8 97/97/8
f 97/97/8 118/96/8 46/6/8
f 97/97/8 46/6/8 1/8/8
f 40/98/3 8/1/3 10/2/3
f 8/1/3 40/98/3 106/99/3
f 106/99/3 40/98/3 39/42/3
f 106/99/3 39/42/3 19/44/3
f 57/44/12 32/100/12 30/42/12
f 32/100/12 57/44/12 34/2/12
f 34/2/12 57/44/12 119/101/12
f 62/1/12 34/2/12 119/101/12
f 117/102/16 70/37/16 69/38/16
f 70/37/16 117/102/16 120/103/16
f 120/103/16 117/102/16 77/51/16
f 120/103/16 77/51/16 71/50/16
f 60/38/13 118/104/13 58/37/13
f 118/104/13 60/38/13 108/105/13
f 118/104/13 108/105/13 46/50/13
f 46/50/13 108/105/13 73/51/13
f 57/9/18 62/8/18 119/106/18
f 62/8/18 57/9/18 83/10/18
f 62/8/18 83/10/18 63/6/18
f 63/6/18 83/10/18 103/107/18
f 70/10/17 105/108/17 96/9/17
f 105/108/17 70/10/17 120/109/17
f 105/108/17 120/109/17 71/6/17
f 105/108/17 71/6/17 61/8/17

usemtl dirt

f 112/88/10 110/85/10 109/84/10
f 110/85/10 112/88/10 114/90/10
f 110/85/10 114/90/10 111/87/10
f 111/87/10 114/90/10 115/91/10

