# Created by Kenney (www.kenney.nl)

mtllib crops_dirtRowCorner.mtl

g crops_dirtRowCorner

v -0.1209402 0.05 -0.1415
v -0.1746338 0 -0.1105
v -0.217 0.05 -0.5
v -0.279 0 -0.5
v 0.3490542 0 -0.3490542
v 0.3067074 0.05 -0.3067074
v 0.279 0 -0.5
v 0.217 0.05 -0.5
v 0.5 0 0.279
v 0.1105 0 0.1746338
v 0.5 0.05 0.217
v 0.1415 0.05 0.1209402
v 0.5 0.05 -0.217
v 0.5 0 -0.279

vn -0.619056 0.7676294 0.1658756
vn 0.6026951 0.7473419 -0.2797118
vn -0.1658756 0.7676294 0.619056
vn -0.4531805 0.7676294 0.4531805
vn 0.2797118 0.7473419 -0.6026951
vn 0 1 0
vn 0 0 -1
vn 1 0 0

vt -6.613391 -1.162063
vt -5.981628 -4.233561
vt -21.22546 -1.162063
vt -21.85722 -4.233561
vt 6.680111 -13.63929
vt 5.869689 -10.67664
vt 13.23168 -13.63929
vt 14.25925 -10.67664
vt 21.85722 -4.233561
vt 5.981628 -4.233561
vt 21.22546 -1.162063
vt 6.613391 -1.162063
vt 7.306034 1.700963
vt 7.937797 -1.370534
vt -7.306034 1.700963
vt -7.937797 -1.370534
vt -14.25925 -10.67664
vt -5.869689 -10.67664
vt -13.23168 -13.63929
vt -6.680111 -13.63929
vt -19.68504 8.543307
vt -5.570866 4.761426
vt -19.68504 -8.543307
vt -12.07509 -12.07509
vt -8.543307 -19.68504
vt 8.543307 -19.68504
vt 4.761426 -5.570866
vt 10.98425 -3.043655E-25
vt -10.98425 -3.043655E-25
vt 8.543307 1.968504
vt -8.543307 1.968504
vt 10.98425 -1.776357E-14
vt -10.98425 -1.776357E-14

usemtl dirtDark

f 3/3/1 2/2/1 1/1/1
f 2/2/1 3/3/1 4/4/1
f 7/7/2 6/6/2 5/5/2
f 6/6/2 7/7/2 8/8/2
f 11/11/3 10/10/3 9/9/3
f 10/10/3 11/11/3 12/12/3
f 1/15/4 10/14/4 12/13/4
f 10/14/4 1/15/4 2/16/4
f 14/19/5 6/18/5 13/17/5
f 6/18/5 14/19/5 5/20/5

usemtl dirt

f 13/23/6 12/22/6 11/21/6
f 12/22/6 13/23/6 6/24/6
f 12/22/6 6/24/6 8/25/6
f 12/22/6 8/25/6 3/26/6
f 12/22/6 3/26/6 1/27/6
f 3/30/7 7/29/7 4/28/7
f 7/29/7 3/30/7 8/31/7
f 13/30/8 9/33/8 14/32/8
f 9/33/8 13/30/8 11/31/8

