# Created by Kenney (www.kenney.nl)

mtllib crops_dirtDoubleRowCorner.mtl

g crops_dirtDoubleRowCorner

v 0.5 0 -0.4353428
v 0.5 0 -0.062
v 0.5 0.05 -0.3706857
v 0.5 0.05 -0.1266571
v 0.062 0 -0.5
v 0.4353428 0 -0.5
v 0.1266571 0.05 -0.5
v 0.3706857 0.05 -0.5
v 0.5 0.05 0.1293143
v 0.5 0.05 0.3733428
v 0.1853428 0.05 0.04500216
v 0.2739622 0.05 0.3435844
v 0.06332856 0.05 0.2563371
v -0.04500216 0.05 -0.1853428
v -0.1175467 0.05 0.1175466
v -0.1293143 0.05 -0.5
v -0.2563371 0.05 -0.06332858
v -0.3733428 0.05 -0.5
v -0.3435844 0.05 -0.2739623
v 0.5 0 0.06465714
v 0.5 0 0.438
v 0.408561 0.05 -0.408561
v 0.3133286 0.05 -0.1766756
v 0.1766756 0.05 -0.3133286
v -0.438 0 -0.5
v -0.06465714 0 -0.5
v 0.2176714 0 -0.01099257
v 0.01099257 0 -0.2176714
v -0.4060384 0 -0.2572277
v -0.3123318 0 -0.031
v 0.2572277 0 0.4060384
v -0.1632662 0 0.1632662
v 0.031 0 0.3123318
v 0.1206809 0 -0.281
v 0.4542805 0 -0.4542805
v 0.281 0 -0.1206809

vn 1 0 0
vn 0 0 -1
vn 0 1 0
vn 0.4419244 0.7806444 -0.4419244
vn -0.6097617 0.7885089 0.08027664
vn 0.60368 0.7806444 -0.1617556
vn -0.5682074 0.7885089 0.2353592
vn -0.08027664 0.7885089 0.6097617
vn -0.3744024 0.7885089 0.4879307
vn -0.2353592 0.7885089 0.5682074
vn -0.4879307 0.7885089 0.3744024
vn -0.60368 0.7806444 0.1617556
vn 0.592995 0.7668274 -0.2456266
vn -0.1617555 0.7806444 0.60368
vn -0.4419244 0.7806444 0.4419244
vn 0.2456266 0.7668274 -0.5929951
vn 0.1617555 0.7806444 -0.60368

vt 17.13948 2.131628E-13
vt 2.440945 2.131628E-13
vt 14.59393 1.968504
vt 4.986502 1.968504
vt -2.440945 1.616499E-07
vt -17.13948 1.616499E-07
vt -4.986501 1.968504
vt -14.59393 1.968504
vt -19.68504 5.091114
vt -19.68504 14.69854
vt -7.296963 1.771739
vt -10.78591 13.52695
vt -2.493251 10.09201
vt 1.771739 -7.296963
vt 4.627821 4.627821
vt 5.091114 -19.68504
vt 10.09201 -2.493251
vt 14.69854 -19.68504
vt 13.52695 -10.78592
vt -2.545557 1.421085E-13
vt -17.24409 1.421085E-13
vt -5.091114 1.968504
vt -14.69854 1.968504
vt -19.68504 -14.59393
vt -19.68504 -4.986502
vt -16.08508 -16.08508
vt -12.33577 -6.955732
vt -14.59393 -19.68504
vt -4.986501 -19.68504
vt -6.955732 -12.33577
vt 17.24409 7.548323E-08
vt 2.545557 7.548323E-08
vt 14.69854 1.968504
vt 5.091114 1.968504
vt -5.753702 -4.969381
vt -6.41254 -1.819651
vt 5.753702 -4.969381
vt 6.41254 -1.819651
vt -21.43517 -8.254094
vt -12.45926 -8.254094
vt -12.127 -11.45479
vt -21.76744 -11.45479
vt 8.165723 -2.057813
vt 7.506885 1.091917
vt 19.67313 -2.057813
vt 20.33196 1.091917
vt -6.165509 -5.38889
vt -5.833248 -8.589588
vt -15.14142 -5.38889
vt -15.47369 -8.589588
vt 12.45926 -8.254094
vt 21.43517 -8.254094
vt 12.127 -11.45479
vt 21.76744 -11.45479
vt -0.8542585 -3.905751
vt 8.121656 -3.905751
vt -1.18652 -7.106449
vt 8.453918 -7.106449
vt 6.165509 -5.38889
vt 15.14142 -5.38889
vt 5.833247 -8.589588
vt 15.47369 -8.589588
vt 0.8542582 -3.905751
vt 1.18652 -7.106449
vt -8.121656 -3.905751
vt -8.453918 -7.106449
vt -10.11516 8.967587
vt -9.456325 5.817857
vt -17.72369 8.967587
vt -18.38252 5.817857
vt 9.679323 -17.91919
vt 8.705181 -14.85228
vt 11.62761 -17.91919
vt 12.60175 -14.85228
vt 17.72369 8.967587
vt 18.38252 5.817857
vt 10.11516 8.967587
vt 9.456325 5.817857
vt 3.804261 11.87916
vt 4.4631 8.729425
vt -3.804262 11.87916
vt -4.4631 8.729425
vt -12.60175 -14.85228
vt -8.705183 -14.85228
vt -11.62761 -17.91919
vt -9.679326 -17.91919
vt -20.33196 1.091917
vt -7.506885 1.091917
vt -19.67313 -2.057813
vt -8.165723 -2.057813

usemtl dirt

f 3/3/1 2/2/1 1/1/1
f 2/2/1 3/3/1 4/4/1
f 7/7/2 6/6/2 5/5/2
f 6/6/2 7/7/2 8/8/2
f 11/11/3 10/10/3 9/9/3
f 10/10/3 11/11/3 12/12/3
f 12/12/3 11/11/3 13/13/3
f 13/13/3 11/11/3 14/14/3
f 13/13/3 14/14/3 15/15/3
f 15/15/3 14/14/3 16/16/3
f 15/15/3 16/16/3 17/17/3
f 17/17/3 16/16/3 18/18/3
f 17/17/3 18/18/3 19/19/3
f 9/22/1 21/21/1 20/20/1
f 21/21/1 9/22/1 10/23/1
f 22/26/3 4/25/3 3/24/3
f 4/25/3 22/26/3 23/27/3
f 23/27/3 22/26/3 8/28/3
f 23/27/3 8/28/3 7/29/3
f 23/27/3 7/29/3 24/30/3
f 18/33/2 26/32/2 25/31/2
f 26/32/2 18/33/2 16/34/2

usemtl dirtDark

f 28/37/4 11/36/4 27/35/4
f 11/36/4 28/37/4 14/38/4
f 29/41/5 19/40/5 18/39/5
f 25/42/5 29/41/5 18/39/5
f 26/45/6 14/44/6 28/43/6
f 14/44/6 26/45/6 16/46/6
f 19/49/7 30/48/7 17/47/7
f 29/50/7 30/48/7 19/49/7
f 31/53/8 10/52/8 12/51/8
f 31/53/8 21/54/8 10/52/8
f 32/57/9 13/56/9 15/55/9
f 32/57/9 33/58/9 13/56/9
f 33/61/10 12/60/10 13/59/10
f 33/61/10 31/62/10 12/60/10
f 17/65/11 32/64/11 15/63/11
f 30/66/11 32/64/11 17/65/11
f 7/69/12 34/68/12 24/67/12
f 34/68/12 7/69/12 5/70/12
f 6/73/13 22/72/13 35/71/13
f 22/72/13 6/73/13 8/74/13
f 23/77/14 2/76/14 4/75/14
f 2/76/14 23/77/14 36/78/14
f 24/81/15 36/80/15 23/79/15
f 36/80/15 24/81/15 34/82/15
f 1/85/16 22/84/16 3/83/16
f 22/84/16 1/85/16 35/86/16
f 20/89/17 11/88/17 9/87/17
f 11/88/17 20/89/17 27/90/17

