# Created by Kenney (www.kenney.nl)

mtllib crops_leafsStageB.mtl

g crops_leafsStageB

v 0.0411392 0.3953057 0.05573598
v 0.0553088 0.4544242 0.110438
v -0.0411392 0.3953057 0.05573598
v -0.0553088 0.4544242 0.110438
v 0.032 0.192 -0.032
v 0.032 0.448 -0.032
v 0.032 0.192 0.032
v 0.032 0.256 0.032
v 0.032 0.448 0.032
v 0.0553088 0.3904242 -0.110438
v -0.0553088 0.3904242 -0.110438
v 0.02696959 0.4210747 -0.1946893
v -0.02696961 0.4210747 -0.1946893
v 0.110438 0.6464242 -0.0553088
v 0.110438 0.6464242 0.0553088
v 0.05573598 0.5873057 -0.0411392
v 0.05573598 0.5873057 0.0411392
v 0.1946893 0.6770747 0.02696959
v 0.1946893 0.6770747 -0.02696961
v -0.032 0.192 -0.032
v 0.0411392 0.3313057 -0.05573598
v -0.0411392 0.3313057 -0.05573598
v -0.110438 0.5824242 -0.0553088
v -0.05573598 0.5233057 -0.0411392
v -0.110438 0.5824242 0.0553088
v -0.05573598 0.5233057 0.0411392
v -0.1946893 0.6130747 0.02696961
v -0.1946893 0.6130747 -0.02696959
v -0.032 0.384 -0.032
v -0.032 0.384 0.032
v 0.024 0 0.024
v -0.024 0 0.024
v 0.016 0.05 0.016
v -0.016 0.05 0.016
v 0.024 0 -0.024
v -0.024 0 -0.024
v -0.016 0.05 -0.016
v 0.016 0.05 -0.016
v 0.02696961 0.4850748 0.1946893
v -0.02696959 0.4850748 0.1946893
v -0.032 0.192 0.032
v -0.032 0.256 0.032

vn 0 0.6791583 -0.7339918
vn 0 -0.6791583 0.7339918
vn -1 0 0
vn 1 0 0
vn 0 0.9397444 0.3418779
vn 0 -0.9397444 -0.3418779
vn -0.7339918 0.6791583 0
vn 0.7339918 -0.6791583 0
vn -0.9857926 0.1679669 0
vn 0.9857926 -0.1679669 0
vn -0.3418779 0.9397444 0
vn 0.3418779 -0.9397444 0
vn 0 0.1679669 0.9857926
vn 0 -0.1679669 -0.9857926
vn 0.7339918 0.6791583 0
vn -0.7339918 -0.6791583 0
vn 0.3418779 0.9397444 0
vn -0.3418779 -0.9397444 0
vn 0.9857926 0.1679669 0
vn -0.9857926 -0.1679669 0
vn 0 0.1579905 0.9874407
vn 0 -1 0
vn 0 0.1579905 -0.9874407
vn -0.9874407 0.1579905 0
vn 0 0.9397444 -0.3418779
vn 0 -0.9397444 0.3418779
vn 0 0.1679669 -0.9857926
vn 0 -0.1679669 0.9857926
vn 0 0 -1
vn 0 0 1
vn 0 -0.1119675 -0.9937118
vn -0.9937118 -0.1119675 0
vn 0.9874407 0.1579905 0
vn 0 -0.1119675 0.9937118
vn 0 0.6791583 0.7339918
vn 0 -0.6791583 -0.7339918
vn 0.9937118 -0.1119675 0
vn 0 1 0

vt -1.619653 12.91357
vt -2.177512 16.08459
vt 1.619654 12.91357
vt 2.177512 16.08459
vt -1.259843 7.559055
vt -1.259843 17.63779
vt 1.259843 7.559055
vt 1.259843 10.07874
vt 1.259843 17.63779
vt 2.177512 9.340981
vt -2.177512 9.340981
vt 1.061795 12.87064
vt -1.061795 12.87064
vt -2.177512 21.63287
vt 2.177512 21.63287
vt -1.619653 18.46185
vt 1.619654 18.46185
vt -1.619653 23.16234
vt 1.619654 23.16234
vt -1.259843 17.59882
vt 1.259843 17.59882
vt 1.061795 16.31634
vt 2.177512 12.78668
vt -1.061795 16.31634
vt -2.177512 12.78668
vt 1.259843 7.663273
vt -1.259843 7.663273
vt 1.619654 13.22679
vt -1.619654 13.22679
vt 2.177512 19.78345
vt 1.619654 16.61243
vt -2.177512 19.78345
vt -1.619653 16.61243
vt -2.177512 11.92526
vt -1.061795 15.45492
vt 2.177512 11.92526
vt 1.061795 15.45492
vt 1.619654 20.67845
vt 1.259843 15.11493
vt -1.619654 20.67845
vt -1.259843 15.11493
vt 0.9448819 -0.1492824
vt -0.9448819 -0.1492824
vt 0.6299213 1.844259
vt -0.6299213 1.844259
vt 0.9448819 0.9448819
vt 0.9448819 -0.9448819
vt -0.9448819 0.9448819
vt -0.9448819 -0.9448819
vt -2.177512 10.20241
vt -1.061795 13.73207
vt 2.177512 10.20241
vt 1.061795 13.73207
vt 1.259843 15.11811
vt -1.259843 15.11811
vt -1.259843 10.07874
vt 1.259843 10.14716
vt -1.259843 10.14716
vt 1.619654 15.71068
vt -1.619654 15.71068
vt 0.6299213 2.026656
vt -0.6299213 2.026656
vt 1.259843 7.652584
vt -1.259843 7.652584
vt -1.619653 11.06414
vt -2.177512 14.23516
vt 1.619654 11.06414
vt 2.177512 14.23516
vt -1.259843 1.259843
vt 1.259843 1.259843
vt -1.259843 -1.259843
vt 1.259843 -1.259843

usemtl grass

f 3/3/1 2/2/1 1/1/1
f 2/2/1 3/3/1 4/4/1
f 1/1/2 2/2/2 3/3/2
f 4/4/2 3/3/2 2/2/2
f 7/7/3 6/6/3 5/5/3
f 6/6/3 7/7/3 8/8/3
f 6/6/3 8/8/3 9/9/3
f 5/5/4 6/6/4 7/7/4
f 8/8/4 7/7/4 6/6/4
f 9/9/4 8/8/4 6/6/4
f 12/12/5 11/11/5 10/10/5
f 11/11/5 12/12/5 13/13/5
f 10/10/6 11/11/6 12/12/6
f 13/13/6 12/12/6 11/11/6
f 16/16/7 15/15/7 14/14/7
f 15/15/7 16/16/7 17/17/7
f 14/14/8 15/15/8 16/16/8
f 17/17/8 16/16/8 15/15/8
f 6/20/9 17/19/9 16/18/9
f 17/19/9 6/20/9 9/21/9
f 16/18/10 17/19/10 6/20/10
f 9/21/10 6/20/10 17/19/10
f 19/24/11 15/23/11 18/22/11
f 15/23/11 19/24/11 14/25/11
f 18/22/12 15/23/12 19/24/12
f 14/25/12 19/24/12 15/23/12
f 21/28/13 20/27/13 5/26/13
f 20/27/13 21/28/13 22/29/13
f 5/26/14 20/27/14 21/28/14
f 22/29/14 21/28/14 20/27/14
f 25/32/15 24/31/15 23/30/15
f 24/31/15 25/32/15 26/33/15
f 23/30/16 24/31/16 25/32/16
f 26/33/16 25/32/16 24/31/16
f 23/36/17 27/35/17 25/34/17
f 27/35/17 23/36/17 28/37/17
f 25/34/18 27/35/18 23/36/18
f 28/37/18 23/36/18 27/35/18
f 26/40/19 29/39/19 24/38/19
f 29/39/19 26/40/19 30/41/19
f 24/38/20 29/39/20 26/40/20
f 30/41/20 26/40/20 29/39/20
f 33/44/21 32/43/21 31/42/21
f 32/43/21 33/44/21 34/45/21
f 32/48/22 35/47/22 31/46/22
f 35/47/22 32/48/22 36/49/22
f 37/44/23 35/43/23 36/42/23
f 35/43/23 37/44/23 38/45/23
f 32/42/24 37/45/24 36/43/24
f 37/45/24 32/42/24 34/44/24
f 4/52/25 39/51/25 2/50/25
f 39/51/25 4/52/25 40/53/25
f 2/50/26 39/51/26 4/52/26
f 40/53/26 4/52/26 39/51/26
f 30/55/4 20/7/4 29/54/4
f 20/7/4 30/55/4 41/5/4
f 41/5/4 30/55/4 42/56/4
f 29/54/3 20/7/3 30/55/3
f 41/5/3 30/55/3 20/7/3
f 42/56/3 30/55/3 41/5/3
f 3/59/27 8/58/27 42/57/27
f 8/58/27 3/59/27 1/60/27
f 42/57/28 8/58/28 3/59/28
f 1/60/28 3/59/28 8/58/28
f 42/8/29 7/5/29 41/7/29
f 7/5/29 42/8/29 8/56/29
f 41/7/30 7/5/30 42/8/30
f 8/56/30 42/8/30 7/5/30
f 20/63/31 38/62/31 37/61/31
f 38/62/31 20/63/31 5/64/31
f 37/62/32 41/63/32 20/64/32
f 41/63/32 37/62/32 34/61/32
f 38/44/33 31/43/33 35/42/33
f 31/43/33 38/44/33 33/45/33
f 7/63/34 34/62/34 33/61/34
f 34/62/34 7/63/34 41/64/34
f 21/67/35 11/66/35 22/65/35
f 11/66/35 21/67/35 10/68/35
f 22/65/36 11/66/36 21/67/36
f 10/68/36 21/67/36 11/66/36
f 7/64/37 38/61/37 5/63/37
f 38/61/37 7/64/37 33/62/37
f 5/71/38 41/70/38 7/69/38
f 41/70/38 5/71/38 20/72/38

