# Created by Kenney (www.kenney.nl)

mtllib crops_cornStageA.mtl

g crops_cornStageA

v -0.0375 0 -0.0375
v -0.025 0.05 -0.025
v -0.0375 0 0.0375
v -0.025 0.05 0.025
v 0.0125 0.5 -0.0125
v 0.0125 0.5 0.0125
v -0.0125 0.5 -0.0125
v -0.0125 0.5 0.0125
v 0.0375 0 0.0375
v 0.0375 0 -0.0375
v 0.025 0.05 0.025
v 0.025 0.25 -0.025
v 0.025 0.05 -0.025
v 0.025 0.25 0.025
v -0.025 0.25 0.025
v -0.025 0.25 -0.025
v -0.04354373 0.1161836 0.03214
v -0.0862797 0.1442706 0.04321
v -0.04354373 0.1161836 -0.03214
v -0.0862797 0.1442706 -0.04321
v -0.152101 0.1588326 0.02107
v -0.152101 0.1588326 -0.02107
v 0.0862797 0.1442706 0.04321
v 0.04354373 0.1161836 0.03214
v 0.0862797 0.1442706 -0.04321
v 0.04354373 0.1161836 -0.03214
v 0.152101 0.1588326 0.02106999
v 0.152101 0.1588326 -0.02107001
v 0.0862797 0.4050189 -0.04321
v 0.0862797 0.4050189 0.04321
v 0.04354373 0.3588325 -0.03214
v 0.04354373 0.3588325 0.03214
v 0.152101 0.4289646 0.02106999
v 0.152101 0.4289646 -0.02107001
v -0.04354373 0.3044163 0.03214
v -0.0862797 0.3275095 0.04321
v -0.04354373 0.3044163 -0.03214
v -0.0862797 0.3275095 -0.04321
v -0.152101 0.3394823 0.02107001
v -0.152101 0.3394823 -0.02106999
v 0.04321 0.2050189 -0.0862797
v -0.04321 0.2050189 -0.0862797
v 0.02107 0.2289646 -0.152101
v -0.02107 0.2289646 -0.152101
v 0.03214 0.1588326 -0.04354373
v -0.03214 0.1588326 -0.04354373
v -0.03214 0.1588326 0.04354373
v 0.03214 0.1588326 0.04354373
v 0.04321 0.2050189 0.0862797
v 0.02107001 0.2289646 0.152101
v -0.04321 0.2050189 0.0862797
v -0.02106999 0.2289646 0.152101

vn -0.9701425 0.2425356 0
vn 0 1 0
vn 0 -1 0
vn 0 0.2425356 0.9701425
vn 1 0 0
vn 0 0.04993761 0.9987524
vn -0.9987524 0.04993761 0
vn 0 0.2425356 -0.9701425
vn 0.9701425 0.2425356 0
vn 0.9987524 0.04993761 0
vn 0 0 -1
vn 0 0.04993761 -0.9987524
vn 0 0 1
vn -1 0 0
vn 0.5492238 0.8356753 0
vn -0.5492238 -0.8356753 0
vn 0.9629174 0.2697961 0
vn -0.9629174 -0.2697961 0
vn 0.2160114 0.9763908 0
vn -0.2160114 -0.9763908 0
vn -0.5492238 0.8356753 0
vn 0.5492238 -0.8356753 0
vn -0.2160114 0.9763908 0
vn 0.2160114 -0.9763908 0
vn -0.9629174 0.2697961 0
vn 0.9629174 -0.2697961 0
vn -0.7339918 0.6791583 0
vn 0.7339918 -0.6791583 0
vn -0.9857926 0.1679669 0
vn 0.9857926 -0.1679669 0
vn -0.3418779 0.9397444 0
vn 0.3418779 -0.9397444 0
vn 0.4754001 0.8797697 0
vn -0.4754001 -0.8797697 0
vn 0.1789628 0.9838558 0
vn -0.1789628 -0.9838558 0
vn 0.9465488 0.3225606 0
vn -0.9465488 -0.3225606 0
vn 0 0.9397444 0.3418779
vn 0 -0.9397444 -0.3418779
vn 0 0.1679669 0.9857926
vn 0 -0.1679669 -0.9857926
vn 0 0.6791583 0.7339918
vn 0 -0.6791583 -0.7339918
vn 0 0.167967 -0.9857926
vn 0 -0.167967 0.9857926
vn 0 0.9397444 -0.3418779
vn 0 -0.9397444 0.3418779
vn 0 0.6791583 -0.7339918
vn 0 -0.6791583 0.7339918

vt -1.476378 -0.3580742
vt -0.984252 1.671013
vt 1.476378 -0.3580742
vt 0.984252 1.671013
vt -0.492126 -0.492126
vt -0.492126 0.492126
vt 0.492126 -0.492126
vt 0.492126 0.492126
vt 1.476378 1.476378
vt 1.476378 -1.476378
vt -1.476378 1.476378
vt -1.476378 -1.476378
vt 0.984252 9.84252
vt 0.984252 1.968504
vt -0.984252 9.84252
vt -0.984252 1.968504
vt 0.984252 9.781089
vt -0.984252 9.781089
vt 0.492126 19.6359
vt -0.492126 19.6359
vt -1.265354 3.944852
vt -1.701181 5.958216
vt 1.265354 3.944852
vt 1.701181 5.958216
vt 1.265354 4.867054
vt 0.984252 2.161054
vt -1.265354 4.867054
vt -0.984252 2.161054
vt -1.701181 4.543575
vt -0.8295276 7.197625
vt 1.701181 4.543575
vt 0.8295276 7.197625
vt 0.8295276 7.197625
vt -0.8295275 7.197625
vt -0.9842519 2.161054
vt -1.701181 14.01095
vt 1.701181 14.01095
vt -1.265354 11.53359
vt 1.265354 11.53359
vt -1.265354 14.2145
vt 1.265354 14.2145
vt -0.9842519 9.868005
vt 0.984252 9.868005
vt 0.8295276 11.40117
vt 1.701181 8.643618
vt -0.8295275 11.40117
vt -1.701181 8.643618
vt -1.265354 7.205826
vt -1.701181 9.118279
vt 1.265354 7.205826
vt 1.701181 9.118279
vt -1.701181 5.649559
vt -0.8295275 8.283471
vt 1.701181 5.649559
vt 0.8295276 8.283471
vt 1.265354 11.89726
vt 0.984252 9.633906
vt -1.265354 11.89726
vt -0.9842519 9.633906
vt 1.701181 5.951666
vt -1.701181 5.951666
vt 0.8295276 8.709213
vt -0.8295276 8.709213
vt 0.984252 2.105859
vt -0.984252 2.105859
vt 1.265354 6.452357
vt -1.265354 6.452357
vt -1.265354 5.754129
vt -1.701181 8.231488
vt 1.265354 5.754129
vt 1.701181 8.231488
vt -0.9842519 2.105859
vt -0.8295275 8.709213
vt 0.8295276 8.709213

usemtl grass

f 3/3/1 2/2/1 1/1/1
f 2/2/1 3/3/1 4/4/1
f 7/7/2 6/6/2 5/5/2
f 6/6/2 7/7/2 8/8/2
f 3/11/3 10/10/3 9/9/3
f 10/10/3 3/11/3 1/12/3
f 11/4/4 3/1/4 9/3/4
f 3/1/4 11/4/4 4/2/4
f 14/15/5 13/14/5 12/13/5
f 13/14/5 14/15/5 11/16/5
f 6/19/6 15/18/6 14/17/6
f 15/18/6 6/19/6 8/20/6
f 15/17/7 7/20/7 16/18/7
f 7/20/7 15/17/7 8/19/7
f 2/4/8 10/1/8 1/3/8
f 10/1/8 2/4/8 13/2/8
f 13/4/9 9/1/9 10/3/9
f 9/1/9 13/4/9 11/2/9
f 5/19/10 14/18/10 12/17/10
f 14/18/10 5/19/10 6/20/10
f 16/13/11 13/16/11 2/14/11
f 13/16/11 16/13/11 12/15/11
f 7/19/12 12/18/12 16/17/12
f 12/18/12 7/19/12 5/20/12
f 14/13/13 4/16/13 11/14/13
f 4/16/13 14/13/13 15/15/13
f 4/14/14 16/15/14 2/16/14
f 16/15/14 4/14/14 15/13/14
f 19/23/15 18/22/15 17/21/15
f 18/22/15 19/23/15 20/24/15
f 17/21/16 18/22/16 19/23/16
f 20/24/16 19/23/16 18/22/16
f 17/27/17 2/26/17 19/25/17
f 2/26/17 17/27/17 4/28/17
f 19/25/18 2/26/18 17/27/18
f 4/28/18 17/27/18 2/26/18
f 20/31/19 21/30/19 18/29/19
f 21/30/19 20/31/19 22/32/19
f 18/29/20 21/30/20 20/31/20
f 22/32/20 20/31/20 21/30/20
f 25/22/21 24/23/21 23/24/21
f 24/23/21 25/22/21 26/21/21
f 23/24/22 24/23/22 25/22/22
f 26/21/22 25/22/22 24/23/22
f 28/34/23 23/31/23 27/33/23
f 23/31/23 28/34/23 25/29/23
f 27/33/24 23/31/24 28/34/24
f 25/29/24 28/34/24 23/31/24
f 13/35/25 24/25/25 26/27/25
f 24/25/25 13/35/25 11/26/25
f 26/27/26 24/25/26 13/35/26
f 11/26/26 13/35/26 24/25/26
f 31/38/27 30/37/27 29/36/27
f 30/37/27 31/38/27 32/39/27
f 29/36/28 30/37/28 31/38/28
f 32/39/28 31/38/28 30/37/28
f 12/42/29 32/41/29 31/40/29
f 32/41/29 12/42/29 14/43/29
f 31/40/30 32/41/30 12/42/30
f 14/43/30 12/42/30 32/41/30
f 34/46/31 30/45/31 33/44/31
f 30/45/31 34/46/31 29/47/31
f 33/44/32 30/45/32 34/46/32
f 29/47/32 34/46/32 30/45/32
f 37/50/33 36/49/33 35/48/33
f 36/49/33 37/50/33 38/51/33
f 35/48/34 36/49/34 37/50/34
f 38/51/34 37/50/34 36/49/34
f 38/54/35 39/53/35 36/52/35
f 39/53/35 38/54/35 40/55/35
f 36/52/36 39/53/36 38/54/36
f 40/55/36 38/54/36 39/53/36
f 35/58/37 16/57/37 37/56/37
f 16/57/37 35/58/37 15/59/37
f 37/56/38 16/57/38 35/58/38
f 15/59/38 35/58/38 16/57/38
f 43/62/39 42/61/39 41/60/39
f 42/61/39 43/62/39 44/63/39
f 41/60/40 42/61/40 43/62/40
f 44/63/40 43/62/40 42/61/40
f 45/66/41 2/65/41 13/64/41
f 2/65/41 45/66/41 46/67/41
f 13/64/42 2/65/42 45/66/42
f 46/67/42 45/66/42 2/65/42
f 45/70/43 42/69/43 46/68/43
f 42/69/43 45/70/43 41/71/43
f 46/68/44 42/69/44 45/70/44
f 41/71/44 45/70/44 42/69/44
f 47/66/45 11/72/45 4/64/45
f 11/72/45 47/66/45 48/67/45
f 4/64/46 11/72/46 47/66/46
f 48/67/46 47/66/46 11/72/46
f 51/60/47 50/73/47 49/61/47
f 50/73/47 51/60/47 52/74/47
f 49/61/48 50/73/48 51/60/48
f 52/74/48 51/60/48 50/73/48
f 47/70/49 49/69/49 48/68/49
f 49/69/49 47/70/49 51/71/49
f 48/68/50 49/69/50 47/70/50
f 51/71/50 47/70/50 49/69/50

