# Created by Kenney (www.kenney.nl)

mtllib fence_bend.mtl

g fence_bend

v 0.0924541 0.06210492 0.3849079
v 0.2017087 0.06210492 0.4219949
v 0.0924541 0.1242098 0.3849079
v 0.2017087 0.1242098 0.4219949
v 0.3148693 0.06210492 0.4445039
v 0.3148693 0.1242098 0.4445039
v -0.3563078 0.06210492 0.02397499
v -0.3563078 0.1242098 0.02397499
v -0.2903252 0.06210492 0.122725
v -0.2903252 0.1242098 0.122725
v 0.43 0.06210492 0.45205
v 0.43 0.1242098 0.45205
v -0.1937035 0.06210492 0.1937035
v -0.106958 0.06210492 0.2697773
v -0.1937035 0.1242098 0.1937035
v -0.106958 0.1242098 0.2697773
v -0.011025 0.06210492 0.3338777
v -0.011025 0.1242098 0.3338777
v 0.43 0.06210492 0.47795
v 0.3114887 0.06210492 0.4701823
v 0.43 0.1242098 0.47795
v 0.3114887 0.1242098 0.4701823
v 0.1950052 0.06210492 0.4470123
v 0.1950052 0.1242098 0.4470123
v 0.08254261 0.06210492 0.4088364
v 0.08254261 0.1242098 0.4088364
v -0.02397499 0.06210492 0.3563078
v -0.02397499 0.1242098 0.3563078
v -0.4088364 0.06210492 -0.08254261
v -0.4088364 0.1242098 -0.08254261
v -0.4445039 0.1242098 -0.3148693
v -0.4445039 0.06210492 -0.3148693
v -0.4219949 0.1242098 -0.2017087
v -0.4219949 0.06210492 -0.2017087
v -0.2120176 0.06210492 0.2120176
v -0.2120176 0.1242098 0.2120176
v -0.4701823 0.06210492 -0.3114887
v -0.4701823 0.1242098 -0.3114887
v -0.4470123 0.06210492 -0.1950052
v -0.4470123 0.1242098 -0.1950052
v -0.122725 0.06210492 0.2903252
v -0.122725 0.1242098 0.2903252
v -0.47795 0.06210492 -0.43
v -0.47795 0.1242098 -0.43
v -0.3849079 0.1242098 -0.0924541
v -0.3849079 0.06210492 -0.0924541
v -0.3338777 0.2829224 0.011025
v -0.3338777 0.2208175 0.011025
v -0.2697773 0.2829224 0.106958
v -0.2697773 0.2208175 0.106958
v 0.2017087 0.2208175 0.4219949
v 0.3148693 0.2208175 0.4445039
v 0.2017087 0.2829224 0.4219949
v 0.3148693 0.2829224 0.4445039
v -0.3338777 0.1242098 0.011025
v -0.3338777 0.06210492 0.011025
v -0.2697773 0.1242098 0.106958
v -0.2697773 0.06210492 0.106958
v -0.1937035 0.2208175 0.1937035
v -0.106958 0.2208175 0.2697773
v -0.1937035 0.2829224 0.1937035
v -0.106958 0.2829224 0.2697773
v -0.4470123 0.2208175 -0.1950052
v -0.4470123 0.2829224 -0.1950052
v -0.4088364 0.2208175 -0.08254261
v -0.4088364 0.2829224 -0.08254261
v -0.3563078 0.2208175 0.02397499
v -0.3563078 0.2829224 0.02397499
v -0.3849079 0.2829224 -0.0924541
v -0.3849079 0.2208175 -0.0924541
v -0.45205 0.2829224 -0.43
v -0.45205 0.2208175 -0.43
v -0.4445039 0.2829224 -0.3148693
v -0.4445039 0.2208175 -0.3148693
v -0.45205 0.1242098 -0.43
v -0.45205 0.06210492 -0.43
v -0.4219949 0.2829224 -0.2017087
v -0.4219949 0.2208175 -0.2017087
v 0.08254261 0.2208175 0.4088364
v -0.02397499 0.2208175 0.3563078
v 0.08254261 0.2829224 0.4088364
v -0.02397499 0.2829224 0.3563078
v -0.2903252 0.2208175 0.122725
v -0.2903252 0.2829224 0.122725
v 0.0924541 0.2208175 0.3849079
v 0.0924541 0.2829224 0.3849079
v -0.011025 0.2208175 0.3338777
v -0.011025 0.2829224 0.3338777
v -0.122725 0.2208175 0.2903252
v -0.2120176 0.2208175 0.2120176
v -0.122725 0.2829224 0.2903252
v -0.2120176 0.2829224 0.2120176
v 0.43 0.2208175 0.47795
v 0.3114887 0.2208175 0.4701823
v 0.43 0.2829224 0.47795
v 0.3114887 0.2829224 0.4701823
v 0.1950052 0.2208175 0.4470123
v 0.1950052 0.2829224 0.4470123
v -0.47795 0.2208175 -0.43
v -0.47795 0.2829224 -0.43
v -0.4701823 0.2208175 -0.3114887
v -0.4701823 0.2829224 -0.3114887
v 0.43 0.2208175 0.45205
v 0.43 0.2829224 0.45205
v -0.5 0 -0.5
v -0.43 0 -0.5
v -0.5 0.3450273 -0.5
v -0.43 0.3450273 -0.5
v -0.43 0.3450273 -0.43
v -0.5 0.3450273 -0.43
v 0.5 0.3450273 0.43
v 0.5 0 0.43
v 0.5 0.3450273 0.5
v 0.5 0 0.5
v -0.5 0 -0.43
v -0.43 0 -0.43
v 0.43 0 0.43
v 0.43 0.3450273 0.43
v 0.43 0.3450273 0.5
v 0.43 0 0.5

vn 0.3826834 0 -0.9238795
vn 0.2588193 0 -0.9659257
vn 0.1305262 0 -0.9914449
vn -0.8660256 0 0.4999998
vn -0.7933533 0 0.6087615
vn 0.0654031 0 -0.9978589
vn 0.7071068 0 -0.7071068
vn 0.6087615 0 -0.7933533
vn 0.4999999 0 -0.8660254
vn -0.06540313 0 0.9978589
vn -0.1305261 0 0.9914449
vn -0.2588191 0 0.9659258
vn -0.3826834 0 0.9238795
vn -0.4999998 0 0.8660256
vn -0.9238795 0 0.3826834
vn 0.9914449 0 -0.1305262
vn 0.9659257 0 -0.2588193
vn -0.7071068 0 0.7071068
vn -0.9914449 0 0.1305261
vn -0.9659258 0 0.2588191
vn -0.6087615 0 0.7933533
vn -0.9978589 0 0.06540313
vn 0.9238795 0 -0.3826834
vn 0.8660254 0 -0.4999999
vn 0.7933533 0 -0.6087615
vn 0.9978589 0 -0.0654031
vn 0 0 -1
vn 0 1 0
vn 1 0 0
vn 0 0 1
vn -1 0 0
vn 0 -1 0

vt -8.317806 2.445076
vt -12.86024 2.445076
vt -8.317806 4.89015
vt -12.86024 4.89015
vt -11.02992 2.445076
vt -15.57235 2.445076
vt -11.02992 4.89015
vt -15.57235 4.89015
vt -7.00864 2.445076
vt -7.00864 4.89015
vt -2.332828 2.445076
vt -2.332828 4.89015
vt -13.51445 2.445076
vt -18.05688 2.445076
vt -13.51445 4.89015
vt -18.05688 4.89015
vt 0.7053686 2.445076
vt -3.837059 2.445076
vt 0.7053686 4.89015
vt -3.837059 4.89015
vt -2.399524 2.445076
vt -6.941952 2.445076
vt -2.399524 4.89015
vt -6.941952 4.89015
vt 18.12357 2.445076
vt 13.44776 2.445076
vt 18.12357 4.89015
vt 13.44776 4.89015
vt 15.63904 2.445076
vt 10.96323 2.445076
vt 15.63904 4.89015
vt 10.96323 4.89015
vt 12.92692 2.445076
vt 8.251117 2.445076
vt 12.92692 4.89015
vt 8.251117 4.89015
vt 10.03361 2.445076
vt 5.357806 2.445076
vt 10.03361 4.89015
vt 5.357806 4.89015
vt -10.03361 2.445076
vt -10.03361 4.89015
vt -5.357806 2.445076
vt -5.357806 4.89015
vt 15.57235 4.89015
vt 15.57235 2.445076
vt 11.02992 4.89015
vt 11.02992 2.445076
vt -3.903752 2.445076
vt -3.903752 4.89015
vt 0.7720557 2.445076
vt 0.7720557 4.89015
vt -5.424497 2.445076
vt -9.966925 2.445076
vt -5.424497 4.89015
vt -9.966925 4.89015
vt -15.63904 2.445076
vt -15.63904 4.89015
vt -10.96323 2.445076
vt -10.96323 4.89015
vt 3.903752 2.445076
vt -0.7720557 2.445076
vt 3.903752 4.89015
vt -0.7720557 4.89015
vt -18.12357 2.445076
vt -18.12357 4.89015
vt -13.44776 2.445076
vt -13.44776 4.89015
vt 7.00864 2.445076
vt 2.332828 2.445076
vt 7.00864 4.89015
vt 2.332828 4.89015
vt 12.86024 4.89015
vt 12.86024 2.445076
vt 8.317806 4.89015
vt 8.317806 2.445076
vt 6.941952 11.13868
vt 6.941952 8.693603
vt 2.399524 11.13868
vt 2.399524 8.693603
vt -11.02992 8.693603
vt -15.57235 8.693603
vt -11.02992 11.13868
vt -15.57235 11.13868
vt 6.941952 4.89015
vt 6.941952 2.445076
vt 2.399524 4.89015
vt 2.399524 2.445076
vt 0.7053686 8.693603
vt -3.837059 8.693603
vt 0.7053686 11.13868
vt -3.837059 11.13868
vt -12.92692 8.693603
vt -12.92692 11.13868
vt -8.251117 8.693603
vt -8.251117 11.13868
vt 3.837059 11.13868
vt 3.837059 8.693603
vt -0.7053686 11.13868
vt -0.7053686 8.693603
vt -10.03361 8.693603
vt -10.03361 11.13868
vt -5.357806 8.693603
vt -5.357806 11.13868
vt 9.966925 11.13868
vt 9.966925 8.693603
vt 5.424497 11.13868
vt 5.424497 8.693603
vt 9.966925 4.89015
vt 9.966925 2.445076
vt 5.424497 4.89015
vt 5.424497 2.445076
vt 18.05688 11.13868
vt 18.05688 8.693603
vt 13.51445 11.13868
vt 13.51445 8.693603
vt 18.05688 4.89015
vt 18.05688 2.445076
vt 13.51445 4.89015
vt 13.51445 2.445076
vt 12.86024 11.13868
vt 12.86024 8.693603
vt 8.317806 11.13868
vt 8.317806 8.693603
vt 10.03361 8.693603
vt 5.357806 8.693603
vt 10.03361 11.13868
vt 5.357806 11.13868
vt -7.00864 8.693603
vt -7.00864 11.13868
vt -2.332828 8.693603
vt -2.332828 11.13868
vt -8.317806 8.693603
vt -12.86024 8.693603
vt -8.317806 11.13868
vt -12.86024 11.13868
vt -2.399524 8.693603
vt -6.941952 8.693603
vt -2.399524 11.13868
vt -6.941952 11.13868
vt 3.903752 8.693603
vt -0.7720557 8.693603
vt 3.903752 11.13868
vt -0.7720557 11.13868
vt 15.57235 11.13868
vt 15.57235 8.693603
vt 11.02992 11.13868
vt 11.02992 8.693603
vt 7.00864 8.693603
vt 2.332828 8.693603
vt 7.00864 11.13868
vt 2.332828 11.13868
vt 18.12357 8.693603
vt 13.44776 8.693603
vt 18.12357 11.13868
vt 13.44776 11.13868
vt 12.92692 8.693603
vt 8.251117 8.693603
vt 12.92692 11.13868
vt 8.251117 11.13868
vt -18.12357 8.693603
vt -18.12357 11.13868
vt -13.44776 8.693603
vt -13.44776 11.13868
vt 3.837059 4.89015
vt 3.837059 2.445076
vt -0.7053686 4.89015
vt -0.7053686 2.445076
vt -12.92692 2.445076
vt -12.92692 4.89015
vt -8.251117 2.445076
vt -8.251117 4.89015
vt -13.51445 8.693603
vt -18.05688 8.693603
vt -13.51445 11.13868
vt -18.05688 11.13868
vt -5.424497 8.693603
vt -9.966925 8.693603
vt -5.424497 11.13868
vt -9.966925 11.13868
vt -15.63904 8.693603
vt -15.63904 11.13868
vt -10.96323 8.693603
vt -10.96323 11.13868
vt 15.63904 8.693603
vt 10.96323 8.693603
vt 15.63904 11.13868
vt 10.96323 11.13868
vt -3.903752 8.693603
vt -3.903752 11.13868
vt 0.7720557 8.693603
vt 0.7720557 11.13868
vt 19.68504 -4.118762E-14
vt 16.92913 -4.118762E-14
vt 19.68504 13.58375
vt 16.92913 13.58375
vt 16.92913 -19.68504
vt 16.92913 -16.92913
vt 19.68504 -19.68504
vt 19.68504 -16.92913
vt -16.92913 13.58375
vt -16.92913 4.118762E-14
vt -19.68504 13.58375
vt -19.68504 4.118762E-14
vt -19.68504 0
vt -17.79725 2.445076
vt -16.92913 0
vt -17.79725 4.89015
vt -17.79725 8.693603
vt -18.81693 4.89015
vt -17.79725 11.13868
vt -18.81693 11.13868
vt -18.81693 2.445076
vt -18.81693 8.693603
vt -19.68504 -8.237525E-14
vt -16.92913 -8.237525E-14
vt -19.68504 16.92913
vt -19.68504 19.68504
vt -16.92913 16.92913
vt -16.92913 19.68504
vt -16.92913 17.79725
vt -16.92913 18.81693
vt -12.39643 17.50015
vt -12.26334 18.51112
vt -7.941288 16.61397
vt -7.677369 17.59891
vt -3.639925 15.15385
vt -3.249709 16.09592
vt 0.4340551 13.14479
vt 0.9438973 14.02787
vt 4.210945 10.62115
vt 4.831693 11.43013
vt 7.626122 7.626122
vt 8.34715 8.34715
vt 10.62115 4.210945
vt 11.43013 4.831693
vt 13.14479 0.4340551
vt 14.02787 0.9438973
vt 15.15385 -3.639925
vt 16.09592 -3.249709
vt 16.61397 -7.941288
vt 17.59891 -7.677369
vt 17.50015 -12.39643
vt 17.79725 -16.92913
vt 18.51112 -12.26334
vt 18.81693 -16.92913
vt 17.79725 2.445076
vt 16.92913 0
vt 19.68504 0
vt 18.81693 2.445076
vt 18.81693 4.89015
vt 18.81693 8.693603
vt 18.81693 11.13868
vt 17.79725 11.13868
vt 17.79725 4.89015
vt 17.79725 8.693603
vt -16.92913 -16.92913
vt -16.92913 -19.68504
vt -19.68504 -16.92913
vt -19.68504 -19.68504
vt 19.68504 16.92913
vt 16.92913 16.92913
vt 19.68504 19.68504
vt 16.92913 19.68504
vt 19.68504 -1.647505E-13
vt 16.92913 -1.647505E-13
vt 16.92913 18.81693
vt 16.92913 17.79725
vt 12.26334 18.51112
vt 12.39643 17.50015
vt 7.941288 16.61397
vt 7.677369 17.59891
vt 3.639925 15.15385
vt 3.249709 16.09592
vt -0.4340551 13.14479
vt -0.9438973 14.02787
vt -4.210945 10.62115
vt -4.831693 11.43013
vt -7.626122 7.626122
vt -8.34715 8.34715
vt -10.62115 4.210945
vt -11.43013 4.831693
vt -13.14479 0.4340551
vt -14.02787 0.9438973
vt -15.15385 -3.639925
vt -16.09592 -3.249709
vt -16.61397 -7.941288
vt -17.59891 -7.677369
vt -17.50015 -12.39643
vt -17.79725 -16.92913
vt -18.51112 -12.26334
vt -18.81693 -16.92913

usemtl woodDark

f 3/3/1 2/2/2 1/1/1
f 2/2/2 3/3/1 4/4/2
f 4/7/2 5/6/3 2/5/2
f 5/6/3 4/7/2 6/8/3
f 9/11/5 8/10/4 7/9/4
f 8/10/4 9/11/5 10/12/5
f 6/15/3 11/14/6 5/13/3
f 11/14/6 6/15/3 12/16/6
f 15/19/7 14/18/8 13/17/7
f 14/18/8 15/19/7 16/20/8
f 16/23/8 17/22/9 14/21/8
f 17/22/9 16/23/8 18/24/9
f 21/27/10 20/26/11 19/25/10
f 20/26/11 21/27/10 22/28/11
f 22/31/11 23/30/12 20/29/11
f 23/30/12 22/31/11 24/32/12
f 24/35/12 25/34/13 23/33/12
f 25/34/13 24/35/12 26/36/13
f 26/39/13 27/38/14 25/37/13
f 27/38/14 26/39/13 28/40/14
f 7/43/4 30/42/15 29/41/15
f 30/42/15 7/43/4 8/44/4
f 33/47/17 32/46/16 31/45/16
f 32/46/16 33/47/17 34/48/17
f 35/51/18 10/50/5 9/49/5
f 10/50/5 35/51/18 36/52/18
f 18/55/9 1/54/1 17/53/9
f 1/54/1 18/55/9 3/56/1
f 39/59/20 38/58/19 37/57/19
f 38/58/19 39/59/20 40/60/20
f 42/63/21 35/62/18 41/61/21
f 35/62/18 42/63/21 36/64/18
f 37/67/19 44/66/22 43/65/22
f 44/66/22 37/67/19 38/68/19
f 28/71/14 41/70/21 27/69/14
f 41/70/21 28/71/14 42/72/21
f 45/75/23 34/74/17 33/73/17
f 34/74/17 45/75/23 46/76/23
f 49/79/25 48/78/24 47/77/24
f 48/78/24 49/79/25 50/80/25
f 53/83/2 52/82/3 51/81/2
f 52/82/3 53/83/2 54/84/3
f 57/87/25 56/86/24 55/85/24
f 56/86/24 57/87/25 58/88/25
f 61/91/7 60/90/8 59/89/7
f 60/90/8 61/91/7 62/92/8
f 65/95/15 64/94/20 63/93/20
f 64/94/20 65/95/15 66/96/15
f 61/99/7 50/98/25 49/97/25
f 50/98/25 61/99/7 59/100/7
f 67/103/4 66/102/15 65/101/15
f 66/102/15 67/103/4 68/104/4
f 47/107/24 70/106/23 69/105/23
f 70/106/23 47/107/24 48/108/24
f 55/111/24 46/110/23 45/109/23
f 46/110/23 55/111/24 56/112/24
f 73/115/16 72/114/26 71/113/26
f 72/114/26 73/115/16 74/116/16
f 31/119/16 76/118/26 75/117/26
f 76/118/26 31/119/16 32/120/16
f 69/123/23 78/122/17 77/121/17
f 78/122/17 69/123/23 70/124/23
f 81/127/13 80/126/14 79/125/13
f 80/126/14 81/127/13 82/128/14
f 83/131/5 68/130/4 67/129/4
f 68/130/4 83/131/5 84/132/5
f 86/135/1 51/134/2 85/133/1
f 51/134/2 86/135/1 53/136/2
f 62/139/8 87/138/9 60/137/8
f 87/138/9 62/139/8 88/140/9
f 91/143/21 90/142/18 89/141/21
f 90/142/18 91/143/21 92/144/18
f 77/147/17 74/146/16 73/145/16
f 74/146/16 77/147/17 78/148/17
f 82/151/14 89/150/21 80/149/14
f 89/150/21 82/151/14 91/152/21
f 95/155/10 94/154/11 93/153/10
f 94/154/11 95/155/10 96/156/11
f 98/159/12 79/158/13 97/157/12
f 79/158/13 98/159/12 81/160/13
f 101/163/19 100/162/22 99/161/22
f 100/162/22 101/163/19 102/164/19
f 15/167/7 58/166/25 57/165/25
f 58/166/25 15/167/7 13/168/7
f 29/171/15 40/170/20 39/169/20
f 40/170/20 29/171/15 30/172/15
f 54/175/3 103/174/6 52/173/3
f 103/174/6 54/175/3 104/176/6
f 88/179/9 85/178/1 87/177/9
f 85/178/1 88/179/9 86/180/1
f 63/183/20 102/182/19 101/181/19
f 102/182/19 63/183/20 64/184/20
f 96/187/11 97/186/12 94/185/11
f 97/186/12 96/187/11 98/188/12
f 90/191/18 84/190/5 83/189/5
f 84/190/5 90/191/18 92/192/18

usemtl wood

f 107/195/27 106/194/27 105/193/27
f 106/194/27 107/195/27 108/196/27
f 107/199/28 109/198/28 108/197/28
f 109/198/28 107/199/28 110/200/28
f 113/203/29 112/202/29 111/201/29
f 112/202/29 113/203/29 114/204/29
f 116/207/30 76/206/30 115/205/30
f 76/206/30 116/207/30 109/201/30
f 76/206/30 109/201/30 75/208/30
f 75/208/30 109/201/30 72/209/30
f 75/208/30 72/209/30 44/210/30
f 72/209/30 109/201/30 71/211/30
f 71/211/30 109/201/30 100/212/30
f 43/213/30 115/205/30 76/206/30
f 115/205/30 43/213/30 110/203/30
f 110/203/30 43/213/30 44/210/30
f 110/203/30 100/212/30 109/201/30
f 110/203/30 44/210/30 99/214/30
f 99/214/30 44/210/30 72/209/30
f 110/203/30 99/214/30 100/212/30
f 115/216/31 107/203/31 105/215/31
f 107/203/31 115/216/31 110/201/31
f 118/201/27 112/205/27 117/207/27
f 112/205/27 118/201/27 111/203/27
f 118/219/28 113/218/28 111/217/28
f 113/218/28 118/219/28 119/220/28
f 6/223/28 21/222/28 12/221/28
f 21/222/28 6/223/28 22/224/28
f 22/224/28 6/223/28 4/225/28
f 22/224/28 4/225/28 24/226/28
f 24/226/28 4/225/28 3/227/28
f 24/226/28 3/227/28 26/228/28
f 26/228/28 3/227/28 18/229/28
f 26/228/28 18/229/28 28/230/28
f 28/230/28 18/229/28 16/231/28
f 28/230/28 16/231/28 42/232/28
f 42/232/28 16/231/28 15/233/28
f 42/232/28 15/233/28 36/234/28
f 36/234/28 15/233/28 57/235/28
f 36/234/28 57/235/28 10/236/28
f 10/236/28 57/235/28 55/237/28
f 10/236/28 55/237/28 8/238/28
f 8/238/28 55/237/28 45/239/28
f 8/238/28 45/239/28 30/240/28
f 30/240/28 45/239/28 33/241/28
f 30/240/28 33/241/28 40/242/28
f 40/242/28 33/241/28 31/243/28
f 40/242/28 31/243/28 75/244/28
f 40/242/28 75/244/28 38/245/28
f 38/245/28 75/244/28 44/246/28
f 117/248/31 11/247/31 118/196/31
f 11/247/31 117/248/31 120/249/31
f 11/247/31 120/249/31 19/250/31
f 19/250/31 120/249/31 21/251/31
f 21/251/31 120/249/31 93/252/31
f 93/252/31 120/249/31 95/253/31
f 104/254/31 118/196/31 11/247/31
f 118/196/31 104/254/31 119/195/31
f 119/195/31 104/254/31 95/253/31
f 119/195/31 95/253/31 120/249/31
f 104/254/31 11/247/31 12/255/31
f 104/254/31 12/255/31 103/256/31
f 21/251/31 103/256/31 12/255/31
f 103/256/31 21/251/31 93/252/31
f 115/259/32 106/258/32 116/257/32
f 106/258/32 115/259/32 105/260/32
f 114/263/32 117/262/32 112/261/32
f 117/262/32 114/263/32 120/264/32
f 113/195/30 120/266/30 114/265/30
f 120/266/30 113/195/30 119/196/30
f 109/196/29 106/249/29 108/195/29
f 106/249/29 109/196/29 116/248/29
f 20/269/32 11/268/32 19/267/32
f 11/268/32 20/269/32 5/270/32
f 5/270/32 20/269/32 2/271/32
f 2/271/32 20/269/32 23/272/32
f 2/271/32 23/272/32 1/273/32
f 1/273/32 23/272/32 25/274/32
f 1/273/32 25/274/32 17/275/32
f 17/275/32 25/274/32 27/276/32
f 17/275/32 27/276/32 14/277/32
f 14/277/32 27/276/32 41/278/32
f 14/277/32 41/278/32 13/279/32
f 13/279/32 41/278/32 35/280/32
f 13/279/32 35/280/32 58/281/32
f 58/281/32 35/280/32 9/282/32
f 58/281/32 9/282/32 56/283/32
f 56/283/32 9/282/32 7/284/32
f 56/283/32 7/284/32 46/285/32
f 46/285/32 7/284/32 29/286/32
f 46/285/32 29/286/32 34/287/32
f 34/287/32 29/286/32 39/288/32
f 34/287/32 39/288/32 32/289/32
f 32/289/32 39/288/32 76/290/32
f 76/290/32 39/288/32 37/291/32
f 76/290/32 37/291/32 43/292/32
f 94/269/32 103/268/32 93/267/32
f 103/268/32 94/269/32 52/270/32
f 52/270/32 94/269/32 51/271/32
f 51/271/32 94/269/32 97/272/32
f 51/271/32 97/272/32 85/273/32
f 85/273/32 97/272/32 79/274/32
f 85/273/32 79/274/32 87/275/32
f 87/275/32 79/274/32 80/276/32
f 87/275/32 80/276/32 60/277/32
f 60/277/32 80/276/32 89/278/32
f 60/277/32 89/278/32 59/279/32
f 59/279/32 89/278/32 90/280/32
f 59/279/32 90/280/32 50/281/32
f 50/281/32 90/280/32 83/282/32
f 50/281/32 83/282/32 48/283/32
f 48/283/32 83/282/32 67/284/32
f 48/283/32 67/284/32 70/285/32
f 70/285/32 67/284/32 65/286/32
f 70/285/32 65/286/32 78/287/32
f 78/287/32 65/286/32 63/288/32
f 78/287/32 63/288/32 74/289/32
f 74/289/32 63/288/32 72/290/32
f 72/290/32 63/288/32 101/291/32
f 72/290/32 101/291/32 99/292/32
f 54/223/28 95/222/28 104/221/28
f 95/222/28 54/223/28 96/224/28
f 96/224/28 54/223/28 53/225/28
f 96/224/28 53/225/28 98/226/28
f 98/226/28 53/225/28 86/227/28
f 98/226/28 86/227/28 81/228/28
f 81/228/28 86/227/28 88/229/28
f 81/228/28 88/229/28 82/230/28
f 82/230/28 88/229/28 62/231/28
f 82/230/28 62/231/28 91/232/28
f 91/232/28 62/231/28 61/233/28
f 91/232/28 61/233/28 92/234/28
f 92/234/28 61/233/28 49/235/28
f 92/234/28 49/235/28 84/236/28
f 84/236/28 49/235/28 47/237/28
f 84/236/28 47/237/28 68/238/28
f 68/238/28 47/237/28 69/239/28
f 68/238/28 69/239/28 66/240/28
f 66/240/28 69/239/28 77/241/28
f 66/240/28 77/241/28 64/242/28
f 64/242/28 77/241/28 73/243/28
f 64/242/28 73/243/28 71/244/28
f 64/242/28 71/244/28 102/245/28
f 102/245/28 71/244/28 100/246/28

