# Created by Kenney (www.kenney.nl)

mtllib fence_simple.mtl

g fence_simple

v 0.43 0.2208175 0.47795
v 0.43 0.2208175 0.45205
v -0.43 0.2208175 0.47795
v -0.43 0.2208175 0.45205
v 0.43 0.06210492 0.47795
v 0.43 0.06210492 0.45205
v -0.43 0.06210492 0.47795
v -0.43 0.06210492 0.45205
v -0.43 0 0.5
v -0.5 0 0.5
v -0.43 0.3450273 0.5
v -0.5 0.3450273 0.5
v 0.5 0 0.5
v 0.43 0 0.5
v 0.5 0.3450273 0.5
v 0.43 0.3450273 0.5
v 0.43 0.1242098 0.45205
v 0.43 0.1242098 0.47795
v -0.43 0.1242098 0.45205
v -0.43 0.1242098 0.47795
v 0.43 0 0.43
v 0.5 0 0.43
v 0.43 0.3450273 0.43
v 0.5 0.3450273 0.43
v -0.43 0.3450273 0.43
v -0.5 0.3450273 0.43
v -0.43 0 0.43
v -0.5 0 0.43
v 0.43 0.2829224 0.45205
v 0.43 0.2829224 0.47795
v -0.43 0.2829224 0.45205
v -0.43 0.2829224 0.47795

vn 0 -1 0
vn 0 0 1
vn 0 1 0
vn 0 0 -1
vn 1 0 0
vn -1 0 0

vt 16.92913 18.81693
vt 16.92913 17.79725
vt -16.92913 18.81693
vt -16.92913 17.79725
vt -16.92913 0
vt -19.68504 0
vt -16.92913 13.58375
vt -19.68504 13.58375
vt 19.68504 0
vt 16.92913 0
vt 19.68504 13.58375
vt 16.92913 13.58375
vt 16.92913 16.92913
vt 16.92913 19.68504
vt 19.68504 16.92913
vt 19.68504 19.68504
vt -16.92913 19.68504
vt -16.92913 16.92913
vt -19.68504 19.68504
vt -19.68504 16.92913
vt -17.79725 11.13868
vt -18.81693 11.13868
vt -18.81693 8.693603
vt -18.81693 4.89015
vt -18.81693 2.445076
vt -17.79725 2.445076
vt -17.79725 8.693603
vt -17.79725 4.89015
vt -16.92913 2.059381E-14
vt -19.68504 2.059381E-14
vt 17.79725 2.445076
vt 18.81693 2.445076
vt 18.81693 4.89015
vt 18.81693 8.693603
vt 18.81693 11.13868
vt 17.79725 11.13868
vt 17.79725 4.89015
vt 17.79725 8.693603
vt 16.92913 2.445076
vt -16.92913 2.445076
vt 16.92913 4.89015
vt -16.92913 4.89015
vt 16.92913 8.693603
vt -16.92913 8.693603
vt 16.92913 11.13868
vt -16.92913 11.13868

usemtl wood

f 3/3/1 2/2/1 1/1/1
f 2/2/1 3/3/1 4/4/1
f 7/3/1 6/2/1 5/1/1
f 6/2/1 7/3/1 8/4/1
f 11/7/2 10/6/2 9/5/2
f 10/6/2 11/7/2 12/8/2
f 15/11/2 14/10/2 13/9/2
f 14/10/2 15/11/2 16/12/2
f 19/2/3 18/3/3 17/4/3
f 18/3/3 19/2/3 20/1/3
f 23/7/4 22/6/4 21/5/4
f 22/6/4 23/7/4 24/8/4
f 26/15/3 11/14/3 25/13/3
f 11/14/3 26/15/3 12/16/3
f 14/14/1 22/15/1 13/16/1
f 22/15/1 14/14/1 21/13/1
f 10/19/1 27/18/1 9/17/1
f 27/18/1 10/19/1 28/20/1
f 31/2/3 30/3/3 29/4/3
f 30/3/3 31/2/3 32/1/3
f 25/7/5 31/21/5 27/5/5
f 31/21/5 25/7/5 11/8/5
f 31/21/5 11/8/5 32/22/5
f 32/22/5 11/8/5 3/23/5
f 3/23/5 11/8/5 20/24/5
f 20/24/5 11/8/5 7/25/5
f 8/26/5 27/5/5 31/21/5
f 27/5/5 8/26/5 9/6/5
f 9/6/5 8/26/5 7/25/5
f 9/6/5 7/25/5 11/8/5
f 8/26/5 31/21/5 4/27/5
f 8/26/5 4/27/5 19/28/5
f 3/23/5 19/28/5 4/27/5
f 19/28/5 3/23/5 20/24/5
f 23/18/3 15/19/3 24/20/3
f 15/19/3 23/18/3 16/17/3
f 15/8/5 22/29/5 24/7/5
f 22/29/5 15/8/5 13/30/5
f 26/11/4 27/10/4 28/9/4
f 27/10/4 26/11/4 25/12/4
f 10/9/6 26/12/6 28/10/6
f 26/12/6 10/9/6 12/11/6
f 21/10/6 6/31/6 23/12/6
f 6/31/6 21/10/6 14/9/6
f 6/31/6 14/9/6 5/32/6
f 5/32/6 14/9/6 18/33/6
f 18/33/6 14/9/6 1/34/6
f 1/34/6 14/9/6 30/35/6
f 29/36/6 23/12/6 6/31/6
f 23/12/6 29/36/6 16/11/6
f 16/11/6 29/36/6 30/35/6
f 16/11/6 30/35/6 14/9/6
f 29/36/6 6/31/6 17/37/6
f 29/36/6 17/37/6 2/38/6
f 18/33/6 2/38/6 17/37/6
f 2/38/6 18/33/6 1/34/6

usemtl woodDark

f 19/41/4 6/40/4 8/39/4
f 6/40/4 19/41/4 17/42/4
f 30/45/2 3/44/2 1/43/2
f 3/44/2 30/45/2 32/46/2
f 31/45/4 2/44/4 4/43/4
f 2/44/4 31/45/4 29/46/4
f 18/41/2 7/40/2 5/39/2
f 7/40/2 18/41/2 20/42/2

