# Created by Kenney (www.kenney.nl)

mtllib fence_simpleDiagonalCenter.mtl

g fence_simpleDiagonalCenter

v 0.4483141 0.1242098 0.43
v 0.43 0.1242098 0.43
v 0.0349999 0.1242098 0.01668601
v 0.43 0.1242098 0.448314
v 0.0349999 0.1242098 0.03499999
v 0.01668601 0.1242098 0.03499999
v -0.01668601 0.2829224 -0.0349999
v -0.03499999 0.2829224 -0.0349999
v -0.43 0.2829224 -0.4483141
v -0.03499999 0.2829224 -0.01668601
v -0.43 0.2829224 -0.43
v -0.448314 0.2829224 -0.43
v 0.43 0.06210492 0.448314
v 0.43 0.06210492 0.43
v 0.01668601 0.06210492 0.03499999
v 0.0349999 0.06210492 0.03499999
v 0.0349999 0.06210492 0.01668601
v 0.4483141 0.06210492 0.43
v -0.43 0.1242098 -0.43
v -0.448314 0.1242098 -0.43
v -0.43 0.2208175 -0.43
v -0.448314 0.2208175 -0.43
v -0.5 0.3450273 -0.43
v -0.448314 0.06210492 -0.43
v -0.5 0 -0.43
v -0.43 0.06210492 -0.43
v -0.43 0 -0.43
v -0.43 0.3450273 -0.43
v -0.5 0 -0.5
v -0.43 0 -0.5
v -0.5 0.3450273 -0.5
v -0.43 0.3450273 -0.5
v 0.5 0 0.5
v 0.5 0 0.43
v 0.43 0 0.5
v 0.43 0 0.43
v 0.5 0.3450273 0.43
v 0.5 0.3450273 0.5
v 0.43 0.3450273 0.43
v 0.43 0.3450273 0.5
v -0.03499999 0 -0.0349999
v -0.03499999 0.06210492 -0.0349999
v -0.03499999 0 0.03499999
v -0.03499999 0.06210492 -0.01668601
v -0.03499999 0.1242098 -0.01668601
v -0.03499999 0.2208175 -0.01668601
v -0.03499999 0.3450273 0.03499999
v -0.03499999 0.3450273 -0.0349999
v -0.03499999 0.2208175 -0.0349999
v -0.03499999 0.1242098 -0.0349999
v 0.4483141 0.2829224 0.43
v 0.43 0.2829224 0.43
v 0.0349999 0.2829224 0.01668601
v 0.43 0.2829224 0.448314
v 0.0349999 0.2829224 0.03499999
v 0.01668601 0.2829224 0.03499999
v -0.43 0.06210492 -0.4483141
v -0.43 0.2208175 -0.4483141
v -0.43 0.1242098 -0.4483141
v 0.43 0.2208175 0.43
v 0.4483141 0.2208175 0.43
v -0.01668601 0.2208175 -0.0349999
v 0.0349999 0.2208175 0.03499999
v 0.01668601 0.2208175 0.03499999
v 0.0349999 0 0.03499999
v 0.0349999 0.3450273 0.03499999
v 0.0349999 0.3450273 -0.0349999
v -0.01668601 0.1242098 -0.0349999
v -0.01668601 0.06210492 -0.0349999
v 0.0349999 0 -0.0349999
v 0.43 0.2208175 0.448314
v 0.0349999 0.2208175 0.01668601

vn 0 1 0
vn 0 -1 0
vn 0 0 1
vn 0 0 -1
vn -1 0 0
vn 1 0 0
vn 0.7071066 0 -0.7071069
vn 0.7071069 0 -0.7071066
vn -0.7071067 0 0.7071068
vn -0.7071068 0 0.7071067

vt -17.65016 16.92913
vt -16.92913 16.92913
vt -1.377949 0.6569296
vt -16.92913 17.65016
vt -1.377949 1.377952
vt -0.6569296 1.377952
vt 0.6569296 -1.377949
vt 1.377952 -1.377949
vt 16.92913 -17.65016
vt 1.377952 -0.6569296
vt 16.92913 -16.92913
vt 17.65016 -16.92913
vt 16.92913 17.65016
vt 16.92913 16.92913
vt 0.6569296 1.377952
vt 1.377949 1.377952
vt 1.377949 0.6569296
vt 17.65016 16.92913
vt -16.92913 4.89015
vt -17.65016 4.89015
vt -16.92913 8.693603
vt -17.65016 8.693603
vt -19.68504 13.58375
vt -17.65016 2.445076
vt -19.68504 4.440894E-16
vt -16.92913 2.445076
vt -16.92913 4.440894E-16
vt -17.65016 11.13868
vt -16.92913 13.58375
vt -16.92913 11.13868
vt 19.68504 4.118762E-14
vt 16.92913 4.163171E-14
vt 19.68504 13.58375
vt 16.92913 13.58375
vt 19.68504 19.68504
vt 19.68504 16.92913
vt 16.92913 19.68504
vt -19.68504 16.92913
vt -19.68504 19.68504
vt -16.92913 19.68504
vt -1.377949 0
vt -1.377949 2.445076
vt 1.377952 0
vt -0.6569296 2.445076
vt -0.6569296 4.89015
vt -0.6569296 8.693603
vt -0.6569296 11.13868
vt 1.377952 13.58375
vt -1.377949 13.58375
vt -1.377949 11.13868
vt -1.377949 8.693603
vt -1.377949 4.89015
vt -19.68504 0
vt 19.68504 4.440894E-16
vt 17.65016 11.13868
vt 16.92913 11.13868
vt 17.65016 2.445076
vt 16.92913 4.440894E-16
vt 17.65016 8.693603
vt 17.65016 4.89015
vt 16.92913 8.693603
vt 16.92913 4.89015
vt 16.92913 2.445076
vt -16.92913 -16.92913
vt -16.92913 -19.68504
vt -19.68504 -16.92913
vt -19.68504 -19.68504
vt -17.65016 4.89015
vt -17.65016 8.693603
vt -17.65016 2.445076
vt -17.65016 11.13868
vt -1.377952 -0.6569296
vt -1.377952 -1.377949
vt -17.65016 -16.92913
vt -16.92913 -17.65016
vt -0.6569296 -1.377949
vt 16.92913 -19.68504
vt 19.68504 -19.68504
vt 19.68504 -16.92913
vt 1.377949 4.89015
vt 0.6569296 4.89015
vt 1.377949 8.693603
vt 0.6569296 8.693603
vt -1.377952 13.58375
vt 0.6569296 2.445076
vt -1.377952 0
vt 1.377949 2.445076
vt 1.377949 0
vt 0.6569296 11.13868
vt 1.377949 13.58375
vt 1.377949 11.13868
vt -1.377949 -1.377949
vt 1.377952 1.377952
vt 1.377952 4.89015
vt 1.377952 8.693603
vt 1.377952 2.445076
vt 1.377952 11.13868
vt 17.65016 2.445076
vt 17.65016 4.89015
vt 17.65016 8.693603
vt 17.65016 11.13868
vt -19.68504 -4.118762E-14
vt -16.92913 -4.074353E-14
vt 19.68504 -4.118762E-14
vt 16.92913 -4.074353E-14
vt -1.377952 11.13868
vt -1.377952 8.693603
vt -1.377952 4.89015
vt -1.377952 2.445076
vt -1.438876 8.693603
vt -24.45125 8.693603
vt -1.438876 11.13868
vt -24.45125 11.13868
vt 24.45125 11.13868
vt 24.45125 8.693603
vt 1.438876 11.13868
vt 1.438876 8.693603
vt -1.438879 2.445076
vt -24.45125 2.445076
vt -1.438879 4.89015
vt -24.45125 4.89015
vt 24.45125 4.89015
vt 24.45125 2.445076
vt 1.438876 4.89015
vt 1.438876 2.445076
vt 1.438879 8.693603
vt 1.438879 11.13868
vt -1.438879 8.693603
vt -1.438879 11.13868
vt -1.438876 2.445076
vt -1.438876 4.89015
vt 1.438879 2.445076
vt 1.438879 4.89015

usemtl wood

f 3/3/1 2/2/1 1/1/1
f 2/2/1 3/3/1 4/4/1
f 4/4/1 3/3/1 5/5/1
f 4/4/1 5/5/1 6/6/1
f 9/9/1 8/8/1 7/7/1
f 8/8/1 9/9/1 10/10/1
f 10/10/1 9/9/1 11/11/1
f 10/10/1 11/11/1 12/12/1
f 15/15/2 14/14/2 13/13/2
f 14/14/2 15/15/2 16/16/2
f 17/17/2 14/14/2 16/16/2
f 14/14/2 17/17/2 18/18/2
f 21/21/3 20/20/3 19/19/3
f 22/22/3 20/20/3 21/21/3
f 23/23/3 20/20/3 22/22/3
f 23/23/3 24/24/3 20/20/3
f 25/25/3 24/24/3 23/23/3
f 25/25/3 26/26/3 24/24/3
f 26/26/3 25/25/3 27/27/3
f 23/23/3 22/22/3 12/28/3
f 23/23/3 12/28/3 28/29/3
f 28/29/3 12/28/3 11/30/3
f 31/33/4 30/32/4 29/31/4
f 30/32/4 31/33/4 32/34/4
f 35/37/2 34/36/2 33/35/2
f 34/36/2 35/37/2 36/14/2
f 39/2/1 38/39/1 37/38/1
f 38/39/1 39/2/1 40/40/1
f 43/43/5 42/42/5 41/41/5
f 42/42/5 43/43/5 44/44/5
f 44/44/5 43/43/5 45/45/5
f 45/45/5 43/43/5 46/46/5
f 46/46/5 43/43/5 10/47/5
f 47/48/5 10/47/5 43/43/5
f 48/49/5 10/47/5 47/48/5
f 10/47/5 48/49/5 8/50/5
f 49/51/5 45/45/5 46/46/5
f 45/45/5 49/51/5 50/52/5
f 53/3/1 52/2/1 51/1/1
f 52/2/1 53/3/1 54/4/1
f 54/4/1 53/3/1 55/5/1
f 54/4/1 55/5/1 56/6/1
f 38/23/6 34/27/6 37/29/6
f 34/27/6 38/23/6 33/53/6
f 32/33/6 9/55/6 30/54/6
f 9/55/6 32/33/6 28/34/6
f 9/55/6 28/34/6 11/56/6
f 57/57/6 30/54/6 9/55/6
f 30/54/6 57/57/6 27/58/6
f 57/57/6 9/55/6 58/59/6
f 57/57/6 58/59/6 59/60/6
f 21/61/6 59/60/6 58/59/6
f 59/60/6 21/61/6 19/62/6
f 27/58/6 57/57/6 26/63/6
f 25/66/2 30/65/2 27/64/2
f 30/65/2 25/66/2 29/67/2
f 60/21/4 1/68/4 2/19/4
f 61/69/4 1/68/4 60/21/4
f 37/23/4 1/68/4 61/69/4
f 37/23/4 18/70/4 1/68/4
f 34/25/4 18/70/4 37/23/4
f 34/25/4 14/26/4 18/70/4
f 14/26/4 34/25/4 36/27/4
f 37/23/4 61/69/4 51/71/4
f 37/23/4 51/71/4 39/29/4
f 39/29/4 51/71/4 52/30/4
f 22/74/2 49/73/2 46/72/2
f 49/73/2 22/74/2 21/64/2
f 58/75/2 49/73/2 21/64/2
f 49/73/2 58/75/2 62/76/2
f 31/78/1 28/11/1 32/77/1
f 28/11/1 31/78/1 23/79/1
f 63/82/3 6/81/3 5/80/3
f 64/83/3 6/81/3 63/82/3
f 47/84/3 6/81/3 64/83/3
f 47/84/3 15/85/3 6/81/3
f 43/86/3 15/85/3 47/84/3
f 43/86/3 16/87/3 15/85/3
f 16/87/3 43/86/3 65/88/3
f 47/84/3 64/83/3 56/89/3
f 47/84/3 56/89/3 66/90/3
f 66/90/3 56/89/3 55/91/3
f 48/8/1 66/5/1 67/92/1
f 66/5/1 48/8/1 47/93/1
f 49/95/4 68/81/4 50/94/4
f 62/83/4 68/81/4 49/95/4
f 67/49/4 68/81/4 62/83/4
f 67/49/4 69/85/4 68/81/4
f 70/41/4 69/85/4 67/49/4
f 70/41/4 42/96/4 69/85/4
f 42/96/4 70/41/4 41/43/4
f 67/49/4 62/83/4 7/89/4
f 67/49/4 7/89/4 48/48/4
f 48/48/4 7/89/4 8/97/4
f 35/54/5 14/63/5 36/58/5
f 14/63/5 35/54/5 13/98/5
f 13/98/5 35/54/5 4/99/5
f 4/99/5 35/54/5 71/100/5
f 71/100/5 35/54/5 54/101/5
f 40/33/5 54/101/5 35/54/5
f 39/34/5 54/101/5 40/33/5
f 54/101/5 39/34/5 52/56/5
f 60/61/5 4/99/5 71/100/5
f 4/99/5 60/61/5 2/62/5
f 29/102/5 23/29/5 31/23/5
f 23/29/5 29/102/5 25/103/5
f 59/9/1 50/8/1 68/7/1
f 50/8/1 59/9/1 45/10/1
f 45/10/1 59/9/1 19/11/1
f 45/10/1 19/11/1 20/12/1
f 38/33/3 35/105/3 33/104/3
f 35/105/3 38/33/3 40/34/3
f 64/15/2 60/14/2 71/13/2
f 60/14/2 64/15/2 63/16/2
f 72/17/2 60/14/2 63/16/2
f 60/14/2 72/17/2 61/18/2
f 67/90/6 53/47/6 70/88/6
f 53/47/6 67/90/6 66/84/6
f 53/47/6 66/84/6 55/106/6
f 17/44/6 70/88/6 53/47/6
f 70/88/6 17/44/6 65/86/6
f 17/44/6 53/47/6 72/46/6
f 17/44/6 72/46/6 3/45/6
f 63/107/6 3/45/6 72/46/6
f 3/45/6 63/107/6 5/108/6
f 65/86/6 17/44/6 16/109/6
f 24/74/2 42/73/2 44/72/2
f 42/73/2 24/74/2 26/64/2
f 57/75/2 42/73/2 26/64/2
f 42/73/2 57/75/2 69/76/2

usemtl _defaultMat

f 43/4/2 70/5/2 65/6/2
f 70/4/2 43/5/2 41/6/2

usemtl woodDark

f 53/112/7 61/111/7 72/110/7
f 61/111/7 53/112/7 51/113/7
f 7/116/8 58/115/8 9/114/8
f 58/115/8 7/116/8 62/117/8
f 45/120/9 24/119/9 44/118/9
f 24/119/9 45/120/9 20/121/9
f 68/124/8 57/123/8 59/122/8
f 57/123/8 68/124/8 69/125/8
f 71/115/10 56/127/10 64/126/10
f 56/127/10 71/115/10 54/114/10
f 10/129/9 22/111/9 46/128/9
f 22/111/9 10/129/9 12/113/9
f 3/131/7 18/119/7 17/130/7
f 18/119/7 3/131/7 1/121/7
f 13/123/10 6/133/10 15/132/10
f 6/133/10 13/123/10 4/122/10

