# Created by Kenney (www.kenney.nl)

mtllib fence_planksDouble.mtl

g fence_planksDouble

v 0.5 0.1242098 0.5
v 0.4230769 0.1242098 0.5
v 0.5 0.2208175 0.5
v 0.4230769 0.2208175 0.5
v 0.5 0.06210492 0.5259
v -0.5 0.06210492 0.5259
v 0.5 0.1242098 0.5259
v -0.5 0.1242098 0.5259
v 0.5 0 0.5
v 0.5 0 0.4660365
v 0.4230769 0 0.5
v 0.4230769 0 0.4660365
v -0.1153846 0.2829224 0.5
v -0.1923077 0.2829224 0.5
v -0.1153846 0.3450273 0.5
v -0.1923077 0.3450273 0.5
v -0.1923077 0 0.4660365
v -0.1153846 0 0.4660365
v -0.1923077 0.3450273 0.4660365
v -0.1153846 0.3450273 0.4660365
v 0.1923077 0.1242098 0.5
v 0.1153846 0.1242098 0.5
v -0.1153846 0.1242098 0.5
v -0.1923077 0.1242098 0.5
v -0.4230768 0.1242098 0.5
v -0.5 0.1242098 0.5
v -0.5 0 0.4660365
v -0.5 0.3450273 0.4660365
v -0.5 0 0.5
v -0.5 0.3450273 0.5
v -0.5 0.06210492 0.5
v -0.5 0.2208175 0.5
v -0.5 0.2829224 0.5
v 0.1923077 0.06210492 0.5
v 0.4230769 0.06210492 0.5
v 0.5 0.3450273 0.5
v 0.4230769 0.3450273 0.5
v 0.5 0.3450273 0.4660365
v 0.4230769 0.3450273 0.4660365
v -0.4230768 0 0.5
v -0.4230768 0.06210492 0.5
v -0.1153846 0 0.5
v -0.1153846 0.2208175 0.5
v -0.1153846 0.06210492 0.5
v -0.1923077 0 0.5
v -0.1923077 0.2208175 0.5
v -0.4230768 0.2208175 0.5
v -0.4230768 0.2829224 0.5
v 0.5 0.06210492 0.5
v -0.1923077 0.06210492 0.5
v 0.1153846 0.2208175 0.5
v 0.1153846 0.2829224 0.5
v 0.5 0.2829224 0.5259
v -0.5 0.2829224 0.5259
v 0.5 0.2829224 0.5
v 0.4230769 0.2829224 0.5
v 0.1923077 0.2829224 0.5
v -0.5 0.2208175 0.5259
v -0.4230768 0.3450273 0.5
v -0.4230768 0.3450273 0.4660365
v -0.4230768 0 0.4660365
v 0.1153846 0 0.4660365
v 0.1153846 0.3450273 0.4660365
v 0.1153846 0 0.5
v 0.1153846 0.3450273 0.5
v 0.1153846 0.06210492 0.5
v 0.1923077 0.2208175 0.5
v 0.1923077 0 0.5
v 0.1923077 0 0.4660365
v 0.1923077 0.3450273 0.4660365
v 0.1923077 0.3450273 0.5
v 0.5 0.2208175 0.5259

vn 0.9486833 0 0.3162278
vn 0 0 1
vn 0 -1 0
vn -0.8944272 0 0.4472136
vn -0.7071068 0 0.7071068
vn 0 0 -1
vn 0 1 0
vn -1 0 0
vn 1 0 0
vn 0.7071068 0 0.7071068

vt 19.68504 4.89015
vt 16.65657 4.89015
vt 19.68504 8.693603
vt 16.65657 8.693603
vt 19.68504 2.445076
vt -19.68504 2.445076
vt -19.68504 4.89015
vt 19.68504 19.68504
vt 19.68504 18.34789
vt 16.65657 19.68504
vt 16.65657 18.34789
vt -4.5427 11.13868
vt -7.57117 11.13868
vt -4.5427 13.58375
vt -7.57117 13.58375
vt 7.57117 0
vt 4.5427 0
vt 7.57117 13.58375
vt 4.5427 13.58375
vt -19.68504 20.70473
vt 19.68504 20.70473
vt -19.68504 19.68504
vt -16.65657 19.68504
vt -7.57117 19.68504
vt -4.542701 19.68504
vt 4.5427 19.68504
vt 7.57117 19.68504
vt 16.65657 19.68504
vt 18.34789 0
vt 18.34789 13.58375
vt 19.68504 0
vt 19.68504 13.58375
vt 19.68504 11.13868
vt -7.57117 2.445076
vt -16.65657 2.445076
vt -7.57117 4.89015
vt -16.65657 4.89015
vt -19.68504 18.34789
vt -16.65657 18.34789
vt -16.65657 7.779884E-12
vt -19.68504 7.779884E-12
vt -16.65657 2.445076
vt -18.34789 13.58375
vt -18.34789 9.154843E-31
vt -19.68504 13.58375
vt -19.68504 9.154843E-31
vt -19.68504 11.13868
vt -19.68504 8.693603
vt -4.5427 19.68504
vt -4.5427 18.34789
vt -7.57117 18.34789
vt -4.5427 4.89015
vt -4.5427 8.693603
vt -7.57117 8.693603
vt 16.65657 8.693603
vt 7.57117 8.693603
vt 16.65657 11.13868
vt 7.57117 11.13868
vt -16.65657 4.89015
vt -16.65657 8.693603
vt -16.65657 0
vt -19.68504 0
vt -16.65657 13.58375
vt 19.68504 -1.28859E-26
vt 16.65657 -1.28859E-26
vt 16.65657 2.445076
vt -4.5427 0
vt -7.57117 0
vt -4.5427 2.445076
vt 4.5427 8.693603
vt -4.542701 8.693603
vt 4.5427 11.13868
vt -4.542701 11.13868
vt 16.65657 2.445076
vt 7.57117 2.445076
vt 16.65657 4.89015
vt 7.57117 4.89015
vt 20.70473 2.445076
vt 20.70473 4.89015
vt 4.5427 18.34789
vt 7.57117 18.34789
vt 20.70473 8.693603
vt 20.70473 11.13868
vt 16.65657 18.34789
vt 16.65657 0
vt 16.65657 13.58375
vt 18.34789 1.830066E-30
vt 19.68504 1.830066E-30
vt 4.5427 2.445076
vt -4.542701 2.445076
vt 4.5427 4.89015
vt -4.542701 4.89015
vt -16.65657 8.693603
vt -16.65657 11.13868
vt 4.542701 0
vt 4.542701 2.445076
vt -18.34789 3.35676E-30
vt -19.68504 3.35676E-30
vt -4.542701 0
vt -4.542701 13.58375
vt 18.34789 -1.527125E-29
vt 19.68504 -1.527125E-29
vt 4.542701 11.13868
vt 4.542701 13.58375
vt 16.65657 11.13868
vt 16.65657 13.58375
vt 4.542701 4.89015
vt 4.542701 8.693603
vt -4.542701 18.34789
vt -20.70473 4.89015
vt -20.70473 2.445076
vt -19.68504 -1.143939E-21
vt -18.34789 -1.143939E-21
vt 4.542701 19.68504
vt -16.65657 19.68504
vt -18.34789 -1.525808E-30
vt -19.68504 -1.525808E-30
vt -16.65657 11.13868
vt -16.65657 13.58375
vt -16.65657 18.34789
vt -20.70473 11.13868
vt -20.70473 8.693603
vt 4.542701 18.34789

usemtl wood

f 3/3/1 2/2/2 1/1/1
f 2/2/2 3/3/1 4/4/2
f 7/1/2 6/6/2 5/5/2
f 6/6/2 7/1/2 8/7/2
f 11/10/3 10/9/3 9/8/3
f 10/9/3 11/10/3 12/11/3
f 15/14/2 14/13/4 13/12/2
f 14/13/4 15/14/2 16/15/5
f 19/18/6 18/17/6 17/16/6
f 18/17/6 19/18/6 20/19/6
f 1/22/7 8/21/7 7/20/7
f 8/21/7 1/22/7 2/23/7
f 8/21/7 2/23/7 21/24/7
f 8/21/7 21/24/7 22/25/7
f 8/21/7 22/25/7 23/26/7
f 8/21/7 23/26/7 24/27/7
f 8/21/7 24/27/7 25/28/7
f 8/21/7 25/28/7 26/8/7
f 29/31/8 28/30/8 27/29/8
f 28/30/8 29/31/8 30/32/8
f 30/32/8 29/31/8 31/5/8
f 30/32/8 31/5/8 26/1/8
f 30/32/8 26/1/8 32/3/8
f 30/32/8 32/3/8 33/33/8
f 21/36/6 35/35/6 34/34/6
f 35/35/6 21/36/6 2/37/6
f 38/38/7 37/23/7 36/22/7
f 37/23/7 38/38/7 39/39/7
f 41/42/2 29/41/2 40/40/2
f 29/41/2 41/42/2 31/6/2
f 15/45/9 18/44/9 20/43/9
f 18/44/9 15/45/9 42/46/9
f 42/46/9 15/45/9 13/47/9
f 42/46/9 13/47/9 43/48/9
f 42/46/9 43/48/9 23/7/9
f 42/46/9 23/7/9 44/6/9
f 45/24/3 18/50/3 42/49/3
f 18/50/3 45/24/3 17/51/3
f 43/53/2 24/36/2 23/52/2
f 24/36/2 43/53/2 46/54/2
f 48/57/6 46/56/6 47/55/6
f 46/56/6 48/57/6 14/58/6
f 47/60/2 26/7/2 25/59/2
f 26/7/2 47/60/2 32/48/2
f 39/63/6 10/62/6 12/61/6
f 10/62/6 39/63/6 38/45/6
f 49/5/1 11/65/2 9/64/10
f 11/65/2 49/5/1 35/66/2
f 44/69/2 45/68/2 42/67/2
f 45/68/2 44/69/2 50/34/2
f 13/72/6 51/71/6 43/70/6
f 51/71/6 13/72/6 52/73/6
f 25/76/6 50/75/6 41/74/6
f 50/75/6 25/76/6 24/77/6
f 55/22/7 54/21/7 53/20/7
f 54/21/7 55/22/7 56/23/7
f 54/21/7 56/23/7 57/24/7
f 54/21/7 57/24/7 52/25/7
f 54/21/7 52/25/7 13/26/7
f 54/21/7 13/26/7 14/27/7
f 54/21/7 14/27/7 48/28/7
f 54/21/7 48/28/7 33/8/7
f 6/78/8 26/1/8 31/5/8
f 26/1/8 6/78/8 8/79/8
f 20/80/7 16/27/7 15/26/7
f 16/27/7 20/80/7 19/81/7
f 58/82/8 33/33/8 32/3/8
f 33/33/8 58/82/8 54/83/8
f 60/84/7 30/8/7 59/28/7
f 30/8/7 60/84/7 28/9/7
f 28/32/6 61/85/6 27/31/6
f 61/85/6 28/32/6 60/86/6
f 45/31/8 19/30/8 17/29/8
f 19/30/8 45/31/8 16/32/5
f 16/32/5 45/31/8 50/5/8
f 16/32/5 50/5/8 24/1/8
f 16/32/5 24/1/8 46/3/8
f 16/32/5 46/3/8 14/33/4
f 64/88/8 63/30/8 62/87/8
f 63/30/8 64/88/8 65/32/8
f 65/32/8 64/88/8 66/5/8
f 65/32/8 66/5/8 22/1/8
f 65/32/8 22/1/8 51/3/8
f 65/32/8 51/3/8 52/33/8
f 23/91/6 66/90/6 44/89/6
f 66/90/6 23/91/6 22/92/6
f 57/13/6 4/93/6 67/54/6
f 4/93/6 57/13/6 56/94/6
f 34/75/2 64/95/2 68/16/2
f 64/95/2 34/75/2 66/96/2
f 59/45/9 61/97/9 60/43/9
f 61/97/9 59/45/9 40/98/9
f 40/98/9 59/45/9 48/47/9
f 40/98/9 48/47/9 47/48/9
f 40/98/9 47/48/9 25/7/9
f 40/98/9 25/7/9 41/6/9
f 63/100/6 69/68/6 62/99/6
f 69/68/6 63/100/6 70/15/6
f 11/102/8 39/30/8 12/101/8
f 39/30/8 11/102/8 37/32/8
f 37/32/8 11/102/8 35/5/8
f 37/32/8 35/5/8 2/1/8
f 37/32/8 2/1/8 4/3/8
f 37/32/8 4/3/8 56/33/8
f 71/18/2 52/103/2 57/58/2
f 52/103/2 71/18/2 65/104/2
f 36/32/2 56/105/2 55/33/2
f 56/105/2 36/32/2 37/106/2
f 67/56/2 22/107/2 21/77/2
f 22/107/2 67/56/2 51/108/2
f 70/51/7 65/25/7 71/24/7
f 65/25/7 70/51/7 63/109/7
f 7/110/9 49/6/1 1/7/1
f 49/6/1 7/110/9 5/111/9
f 9/112/10 1/7/1 49/6/1
f 9/112/10 3/48/1 1/7/1
f 9/112/10 55/47/9 3/48/1
f 9/112/10 36/45/9 55/47/9
f 10/113/9 36/45/9 9/112/10
f 36/45/9 10/113/9 38/43/9
f 6/20/3 49/8/3 5/21/3
f 49/8/3 6/20/3 35/10/3
f 35/10/3 6/20/3 34/27/3
f 34/27/3 6/20/3 66/114/3
f 66/114/3 6/20/3 44/49/3
f 44/49/3 6/20/3 50/24/3
f 50/24/3 6/20/3 41/115/3
f 41/115/3 6/20/3 31/22/3
f 71/45/9 69/116/9 70/43/9
f 69/116/9 71/45/9 68/117/9
f 68/117/9 71/45/9 57/47/9
f 68/117/9 57/47/9 67/48/9
f 68/117/9 67/48/9 21/7/9
f 68/117/9 21/7/9 34/6/9
f 59/119/2 33/47/2 48/118/2
f 33/47/2 59/119/2 30/45/2
f 53/33/2 58/48/2 72/3/2
f 58/48/2 53/33/2 54/47/2
f 58/20/3 3/8/3 72/21/3
f 3/8/3 58/20/3 4/10/3
f 4/10/3 58/20/3 67/27/3
f 67/27/3 58/20/3 51/114/3
f 51/114/3 58/20/3 43/49/3
f 43/49/3 58/20/3 46/24/3
f 46/24/3 58/20/3 47/115/3
f 47/115/3 58/20/3 32/22/3
f 29/22/3 61/120/3 40/115/3
f 61/120/3 29/22/3 27/38/3
f 53/121/9 3/48/1 55/47/9
f 3/48/1 53/121/9 72/122/9
f 64/114/3 69/81/3 68/27/3
f 69/81/3 64/114/3 62/123/3

