# Created by Kenney (www.kenney.nl)

mtllib flower_purpleA.mtl

g flower_purpleA

v 0.01825 0 0.03160993
v 0.01825 0 0
v -0.009125 0 0.01580496
v 0.01825 0 -0.03160993
v -0.009125 0 -0.01580496
v -0.0365 0 0
v -0.05226725 0.08729668 -0.09052953
v 0.0001869785 0.06243979 -0.062896
v -0.05456302 0.06243979 -0.03128607
v -0.05456302 0.06243979 0.03128607
v 0.0001869785 0.06243979 0.062896
v 0.05437604 0.06243979 -0.03160993
v 0.05437604 0.06243979 0.03160993
v -0.05226725 0.08729668 0.09052953
v 0.1045345 0.08729668 4.710284E-10
v -0.0228125 0.1325 2.887646E-15
v 0.0045625 0.1325 -0.01580496
v -0.009125 0.1325 -0.007902482
v 0.0045625 0.1325 1.443823E-15
v 0.0045625 0.1325 0.01580496
v -0.009125 0.1325 0.007902482
v -0.0295625 0.1325 -0.025
v -0.0295625 0.2425 -0.025
v -0.0295625 0.1325 0.025
v -0.0295625 0.2425 0.025
v -0.0455625 0.2325 -0.041
v -0.0455625 0.2325 0.041
v 0.0204375 0.2425 -0.025
v 0.0204375 0.2425 0.025
v 0.0204375 0.1325 0.025
v 0.0364375 0.2325 0.041
v 0.0204375 0.1325 -0.025
v 0.0364375 0.2325 -0.041

vn 0 -1 0
vn 0.2220167 0.8960102 0.3845443
vn -0.2220167 -0.8960102 -0.3845443
vn 0.4327832 0.5007943 -0.7496025
vn -0.4327832 -0.5007943 0.7496025
vn 0.4327832 0.5007943 0.7496025
vn -0.4327832 -0.5007943 -0.7496025
vn -0.8655664 0.5007942 0
vn 0.8655664 -0.5007942 0
vn 0.2220167 0.8960102 -0.3845443
vn -0.2220167 -0.8960102 0.3845443
vn -0.4440334 0.8960102 0
vn 0.4440334 -0.8960102 0
vn -0.4993344 0.05158218 -0.8648725
vn 0.9947067 0.1027551 0
vn -0.4993344 0.05158218 0.8648725
vn -1 0 0
vn -0.9874407 -0.1579905 0
vn 0.9874407 0.1579905 0
vn 0 1 0
vn 0 -0.1579905 0.9874407
vn 0 0.1579905 -0.9874407
vn 0 0 1
vn 1 0 0
vn 0.9874407 -0.1579905 0
vn -0.9874407 0.1579905 0
vn 0 -0.1579905 -0.9874407
vn 0 0.1579905 0.9874407
vn 0 0 -1

vt 0.718504 1.244485
vt 0.718504 0
vt -0.359252 0.6222427
vt 0.718504 -1.244485
vt -0.359252 -0.6222427
vt -1.437008 0
vt 1.854356E-08 5.213647
vt 1.244485 3.009718
vt -1.244485 3.009718
vt 1.244485 0.3598227
vt -1.64202E-13 0.3598227
vt 1.244485 3.199882
vt -1.244485 0.3598227
vt -1.244485 3.199882
vt 1.560418E-13 0.3598227
vt -6.459835E-18 0.3598227
vt 1.854361E-08 5.213647
vt 1.854442E-08 5.213647
vt 1.244485 -0.037062
vt -1.303402E-13 -0.037062
vt 0.7778033 5.186427
vt -1.244485 -0.037062
vt -0.466682 5.186427
vt 0.1555607 5.186427
vt 1.244485 -0.07382993
vt 1.006801E-17 -0.07382993
vt 0.6222427 5.170465
vt -5.68409E-14 5.170465
vt -1.244485 -0.07382993
vt -0.6222427 5.170465
vt 9.05942E-14 -0.037062
vt 0.466682 5.186427
vt -0.7778033 5.186427
vt -0.1555607 5.186427
vt -0.984252 5.216536
vt -0.984252 9.547244
vt 0.984252 5.216536
vt 0.984252 9.547244
vt -1.614173 9.321984
vt 1.614173 9.321984
vt -0.984252 5.334901
vt 0.984252 5.334901
vt -0.804626 -0.984252
vt -0.804626 0.984252
vt 1.163878 -0.984252
vt 1.163878 0.984252
vt 0.804626 5.306521
vt -1.163878 5.306521
vt 1.434547 9.293605
vt -1.793799 9.293605
vt 0.804626 5.216536
vt -1.163878 5.216536
vt 0.804626 9.547244
vt -1.163878 9.547244
vt 0.804626 -0.984252
vt 0.179626 0.6222427
vt 0.804626 0.984252
vt -1.163878 0.984252
vt -0.359252 0.3111213
vt -0.8981299 1.136868E-13
vt 0.179626 -0.6222427
vt -1.163878 -0.984252
vt 0.179626 5.684342E-14
vt -0.359252 -0.3111213
vt 1.614173 9.265225
vt 0.984252 5.278142
vt -1.614173 9.265225
vt -0.984252 5.278142
vt 1.163878 5.306521
vt -0.804626 5.306521
vt 1.793799 9.293605
vt -1.434547 9.293605
vt 1.163878 5.216536
vt -0.804626 5.216536
vt 1.163878 9.547244
vt -0.804626 9.547244

usemtl grass

f 3/3/1 2/2/1 1/1/1
f 2/2/1 3/3/1 4/4/1
f 4/4/1 3/3/1 5/5/1
f 5/5/1 3/3/1 6/6/1
f 9/9/2 8/8/2 7/7/2
f 7/7/3 8/8/3 9/9/3
f 10/12/4 3/11/4 6/10/4
f 3/11/4 10/12/4 1/13/4
f 1/13/4 10/12/4 11/14/4
f 6/10/5 3/11/5 10/12/5
f 1/13/5 10/12/5 3/11/5
f 11/14/5 10/12/5 1/13/5
f 8/12/6 5/15/6 4/10/6
f 5/15/6 8/12/6 6/13/6
f 6/13/6 8/12/6 9/14/6
f 4/10/7 5/15/7 8/12/7
f 6/13/7 8/12/7 5/15/7
f 9/14/7 8/12/7 6/13/7
f 2/16/8 12/14/8 4/13/8
f 12/14/8 2/16/8 13/12/8
f 13/12/8 2/16/8 1/10/8
f 4/13/9 12/14/9 2/16/9
f 13/12/9 2/16/9 12/14/9
f 1/10/9 2/16/9 13/12/9
f 10/8/10 14/17/10 11/9/10
f 11/9/11 14/17/11 10/8/11
f 13/8/12 15/18/12 12/9/12
f 12/9/13 15/18/13 13/8/13
f 16/21/14 5/20/14 6/19/14
f 5/20/14 16/21/14 4/22/14
f 4/22/14 16/21/14 17/23/14
f 17/23/14 16/21/14 18/24/14
f 17/27/15 2/26/15 4/25/15
f 2/26/15 17/27/15 19/28/15
f 2/26/15 19/28/15 1/29/15
f 1/29/15 19/28/15 20/30/15
f 20/32/16 3/31/16 1/19/16
f 3/31/16 20/32/16 6/22/16
f 6/22/16 20/32/16 16/33/16
f 16/33/16 20/32/16 21/34/16

usemtl colorPurple

f 24/37/17 23/36/17 22/35/17
f 23/36/17 24/37/17 25/38/17
f 22/41/18 27/40/18 26/39/18
f 27/40/18 22/41/18 24/42/18
f 26/39/19 27/40/19 22/41/19
f 24/42/19 22/41/19 27/40/19
f 23/45/20 29/44/20 28/43/20
f 29/44/20 23/45/20 25/46/20
f 31/49/21 24/48/21 30/47/21
f 24/48/21 31/49/21 27/50/21
f 30/47/22 24/48/22 31/49/22
f 27/50/22 31/49/22 24/48/22
f 29/53/23 24/52/23 30/51/23
f 24/52/23 29/53/23 25/54/23
f 29/36/24 32/37/24 28/38/24
f 32/37/24 29/36/24 30/35/24
f 30/57/1 20/56/1 32/55/1
f 20/56/1 30/57/1 24/58/1
f 20/56/1 24/58/1 21/59/1
f 21/59/1 24/58/1 16/60/1
f 17/61/1 32/55/1 20/56/1
f 32/55/1 17/61/1 22/62/1
f 22/62/1 16/60/1 24/58/1
f 17/61/1 20/56/1 19/63/1
f 22/62/1 17/61/1 18/64/1
f 22/62/1 18/64/1 16/60/1
f 31/67/25 32/66/25 33/65/25
f 32/66/25 31/67/25 30/68/25
f 33/65/26 32/66/26 31/67/26
f 30/68/26 31/67/26 32/66/26
f 26/71/27 32/70/27 22/69/27
f 32/70/27 26/71/27 33/72/27
f 22/69/28 32/70/28 26/71/28
f 33/72/28 26/71/28 32/70/28
f 23/75/29 32/74/29 22/73/29
f 32/74/29 23/75/29 28/76/29

