# Created by Kenney (www.kenney.nl)

mtllib flower_redA.mtl

g flower_redA

v 0.01825 0 0.03160993
v 0.01825 0 0
v -0.009125 0 0.01580496
v 0.01825 0 -0.03160993
v -0.009125 0 -0.01580496
v -0.0365 0 0
v 0.0045625 0.1825 0.01580496
v -0.0228125 0.1825 2.887646E-15
v -0.009125 0.1825 0.007902482
v -0.05226725 0.08729668 -0.09052953
v 0.0001869785 0.06243979 -0.062896
v -0.05456302 0.06243979 -0.03128607
v -0.05456302 0.06243979 0.03128607
v 0.0001869785 0.06243979 0.062896
v 0.0045625 0.1825 -0.01580496
v 0.0045625 0.1825 1.443823E-15
v 0.05437604 0.06243979 -0.03160993
v 0.05437604 0.06243979 0.03160993
v -0.009125 0.1825 -0.007902482
v -0.05226725 0.08729668 0.09052953
v 0.1045345 0.08729668 4.710284E-10
v -0.0295625 0.1825 -0.025
v -0.0295625 0.2925 -0.025
v -0.0295625 0.1825 0.025
v -0.0295625 0.2925 0.025
v -0.0455625 0.2825 -0.041
v -0.0455625 0.2825 0.041
v 0.0204375 0.2925 -0.025
v 0.0204375 0.2925 0.025
v 0.0204375 0.1825 0.025
v 0.0364375 0.2825 0.041
v 0.0204375 0.1825 -0.025
v 0.0364375 0.2825 -0.041

vn 0 -1 0
vn -0.4996488 0.03747366 0.8654172
vn 0.2220167 0.8960102 0.3845443
vn -0.2220167 -0.8960102 -0.3845443
vn 0.4327832 0.5007943 -0.7496025
vn -0.4327832 -0.5007943 0.7496025
vn 0.4327832 0.5007943 0.7496025
vn -0.4327832 -0.5007943 -0.7496025
vn 0.9971993 0.07478995 0
vn -0.8655664 0.5007942 0
vn 0.8655664 -0.5007942 0
vn -0.4996488 0.03747366 -0.8654172
vn 0.2220167 0.8960102 -0.3845443
vn -0.2220167 -0.8960102 0.3845443
vn -0.4440334 0.8960102 0
vn 0.4440334 -0.8960102 0
vn -1 0 0
vn -0.9874407 -0.1579905 0
vn 0.9874407 0.1579905 0
vn 0 1 0
vn 0 -0.1579905 0.9874407
vn 0 0.1579905 -0.9874407
vn 0 0 1
vn 1 0 0
vn 0.9874407 -0.1579905 0
vn -0.9874407 0.1579905 0
vn 0 -0.1579905 -0.9874407
vn 0 0.1579905 0.9874407
vn 0 0 -1

vt 0.718504 1.244485
vt 0.718504 0
vt -0.359252 0.6222427
vt 0.718504 -1.244485
vt -0.359252 -0.6222427
vt -1.437008 0
vt 1.244485 -0.02692497
vt 1.037503E-13 -0.02692497
vt 0.466682 7.163165
vt -1.244485 -0.02692497
vt -0.7778033 7.163165
vt -0.1555607 7.163165
vt 1.854361E-08 5.213647
vt 1.244485 3.009718
vt -1.244485 3.009718
vt 1.244485 0.3598227
vt -1.64202E-13 0.3598227
vt 1.244485 3.199882
vt -1.244485 0.3598227
vt -1.244485 3.199882
vt 1.560418E-13 0.3598227
vt 1.244485 -0.05373687
vt 0 -0.05373687
vt 0.6222427 7.151482
vt -5.684342E-14 7.151482
vt -1.244485 -0.05373687
vt -0.6222427 7.151482
vt -6.459835E-18 0.3598227
vt -1.435518E-13 -0.02692497
vt 0.7778033 7.163165
vt -0.466682 7.163165
vt 0.1555607 7.163165
vt 1.854366E-08 5.213647
vt 1.854442E-08 5.213647
vt -0.984252 7.18504
vt -0.984252 11.51575
vt 0.984252 7.18504
vt 0.984252 11.51575
vt -1.614173 11.26576
vt 1.614173 11.26576
vt -0.984252 7.278681
vt 0.984252 7.278681
vt -0.804626 -0.984252
vt -0.804626 0.984252
vt 1.163878 -0.984252
vt 1.163878 0.984252
vt 0.804626 7.250302
vt -1.163878 7.250302
vt 1.434547 11.23739
vt -1.793799 11.23739
vt 0.804626 7.18504
vt -1.163878 7.18504
vt 0.804626 11.51575
vt -1.163878 11.51575
vt 0.804626 -0.984252
vt 0.179626 0.6222427
vt 0.804626 0.984252
vt -1.163878 0.984252
vt -0.359252 0.3111213
vt -0.8981299 1.136868E-13
vt 0.179626 -0.6222427
vt -1.163878 -0.984252
vt 0.179626 5.684342E-14
vt -0.359252 -0.3111213
vt 1.614173 11.20901
vt 0.984252 7.221923
vt -1.614173 11.20901
vt -0.984252 7.221923
vt 1.163878 7.250302
vt -0.804626 7.250302
vt 1.793799 11.23739
vt -1.434547 11.23739
vt 1.163878 7.18504
vt -0.804626 7.18504
vt 1.163878 11.51575
vt -0.804626 11.51575

usemtl grass

f 3/3/1 2/2/1 1/1/1
f 2/2/1 3/3/1 4/4/1
f 4/4/1 3/3/1 5/5/1
f 5/5/1 3/3/1 6/6/1
f 7/9/2 3/8/2 1/7/2
f 3/8/2 7/9/2 6/10/2
f 6/10/2 7/9/2 8/11/2
f 8/11/2 7/9/2 9/12/2
f 12/15/3 11/14/3 10/13/3
f 10/13/4 11/14/4 12/15/4
f 13/18/5 3/17/5 6/16/5
f 3/17/5 13/18/5 1/19/5
f 1/19/5 13/18/5 14/20/5
f 6/16/6 3/17/6 13/18/6
f 1/19/6 13/18/6 3/17/6
f 14/20/6 13/18/6 1/19/6
f 11/18/7 5/21/7 4/16/7
f 5/21/7 11/18/7 6/19/7
f 6/19/7 11/18/7 12/20/7
f 4/16/8 5/21/8 11/18/8
f 6/19/8 11/18/8 5/21/8
f 12/20/8 11/18/8 6/19/8
f 15/24/9 2/23/9 4/22/9
f 2/23/9 15/24/9 16/25/9
f 2/23/9 16/25/9 1/26/9
f 1/26/9 16/25/9 7/27/9
f 2/28/10 17/20/10 4/19/10
f 17/20/10 2/28/10 18/18/10
f 18/18/10 2/28/10 1/16/10
f 4/19/11 17/20/11 2/28/11
f 18/18/11 2/28/11 17/20/11
f 1/16/11 2/28/11 18/18/11
f 8/30/12 5/29/12 6/7/12
f 5/29/12 8/30/12 4/10/12
f 4/10/12 8/30/12 15/31/12
f 15/31/12 8/30/12 19/32/12
f 13/14/13 20/33/13 14/15/13
f 14/15/14 20/33/14 13/14/14
f 18/14/15 21/34/15 17/15/15
f 17/15/16 21/34/16 18/14/16

usemtl colorRed

f 24/37/17 23/36/17 22/35/17
f 23/36/17 24/37/17 25/38/17
f 22/41/18 27/40/18 26/39/18
f 27/40/18 22/41/18 24/42/18
f 26/39/19 27/40/19 22/41/19
f 24/42/19 22/41/19 27/40/19
f 23/45/20 29/44/20 28/43/20
f 29/44/20 23/45/20 25/46/20
f 31/49/21 24/48/21 30/47/21
f 24/48/21 31/49/21 27/50/21
f 30/47/22 24/48/22 31/49/22
f 27/50/22 31/49/22 24/48/22
f 29/53/23 24/52/23 30/51/23
f 24/52/23 29/53/23 25/54/23
f 29/36/24 32/37/24 28/38/24
f 32/37/24 29/36/24 30/35/24
f 30/57/1 7/56/1 32/55/1
f 7/56/1 30/57/1 24/58/1
f 7/56/1 24/58/1 9/59/1
f 9/59/1 24/58/1 8/60/1
f 15/61/1 32/55/1 7/56/1
f 32/55/1 15/61/1 22/62/1
f 22/62/1 8/60/1 24/58/1
f 15/61/1 7/56/1 16/63/1
f 22/62/1 15/61/1 19/64/1
f 22/62/1 19/64/1 8/60/1
f 31/67/25 32/66/25 33/65/25
f 32/66/25 31/67/25 30/68/25
f 33/65/26 32/66/26 31/67/26
f 30/68/26 31/67/26 32/66/26
f 26/71/27 32/70/27 22/69/27
f 32/70/27 26/71/27 33/72/27
f 22/69/28 32/70/28 26/71/28
f 33/72/28 26/71/28 32/70/28
f 23/75/29 32/74/29 22/73/29
f 32/74/29 23/75/29 28/76/29

