# Created by Kenney (www.kenney.nl)

mtllib grass.mtl

g grass

v -0.1281393 0 0.1022604
v -0.08813928 0 0.1022604
v -0.1281393 0.03288743 0.09416214
v -0.08813928 0.03288743 0.09416214
v 0.07306023 0.1607721 0.0618791
v 0.05115847 0.09567357 0.0618791
v 0.07306023 0.1607721 0.1018791
v 0.05115846 0.09567357 0.1018791
v 0.02686376 0.04625398 0.1018791
v 0.02686376 0.04625398 0.0618791
v -0.01693976 0.07772629 0.1018791
v -0.01693976 0.07772629 0.0618791
v 0.121377 0.18034 -0.03181168
v 0.08137693 0.18034 -0.03181168
v 0.1213769 0.162306 -0.01181169
v 0.08137693 0.162306 -0.01181169
v 0.08137693 0.09658635 0.01009007
v 0.1213769 0.09658635 0.01009007
v 0.04422592 0 -0.102844
v 0.08422592 0 -0.102844
v 0.04422592 0.08247919 -0.1109422
v 0.08422592 0.08247919 -0.1109422
v 0.08422592 0.1386 -0.132844
v 0.08422592 0.154 -0.152844
v 0.04422592 0.1386 -0.132844
v 0.04422592 0.154 -0.152844
v -0.006461045 0.2286 -0.07538433
v -0.02646104 0.254 -0.07538433
v -0.006461045 0.2286 -0.03538436
v -0.02646104 0.254 -0.03538436
v 0.08353894 0.1160094 -0.07538433
v 0.03973543 0.0690358 -0.07538433
v 0.08353894 0.1160094 -0.03538436
v 0.03973543 0.0690358 -0.03538436
v 0.08137693 0 0.01818831
v 0.1213769 0 0.01818831
v 0.02237328 0.05856023 0.197437
v -0.01762672 0.05856023 0.197437
v 0.02237328 0.09840599 0.2193388
v -0.01762672 0.09840599 0.2193388
v 0.04306024 0 0.0618791
v 0.04306024 0 0.1018791
v 0.02353895 0 -0.07538433
v 0.02353895 0 -0.03538436
v -0.1281393 0.05526481 0.07226037
v -0.08813928 0.05526481 0.07226037
v 0.01544071 0.1360371 -0.07538433
v 0.01544071 0.1360371 -0.03538436
v 0.02237328 0 0.1893388
v -0.01762672 0 0.1893388
v -0.1622374 0.1386 -0.01238055
v -0.1622374 0.1386 -0.05238054
v -0.1822374 0.154 -0.01238055
v -0.1822374 0.154 -0.05238054
v 0.02237328 0.10934 0.2393388
v -0.01762672 0.10934 0.2393388
v 0.1788366 0.09840599 0.03887527
v 0.1569348 0.05856023 0.03887527
v 0.1788366 0.09840599 0.07887527
v 0.1569348 0.05856023 0.07887527
v -0.1403356 0.08247919 -0.05238054
v -0.1403356 0.08247919 -0.01238055
v -0.01477775 0.18 0.03830641
v -0.05477775 0.18 0.03830641
v -0.01477775 0.2 0.05830641
v -0.05477775 0.2 0.05830641
v -0.08813928 0.05751746 0.1448604
v -0.08813928 0.03422795 0.1137599
v -0.1281393 0.05751746 0.1448604
v -0.1281393 0.03422795 0.1137599
v -0.08813928 0.06140534 0.05226038
v -0.1281393 0.06140534 0.05226038
v 0.09306023 0.1786357 0.1018791
v 0.09306023 0.1786357 0.0618791
v 0.1988366 0.10934 0.07887527
v 0.1988366 0.10934 0.03887527
v -0.1322374 0 -0.05238054
v -0.1322374 0 -0.01238055
v 0.1488366 0 0.03887527
v 0.1488366 0 0.07887527
v -0.01477775 0 0.008306415
v -0.05477775 0 0.008306415
v -0.01477775 0.1071158 0.01640465
v -0.05477775 0.1071158 0.01640465

vn 0 -0.2390992 -0.9709952
vn 0 0.2390992 0.9709952
vn 0.9477962 -0.3188767 0
vn -0.9477962 0.3188767 0
vn -0.5834959 -0.8121161 0
vn 0.5834959 0.8121161 0
vn 0 -0.7426657 -0.6696623
vn 0 0.7426657 0.6696623
vn 0 -0.3161656 -0.948704
vn 0 0.3161656 0.948704
vn 0 -0.09771487 -0.9952145
vn 0 0.09771487 0.9952145
vn 0 -0.7923295 -0.6100933
vn 0 0.7923295 0.6100933
vn -0.7856739 -0.618641 0
vn 0.7856739 0.618641 0
vn 0.7313544 -0.6819977 0
vn -0.7313544 0.6819977 0
vn 0 -0.08355138 -0.9965035
vn 0 0.08355138 0.9965035
vn 0 -0.4816929 0.8763401
vn 0 0.4816929 -0.8763401
vn 0.9964368 -0.08434284 0
vn -0.9964368 0.08434284 0
vn 0.9735655 -0.2284081 0
vn -0.9735655 0.2284081 0
vn 0 -0.6994711 -0.7146608
vn 0 0.6994711 0.7146608
vn -0.9731299 -0.230257 0
vn 0.9731299 0.230257 0
vn -0.9982328 -0.05942445 0
vn 0.9982328 0.05942445 0
vn 0 -0.1369847 0.9905731
vn 0 0.1369847 -0.9905731
vn -0.6100933 -0.7923295 0
vn 0.6100933 0.7923295 0
vn 0 -0.8774357 0.4796941
vn 0 0.8774357 -0.4796941
vn 0.8763401 -0.4816929 0
vn -0.8763401 0.4816929 0
vn -0.9315721 -0.3635568 0
vn 0.9315721 0.3635568 0
vn 0 -0.7071066 0.7071069
vn 0 0.7071066 -0.7071069
vn 0 -0.8004427 0.5994093
vn 0 0.8004427 -0.5994093
vn 0 -0.9559577 -0.2935044
vn 0 0.9559577 0.2935044
vn 0 -0.3184744 0.9479314
vn 0 0.3184744 -0.9479314
vn 0 -0.3635568 -0.9315721
vn 0 0.3635568 0.9315721
vn 0.6661497 -0.745818 0
vn -0.6661497 0.745818 0
vn 0.4796941 -0.8774357 0
vn -0.4796941 0.8774357 0
vn -0.94381 -0.3304883 0
vn 0.94381 0.3304883 0
vn -0.9952145 -0.09771487 0
vn 0.9952145 0.09771487 0
vn 0.9905731 -0.1369847 0
vn -0.9905731 0.1369847 0
vn 0 -0.07538751 0.9971544
vn 0 0.07538751 -0.9971544
vn 0 -0.2877879 0.9576942
vn 0 0.2877879 -0.9576942

vt 5.044854 -0.9626132
vt 3.47005 -0.9626132
vt 5.044854 0.3708442
vt 3.47005 0.3708442
vt -2.436184 6.916393
vt -2.436185 4.212295
vt -4.010988 6.916393
vt -4.010988 4.212295
vt 4.010988 0.2036424
vt 2.436185 0.2036424
vt 4.010988 2.327166
vt 2.436185 2.327166
vt -4.778622 5.684738
vt -3.203816 5.684738
vt -4.778618 4.624502
vt -3.203816 4.624502
vt -3.203816 3.481958
vt -4.778618 3.481958
vt -3.203816 6.209244
vt -4.778618 6.209244
vt -1.741178 0.3956453
vt -3.315981 0.3956453
vt -1.741178 3.658472
vt -3.315981 3.658472
vt -3.315981 7.473039
vt -3.315981 8.46682
vt -1.741178 7.473039
vt -1.741178 8.46682
vt -2.967887 7.22843
vt -2.967887 8.501222
vt -1.393085 7.22843
vt -1.393085 8.501222
vt 2.967887 5.58336
vt 2.967887 3.054689
vt 1.393085 5.58336
vt 1.393085 3.054689
vt -3.203816 -0.05982908
vt -4.778618 -0.05982908
vt -3.203816 3.756126
vt -4.778618 3.756126
vt 0.8808376 5.764671
vt -0.6939655 5.764671
vt 0.8808376 7.554765
vt -0.6939655 7.554765
vt -2.436185 3.923131
vt -2.436185 0.1429852
vt -4.010988 3.923131
vt -4.010988 0.1429852
vt 2.967887 3.003416
vt 2.967887 0.2116728
vt 1.393085 3.003416
vt 1.393085 0.2116728
vt 5.044854 -1.66773
vt 3.47005 -1.667731
vt 5.044854 -0.4349788
vt 3.47005 -0.4349787
vt -2.967887 5.071907
vt -2.967887 8.81674
vt -1.393085 5.071907
vt -1.393085 8.81674
vt -2.967887 -0.05507044
vt -2.967887 5.310202
vt -1.393085 -0.05507044
vt -1.393085 5.310202
vt 0.8808376 1.021123
vt -0.6939655 1.021123
vt 0.8808376 3.348584
vt -0.6939655 3.348584
vt -0.4874232 8.389938
vt -2.062226 8.389938
vt -0.4874232 9.383718
vt -2.062226 9.383718
vt 0.8808376 10.33284
vt 0.8808376 9.435451
vt -0.6939655 10.33284
vt -0.6939655 9.435451
vt -1.530523 6.786671
vt -1.530523 4.996577
vt -3.105326 6.786671
vt -3.105326 4.996577
vt -2.062226 5.033672
vt -2.062226 7.405449
vt -0.4874232 5.033672
vt -0.4874232 7.405449
vt -0.581801 6.0774
vt -2.156604 6.0774
vt -0.581801 7.190954
vt -2.156604 7.190954
vt -3.47005 5.922399
vt -3.47005 4.392709
vt -5.044854 5.922399
vt -5.044854 4.392709
vt 3.47005 -2.081
vt 3.47005 -1.257322
vt 5.044854 -2.081
vt 5.044854 -1.257322
vt -3.470051 1.282178
vt -5.044854 1.282178
vt -3.47005 2.703754
vt -5.044854 2.703754
vt -1.741178 4.612957
vt -3.315981 4.612957
vt -1.741178 6.984734
vt -3.315981 6.984734
vt -4.010988 7.417486
vt -2.436185 7.417486
vt -4.010988 6.36173
vt -2.436185 6.36173
vt -3.105326 8.933704
vt -1.530523 8.933704
vt -3.105326 8.036315
vt -1.530523 8.036315
vt 2.436185 -0.5602719
vt 2.436185 1.369166
vt 4.010988 -0.5602719
vt 4.010988 1.369166
vt -2.062226 0.5087228
vt -2.062226 3.771549
vt -0.4874232 0.5087228
vt -0.4874232 3.771549
vt -1.530523 3.130152
vt -1.530523 0.8026905
vt -3.105326 3.130152
vt -3.105326 0.8026905
vt -0.581801 0.02465354
vt -2.156604 0.02465354
vt -0.581801 4.253846
vt -2.156604 4.253846
vt -0.581801 4.224616
vt -2.156604 4.224616
vt -0.581801 7.220829
vt -2.156604 7.220829

usemtl grass

f 3/3/1 2/2/1 1/1/1
f 2/2/1 3/3/1 4/4/1
f 1/1/2 2/2/2 3/3/2
f 4/4/2 3/3/2 2/2/2
f 7/7/3 6/6/3 5/5/3
f 6/6/3 7/7/3 8/8/3
f 5/5/4 6/6/4 7/7/4
f 8/8/4 7/7/4 6/6/4
f 11/11/5 10/10/5 9/9/5
f 10/10/5 11/11/5 12/12/5
f 9/9/6 10/10/6 11/11/6
f 12/12/6 11/11/6 10/10/6
f 15/15/7 14/14/7 13/13/7
f 14/14/7 15/15/7 16/16/7
f 13/13/8 14/14/8 15/15/8
f 16/16/8 15/15/8 14/14/8
f 16/19/9 18/18/9 17/17/9
f 18/18/9 16/19/9 15/20/9
f 17/17/10 18/18/10 16/19/10
f 15/20/10 16/19/10 18/18/10
f 21/23/11 20/22/11 19/21/11
f 20/22/11 21/23/11 22/24/11
f 19/21/12 20/22/12 21/23/12
f 22/24/12 21/23/12 20/22/12
f 25/27/13 24/26/13 23/25/13
f 24/26/13 25/27/13 26/28/13
f 23/25/14 24/26/14 25/27/14
f 26/28/14 25/27/14 24/26/14
f 29/31/15 28/30/15 27/29/15
f 28/30/15 29/31/15 30/32/15
f 27/29/16 28/30/16 29/31/16
f 30/32/16 29/31/16 28/30/16
f 33/35/17 32/34/17 31/33/17
f 32/34/17 33/35/17 34/36/17
f 31/33/18 32/34/18 33/35/18
f 34/36/18 33/35/18 32/34/18
f 17/39/19 36/38/19 35/37/19
f 36/38/19 17/39/19 18/40/19
f 35/37/20 36/38/20 17/39/20
f 18/40/20 17/39/20 36/38/20
f 39/43/21 38/42/21 37/41/21
f 38/42/21 39/43/21 40/44/21
f 37/41/22 38/42/22 39/43/22
f 40/44/22 39/43/22 38/42/22
f 8/47/23 41/46/23 6/45/23
f 41/46/23 8/47/23 42/48/23
f 6/45/24 41/46/24 8/47/24
f 42/48/24 8/47/24 41/46/24
f 34/51/25 43/50/25 32/49/25
f 43/50/25 34/51/25 44/52/25
f 32/49/26 43/50/26 34/51/26
f 44/52/26 34/51/26 43/50/26
f 45/55/27 4/54/27 3/53/27
f 4/54/27 45/55/27 46/56/27
f 3/53/28 4/54/28 45/55/28
f 46/56/28 45/55/28 4/54/28
f 48/59/29 27/58/29 47/57/29
f 27/58/29 48/59/29 29/60/29
f 47/57/30 27/58/30 48/59/30
f 29/60/30 48/59/30 27/58/30
f 44/63/31 47/62/31 43/61/31
f 47/62/31 44/63/31 48/64/31
f 43/61/32 47/62/32 44/63/32
f 48/64/32 44/63/32 47/62/32
f 37/67/33 50/66/33 49/65/33
f 50/66/33 37/67/33 38/68/33
f 49/65/34 50/66/34 37/67/34
f 38/68/34 37/67/34 50/66/34
f 53/71/35 52/70/35 51/69/35
f 52/70/35 53/71/35 54/72/35
f 51/69/36 52/70/36 53/71/36
f 54/72/36 53/71/36 52/70/36
f 56/75/37 39/74/37 55/73/37
f 39/74/37 56/75/37 40/76/37
f 55/73/38 39/74/38 56/75/38
f 40/76/38 56/75/38 39/74/38
f 59/79/39 58/78/39 57/77/39
f 58/78/39 59/79/39 60/80/39
f 57/77/40 58/78/40 59/79/40
f 60/80/40 59/79/40 58/78/40
f 62/83/41 52/82/41 61/81/41
f 52/82/41 62/83/41 51/84/41
f 61/81/42 52/82/42 62/83/42
f 51/84/42 62/83/42 52/82/42
f 65/87/43 64/86/43 63/85/43
f 64/86/43 65/87/43 66/88/43
f 63/85/44 64/86/44 65/87/44
f 66/88/44 65/87/44 64/86/44
f 69/91/45 68/90/45 67/89/45
f 68/90/45 69/91/45 70/92/45
f 67/89/46 68/90/46 69/91/46
f 70/92/46 69/91/46 68/90/46
f 45/95/47 71/94/47 46/93/47
f 71/94/47 45/95/47 72/96/47
f 46/93/48 71/94/48 45/95/48
f 72/96/48 45/95/48 71/94/48
f 68/99/49 1/98/49 2/97/49
f 1/98/49 68/99/49 70/100/49
f 2/97/50 1/98/50 68/99/50
f 70/100/50 68/99/50 1/98/50
f 25/103/51 22/102/51 21/101/51
f 22/102/51 25/103/51 23/104/51
f 21/101/52 22/102/52 25/103/52
f 23/104/52 25/103/52 22/102/52
f 7/107/53 74/106/53 73/105/53
f 74/106/53 7/107/53 5/108/53
f 73/105/54 74/106/54 7/107/54
f 5/108/54 7/107/54 74/106/54
f 59/111/55 76/110/55 75/109/55
f 76/110/55 59/111/55 57/112/55
f 75/109/56 76/110/56 59/111/56
f 57/112/56 59/111/56 76/110/56
f 42/115/57 10/114/57 41/113/57
f 10/114/57 42/115/57 9/116/57
f 41/113/58 10/114/58 42/115/58
f 9/116/58 42/115/58 10/114/58
f 78/119/59 61/118/59 77/117/59
f 61/118/59 78/119/59 62/120/59
f 77/117/60 61/118/60 78/119/60
f 62/120/60 78/119/60 61/118/60
f 60/123/61 79/122/61 58/121/61
f 79/122/61 60/123/61 80/124/61
f 58/121/62 79/122/62 60/123/62
f 80/124/62 60/123/62 79/122/62
f 83/127/63 82/126/63 81/125/63
f 82/126/63 83/127/63 84/128/63
f 81/125/64 82/126/64 83/127/64
f 84/128/64 83/127/64 82/126/64
f 63/131/65 84/130/65 83/129/65
f 84/130/65 63/131/65 64/132/65
f 83/129/66 84/130/66 63/131/66
f 64/132/66 63/131/66 84/130/66

