# Created by Kenney (www.kenney.nl)

mtllib grass_leafs.mtl

g grass_leafs

v -0.02327772 0.0432 -0.1238818
v -0.07294272 0.09119999 -0.08587199
v -0.08102772 0.0432 -0.02385591
v -0.01802772 0 -0.1147886
v -0.07052772 0 -0.02385591
v 0.06062087 0 0.01334806
v -0.0303118 0 0.06584806
v 0.06971414 0.0432 0.01859806
v -0.0303118 0.0432 0.07634807
v 0.03170428 0.09119999 0.06826306
v -0.111446 0.0675 0.03405221
v -0.0114201 0.0675 -0.02369779
v -0.07343618 0.1425 -0.01561279
v -0.1023528 0 0.03930221
v -0.0114201 0 -0.01319779
v 0.02301404 0.0432 -0.08633107
v 0.12304 0.0432 -0.02858107
v 0.08503011 0.09119999 -0.07824607
v 0.02301404 0 -0.07583107
v 0.1139467 0 -0.02333107
v 0.1141224 0.1425 0.02620954
v 0.09011622 0.0675 -0.03154046
v 0.09011622 0.0675 0.08395953
v 0.08102295 0 -0.02629047
v 0.08102295 0 0.07870954
v -0.005882578 0.0675 0.1334264
v -0.1059085 0.0675 0.07567641
v -0.06789866 0.1425 0.1253414
v -0.005882578 0 0.1229264
v -0.09681524 0 0.07042641

vn -0.8287554 -0.290206 -0.4784821
vn -0.7745565 -0.4473064 -0.4471904
vn 0.8287554 0.290206 0.4784821
vn 0.7745565 0.4473064 0.4471904
vn -0.8474547 -0.2059786 -0.4892782
vn 0.8474547 0.2059786 0.4892782
vn 0.4892783 -0.2059786 0.8474547
vn 0.4784821 -0.290206 0.8287554
vn -0.4784821 0.290206 -0.8287554
vn -0.4892783 0.2059786 -0.8474547
vn 0.4471904 -0.4473064 0.7745565
vn -0.4471904 0.4473064 -0.7745565
vn -0.4898641 -0.2003314 -0.8484694
vn -0.4762006 -0.3048474 -0.8248036
vn 0.4762006 0.3048474 0.8248036
vn 0.4898641 0.2003314 0.8484694
vn -0.4955238 -0.133509 -0.8582724
vn 0.4955238 0.133509 0.8582724
vn 0.4784821 -0.290206 -0.8287554
vn 0.4471904 -0.4473064 -0.7745565
vn -0.4471904 0.4473064 0.7745565
vn -0.4784821 0.290206 0.8287554
vn 0.4892783 -0.2059786 -0.8474547
vn -0.4892783 0.2059786 0.8474547
vn 0.9524012 -0.3048474 0
vn 0.9797282 -0.2003314 0
vn -0.9797282 0.2003314 0
vn -0.9524012 0.3048474 0
vn 0.9910476 -0.133509 0
vn -0.9910476 0.133509 0
vn -0.4898641 -0.2003314 0.8484694
vn -0.4762006 -0.3048474 0.8248036
vn 0.4762006 0.3048474 -0.8248036
vn 0.4898641 0.2003314 -0.8484694
vn -0.4955238 -0.133509 0.8582724
vn 0.4955238 0.133509 -0.8582724

vt -3.765589 2.966973
vt -1.491967 5.079903
vt 0.7816549 2.966973
vt -3.765589 2.330098
vt 0.7816549 2.330098
vt -3.558896 0.5920405
vt 0.574962 0.5920405
vt 1.804141 0.3395419
vt -2.329717 0.3395419
vt 2.010834 2.077599
vt -2.53641 2.077599
vt 2.010834 2.418643
vt -2.53641 2.418643
vt -0.2627882 4.531573
vt 4.470126 2.845832
vt -0.07711799 2.845832
vt 2.196504 5.946159
vt 4.263433 0.0900906
vt 0.1295749 0.0900906
vt 4.470126 2.771577
vt -0.07711799 2.771577
vt 0.9147558 3.040442
vt -3.632488 3.040442
vt -1.358866 5.153372
vt 0.7080629 0.6258721
vt -3.425795 0.6258721
vt 0.9147558 2.36393
vt -3.632488 2.36393
vt -1.031872 6.712878
vt 1.24175 3.61255
vt -3.305494 3.61255
vt 1.24175 3.107364
vt 1.035058 0.4258778
vt -3.305494 3.107364
vt -3.098801 0.4258778
vt 2.425935 3.953112
vt -2.121309 3.953112
vt 0.1523128 7.05344
vt 2.219242 0.5750281
vt -1.914616 0.5750281
vt 2.425935 3.256514
vt -2.121309 3.256514

usemtl grass

f 3/3/1 2/2/2 1/1/1
f 1/1/3 2/2/4 3/3/3
f 4/6/5 3/5/1 1/4/1
f 3/5/1 4/6/5 5/7/5
f 1/4/3 3/5/3 4/6/6
f 5/7/6 4/6/6 3/5/3
f 8/10/8 7/9/7 6/8/7
f 7/9/7 8/10/8 9/11/8
f 6/8/10 7/9/10 8/10/9
f 9/11/9 8/10/9 7/9/10
f 10/14/11 9/13/8 8/12/8
f 8/12/9 9/13/9 10/14/12
f 13/17/14 12/16/13 11/15/13
f 11/15/16 12/16/16 13/17/15
f 11/20/13 15/19/17 14/18/17
f 15/19/17 11/20/13 12/21/13
f 14/18/18 15/19/18 11/20/16
f 12/21/16 11/20/16 15/19/18
f 18/24/20 17/23/19 16/22/19
f 16/22/22 17/23/22 18/24/21
f 16/27/19 20/26/23 19/25/23
f 20/26/23 16/27/19 17/28/19
f 19/25/24 20/26/24 16/27/22
f 17/28/22 16/27/22 20/26/24
f 23/31/26 22/30/26 21/29/25
f 21/29/28 22/30/27 23/31/27
f 23/34/26 24/33/29 22/32/26
f 24/33/29 23/34/26 25/35/29
f 22/32/27 24/33/30 23/34/27
f 25/35/30 23/34/27 24/33/30
f 28/38/32 27/37/31 26/36/31
f 26/36/34 27/37/34 28/38/33
f 26/41/31 30/40/35 29/39/35
f 30/40/35 26/41/31 27/42/31
f 29/39/36 30/40/36 26/41/34
f 27/42/34 26/41/34 30/40/36

