# Created by Kenney (www.kenney.nl)

mtllib ground_riverCross.mtl

g ground_riverCross

v 0.5 0 -0.379
v 0.379 0 -0.379
v 0.5 0 -0.5
v 0.379 0 -0.5
v -0.379 0 -0.5
v -0.379 0 -0.379
v -0.5 0 -0.5
v -0.5 0 -0.379
v -0.379 0 0.5
v -0.5 0 0.5
v -0.379 0 0.379
v -0.5 0 0.379
v 0.5 0 0.379
v 0.5 0 0.5
v 0.379 0 0.379
v 0.379 0 0.5
v 0.5 -0.05 -0.217
v 0.375 -0.05 -0.217
v 0.5 0 -0.279
v 0.375 0 -0.279
v 0.279 0 -0.375
v 0.217 -0.05 -0.375
v 0.279 0 -0.5
v 0.217 -0.05 -0.5
v -0.375 0 -0.279
v -0.375 -0.05 -0.217
v -0.5 0 -0.279
v -0.5 -0.05 -0.217
v -0.217 -0.05 -0.5
v -0.217 -0.05 -0.375
v -0.279 0 -0.5
v -0.279 0 -0.375
v -0.2400341 -0.05 -0.2821205
v -0.2929954 0 -0.3185669
v 0.2929954 0 -0.3185669
v 0.2400341 -0.05 -0.2821205
v -0.217 -0.05 0.5
v -0.279 0 0.5
v -0.217 -0.05 0.375
v -0.279 0 0.375
v 0.375 -0.05 0.217
v 0.375 0 0.279
v 0.2400341 -0.05 0.2821205
v 0.2929954 0 0.3185669
v -0.2400341 -0.05 0.2821205
v -0.2929954 0 0.3185669
v 0.279 0 0.375
v 0.217 -0.05 0.375
v -0.375 0 0.279
v -0.5 0 0.279
v -0.375 -0.05 0.217
v -0.5 -0.05 0.217
v 0.5 0 0.279
v 0.5 -0.05 0.217
v 0.279 0 0.5
v 0.217 -0.05 0.5

vn 0 1 0
vn 0 0.7784131 0.6277524
vn -0.6277524 0.7784131 0
vn 0.6277524 0.7784131 0
vn 0.6202806 0.7691479 0.1538296
vn -0.6202806 0.7691479 0.1538296
vn 0.2898826 0.7449897 0.6007982
vn -0.2898826 0.7449897 0.6007982
vn -0.2898826 0.7449897 -0.6007982
vn 0.6202806 0.7691479 -0.1538296
vn -0.6202806 0.7691479 -0.1538296
vn 0 0.7784131 -0.6277524
vn 0.2898826 0.7449897 -0.6007982

vt -19.68504 -14.92126
vt -14.92126 -14.92126
vt -19.68504 -19.68504
vt -14.92126 -19.68504
vt 14.92126 -19.68504
vt 14.92126 -14.92126
vt 19.68504 -19.68504
vt 19.68504 -14.92126
vt 14.92126 19.68504
vt 19.68504 19.68504
vt 14.92126 14.92126
vt 19.68504 14.92126
vt -19.68504 14.92126
vt -19.68504 19.68504
vt -14.92126 14.92126
vt -14.92126 19.68504
vt 19.68504 5.414488
vt 14.76378 5.414488
vt 19.68504 8.550285
vt 14.76378 8.550285
vt -14.76378 8.550285
vt -14.76378 5.414488
vt -19.68504 8.550285
vt -19.68504 5.414488
vt 12.27324 7.853217
vt 8.505797 7.853217
vt 11.68569 10.93348
vt 9.396606 10.93348
vt -9.396606 10.93348
vt -8.505797 7.853217
vt -11.68569 10.93348
vt -12.27324 7.853217
vt -3.684564 9.198801
vt -9.584359 9.198801
vt -4.938944 12.14975
vt -8.523629 12.14975
vt 9.584359 9.198801
vt 3.684564 9.198801
vt 8.523629 12.14975
vt 4.938944 12.14975
vt -19.68504 -10.98425
vt -14.76378 -10.98425
vt -10.98425 -19.68504
vt -11.53525 -12.542
vt -10.98425 -14.76378
vt 10.98425 -19.68504
vt 10.98425 -14.76378
vt 11.53525 -12.542
vt 14.76378 -10.98425
vt 19.68504 -10.98425
vt -19.68504 10.98425
vt -14.76378 10.98425
vt -10.98425 19.68504
vt -11.53525 12.542
vt -10.98425 14.76378
vt 10.98425 19.68504
vt 10.98425 14.76378
vt 11.53525 12.542
vt 14.76378 10.98425
vt 19.68504 10.98425
vt -8.543307 -19.68504
vt -8.543307 -14.76378
vt 8.543307 -19.68504
vt 8.543307 14.76378
vt 8.543307 19.68504
vt 8.543307 -14.76378
vt 9.450162 11.10711
vt 9.450162 -11.10711
vt 14.76378 8.543307
vt 14.76378 -8.543307
vt 19.68504 8.543307
vt 19.68504 -8.543307
vt -8.543307 19.68504
vt -8.543307 14.76378
vt -9.450162 -11.10711
vt -9.450162 11.10711
vt -14.76378 -8.543307
vt -14.76378 8.543307
vt -19.68504 -8.543307
vt -19.68504 8.543307

usemtl grass

f 3/3/1 2/2/1 1/1/1
f 2/2/1 3/3/1 4/4/1
f 7/7/1 6/6/1 5/5/1
f 6/6/1 7/7/1 8/8/1
f 11/11/1 10/10/1 9/9/1
f 10/10/1 11/11/1 12/12/1
f 15/15/1 14/14/1 13/13/1
f 14/14/1 15/15/1 16/16/1

usemtl dirtDark

f 19/19/2 18/18/2 17/17/2
f 18/18/2 19/19/2 20/20/2
f 23/23/3 22/22/3 21/21/3
f 22/22/3 23/23/3 24/24/3
f 27/23/2 26/22/2 25/21/2
f 26/22/2 27/23/2 28/24/2
f 31/19/4 30/18/4 29/17/4
f 30/18/4 31/19/4 32/20/4
f 32/27/5 33/26/5 30/25/5
f 33/26/5 32/27/5 34/28/5
f 21/31/6 36/30/6 35/29/6
f 36/30/6 21/31/6 22/32/6
f 34/35/7 26/34/7 33/33/7
f 26/34/7 34/35/7 25/36/7
f 20/39/8 36/38/8 18/37/8
f 36/38/8 20/39/8 35/40/8
f 39/22/4 38/23/4 37/24/4
f 38/23/4 39/22/4 40/21/4
f 43/33/9 42/36/9 41/34/9
f 42/36/9 43/33/9 44/35/9
f 45/30/10 40/31/10 39/32/10
f 40/31/10 45/30/10 46/29/10
f 43/26/11 47/27/11 44/28/11
f 47/27/11 43/26/11 48/25/11
f 51/18/12 50/19/12 49/20/12
f 50/19/12 51/18/12 52/17/12
f 54/24/12 42/21/12 53/23/12
f 42/21/12 54/24/12 41/22/12
f 48/18/3 55/19/3 47/20/3
f 55/19/3 48/18/3 56/17/3
f 51/37/13 46/40/13 45/38/13
f 46/40/13 51/37/13 49/39/13

usemtl dirt

f 1/1/1 20/42/1 19/41/1
f 20/42/1 1/1/1 2/2/1
f 20/42/1 2/2/1 4/4/1
f 20/42/1 4/4/1 23/43/1
f 20/42/1 23/43/1 35/44/1
f 35/44/1 23/43/1 21/45/1
f 5/5/1 32/47/1 31/46/1
f 32/47/1 5/5/1 34/48/1
f 34/48/1 5/5/1 25/49/1
f 25/49/1 5/5/1 6/6/1
f 25/49/1 6/6/1 27/50/1
f 27/50/1 6/6/1 8/8/1
f 42/52/1 13/13/1 53/51/1
f 13/13/1 42/52/1 15/15/1
f 15/15/1 42/52/1 16/16/1
f 16/16/1 42/52/1 55/53/1
f 55/53/1 42/52/1 44/54/1
f 55/53/1 44/54/1 47/55/1
f 40/57/1 9/9/1 38/56/1
f 9/9/1 40/57/1 46/58/1
f 9/9/1 46/58/1 49/59/1
f 9/9/1 49/59/1 11/11/1
f 11/11/1 49/59/1 50/60/1
f 11/11/1 50/60/1 12/12/1

usemtl water

f 29/63/1 22/62/1 24/61/1
f 22/62/1 29/63/1 39/64/1
f 22/62/1 39/64/1 37/65/1
f 39/64/1 29/63/1 30/66/1
f 39/64/1 30/66/1 45/67/1
f 45/67/1 30/66/1 33/68/1
f 45/67/1 33/68/1 51/69/1
f 51/69/1 33/68/1 26/70/1
f 51/69/1 26/70/1 52/71/1
f 52/71/1 26/70/1 28/72/1
f 56/73/1 22/62/1 37/65/1
f 48/74/1 22/62/1 56/73/1
f 48/74/1 36/75/1 22/62/1
f 43/76/1 36/75/1 48/74/1
f 43/76/1 18/77/1 36/75/1
f 41/78/1 18/77/1 43/76/1
f 41/78/1 17/79/1 18/77/1
f 17/79/1 41/78/1 54/80/1

