# Created by Kenney (www.kenney.nl)

mtllib ground_pathStraight.mtl

g ground_pathStraight

v 0.341 0 0.125
v 0.279 -0.05 0.125
v 0.341 0 -0.125
v 0.279 -0.05 -0.125
v 0.279 0 -0.375
v 0.217 -0.05 -0.375
v 0.279 0 -0.5
v 0.217 -0.05 -0.5
v 0.279 0 0.375
v 0.217 -0.05 0.375
v -0.155 -0.05 -0.125
v -0.217 0 -0.125
v -0.217 -0.05 -0.375
v -0.279 0 -0.375
v -0.217 -0.05 0.5
v -0.279 0 0.5
v -0.217 -0.05 0.375
v -0.279 0 0.375
v 0.279 0 0.5
v 0.217 -0.05 0.5
v -0.155 -0.05 0.125
v -0.217 0 0.125
v -0.217 -0.05 -0.5
v -0.279 0 -0.5
v -0.317 0 0.125
v -0.379 0 0.375
v -0.317 0 -0.125
v -0.379 0 -0.375
v -0.379 0 -0.5
v -0.379 0 0.5
v -0.5 0 0.5
v -0.5 0 -0.5
v 0.5 0 0.5
v 0.441 0 -0.125
v 0.5 0 -0.5
v 0.379 0 -0.5
v 0.441 0 0.125
v 0.379 0 -0.375
v 0.379 0 0.5
v 0.379 0 0.375

vn -0.6277524 0.7784131 0
vn -0.6202806 0.7691479 0.1538296
vn -0.6202806 0.7691479 -0.1538296
vn 0.6202806 0.7691479 -0.1538296
vn 0.6277524 0.7784131 0
vn 0.6202806 0.7691479 0.1538296
vn 0 1 0

vt 4.92126 10.45035
vt 4.92126 7.314552
vt -4.92126 10.45035
vt -4.92126 7.314552
vt -1.545008 10.93348
vt -2.132563 7.853217
vt -11.68569 10.93348
vt -12.27324 7.853217
vt -14.76378 8.550285
vt -14.76378 5.414488
vt -19.68504 8.550285
vt -19.68504 5.414488
vt 1.545008 10.93348
vt 11.68569 10.93348
vt 2.132563 7.853217
vt 12.27324 7.853217
vt 6.245451 2.386479
vt 6.833007 5.466738
vt 16.38613 2.386479
vt 16.97369 5.466738
vt 14.76378 8.550285
vt 19.68504 8.550285
vt 14.76378 5.414488
vt 19.68504 5.414488
vt -4.92126 3.514425
vt -4.92126 6.650222
vt 4.92126 3.514425
vt 4.92126 6.650222
vt -6.245451 2.386479
vt -16.38613 2.386479
vt -6.833007 5.466738
vt -16.97369 5.466738
vt 12.48032 4.92126
vt 14.92126 14.76378
vt 12.48032 -4.92126
vt 14.92126 -14.76378
vt 14.92126 -19.68504
vt 14.92126 19.68504
vt 19.68504 19.68504
vt 19.68504 -19.68504
vt -19.68504 19.68504
vt -17.36221 -4.92126
vt -19.68504 -19.68504
vt -14.92126 -19.68504
vt -17.36221 4.92126
vt -14.92126 -14.76378
vt -14.92126 19.68504
vt -14.92126 14.76378
vt 6.102362 4.92126
vt 6.102362 -4.92126
vt -8.543307 -19.68504
vt 8.543307 -19.68504
vt 8.543307 -14.76378
vt 8.543307 19.68504
vt -8.543307 19.68504
vt -8.543307 14.76378
vt -8.543307 -14.76378
vt -10.98425 -4.92126
vt -10.98425 4.92126
vt 8.543307 14.76378
vt 10.98425 -19.68504
vt 10.98425 19.68504
vt 10.98425 14.76378
vt 10.98425 -14.76378
vt 8.543307 -4.92126
vt 8.543307 4.92126
vt -13.4252 4.92126
vt -13.4252 -4.92126
vt -10.98425 -19.68504
vt -10.98425 -14.76378
vt -10.98425 19.68504
vt -10.98425 14.76378

usemtl dirtDark

f 3/3/1 2/2/1 1/1/1
f 2/2/1 3/3/1 4/4/1
f 5/7/2 4/6/2 3/5/2
f 4/6/2 5/7/2 6/8/2
f 7/11/1 6/10/1 5/9/1
f 6/10/1 7/11/1 8/12/1
f 2/15/3 9/14/3 1/13/3
f 9/14/3 2/15/3 10/16/3
f 13/19/4 12/18/4 11/17/4
f 12/18/4 13/19/4 14/20/4
f 17/10/5 16/11/5 15/12/5
f 16/11/5 17/10/5 18/9/5
f 10/23/1 19/22/1 9/21/1
f 19/22/1 10/23/1 20/24/1
f 11/27/5 22/26/5 21/25/5
f 22/26/5 11/27/5 12/28/5
f 23/24/5 14/21/5 13/23/5
f 14/21/5 23/24/5 24/22/5
f 22/31/6 17/30/6 21/29/6
f 17/30/6 22/31/6 18/32/6

usemtl grass

f 27/35/7 26/34/7 25/33/7
f 26/34/7 27/35/7 28/36/7
f 26/34/7 28/36/7 29/37/7
f 26/34/7 29/37/7 30/38/7
f 30/38/7 29/37/7 31/39/7
f 31/39/7 29/37/7 32/40/7
f 35/43/7 34/42/7 33/41/7
f 34/42/7 35/43/7 36/44/7
f 33/41/7 34/42/7 37/45/7
f 34/42/7 36/44/7 38/46/7
f 37/45/7 39/47/7 33/41/7
f 39/47/7 37/45/7 40/48/7

usemtl dirt

f 8/51/7 11/50/7 21/49/7
f 11/50/7 8/51/7 23/52/7
f 11/50/7 23/52/7 13/53/7
f 15/54/7 8/51/7 21/49/7
f 20/55/7 8/51/7 15/54/7
f 10/56/7 8/51/7 20/55/7
f 10/56/7 6/57/7 8/51/7
f 10/56/7 4/58/7 6/57/7
f 4/58/7 10/56/7 2/59/7
f 15/54/7 21/49/7 17/60/7
f 24/61/7 27/35/7 25/33/7
f 27/35/7 24/61/7 29/37/7
f 27/35/7 29/37/7 28/36/7
f 16/62/7 24/61/7 25/33/7
f 18/63/7 24/61/7 16/62/7
f 18/63/7 14/64/7 24/61/7
f 18/63/7 12/65/7 14/64/7
f 12/65/7 18/63/7 22/66/7
f 16/62/7 25/33/7 30/38/7
f 30/38/7 25/33/7 26/34/7
f 36/44/7 3/68/7 1/67/7
f 3/68/7 36/44/7 7/69/7
f 3/68/7 7/69/7 5/70/7
f 39/47/7 36/44/7 1/67/7
f 40/48/7 36/44/7 39/47/7
f 40/48/7 38/46/7 36/44/7
f 40/48/7 34/42/7 38/46/7
f 34/42/7 40/48/7 37/45/7
f 39/47/7 1/67/7 19/71/7
f 19/71/7 1/67/7 9/72/7

