# Created by Kenney (www.kenney.nl)

mtllib ground_riverSide.mtl

g ground_riverSide

v 0.5 0 0.379
v 0.375 0 0.379
v 0.5 0 0.279
v 0.375 0 0.279
v 0.125 0 0.441
v 0.125 0 0.341
v -0.125 0 0.441
v -0.125 0 0.341
v -0.375 0 0.379
v -0.375 0 0.279
v -0.5 0 0.379
v -0.5 0 0.279
v 0.125 -0.05 0.279
v -0.125 -0.05 0.279
v 0.375 -0.05 0.217
v 0.5 -0.05 0.217
v -0.375 -0.05 0.217
v -0.5 -0.05 0.217
v -0.5 0 0.5
v 0.5 0 0.5
v 0.5 -0.05 -0.5
v 0.5 -0.05 -0.217
v -0.5 -0.05 -0.5
v -0.5 -0.05 -0.217

vn 0 1 0
vn 0 0.7784131 -0.6277524
vn -0.1538296 0.7691479 -0.6202806
vn 0.1538296 0.7691479 -0.6202806

vt -19.68504 14.92126
vt -14.76378 14.92126
vt -19.68504 10.98425
vt -14.76378 10.98425
vt -4.92126 17.36221
vt -4.92126 13.4252
vt 4.92126 17.36221
vt 4.92126 13.4252
vt 14.76378 14.92126
vt 14.76378 10.98425
vt 19.68504 14.92126
vt 19.68504 10.98425
vt -4.92126 10.45035
vt 4.92126 10.45035
vt -4.92126 7.314552
vt 4.92126 7.314552
vt -11.68569 10.93348
vt -1.545008 10.93348
vt -12.27324 7.853217
vt -2.132563 7.853217
vt -19.68504 8.550285
vt -14.76378 8.550285
vt -19.68504 5.414488
vt -14.76378 5.414488
vt 1.545008 10.93348
vt 11.68569 10.93348
vt 2.132563 7.853217
vt 12.27324 7.853217
vt 14.76378 8.550285
vt 19.68504 8.550285
vt 14.76378 5.414488
vt 19.68504 5.414488
vt 19.68504 19.68504
vt -19.68504 19.68504
vt -19.68504 -19.68504
vt -19.68504 -8.543307
vt 19.68504 -19.68504
vt -14.76378 8.543307
vt -4.92126 10.98425
vt 4.92126 10.98425
vt 14.76378 8.543307
vt 19.68504 8.543307
vt 19.68504 -8.543307
vt -19.68504 8.543307

usemtl dirt

f 3/3/1 2/2/1 1/1/1
f 2/2/1 3/3/1 4/4/1
f 2/2/1 4/4/1 5/5/1
f 5/5/1 4/4/1 6/6/1
f 5/5/1 6/6/1 7/7/1
f 7/7/1 6/6/1 8/8/1
f 7/7/1 8/8/1 9/9/1
f 9/9/1 8/8/1 10/10/1
f 9/9/1 10/10/1 11/11/1
f 11/11/1 10/10/1 12/12/1

usemtl dirtDark

f 13/15/2 8/14/2 6/13/2
f 8/14/2 13/15/2 14/16/2
f 15/19/3 6/18/3 4/17/3
f 6/18/3 15/19/3 13/20/3
f 16/23/2 4/22/2 3/21/2
f 4/22/2 16/23/2 15/24/2
f 14/27/4 10/26/4 8/25/4
f 10/26/4 14/27/4 17/28/4
f 17/31/2 12/30/2 10/29/2
f 12/30/2 17/31/2 18/32/2

usemtl grass

f 20/34/1 5/5/1 19/33/1
f 5/5/1 20/34/1 1/1/1
f 5/5/1 1/1/1 2/2/1
f 19/33/1 5/5/1 7/7/1
f 19/33/1 7/7/1 9/9/1
f 19/33/1 9/9/1 11/11/1

usemtl water

f 23/37/1 22/36/1 21/35/1
f 22/36/1 23/37/1 15/38/1
f 15/38/1 23/37/1 13/39/1
f 13/39/1 23/37/1 14/40/1
f 14/40/1 23/37/1 17/41/1
f 17/41/1 23/37/1 18/42/1
f 18/42/1 23/37/1 24/43/1
f 15/38/1 16/44/1 22/36/1

