# Created by Kenney (www.kenney.nl)

mtllib ground_pathSideOpen.mtl

g ground_pathSideOpen

v 0.5 0 -0.379
v 0.4395 0 -0.379
v 0.5 0 -0.5
v 0.379 0 -0.5
v 0.379 0 -0.4395
v -0.379 0 -0.5
v -0.379 0 -0.4395
v -0.5 0 -0.5
v -0.4395 0 -0.379
v -0.5 0 -0.379
v 0.5 -0.05 -0.217
v 0.375 -0.05 -0.217
v 0.5 0 -0.279
v 0.375 0 -0.279
v 0.279 0 -0.5
v 0.279 0 -0.375
v 0.217 -0.05 -0.5
v 0.217 -0.05 -0.375
v -0.375 0 -0.279
v -0.375 -0.05 -0.217
v -0.5 0 -0.279
v -0.5 -0.05 -0.217
v -0.217 -0.05 -0.5
v -0.217 -0.05 -0.375
v -0.279 0 -0.5
v -0.279 0 -0.375
v -0.5 -0.05 0.5
v 0.5 -0.05 0.5
v 0.5 -0.05 0.217
v -0.5 -0.05 0.217

vn 0 1 0
vn 0 0.7784131 0.6277524
vn -0.6277524 0.7784131 0
vn 0.6277524 0.7784131 0
vn 0.5316743 0.6592761 0.5316743
vn -0.5316743 0.6592761 0.5316743

vt -19.68504 -14.92126
vt -17.30315 -14.92126
vt -19.68504 -19.68504
vt -14.92126 -19.68504
vt -14.92126 -17.30315
vt 14.92126 -19.68504
vt 14.92126 -17.30315
vt 19.68504 -19.68504
vt 17.30315 -14.92126
vt 19.68504 -14.92126
vt 19.68504 5.414488
vt 14.76378 5.414488
vt 19.68504 8.550285
vt 14.76378 8.550285
vt -19.68504 8.550285
vt -14.76378 8.550285
vt -19.68504 5.414488
vt -14.76378 5.414488
vt 4.398538 9.385145
vt -4.398538 9.385145
vt 2.672529 12.00318
vt -2.672529 12.00318
vt -8.543307 -19.68504
vt -8.543307 -14.76378
vt 8.543307 -19.68504
vt 8.543307 -14.76378
vt 19.68504 19.68504
vt -14.76378 -8.543307
vt -19.68504 -8.543307
vt -19.68504 19.68504
vt -19.68504 8.543307
vt 14.76378 -8.543307
vt 19.68504 8.543307
vt 19.68504 -8.543307
vt 10.98425 -19.68504
vt 10.98425 -14.76378
vt 14.76378 -10.98425
vt 19.68504 -10.98425
vt -10.98425 -19.68504
vt -14.76378 -10.98425
vt -10.98425 -14.76378
vt -19.68504 -10.98425

usemtl grass

f 3/3/1 2/2/1 1/1/1
f 2/2/1 3/3/1 4/4/1
f 2/2/1 4/4/1 5/5/1
f 8/8/1 7/7/1 6/6/1
f 7/7/1 8/8/1 9/9/1
f 9/9/1 8/8/1 10/10/1

usemtl dirtDark

f 13/13/2 12/12/2 11/11/2
f 12/12/2 13/13/2 14/14/2
f 17/17/3 16/16/3 15/15/3
f 16/16/3 17/17/3 18/18/3
f 21/15/2 20/18/2 19/16/2
f 20/18/2 21/15/2 22/17/2
f 25/13/4 24/12/4 23/11/4
f 24/12/4 25/13/4 26/14/4
f 26/21/5 20/20/5 24/19/5
f 20/20/5 26/21/5 19/22/5
f 14/21/6 18/20/6 12/19/6
f 18/20/6 14/21/6 16/22/6

usemtl dirt

f 23/25/1 18/24/1 17/23/1
f 24/26/1 18/24/1 23/25/1
f 27/27/1 18/24/1 24/26/1
f 27/27/1 12/28/1 18/24/1
f 27/27/1 11/29/1 12/28/1
f 28/30/1 11/29/1 27/27/1
f 11/29/1 28/30/1 29/31/1
f 27/27/1 24/26/1 20/32/1
f 27/27/1 20/32/1 30/33/1
f 22/34/1 30/33/1 20/32/1
f 6/6/1 26/36/1 25/35/1
f 26/36/1 6/6/1 19/37/1
f 19/37/1 6/6/1 7/7/1
f 19/37/1 7/7/1 21/38/1
f 21/38/1 7/7/1 9/9/1
f 21/38/1 9/9/1 10/10/1
f 15/39/1 5/5/1 4/4/1
f 5/5/1 15/39/1 14/40/1
f 14/40/1 15/39/1 16/41/1
f 14/40/1 2/2/1 5/5/1
f 14/40/1 1/1/1 2/2/1
f 1/1/1 14/40/1 13/42/1

