# Created by Kenney (www.kenney.nl)

mtllib ground_pathCornerSmall.mtl

g ground_pathCornerSmall

v 0.5 0 -0.379
v 0.4395 0 -0.379
v 0.5 0 -0.5
v 0.379 0 -0.5
v 0.379 0 -0.4395
v 0.5 -0.05 -0.217
v 0.375 -0.05 -0.217
v 0.5 0 -0.279
v 0.375 0 -0.279
v 0.279 0 -0.375
v 0.217 -0.05 -0.375
v 0.279 0 -0.5
v 0.217 -0.05 -0.5
v -0.217 -0.05 -0.5
v -0.5 -0.05 0.217
v -0.5 -0.05 -0.5
v -0.5 -0.05 -0.217
v -0.5 -0.05 0.5
v 0.5 -0.05 0.5
v 0.5 -0.05 0.217

vn 0 1 0
vn 0 0.7784131 0.6277524
vn -0.6277524 0.7784131 0
vn -0.5316743 0.6592761 0.5316743

vt -19.68504 -14.92126
vt -17.30315 -14.92126
vt -19.68504 -19.68504
vt -14.92126 -19.68504
vt -14.92126 -17.30315
vt 19.68504 5.414488
vt 14.76378 5.414488
vt 19.68504 8.550285
vt 14.76378 8.550285
vt -14.76378 8.550285
vt -14.76378 5.414488
vt -19.68504 8.550285
vt -19.68504 5.414488
vt 4.398538 9.385145
vt -4.398538 9.385145
vt 2.672529 12.00318
vt -2.672529 12.00318
vt 8.543307 -19.68504
vt 19.68504 8.543307
vt 19.68504 -19.68504
vt 19.68504 -8.543307
vt 19.68504 19.68504
vt -8.543307 -19.68504
vt -8.543307 -14.76378
vt -14.76378 -8.543307
vt -19.68504 -8.543307
vt -19.68504 19.68504
vt -19.68504 8.543307
vt -19.68504 -10.98425
vt -14.76378 -10.98425
vt -10.98425 -19.68504
vt -10.98425 -14.76378

usemtl grass

f 3/3/1 2/2/1 1/1/1
f 2/2/1 3/3/1 4/4/1
f 2/2/1 4/4/1 5/5/1

usemtl dirtDark

f 8/8/2 7/7/2 6/6/2
f 7/7/2 8/8/2 9/9/2
f 12/12/3 11/11/3 10/10/3
f 11/11/3 12/12/3 13/13/3
f 9/16/4 11/15/4 7/14/4
f 11/15/4 9/16/4 10/17/4

usemtl dirt

f 16/20/1 15/19/1 14/18/1
f 15/19/1 16/20/1 17/21/1
f 18/22/1 14/18/1 15/19/1
f 18/22/1 13/23/1 14/18/1
f 18/22/1 11/24/1 13/23/1
f 18/22/1 7/25/1 11/24/1
f 18/22/1 6/26/1 7/25/1
f 19/27/1 6/26/1 18/22/1
f 6/26/1 19/27/1 20/28/1
f 1/1/1 9/30/1 8/29/1
f 9/30/1 1/1/1 2/2/1
f 9/30/1 2/2/1 5/5/1
f 9/30/1 5/5/1 4/4/1
f 9/30/1 4/4/1 12/31/1
f 9/30/1 12/31/1 10/32/1

