# Created by Kenney (www.kenney.nl)

mtllib ground_riverEnd.mtl

g ground_riverEnd

v 0.341 0 -0.125
v 0.279 -0.05 -0.125
v 0.279 0 -0.375
v 0.217 -0.05 -0.375
v 0.279 0 -0.5
v 0.217 -0.05 -0.5
v -0.155 -0.05 -0.125
v -0.217 0 -0.125
v -0.217 -0.05 -0.375
v -0.279 0 -0.375
v -0.217 -0.05 -0.5
v -0.279 0 -0.5
v -0.186 -0.025 0.125
v -0.217 0 0.125
v -0.279 0 0.375
v 0.341 0 0.125
v 0.31 -0.025 0.125
v 0.279 0 0.375
v 0.5 0 0.5
v 0.441 0 -0.125
v 0.5 0 -0.5
v 0.379 0 -0.5
v 0.441 0 0.125
v 0.379 0 -0.375
v 0.329 0 0.375
v -0.5 0 0.5
v -0.329 0 0.375
v -0.379 0 -0.375
v -0.317 0 -0.125
v -0.317 0 0.125
v -0.379 0 -0.5
v -0.5 0 -0.5

vn -0.6202806 0.7691479 0.1538296
vn -0.6277524 0.7784131 0
vn 0.6202806 0.7691479 -0.1538296
vn 0.6277524 0.7784131 0
vn 0.6202806 0.7691479 0.1538296
vn -0.6202806 0.7691479 -0.1538296
vn 0 1 0
vn 0 0.9950371 -0.09950371

vt -1.545008 10.93348
vt -2.132563 7.853217
vt -11.68569 10.93348
vt -12.27324 7.853217
vt -14.76378 8.550285
vt -14.76378 5.414488
vt -19.68504 8.550285
vt -19.68504 5.414488
vt 6.245451 2.386479
vt 6.833007 5.466738
vt 16.38613 2.386479
vt 16.97369 5.466738
vt 14.76378 5.414488
vt 14.76378 8.550285
vt 19.68504 5.414488
vt 19.68504 8.550285
vt 4.92126 3.514425
vt -4.92126 5.082324
vt 4.92126 6.650222
vt -4.92126 6.650222
vt -6.833007 5.466738
vt -6.539229 3.926608
vt -16.97369 5.466738
vt 4.92126 10.45035
vt 4.92126 8.88245
vt -4.92126 10.45035
vt -4.92126 7.314552
vt 1.838786 9.393347
vt 1.545008 10.93348
vt 11.68569 10.93348
vt -19.68504 19.68504
vt -17.36221 -4.92126
vt -19.68504 -19.68504
vt -14.92126 -19.68504
vt -17.36221 4.92126
vt -14.92126 -14.76378
vt -12.95276 14.76378
vt 19.68504 19.68504
vt -10.98425 14.76378
vt 10.98425 14.76378
vt 12.95276 14.76378
vt 14.92126 -14.76378
vt 12.48032 -4.92126
vt 12.48032 4.92126
vt 14.92126 -19.68504
vt 19.68504 -19.68504
vt -10.98425 -4.92126
vt 6.102362 -4.92126
vt -8.543307 -14.76378
vt -8.543307 -19.68504
vt 8.543307 -19.68504
vt 8.543307 -14.76378
vt -12.20472 4.7989
vt 7.322834 4.7989
vt -10.98425 -5.09271
vt 6.102362 -5.09271
vt -10.98425 14.69051
vt 10.98425 14.69051
vt 10.98425 -19.68504
vt 10.98425 -14.76378
vt 8.543307 -4.92126
vt 8.543307 4.92126
vt -13.4252 4.92126
vt -13.4252 -4.92126
vt -10.98425 -19.68504
vt -10.98425 -14.76378

usemtl dirtDark

f 3/3/1 2/2/1 1/1/1
f 2/2/1 3/3/1 4/4/1
f 5/7/2 4/6/2 3/5/2
f 4/6/2 5/7/2 6/8/2
f 9/11/3 8/10/3 7/9/3
f 8/10/3 9/11/3 10/12/3
f 11/15/4 10/14/4 9/13/4
f 10/14/4 11/15/4 12/16/4
f 8/19/4 13/18/4 7/17/4
f 13/18/4 8/19/4 14/20/4
f 15/23/5 13/22/5 14/21/5
f 1/26/2 17/25/2 16/24/2
f 17/25/2 1/26/2 2/27/2
f 18/30/6 16/29/6 17/28/6

usemtl grass

f 21/33/7 20/32/7 19/31/7
f 20/32/7 21/33/7 22/34/7
f 19/31/7 20/32/7 23/35/7
f 20/32/7 22/34/7 24/36/7
f 25/37/7 19/31/7 23/35/7
f 19/31/7 25/37/7 26/38/7
f 26/38/7 25/37/7 18/39/7
f 26/38/7 18/39/7 15/40/7
f 26/38/7 15/40/7 27/41/7
f 26/38/7 27/41/7 28/42/7
f 27/41/7 29/43/7 28/42/7
f 29/43/7 27/41/7 30/44/7
f 26/38/7 28/42/7 31/45/7
f 26/38/7 31/45/7 32/46/7

usemtl water

f 4/49/7 7/48/7 2/47/7
f 7/48/7 4/49/7 6/50/7
f 7/48/7 6/50/7 11/51/7
f 7/48/7 11/51/7 9/52/7

usemtl dirt

f 2/55/8 13/54/8 17/53/8
f 13/54/8 2/55/8 7/56/8
f 13/54/8 18/57/8 17/53/8
f 18/57/8 13/54/8 15/58/8
f 12/59/7 29/43/7 30/44/7
f 29/43/7 12/59/7 31/45/7
f 29/43/7 31/45/7 28/42/7
f 27/41/7 12/59/7 30/44/7
f 15/40/7 12/59/7 27/41/7
f 15/40/7 10/60/7 12/59/7
f 15/40/7 8/61/7 10/60/7
f 8/61/7 15/40/7 14/62/7
f 22/34/7 1/64/7 16/63/7
f 1/64/7 22/34/7 5/65/7
f 1/64/7 5/65/7 3/66/7
f 25/37/7 22/34/7 16/63/7
f 25/37/7 24/36/7 22/34/7
f 25/37/7 20/32/7 24/36/7
f 20/32/7 25/37/7 23/35/7
f 25/37/7 16/63/7 18/39/7

