# Created by Kenney (www.kenney.nl)

mtllib ground_pathBendBank.mtl

g ground_pathBendBank

v -0.279 0 -0.5
v -0.3490542 0 -0.3490542
v -0.379 0 -0.5
v -0.4173555 0 -0.4173555
v -0.5 0 -0.279
v -0.5 0 -0.379
v 0.217 -0.05 -0.5
v 0.1209402 -0.05 -0.1415
v -0.217 -0.05 -0.5
v -0.1415 -0.05 0.1209402
v -0.5 -0.05 0.217
v -0.3067074 -0.05 -0.3067074
v -0.5 -0.05 -0.217
v 0.4659258 0 -0.2411809
v 0.3660254 0 5.760759E-10
v 0.379 0 -0.5
v 0.279 0 -0.5
v 0.2071068 0 0.2071068
v 0.1746338 0 -0.1105
v -5.875878E-09 0 0.3660254
v -0.1105 0 0.1746338
v -0.241181 0 0.4659258
v -0.5 0 0.279
v -0.5 0 0.379
v -0.5 0 -0.5
v 0.5 0 -0.5
v 0.5 0 0.5
v -0.5 0 0.5

vn 0 1 0
vn -0.1658756 0.7676294 -0.619056
vn -0.4531805 0.7676294 -0.4531805
vn -0.619056 0.7676294 -0.1658756
vn 0.2797118 0.7473419 0.6026951
vn 0.6026951 0.7473419 0.2797118

vt 10.98425 -19.68504
vt 13.74229 -13.74229
vt 14.92126 -19.68504
vt 16.43132 -16.43132
vt 19.68504 -10.98425
vt 19.68504 -14.92126
vt -8.543307 -19.68504
vt -4.761426 -5.570866
vt 8.543307 -19.68504
vt 5.570866 4.761426
vt 19.68504 8.543307
vt 12.07509 -12.07509
vt 19.68504 -8.543307
vt -18.34354 -9.495313
vt -14.41045 2.268015E-08
vt -14.92126 -19.68504
vt -10.98425 -19.68504
vt -8.15381 8.153811
vt -6.875346 -4.350394
vt 2.313338E-07 14.41045
vt 4.350394 6.875346
vt 9.495314 18.34354
vt 19.68504 10.98425
vt 19.68504 14.92126
vt 19.68504 -19.68504
vt -19.68504 -19.68504
vt -19.68504 19.68504
vt 19.68504 19.68504
vt 5.981628 4.233561
vt 21.85722 4.233561
vt 6.613391 1.162063
vt 21.22546 1.162063
vt -7.937797 1.370534
vt 7.937797 1.370534
vt -7.306034 -1.700963
vt 7.306034 -1.700963
vt -21.85722 4.233561
vt -5.981628 4.233561
vt -21.22546 1.162063
vt -6.613391 1.162063
vt -5.869689 10.67664
vt -14.25925 10.67664
vt -6.680111 13.63929
vt -13.23168 13.63929
vt 14.25925 10.67664
vt 5.869689 10.67664
vt 13.23168 13.63929
vt 6.680111 13.63929

usemtl dirt

f 3/3/1 2/2/1 1/1/1
f 2/2/1 3/3/1 4/4/1
f 2/2/1 4/4/1 5/5/1
f 5/5/1 4/4/1 6/6/1
f 9/9/1 8/8/1 7/7/1
f 8/8/1 9/9/1 10/10/1
f 10/10/1 9/9/1 11/11/1
f 11/11/1 9/9/1 12/12/1
f 11/11/1 12/12/1 13/13/1
f 16/16/1 15/15/1 14/14/1
f 15/15/1 16/16/1 17/17/1
f 15/15/1 17/17/1 18/18/1
f 18/18/1 17/17/1 19/19/1
f 18/18/1 19/19/1 20/20/1
f 20/20/1 19/19/1 21/21/1
f 20/20/1 21/21/1 22/22/1
f 22/22/1 21/21/1 23/23/1
f 22/22/1 23/23/1 24/24/1

usemtl grass

f 25/25/1 4/4/1 3/3/1
f 4/4/1 25/25/1 6/6/1
f 16/16/1 14/14/1 26/26/1
f 14/14/1 27/27/1 26/26/1
f 15/15/1 27/27/1 14/14/1
f 18/18/1 27/27/1 15/15/1
f 20/20/1 27/27/1 18/18/1
f 22/22/1 27/27/1 20/20/1
f 27/27/1 22/22/1 28/28/1
f 28/28/1 22/22/1 24/24/1

usemtl dirtDark

f 10/31/2 23/30/2 21/29/2
f 23/30/2 10/31/2 11/32/2
f 8/35/3 21/34/3 19/33/3
f 21/34/3 8/35/3 10/36/3
f 7/39/4 19/38/4 17/37/4
f 19/38/4 7/39/4 8/40/4
f 2/43/5 13/42/5 12/41/5
f 13/42/5 2/43/5 5/44/5
f 1/47/6 12/46/6 9/45/6
f 12/46/6 1/47/6 2/48/6

