# Created by Kenney (www.kenney.nl)

mtllib ground_riverSideOpen.mtl

g ground_riverSideOpen

v 0.5 0 -0.379
v 0.379 0 -0.379
v 0.5 0 -0.5
v 0.379 0 -0.5
v -0.379 0 -0.5
v -0.379 0 -0.379
v -0.5 0 -0.5
v -0.5 0 -0.379
v 0.5 -0.05 -0.217
v 0.375 -0.05 -0.217
v 0.5 0 -0.279
v 0.375 0 -0.279
v 0.279 0 -0.5
v 0.279 0 -0.375
v 0.217 -0.05 -0.5
v 0.217 -0.05 -0.375
v -0.375 0 -0.279
v -0.375 -0.05 -0.217
v -0.5 0 -0.279
v -0.5 -0.05 -0.217
v -0.217 -0.05 -0.5
v -0.217 -0.05 -0.375
v -0.279 0 -0.5
v -0.279 0 -0.375
v -0.2400341 -0.05 -0.2821205
v -0.2929954 0 -0.3185669
v 0.2929954 0 -0.3185669
v 0.2400341 -0.05 -0.2821205
v -0.5 -0.05 0.5
v 0.5 -0.05 0.5
v 0.5 -0.05 0.217
v -0.5 -0.05 0.217

vn 0 1 0
vn 0 0.7784131 0.6277524
vn -0.6277524 0.7784131 0
vn 0.6277524 0.7784131 0
vn 0.6202806 0.7691479 0.1538296
vn -0.6202806 0.7691479 0.1538296
vn 0.2898826 0.7449897 0.6007982
vn -0.2898826 0.7449897 0.6007982

vt -19.68504 -14.92126
vt -14.92126 -14.92126
vt -19.68504 -19.68504
vt -14.92126 -19.68504
vt 14.92126 -19.68504
vt 14.92126 -14.92126
vt 19.68504 -19.68504
vt 19.68504 -14.92126
vt 19.68504 5.414488
vt 14.76378 5.414488
vt 19.68504 8.550285
vt 14.76378 8.550285
vt -19.68504 8.550285
vt -14.76378 8.550285
vt -19.68504 5.414488
vt -14.76378 5.414488
vt 12.27324 7.853217
vt 8.505797 7.853217
vt 11.68569 10.93348
vt 9.396606 10.93348
vt -9.396606 10.93348
vt -8.505797 7.853217
vt -11.68569 10.93348
vt -12.27324 7.853217
vt -3.684564 9.198801
vt -9.584359 9.198801
vt -4.938944 12.14975
vt -8.523629 12.14975
vt 9.584359 9.198801
vt 3.684564 9.198801
vt 8.523629 12.14975
vt 4.938944 12.14975
vt -10.98425 -19.68504
vt -14.76378 -10.98425
vt -11.53525 -12.542
vt -10.98425 -14.76378
vt -19.68504 -10.98425
vt 10.98425 -19.68504
vt 10.98425 -14.76378
vt 11.53525 -12.542
vt 14.76378 -10.98425
vt 19.68504 -10.98425
vt -8.543307 -19.68504
vt -8.543307 -14.76378
vt 8.543307 -19.68504
vt 8.543307 -14.76378
vt 9.450162 -11.10711
vt 19.68504 19.68504
vt -9.450162 -11.10711
vt -14.76378 -8.543307
vt -19.68504 -8.543307
vt -19.68504 19.68504
vt -19.68504 8.543307
vt 14.76378 -8.543307
vt 19.68504 8.543307
vt 19.68504 -8.543307

usemtl grass

f 3/3/1 2/2/1 1/1/1
f 2/2/1 3/3/1 4/4/1
f 7/7/1 6/6/1 5/5/1
f 6/6/1 7/7/1 8/8/1

usemtl dirtDark

f 11/11/2 10/10/2 9/9/2
f 10/10/2 11/11/2 12/12/2
f 15/15/3 14/14/3 13/13/3
f 14/14/3 15/15/3 16/16/3
f 19/13/2 18/16/2 17/14/2
f 18/16/2 19/13/2 20/15/2
f 23/11/4 22/10/4 21/9/4
f 22/10/4 23/11/4 24/12/4
f 24/19/5 25/18/5 22/17/5
f 25/18/5 24/19/5 26/20/5
f 14/23/6 28/22/6 27/21/6
f 28/22/6 14/23/6 16/24/6
f 26/27/7 18/26/7 25/25/7
f 18/26/7 26/27/7 17/28/7
f 12/31/8 28/30/8 10/29/8
f 28/30/8 12/31/8 27/32/8

usemtl dirt

f 13/33/1 2/2/1 4/4/1
f 2/2/1 13/33/1 12/34/1
f 12/34/1 13/33/1 27/35/1
f 27/35/1 13/33/1 14/36/1
f 12/34/1 1/1/1 2/2/1
f 1/1/1 12/34/1 11/37/1
f 5/5/1 24/39/1 23/38/1
f 24/39/1 5/5/1 26/40/1
f 26/40/1 5/5/1 17/41/1
f 17/41/1 5/5/1 6/6/1
f 17/41/1 6/6/1 19/42/1
f 19/42/1 6/6/1 8/8/1

usemtl water

f 21/45/1 16/44/1 15/43/1
f 22/46/1 16/44/1 21/45/1
f 25/47/1 16/44/1 22/46/1
f 29/48/1 16/44/1 25/47/1
f 29/48/1 28/49/1 16/44/1
f 29/48/1 10/50/1 28/49/1
f 29/48/1 9/51/1 10/50/1
f 30/52/1 9/51/1 29/48/1
f 9/51/1 30/52/1 31/53/1
f 29/48/1 25/47/1 18/54/1
f 29/48/1 18/54/1 32/55/1
f 20/56/1 32/55/1 18/54/1

