# Created by Kenney (www.kenney.nl)

mtllib ground_riverOpen.mtl

g ground_riverOpen

v 0.5 -0.05 -0.5
v 0.5 -0.05 -0.217
v 0.217 -0.05 -0.5
v -0.5 -0.05 0.5
v 0.5 -0.05 0.5
v 0.5 -0.05 0.217
v -0.217 -0.05 -0.5
v -0.5 -0.05 0.217
v -0.5 -0.05 -0.5
v -0.5 -0.05 -0.217

vn 0 1 0

vt -19.68504 -19.68504
vt -19.68504 -8.543307
vt -8.543307 -19.68504
vt 19.68504 19.68504
vt -19.68504 19.68504
vt -19.68504 8.543307
vt 8.543307 -19.68504
vt 19.68504 8.543307
vt 19.68504 -19.68504
vt 19.68504 -8.543307

usemtl water

f 3/3/1 2/2/1 1/1/1
f 4/4/1 2/2/1 3/3/1
f 5/5/1 2/2/1 4/4/1
f 2/2/1 5/5/1 6/6/1
f 4/4/1 3/3/1 7/7/1
f 4/4/1 7/7/1 8/8/1
f 9/9/1 8/8/1 7/7/1
f 8/8/1 9/9/1 10/10/1

