# Created by Kenney (www.kenney.nl)

mtllib ground_riverBend.mtl

g ground_riverBend

v 0.2524562 0 -0.29838
v 0.1746338 0 -0.1105
v 0.1925688 -0.05 -0.3144267
v 0.1209402 -0.05 -0.1415
v -0.1105 0 0.1746338
v -0.29838 0 0.2524562
v -0.1415 -0.05 0.1209402
v -0.3144267 -0.05 0.1925688
v 0.05083618 0 0.05083618
v 0.006995562 -0.05 0.006995562
v -0.217 -0.05 -0.5
v -0.2549148 -0.05 -0.3585
v -0.279 0 -0.5
v -0.3086084 0 -0.3895
v -0.3585 -0.05 -0.2549148
v -0.3895 0 -0.3086084
v 0.279 0 -0.5
v 0.217 -0.05 -0.5
v -0.5 0 0.279
v -0.5 -0.05 0.217
v -0.5 -0.05 -0.217
v -0.5 0 -0.279
v 0.379 0 -0.5
v 0.3490488 0 -0.272498
v 0.2612363 0 -0.0605
v 0.1215469 0 0.1215469
v -0.0605 0 0.2612363
v -0.272498 0 0.3490488
v -0.5 0 0.379
v -0.379 0 -0.5
v -0.4173555 0 -0.4173555
v -0.5 0 -0.379
v -0.5 0 -0.5
v -0.5 0 0.5
v 0.5 0 0.5
v 0.5 0 -0.5

vn -0.5829846 0.7757683 -0.2414801
vn -0.2414801 0.7757683 -0.5829846
vn -0.3841394 0.7757683 -0.5006202
vn 0.619056 0.7676294 0.1658756
vn 0.4531805 0.7676294 0.4531805
vn -0.6256195 0.7757683 -0.08236437
vn -0.08236437 0.7757683 -0.6256195
vn 0.1658756 0.7676294 0.619056
vn -0.5006202 0.7757683 -0.3841394
vn 0 1 0

vt -14.65661 3.636156
vt -6.650321 3.636156
vt -14.33801 0.5165871
vt -6.968928 0.5165871
vt 6.650321 3.636156
vt 14.65661 3.636156
vt 6.968928 0.5165871
vt 14.33801 0.5165871
vt -0.3694468 2.176982
vt 7.636845 2.176982
vt -0.05083954 -0.9425871
vt 7.318238 -0.9425871
vt 16.80312 8.983997
vt 11.03573 8.983997
vt 16.17135 12.05549
vt 11.6675 12.05549
vt 2.883693 11.84702
vt -2.883693 11.84702
vt 2.25193 14.91852
vt -2.25193 14.91852
vt -20.95036 6.455064
vt -12.94407 6.455064
vt -20.63176 3.335495
vt -13.26268 3.335495
vt 12.94407 6.455064
vt 20.95036 6.455064
vt 13.26268 3.335495
vt 20.63176 3.335495
vt -11.03573 8.983997
vt -16.80312 8.983997
vt -11.6675 12.05549
vt -16.17135 12.05549
vt -7.636845 2.176982
vt 0.3694468 2.176982
vt -7.318238 -0.9425871
vt 0.05083954 -0.9425871
vt -14.92126 -19.68504
vt -13.74208 -10.72827
vt -10.98425 -19.68504
vt -10.28489 -2.38189
vt -9.939221 -11.74724
vt -4.785309 4.785309
vt -6.875346 -4.350394
vt -2.001425 2.001425
vt 2.38189 10.28489
vt 4.350394 6.875346
vt 10.72827 13.74208
vt 11.74724 9.939221
vt 19.68504 14.92126
vt 19.68504 10.98425
vt 10.98425 -19.68504
vt 12.14994 -15.33465
vt 14.92126 -19.68504
vt 15.33465 -12.14994
vt 16.43132 -16.43132
vt 19.68504 -10.98425
vt 19.68504 -14.92126
vt 19.68504 -19.68504
vt 19.68504 19.68504
vt -19.68504 19.68504
vt -19.68504 -19.68504
vt -8.543307 -19.68504
vt -7.58145 -12.37901
vt 8.543307 -19.68504
vt -4.761426 -5.570866
vt -0.2754158 0.2754158
vt 5.570866 4.761426
vt 12.37901 7.58145
vt 10.03602 -14.11417
vt 14.11417 -10.03602
vt 19.68504 8.543307
vt 19.68504 -8.543307

usemtl dirtDark

f 3/3/1 2/2/1 1/1/1
f 2/2/1 3/3/1 4/4/1
f 7/7/2 6/6/2 5/5/2
f 6/6/2 7/7/2 8/8/2
f 10/11/3 5/10/3 9/9/3
f 5/10/3 10/11/3 7/12/3
f 13/15/4 12/14/4 11/13/4
f 12/14/4 13/15/4 14/16/4
f 14/19/5 15/18/5 12/17/5
f 15/18/5 14/19/5 16/20/5
f 18/23/6 1/22/6 17/21/6
f 1/22/6 18/23/6 3/24/6
f 8/27/7 19/26/7 6/25/7
f 19/26/7 8/27/7 20/28/7
f 16/31/8 21/30/8 15/29/8
f 21/30/8 16/31/8 22/32/8
f 4/35/9 9/34/9 2/33/9
f 9/34/9 4/35/9 10/36/9

usemtl dirt

f 17/39/10 24/38/10 23/37/10
f 24/38/10 17/39/10 25/40/10
f 25/40/10 17/39/10 1/41/10
f 25/40/10 1/41/10 26/42/10
f 26/42/10 1/41/10 2/43/10
f 26/42/10 2/43/10 9/44/10
f 26/42/10 9/44/10 27/45/10
f 27/45/10 9/44/10 5/46/10
f 27/45/10 5/46/10 28/47/10
f 28/47/10 5/46/10 6/48/10
f 28/47/10 6/48/10 29/49/10
f 29/49/10 6/48/10 19/50/10
f 30/53/10 14/52/10 13/51/10
f 14/52/10 30/53/10 16/54/10
f 16/54/10 30/53/10 31/55/10
f 16/54/10 31/55/10 22/56/10
f 22/56/10 31/55/10 32/57/10

usemtl grass

f 33/58/10 31/55/10 30/53/10
f 31/55/10 33/58/10 32/57/10
f 35/60/10 27/45/10 34/59/10
f 27/45/10 35/60/10 26/42/10
f 26/42/10 35/60/10 25/40/10
f 25/40/10 35/60/10 36/61/10
f 25/40/10 36/61/10 24/38/10
f 24/38/10 36/61/10 23/37/10
f 34/59/10 27/45/10 28/47/10
f 34/59/10 28/47/10 29/49/10

usemtl water

f 11/64/10 3/63/10 18/62/10
f 3/63/10 11/64/10 4/65/10
f 4/65/10 11/64/10 10/66/10
f 10/66/10 11/64/10 7/67/10
f 7/67/10 11/64/10 8/68/10
f 8/68/10 11/64/10 12/69/10
f 8/68/10 12/69/10 15/70/10
f 8/68/10 15/70/10 20/71/10
f 20/71/10 15/70/10 21/72/10

