# Created by Kenney (www.kenney.nl)

mtllib lily_large.mtl

g lily_large

v -0.1247077 0 -0.072
v 0 0 -0.144
v -0.1247077 0.02 -0.072
v 0 0.02 -0.144
v -0.1359313 0.04 -0.07848001
v -0.05745135 0.04 0
v -0.05270766 0.02 0
v 8.662937E-15 0.04 -0.15696
v 0.1247077 0.02 -0.072
v 0.1359313 0.04 -0.07848001
v 0.1247077 0 -0.072
v 0.1247077 0.02 0.072
v 0.1247077 0 0.072
v 0 0.02 0.144
v 0.1359313 0.04 0.07848001
v 8.662937E-15 0.04 0.15696
v 0 0 0.144
v -0.05270766 0 0
v -0.1247077 0 0.072
v -0.1247077 0.02 0.072
v -0.1359313 0.04 0.07848001
v 0.007292342 0.02 0
v 0.04629234 0.059 0
v -0.01220766 0.059 -2.887646E-15
v 0.02679234 0.059 2.887646E-15
v 0.04629234 0.098 -2.887646E-15
v 0.06579234 0.059 8.662937E-15
v 0.1047923 0.059 1.443823E-14
v 0.08529234 0.02 1.155058E-14
v 0.04629234 0.02 -0.039
v 0.04629234 0.02 0.039
v 0.04629234 0.059 -0.0585
v 0.04629234 0.059 -0.0195
v 0.04629234 0.059 0.0195
v 0.04629234 0.059 0.0585

vn -0.5 0 -0.8660254
vn -0.697367 -0.1654046 0.697367
vn 0.697367 0.1654046 -0.697367
vn -0.4360326 -0.4893895 -0.7552307
vn 0.4360326 0.4893895 0.7552307
vn 0.4360326 -0.4893895 -0.7552307
vn -0.4360326 0.4893895 0.7552307
vn 1 0 0
vn 0.4360326 -0.4893895 0.7552307
vn -0.4360326 0.4893895 -0.7552307
vn 0 -1 0
vn 0.5 0 0.8660254
vn -0.7071068 0 -0.7071068
vn -0.7071068 0 0.7071068
vn 0.5 0 -0.8660254
vn -0.697367 -0.1654046 -0.697367
vn 0.697367 0.1654046 0.697367
vn 0.8720653 -0.4893895 0
vn -0.8720653 0.4893895 0
vn -0.5 0 0.8660254
vn -0.4360326 -0.4893895 0.7552307
vn 0.4360326 0.4893895 -0.7552307
vn 0 0 -1
vn 0 0 1
vn 0.5773503 0.5773503 -0.5773503
vn 0.5773503 0.5773503 0.5773503
vn -0.5773503 0.5773503 0.5773503
vn -1 0 0
vn -0.5773503 0.5773503 -0.5773503
vn 0 1 0

vt 2.834646 1.771545E-13
vt -2.834646 1.771545E-13
vt 2.834646 0.7874016
vt -2.834646 0.7874016
vt -5.968965 1.817656
vt -1.599379 1.817656
vt -5.476115 1.019257
vt -1.467321 1.019257
vt 2.834646 3.089446
vt -2.834646 3.089446
vt 3.089764 3.992362
vt -3.089764 3.992362
vt 2.834646 -7.08881E-13
vt -2.834646 -7.08881E-13
vt 4.90975 2.834646
vt 4.90975 -2.834646
vt 0 5.669291
vt 0 -5.669291
vt -2.075105 0
vt -4.90975 2.834646
vt -4.90975 -2.834646
vt 2.834646 -1.775941E-13
vt -2.834646 -1.775941E-13
vt 5.476115 2.246229E-13
vt 1.467321 2.246229E-13
vt 5.476115 0.7874016
vt 1.467321 0.7874016
vt -1.467321 2.246229E-13
vt -5.476115 2.246229E-13
vt -1.467321 0.7874016
vt -5.476115 0.7874016
vt 1.467321 1.019257
vt 1.599379 1.817656
vt 5.476115 1.019257
vt 5.968965 1.817656
vt -0.2871001 0.7874016
vt -1.822533 2.322835
vt 0.4806165 2.322835
vt -1.054817 2.322835
vt -1.822533 3.858268
vt -2.59025 2.322835
vt -4.125683 2.322835
vt -3.357966 0.7874016
vt -1.288725 1.152541
vt -0.2030104 -0.7279733
vt -2.374441 -0.7279733
vt 2.374441 -0.7279733
vt 0.2030104 -0.7279733
vt 1.288725 1.152541
vt 2.374441 0.7601188
vt 0.2030104 0.7601188
vt 1.288725 2.640633
vt 2.30315 2.322835
vt 1.535433 0.7874016
vt 0.7677165 2.322835
vt 0 2.322835
vt 1.136868E-13 3.858268
vt -0.7677165 2.322835
vt -1.535433 0.7874016
vt -2.30315 2.322835
vt -2.374441 0.7601188
vt -1.288725 2.640633
vt -0.2030104 0.7601188
vt -3.357966 4.547474E-13
vt -1.822533 -1.535433
vt -0.2871001 0
vt -1.822533 1.535433
vt 2.075105 0

usemtl leafsGreen

f 3/3/1 2/2/1 1/1/1
f 2/2/1 3/3/1 4/4/1
f 3/7/2 6/6/2 5/5/2
f 6/6/2 3/7/2 7/8/2
f 5/5/3 6/6/3 3/7/3
f 7/8/3 3/7/3 6/6/3
f 5/11/4 4/10/4 3/9/4
f 4/10/4 5/11/4 8/12/4
f 3/9/5 4/10/5 5/11/5
f 8/12/5 5/11/5 4/10/5
f 8/11/6 9/10/6 4/9/6
f 9/10/6 8/11/6 10/12/6
f 4/9/7 9/10/7 8/11/7
f 10/12/7 8/11/7 9/10/7
f 12/4/8 11/13/8 9/3/8
f 11/13/8 12/4/8 13/14/8
f 15/11/9 14/10/9 12/9/9
f 14/10/9 15/11/9 16/12/9
f 12/9/10 14/10/10 15/11/10
f 16/12/10 15/11/10 14/10/10
f 17/17/11 11/16/11 13/15/11
f 11/16/11 17/17/11 2/18/11
f 2/18/11 17/17/11 18/19/11
f 18/19/11 17/17/11 19/20/11
f 1/21/11 2/18/11 18/19/11
f 12/3/12 17/23/12 13/22/12
f 17/23/12 12/3/12 14/4/12
f 20/26/13 18/25/13 19/24/13
f 18/25/13 20/26/13 7/27/13
f 7/30/14 1/29/14 18/28/14
f 1/29/14 7/30/14 3/31/14
f 4/3/15 11/23/15 2/22/15
f 11/23/15 4/3/15 9/4/15
f 20/34/16 6/33/16 7/32/16
f 6/33/16 20/34/16 21/35/16
f 7/32/17 6/33/17 20/34/17
f 21/35/17 20/34/17 6/33/17
f 15/12/18 9/9/18 10/11/18
f 9/9/18 15/12/18 12/10/18
f 10/11/19 9/9/19 15/12/19
f 12/10/19 15/12/19 9/9/19
f 14/3/20 19/2/20 17/1/20
f 19/2/20 14/3/20 20/4/20
f 16/11/21 20/10/21 14/9/21
f 20/10/21 16/11/21 21/12/21
f 14/9/22 20/10/22 16/11/22
f 21/12/22 16/11/22 20/10/22

usemtl colorRed

f 24/38/23 23/37/23 22/36/23
f 23/37/23 24/38/23 25/39/23
f 23/37/23 25/39/23 26/40/23
f 27/41/23 23/37/23 26/40/23
f 28/42/23 23/37/23 27/41/23
f 23/37/23 28/42/23 29/43/23
f 22/36/24 23/37/24 24/38/24
f 25/39/24 24/38/24 23/37/24
f 26/40/24 25/39/24 23/37/24
f 26/40/24 23/37/24 27/41/24
f 27/41/24 23/37/24 28/42/24
f 29/43/24 28/42/24 23/37/24
f 29/46/25 30/45/25 23/44/25
f 23/49/26 31/48/26 29/47/26
f 23/52/27 22/51/27 31/50/27
f 33/55/8 30/54/8 32/53/8
f 30/54/8 33/55/8 23/56/8
f 23/56/8 33/55/8 26/57/8
f 34/58/8 23/56/8 26/57/8
f 23/56/8 34/58/8 31/59/8
f 31/59/8 34/58/8 35/60/8
f 32/53/28 30/54/28 33/55/28
f 23/56/28 33/55/28 30/54/28
f 26/57/28 33/55/28 23/56/28
f 26/57/28 23/56/28 34/58/28
f 31/59/28 34/58/28 23/56/28
f 35/60/28 34/58/28 31/59/28
f 22/63/29 23/62/29 30/61/29

usemtl leafsDark

f 9/21/30 29/64/30 12/20/30
f 29/64/30 9/21/30 4/18/30
f 29/64/30 4/18/30 30/65/30
f 30/65/30 4/18/30 22/66/30
f 29/64/30 14/17/30 12/20/30
f 14/17/30 22/66/30 4/18/30
f 14/17/30 29/64/30 31/67/30
f 14/17/30 31/67/30 22/66/30
f 14/17/30 4/18/30 7/68/30
f 7/68/30 4/18/30 3/16/30
f 20/15/30 14/17/30 7/68/30

