# Created by Kenney (www.kenney.nl)

mtllib lily_small.mtl

g lily_small

v 0 0 0.1
v -0.08660254 0 0.05
v 0 0.02 0.1
v -0.08660254 0.02 0.05
v -0.08660254 0.02 -0.05
v 0 0.02 -0.1
v -0.09439677 0.04 -0.0545
v 5.775291E-15 0.04 -0.109
v 0 0 -0.1
v 0.08660254 0 -0.05
v 0.08660254 0.02 -0.05
v -0.08660254 0 -0.05
v 5.775291E-15 0.04 0.109
v -0.09439677 0.04 0.0545
v 0.09439677 0.04 -0.0545
v 0.09439677 0.04 0.0545
v 0.08660254 0.02 0.05
v 0.08660254 0 0.05
v -0.03660254 0 0
v -0.03660254 0.02 0
v -0.03989677 0.04 0

vn -0.5 0 0.8660254
vn -0.4658727 -0.3631119 -0.8069153
vn 0.4658727 0.3631119 0.8069153
vn 0.5 0 -0.8660254
vn -0.5 0 -0.8660254
vn -0.4658727 -0.3631119 0.8069153
vn 0.4658727 0.3631119 -0.8069153
vn 0.9317456 -0.3631119 0
vn -0.9317456 0.3631119 0
vn 0.5 0 0.8660254
vn -0.7071068 0 -0.7071068
vn -0.7071068 0 0.7071068
vn -0.7023591 -0.1156866 0.7023591
vn 0.7023591 0.1156866 -0.7023591
vn 0 -1 0
vn -0.7023591 -0.1156866 -0.7023591
vn 0.7023591 0.1156866 0.7023591
vn 0.4658727 -0.3631119 -0.8069153
vn -0.4658727 0.3631119 0.8069153
vn 1 0 0
vn 0.4658727 -0.3631119 0.8069153
vn -0.4658727 0.3631119 -0.8069153
vn 0 1 0

vt 1.968504 7.888609E-31
vt -1.968504 7.888609E-31
vt 1.968504 0.7874016
vt -1.968504 0.7874016
vt 1.968504 1.971706
vt -1.968504 1.971706
vt 2.145669 2.816788
vt -2.145669 2.816788
vt 1.018973 1.110223E-16
vt 1.018973 0.7874016
vt 3.802858 7.888609E-31
vt 3.802858 0.7874016
vt -3.802858 7.888609E-31
vt -3.802858 0.7874016
vt -1.018973 1.110223E-16
vt -1.018973 0.7874016
vt -4.145115 1.69272
vt -1.11068 1.69272
vt -3.802858 0.8999962
vt -1.018973 0.8999962
vt 3.409549 1.968504
vt 3.409549 -1.968504
vt 0 3.937008
vt 0 -3.937008
vt -1.441045 0
vt -3.409549 1.968504
vt -3.409549 -1.968504
vt 1.018973 0.8999962
vt 1.11068 1.69272
vt 3.802858 0.8999962
vt 4.145115 1.69272
vt 1.441045 0

usemtl leafsGreen

f 3/3/1 2/2/1 1/1/1
f 2/2/1 3/3/1 4/4/1
f 7/7/2 6/6/2 5/5/2
f 6/6/2 7/7/2 8/8/2
f 5/5/3 6/6/3 7/7/3
f 8/8/3 7/7/3 6/6/3
f 6/3/4 10/2/4 9/1/4
f 10/2/4 6/3/4 11/4/4
f 5/3/5 9/2/5 12/1/5
f 9/2/5 5/3/5 6/4/5
f 13/7/6 4/6/6 3/5/6
f 4/6/6 13/7/6 14/8/6
f 3/5/7 4/6/7 13/7/7
f 14/8/7 13/7/7 4/6/7
f 16/8/8 11/5/8 15/7/8
f 11/5/8 16/8/8 17/6/8
f 15/7/9 11/5/9 16/8/9
f 17/6/9 16/8/9 11/5/9
f 17/3/10 1/2/10 18/1/10
f 1/2/10 17/3/10 3/4/10
f 2/11/11 20/10/11 19/9/11
f 20/10/11 2/11/11 4/12/11
f 19/15/12 5/14/12 12/13/12
f 5/14/12 19/15/12 20/16/12
f 5/19/13 21/18/13 7/17/13
f 21/18/13 5/19/13 20/20/13
f 7/17/14 21/18/14 5/19/14
f 20/20/14 5/19/14 21/18/14
f 1/23/15 10/22/15 18/21/15
f 10/22/15 1/23/15 9/24/15
f 9/24/15 1/23/15 19/25/15
f 19/25/15 1/23/15 2/26/15
f 12/27/15 9/24/15 19/25/15
f 4/30/16 21/29/16 20/28/16
f 21/29/16 4/30/16 14/31/16
f 20/28/17 21/29/17 4/30/17
f 14/31/17 4/30/17 21/29/17
f 8/7/18 11/6/18 6/5/18
f 11/6/18 8/7/18 15/8/18
f 6/5/19 11/6/19 8/7/19
f 15/8/19 8/7/19 11/6/19
f 17/4/20 10/1/20 11/3/20
f 10/1/20 17/4/20 18/2/20
f 16/7/21 3/6/21 17/5/21
f 3/6/21 16/7/21 13/8/21
f 17/5/22 3/6/22 16/7/22
f 13/8/22 16/7/22 3/6/22

usemtl leafsDark

f 6/24/23 17/26/23 11/27/23
f 17/26/23 6/24/23 3/23/23
f 3/23/23 6/24/23 20/32/23
f 20/32/23 6/24/23 5/22/23
f 4/21/23 3/23/23 20/32/23

