# Created by Kenney (www.kenney.nl)

mtllib log_stack.mtl

g log_stack

v 0.2 0.08660242 -0.335
v 0.15 -8.195639E-08 -0.335
v 0.2 0.08660242 0.335
v 0.15 -8.195639E-08 0.335
v 0.05 -8.195639E-08 0.335
v 0.05 -8.195639E-08 -0.335
v 0.1855179 0.1116862 -0.2039464
v 0.2247171 0.1437911 -0.1957425
v 0.1644821 0.1481212 -0.2039464
v 0.2118853 0.1660164 -0.1957425
v 0.2247171 0.1437911 -0.1700789
v 0.1855179 0.1116862 -0.161875
v 0.1327618 0.02985732 0.335
v 0.1655236 0.08660242 0.335
v 0.15 0.173205 0.335
v 0.1327618 0.1433475 0.335
v 0.06723821 0.1433475 0.335
v 0.06723821 0.02985732 0.335
v 0 0.08660242 0.335
v 0.03447641 0.08660242 0.335
v 0.05 0.173205 0.335
v 0.1470661 0.3037967 0.1653365
v 0.1401377 0.3037967 0.1330184
v 0.1266099 0.2826629 0.1769655
v 0.1167121 0.2826629 0.1307968
v 0.1644821 0.1481212 -0.161875
v 0.2118853 0.1660164 -0.1700789
v 0.06699172 0.02943041 -0.335
v 0 0.08660242 -0.335
v 0.03398345 0.08660242 -0.335
v 0.05 0.173205 -0.335
v 0.06699172 0.1437744 -0.335
v 0.1330083 0.1437744 -0.335
v 0.1330083 0.02943041 -0.335
v 0.1660166 0.08660242 -0.335
v 0.15 0.173205 -0.335
v 0.0936278 0.3235547 0.1357456
v 0.1239787 0.3324209 0.1364826
v 0.05 0.173205 0.3328835
v 0.1023588 0.2030624 0.3216587
v 0.1192141 0.173205 0.3180453
v 0.1681032 0.2598075 0.3075643
v 0.1343928 0.2598075 0.3147912
v 0.1192141 0.3464101 0.3180453
v 0.1023588 0.3165526 0.3216587
v 0.03829097 0.3165526 0.3353937
v 0.03829097 0.2030624 0.3353937
v -0.02745342 0.2598075 0.349488
v 0.02143574 0.173205 0.3390071
v 0.006257035 0.2598075 0.3422612
v 0.02143574 0.3464101 0.3390071
v -0.04999995 0.173205 -0.3309018
v -0.02123037 0.173205 -0.3370695
v -0.1190087 0.173205 -0.3161076
v -0.1023945 0.2026355 -0.3196694
v -0.1678979 0.2598075 -0.3056267
v -0.1346694 0.2598075 -0.3127503
v -0.1190087 0.3464101 -0.3161076
v -0.1023945 0.3169795 -0.3196694
v -0.03784457 0.3169795 -0.3335077
v -0.03784457 0.2026355 -0.3335077
v 0.02765879 0.2598075 -0.3475504
v -0.005569606 0.2598075 -0.3404268
v -0.02123037 0.3464101 -0.3370695
v 0.1309071 0.3324209 0.1688007
v -0.05 0 -0.355
v -0.1330083 0.0294305 -0.355
v -0.15 0 -0.355
v -0.2 0.08660251 -0.355
v -0.1660165 0.08660251 -0.355
v -0.15 0.1732051 -0.355
v -0.1330083 0.1437745 -0.355
v -0.06699169 0.1437745 -0.355
v -0.06699169 0.0294305 -0.355
v 0 0.08660251 -0.355
v -0.0339834 0.08660251 -0.355
v -0.05 0.1732051 -0.355
v -0.05 0 0.355
v 0 0.08660251 0.355
v 0.1035255 0.3235547 0.1819143
v -0.15 0 0.355
v -0.2 0.08660251 0.355
v 0.05 0.173205 -0.004809468
v -0.04999995 0.173205 0.005789418
v -0.0672382 0.02985741 0.355
v -0.0344764 0.08660251 0.355
v -0.05 0.1732051 0.355
v -0.0672382 0.1433476 0.355
v -0.1327618 0.1433476 0.355
v -0.1327618 0.02985741 0.355
v -0.1655236 0.08660251 0.355
v -0.15 0.1732051 0.355

vn 0.8660253 -0.5000001 0
vn 0 -1 0
vn 0.1402207 0.08095646 -0.986805
vn 0.6336248 -0.7736405 0
vn 0 0 1
vn 0.6703793 -0.7279677 -0.1437169
vn 0.1402207 0.08095646 0.986805
vn -0.3531815 0.9355548 0
vn 0 0 -1
vn -0.009441396 0.1148866 -0.9933338
vn 0.2096186 0 0.9777833
vn -0.2096186 0 -0.9777833
vn 0.8467848 0.5000004 -0.1815349
vn 0.8660253 -0.5000004 0
vn 0 1 0
vn -0.2812428 0.9577407 0.06029322
vn -0.8660253 -0.5000001 0
vn 0.846785 -0.5000001 -0.181535
vn 0.3985761 0.114885 0.9099113
vn -0.8467852 0.4999998 0.181535
vn -0.8660255 0.4999998 0
vn 2.588066E-07 1 0
vn 0.8660257 0.4999996 0
vn 0.8467852 0.4999998 -0.181535
vn -0.846785 -0.5000001 0.181535
vn 0.866025 0.5000008 0
vn 0.8660255 0.4999998 0

vt 13.18898 6.88976
vt 13.18898 2.952754
vt -13.18898 6.88976
vt -13.18898 2.952754
vt 5.905512 13.18898
vt 5.905512 -13.18898
vt 1.968504 13.18898
vt 1.968504 -13.18898
vt -6.10162 3.655912
vt -7.67499 4.924047
vt -5.281678 5.095084
vt -7.174825 5.801939
vt 6.69602 10.43149
vt 7.706398 10.43149
vt 6.373032 8.436665
vt 8.029386 8.436665
vt 1.968504 -3.285295E-06
vt 5.226842 1.175485
vt 5.905512 -3.285295E-06
vt 7.874016 3.409544
vt 6.516677 3.409544
vt 5.905512 6.819095
vt 5.226842 5.643603
vt 2.647174 5.643603
vt 2.647174 1.175485
vt 0 3.409544
vt 1.357339 3.409544
vt 1.968504 6.819095
vt -7.578388 11.32826
vt -6.277112 11.32826
vt -7.85723 10.11469
vt -5.998265 10.11469
vt 8.127789 4.810285
vt 7.307847 6.249457
vt 9.701159 6.078419
vt 9.200994 6.956313
vt -7.706398 10.11277
vt -6.69602 10.11277
vt -8.029386 8.117942
vt -6.373032 8.117942
vt -5.905512 -3.285295E-06
vt -2.637469 1.158678
vt -1.968504 -3.285295E-06
vt -1.337931 3.409544
vt -1.968504 6.819095
vt -2.637469 5.66041
vt -5.236547 5.66041
vt -5.236547 1.158678
vt -7.874016 3.409544
vt -6.536087 3.409544
vt -5.905512 6.819095
vt -4.545816 11.65137
vt -5.46721 12.48896
vt -3.635173 13.27202
vt -4.829759 13.62341
vt -0.8224173 6.819095
vt 1.285792 7.994584
vt 1.964461 6.819095
vt 3.932965 10.22864
vt 2.575627 10.22864
vt 1.964461 13.63819
vt 1.285792 12.4627
vt -1.293877 12.4627
vt -1.293877 7.994584
vt -3.941051 10.22864
vt -1.972547 6.819095
vt -2.583712 10.22864
vt -1.972547 13.63819
vt -0.8060648 6.819095
vt -1.964461 6.819095
vt 1.972547 6.819095
vt 1.303581 7.977776
vt 3.941051 10.22864
vt 2.603119 10.22864
vt 1.972547 13.63819
vt 1.303581 12.47951
vt -1.295497 12.47951
vt -1.295497 7.977776
vt -3.932965 10.22864
vt -2.595036 10.22864
vt -1.964461 13.63819
vt -6.277112 8.209644
vt -7.578388 8.209644
vt -6.277112 9.51092
vt -7.578388 9.51092
vt 1.968504 -8.897637E-14
vt 5.236547 1.158681
vt 5.905512 -8.897637E-14
vt 7.874016 3.409548
vt 6.536085 3.409548
vt 5.905512 6.819098
vt 5.236547 5.660413
vt 2.637468 5.660413
vt 2.637468 1.158681
vt 2.306334E-14 3.409548
vt 1.337929 3.409548
vt 1.968504 6.819098
vt 13.97638 2.952754
vt 13.97638 -0.9842526
vt 13.18898 2.952751
vt -13.97638 -0.9842526
vt -13.18898 2.952751
vt -13.97638 2.952754
vt -4.693467 12.52147
vt -0.8439268 13.34674
vt 0.8358414 -13.27045
vt 4.685382 -12.44518
vt 7.578388 7.256549
vt 7.85723 6.042978
vt 6.277112 7.256549
vt 5.998265 6.042978
vt -13.97638 2.952757
vt -13.97638 6.889763
vt 13.97638 2.952757
vt 13.97638 6.889763
vt 1.968504 13.10565
vt 1.968504 -0.1893491
vt 0.8439268 13.34674
vt -0.8358414 -13.27045
vt -1.968502 0.2279299
vt -1.968502 -13.02763
vt 13.15083 10.82475
vt 13.15083 6.88774
vt -13.22712 10.82475
vt -0.2274925 6.88774
vt -13.22712 6.88774
vt 1.770365 10.09184
vt 0.8597214 11.71249
vt 2.691757 10.92943
vt 2.054306 12.06388
vt -5.905512 0
vt -2.647173 1.175489
vt -1.968504 0
vt 0 3.409548
vt -1.357339 3.409548
vt -1.968504 6.819098
vt -2.647173 5.643607
vt -5.226842 5.643607
vt -5.226842 1.175489
vt -7.874016 3.409548
vt -6.516677 3.409548
vt -5.905512 6.819098
vt -13.15083 10.82475
vt 13.22712 10.82475
vt -13.15083 6.887742
vt 13.22712 6.887742
vt -13.97638 -0.9842508
vt -13.97638 2.952759
vt 13.97638 -0.9842508
vt 13.97638 2.952759
vt 1.968504 -13.02763
vt 4.685383 -12.44518
vt 1.968506 -13.97638
vt 5.905514 -13.97638
vt 5.905514 13.97638
vt 1.968506 13.97638
vt 1.968504 0.2279302
vt 13.97638 6.889765
vt 13.97638 2.952756
vt 13.02763 6.889761
vt 13.18898 2.952753
vt -13.18898 2.952753
vt -0.2279299 6.889761
vt -13.97638 6.889765
vt -13.97638 2.952756
vt -5.998265 7.930805
vt -5.998265 9.789772
vt 13.15083 10.82879
vt -13.22712 10.82879
vt -7.85723 9.789772
vt -13.22712 6.891784
vt 13.15083 6.891784
vt -7.85723 7.930805
vt -1.968504 13.97638
vt -1.968504 -13.97638
vt -5.905512 13.97638
vt -5.905512 -13.97638
vt -13.15083 6.891783
vt -13.15083 10.82879
vt -0.1897686 6.891783
vt 13.22712 10.82879
vt 13.22712 6.891783
vt -13.18898 -0.9842551
vt -13.18898 2.952752
vt 13.18898 -0.9842551
vt 13.18898 2.952752
vt -13.18898 2.952752
vt -13.18898 6.889762
vt 13.18898 2.952752
vt -0.1893491 6.889762
vt 13.10565 6.889762
vt 13.18898 6.889762
vt -5.905512 -13.18898
vt -5.905512 13.18898
vt -1.968504 -13.18898
vt -1.968504 -0.1893491
vt -1.968504 13.18898
vt -1.968504 13.10565
vt 7.706398 1.48943
vt 7.706398 0.479053
vt 6.69602 1.48943
vt 6.69602 0.479053
vt 13.18898 -0.9842536
vt 8.029386 1.81243
vt 13.18898 2.952756
vt -13.18898 2.952756
vt 6.373032 1.81243
vt 6.373032 0.1560719
vt 8.029386 0.1560719
vt -13.18898 -0.9842536

usemtl woodBark

f 3/3/1 2/2/1 1/1/1
f 2/2/1 3/3/1 4/4/1
f 5/7/2 2/6/2 4/5/2
f 2/6/2 5/7/2 6/8/2
f 9/11/3 8/10/3 7/9/3
f 8/10/3 9/11/3 10/12/3
f 12/15/4 8/14/4 11/13/4
f 8/14/4 12/15/4 7/16/4
f 4/19/5 13/18/5 5/17/5
f 13/18/5 4/19/5 3/20/5
f 13/18/5 3/20/5 14/21/5
f 14/21/5 3/20/5 15/22/5
f 14/21/5 15/22/5 16/23/5
f 16/23/5 15/22/5 17/24/5
f 18/25/5 5/17/5 13/18/5
f 5/17/5 18/25/5 19/26/5
f 19/26/5 18/25/5 20/27/5
f 19/26/5 20/27/5 17/24/5
f 19/26/5 17/24/5 21/28/5
f 21/28/5 17/24/5 15/22/5
f 24/31/6 23/30/6 22/29/6
f 23/30/6 24/31/6 25/32/6
f 11/35/7 26/34/7 12/33/7
f 26/34/7 11/35/7 27/36/7
f 9/39/8 27/38/8 10/37/8
f 27/38/8 9/39/8 26/40/8
f 6/43/9 28/42/9 2/41/9
f 28/42/9 6/43/9 29/26/9
f 28/42/9 29/26/9 30/44/9
f 30/44/9 29/26/9 31/45/9
f 30/44/9 31/45/9 32/46/9
f 32/46/9 31/45/9 33/47/9
f 34/48/9 2/41/9 28/42/9
f 2/41/9 34/48/9 1/49/9
f 1/49/9 34/48/9 35/50/9
f 1/49/9 35/50/9 33/47/9
f 1/49/9 33/47/9 36/51/9
f 36/51/9 33/47/9 31/45/9
f 37/54/10 23/53/10 25/52/10
f 23/53/10 37/54/10 38/55/10
f 41/58/11 40/57/11 39/56/11
f 40/57/11 41/58/11 42/59/11
f 40/57/11 42/59/11 43/60/11
f 43/60/11 42/59/11 44/61/11
f 43/60/11 44/61/11 45/62/11
f 45/62/11 44/61/11 46/63/11
f 47/64/11 39/56/11 40/57/11
f 48/65/11 39/56/11 47/64/11
f 39/56/11 48/65/11 49/66/11
f 48/65/11 47/64/11 50/67/11
f 48/65/11 50/67/11 46/63/11
f 48/65/11 46/63/11 51/68/11
f 51/68/11 46/63/11 44/61/11
f 54/71/12 53/70/12 52/69/12
f 53/70/12 54/71/12 55/72/12
f 55/72/12 54/71/12 56/73/12
f 55/72/12 56/73/12 57/74/12
f 57/74/12 56/73/12 58/75/12
f 57/74/12 58/75/12 59/76/12
f 59/76/12 58/75/12 60/77/12
f 61/78/12 53/70/12 55/72/12
f 53/70/12 61/78/12 62/79/12
f 62/79/12 61/78/12 63/80/12
f 62/79/12 63/80/12 60/77/12
f 62/79/12 60/77/12 64/81/12
f 64/81/12 60/77/12 58/75/12
f 38/84/13 22/83/13 23/82/13
f 22/83/13 38/84/13 65/85/13
f 68/88/9 67/87/9 66/86/9
f 67/87/9 68/88/9 69/89/9
f 67/87/9 69/89/9 70/90/9
f 70/90/9 69/89/9 71/91/9
f 70/90/9 71/91/9 72/92/9
f 72/92/9 71/91/9 73/93/9
f 74/94/9 66/86/9 67/87/9
f 66/86/9 74/94/9 75/95/9
f 75/95/9 74/94/9 76/96/9
f 75/95/9 76/96/9 73/93/9
f 75/95/9 73/93/9 77/97/9
f 77/97/9 73/93/9 71/91/9
f 29/100/14 66/99/14 75/98/14
f 66/99/14 29/100/14 78/101/14
f 78/101/14 29/100/14 19/102/14
f 78/101/14 19/102/14 79/103/14
f 64/106/15 51/105/15 44/104/15
f 51/105/15 64/106/15 58/107/15
f 38/110/16 80/109/16 65/108/16
f 80/109/16 38/110/16 37/111/16
f 81/114/17 69/113/17 68/112/17
f 69/113/17 81/114/17 82/115/17
f 49/118/2 83/117/2 39/116/2
f 83/117/2 49/118/2 53/119/2
f 53/119/2 49/118/2 84/120/2
f 53/119/2 84/120/2 52/121/2
f 42/124/18 53/123/18 62/122/18
f 53/123/18 42/124/18 83/125/18
f 83/125/18 42/124/18 41/126/18
f 22/129/19 80/128/19 24/127/19
f 80/128/19 22/129/19 65/130/19
f 78/133/5 85/132/5 81/131/5
f 85/132/5 78/133/5 79/134/5
f 85/132/5 79/134/5 86/135/5
f 86/135/5 79/134/5 87/136/5
f 86/135/5 87/136/5 88/137/5
f 88/137/5 87/136/5 89/138/5
f 90/139/5 81/131/5 85/132/5
f 81/131/5 90/139/5 82/140/5
f 82/140/5 90/139/5 91/141/5
f 82/140/5 91/141/5 89/138/5
f 82/140/5 89/138/5 92/142/5
f 92/142/5 89/138/5 87/136/5
f 56/145/20 51/144/20 58/143/20
f 51/144/20 56/145/20 48/146/20
f 82/149/21 71/148/21 69/147/21
f 71/148/21 82/149/21 92/150/21
f 77/153/22 54/152/22 52/151/22
f 54/152/22 77/153/22 71/154/22
f 92/155/22 54/152/22 71/154/22
f 87/156/22 54/152/22 92/155/22
f 54/152/22 87/156/22 84/157/22
f 52/160/23 75/159/23 77/158/23
f 75/159/23 52/160/23 29/161/23
f 29/161/23 52/160/23 19/162/23
f 19/162/23 52/160/23 84/163/23
f 19/162/23 84/163/23 87/164/23
f 19/162/23 87/164/23 79/165/23
f 64/168/24 37/167/24 25/166/24
f 37/167/24 64/168/24 44/169/24
f 37/167/24 44/169/24 80/170/24
f 80/170/24 44/169/24 42/171/24
f 62/172/24 25/166/24 42/171/24
f 25/166/24 62/172/24 64/168/24
f 42/171/24 25/166/24 24/173/24
f 42/171/24 24/173/24 80/170/24
f 81/176/2 66/175/2 78/174/2
f 66/175/2 81/176/2 68/177/2
f 84/180/25 56/179/25 54/178/25
f 56/179/25 84/180/25 48/181/25
f 48/181/25 84/180/25 49/182/25
f 5/185/17 29/184/17 6/183/17
f 29/184/17 5/185/17 19/186/17
f 19/189/21 31/188/21 29/187/21
f 31/188/21 19/189/21 83/190/21
f 83/190/21 19/189/21 39/191/21
f 39/191/21 19/189/21 21/192/21
f 31/195/15 15/194/15 36/193/15
f 15/194/15 31/195/15 41/104/15
f 41/104/15 31/195/15 83/196/15
f 41/104/15 21/197/15 15/194/15
f 21/197/15 41/104/15 39/198/15
f 27/201/26 8/200/26 10/199/26
f 8/200/26 27/201/26 11/202/26
f 36/205/27 9/204/27 1/203/27
f 9/204/27 36/205/27 15/206/27
f 9/204/27 15/206/27 26/207/27
f 26/207/27 15/206/27 12/208/27
f 7/209/27 1/203/27 9/204/27
f 1/203/27 7/209/27 3/210/27
f 3/210/27 7/209/27 12/208/27
f 3/210/27 12/208/27 15/206/27

usemtl woodInner

f 70/90/9 74/94/9 67/87/9
f 74/94/9 70/90/9 76/96/9
f 76/96/9 70/90/9 72/92/9
f 76/96/9 72/92/9 73/93/9
f 43/60/11 47/64/11 40/57/11
f 47/64/11 43/60/11 50/67/11
f 50/67/11 43/60/11 45/62/11
f 50/67/11 45/62/11 46/63/11
f 57/74/12 61/78/12 55/72/12
f 61/78/12 57/74/12 63/80/12
f 63/80/12 57/74/12 59/76/12
f 63/80/12 59/76/12 60/77/12
f 86/135/5 90/139/5 85/132/5
f 90/139/5 86/135/5 91/141/5
f 91/141/5 86/135/5 88/137/5
f 91/141/5 88/137/5 89/138/5
f 30/44/9 34/48/9 28/42/9
f 34/48/9 30/44/9 35/50/9
f 35/50/9 30/44/9 32/46/9
f 35/50/9 32/46/9 33/47/9
f 14/21/5 18/25/5 13/18/5
f 18/25/5 14/21/5 20/27/5
f 20/27/5 14/21/5 16/23/5
f 20/27/5 16/23/5 17/24/5

