# Created by Kenney (www.kenney.nl)

mtllib mushroom_tanTall.mtl

g mushroom_tanTall

v -0.06240609 0.1962156 -0.03922847
v -0.0006477273 0.1962156 -0.07488467
v -0.0154048 0.250488 -0.01209227
v -0.0006477273 0.250488 -0.02061227
v -0.0006477273 0.1962156 0.06774013
v -0.06240609 0.1962156 0.03208393
v -0.0006477273 0.250488 0.01346773
v -0.0154048 0.250488 0.004947732
v 0.01410935 0.250488 -0.01209227
v 0.01410935 0.250488 0.004947732
v 0.06111063 0.1962156 -0.03922847
v 0.06111063 0.1962156 0.03208393
v -0.04696648 0.1763356 -0.03031442
v -0.04696648 0.1763356 0.02316988
v -0.0006477273 0.1763356 -0.05705657
v 0.01874929 0 0.01874929
v 0.01874929 0 -0.01874929
v -0.01874929 0 0.01874929
v -0.01874929 0 -0.01874929
v -0.0006477273 0.1763356 0.04991203
v 0.04567102 0.1763356 -0.03031442
v 0.04567102 0.1763356 0.02316988
v 0.01118908 0.1763356 0.01118908
v -0.01118908 0.1763356 0.01118908
v -0.01118908 0.1763356 -0.01118908
v 0.01118908 0.1763356 -0.01118908

vn -0.3779646 0.6546534 -0.654654
vn -0.3779646 0.6546534 0.654654
vn 0 1 0
vn 0.7559292 0.6546534 0
vn 0.3779646 0.6546534 0.654654
vn 0.3779646 0.6546534 -0.654654
vn -0.7559292 0.6546534 0
vn -0.789787 -0.6133813 0
vn -0.3948936 -0.6133809 -0.6839758
vn 0 -1 0
vn -0.3948936 -0.6133809 0.6839758
vn 0.3948936 -0.6133809 -0.6839758
vn 0.3948936 -0.6133809 0.6839758
vn 0.789787 -0.6133813 0
vn 0 0.04283467 -0.9990822
vn 0 0.04283465 0.9990822
vn -0.9990822 0.04283466 0
vn 0.9990822 0.04283466 0

vt 1.355552 4.159743
vt -1.452023 4.159743
vt 0.2871975 6.986344
vt -0.3836687 6.986344
vt 1.311382 4.319214
vt -1.496193 4.319214
vt 0.2430282 7.145816
vt -0.427838 7.145816
vt -0.5554861 -0.4760736
vt -0.5554861 0.1947926
vt 0.02550108 -0.8115067
vt 0.02550108 0.5302257
vt 0.6064883 -0.4760736
vt 0.6064883 0.1947926
vt 1.544428 4.26452
vt -1.263147 4.26452
vt 0.4760736 7.091121
vt -0.1947926 7.091121
vt 1.452024 4.335909
vt -1.355552 4.335909
vt 0.3836688 7.16251
vt -0.2871974 7.16251
vt 1.496192 4.176437
vt -1.311383 4.176437
vt 0.4278379 7.003039
vt -0.2430283 7.003039
vt -1.544428 4.231131
vt -0.4760736 7.057733
vt 1.263147 4.231131
vt 0.1947926 7.057733

usemtl colorTan

f 3/3/1 2/2/1 1/1/1
f 2/2/1 3/3/1 4/4/1
f 7/7/2 6/6/2 5/5/2
f 6/6/2 7/7/2 8/8/2
f 4/11/3 10/10/3 9/9/3
f 10/10/3 4/11/3 7/12/3
f 7/12/3 4/11/3 3/13/3
f 7/12/3 3/13/3 8/14/3
f 9/17/4 12/16/4 11/15/4
f 12/16/4 9/17/4 10/18/4
f 10/21/5 5/20/5 12/19/5
f 5/20/5 10/21/5 7/22/5
f 4/25/6 11/24/6 2/23/6
f 11/24/6 4/25/6 9/26/6
f 6/29/7 3/28/7 1/27/7
f 3/28/7 6/29/7 8/30/7

usemtl _defaultMat

f 13/2/8 6/3/8 1/4/8
f 6/2/8 13/3/8 14/4/8
f 1/6/9 15/7/9 13/8/9
f 15/6/9 1/7/9 2/8/9
f 18/12/10 17/13/10 16/14/10
f 17/12/10 18/13/10 19/14/10
f 5/12/11 14/13/11 20/14/11
f 14/12/11 5/13/11 6/14/11
f 2/28/12 21/29/12 15/30/12
f 21/28/12 2/29/12 11/30/12
f 12/28/13 20/29/13 22/30/13
f 20/28/13 12/29/13 5/30/13
f 12/28/14 21/29/14 11/30/14
f 21/28/14 12/29/14 22/30/14
f 20/28/10 21/29/10 22/30/10
f 21/28/10 20/29/10 23/30/10
f 23/28/10 20/29/10 24/30/10
f 24/28/10 20/29/10 14/30/10
f 24/28/10 14/29/10 25/30/10
f 21/28/10 26/29/10 15/30/10
f 26/28/10 21/29/10 23/30/10
f 15/28/10 26/29/10 25/30/10
f 15/28/10 25/29/10 13/30/10
f 13/28/10 25/29/10 14/30/10
f 25/28/15 17/29/15 19/30/15
f 17/28/15 25/29/15 26/30/15
f 23/28/16 18/29/16 16/30/16
f 18/28/16 23/29/16 24/30/16
f 18/28/17 25/29/17 19/30/17
f 25/28/17 18/29/17 24/30/17
f 26/28/18 16/29/18 17/30/18
f 16/28/18 26/29/18 23/30/18

