# Created by Kenney (www.kenney.nl)

mtllib path_stoneCorner.mtl

g path_stoneCorner

v 0.4704106 0 0.2482759
v 0.4704106 0 0.1369116
v 0.3739663 0 0.3039581
v 0.3739662 0 0.08122938
v 0.2775219 0 0.2482759
v 0.2775219 0 0.1369116
v 0.2019727 0 -0.03078035
v 0.082562 0 -0.150191
v 0.1582653 0 0.1323377
v -0.004852674 0 0.176045
v -0.080556 0 -0.1064837
v -0.1242633 0 0.05663433
v 0.2134497 0 -0.3374912
v 0.2134497 0 -0.4287735
v 0.1343969 0 -0.2918501
v 0.1343969 0 -0.4744146
v 0.05534416 0 -0.3374912
v 0.05534416 0 -0.4287735
v 0.4350968 0 -0.104247
v 0.4350968 0 -0.2301059
v 0.3260998 0 -0.0413176
v 0.3260998 0 -0.2930354
v 0.2171029 0 -0.104247
v 0.2171029 0 -0.2301059
v -0.01575301 0 -0.3582765
v -0.1280694 0 -0.4389841
v -0.02948957 0 -0.2206539
v -0.1555425 0 -0.1637388
v -0.2541224 0 -0.382069
v -0.267859 0 -0.2444463
v 0.2775219 0.0125 0.1369116
v 0.2775219 0.025 0.1925937
v 0.2775219 0.025 0.2482759
v 0.3739662 0.025 0.08122938
v 0.3257441 0.025 0.1090705
v 0.3739663 0.025 0.3039581
v 0.4704106 0.025 0.2482759
v 0.4704106 0.025 0.1369116
v 0.082562 0.05 -0.150191
v 0.2019727 0.05 -0.03078035
v 0.2171029 0.025 -0.2301059
v 0.3260998 0.025 -0.2930354
v 0.4350968 0.025 -0.2301059
v -0.02948957 0.025 -0.2206539
v -0.1555425 0.025 -0.1637388
v -0.004852674 0.05 0.176045
v -0.1242633 0.05 0.05663433
v 0.1582653 0.025 0.1323377
v 0.07670633 0.05 0.1541913
v -0.080556 0.05 -0.1064837
v 0.05534416 0.025 -0.4287735
v 0.1343969 0.025 -0.4744146
v 0.05534416 0.025 -0.3374912
v 0.1343969 0.025 -0.2918501
v -0.267859 0.025 -0.2444463
v -0.01575301 0.025 -0.3582765
v 0.3260998 0.025 -0.0413176
v 0.2171029 0.025 -0.104247
v 0.2134497 0.025 -0.3374912
v 0.2134497 0.025 -0.4287735
v 0.4350968 0.0125 -0.104247
v 0.3805983 0.025 -0.07278232
v 0.4350968 0.025 -0.1671765
v -0.2541224 0.025 -0.382069
v -0.1280694 0.025 -0.4389841
v 0.180119 0.05 0.05077865

vn 0 -1 0
vn -1 0 0
vn -0.5 0 -0.8660254
vn -0.5 0 0.8660254
vn 0.5 0 0.8660254
vn 1 0 0
vn 0.7071068 0 -0.7071068
vn 0.5 0 -0.8660254
vn 0.4115144 0 0.9114033
vn -0.7071068 0 0.7071068
vn 0.258819 0 0.9659258
vn -0.258819 0 -0.9659258
vn -0.5835412 0 0.8120835
vn 0.9950556 0 0.09931973
vn -0.9950556 0 -0.09931973
vn -0.4115144 0 -0.9114033
vn 0.5835412 0 -0.8120835
vn 0.9659258 0 0.258819
vn -0.9659258 0 -0.258819
vn 0 1 0
vn -0.3547138 0.9122705 -0.2047941
vn 0.319739 0.9293489 0.1846014
vn 0.3602916 0.8604532 0.3602916

vt 0 0
vt 1.345865 1.968504
vt 4.670121 0.984252
vt -1.978391 1.968504
vt -4.670121 1.968504
vt 1.978391 1.968504
vt -4.670121 0
vt 13.28706 8.660025E-43
vt 13.28706 0.984252
vt 16.88085 8.660025E-43
vt 8.73472 0.984252
vt 14.17986 0.984252
vt 8.73472 0
vt 5.390219 1.51512E-14
vt 5.390219 0.492126
vt 9.774643 1.51512E-14
vt 7.582431 0.984252
vt 9.774643 0.984252
vt -6.767135 -1.296815E-14
vt -11.15156 -1.296815E-14
vt -6.767135 0.492126
vt -11.15156 0.984252
vt -8.959347 0.984252
vt 18.73399 0
vt 14.34957 0
vt 18.73399 0.984252
vt 14.34957 0.984252
vt 11.15156 0
vt 6.767135 0
vt 11.15156 0.984252
vt 6.767135 0.984252
vt -5.390219 0.984252
vt -5.390219 -6.866551E-29
vt -9.774643 0.984252
vt -9.774643 -6.866551E-29
vt 1.882714 0
vt -4.765797 0
vt 1.882714 1.968504
vt -4.765797 1.968504
vt -11.93187 0
vt -16.88695 0
vt -11.93187 0.984252
vt -16.88695 0.984252
vt -5.350121 0
vt -10.30519 0
vt -5.350121 0.984252
vt -10.30519 0.984252
vt 2.516747 0
vt -2.928389 0
vt 2.516747 0.984252
vt -2.928389 0.984252
vt 4.765797 0
vt -1.882714 0
vt 4.765797 1.968504
vt -1.882714 1.968504
vt 4.670121 -4.074387E-15
vt -1.978391 -4.074387E-15
vt 1.978391 0
vt -10.32741 0
vt -13.9212 0
vt -10.32741 0.984252
vt -13.9212 0.984252
vt -16.88085 0
vt -16.88085 0.984252
vt -13.28706 0
vt -13.28706 0.984252
vt -14.34957 0
vt -18.73399 0
vt -14.34957 0.984252
vt -18.73399 0.984252
vt -1.162752 0
vt -4.756542 0
vt -1.162752 0.984252
vt -4.756542 0.984252
vt -8.73472 0
vt -14.17986 0
vt -8.73472 0.984252
vt -14.17986 0.984252
vt 13.97404 0.984252
vt 13.97404 0
vt 8.528898 0.984252
vt 8.528898 0
vt 10.30519 0
vt 5.350121 0
vt 10.30519 0.984252
vt 5.350121 0.984252
vt 13.9212 -1.349122E-29
vt 10.32741 -1.349122E-29
vt 13.9212 0.984252
vt 10.32741 0.984252
vt 4.756542 0
vt 1.162752 0
vt 4.756542 0.984252
vt 1.162752 0.984252
vt 16.88085 0.984252
vt 16.88695 -6.876853E-14
vt 11.93187 -6.876853E-14
vt 16.88695 0.492126
vt 11.93187 0.984252
vt 14.40941 0.984252
vt 9.059288 0.984252
vt 9.059288 4.801382E-13
vt 6.581751 0.984252
vt 4.104214 4.801382E-13
vt 4.104214 0.492126
vt -13.97404 0
vt -13.97404 0.984252
vt -8.528898 0
vt -8.528898 0.984252
vt -9.059288 0
vt -9.059288 0.984252
vt -4.104214 0
vt -4.104214 0.984252
vt 2.928389 0
vt -2.516747 0
vt 2.928389 0.984252
vt -2.516747 0.984252
vt 14.17986 0
vt 3.228579 1.968504
vt 3.228579 -1.134589E-13
vt -0.0956766 1.968504
vt -3.419932 -1.134589E-13
vt -3.419932 0.984252
vt -3.228579 0
vt -3.228579 1.968504
vt 3.419932 0
vt 3.419932 1.968504
vt -18.5201 9.774643
vt -14.72308 11.96685
vt -18.5201 5.390219
vt -14.72308 3.198007
vt -10.92606 9.774643
vt -12.82457 4.294113
vt -10.92606 7.582431
vt -2.693474 12.49388
vt 1.103548 12.49388
vt -0.7949626 11.29237
vt 14.26486 -10.36498
vt 12.11925 -11.69792
vt 9.973642 -10.36498
vt -17.1298 -6.581751
vt -14.98419 -2.865446
vt -17.1298 -9.059288
vt -12.83858 -11.53683
vt -12.83858 -1.626677
vt -8.547357 -4.104214
vt -8.547357 -9.059288
vt 0.6201974 -14.10538
vt 1.161007 -8.687162
vt 5.042103 -17.28284
vt 6.123722 -6.446411
vt 10.00482 -15.04209
vt 10.54563 -9.623872
vt -8.40353 -13.28706
vt -5.291217 -11.49016
vt -8.40353 -16.88085
vt -5.291217 -18.67774
vt -2.178904 -13.28706
vt -2.178904 -16.88085
vt 3.600687 -4.527919
vt 0.7217966 -6.459608
vt -2.157093 -4.527919
vt -7.95168 -1.211825
vt -7.091299 1.99916
vt -3.250473 -5.913032
vt -3.019934 6.070525
vt 3.171496 -4.192271
vt 0.1910502 6.930905
vt 4.892258 2.229698

usemtl _defaultMat

f 3/1/1 2/1/1 1/1/1
f 2/1/1 3/1/1 4/1/1
f 4/1/1 3/1/1 5/1/1
f 4/1/1 5/1/1 6/1/1
f 9/4/1 8/3/1 7/2/1
f 8/4/1 9/3/1 10/2/1
f 8/4/1 10/3/1 11/2/1
f 11/4/1 10/3/1 12/2/1
f 15/7/1 14/6/1 13/5/1
f 14/7/1 15/6/1 16/5/1
f 16/7/1 15/6/1 17/5/1
f 16/7/1 17/6/1 18/5/1
f 21/10/1 20/9/1 19/8/1
f 20/10/1 21/9/1 22/8/1
f 22/10/1 21/9/1 23/8/1
f 22/10/1 23/9/1 24/8/1
f 27/13/1 26/12/1 25/11/1
f 26/13/1 27/12/1 28/11/1
f 26/13/1 28/12/1 29/11/1
f 29/13/1 28/12/1 30/11/1

usemtl stoneDark

f 5/16/2 31/15/2 6/14/2
f 31/15/2 5/16/2 32/17/2
f 32/17/2 5/16/2 33/18/2
f 31/21/3 4/20/3 6/19/3
f 4/20/3 31/21/3 34/22/3
f 34/22/3 31/21/3 35/23/3
f 36/26/4 5/25/4 3/24/4
f 5/25/4 36/26/4 33/27/4
f 37/30/5 3/29/5 1/28/5
f 3/29/5 37/30/5 36/31/5
f 37/34/6 2/33/6 38/32/6
f 2/33/6 37/34/6 1/35/6
f 39/38/7 7/37/7 8/36/7
f 7/37/7 39/38/7 40/39/7
f 41/42/3 22/41/3 24/40/3
f 22/41/3 41/42/3 42/43/3
f 42/46/8 20/45/8 22/44/8
f 20/45/8 42/46/8 43/47/8
f 44/50/9 28/49/9 27/48/9
f 28/49/9 44/50/9 45/51/9
f 46/54/10 12/53/10 10/52/10
f 12/53/10 46/54/10 47/55/10
f 48/3/11 10/57/11 9/56/11
f 10/57/11 48/3/11 46/4/11
f 46/4/11 48/3/11 49/2/11
f 50/6/12 8/7/12 11/58/12
f 8/7/12 50/6/12 39/5/12
f 51/61/3 16/60/3 18/59/3
f 16/60/3 51/61/3 52/62/3
f 17/65/2 51/64/2 18/63/2
f 51/64/2 17/65/2 53/66/2
f 34/69/8 2/68/8 4/67/8
f 2/68/8 34/69/8 38/70/8
f 54/73/4 17/72/4 15/71/4
f 17/72/4 54/73/4 53/74/4
f 45/77/13 30/76/13 28/75/13
f 30/76/13 45/77/13 55/78/13
f 44/81/14 25/80/14 56/79/14
f 25/80/14 44/81/14 27/82/14
f 57/85/4 23/84/4 21/83/4
f 23/84/4 57/85/4 58/86/4
f 59/89/5 15/88/5 13/87/5
f 15/88/5 59/89/5 54/90/5
f 52/93/8 14/92/8 16/91/8
f 14/92/8 52/93/8 60/94/8
f 59/9/6 14/10/6 60/95/6
f 14/10/6 59/9/6 13/8/6
f 61/98/5 21/97/5 19/96/5
f 21/97/5 61/98/5 57/99/5
f 57/99/5 61/98/5 62/100/5
f 63/103/6 20/102/6 43/101/6
f 20/102/6 63/103/6 19/104/6
f 19/104/6 63/103/6 61/105/6
f 30/108/15 64/107/15 29/106/15
f 64/107/15 30/108/15 55/109/15
f 23/112/2 41/111/2 24/110/2
f 41/111/2 23/112/2 58/113/2
f 64/116/16 26/115/16 29/114/16
f 26/115/16 64/116/16 65/117/16
f 65/12/17 25/13/17 26/118/17
f 25/13/17 65/12/17 56/11/17
f 66/121/18 7/120/18 40/119/18
f 7/120/18 66/121/18 9/122/18
f 9/122/18 66/121/18 48/123/18
f 12/126/19 50/125/19 11/124/19
f 50/125/19 12/126/19 47/127/19

usemtl stone

f 38/130/20 36/129/20 37/128/20
f 36/129/20 38/130/20 34/131/20
f 36/129/20 34/131/20 33/132/20
f 33/132/20 34/131/20 35/133/20
f 33/132/20 35/133/20 32/134/20
f 31/137/21 32/136/21 35/135/21
f 62/140/22 61/139/22 63/138/22
f 43/143/20 62/142/20 63/141/20
f 62/142/20 43/143/20 42/144/20
f 62/142/20 42/144/20 57/145/20
f 57/145/20 42/144/20 58/146/20
f 58/146/20 42/144/20 41/147/20
f 65/150/20 44/149/20 56/148/20
f 44/149/20 65/150/20 45/151/20
f 45/151/20 65/150/20 64/152/20
f 45/151/20 64/152/20 55/153/20
f 60/156/20 54/155/20 59/154/20
f 54/155/20 60/156/20 52/157/20
f 54/155/20 52/157/20 53/158/20
f 53/158/20 52/157/20 51/159/20
f 49/162/23 48/161/23 66/160/23
f 39/165/20 66/164/20 40/163/20
f 66/164/20 39/165/20 49/166/20
f 49/166/20 39/165/20 50/167/20
f 49/166/20 50/167/20 46/168/20
f 46/168/20 50/167/20 47/169/20

