# Created by Kenney (www.kenney.nl)

mtllib plant_flatShort.mtl

g plant_flatShort

v 0.09280114 0 0
v 1.382876E-09 0 0.09280114
v 0 0.05227183 2.703558E-13
v 5.875002E-10 0.1292352 0.03942557
v 1.219866E-09 0.07060118 0.08186205
v 1.42412E-09 0.155664 0.09556897
v 0 0.2350794 2.703558E-13
v 2.068473E-09 0.05016674 0.1388099
v -5.875002E-10 0.1292352 -0.03942557
v -1.219866E-09 0.07060118 -0.08186205
v -1.424117E-09 0.155664 -0.09556897
v -1.382873E-09 0 -0.09280114
v -2.068473E-09 0.05016674 -0.1388099
v -0.09280114 0 5.407116E-13
v -0.1388099 0.05016674 6.742653E-13
v -0.08186205 0.07060118 5.085866E-13
v -0.03942557 0.1292352 3.858616E-13
v -0.09556897 0.155664 5.493746E-13
v 0.03942557 0.1292352 1.5485E-13
v 0.08186205 0.07060118 3.212506E-14
v 0.09556897 0.155664 -8.662937E-15
v 0.1388099 0.05016674 -1.335536E-13

vn 0.4405717 0.782172 0.4405717
vn 1 0 0
vn -1 0 0
vn 0 0 1
vn 0 0 -1
vn -0.4405717 0.782172 -0.4405717
vn 0.4405717 0.782172 -0.4405717
vn -0.4405717 0.782172 0.4405717

vt 2.583477 -2.020723
vt -2.583477 -2.020723
vt -7.526395E-12 1.282229
vt -1.552188 5.088001
vt -3.222916 2.779574
vt -3.762558 6.128502
vt -3.653588 -8.690936E-29
vt -1.064393E-11 2.057946
vt -1.064393E-11 9.255095
vt -5.464958 1.975069
vt 1.552188 5.088001
vt 3.222916 2.779574
vt 3.762558 6.128502
vt 3.653588 -1.177508E-30
vt 5.464958 1.975069
vt -3.653588 2.080226E-26
vt -3.099916E-23 2.057946
vt -3.099916E-23 9.255095
vt 3.653588 -2.078938E-26
vt 7.526395E-12 1.282229
vt -7.526284E-12 1.282229

usemtl leafsGreen

f 3/3/1 2/2/1 1/1/1
f 6/6/2 5/5/2 4/4/2
f 2/7/2 4/4/2 5/5/2
f 3/8/2 4/4/2 2/7/2
f 4/4/2 3/8/2 7/9/2
f 2/7/2 5/5/2 8/10/2
f 3/8/2 9/11/2 7/9/2
f 3/8/2 10/12/2 9/11/2
f 9/11/2 10/12/2 11/13/2
f 12/14/2 10/12/2 3/8/2
f 10/12/2 12/14/2 13/15/2
f 4/4/3 5/5/3 6/6/3
f 5/5/3 4/4/3 2/7/3
f 2/7/3 4/4/3 3/8/3
f 7/9/3 3/8/3 4/4/3
f 8/10/3 5/5/3 2/7/3
f 7/9/3 9/11/3 3/8/3
f 9/11/3 10/12/3 3/8/3
f 11/13/3 10/12/3 9/11/3
f 3/8/3 10/12/3 12/14/3
f 13/15/3 12/14/3 10/12/3
f 3/17/4 15/10/4 14/16/4
f 15/10/4 3/17/4 16/5/4
f 16/5/4 3/17/4 17/4/4
f 17/4/4 3/17/4 7/18/4
f 18/6/4 16/5/4 17/4/4
f 3/17/4 19/11/4 7/18/4
f 3/17/4 20/12/4 19/11/4
f 21/13/4 19/11/4 20/12/4
f 3/17/4 22/15/4 20/12/4
f 22/15/4 3/17/4 1/19/4
f 14/16/5 15/10/5 3/17/5
f 16/5/5 3/17/5 15/10/5
f 17/4/5 3/17/5 16/5/5
f 7/18/5 3/17/5 17/4/5
f 17/4/5 16/5/5 18/6/5
f 7/18/5 19/11/5 3/17/5
f 19/11/5 20/12/5 3/17/5
f 20/12/5 19/11/5 21/13/5
f 20/12/5 22/15/5 3/17/5
f 1/19/5 3/17/5 22/15/5
f 14/1/6 3/20/6 12/2/6
f 12/1/7 3/21/7 1/2/7
f 14/2/8 2/1/8 3/20/8

