# Created by Kenney (www.kenney.nl)

mtllib plant_bushSmall.mtl

g plant_bushSmall

v 0 0 0
v -0.0777 0.09080011 0.03623014
v 4.042704E-14 0.2072925 0.1681711
v -0.04125356 0.06725934 0.094794
v -0.1914886 0.15355 0
v 0.0777 0.09080011 -0.03623014
v -4.475851E-14 0.2072925 -0.1681711
v -0.0777 0.09080011 -0.03623014
v 0.04125356 0.06725934 0.094794
v 0.1914886 0.15355 0
v 0.04125356 0.06725934 -0.094794
v -0.04125356 0.06725934 -0.094794
v 0.0777 0.09080011 0.03623014

vn -0.3504125 -0.5900732 0.7273409
vn 0.3504125 0.5900732 -0.7273409
vn -0.6022149 -0.7510079 0.2707849
vn 0.6022149 0.7510079 -0.2707849
vn 0.3504125 -0.5900732 -0.7273409
vn -0.3504125 0.5900732 0.7273409
vn -0.3504125 -0.5900732 -0.7273409
vn 0.3504125 0.5900732 0.7273409
vn 0.6022149 -0.7510079 0.2707849
vn -0.6022149 0.7510079 -0.2707849
vn 0.6022149 -0.7510079 -0.2707849
vn -0.6022149 0.7510079 0.2707849
vn -0.6022149 -0.7510079 -0.2707849
vn 0.6022149 0.7510079 0.2707849
vn 0.3504125 -0.5900732 0.7273409
vn -0.3504125 0.5900732 -0.7273409

vt 0 0
vt -2.13681 4.42783
vt 2.873662 10.10853
vt 2.737719 4.010347
vt -3.091696 9.15544
vt 2.13681 4.42783
vt -2.873662 10.10853
vt -2.737719 4.010347
vt 3.091696 9.15544

usemtl grass

f 3/3/1 2/2/1 1/1/1
f 1/1/2 2/2/2 3/3/2
f 5/5/3 1/1/3 4/4/3
f 4/4/4 1/1/4 5/5/4
f 7/3/5 6/2/5 1/1/5
f 1/1/6 6/2/6 7/3/6
f 7/7/7 1/1/7 8/6/7
f 8/6/8 1/1/8 7/7/8
f 1/1/9 10/9/9 9/8/9
f 9/8/10 10/9/10 1/1/10
f 1/1/11 11/4/11 10/5/11
f 10/5/12 11/4/12 1/1/12
f 5/9/13 12/8/13 1/1/13
f 1/1/14 12/8/14 5/9/14
f 3/7/15 1/1/15 13/6/15
f 13/6/16 1/1/16 3/7/16

