# Created by Kenney (www.kenney.nl)

mtllib plant_bushLarge.mtl

g plant_bushLarge

v 0 0 0.072036
v 3.221209E-09 0.06196179 0.108054
v 0.062385 0 0.036018
v 0.09357751 0.06196179 0.05402699
v -0.0935775 0.104052 -0.05402699
v -2.887646E-15 0.104052 -0.108054
v -0.1453571 0.22011 -0.08392194
v 0 0.22011 -0.1678439
v 0.1453571 0.131073 -0.08392194
v 0.0935775 0.1352792 -0.162081
v -8.912083E-10 0.131073 -0.1678439
v -0.0935775 0.234233 -0.162081
v 0 0 -0.072036
v -0.062385 0 -0.036018
v 0.09357751 0.1352792 0.162081
v 0.1453571 0.131073 0.08392194
v 4.112414E-09 0.131073 0.1678439
v -2.887646E-15 0.06196179 -0.108054
v 0.0935775 0.06196179 -0.05402699
v 0.0935775 0.104052 -0.05402699
v 0.062385 0 -0.036018
v 0.0935775 0.104052 0.05402699
v 0.1453571 0.22011 -0.08392194
v 0.1453571 0.22011 0.08392194
v -2.887646E-15 0.104052 0.108054
v -0.0935775 0.104052 0.05402699
v 0 0.22011 0.1678439
v -0.1453571 0.22011 0.08392194
v -0.0935775 0.06196179 -0.05402699
v -0.0935775 0.06196179 0.05402699
v -0.062385 0 0.036018
v -0.1453571 0.131073 -0.08392194
v -0.1453571 0.131073 0.08392194
v 0.187155 0.237133 2.887646E-15
v -0.0935775 0.242933 0.162081
v -0.187155 0.1236792 2.789651E-09

vn 0.4466018 -0.4496523 0.773537
vn -0.4466018 0.4496523 -0.773537
vn -0.4566159 -0.4074406 -0.7908818
vn 0.4566159 0.4074406 0.7908818
vn 0.05006309 -0.9949747 -0.08671181
vn -0.05006309 0.9949747 0.08671181
vn -0.160054 -0.9473811 -0.2772216
vn 0.160054 0.9473811 0.2772216
vn -0.4789424 -0.2871528 -0.8295525
vn 0.4789424 0.2871528 0.8295525
vn 0.05006308 -0.9949747 0.08671179
vn -0.05006308 0.9949747 -0.08671179
vn 0.4001496 -0.599601 -0.6930794
vn -0.4001496 0.599601 0.6930794
vn 0.9578848 -0.2871528 0
vn -0.9578848 0.2871528 0
vn 0.9132317 -0.4074408 0
vn -0.9132317 0.4074408 0
vn -0.4566159 -0.4074406 0.7908818
vn 0.4566159 0.4074406 -0.7908818
vn 0.4466019 -0.4496522 -0.7735372
vn -0.4466019 0.4496522 0.7735372
vn -0.8932037 -0.4496522 0
vn 0.8932037 0.4496522 0
vn -0.800299 -0.5996011 0
vn 0.800299 0.5996011 0
vn 0.377187 -0.9261372 0
vn -0.377187 0.9261372 0
vn -0.2396213 -0.8776826 0.4150362
vn 0.2396213 0.8776826 -0.4150362
vn -0.4789424 -0.2871528 0.8295525
vn 0.4789424 0.2871528 -0.8295525
vn 0.4001496 -0.599601 0.6930794
vn -0.4001496 0.599601 -0.6930794
vn 0.1741897 -0.9847121 0
vn -0.1741897 0.9847121 0

vt -1.418031 1.104392
vt -2.127047 3.835505
vt 1.418031 1.104392
vt 2.127047 3.835505
vt 2.127047 5.24216
vt -2.127047 5.24216
vt 3.304014 10.2455
vt -3.304014 10.2455
vt -3.304014 6.210648
vt 5.31474E-07 7.864547
vt 3.304014 6.210648
vt -3.304014 8.195571
vt -2.348533E-07 9.932557
vt 3.304014 8.195571
vt -1.418031 0.7052768
vt -2.127047 4.981924
vt 1.418031 0.7052767
vt 2.127047 4.981924
vt -2.348529E-07 7.864548
vt 3.304014 6.210648
vt -3.304014 6.210648
vt 2.127047 4.161304
vt -2.127047 4.161304
vt 3.304014 7.561175
vt -3.304014 7.561175
vt 2.127047 4.981924
vt 1.418031 0.7052767
vt -2.127047 4.981924
vt -1.418031 0.7052767
vt 3.304013 10.24551
vt 2.127047 5.24216
vt -3.304013 10.24551
vt -2.127047 5.24216
vt 3.304014 10.2455
vt -3.304014 10.2455
vt 1.418032 1.104392
vt -1.418031 1.104392
vt 2.127047 3.835505
vt -2.127047 3.835505
vt -2.127047 3.835505
vt 2.127047 3.835505
vt -1.418031 1.104392
vt 1.418031 1.104392
vt -3.304013 7.561176
vt 3.304013 7.561176
vt -2.127047 4.161304
vt 2.127047 4.161304
vt -3.304013 8.568631
vt -1.137318E-13 10.34546
vt 3.304013 8.568631
vt 2.348533E-07 11.05065
vt 3.304014 9.175726
vt -3.304014 9.175726
vt -1.418031 0.7052767
vt -2.127047 4.981924
vt 1.418031 0.7052768
vt 2.127047 4.981924
vt 2.127047 4.161304
vt -2.127047 4.161304
vt 3.304014 7.561175
vt -3.304014 7.561175
vt -3.304013 -4.736351
vt 3.304013 -4.736351
vt -1.098288E-07 -6.407486

usemtl grass

f 3/3/1 2/2/1 1/1/1
f 2/2/1 3/3/1 4/4/1
f 1/1/2 2/2/2 3/3/2
f 4/4/2 3/3/2 2/2/2
f 7/7/3 6/6/3 5/5/3
f 6/6/3 7/7/3 8/8/3
f 5/5/4 6/6/4 7/7/4
f 8/8/4 7/7/4 6/6/4
f 11/11/5 10/10/5 9/9/5
f 9/9/6 10/10/6 11/11/6
f 7/14/7 12/13/7 8/12/7
f 8/12/8 12/13/8 7/14/8
f 14/17/9 6/16/9 13/15/9
f 6/16/9 14/17/9 5/18/9
f 13/15/10 6/16/10 14/17/10
f 5/18/10 14/17/10 6/16/10
f 17/21/11 16/20/11 15/19/11
f 15/19/12 16/20/12 17/21/12
f 11/24/13 19/23/13 18/22/13
f 19/23/13 11/24/13 9/25/13
f 18/22/14 19/23/14 11/24/14
f 9/25/14 11/24/14 19/23/14
f 22/28/15 21/27/15 20/26/15
f 21/27/15 22/28/15 3/29/15
f 20/26/16 21/27/16 22/28/16
f 3/29/16 22/28/16 21/27/16
f 24/32/17 20/31/17 23/30/17
f 20/31/17 24/32/17 22/6/17
f 23/30/18 20/31/18 24/32/18
f 22/6/18 24/32/18 20/31/18
f 27/34/19 26/33/19 25/31/19
f 26/33/19 27/34/19 28/35/19
f 25/31/20 26/33/20 27/34/20
f 28/35/20 27/34/20 26/33/20
f 18/38/21 21/37/21 13/36/21
f 21/37/21 18/38/21 19/39/21
f 13/36/22 21/37/22 18/38/22
f 19/39/22 18/38/22 21/37/22
f 14/42/23 30/41/23 29/40/23
f 30/41/23 14/42/23 31/43/23
f 29/40/24 30/41/24 14/42/24
f 31/43/24 14/42/24 30/41/24
f 29/46/25 33/45/25 32/44/25
f 33/45/25 29/46/25 30/47/25
f 32/44/26 33/45/26 29/46/26
f 30/47/26 29/46/26 33/45/26
f 23/50/27 34/49/27 24/48/27
f 24/48/28 34/49/28 23/50/28
f 28/53/29 27/52/29 35/51/29
f 35/51/30 27/52/30 28/53/30
f 1/56/31 26/55/31 31/54/31
f 26/55/31 1/56/31 25/57/31
f 31/54/32 26/55/32 1/56/32
f 25/57/32 1/56/32 26/55/32
f 16/60/33 2/59/33 4/58/33
f 2/59/33 16/60/33 17/61/33
f 4/58/34 2/59/34 16/60/34
f 17/61/34 16/60/34 2/59/34
f 36/64/35 32/63/35 33/62/35
f 33/62/36 32/63/36 36/64/36

