# Created by Kenney (www.kenney.nl)

mtllib plant_bush.mtl

g plant_bush

v 0.072 0.1564439 0.1401439
v 3.465175E-14 0.1486723 0.198
v -0.072 0.1564439 0.1401439
v 0.072 0.1564439 -0.1401439
v 0.072 0.1176272 -0.07364988
v -0.072 0.1564439 -0.1401439
v -0.072 0.1176272 -0.07364988
v 0 0 0
v 0.072 0.1176272 0.07364988
v -0.072 0.1176272 0.07364988
v 0.1401439 0.2444436 -0.072
v 0.1401439 0.2444436 0.072
v 0.07364988 0.1837925 -0.072
v 0.07364988 0.1837925 0.072
v -0.1401439 0.2444436 -0.072
v -0.1401439 0.2444436 0.072
v -0.198 0.2323006 0
v -0.07364988 0.1837925 -0.072
v -0.07364988 0.1837925 0.072
v 0.198 0.2323006 -1.443823E-14
v -2.021352E-14 0.1486723 -0.198

vn 0 0.9910985 0.1331304
vn 0 -0.9910985 -0.1331304
vn 0 0.8636174 0.5041479
vn 0 -0.8636174 -0.5041479
vn 0 0.5306873 0.8475677
vn 0 -0.5306873 -0.8475677
vn 0 0.8636174 -0.5041479
vn 0 -0.8636174 0.5041479
vn -0.6739007 0.7388219 0
vn 0.6739007 -0.7388219 0
vn 0 0.5306873 -0.8475677
vn 0 -0.5306873 0.8475677
vn -0.2054066 0.9786767 0
vn 0.2054066 -0.9786767 0
vn 0.6739007 0.7388219 0
vn -0.6739007 -0.7388219 0
vn 0.9282451 0.3719692 0
vn -0.9282451 -0.3719692 0
vn 0.2054066 0.9786767 0
vn -0.2054066 -0.9786767 0
vn 0 0.9910985 -0.1331304
vn 0 -0.9910985 0.1331304
vn -0.9282451 0.3719692 0
vn 0.9282451 -0.3719692 0

vt 2.834646 -4.648383
vt 1.364225E-12 -6.946641
vt -2.834646 -4.648383
vt 2.834646 7.87014
vt 2.834646 4.838851
vt -2.834646 7.87014
vt -2.834646 4.838851
vt 2.834646 5.463861
vt 0 0
vt -2.834646 5.463861
vt -2.834646 10.56189
vt 2.834646 10.56189
vt -2.834646 7.018585
vt 2.834646 7.018585
vt -2.834646 -3.42304
vt 2.834646 -3.42304
vt 9.212949E-17 -5.750469
vt 2.834646 7.795275
vt -2.834646 7.795275
vt 5.68414E-13 -5.750469
vt 7.956154E-13 -6.946641

usemtl grass

f 3/3/1 2/2/1 1/1/1
f 1/1/2 2/2/2 3/3/2
f 6/6/3 5/5/3 4/4/3
f 5/5/3 6/6/3 7/7/3
f 4/4/4 5/5/4 6/6/4
f 7/7/4 6/6/4 5/5/4
f 7/10/5 8/9/5 5/8/5
f 5/8/6 8/9/6 7/10/6
f 10/5/7 1/6/7 9/7/7
f 1/6/7 10/5/7 3/4/7
f 9/7/8 1/6/8 10/5/8
f 3/4/8 10/5/8 1/6/8
f 13/13/9 12/12/9 11/11/9
f 12/12/9 13/13/9 14/14/9
f 11/11/10 12/12/10 13/13/10
f 14/14/10 13/13/10 12/12/10
f 9/10/11 8/9/11 10/8/11
f 10/8/12 8/9/12 9/10/12
f 17/17/13 16/16/13 15/15/13
f 15/15/14 16/16/14 17/17/14
f 15/12/15 19/13/15 18/14/15
f 19/13/15 15/12/15 16/11/15
f 18/14/16 19/13/16 15/12/16
f 16/11/16 15/12/16 19/13/16
f 19/19/17 8/9/17 18/18/17
f 18/18/18 8/9/18 19/19/18
f 12/15/19 20/20/19 11/16/19
f 11/16/20 20/20/20 12/15/20
f 6/1/21 4/3/21 21/21/21
f 21/21/22 4/3/22 6/1/22
f 14/18/23 13/19/23 8/9/23
f 8/9/24 13/19/24 14/18/24

