# Created by Kenney (www.kenney.nl)

mtllib plant_bushLargeTriangle.mtl

g plant_bushLargeTriangle

v 0.2510092 0.08758819 -0.036
v 0.2510092 0.08758819 0.036
v 0.1674458 0.1693275 -0.072
v 0.1674458 0.1693275 0.072
v 0.02078461 0 -0.036
v 0.1207846 0.05 -7.219114E-16
v 0.02078461 0 0.036
v 0.07305761 0.1020048 -0.072
v 0.07305761 0.1020048 0.072
v -0.04156922 0 7.219114E-16
v -0.09888263 0.1020048 0.02726975
v 0.02582502 0.1020048 0.09926975
v -0.06039231 0.05 0.1046025
v -0.02136908 0.1693275 0.1810123
v -0.1460767 0.1693275 0.1090123
v -0.09432769 0.08758819 0.2353804
v -0.1566815 0.08758819 0.1993804
v -0.06039231 0.05 -0.1046025
v 0.02582502 0.1020048 -0.09926975
v -0.09888263 0.1020048 -0.02726975
v -0.02136908 0.1693275 -0.1810123
v -0.1460767 0.1693275 -0.1090123
v -0.09432769 0.08758819 -0.2353804
v -0.1566815 0.08758819 -0.1993804

vn 0.6992615 0.7148659 0
vn -0.6992615 -0.7148659 0
vn -0.4472136 0.8944272 0
vn -0.8899491 0.4560599 0
vn 0.8899491 -0.4560599 0
vn -0.5806815 0.8141308 0
vn 0.5806815 -0.8141308 0
vn 0.4449746 0.4560599 -0.7707185
vn -0.4449746 -0.4560599 0.7707185
vn 0.2236068 0.8944272 -0.3872983
vn 0.2903408 0.8141308 -0.5028849
vn -0.2903408 -0.8141308 0.5028849
vn -0.3496307 0.7148659 0.6055782
vn 0.3496307 -0.7148659 -0.6055782
vn 0.2236068 0.8944272 0.3872983
vn 0.4449746 0.4560599 0.7707185
vn -0.4449746 -0.4560599 -0.7707185
vn 0.2903408 0.8141308 0.5028849
vn -0.2903408 -0.8141308 -0.5028849
vn -0.3496307 0.7148659 -0.6055782
vn 0.3496307 -0.7148659 0.6055782

vt 1.417323 -4.653184
vt -1.417323 -4.653184
vt 2.834646 -0.05106561
vt -2.834646 -0.05106561
vt -1.417323 0.7319024
vt -2.842171E-14 5.133611
vt 1.417323 0.7319024
vt -2.834646 4.885739
vt 2.834646 4.885739
vt -1.417323 0.37319
vt 1.417323 0.37319
vt -2.834646 9.238117
vt 2.834646 9.238117
vt -2.834646 4.673653
vt 2.834646 4.673653
vt -9.311996E-15 5.133611
vt -3.108624E-14 5.133611

usemtl grass

f 3/3/1 2/2/1 1/1/1
f 2/2/1 3/3/1 4/4/1
f 1/1/2 2/2/2 3/3/2
f 4/4/2 3/3/2 2/2/2
f 7/7/3 6/6/3 5/5/3
f 5/10/4 9/9/4 8/8/4
f 9/9/4 5/10/4 7/11/4
f 8/8/5 9/9/5 5/10/5
f 7/11/5 5/10/5 9/9/5
f 8/14/6 4/13/6 3/12/6
f 4/13/6 8/14/6 9/15/6
f 3/12/7 4/13/7 8/14/7
f 9/15/7 8/14/7 4/13/7
f 11/9/8 7/10/8 10/11/8
f 7/10/8 11/9/8 12/8/8
f 10/11/9 7/10/9 11/9/9
f 12/8/9 11/9/9 7/10/9
f 13/16/10 7/5/10 10/7/10
f 11/15/11 14/12/11 12/14/11
f 14/12/11 11/15/11 15/13/11
f 12/14/12 14/12/12 11/15/12
f 15/13/12 11/15/12 14/12/12
f 15/4/13 16/1/13 14/3/13
f 16/1/13 15/4/13 17/2/13
f 14/3/14 16/1/14 15/4/14
f 17/2/14 15/4/14 16/1/14
f 18/17/15 10/5/15 5/7/15
f 19/9/16 10/10/16 5/11/16
f 10/10/16 19/9/16 20/8/16
f 5/11/17 10/10/17 19/9/17
f 20/8/17 19/9/17 10/10/17
f 21/13/18 20/14/18 19/15/18
f 20/14/18 21/13/18 22/12/18
f 19/15/19 20/14/19 21/13/19
f 22/12/19 21/13/19 20/14/19
f 23/2/20 22/3/20 21/4/20
f 22/3/20 23/2/20 24/1/20
f 21/4/21 22/3/21 23/2/21
f 24/1/21 23/2/21 22/3/21

