# Created by Kenney (www.kenney.nl)

mtllib platform_stone.mtl

g platform_stone

v -0.3392105 0.04125 0.1753158
v -0.3545355 0.04125 0.2018595
v -0.3596033 0 0.1804385
v -0.3719708 0 0.2018595
v -0.1848155 0.04125 -0.2072895
v -0.1721609 0.04125 -0.1853712
v -0.2022507 0 -0.2072895
v -0.1949447 0 -0.1946351
v 0.26242 0 0.265152
v 0.21117 0 0.3539196
v 0.234745 0.04125 0.265152
v 0.1973325 0.04125 0.3299523
v 0.1329334 0 -0.37
v 0.2866834 0 -0.37
v 0.1536896 0.04125 -0.3340491
v 0.2763053 0.020625 -0.3520246
v 0.1946263 0.04125 -0.3340491
v 0.08509503 0.04125 0.265152
v 0.1225075 0.04125 0.3299523
v 0.05742003 0 0.265152
v 0.10867 0 0.3539196
v -0.1053882 0 -0.2632131
v -0.07310071 0 -0.2072895
v -0.1141058 0.04125 -0.2481137
v -0.09053596 0.04125 -0.2072895
v 0.4032106 0 0.05205223
v 0.445 0 0.1244336
v 0.3824151 0.04125 0.06396799
v 0.417325 0.04125 0.1244336
v -0.3309656 0.04125 0.2426837
v -0.3396833 0 0.2577831
v -0.3505659 0.04125 -0.1738726
v -0.3685489 0.04125 -0.1427251
v -0.3713221 0 -0.2098235
v -0.4274409 0.020625 -0.0766721
v -0.4481971 0 -0.0766721
v 0.39375 0 0.2132013
v 0.3241451 0 0.2132013
v 0.3799125 0.04125 0.189234
v 0.3240668 0.04125 0.189234
v 0.09495723 0.04125 0.2480702
v 0.06380327 0 0.2540959
v 0.224202 0.04125 0.246891
v 0.255356 0 0.2529167
v -0.2175721 0 -0.2098235
v -0.2383284 0.04125 -0.1738726
v -0.2751083 0 0.2577831
v -0.2838259 0.04125 0.2426837
v 0.3635584 0 -0.2368486
v 0.3220459 0.04125 -0.2368486
v 0.2992903 0.04125 -0.2762624
v -0.1699632 0 -0.2632131
v -0.1612456 0.04125 -0.2481137
v 0.1148373 0.04125 -0.2069423
v 0.0733052 0 -0.2069762
v 0.09757089 0.04125 -0.2368486
v 0.05605839 0 -0.2368486
v 0.3206866 0 -0.1625924
v 0.4032106 0 -0.1149472
v -0.009639235 0 -0.1590882
v 0.03890492 0 0.2397209
v -0.09833159 0 0.3379725
v -0.08198305 0 -0.1919049
v -0.2047501 0 -0.1876151
v -0.3718468 0 0.05557059
v -0.1062473 0.04125 -0.1800766
v 0.2791545 0.04125 -0.1625585
v -0.2236744 0.04125 -0.1484912
v -0.2784774 0.04125 0.2334198
v -0.3612991 0.04125 -0.04996151
v -0.3394313 0.0825 -0.04004185
v -0.3551693 0.04125 0.01255501
v -0.3206221 0.0825 0.1517889
v -0.3263128 0.061875 0.2003032
v -0.3360752 0.04125 0.2072923
v -0.1499511 0.061875 -0.1884841
v -0.1960049 0.0825 -0.1427251
v -0.1511227 0.04125 -0.200433
v 0.1585584 0.04125 0.2847903
v 0.1585584 0.061875 0.2727841
v 0.03648786 0.0825 0.1903003
v 0.1303037 0.0825 0.244465
v -0.007354921 0.0825 -0.1123821
v 0.1585584 0.04125 -0.2321847
v 0.1585584 0.0825 -0.2081722
v -0.09588648 0.0825 -0.1525418
v 0.3824151 0.04125 0.1555466
v 0.3616197 0.0825 0.1435403
v 0.1868131 0.0825 0.244465
v 0.3824151 0.04125 -0.1029409
v 0.2992903 0.0825 -0.1269206
v -0.09968155 0.02376472 0.3242046
v -0.0585541 0.0825 0.2583437
v -0.2234975 0.0825 0.2355248
v -0.2785529 0.0825 0.2105506
v 0.3616197 0.0825 -0.01896289
v 0.3616197 0.0825 0.03822969
v -0.3851008 0.04125 -0.03928792

vn -0.8132539 0.3437403 -0.4695324
vn -0.8132539 0.3437403 0.4695324
vn 0.7488059 0.5023807 0.4323233
vn 0 0.6570245 -0.7538692
vn -0.7488059 0.5023807 0.4323233
vn 0.8132539 0.3437403 -0.4695324
vn 0.7488059 0.5023807 -0.4323233
vn -0.6528699 0.6570245 -0.3769346
vn 0 0.5023807 0.8646466
vn -0.7488059 0.5023807 -0.4323233
vn 0 0.3437403 0.9390647
vn 0.6528699 0.6570245 -0.3769346
vn 0 0.3437403 -0.9390647
vn -0.6528699 0.6570245 0.3769346
vn 0 -1 0
vn 0.8132539 0.3437403 0.4695324
vn 0.6528699 0.6570245 0.3769346
vn -0.8886849 0.4501627 0.08713636
vn -0.5198047 0.4501627 -0.7260555
vn -0.4464732 0.4501627 0.7733144
vn -0.4464732 0.4501627 -0.7733144
vn 0.3688802 0.4501627 -0.8131918
vn 0.4464732 0.4501627 0.7733144
vn 0.4464732 0.4501627 -0.7733144
vn 0.5198047 0.4501627 0.7260555
vn -0.3688802 0.4501627 0.8131918
vn 0.8929466 0.4501628 0
vn 0.4906372 0.8240349 -0.2832696
vn 0.1691324 0.9367782 -0.3063347
vn -0.04381321 0.8935396 -0.4468415
vn -0.3917876 0.9179173 -0.0626936
vn 0 0.808338 0.5887187
vn -0.08744164 0.7699694 0.6320611
vn -0.4321812 0.8470442 0.3094114
vn 0 1 0

vt 12.65485 -1.264207
vt 13.86154 -1.264207
vt 13.23094 -2.993604
vt 14.20476 -2.993604
vt -10.70574 0.7616532
vt -9.709315 0.7616532
vt -11.04895 -0.9677438
vt -10.47367 -0.9677438
vt -3.874738 -7.11716
vt -7.910172 -7.11716
vt -4.419522 -5.238918
vt -7.365388 -5.238918
vt -5.233598 -9.570829
vt -11.28675 -9.570829
vt -6.050773 -7.416589
vt -10.87816 -8.49371
vt -7.662455 -7.416589
vt 10.71559 0.2395953
vt 13.66145 0.2395953
vt 10.1708 -1.638647
vt 14.20624 -1.638647
vt 11.04895 -0.5458933
vt 8.506628 -0.5458933
vt 10.70574 1.183504
vt 8.849841 1.183504
vt -9.711963 -6.391795
vt -13.00247 -6.391795
vt -9.708877 -4.513553
vt -12.45769 -4.513553
vt -0.09654747 -3.995988
vt 1.759348 -3.995988
vt -0.439761 -5.725385
vt 2.102562 -5.725385
vt 0.9726306 -8.877722
vt 2.388618 -8.877722
vt 0.1554554 -11.03196
vt 5.800017 -9.954843
vt 6.208605 -11.03196
vt 15.50197 -4.216858
vt 12.76162 -4.216858
vt 14.95718 -2.338616
vt 12.75853 -2.338616
vt 6.588837 5.483975
vt 7.365388 5.483975
vt 7.407555 3.605732
vt 7.910172 3.605732
vt -12.83129 0.005461927
vt -13.65001 -1.87278
vt -13.66145 0.005461927
vt -14.20624 -1.87278
vt 14.61898 -5.427527
vt 8.565831 -5.427527
vt 13.80181 -3.273286
vt 9.383006 -3.273286
vt -10.83103 -3.4886
vt -13.37336 -3.4886
vt -11.17425 -1.759203
vt -13.03014 -1.759203
vt 0.9188072 -11.20757
vt 1.735982 -9.053332
vt 6.971957 -11.20757
vt 3.527762 -9.053332
vt 6.563369 -10.13045
vt -5.628647 -3.77301
vt -5.285434 -2.043613
vt -3.086324 -3.77301
vt -3.429538 -2.043613
vt 6.691465 -3.562084
vt 4.149142 -3.562084
vt 6.348251 -1.832687
vt 4.492356 -1.832687
vt -4.795222 6.473331
vt -5.61394 4.31909
vt -6.154782 6.473331
vt -6.971957 4.31909
vt 10.3315 10.43906
vt 10.05338 9.957351
vt 8.313781 13.93384
vt 5.233598 -14.56693
vt 11.28675 -14.56693
vt 12.62546 -6.401277
vt 12.76162 8.39375
vt 15.50197 8.39375
vt 15.87443 -4.52548
vt 15.87443 2.0493
vt 17.51969 4.898962
vt 4.278348 13.93384
vt 2.886032 -8.148671
vt 2.207023 -9.324748
vt 14.31332 -9.324748
vt 2.51194 10.00378
vt 2.260631 10.43906
vt -0.3794974 -6.263317
vt 1.53169 9.437829
vt -3.871322 13.30601
vt -3.227679 -7.555309
vt -4.149142 -10.36272
vt -2.877981 -8.161005
vt -10.83103 10.14894
vt -6.691465 -10.36272
vt -7.674987 -7.662798
vt -8.061027 -7.386421
vt -8.565831 -8.260768
vt -14.61898 -8.260768
vt -13.37336 10.14894
vt -14.15761 7.103878
vt -14.64452 7.947225
vt -14.63964 2.187819
vt -17.64556 -3.018587
vt -7.962626 -8.161005
vt 8.313781 -7.000093
vt 4.278347 -7.000093
vt 7.768997 -5.121851
vt 4.823131 -5.121851
vt -14.41495 0.3467429
vt -9.996156 0.3467429
vt -15.23213 -1.807498
vt -9.17898 -1.807498
vt 5.628647 2.259373
vt 4.92925 2.259373
vt 5.285434 3.98877
vt 4.048318 3.98877
vt 15.23213 -5.080986
vt 11.8564 -5.080986
vt 14.41495 -2.926745
vt 11.03768 -2.926745
vt 4.517216 -8.852939
vt 0.4817833 -8.852939
vt 3.972433 -6.974697
vt 1.026567 -6.974697
vt 10.42734 2.160194
vt 9.465918 4.314435
vt 11.43695 2.160194
vt 10.61978 4.314435
vt -13.86154 3.209364
vt -13.4404 3.209364
vt -14.20476 1.479967
vt -3.345657 -4.836157
vt -2.87297 -3.017442
vt -0.8725736 -4.836157
vt 4.715641 -3.017442
vt 0.7487984 -6.654873
vt 5.688433 -6.654873
vt 5.566059 -4.836157
vt 6.594673 -3.9268
vt 6.831016 -4.836157
vt 1.779846 -4.816027
vt 1.262808 -2.997311
vt 2.254621 -4.816027
vt 3.757074 -2.997311
vt 0.4804905 -2.087954
vt 9.948133 -1.178596
vt 10.42082 -2.997311
vt 3.003471 -1.178596
vt 0.244147 -2.997311
vt 11.01223 -1.515889
vt 8.120884 -1.515889
vt 10.77589 -0.6065315
vt 4.990141 0.3028263
vt 6.045397 -3.334605
vt 7.177291 -3.334605
vt 9.255073 0.3028263
vt -6.573712 -2.527186
vt -7.989101 -0.7084709
vt -2.803004 -2.527186
vt -1.961476 1.110245
vt -9.97669 -0.7084709
vt -9.504004 1.110245
vt 8.678141 -0.6783947
vt 6.738116 -0.6783947
vt 8.441797 0.230963
vt 2.091478 1.140321
vt 2.933006 -2.49711
vt 6.060526 -2.49711
vt 5.918817 1.140321
vt 9.97669 -4.32601
vt 7.324136 -4.32601
vt 9.504004 -2.507295
vt 2.784219 -4.32601
vt 0.03636085 -3.416653
vt 1.557179 -2.507295
vt -0.1999827 -4.32601
vt 3.727811 -6.144726
vt 6.855012 -6.144726
vt -0.8355611 -3.518592
vt -6.317938 -3.518592
vt -1.308248 -1.699877
vt -11.01223 -3.518592
vt -7.706012 -1.699877
vt -11.48492 -5.337307
vt -7.733327 -5.337307
vt -4.248559 -3.855886
vt -10.89351 -3.855886
vt -3.193303 -0.2184545
vt -10.62119 -2.808097
vt -7.795205 -0.2184545
vt 1.971219 -6.174802
vt -5.671074 -6.174802
vt 1.698898 -5.127014
vt -6.188112 -4.356087
vt -4.182644 -2.537371
vt -8.441797 -3.446729
vt -6.562765 -2.537371
vt -8.678141 -4.356087
vt 4.52548 -7.146077
vt -2.049301 -7.146077
vt 4.052793 -5.327362
vt 0.7465703 -3.508646
vt -1.505106 -3.508646
vt -2.518425 -5.327362
vt -5.651193 -3.508646
vt -6.12388 -5.327362
vt -4.018035 -11.49404
vt -6.471949 -8.627484
vt -1.564122 -8.627484
vt -2.824365 -16.00707
vt -5.058252 -13.68654
vt -0.3512892 -13.68654
vt 5.151285 -6.020007
vt 3.170999 -4.211463
vt 7.131571 -4.211463
vt -6.563453 -6.894436
vt -5.425112 -9.048676
vt -8.920266 -6.894436
vt -11.43695 -9.048676
vt -11.02836 -7.971557
vt -3.255828 -13.3221
vt 0.8683097 -13.3221
vt -0.3216286 -15.36864
vt 7.354845 -5.867758
vt 6.242456 -7.247038
vt 5.130069 -5.867758
vt -0.8897107 -5.928221
vt -2.138292 -9.552233
vt -7.445393 -5.928221
vt -2.489048 -9.914052
vt 0.3561719 -9.914052
vt -1.066438 -11.44175
vt -12.67897 -9.324748
vt -10.99033 -6.399941
vt -11.78308 -10.87647
vt -7.662454 -13.15154
vt -6.242456 -9.141129
vt -6.050773 -13.15154
vt -4.521153 -8.147335
vt -3.841374 -9.324748
vt -16.43012 4.898962
vt -15.05571 6.12388
vt -15.05571 2.518425
vt -14.95718 7.450157
vt -12.75853 7.450158
vt 8.806077 -5.846109
vt 14.22437 -1.966989
vt 9.383006 -6.845379
vt 13.80181 -6.845379
vt 14.5098 -5.619098
vt 15.16145 -1.546769
vt 13.98304 0.4942919
vt -9.24193 10.43906
vt -7.768997 12.99025
vt -8.826851 9.720117
vt -6.242456 11.21222
vt -4.823131 12.99025
vt -3.738474 9.766541
vt -3.350198 10.43906
vt -14.237 5.651193
vt -7.354845 9.624605
vt -14.237 1.505106
vt -14.237 -0.7465705
vt -11.78308 -4.996874
vt -6.242456 -8.195756
vt -5.130069 9.624605
vt 0.2895638 -4.424492
vt -1.43653 7.49214
vt 2.305279 10.17101
vt 3.775059 -6.005582
vt 8.799113 9.272632
vt 7.716728 -5.619098
vt 13.36344 -1.576451
vt 10.96665 8.289393
vt 12.62292 5.975943
vt 3.564408 -8.161005
vt 4.182965 -7.089632
vt 4.492356 -9.768257
vt 5.949714 -7.891064
vt 6.348251 -9.768257
vt 6.777988 -7.298078
vt 7.276199 -8.161005
vt 10.96368 9.189757
vt 11.17425 9.554478
vt 13.23131 8.161116
vt 13.03014 9.554478
vt 13.95809 7.947225
vt 13.35474 6.902195

usemtl stoneDark

f 3/3/1 2/2/1 1/1/1
f 2/2/1 3/3/1 4/4/1
f 7/7/2 6/6/2 5/5/2
f 6/6/2 7/7/2 8/8/2
f 11/11/3 10/10/3 9/9/3
f 10/10/3 11/11/3 12/12/3
f 15/15/4 14/14/4 13/13/4
f 14/14/4 15/15/4 16/16/4
f 16/16/4 15/15/4 17/17/4
f 20/20/5 19/19/5 18/18/5
f 19/19/5 20/20/5 21/21/5
f 24/24/6 23/23/6 22/22/6
f 23/23/6 24/24/6 25/25/6
f 28/28/7 27/27/7 26/26/7
f 27/27/7 28/28/7 29/29/7
f 4/32/2 30/31/2 2/30/2
f 30/31/2 4/32/2 31/33/2
f 34/36/8 33/35/8 32/34/8
f 33/35/8 34/36/8 35/37/8
f 35/37/8 34/36/8 36/38/8
f 39/41/9 38/40/9 37/39/9
f 38/40/9 39/41/9 40/42/9
f 42/45/10 18/44/10 41/43/10
f 18/44/10 42/45/10 20/46/10
f 11/49/7 44/48/7 43/47/7
f 44/48/7 11/49/7 9/50/7
f 32/53/4 45/52/4 34/51/4
f 45/52/4 32/53/4 46/54/4
f 48/57/11 31/56/11 47/55/11
f 31/56/11 48/57/11 30/58/11
f 14/61/12 50/60/12 49/59/12
f 50/60/12 14/61/12 51/62/12
f 51/62/12 14/61/12 16/63/12
f 7/66/1 53/65/1 52/64/1
f 53/65/1 7/66/1 5/67/1
f 53/70/13 22/69/13 52/68/13
f 22/69/13 53/70/13 24/71/13
f 56/74/14 55/73/14 54/72/14
f 55/73/14 56/74/14 57/75/14
f 10/78/15 44/77/15 9/76/15
f 13/79/15 44/77/15 10/78/15
f 14/80/15 44/77/15 13/79/15
f 58/81/15 44/77/15 14/80/15
f 58/81/15 38/82/15 44/77/15
f 58/81/15 37/83/15 38/82/15
f 59/84/15 37/83/15 58/81/15
f 26/85/15 37/83/15 59/84/15
f 37/83/15 26/85/15 27/86/15
f 13/79/15 10/78/15 21/87/15
f 13/79/15 21/87/15 55/88/15
f 13/79/15 55/88/15 57/89/15
f 14/80/15 49/90/15 58/81/15
f 21/87/15 42/91/15 55/88/15
f 42/91/15 21/87/15 20/92/15
f 42/91/15 60/93/15 55/88/15
f 60/93/15 42/91/15 61/94/15
f 60/93/15 61/94/15 62/95/15
f 60/93/15 62/95/15 63/96/15
f 22/97/15 63/96/15 62/95/15
f 63/96/15 22/97/15 23/98/15
f 22/97/15 62/95/15 47/99/15
f 22/97/15 47/99/15 52/100/15
f 52/100/15 47/99/15 8/101/15
f 8/101/15 47/99/15 64/102/15
f 64/102/15 47/99/15 45/103/15
f 45/103/15 47/99/15 34/104/15
f 34/104/15 47/99/15 31/105/15
f 34/104/15 31/105/15 3/106/15
f 4/107/15 3/106/15 31/105/15
f 34/104/15 3/106/15 65/108/15
f 34/104/15 65/108/15 36/109/15
f 7/110/15 52/100/15 8/101/15
f 12/113/9 21/112/9 10/111/9
f 21/112/9 12/113/9 19/114/9
f 13/117/8 56/116/8 15/115/8
f 56/116/8 13/117/8 57/118/8
f 25/121/16 63/120/16 23/119/16
f 63/120/16 25/121/16 66/122/16
f 50/125/17 58/124/17 49/123/17
f 58/124/17 50/125/17 67/126/17
f 29/129/3 37/128/3 27/127/3
f 37/128/3 29/129/3 39/130/3
f 45/133/12 68/132/12 64/131/12
f 68/132/12 45/133/12 46/134/12
f 47/137/16 69/136/16 48/135/16
f 72/140/18 71/139/18 70/138/18
f 71/139/18 72/140/18 73/141/18
f 73/141/18 72/140/18 65/142/18
f 73/141/18 65/142/18 3/143/18
f 73/141/18 3/143/18 1/144/18
f 1/144/18 74/145/18 73/141/18
f 74/145/18 1/144/18 75/146/18
f 64/149/19 6/148/19 8/147/19
f 6/148/19 64/149/19 68/150/19
f 76/151/19 6/148/19 68/150/19
f 68/150/19 71/152/19 76/151/19
f 71/152/19 68/150/19 70/153/19
f 76/151/19 71/152/19 77/154/19
f 6/148/19 76/151/19 78/155/19
f 80/158/20 41/157/20 79/156/20
f 81/159/20 41/157/20 80/158/20
f 61/160/20 41/157/20 81/159/20
f 41/157/20 61/160/20 42/161/20
f 81/159/20 80/158/20 82/162/20
f 60/165/21 54/164/21 55/163/21
f 54/164/21 60/165/21 83/166/21
f 54/164/21 83/166/21 84/167/21
f 84/167/21 83/166/21 85/168/21
f 76/171/22 66/170/22 78/169/22
f 83/172/22 66/170/22 76/171/22
f 60/173/22 66/170/22 83/172/22
f 66/170/22 60/173/22 63/174/22
f 83/172/22 76/171/22 86/175/22
f 88/178/23 40/177/23 87/176/23
f 40/177/23 88/178/23 43/179/23
f 43/179/23 88/178/23 80/180/23
f 80/180/23 88/178/23 89/181/23
f 80/180/23 79/182/23 43/179/23
f 44/183/23 40/177/23 43/179/23
f 40/177/23 44/183/23 38/184/23
f 85/187/24 67/186/24 84/185/24
f 67/186/24 85/187/24 90/188/24
f 90/188/24 85/187/24 91/189/24
f 59/190/24 67/186/24 90/188/24
f 67/186/24 59/190/24 58/191/24
f 81/194/25 62/193/25 61/192/25
f 62/193/25 81/194/25 92/195/25
f 92/195/25 81/194/25 93/196/25
f 92/199/26 47/198/26 62/197/26
f 47/198/26 92/199/26 69/200/26
f 69/200/26 92/199/26 94/201/26
f 69/200/26 94/201/26 74/202/26
f 74/202/26 94/201/26 95/203/26
f 74/202/26 75/204/26 69/200/26
f 90/207/27 26/206/27 59/205/27
f 26/206/27 90/207/27 96/208/27
f 26/206/27 96/208/27 97/209/27
f 26/206/27 97/209/27 28/210/27
f 28/210/27 97/209/27 88/211/27
f 28/210/27 88/211/27 87/212/27
f 91/215/28 96/214/28 90/213/28
f 17/218/29 51/217/29 16/216/29
f 77/221/30 86/220/30 76/219/30
f 98/224/14 65/223/14 72/222/14
f 65/223/14 98/224/14 36/225/14
f 36/225/14 98/224/14 35/226/14
f 35/229/31 98/228/31 33/227/31
f 82/232/32 80/231/32 89/230/32
f 94/235/33 92/234/33 93/233/33
f 74/238/34 95/237/34 73/236/34

usemtl stone

f 51/241/35 67/240/35 50/239/35
f 67/240/35 51/241/35 17/242/35
f 67/240/35 17/242/35 84/243/35
f 84/243/35 17/242/35 15/244/35
f 84/243/35 15/244/35 54/245/35
f 54/245/35 15/244/35 56/246/35
f 28/249/35 87/248/35 29/247/35
f 87/248/35 39/250/35 29/247/35
f 39/250/35 87/248/35 40/251/35
f 46/254/35 70/253/35 68/252/35
f 70/253/35 46/254/35 32/255/35
f 70/253/35 32/255/35 33/256/35
f 98/257/35 70/253/35 33/256/35
f 70/253/35 98/257/35 72/258/35
f 43/261/35 12/260/35 11/259/35
f 12/260/35 43/261/35 79/262/35
f 12/260/35 79/262/35 19/263/35
f 19/263/35 79/262/35 41/264/35
f 19/263/35 41/264/35 18/265/35
f 97/268/35 89/267/35 88/266/35
f 89/267/35 97/268/35 96/269/35
f 89/267/35 96/269/35 91/270/35
f 89/267/35 91/270/35 85/271/35
f 89/267/35 85/271/35 82/272/35
f 82/272/35 85/271/35 83/273/35
f 82/272/35 83/273/35 81/274/35
f 81/274/35 83/273/35 93/275/35
f 93/275/35 83/273/35 86/276/35
f 93/275/35 86/276/35 94/277/35
f 94/277/35 86/276/35 77/278/35
f 94/277/35 77/278/35 71/279/35
f 94/277/35 71/279/35 95/280/35
f 95/280/35 71/279/35 73/281/35
f 24/284/35 66/283/35 25/282/35
f 66/283/35 24/284/35 78/285/35
f 78/285/35 24/284/35 53/286/35
f 78/285/35 53/286/35 6/287/35
f 6/287/35 53/286/35 5/288/35
f 75/291/35 48/290/35 69/289/35
f 48/290/35 75/291/35 30/292/35
f 30/292/35 75/291/35 2/293/35
f 2/293/35 75/291/35 1/294/35

