# Created by Kenney (www.kenney.nl)

mtllib platform_grass.mtl

g platform_grass

v -0.3392105 0.04125 0.1753158
v -0.3545355 0.04125 0.2018595
v -0.3596033 0 0.1804385
v -0.3719708 0 0.2018595
v -0.1848155 0.04125 -0.2072895
v -0.1721609 0.04125 -0.1853712
v -0.2022507 0 -0.2072895
v -0.1949447 0 -0.1946351
v -0.3551693 0.04125 0.01255501
v -0.3718468 0 0.05557059
v -0.4066846 0.04125 -0.0766721
v -0.4481971 0 -0.0766721
v 0.26242 0 0.265152
v 0.21117 0 0.3539196
v 0.234745 0.04125 0.265152
v 0.1973325 0.04125 0.3299523
v 0.1329334 0 -0.37
v 0.2866834 0 -0.37
v 0.1536896 0.04125 -0.3340491
v 0.2659271 0.04125 -0.3340491
v 0.08509503 0.04125 0.265152
v 0.1225075 0.04125 0.3299523
v 0.05742003 0 0.265152
v 0.10867 0 0.3539196
v -0.1053882 0 -0.2632131
v -0.07310071 0 -0.2072895
v -0.1141058 0.04125 -0.2481137
v -0.09053596 0.04125 -0.2072895
v 0.4032106 0 0.05205223
v 0.445 0 0.1244336
v 0.3824151 0.04125 0.06396799
v 0.417325 0.04125 0.1244336
v -0.3309656 0.04125 0.2426837
v -0.3396833 0 0.2577831
v 0.4032106 0 -0.1149472
v 0.3616197 0.0825 -0.09093469
v 0.3616197 0.0825 0.03822969
v 0.3616197 0.0825 0.1435403
v 0.3824151 0.04125 0.1555466
v -0.3505659 0.04125 -0.1738726
v -0.3713221 0 -0.2098235
v 0.1585584 0.04125 0.2847903
v 0.09495723 0.04125 0.2480702
v 0.1585584 0.0825 0.2607778
v 0.03648786 0.0825 0.1903003
v 0.03890492 0 0.2397209
v 0.06380327 0 0.2540959
v 0.39375 0 0.2132013
v 0.3241451 0 0.2132013
v 0.3799125 0.04125 0.189234
v 0.3240668 0.04125 0.189234
v 0.224202 0.04125 0.246891
v 0.255356 0 0.2529167
v -0.09833159 0 0.3379725
v -0.103018 0.0825 0.2901767
v 0.3116197 0.0825 0.1146728
v 0.3116197 0.0825 -0.06206718
v 0.1585584 0.0825 -0.2081722
v 0.3116197 0.0825 0.03822969
v 0.1585584 0.0825 -0.1504372
v -0.00460875 0.0825 -0.05623256
v -0.007354921 0.0825 -0.1123821
v -0.1431456 0.0825 -0.1190756
v -0.1487795 0.0825 -0.1765351
v -0.286853 0.0825 -0.01619125
v -0.3394313 0.0825 -0.04004185
v -0.3165506 0.0825 0.1933141
v 0.1585584 0.0825 0.2030428
v 0.0335821 0.0825 0.1308877
v -0.108652 0.0825 0.2327173
v -0.2696062 0.0825 0.1597052
v 0.1585584 0.04125 -0.2321847
v 0.2791545 0.04125 -0.1625585
v 0.3206866 0 -0.1625924
v -0.1511227 0.04125 -0.200433
v -0.1062473 0.04125 -0.1800766
v -0.009639235 0 -0.1590882
v -0.08198305 0 -0.1919049
v -0.2175721 0 -0.2098235
v -0.2383284 0.04125 -0.1738726
v -0.2751083 0 0.2577831
v -0.2838259 0.04125 0.2426837
v 0.3635584 0 -0.2368486
v 0.3220459 0.04125 -0.2368486
v -0.1699632 0 -0.2632131
v -0.1612456 0.04125 -0.2481137
v 0.1148373 0.04125 -0.2069423
v 0.0733052 0 -0.2069762
v 0.09757089 0.04125 -0.2368486
v 0.05605839 0 -0.2368486
v -0.2047501 0 -0.1876151
v -0.2784774 0.04125 0.2334198
v -0.3360752 0.04125 0.2072923
v -0.2236744 0.04125 -0.1484912
v -0.3612991 0.04125 -0.04996151

vn -0.8132539 0.3437403 -0.4695324
vn -0.8132539 0.3437403 0.4695324
vn -0.6528699 0.6570245 0.3769346
vn 0.7488059 0.5023807 0.4323233
vn 0 0.6570245 -0.7538692
vn -0.7488059 0.5023807 0.4323233
vn 0.8132539 0.3437403 -0.4695324
vn 0.7488059 0.5023807 -0.4323233
vn 0.8929466 0.4501628 0
vn -0.6528699 0.6570245 -0.3769346
vn -0.4464732 0.4501627 0.7733144
vn 0 0.5023807 0.8646466
vn -0.7488059 0.5023807 -0.4323233
vn 0.5198047 0.4501627 0.7260555
vn 0 1 0
vn 0.4464732 0.4501627 -0.7733144
vn 0.3688802 0.4501627 -0.8131918
vn 0 0.3437403 0.9390647
vn 0.6528699 0.6570245 -0.3769346
vn 0 0.3437403 -0.9390647
vn 0.4464732 0.4501627 0.7733144
vn 0 -1 0
vn 0.8132539 0.3437403 0.4695324
vn 0.6528699 0.6570245 0.3769346
vn -0.3688802 0.4501627 0.8131918
vn -0.4464732 0.4501627 -0.7733144
vn -0.8886849 0.4501627 0.08713636
vn -0.5198047 0.4501627 -0.7260555

vt 12.65485 -1.264207
vt 13.86154 -1.264207
vt 13.23094 -2.993604
vt 14.20476 -2.993604
vt -10.70574 0.7616532
vt -9.709315 0.7616532
vt -11.04895 -0.9677438
vt -10.47367 -0.9677438
vt -6.563453 -6.894436
vt -5.425112 -9.048676
vt -10.61978 -6.894436
vt -11.43695 -9.048676
vt -3.874738 -7.11716
vt -7.910172 -7.11716
vt -4.419522 -5.238918
vt -7.365388 -5.238918
vt -5.233598 -9.570829
vt -11.28675 -9.570829
vt -6.050773 -7.416589
vt -10.46957 -7.416589
vt 10.71559 0.2395953
vt 13.66145 0.2395953
vt 10.1708 -1.638647
vt 14.20624 -1.638647
vt 11.04895 -0.5458933
vt 8.506628 -0.5458933
vt 10.70574 1.183504
vt 8.849841 1.183504
vt -9.711963 -6.391795
vt -13.00247 -6.391795
vt -9.708877 -4.513553
vt -12.45769 -4.513553
vt -0.09654747 -3.995988
vt 1.759348 -3.995988
vt -0.439761 -5.725385
vt 2.102562 -5.725385
vt 4.52548 -7.146077
vt -2.049301 -7.146077
vt 3.580106 -3.508646
vt -1.505106 -3.508646
vt -2.518425 -5.327362
vt -5.651193 -3.508646
vt -6.12388 -5.327362
vt 0.9726306 -8.877722
vt 5.39143 -8.877722
vt 0.1554554 -11.03196
vt 6.208605 -11.03196
vt 11.01223 -1.515889
vt 8.120884 -1.515889
vt 10.53955 0.3028263
vt 4.990141 0.3028263
vt 6.045397 -3.334605
vt 7.177291 -3.334605
vt 15.50197 -4.216858
vt 12.76162 -4.216858
vt 14.95718 -2.338616
vt 12.75853 -2.338616
vt 6.588837 5.483975
vt 7.365388 5.483975
vt 7.407555 3.605732
vt 7.910172 3.605732
vt -12.83129 0.005461927
vt -13.65001 -1.87278
vt -13.66145 0.005461927
vt -14.20624 -1.87278
vt -4.248559 -3.855886
vt -10.89351 -3.855886
vt -3.193303 -0.2184545
vt -9.948133 -0.2184545
vt -12.26849 4.514677
vt -12.26849 -2.44359
vt -14.237 -3.580106
vt -6.242456 -8.195756
vt -12.26849 1.505106
vt -6.242456 -5.922723
vt 0.1814469 -2.213881
vt 0.2895638 -4.424492
vt 5.635653 -4.688018
vt 5.857461 -6.950202
vt 11.29342 -0.6374508
vt 13.36344 -1.576451
vt 12.46262 7.610791
vt -14.237 1.505106
vt -14.237 5.651193
vt -6.242456 10.26684
vt -6.242456 7.99381
vt -1.43653 7.49214
vt -1.32213 5.153059
vt 4.055827 11.42428
vt 4.277637 9.162097
vt 10.61442 6.287607
vt -0.8355611 -3.518592
vt -6.317938 -3.518592
vt -1.308248 -1.699877
vt -10.53955 -1.699877
vt -11.48492 -5.337307
vt -7.733327 -5.337307
vt 8.678141 -0.6783947
vt 6.738116 -0.6783947
vt 8.205454 1.140321
vt 2.091478 1.140321
vt 2.933006 -2.49711
vt 6.060526 -2.49711
vt 14.61898 -5.427527
vt 8.565831 -5.427527
vt 13.80181 -3.273286
vt 9.383006 -3.273286
vt -10.83103 -3.4886
vt -13.37336 -3.4886
vt -11.17425 -1.759203
vt -13.03014 -1.759203
vt 0.9188072 -11.20757
vt 1.735982 -9.053332
vt 6.971957 -11.20757
vt 6.154782 -9.053332
vt -5.628647 -3.77301
vt -5.285434 -2.043613
vt -3.086324 -3.77301
vt -3.429538 -2.043613
vt 6.691465 -3.562084
vt 4.149142 -3.562084
vt 6.348251 -1.832687
vt 4.492356 -1.832687
vt -4.795222 6.473331
vt -5.61394 4.31909
vt -6.154782 6.473331
vt -6.971957 4.31909
vt 9.97669 -4.32601
vt 7.324136 -4.32601
vt 9.504004 -2.507295
vt 2.784219 -4.32601
vt 0.2727044 -2.507295
vt -0.1999827 -4.32601
vt 3.727811 -6.144726
vt 6.855012 -6.144726
vt 10.3315 10.43906
vt 10.05338 9.957351
vt 8.313781 13.93384
vt 5.233598 -14.56693
vt 11.28675 -14.56693
vt 12.62546 -6.401277
vt 12.76162 8.39375
vt 15.50197 8.39375
vt 15.87443 -4.52548
vt 15.87443 2.0493
vt 17.51969 4.898962
vt 4.278348 13.93384
vt 2.886032 -8.148671
vt 2.207023 -9.324748
vt 14.31332 -9.324748
vt 2.51194 10.00378
vt 2.260631 10.43906
vt -0.3794974 -6.263317
vt 1.53169 9.437829
vt -3.871322 13.30601
vt -3.227679 -7.555309
vt -4.149142 -10.36272
vt -2.877981 -8.161005
vt -10.83103 10.14894
vt -6.691465 -10.36272
vt -7.674987 -7.662798
vt -8.061027 -7.386421
vt -8.565831 -8.260768
vt -14.61898 -8.260768
vt -13.37336 10.14894
vt -14.15761 7.103878
vt -14.64452 7.947225
vt -14.63964 2.187819
vt -17.64556 -3.018587
vt -7.962626 -8.161005
vt 8.313781 -7.000093
vt 4.278347 -7.000093
vt 7.768997 -5.121851
vt 4.823131 -5.121851
vt -14.41495 0.3467429
vt -9.996156 0.3467429
vt -15.23213 -1.807498
vt -9.17898 -1.807498
vt 5.628647 2.259373
vt 4.92925 2.259373
vt 5.285434 3.98877
vt 4.048318 3.98877
vt 15.23213 -5.080986
vt 11.8564 -5.080986
vt 14.41495 -2.926745
vt 11.03768 -2.926745
vt 4.517216 -8.852939
vt 0.4817833 -8.852939
vt 3.972433 -6.974697
vt 1.026567 -6.974697
vt 1.971219 -6.174802
vt -5.671074 -6.174802
vt 1.025845 -2.537371
vt -6.188112 -4.356087
vt -8.205454 -2.537371
vt -8.678141 -4.356087
vt -6.573712 -2.527186
vt -7.989101 -0.7084709
vt -2.803004 -2.527186
vt -1.961476 1.110245
vt -9.97669 -0.7084709
vt -9.504004 1.110245
vt 10.42734 2.160194
vt 9.465918 4.314435
vt 11.43695 2.160194
vt 10.61978 4.314435
vt 0.7487984 -6.654873
vt 5.566059 -4.836157
vt 5.688433 -6.654873
vt 6.358329 -3.017442
vt -0.8725736 -4.836157
vt -2.87297 -3.017442
vt -3.345657 -4.836157
vt 6.831016 -4.836157
vt 1.779846 -4.816027
vt 1.262808 -2.997311
vt 2.254621 -4.816027
vt 3.757074 -2.997311
vt 0.716834 -1.178596
vt 0.244147 -2.997311
vt 9.948133 -1.178596
vt 10.42082 -2.997311
vt -13.86154 3.209364
vt -13.4404 3.209364
vt -14.20476 1.479967
vt -12.67897 -9.324748
vt -10.99033 -6.399941
vt -10.46957 -13.15154
vt -6.242456 -9.141129
vt -6.050773 -13.15154
vt -4.521153 -8.147335
vt -3.841374 -9.324748
vt -16.43012 4.898962
vt -15.05571 6.12388
vt -15.05571 2.518425
vt -14.95718 7.450157
vt -12.75853 7.450158
vt 8.806077 -5.846109
vt 14.22437 -1.966989
vt 9.383006 -6.845379
vt 13.80181 -6.845379
vt 16.01121 -3.018587
vt 13.98304 0.4942919
vt -9.24193 10.43906
vt -7.768997 12.99025
vt -8.826851 9.720117
vt -6.242456 11.21222
vt -4.823131 12.99025
vt -3.738474 9.766541
vt -3.350198 10.43906
vt 3.564408 -8.161005
vt 4.182965 -7.089632
vt 4.492356 -9.768257
vt 5.949714 -7.891064
vt 6.348251 -9.768257
vt 6.777988 -7.298078
vt 7.276199 -8.161005
vt 10.96368 9.189757
vt 11.17425 9.554478
vt 13.23131 8.161116
vt 13.03014 9.554478
vt 13.95809 7.947225
vt 13.35474 6.902195

usemtl dirt

f 3/3/1 2/2/1 1/1/1
f 2/2/1 3/3/1 4/4/1
f 7/7/2 6/6/2 5/5/2
f 6/6/2 7/7/2 8/8/2
f 11/11/3 10/10/3 9/9/3
f 10/10/3 11/11/3 12/12/3
f 15/15/4 14/14/4 13/13/4
f 14/14/4 15/15/4 16/16/4
f 19/19/5 18/18/5 17/17/5
f 18/18/5 19/19/5 20/20/5
f 23/23/6 22/22/6 21/21/6
f 22/22/6 23/23/6 24/24/6
f 27/27/7 26/26/7 25/25/7
f 26/26/7 27/27/7 28/28/7
f 31/31/8 30/30/8 29/29/8
f 30/30/8 31/31/8 32/32/8
f 4/35/2 33/34/2 2/33/2
f 33/34/2 4/35/2 34/36/2
f 36/39/9 29/38/9 35/37/9
f 29/38/9 36/39/9 37/40/9
f 29/38/9 37/40/9 31/41/9
f 31/41/9 37/40/9 38/42/9
f 31/41/9 38/42/9 39/43/9
f 41/46/10 11/45/10 40/44/10
f 11/45/10 41/46/10 12/47/10
f 44/50/11 43/49/11 42/48/11
f 45/51/11 43/49/11 44/50/11
f 46/52/11 43/49/11 45/51/11
f 43/49/11 46/52/11 47/53/11
f 50/56/12 49/55/12 48/54/12
f 49/55/12 50/56/12 51/57/12
f 47/60/13 21/59/13 43/58/13
f 21/59/13 47/60/13 23/61/13
f 15/64/8 53/63/8 52/62/8
f 53/63/8 15/64/8 13/65/8
f 45/68/14 54/67/14 46/66/14
f 54/67/14 45/68/14 55/69/14
f 36/72/15 57/71/15 56/70/15
f 57/71/15 36/72/15 58/73/15
f 56/70/15 57/71/15 59/74/15
f 57/71/15 58/73/15 60/75/15
f 60/75/15 58/73/15 61/76/15
f 61/76/15 58/73/15 62/77/15
f 61/76/15 62/77/15 63/78/15
f 63/78/15 62/77/15 64/79/15
f 63/78/15 64/79/15 65/80/15
f 65/80/15 64/79/15 66/81/15
f 65/80/15 66/81/15 67/82/15
f 56/70/15 37/83/15 36/72/15
f 56/70/15 38/84/15 37/83/15
f 38/84/15 56/70/15 44/85/15
f 44/85/15 56/70/15 68/86/15
f 44/85/15 68/86/15 45/87/15
f 45/87/15 68/86/15 69/88/15
f 45/87/15 69/88/15 55/89/15
f 55/89/15 69/88/15 70/90/15
f 55/89/15 70/90/15 67/82/15
f 67/82/15 70/90/15 71/91/15
f 67/82/15 71/91/15 65/80/15
f 58/94/16 73/93/16 72/92/16
f 36/95/16 73/93/16 58/94/16
f 35/96/16 73/93/16 36/95/16
f 73/93/16 35/96/16 74/97/16
f 64/100/17 76/99/17 75/98/17
f 62/101/17 76/99/17 64/100/17
f 77/102/17 76/99/17 62/101/17
f 76/99/17 77/102/17 78/103/17
f 40/106/5 79/105/5 41/104/5
f 79/105/5 40/106/5 80/107/5
f 82/110/18 34/109/18 81/108/18
f 34/109/18 82/110/18 33/111/18
f 18/114/19 84/113/19 83/112/19
f 84/113/19 18/114/19 20/115/19
f 7/118/1 86/117/1 85/116/1
f 86/117/1 7/118/1 5/119/1
f 86/122/20 25/121/20 85/120/20
f 25/121/20 86/122/20 27/123/20
f 89/126/3 88/125/3 87/124/3
f 88/125/3 89/126/3 90/127/3
f 38/130/21 51/129/21 39/128/21
f 51/129/21 38/130/21 52/131/21
f 44/132/21 52/131/21 38/130/21
f 52/131/21 44/132/21 42/133/21
f 53/134/21 51/129/21 52/131/21
f 51/129/21 53/134/21 49/135/21
f 14/138/22 53/137/22 13/136/22
f 17/139/22 53/137/22 14/138/22
f 18/140/22 53/137/22 17/139/22
f 74/141/22 53/137/22 18/140/22
f 74/141/22 49/142/22 53/137/22
f 74/141/22 48/143/22 49/142/22
f 35/144/22 48/143/22 74/141/22
f 29/145/22 48/143/22 35/144/22
f 48/143/22 29/145/22 30/146/22
f 17/139/22 14/138/22 24/147/22
f 17/139/22 24/147/22 88/148/22
f 17/139/22 88/148/22 90/149/22
f 18/140/22 83/150/22 74/141/22
f 24/147/22 47/151/22 88/148/22
f 47/151/22 24/147/22 23/152/22
f 47/151/22 77/153/22 88/148/22
f 77/153/22 47/151/22 46/154/22
f 77/153/22 46/154/22 54/155/22
f 77/153/22 54/155/22 78/156/22
f 25/157/22 78/156/22 54/155/22
f 78/156/22 25/157/22 26/158/22
f 25/157/22 54/155/22 81/159/22
f 25/157/22 81/159/22 85/160/22
f 85/160/22 81/159/22 8/161/22
f 8/161/22 81/159/22 91/162/22
f 91/162/22 81/159/22 79/163/22
f 79/163/22 81/159/22 41/164/22
f 41/164/22 81/159/22 34/165/22
f 41/164/22 34/165/22 3/166/22
f 4/167/22 3/166/22 34/165/22
f 41/164/22 3/166/22 10/168/22
f 41/164/22 10/168/22 12/169/22
f 7/170/22 85/160/22 8/161/22
f 16/173/12 24/172/12 14/171/12
f 24/172/12 16/173/12 22/174/12
f 17/177/10 89/176/10 19/175/10
f 89/176/10 17/177/10 90/178/10
f 28/181/23 78/180/23 26/179/23
f 78/180/23 28/181/23 76/182/23
f 84/185/24 74/184/24 83/183/24
f 74/184/24 84/185/24 73/186/24
f 32/189/4 48/188/4 30/187/4
f 48/188/4 32/189/4 50/190/4
f 55/193/25 81/192/25 54/191/25
f 81/192/25 55/193/25 92/194/25
f 67/195/25 92/194/25 55/193/25
f 92/194/25 67/195/25 93/196/25
f 77/199/26 87/198/26 88/197/26
f 87/198/26 77/199/26 62/200/26
f 87/198/26 62/200/26 72/201/26
f 72/201/26 62/200/26 58/202/26
f 79/205/19 94/204/19 91/203/19
f 94/204/19 79/205/19 80/206/19
f 3/209/27 1/208/27 10/207/27
f 67/210/27 10/207/27 1/208/27
f 67/210/27 9/211/27 10/207/27
f 66/212/27 9/211/27 67/210/27
f 9/211/27 66/212/27 95/213/27
f 67/210/27 1/208/27 93/214/27
f 91/217/28 6/216/28 8/215/28
f 6/216/28 91/217/28 94/218/28
f 64/219/28 6/216/28 94/218/28
f 6/216/28 64/219/28 75/220/28
f 64/219/28 94/218/28 66/221/28
f 66/221/28 94/218/28 95/222/28
f 81/225/23 92/224/23 82/223/23

usemtl grass

f 20/228/15 73/227/15 84/226/15
f 73/227/15 20/228/15 72/229/15
f 72/229/15 20/228/15 19/230/15
f 72/229/15 19/230/15 87/231/15
f 87/231/15 19/230/15 89/232/15
f 31/235/15 39/234/15 32/233/15
f 39/234/15 50/236/15 32/233/15
f 50/236/15 39/234/15 51/237/15
f 80/240/15 95/239/15 94/238/15
f 95/239/15 80/240/15 40/241/15
f 95/239/15 40/241/15 11/242/15
f 11/242/15 9/243/15 95/239/15
f 52/246/15 16/245/15 15/244/15
f 16/245/15 52/246/15 42/247/15
f 16/245/15 42/247/15 22/248/15
f 22/248/15 42/247/15 43/249/15
f 22/248/15 43/249/15 21/250/15
f 27/253/15 76/252/15 28/251/15
f 76/252/15 27/253/15 75/254/15
f 75/254/15 27/253/15 86/255/15
f 75/254/15 86/255/15 6/256/15
f 6/256/15 86/255/15 5/257/15
f 93/260/15 82/259/15 92/258/15
f 82/259/15 93/260/15 33/261/15
f 33/261/15 93/260/15 2/262/15
f 2/262/15 93/260/15 1/263/15
f 59/74/15 68/86/15 56/70/15
f 68/86/15 59/74/15 57/71/15
f 68/86/15 57/71/15 60/75/15
f 68/86/15 60/75/15 69/88/15
f 69/88/15 60/75/15 61/76/15
f 69/88/15 61/76/15 70/90/15
f 70/90/15 61/76/15 63/78/15
f 70/90/15 63/78/15 71/91/15
f 71/91/15 63/78/15 65/80/15

