# Created by Kenney (www.kenney.nl)

mtllib rock_smallC.mtl

g rock_smallC

v -0.07715433 0 -0.1804
v -0.04390514 0.122672 -0.07412005
v -0.1804 0 -0.03654009
v -0.06800272 0.122672 -0.04054309
v 0.1199971 0 -0.110238
v 0.05824369 0.122672 -0.03776743
v 0.006051608 0.122672 0.04851093
v 0 0 0.1804
v 0.1804 0 1.443823E-15
v 0.07030945 0.122672 -0.01574689

vn -0.6576385 0.5871549 -0.4719753
vn 0.2714007 0.5871549 -0.762621
vn -0.6223962 0.5871549 0.5175636
vn 0.572385 0.5871549 0.572385
vn 0 -1 0
vn 0.7098937 0.5871549 -0.3889732
vn 0 1 0

vt -3.999048 -3.880468
vt -1.362897 2.085879
vt 2.972385 -3.880468
vt 0.2642379 2.085879
vt 5.243033 -3.33083
vt -2.995706 -3.33083
vt 2.606883 2.635517
vt -1.661803 2.635518
vt -2.939089 3.300004
vt 1.62082 3.300005
vt -5.647237 -2.666342
vt 5.460929 -2.666343
vt 5.022129 -2.948767
vt -5.022128 -2.948767
vt 2.39571 3.01758
vt -1.182019 3.01758
vt 7.102362 5.684342E-14
vt 4.724297 -4.340077
vt 0 7.102362
vt -3.037572 -7.102362
vt -7.102362 -1.438586
vt 1.536019 -3.657174
vt -3.412866 -3.657173
vt 0.2021152 2.309174
vt -0.7864474 2.309173
vt -2.768089 -0.6199564
vt -0.2382523 1.909879
vt -2.293059 -1.486907
vt 1.728549 -2.918112
vt 2.677272 -1.596185

usemtl dirt

f 3/3/1 2/2/1 1/1/1
f 2/2/1 3/3/1 4/4/1
f 2/7/2 5/6/2 1/5/2
f 5/6/2 2/7/2 6/8/2
f 3/11/3 7/10/3 4/9/3
f 7/10/3 3/11/3 8/12/3
f 10/15/4 8/14/4 9/13/4
f 8/14/4 10/15/4 7/16/4
f 8/19/5 5/18/5 9/17/5
f 5/18/5 8/19/5 1/20/5
f 1/20/5 8/19/5 3/21/5
f 6/24/6 9/23/6 5/22/6
f 9/23/6 6/24/6 10/25/6

usemtl grass

f 6/28/7 7/27/7 10/26/7
f 7/27/7 6/28/7 2/29/7
f 7/27/7 2/29/7 4/30/7

