# Created by Kenney (www.kenney.nl)

mtllib rock_smallB.mtl

g rock_smallB

v 0.0848892 0.176792 0.03204944
v 0.0848892 0.176792 0.0848892
v -0.003548271 0.176792 -0.0848892
v 0.05748807 0.176792 0.0848892
v -0.0848892 0.176792 0.04375779
v -0.03276645 0.176792 -0.0848892
v -0.0848892 0.176792 0.02203913
v 0.1804 0 0
v 0.1804 0 0.1804
v 0.04396845 0 -0.1804
v 0.04396845 0 0.1804
v -0.09246308 0 -0.1804
v -0.1804 0 0.1155822
v -0.1804 0 0

vn 0 1 0
vn 0.8798157 0.475315 0
vn 0.7017342 0.475315 -0.5307022
vn 0 0.475315 0.8798157
vn 0 0.475315 -0.8798157
vn 0 -1 0
vn -0.7908595 0.475315 -0.3855085
vn -0.8798157 0.475315 0
vn -0.2441847 0.475315 0.8452511

vt -3.342094 1.261789
vt -3.342094 3.342094
vt 0.1396957 -3.342094
vt -2.26331 3.342094
vt 3.342094 1.722747
vt 1.290018 -3.342094
vt 3.342094 0.8676823
vt 2.703577E-16 -3.375859
vt -7.102362 -3.375859
vt -1.261789 4.535246
vt -3.342094 4.535246
vt 4.62063 -2.692559
vt -4.284123 -2.692559
vt 2.749893 5.218547
vt -3.022335 5.218547
vt 7.102362 -3.375859
vt 1.731042 -3.375859
vt 3.342094 4.535246
vt 2.26331 4.535246
vt 3.640279 -3.375859
vt -1.731042 -3.375859
vt 1.290018 4.535246
vt 0.1396957 4.535246
vt 7.102362 7.102362
vt 7.102362 0
vt 1.731042 7.102362
vt 1.731042 -7.102362
vt -7.102362 4.550479
vt -3.640279 -7.102362
vt -7.102362 0
vt -4.789199 -3.034534
vt -2.438936 4.876572
vt 3.11204 -3.034534
vt 2.244357 4.876572
vt 3.45364E-16 -3.375859
vt 0.8676823 4.535246
vt 4.550479 -3.375859
vt 1.722747 4.535246
vt 3.634231 -3.014877
vt -5.560394 -3.014878
vt 3.101961 4.896228
vt -2.732664 4.896229

usemtl grass

f 3/3/1 2/2/1 1/1/1
f 2/2/1 3/3/1 4/4/1
f 4/4/1 3/3/1 5/5/1
f 5/5/1 3/3/1 6/6/1
f 5/5/1 6/6/1 7/7/1

usemtl dirt

f 1/10/2 9/9/2 8/8/2
f 9/9/2 1/10/2 2/11/2
f 3/14/3 8/13/3 10/12/3
f 8/13/3 3/14/3 1/15/3
f 2/18/4 11/17/4 9/16/4
f 11/17/4 2/18/4 4/19/4
f 6/22/5 10/21/5 12/20/5
f 10/21/5 6/22/5 3/23/5
f 11/26/6 8/25/6 9/24/6
f 8/25/6 11/26/6 10/27/6
f 10/27/6 11/26/6 13/28/6
f 10/27/6 13/28/6 12/29/6
f 12/29/6 13/28/6 14/30/6
f 14/33/7 6/32/7 12/31/7
f 6/32/7 14/33/7 7/34/7
f 13/37/8 7/36/8 14/35/8
f 7/36/8 13/37/8 5/38/8
f 4/41/9 13/40/9 11/39/9
f 13/40/9 4/41/9 5/42/9

