# Created by Kenney (www.kenney.nl)

mtllib rock_smallTopA.mtl

g rock_smallTopA

v 0.2438671 0 -0.02648371
v 0.102626 0 0.2445732
v 0.2255771 0.065 -0.02449743
v 0.1674127 0.13 0.05401204
v 0.08723209 0.13 0.2078872
v 0.01582159 0.13 0.1247473
v -0.1327146 0.13 0.09982982
v 0.004190464 0.22 0.09702861
v -0.1101824 0.22 0.0778421
v -0.07537457 0.22 -0.06271417
v -0.02129613 0.1618934 -0.1064624
v 0.02913566 0.22 -0.03499064
v -0.02010239 0.13 -0.1162852
v 0.08541978 0.13 -0.008819062
v 0.05778107 0.22 -0.005817528
v -0.2255771 0.065 -0.1001803
v -0.1783664 0.13 -0.1064624
v -0.2025242 0.13 -0.06010098
v -0.1988104 0 0.1940061
v -0.1783664 0.08912079 0.1740561
v 0.009940388 0.13 0.1949212
v -0.1741645 0.13 0.1301784
v -0.2438671 0 -0.108303
v -0.1549169 0.13 -0.04913646
v -0.1272781 0.22 -0.03686193
v 0.0297226 0 -0.2445732
v 0.02526421 0.13 -0.2078872
v 0.1674127 0.13 -0.06312008

vn 0.8632277 0.2291542 0.4498069
vn -0.1592167 0.271736 0.9491099
vn 0.1843795 0.6949061 -0.6950609
vn 0.6934347 0.2356596 -0.6808913
vn -0.7606292 0.5141532 -0.3963454
vn -0.1601684 0.2504735 0.9547822
vn -0.2291728 0.723041 0.6516837
vn -0.9572747 0.2515338 0.1426741
vn -0.4315992 0.2507226 -0.866522
vn 0 -1 0
vn -0.4337923 0.230898 -0.870925
vn 0.7452043 0.6668363 0
vn -0.9515395 0.2728733 0.1418195
vn 0.8589288 0.2488476 0.447567
vn 0.6965447 0.2168974 -0.6839451
vn 0 1 0

vt 5.361349 -1.840718
vt -6.67205 -1.840718
vt 4.959248 0.788295
vt 1.159948 3.417308
vt -5.671242 3.417308
vt 1.42685 3.637339
vt -4.502744 3.637339
vt 0.7946978 7.319188
vt -3.77109 7.319188
vt 3.501374 5.098759
vt 1.885097 1.917477
vt -0.7555098 5.098759
vt 3.821153 4.351148
vt -2.108443 4.351148
vt 3.57814 5.643183
vt 0.1792819 7.997142
vt -1.430386 7.997142
vt 0.6061997 -2.791605
vt -0.4720424 0.1920255
vt 1.586143 0.1920255
vt 5.577735 -2.211111
vt -6.455666 -2.211111
vt 4.741074 3.075519
vt -5.79182 1.413109
vt 1.655574 3.075519
vt -4.768304 -1.604942
vt 2.91504 -1.604942
vt -4.351282 -3.934712
vt -5.632643 -2.230505
vt -5.210196 0.4135599
vt 6.400755 -2.230506
vt -3.515717 3.057625
vt 4.058345 3.057626
vt 5.742554 1.394744
vt 4.596894 3.838712
vt -1.332703 3.838711
vt 3.838336 7.49893
vt -1.118218 5.135788
vt 1.555444 7.49893
vt 9.601068 -1.042666
vt 1.170181 -9.628866
vt 4.040394 9.628866
vt -7.827181 7.638035
vt -9.601068 -4.263897
vt 6.693023 -1.869629
vt -5.340376 -1.869629
vt 6.191046 0.7604969
vt -4.539319 3.390624
vt 4.417042 3.390624
vt 2.485043 -0.5811144
vt 0.9644657 -4.015146
vt -2.126458 -0.5811144
vt -2.812462 3.355597
vt -2.174085 7.038678
vt 3.117134 3.355597
vt 2.391703 7.038678
vt 1.861959 4.254876
vt -4.067636 4.254876
vt 1.254329 7.913267
vt -3.311459 7.913267
vt 6.050636 -1.644338
vt -5.982763 -1.644337
vt 5.14304 3.598583
vt -2.844694 3.598583
vt -5.534056 0.977123
vt -6.591051 -2.485043
vt -6.591051 2.126458
vt -0.9946539 -8.184535
vt -3.362983 -0.3472072
vt -3.434334 8.184535
vt 0.7914327 -4.578158
vt 7.022299 -4.191433
vt 6.09909 -1.934506
vt 6.85687 5.125134
vt 7.973394 -2.36618
vt -0.3913538 7.674063
vt -0.6228972 4.911311
vt 5.224985 3.930308
vt -2.274845 -0.2290365
vt -0.1649789 3.820024
vt -1.147073 -1.377584
vt 2.967503 -2.469062
vt 4.33789 3.06465
vt 5.010949 -1.451257

usemtl dirt

f 3/3/1 2/2/1 1/1/1
f 2/2/1 3/3/1 4/4/1
f 2/2/1 4/4/1 5/5/1
f 8/8/2 7/7/2 6/6/2
f 7/7/2 8/8/2 9/9/2
f 12/12/3 11/11/3 10/10/3
f 11/15/4 14/14/4 13/13/4
f 14/14/4 11/15/4 12/16/4
f 14/14/4 12/16/4 15/17/4
f 18/20/5 17/19/5 16/18/5
f 5/23/6 19/22/6 2/21/6
f 19/22/6 5/23/6 20/24/6
f 20/24/6 5/23/6 21/25/6
f 20/28/7 21/27/7 22/26/7
f 19/31/8 16/30/8 23/29/8
f 16/30/8 19/31/8 18/32/8
f 18/32/8 19/31/8 22/33/8
f 22/33/8 19/31/8 20/34/8
f 25/37/9 13/36/9 24/35/9
f 13/36/9 25/37/9 11/38/9
f 11/38/9 25/37/9 10/39/9
f 2/42/10 26/41/10 1/40/10
f 26/41/10 2/42/10 19/43/10
f 26/41/10 19/43/10 23/44/10
f 16/47/11 26/46/11 23/45/11
f 26/46/11 16/47/11 27/48/11
f 27/48/11 16/47/11 17/49/11
f 4/52/12 3/51/12 28/50/12
f 7/55/13 25/54/13 24/53/13
f 25/54/13 7/55/13 9/56/13
f 15/59/14 6/58/14 14/57/14
f 6/58/14 15/59/14 8/60/14
f 27/63/15 1/62/15 26/61/15
f 1/62/15 27/63/15 28/64/15
f 1/62/15 28/64/15 3/65/15

usemtl grass

f 27/68/16 4/67/16 28/66/16
f 4/67/16 27/68/16 14/69/16
f 4/67/16 14/69/16 5/70/16
f 14/69/16 27/68/16 13/71/16
f 13/71/16 27/68/16 17/72/16
f 13/71/16 17/72/16 24/73/16
f 24/73/16 17/72/16 22/74/16
f 22/74/16 17/72/16 18/75/16
f 14/69/16 21/76/16 5/70/16
f 21/76/16 14/69/16 6/77/16
f 21/76/16 6/77/16 7/78/16
f 21/76/16 7/78/16 22/74/16
f 22/74/16 7/78/16 24/73/16
f 12/81/16 8/80/16 15/79/16
f 8/80/16 12/81/16 10/82/16
f 8/80/16 10/82/16 9/83/16
f 9/83/16 10/82/16 25/84/16

