# Created by Kenney (www.kenney.nl)

mtllib rock_tallC.mtl

g rock_tallC

v -0.1140486 0 0.2182538
v -0.2280972 0 0.1524078
v -0.06842914 0.645832 0.1309523
v -0.1368583 0.645832 0.09144469
v -0.05574309 0.645832 -0.05044337
v 0.0253721 0.645832 -0.1309523
v -0.02492688 0.782936 -0.03746208
v 0.03023147 0.782936 -0.09220818
v 0.2280972 0 0.1524078
v 0.1368583 0.645832 0.09144469
v 0.03421458 0.645832 0.1111985
v 0.04228684 0 -0.2182538
v 0.2280972 0 -0.1109762
v 0.1368583 0.645832 -0.06658571
v -0.1368583 0.645832 0.03006557
v -0.2280972 0 0.05010928
v 0.03624434 0.782936 0.07245437
v 0.1060421 0.782936 -0.04843888
v 0.1060421 0.782936 0.05902179

vn -0.4942939 0.1506459 0.8561421
vn -0.6871886 0.2200104 -0.6923635
vn 0.1876496 0.11855 0.9750557
vn 0.4958175 0.1290731 -0.8587812
vn -0.9901679 0.1398844 0
vn -0.8640849 0.1486851 0.4808845
vn 0.9756588 0.2192941 0
vn -0.7023437 0.07726076 -0.7076328
vn 0.1822317 0.2648868 0.9469036
vn 0.4875943 0.2213756 -0.8445382
vn 0.9901679 0.1398844 0
vn 0 -1 0
vn 0 1 0

vt 0.407792 -1.459235
vt -4.776931 -1.459235
vt 0.2446761 24.26074
vt -2.866159 24.26074
vt 0.1586258 24.1532
vt -4.340835 24.1532
vt -0.3424479 29.68657
vt -3.402083 29.68657
vt 7.684434 -0.8997099
vt -6.033056 -0.8997099
vt 4.610661 24.70732
vt -3.619833 24.70732
vt 0.4954138 24.70732
vt 2.854544 -1.067936
vt -5.592516 -1.067936
vt 1.712726 24.573
vt -3.355509 24.573
vt 1.183684 24.42274
vt 3.600184 24.42274
vt 1.972806 -1.25619
vt 6.000309 -1.25619
vt -2.802543 25.0023
vt -1.765983 30.46077
vt 4.48044 25.0023
vt 3.186445 30.46077
vt 2.621485 23.62596
vt -3.600184 23.62596
vt 1.907043 29.15843
vt -2.323693 29.15843
vt 7.763481 -0.3805781
vt -7.234725 -0.3805782
vt 4.658089 25.12211
vt -4.340835 25.12211
vt 0.1586259 25.12211
vt 4.610661 23.31203
vt 0.4954138 23.31203
vt 3.660521 28.90978
vt 0.8621515 28.90978
vt 1.712726 23.69661
vt -3.35551 23.69661
vt 0.7843644 29.23174
vt -2.662037 29.23174
vt 4.36914 -1.25619
vt -6.000309 -1.25619
vt 2.621485 24.42274
vt -3.600184 24.42274
vt -4.174887 -1.907043
vt -4.174887 2.323693
vt -1.190215 -3.630243
vt -1.426943 2.852534
vt 0.9813733 -1.474885
vt -1.347031 4.377893
vt 2.694061 5.155602
vt 2.19461 -1.98596
vt 5.388123 1.183684
vt 5.388123 3.600184

usemtl dirt

f 3/3/1 2/2/1 1/1/1
f 2/2/1 3/3/1 4/4/1
f 7/7/2 6/6/2 5/5/2
f 6/6/2 7/7/2 8/8/2
f 10/11/3 1/10/3 9/9/3
f 1/10/3 10/11/3 3/12/3
f 3/12/3 10/11/3 11/13/3
f 6/16/4 13/15/4 12/14/4
f 13/15/4 6/16/4 14/17/4
f 16/20/5 4/19/5 15/18/5
f 4/19/5 16/20/5 2/21/5
f 11/24/6 7/23/6 5/22/6
f 7/23/6 11/24/6 17/25/6
f 18/28/7 10/27/7 14/26/7
f 10/27/7 18/28/7 19/29/7
f 15/32/8 12/31/8 16/30/8
f 12/31/8 15/32/8 6/33/8
f 6/33/8 15/32/8 5/34/8
f 19/37/9 11/36/9 10/35/9
f 11/36/9 19/37/9 17/38/9
f 8/41/10 14/40/10 6/39/10
f 14/40/10 8/41/10 18/42/10
f 14/45/11 9/44/11 13/43/11
f 9/44/11 14/45/11 10/46/11

usemtl _defaultMat

f 1/2/12 13/3/12 9/4/12
f 13/2/12 1/3/12 12/4/12
f 12/2/12 1/3/12 16/4/12
f 16/2/12 1/3/12 2/4/12
f 6/33/13 10/32/13 14/34/13
f 10/33/13 6/32/13 11/34/13
f 11/33/13 6/32/13 5/34/13

usemtl grass

f 8/49/13 19/48/13 18/47/13
f 19/48/13 8/49/13 17/50/13
f 17/50/13 8/49/13 7/51/13
f 5/54/13 3/53/13 11/52/13
f 3/53/13 5/54/13 15/55/13
f 3/53/13 15/55/13 4/56/13

