# Created by Kenney (www.kenney.nl)

mtllib rock_tallI.mtl

g rock_tallI

v -0.09341393 0.620576 -0.1158475
v 0.04071964 0.620576 -0.1462706
v -0.06496013 0.8118 -0.09547165
v 0.03698139 0.8118 -0.1185932
v -0.1482761 0 -0.183885
v 0.06463432 0 -0.2321756
v 0.1437013 0.620576 -0.08681414
v 0.1437013 0.620576 -0.003848174
v 0.1152474 0.8118 -0.07340627
v 0.1152474 0.8118 -0.01035215
v -0.1788504 0.3621191 -0.1080487
v -0.1155443 0.620576 -0.1030706
v -0.1437013 0.620576 0.005701282
v 0.04315388 0.620576 0.08437444
v 0.01596491 0.8118 0.02317245
v 0.04099265 0.716188 0.07053575
v -0.2280972 0 -0.1378002
v 0.07703941 0.8118 0.02317245
v -0.04347485 0 0.2321756
v -0.2280972 0 0.1255838
v -0.02738917 0.620576 0.1462706
v -0.1437013 0.620576 0.07911777
v 0.2280972 0 -0.1378002
v 0.2280972 0 -0.00610821

vn -0.2191516 0.1355657 -0.9662269
vn -0.2194454 0.1254753 -0.9675224
vn 0.98911 0.1471781 0
vn 0.495497 0.1339046 -0.8582262
vn -0.9409405 0.2351644 -0.2435746
vn -0.8244972 0.06276 0.5623748
vn -0.4952289 0.1378222 -0.8577607
vn 0 0.4438913 0.8960806
vn -0.4956457 0.1316854 0.8584838
vn -0.9908789 0.1347557 0
vn 0.9908789 0.1347557 0
vn 0.6545466 0.1227683 0.7459871
vn 0.4952285 0.1378222 -0.857761
vn 0.6570563 0.08662997 0.7488472
vn 0 1 0
vn 0 -1 0

vt 2.577769 23.49331
vt -2.837209 23.49331
vt 1.66273 31.09196
vt -2.452654 31.09196
vt 4.091698 -1.047906
vt -4.503507 -1.047906
vt 2.577769 23.57885
vt -2.837209 23.57885
vt 3.41788 23.3334
vt 0.1515029 23.3334
vt 2.890011 30.94479
vt 0.4075649 30.94479
vt 1.490986 23.43696
vt -3.190626 23.43696
vt 1.073612 31.03388
vt -2.484412 31.03388
vt -2.353564 12.00311
vt -2.788422 22.47218
vt 1.63509 22.47218
vt -5.840239 24.35458
vt -4.546288 31.89795
vt 3.701595 24.35458
vt 1.107849 31.89795
vt 3.20355 28.12626
vt 5.064479 -1.266375
vt 1.435759 -1.266375
vt 3.971045 13.12764
vt 0.9045277 23.40115
vt 1.910586 23.40115
vt 3.033048 28.23434
vt 1.613884 24.03354
vt 0.6285399 28.23434
vt 3.088088 -1.155137
vt -5.304964 -1.155137
vt 1.945495 23.49162
vt -3.342129 23.49162
vt -5.425204 -1.210134
vt -4.253887 13.17776
vt 4.944244 -1.210134
vt 0.2244601 23.44689
vt 3.114873 23.44689
vt 5.425205 -1.210134
vt 0.2404807 -1.210134
vt 3.41788 23.44689
vt 0.1515029 23.44689
vt 4.352536 23.8032
vt -0.913793 23.8032
vt 3.679371 31.38908
vt -0.618416 27.59614
vt 1.678166 31.38908
vt 2.366646 -1.266375
vt -5.064484 -1.266375
vt 1.490986 23.40116
vt -3.190625 23.40116
vt 6.908785 -0.4974297
vt -7.315235 -0.4974297
vt 4.352535 24.0269
vt -4.608598 24.0269
vt -0.9137935 24.0269
vt -1.698972 3.321829
vt 1.078314 5.758685
vt 3.677714 -4.560926
vt 5.65753 3.114873
vt 4.548986 -4.057898
vt 5.65753 0.2244599
vt -4.5373 -2.890011
vt -4.5373 -0.4075649
vt -1.45596 -4.669024
vt -3.033048 0.9123011
vt -0.6285399 0.9123011
vt 2.557485 -3.758726

usemtl dirt

f 3/3/1 2/2/1 1/1/1
f 2/2/1 3/3/1 4/4/1
f 1/7/2 6/6/2 5/5/2
f 6/6/2 1/7/2 2/8/2
f 9/11/3 8/10/3 7/9/3
f 8/10/3 9/11/3 10/12/3
f 4/15/4 7/14/4 2/13/4
f 7/14/4 4/15/4 9/16/4
f 13/19/5 12/18/5 11/17/5
f 14/22/6 3/21/6 1/20/6
f 3/21/6 14/22/6 15/23/6
f 15/23/6 14/22/6 16/24/6
f 11/27/7 5/26/7 17/25/7
f 5/26/7 11/27/7 1/28/7
f 1/28/7 11/27/7 12/29/7
f 15/32/8 16/31/8 18/30/8
f 21/35/9 20/34/9 19/33/9
f 20/34/9 21/35/9 22/36/9
f 20/39/10 11/38/10 17/37/10
f 11/38/10 20/39/10 13/40/10
f 13/40/10 20/39/10 22/41/10
f 7/44/11 24/43/11 23/42/11
f 24/43/11 7/44/11 8/45/11
f 10/48/12 14/47/12 8/46/12
f 14/47/12 10/48/12 16/49/12
f 16/49/12 10/48/12 18/50/12
f 2/53/13 23/52/13 6/51/13
f 23/52/13 2/53/13 7/54/13
f 8/57/14 19/56/14 24/55/14
f 19/56/14 8/57/14 21/58/14
f 21/58/14 8/57/14 14/59/14

usemtl grass

f 1/62/15 21/61/15 14/60/15
f 21/61/15 1/62/15 22/63/15
f 22/63/15 1/62/15 12/64/15
f 22/63/15 12/64/15 13/65/15
f 4/68/15 10/67/15 9/66/15
f 10/67/15 4/68/15 18/69/15
f 18/69/15 4/68/15 15/70/15
f 15/70/15 4/68/15 3/71/15

usemtl _defaultMat

f 19/40/16 23/39/16 24/41/16
f 23/40/16 19/39/16 6/41/16
f 6/40/16 19/39/16 5/41/16
f 5/40/16 19/39/16 20/41/16
f 5/40/16 20/39/16 17/41/16

