# Created by Kenney (www.kenney.nl)

mtllib rock_largeC.mtl

g rock_largeC

v 0.161732 0 0.4062648
v -0.2860111 0 0.2930947
v 0.202165 0.104632 0.507831
v -0.3575139 0.104632 0.3663686
v 0.3432401 0.104632 0.3484186
v 0.274592 0 0.2787349
v -0.4257638 0 0.05048718
v -0.5322049 0.104632 0.06310897
v -0.4508264 0.104632 -0.3400723
v -0.3606611 0 -0.2720578
v 0.1968991 0 0.06742597
v 0.2461239 0.104632 0.08428248
v 0.5322049 0.104632 -0.2879802
v 0.2461239 0.104632 -0.507831
v 0.4257638 0 -0.2303842
v 0.1968991 0 -0.4062648
v 0.5322049 0.173184 -0.2879802
v 0.2461239 0.173184 0.08428248
v 0.3432401 0.173184 0.3484186
v 0.202165 0.173184 0.507831
v 0.2162413 0.321112 0.2195037
v 0.127364 0.321112 0.3199335
v -0.3575139 0.173184 0.3663686
v 0.155058 0.321112 0.05309796
v -0.5322049 0.173184 0.06310897
v 0.003444964 0.104632 -0.5055493
v -0.4508264 0.173184 -0.3400723
v 0.003444964 0.173184 -0.5055493
v 0.2461239 0.173184 -0.507831
v 0.002755972 0 -0.4044395
v 0.4337469 0.247148 -0.2347039
v 0.2451735 0.321112 -0.2506805
v 0.155058 0.321112 -0.3199335
v 0.002170328 0.321112 -0.318496
v -0.2840206 0.321112 -0.2142455
v -0.335289 0.321112 0.03975864
v -0.2252337 0.321112 0.2308121
v 0.2451735 0.321112 -0.06416478

vn -0.1870443 -0.6460558 0.7400177
vn 0.5476378 -0.6820663 0.4846426
vn -0.6308284 -0.6855704 0.3633852
vn -0.7024384 -0.6974801 -0.1417807
vn 0.8756147 -0.360073 -0.3219415
vn 0.418907 -0.726209 -0.5451031
vn 0.7929069 0 0.6093428
vn 0.4746202 0.7735085 0.4200241
vn -0.2450501 0 0.9695105
vn 0.9385701 0 -0.3450885
vn 0.8377852 0.4508124 -0.3080325
vn -0.8665149 0 0.4991511
vn 0.7488651 0 0.6627225
vn -0.3422681 0 -0.9396023
vn 0.7172692 -0.4262465 0.5512158
vn 0.6093425 0 -0.7929072
vn 0 -1 0
vn 0.3571628 0.8102065 -0.4647581
vn -0.9802321 0 -0.1978509
vn -0.2536832 -0.6713036 -0.6964167
vn -0.005832306 0.784331 -0.6203151
vn -0.6053474 0.7865275 -0.1221838
vn -0.1642199 0.7422271 0.6497158
vn -0.006761063 -0.6948611 -0.7191122
vn 0.6749267 0.5248327 0.5186758
vn -0.2207207 0.7642867 -0.6059276
vn 0.3651461 0.9309502 0
vn -0.5460193 0.7764876 0.3145314
vn -0.009401724 0 -0.9999558
vn 0 1 0

vt 10.09276 9.010328
vt -8.089286 9.010327
vt 12.61595 14.40719
vt -10.11161 14.40719
vt -1.316754 16.11526
vt -1.053405 10.48224
vt -9.697542 16.11526
vt -7.758032 10.48224
vt 4.378275 10.63799
vt -6.644592 10.63799
vt 5.472849 16.29641
vt -8.305741 16.29641
vt -9.612338 16.93446
vt 6.581049 16.93446
vt -7.689869 11.186
vt 5.264839 11.186
vt -5.1666 2.289947
vt -14.03035 2.289947
vt -6.458251 6.705493
vt -17.53794 6.705493
vt -9.70514 18.63234
vt 4.499589 18.63234
vt -7.76411 12.6403
vt 3.59967 12.6403
vt 21.75735 6.818268
vt 21.75735 4.11937
vt 3.273452 6.818268
vt 3.273452 4.11937
vt -1.316758 -10.53812
vt -9.697546 -10.53812
vt -0.8295574 -1.348998
vt -6.109454 -1.348999
vt 12.61595 4.11937
vt -10.11161 4.11937
vt 12.61595 6.818268
vt -10.11161 6.818268
vt -6.458251 6.818268
vt -6.458251 4.11937
vt -17.53794 6.818268
vt -17.53794 4.11937
vt -4.068697 9.026892
vt -6.458251 2.502339
vt -11.0489 9.026892
vt -17.53794 2.502339
vt -8.305741 4.11937
vt -8.305741 6.818268
vt 5.472849 4.11937
vt 5.472849 6.818268
vt -1.316757 6.818268
vt -1.316757 4.11937
vt -9.697545 6.818268
vt -9.697545 4.11937
vt 12.09455 4.11937
vt -6.939776 4.11937
vt 12.09455 6.818268
vt -6.939776 6.818268
vt 21.75735 7.863189
vt 17.40588 3.309421
vt 3.273451 7.863189
vt 2.61876 3.309422
vt 4.49959 4.11937
vt -9.705138 4.11937
vt 4.49959 6.818268
vt -9.705138 6.818268
vt 10.81071 10.97382
vt 7.751933 2.654566
vt 6.367403 15.99468
vt 7.751933 -15.99468
vt 0.1085028 -15.92281
vt -11.26028 11.53916
vt -14.19926 -10.71094
vt -16.76236 1.987684
vt 16.76236 -9.070244
vt -9.705134 -13.63146
vt -7.909682 -8.663449
vt 4.499594 -13.63145
vt -1.639745 -3.695445
vt 2.834744 -3.695446
vt -9.612338 4.11937
vt -9.612338 6.818268
vt 6.58105 4.11937
vt 6.58105 6.818268
vt 9.675642 10.01852
vt -5.551822 10.01852
vt 12.09455 15.57635
vt -6.939777 15.57635
vt -9.877462 -11.37959
vt -6.222801 -1.991334
vt -0.3227504 -11.37959
vt -0.2033328 -1.991333
vt -6.055772 -2.126363
vt 4.14606 -2.126362
vt -9.612338 -11.557
vt 6.581049 -11.557
vt 12.61595 -8.370249
vt -10.11161 -8.37025
vt 7.94805 0.3202687
vt -6.370311 0.3202701
vt -0.2581971 11.06295
vt -7.901965 11.06295
vt -0.3227463 16.7911
vt -9.877458 16.7911
vt 21.75735 0.7101766
vt 3.273451 0.7101775
vt 17.73224 4.131172
vt 7.884701 7.552166
vt 2.062274 7.552166
vt -6.939776 -9.860804
vt -4.372059 -0.829716
vt 12.09455 -9.860804
vt 7.619569 -0.8297155
vt 9.869311 -4.369746
vt 9.24031 -12.34455
vt 2.526172 -4.369746
vt 3.447893 -1.522124
vt 5.472849 -10.76452
vt -5.232616 -1.522124
vt -8.305741 -10.76452
vt -0.3227499 4.11937
vt -9.877461 4.11937
vt -0.3227499 6.818268
vt -9.877461 6.818268
vt -9.652501 -9.869311
vt -9.652501 -2.526172
vt -6.104648 -12.59581
vt -6.104648 2.090471
vt -0.08544598 -12.53922
vt -5.01433 12.59581
vt 8.86747 9.087091
vt 11.18192 -8.434863
vt 13.20036 1.565301
vt -8.513435 8.641879

usemtl dirt

f 3/3/1 2/2/1 1/1/1
f 2/2/1 3/3/1 4/4/1
f 3/7/2 6/6/2 5/5/2
f 6/6/2 3/7/2 1/8/2
f 4/11/3 7/10/3 2/9/3
f 7/10/3 4/11/3 8/12/3
f 10/15/4 8/14/4 9/13/4
f 8/14/4 10/15/4 7/16/4
f 12/19/5 6/18/5 11/17/5
f 6/18/5 12/19/5 5/20/5
f 15/23/6 14/22/6 13/21/6
f 14/22/6 15/23/6 16/24/6
f 18/27/7 13/26/7 17/25/7
f 13/26/7 18/27/7 12/28/7
f 21/31/8 20/30/8 19/29/8
f 20/30/8 21/31/8 22/32/8
f 20/35/9 4/34/9 3/33/9
f 4/34/9 20/35/9 23/36/9
f 19/39/10 12/38/10 18/37/10
f 12/38/10 19/39/10 5/40/10
f 21/43/11 18/42/11 24/41/11
f 18/42/11 21/43/11 19/44/11
f 4/47/12 25/46/12 8/45/12
f 25/46/12 4/47/12 23/48/12
f 20/51/13 5/50/13 19/49/13
f 5/50/13 20/51/13 3/52/13
f 27/55/14 26/54/14 9/53/14
f 26/54/14 27/55/14 28/56/14
f 12/59/15 15/58/15 13/57/15
f 15/58/15 12/59/15 11/60/15
f 29/63/16 13/62/16 14/61/16
f 13/62/16 29/63/16 17/64/16
f 1/67/17 11/66/17 6/65/17
f 11/66/17 1/67/17 16/68/17
f 16/68/17 1/67/17 30/69/17
f 30/69/17 1/67/17 2/70/17
f 30/69/17 2/70/17 10/71/17
f 10/71/17 2/70/17 7/72/17
f 16/68/17 15/73/17 11/66/17
f 29/76/18 31/75/18 17/74/18
f 31/75/18 29/76/18 32/77/18
f 32/77/18 29/76/18 33/78/18
f 8/81/19 27/80/19 9/79/19
f 27/80/19 8/81/19 25/82/19
f 9/85/20 30/84/20 10/83/20
f 30/84/20 9/85/20 26/86/20
f 28/89/21 33/88/21 29/87/21
f 33/88/21 28/89/21 34/90/21
f 27/93/22 36/92/22 35/91/22
f 36/92/22 27/93/22 25/94/22
f 22/97/23 23/96/23 20/95/23
f 23/96/23 22/97/23 37/98/23
f 26/101/24 16/100/24 30/99/24
f 16/100/24 26/101/24 14/102/24
f 31/105/25 18/104/25 17/103/25
f 18/104/25 31/105/25 38/106/25
f 18/104/25 38/106/25 24/107/25
f 27/110/26 34/109/26 28/108/26
f 34/109/26 27/110/26 35/111/26
f 38/114/27 31/113/27 32/112/27
f 36/117/28 23/116/28 37/115/28
f 23/116/28 36/117/28 25/118/28
f 28/121/29 14/120/29 26/119/29
f 14/120/29 28/121/29 29/122/29

usemtl grass

f 33/125/30 38/124/30 32/123/30
f 38/124/30 33/125/30 24/126/30
f 24/126/30 33/125/30 34/127/30
f 24/126/30 34/127/30 22/128/30
f 22/128/30 34/127/30 37/129/30
f 37/129/30 34/127/30 35/130/30
f 37/129/30 35/130/30 36/131/30
f 22/128/30 21/132/30 24/126/30

