# Created by Kenney (www.kenney.nl)

mtllib rock_smallF.mtl

g rock_smallF

v -0.08839601 0 -0.1531064
v 0.08839601 0 -0.1531064
v -0.0707168 0.115456 -0.1224851
v 0.07670955 0.0763197 -0.1328648
v 0.02620202 0.115456 -0.1224851
v 0.08493578 0.115456 -0.09785708
v -0.05045146 0.115456 -0.08738449
v 0.05045146 0.115456 -0.08738449
v -0.04423155 0.1580105 -0.0766113
v 0.03146658 0.245344 -0.05450172
v 0.007196062 0.245344 -0.05450172
v 0.1414336 0.115456 0
v 0.176792 0 0
v 0.09297419 0.115456 0.08393417
v 0.08839601 0 0.1531064
v 0.08493578 0.02259728 0.1471131
v -0.06293315 0.245344 -1.443823E-15
v -0.03146658 0.245344 0.05450172
v -0.1009029 0.115456 0
v -0.05045146 0.115456 0.08738449
v 0.1009029 0.115456 0
v 0.06293315 0.245344 -1.443823E-15
v 0.03146658 0.245344 0.05450172
v 0.05045146 0.115456 0.08738449
v -0.04260882 0.245344 -0.03520279
v -0.08839601 0 0.1531064
v -0.176792 0 0
v 0.02620202 0.115456 0.1224851
v -0.0707168 0.115456 0.1224851
v -0.1244615 0.115456 -0.02939646
v -0.161304 0.05057316 0
v -0.1171438 0.115456 0.04207115

vn 0 0.2563575 -0.9665821
vn 0.3103015 0.5967291 -0.7400186
vn 0 0.2454199 -0.9694168
vn 0.8370847 0.2563572 0.483291
vn -0.8395395 0.2454201 0.4847085
vn 0.8395395 0.2454201 -0.4847085
vn 0.8395395 0.2454201 0.4847085
vn -0.8395395 0.2454201 -0.4847085
vn 0 -1 0
vn 0 0.2454199 0.9694168
vn 0.4388578 0.4791813 0.7601244
vn 0.8370847 0.2563572 -0.483291
vn 0 0.2563575 0.9665821
vn -0.8370847 0.2563573 -0.483291
vn -0.3296344 0.4094728 -0.8506898
vn -0.8488756 0.5213974 0.0869185
vn -0.8370847 0.2563573 0.483291
vn 0 1 0

vt 3.480158 -1.545274
vt -3.480157 -1.545274
vt 2.784126 3.157391
vt -3.020061 1.563321
vt -1.031575 3.157391
vt 0.9134174 0.7557541
vt -0.7623542 -1.164382
vt -1.593994 0.7557541
vt 1.986278 3.562169
vt -1.986278 3.562169
vt 1.7414 5.290397
vt -1.238842 8.837197
vt -0.2833095 8.837197
vt 2.784126 3.157393
vt 3.480157 -1.545272
vt -1.031576 3.157393
vt -3.480158 -1.545272
vt -3.34393 -0.6248574
vt -1.238842 8.837196
vt 1.238842 8.837196
vt -1.986279 3.562168
vt 1.986278 3.562168
vt 1.238842 8.837196
vt 1.986279 3.562168
vt -1.238842 8.837196
vt -1.986278 3.562168
vt -1.986277 3.562168
vt -1.741399 5.290396
vt 1.986279 3.562168
vt -0.3614998 8.837196
vt 6.960315 0
vt 3.480158 -6.02781
vt 3.480158 6.02781
vt -3.480158 6.02781
vt -3.480158 -6.02781
vt -6.960315 0
vt 1.986278 3.562169
vt 1.238842 8.837197
vt -1.238842 8.837197
vt 1.517755 1.741361
vt 1.145996E-06 -2.423831
vt -1.517751 1.741361
vt 3.480158 -1.545273
vt -3.480158 -1.545273
vt 3.020061 1.563323
vt 1.664521 3.157392
vt -2.784126 3.157392
vt 3.480158 -1.545274
vt -3.480157 -1.545274
vt 3.343929 -0.6248595
vt -2.784126 3.157391
vt 1.031576 3.157391
vt -3.480158 -1.545273
vt -2.784125 3.157392
vt 3.480157 -1.545273
vt 1.447743 3.157392
vt 3.175275 0.5146338
vt 1.063429 8.034966
vt 0.533967 4.266201
vt -1.039454 8.034966
vt -0.6468666 -1.594931
vt -1.650441 1.398625
vt 1.177956 1.398625
vt -3.480157 -1.545273
vt -3.175275 0.5146335
vt 3.480158 -1.545273
vt -0.8715432 3.157392
vt 2.784126 3.157392
vt -2.477683 -5.684342E-14
vt -1.238842 2.145737
vt -1.238842 -2.145737
vt -0.2833095 -2.145737
vt 1.238842 2.145737
vt 1.677513 -1.385937
vt 2.477683 -5.684342E-14
vt -5.568252 0
vt -3.972557 0
vt -3.343928 -3.852641
vt -1.986278 -3.440334
vt -1.031576 -4.822247
vt 1.986278 -3.440334
vt 2.784126 -4.822247
vt 3.972557 0
vt 4.90006 -1.157341
vt 4.61196 1.656345
vt -3.660401 3.304495
vt -1.986278 3.440334
vt -1.031576 4.822247
vt 1.986278 3.440334
vt 2.784126 4.822247

usemtl dirt

f 3/3/1 2/2/1 1/1/1
f 2/2/1 3/3/1 4/4/1
f 4/4/1 3/3/1 5/5/1
f 6/8/2 4/7/2 5/6/2
f 9/11/3 8/10/3 7/9/3
f 8/10/3 9/11/3 10/12/3
f 10/12/3 9/11/3 11/13/3
f 14/16/4 13/15/4 12/14/4
f 13/15/4 14/16/4 15/17/4
f 15/17/4 14/16/4 16/18/4
f 19/21/5 18/20/5 17/19/5
f 18/20/5 19/21/5 20/22/5
f 10/20/6 21/21/6 8/22/6
f 21/21/6 10/20/6 22/19/6
f 23/25/7 21/24/7 22/23/7
f 21/24/7 23/25/7 24/26/7
f 19/29/8 9/28/8 7/27/8
f 9/28/8 19/29/8 25/30/8
f 25/30/8 19/29/8 17/23/8
f 15/33/9 2/32/9 13/31/9
f 2/32/9 15/33/9 26/34/9
f 2/32/9 26/34/9 1/35/9
f 1/35/9 26/34/9 27/36/9
f 23/38/10 20/10/10 24/37/10
f 20/10/10 23/38/10 18/39/10
f 28/42/11 16/41/11 14/40/11
f 4/45/12 13/44/12 2/43/12
f 13/44/12 4/45/12 6/46/12
f 13/44/12 6/46/12 12/47/12
f 16/50/13 26/49/13 15/48/13
f 26/49/13 16/50/13 29/51/13
f 29/51/13 16/50/13 28/52/13
f 27/55/14 3/54/14 1/53/14
f 3/54/14 27/55/14 30/56/14
f 30/56/14 27/55/14 31/57/14
f 11/60/15 9/59/15 25/58/15
f 32/63/16 30/62/16 31/61/16
f 26/66/17 31/65/17 27/64/17
f 31/65/17 26/66/17 32/67/17
f 32/67/17 26/66/17 29/68/17

usemtl grass

f 10/71/18 23/70/18 22/69/18
f 23/70/18 10/71/18 11/72/18
f 23/70/18 11/72/18 18/73/18
f 18/73/18 11/72/18 25/74/18
f 18/73/18 25/74/18 17/75/18
f 6/78/18 21/77/18 12/76/18
f 21/77/18 6/78/18 8/79/18
f 8/79/18 6/78/18 5/80/18
f 8/79/18 5/80/18 7/81/18
f 7/81/18 5/80/18 3/82/18
f 7/81/18 3/82/18 19/83/18
f 19/83/18 3/82/18 30/84/18
f 19/83/18 30/84/18 32/85/18
f 21/77/18 14/86/18 12/76/18
f 14/86/18 21/77/18 24/87/18
f 14/86/18 24/87/18 28/88/18
f 28/88/18 24/87/18 20/89/18
f 28/88/18 20/89/18 29/90/18
f 29/90/18 20/89/18 19/83/18
f 29/90/18 19/83/18 32/85/18

