# Created by Kenney (www.kenney.nl)

mtllib rock_tallG.mtl

g rock_tallG

v -0.1571459 0.533984 -0.1012689
v -0.137781 0.782936 -0.09685262
v -0.1571459 0.533984 -0.0105407
v -0.137781 0.782936 -0.02154819
v -2.887646E-15 0.533984 -0.1919971
v -0.001279679 0.5773284 -0.1885428
v -0.05207635 0.782936 -0.1463342
v -2.887646E-15 0.382448 -0.2109958
v 0.1827278 0.382448 -0.1054979
v 0.1571459 0.533984 -0.1012689
v 0.07067592 0.533984 -0.1511923
v -0.2124741 0 -0.122672
v -3.609557E-15 0 -0.245344
v -0.1827278 0.382448 -0.1054979
v 0.1827278 0.382448 1.443823E-15
v 0.1571459 0.533984 -0.05664246
v 0.1773722 0.4141721 -0.002206685
v 0.01515812 0.533984 0.04141573
v 0.05131106 0.782936 -0.1382891
v 0.005231293 0.782936 0.02157564
v 0.1138516 0.533984 0.00530162
v 2.52669E-15 0 0.245344
v -0.2124741 0 0.122672
v 2.52669E-15 0.191224 0.2281699
v -0.1827278 0.382448 0.1054979
v -0.08033328 0.382448 0.1646154
v 0.01762572 0.382448 0.06041444
v 0.04805614 0.382448 0.1832506
v -0.1827278 0.382448 5.775291E-15
v 0.0251214 0.782936 -0.1534097
v 0.2124741 0 0.122672
v 0.1827278 0.382448 0.1054979
v 0.2124741 0 -0.122672

vn -0.8670813 0.07617964 -0.4923075
vn -0.8596464 0.07583056 -0.5052305
vn -0.9969884 0.07755125 0
vn -0.4992658 0.05417592 -0.8647535
vn 0.4970785 0.107943 -0.8609653
vn -0.4984944 0.07754469 -0.8634177
vn 0.9860479 0.166462 0
vn -0.4970785 0.107943 -0.8609653
vn 0.9591324 0.06027743 0.2764625
vn 0.7613756 0.3703098 0.5321445
vn -0.4984943 0.0775447 0.8634177
vn 0.3410538 0.1224076 0.9320401
vn -0.138725 0.259375 0.9557614
vn -0.9860479 0.166462 0
vn 0.4982546 0.08348667 -0.863002
vn -0.2867984 0.1145751 0.9511147
vn 0.4984943 0.07754469 0.8634177
vn -0.2880957 0.06465373 0.9554166
vn -0.0897976 0.1789454 -0.9797524
vn 0.4984944 0.07754469 -0.8634177
vn 0.996989 0.07754469 0
vn -0.996989 0.07754469 0
vn 0 -1 0
vn 0 1 0

vt -3.986965 20.47988
vt -3.813095 30.31075
vt -0.414988 20.47988
vt -0.8483541 30.31075
vt 3.364482 20.63747
vt -3.779471 20.63747
vt 2.791163 30.45315
vt -3.667842 22.34645
vt -1.105027 30.45315
vt 4.153461 14.19249
vt -4.153462 14.19249
vt 3.779471 20.19354
vt -3.364483 20.19354
vt 0.566497 20.19354
vt 4.829607 -0.6486709
vt -4.829606 -0.6486709
vt 4.153462 14.45381
vt -4.153461 14.45381
vt 4.153461 13.6494
vt 8.454158E-08 13.6494
vt 3.986965 19.6998
vt 2.230018 19.6998
vt 0.08687743 14.91605
vt 4.153462 14.19249
vt -4.153461 14.19249
vt 3.364483 20.19354
vt -3.779471 20.19354
vt 6.490255 20.92298
vt -1.401466 20.92298
vt 5.790968 30.74209
vt -0.7591614 30.74209
vt 5.372088 18.12366
vt 4.071656 13.04565
vt 2.396725 18.12366
vt 4.829606 -0.6486711
vt -4.829607 -0.648671
vt 4.491533 6.902571
vt -4.153462 14.45381
vt 0.501458 14.45381
vt 6.755908 14.64117
vt -0.165683 14.64117
vt 6.587753 15.89961
vt 0.0001183784 20.65236
vt 4.137655 20.65236
vt 2.908664 12.76032
vt 1.290336 4.965033
vt -2.199004 12.76032
vt -4.153461 13.6494
vt -3.986965 19.6998
vt 1.37973E-13 13.6494
vt -0.414988 19.6998
vt 3.779472 20.40308
vt 0.5664983 20.40308
vt 3.755105 22.11552
vt 0.9727513 30.23867
vt 2.16335 30.23867
vt 1.351057 14.71989
vt -6.887684 14.71989
vt 1.042102 20.72542
vt -6.043214 20.72542
vt 4.829607 -0.648671
vt -4.829606 -0.648671
vt 4.153462 14.45381
vt -4.491533 6.902571
vt -1.968797 14.45381
vt 1.042102 20.88922
vt -6.043214 20.88922
vt 0.4424182 30.71103
vt -5.438394 30.71103
vt 1.515864 29.2666
vt -0.6273275 21.03901
vt -1.536157 29.2666
vt 4.829606 -0.6486709
vt -4.829607 -0.6486709
vt 4.153461 14.45381
vt -4.153462 14.45381
vt 4.829607 -0.6486709
vt -4.829607 -0.6486709
vt -1.4626E-13 14.45381
vt 1.379151E-13 14.45381
vt -7.194007 4.153461
vt -1.891974 7.214591
vt -7.194007 5.684342E-14
vt -0.6939259 2.378521
vt 3.162727 6.480921
vt 7.194007 2.273737E-13
vt 7.194007 4.153461
vt -2.020121 -5.444452
vt -0.2059564 0.8494344
vt -0.9890317 -6.039751
vt 2.05025 -5.76119
vt 5.424449 -0.8483541
vt 5.424449 -3.813095
vt -6.186845 -2.230018
vt -4.482346 0.2087252
vt -6.186845 -3.986965
vt -2.782516 -5.952454
vt -0.5967764 1.63054

usemtl dirt

f 3/3/3 2/2/2 1/1/1
f 2/2/2 3/3/3 4/4/3
f 2/7/2 5/6/4 1/5/1
f 5/6/4 2/7/2 6/8/4
f 6/8/4 2/7/2 7/9/4
f 5/12/5 9/11/5 8/10/5
f 9/11/5 5/12/5 10/13/5
f 10/13/5 5/12/5 11/14/5
f 14/17/6 13/16/6 12/15/6
f 13/16/6 14/17/6 8/18/6
f 10/21/7 15/20/7 9/19/7
f 15/20/7 10/21/7 16/22/7
f 15/20/7 16/22/7 17/23/7
f 1/26/8 8/25/8 14/24/8
f 8/25/8 1/26/8 5/27/8
f 19/30/9 18/29/9 11/28/9
f 18/29/9 19/30/9 20/31/9
f 21/34/10 17/33/10 16/32/10
f 24/37/11 23/36/11 22/35/11
f 23/36/11 24/37/11 25/38/11
f 25/38/11 24/37/11 26/39/11
f 17/42/12 27/41/12 15/40/12
f 27/41/12 17/42/12 18/43/12
f 18/43/12 17/42/12 21/44/12
f 26/47/13 24/46/13 28/45/13
f 29/50/14 1/49/14 14/48/14
f 1/49/14 29/50/14 3/51/14
f 6/54/15 11/53/15 5/52/15
f 11/53/15 6/54/15 19/55/15
f 19/55/15 6/54/15 30/56/15
f 18/59/16 29/58/16 27/57/16
f 29/58/16 18/59/16 3/60/16
f 32/63/17 22/62/17 31/61/17
f 22/62/17 32/63/17 24/64/17
f 24/64/17 32/63/17 28/65/17
f 20/68/18 3/67/18 18/66/18
f 3/67/18 20/68/18 4/69/18
f 30/72/19 6/71/19 7/70/19
f 8/75/20 33/74/20 13/73/20
f 33/74/20 8/75/20 9/76/20
f 9/75/21 31/78/21 33/77/21
f 31/78/21 9/75/21 15/79/21
f 31/78/21 15/79/21 32/18/21
f 23/77/22 14/18/22 12/78/22
f 14/18/22 23/77/22 29/80/22
f 29/80/22 23/77/22 25/75/22

usemtl _defaultMat

f 22/16/23 33/17/23 31/18/23
f 33/16/23 22/17/23 13/18/23
f 13/16/23 22/17/23 23/18/23
f 13/16/23 23/17/23 12/18/23

usemtl grass

f 15/83/24 28/82/24 32/81/24
f 28/82/24 15/83/24 27/84/24
f 28/82/24 27/84/24 26/85/24
f 26/85/24 27/84/24 29/86/24
f 26/85/24 29/86/24 25/87/24
f 30/90/24 20/89/24 19/88/24
f 20/89/24 30/90/24 7/91/24
f 20/89/24 7/91/24 4/92/24
f 4/92/24 7/91/24 2/93/24
f 10/96/24 21/95/24 16/94/24
f 21/95/24 10/96/24 11/97/24
f 21/95/24 11/97/24 18/98/24

