# Created by Kenney (www.kenney.nl)

mtllib rock_largeE.mtl

g rock_largeE

v 0.5477294 0.173184 -0.2099113
v 0.427229 0.292248 -0.1637308
v 0.3239491 0.173184 -0.4599355
v 0.2526803 0.292248 -0.3587498
v -0.4269393 0.173184 -0.2993327
v 0.06469035 0.173184 -0.3781267
v -0.3330127 0.292248 -0.2334795
v 0.05045849 0.292248 -0.294939
v 0.3791972 0.173184 0.05490492
v 0.2957739 0.292248 0.04282584
v -0.1050197 0.093808 0.4599355
v -0.5477294 0.093808 0.06734018
v -0.1050197 0.173184 0.4599355
v -0.5477294 0.173184 0.06734018
v -0.08401575 0 0.3679485
v -0.4381837 0 0.05387213
v -0.3801208 0.292248 -0.09047709
v -0.3145809 0.292248 0.1524217
v -0.487479 0.232716 0.05993278
v 0.5477294 0.093808 -0.2099113
v 0.4381837 0 -0.167929
v 0.3791972 0.093808 0.05490492
v 0.3033578 0 0.04392394
v 0.2217587 0 0.2630204
v 0.2771983 0.093808 0.3287755
v 0.06469035 0.093808 -0.3781267
v 0.3239491 0.093808 -0.4599355
v 0.2771983 0.173184 0.3287755
v 0.2162147 0.292248 0.2564449
v -0.08191534 0.292248 0.3587498
v -0.4269393 0.093808 -0.2993327
v 0.2591593 0 -0.3679485
v 0.05175228 0 -0.3025015
v -0.3415515 0 -0.2394662

vn 0.5235278 0.7115868 -0.4685754
vn -0.1314121 0.5571668 -0.8199366
vn 0.7087766 0.5423725 0.4510739
vn -0.6634907 0 0.7481845
vn -0.4975436 -0.6615651 0.5610544
vn -0.3714295 0.9230363 0.1002206
vn 0.6765689 -0.5973762 0.4305766
vn 0.7323117 -0.623966 0.2727382
vn -0.3009229 0 -0.9536485
vn 0.2467192 -0.6497753 0.7189727
vn 0.9371173 0 0.3490148
vn -0.6981738 0.6779795 -0.2299935
vn 0.2608023 0.5952836 0.7600129
vn -0.949792 0 -0.3128823
vn 0.7705985 0.5690434 0.2869976
vn 0.7451311 0 -0.666918
vn 0 -1 0
vn -0.1251337 -0.6121696 -0.7807625
vn -0.1582514 0 -0.9873989
vn 0.843643 0 0.5369045
vn -0.2433639 -0.5881861 -0.7712399
vn 0.3245765 0 0.9458594
vn 0.4844602 -0.7597907 -0.4336086
vn -0.6503973 -0.7287511 -0.2142552
vn -0.5270785 0.6073921 0.5943593
vn -0.2545707 0.5332355 -0.806755
vn 0 1 0

vt -8.223588 -10.56531
vt -6.414402 -3.893564
vt 4.986804 -10.56531
vt 3.889708 -3.893564
vt 14.73187 -2.303499
vt -4.870642 -2.303497
vt 11.49086 3.341439
vt -3.799102 3.341437
vt 18.54995 -1.732234
vt 6.191833 -1.732234
vt 14.46896 3.847275
vt 4.829631 3.847275
vt 8.920822 3.693228
vt -14.37492 3.693228
vt 8.920822 6.818268
vt -14.37492 6.818268
vt 7.136659 8.622148
vt -11.49994 8.622149
vt 8.920821 13.54719
vt -14.37492 13.54719
vt -7.337693 -8.053663
vt 2.567252 -8.053663
vt -2.721595 -14.14594
vt 18.54995 11.17894
vt 14.83996 6.573696
vt 6.191833 11.17894
vt 4.953468 6.573695
vt 2.547816 7.360144
vt -6.656846 7.360143
vt 3.184769 12.08626
vt -8.321055 12.08626
vt -6.908616 3.693228
vt -17.61176 3.693228
vt -6.908616 6.818268
vt -17.61176 6.818268
vt 4.896941 8.205536
vt -7.830494 8.205537
vt 6.121175 13.06424
vt -9.788116 13.06424
vt 3.184767 6.818268
vt 3.184767 3.693228
vt -8.321057 6.818268
vt -8.321057 3.693228
vt -5.933945 -8.311638
vt -4.628476 -1.934711
vt 9.265112 -8.311641
vt 1.299155 -1.93471
vt 8.245949 -5.123172
vt 6.121175 -3.918165
vt -9.788116 -3.918165
vt 4.774517 1.915645
vt -7.634731 1.915645
vt -5.93394 3.693228
vt -5.93394 6.818268
vt 9.265117 3.693228
vt 9.265117 6.818268
vt 2.48412 2.916843
vt 3.184769 -2.783649
vt -6.490425 2.916844
vt -8.321055 -2.78365
vt 4.986804 6.818268
vt 4.986804 3.693228
vt -8.223588 6.818268
vt -8.223588 3.693228
vt 17.25133 -6.611379
vt 10.20312 -14.48616
vt 11.94322 1.729289
vt 8.730657 10.35513
vt 2.037492 -11.90951
vt -3.307707 14.48616
vt -13.44691 -9.427802
vt -17.25133 2.12095
vt 11.7855 7.00138
vt -3.896514 7.001382
vt 14.73187 11.67206
vt -4.870642 11.67206
vt 14.73187 3.693228
vt -4.87064 3.693228
vt 14.73187 6.818268
vt -4.87064 6.818268
vt 18.54994 6.818268
vt 18.54994 3.693228
vt 6.191832 6.818268
vt 6.191832 3.693228
vt -5.526893 6.319681
vt -14.08941 6.31968
vt -6.908614 10.88641
vt -17.61176 10.88641
vt 6.121176 3.693228
vt -9.788116 3.693228
vt 6.121176 6.818268
vt -9.788116 6.818268
vt -8.223588 18.79726
vt 4.986803 18.79726
vt -6.578875 13.11683
vt 3.989444 13.11683
vt -4.747149 11.4571
vt -5.933939 16.85042
vt 7.412096 11.4571
vt 9.265119 16.85042
vt 6.958244 1.422041
vt 8.920823 -4.478695
vt -5.284808 1.422042
vt -14.37492 -4.478696
vt -12.79368 -1.528326
vt -6.908614 -1.39356
vt -17.61176 -1.393561
vt -5.388721 4.147505
vt -13.73717 4.147506
vt -16.82004 -6.446094
vt -11.64464 1.686057
vt -9.948045 -14.12401
vt -8.51239 10.09626
vt -1.986555 -11.61177
vt 3.225013 14.12401
vt 13.11074 -9.192107
vt 12.38507 6.000855
vt 14.96539 -3.56209

usemtl dirt

f 3/3/1 2/2/1 1/1/1
f 2/2/1 3/3/1 4/4/1
f 7/7/2 6/6/2 5/5/2
f 6/6/2 7/7/2 8/8/2
f 2/11/3 9/10/3 1/9/3
f 9/10/3 2/11/3 10/12/3
f 13/15/4 12/14/4 11/13/4
f 12/14/4 13/15/4 14/16/4
f 11/19/5 16/18/5 15/17/5
f 16/18/5 11/19/5 12/20/5
f 19/23/6 18/22/6 17/21/6
f 22/26/7 21/25/7 20/24/7
f 21/25/7 22/26/7 23/27/7
f 22/30/8 24/29/8 23/28/8
f 24/29/8 22/30/8 25/31/8
f 6/34/9 27/33/9 26/32/9
f 27/33/9 6/34/9 3/35/9
f 25/38/10 15/37/10 24/36/10
f 15/37/10 25/38/10 11/39/10
f 28/42/11 22/41/11 9/40/11
f 22/41/11 28/42/11 25/43/11
f 14/46/12 7/45/12 5/44/12
f 7/45/12 14/46/12 17/47/12
f 17/47/12 14/46/12 19/48/12
f 29/51/13 13/50/13 28/49/13
f 13/50/13 29/51/13 30/52/13
f 12/55/14 5/54/14 31/53/14
f 5/54/14 12/55/14 14/56/14
f 29/59/15 9/58/15 10/57/15
f 9/58/15 29/59/15 28/60/15
f 1/63/16 27/62/16 3/61/16
f 27/62/16 1/63/16 20/64/16
f 23/67/17 32/66/17 21/65/17
f 32/66/17 23/67/17 24/68/17
f 32/66/17 24/68/17 33/69/17
f 33/69/17 24/68/17 15/70/17
f 33/69/17 15/70/17 34/71/17
f 34/71/17 15/70/17 16/72/17
f 31/75/18 33/74/18 34/73/18
f 33/74/18 31/75/18 26/76/18
f 5/79/19 26/78/19 31/77/19
f 26/78/19 5/79/19 6/80/19
f 9/83/20 20/82/20 1/81/20
f 20/82/20 9/83/20 22/84/20
f 26/87/21 32/86/21 33/85/21
f 32/86/21 26/87/21 27/88/21
f 28/91/22 11/90/22 25/89/22
f 11/90/22 28/91/22 13/92/22
f 21/95/23 27/94/23 20/93/23
f 27/94/23 21/95/23 32/96/23
f 16/99/24 31/98/24 34/97/24
f 31/98/24 16/99/24 12/100/24
f 18/103/25 13/102/25 30/101/25
f 13/102/25 18/103/25 14/104/25
f 14/104/25 18/103/25 19/105/25
f 8/108/26 3/107/26 6/106/26
f 3/107/26 8/108/26 4/109/26

usemtl grass

f 4/112/27 10/111/27 2/110/27
f 10/111/27 4/112/27 29/113/27
f 29/113/27 4/112/27 8/114/27
f 29/113/27 8/114/27 30/115/27
f 30/115/27 8/114/27 7/116/27
f 30/115/27 7/116/27 18/117/27
f 18/117/27 7/116/27 17/118/27

