# Created by Kenney (www.kenney.nl)

mtllib rock_tallJ.mtl

g rock_tallJ

v 0.1118954 0.62 -0.0674518
v 0.1021532 0.62 0.05268182
v 0.01272777 0.62 -0.1359556
v 0.002985528 0.62 -0.01582203
v -0.02038865 0.62 -0.1202565
v 0.1599478 0.33 0.1104901
v 0.06346607 0.33 0.1562282
v -0.1599478 0.33 -0.1104901
v -0.08781925 0.33 0.143954
v -0.1756611 0.33 0.08327383
v 0.2439738 0 -0.1156581
v 0.2221497 0 0.1534584
v 0.2289668 0.07249463 -0.1085439
v 0.1701911 0.33 -0.01582203
v -0.02182403 0 0.2691165
v -0.2439738 0 0.1156581
v -0.02038865 0.07751575 0.2514165
v 0.02182403 0 -0.2691165
v 0.0157133 0.33 -0.1937639
v 0.09568721 0.33 -0.1385189
v -0.2221497 0 -0.1534584
v 0.1437783 0.475 -0.0753628
v -0.128065 0.475 -0.09740797

vn 0 1 0
vn 0.977672 0.1946055 0.07928459
vn -0.5574983 0.1946055 0.8070467
vn -0.07501494 0.3734926 0.9245951
vn 0.5574983 0.1946054 -0.8070468
vn -0.4201737 0.1946054 -0.8863311
vn -0.977672 0.1946055 -0.07928457
vn 0.9745097 0.2099652 0.07902795
vn -0.777283 0.6046203 0.1739689
vn 0.7984858 0.3568404 -0.4848558
vn 0.560338 0.167464 -0.8111579
vn 0.4201738 0.1946053 0.8863311
vn -0.4218996 0.1730626 -0.889972
vn -0.5676344 0.05067577 0.8217196
vn 0.8533528 -0.05733059 -0.5181721
vn 0 -1 0

vt -4.405331 -2.655583
vt -4.02178 2.074087
vt -0.5010933 -5.352582
vt -0.1175405 -0.6229146
vt 0.8027027 -4.734508
vt -6.297157 4.350004
vt -2.498664 6.150716
vt 6.297157 -4.350004
vt 3.457451 5.66748
vt 6.915792 3.278497
vt 5.314962 -1.791496
vt -5.314958 -1.791495
vt 4.988036 1.118254
vt 1.162472 11.45386
vt -3.826771 11.45386
vt 5.314959 -1.791495
vt -5.314962 -1.791495
vt 4.96539 1.319788
vt -3.826771 11.45386
vt 0.3764843 11.45386
vt 2.987871 9.837671
vt 0.0003712794 -0.8781209
vt -2.987815 9.837671
vt 5.314958 -1.791495
vt -5.314963 -1.791495
vt 3.826771 11.45386
vt -4.988036 1.118255
vt -3.108959E-07 11.45386
vt 5.31496 -1.791494
vt -5.31496 -1.791494
vt 3.826771 11.45386
vt -3.826771 11.45386
vt -5.314958 -1.791496
vt 5.314962 -1.791496
vt 3.826772 11.45386
vt 3.414873 17.14965
vt 1.162471 11.31083
vt 3.002975 22.98846
vt -1.742221 22.98846
vt -3.826773 11.31083
vt -4.843593 12.42702
vt -4.79552 19.59407
vt -0.5822029 19.59407
vt 2.706146 9.977708
vt -1.026017 -0.8747672
vt -2.945258 9.977708
vt 3.82677 11.69867
vt -9.269541E-07 11.69867
vt 2.629929 23.27954
vt -2.971021 17.48911
vt -2.115266 23.27954
vt 5.314959 -1.791494
vt -5.31496 -1.791494
vt 3.82677 11.45386
vt -4.965392 1.31979
vt -0.3769325 11.45386
vt 3.826772 11.649
vt -3.82677 11.649
vt 2.913165 17.44512
vt -2.745641 23.24124
vt -1.302761 23.24124
vt 7.653543 12.97543
vt -7.653543 12.97543
vt 4.487865 24.40744
vt -6.328038 18.69144
vt -0.257333 24.40744
vt -0.4018753 19.03571
vt 2.706146 13.31764
vt -2.945258 13.31764

usemtl grass

f 3/3/1 2/2/1 1/1/1
f 2/2/1 3/3/1 4/4/1
f 4/4/1 3/3/1 5/5/1
f 8/8/1 7/7/1 6/6/1
f 7/7/1 8/8/1 9/9/1
f 9/9/1 8/8/1 10/10/1

usemtl dirt

f 13/13/2 12/12/2 11/11/2
f 12/12/2 13/13/2 14/14/2
f 12/12/2 14/14/2 6/15/2
f 17/18/3 16/17/3 15/16/3
f 16/17/3 17/18/3 10/19/3
f 10/19/3 17/18/3 9/20/3
f 9/23/4 17/22/4 7/21/4
f 19/26/5 11/25/5 18/24/5
f 11/25/5 19/26/5 13/27/5
f 13/27/5 19/26/5 20/28/5
f 8/31/6 18/30/6 21/29/6
f 18/30/6 8/31/6 19/32/6
f 16/34/7 8/19/7 21/33/7
f 8/19/7 16/34/7 10/35/7
f 1/38/8 14/37/8 22/36/8
f 14/37/8 1/38/8 2/39/8
f 14/37/8 2/39/8 6/40/8
f 4/43/9 5/42/9 23/41/9
f 14/46/10 13/45/10 20/44/10
f 3/49/11 20/48/11 19/47/11
f 20/48/11 3/49/11 22/50/11
f 22/50/11 3/49/11 1/51/11
f 6/54/12 15/53/12 12/52/12
f 15/53/12 6/54/12 17/55/12
f 17/55/12 6/54/12 7/56/12
f 23/59/13 19/58/13 8/57/13
f 19/58/13 23/59/13 3/60/13
f 3/60/13 23/59/13 5/61/13
f 2/64/14 8/63/14 6/62/14
f 8/63/14 2/64/14 23/65/14
f 23/65/14 2/64/14 4/66/14
f 14/69/15 20/68/15 22/67/15

usemtl _defaultMat

f 12/69/16 18/68/16 11/67/16
f 18/69/16 12/68/16 15/67/16
f 18/69/16 15/68/16 21/67/16
f 21/69/16 15/68/16 16/67/16

