# Created by Kenney (www.kenney.nl)

mtllib rock_largeF.mtl

g rock_largeF

v -0.4381837 0 0.04342762
v -0.5477294 0.211068 0.05689567
v -0.08401575 0 0.357504
v -0.1050197 0.211068 0.4494912
v 0.3017828 0.1388561 -0.4389089
v 0.2591593 0 -0.378393
v 0.4050211 0.211068 -0.3798001
v 0.5477294 0.211068 -0.2203558
v 0.3707707 0 -0.2536923
v 0.4929563 0.105534 -0.1993647
v 0.3791972 0.211068 0.04446041
v 0.3707707 0 -0.07244708
v 0.3033578 0 0.03347941
v -0.1448996 0 -0.2814284
v 0.05175228 0 -0.312946
v -0.3842455 0.105534 -0.2798439
v 0.06469035 0.211068 -0.3885715
v -0.4269393 0.211068 -0.3097772
v 0.25775 0.211068 -0.4494912
v 0.03986219 0.478962 -0.2434463
v 0.3017828 0.2588291 -0.4389089
v 0.1996174 0.478962 -0.2938568
v -0.3898675 0 -0.1032416
v -0.3450098 0.345015 -0.2523353
v -0.3002955 0.478962 -0.08192141
v -0.3375108 0.478962 0.0310505
v -0.1116089 0.478962 -0.2191698
v 0.4426201 0.345015 -0.1800738
v 0.2855861 0.478962 -0.05820198
v 0.2730123 0.478962 -0.2118545
v 0.2217587 0 0.2525759
v 0.2771983 0.211068 0.318331
v 0.2336614 0.478962 0.02338788
v 0.1708096 0.478962 0.1921469
v -0.06471312 0.478962 0.2729678

vn -0.6177046 -0.3650396 0.6965538
vn 0.6612604 -0.4609201 -0.5918508
vn 0.8008935 -0.3142886 0.509698
vn -0.1496413 -0.3253617 -0.933674
vn -0.2703609 0.4390929 -0.8567978
vn -0.3548771 -0.7975191 -0.4878784
vn -0.7725712 0.5816895 -0.2545017
vn -0.3719444 0.7747171 -0.511342
vn -0.2863346 -0.3075758 -0.9074192
vn 0.6248483 0.77907 -0.05113303
vn 0.8831549 -0.3344409 0.3289175
vn 0.8257623 0.4727941 0.3075424
vn -0.5707366 0.5099522 0.6435903
vn 0.2814482 0.4980932 0.8201769
vn 0.4199057 -0.190521 -0.8873449
vn 0.5860359 0.6176069 -0.5245223
vn -0.1403904 0.4615154 -0.8759532
vn 0.4242597 0.1273177 -0.8965456
vn 0.6536554 -0.7567924 0
vn -0.8585953 -0.4275694 -0.2828401
vn 0.7544114 0.4476068 0.4801162
vn 0.3034167 -0.3551546 0.8841966
vn 0 -1 0
vn 0 1 0

vt -11.77277 4.645239
vt -14.64775 13.57095
vt 6.86383 4.645238
vt 8.647997 13.57095
vt 4.951978 14.24376
vt 4.29584 8.083609
vt 0.5072829 17.44734
vt -7.917191 17.44734
vt -2.292899 8.083609
vt -7.094828 12.76547
vt 18.89685 12.14245
vt 17.04185 7.76579
vt 6.538735 12.14245
vt 10.24362 3.389133
vt 5.300372 3.389133
vt 3.879416 3.853265
vt -3.961592 3.853265
vt 13.19361 8.247224
vt -4.935722 12.64118
vt 14.66679 12.64118
vt -7.032348 1.396434
vt -15.00255 1.396433
vt -4.380824 13.13566
vt -16.5304 3.489347
vt -10.9761 13.13566
vt -1.904186 9.822154
vt 5.752861 16.70915
vt 10.02175 9.822154
vt -6.3245 -4.746916
vt -5.185774 1.73628
vt 8.874557 -4.746918
vt 0.6357786 8.219478
vt 5.318606 8.219479
vt -1.522272 4.514892
vt 7.663683 4.514892
vt 5.14073 -3.825195
vt -5.650626 3.425318
vt -14.21314 3.425318
vt -7.032349 12.15843
vt -16.5304 9.170604
vt -15.00255 12.15843
vt 5.644637 -5.465456
vt 1.366758 2.946081
vt 7.436291 2.946081
vt 2.933161 3.896982
vt -6.271502 3.896982
vt 3.570112 12.71449
vt -7.935712 12.71449
vt 2.3478 12.38828
vt 3.570112 0.4189933
vt -4.74209 12.38828
vt -7.935712 0.4189928
vt 8.647998 -1.002759
vt -14.64775 -1.002759
vt 5.224185 11.25831
vt -9.130655 11.25831
vt 6.254639 -0.4632477
vt -9.654654 -0.4632477
vt 3.905333 11.69996
vt -5.897973 11.69996
vt -1.602952 12.03207
vt -8.017451 12.03207
vt -3.348141 13.94752
vt -7.917189 -6.961609
vt -6.33908 -0.2564687
vt 0.507285 -6.961606
vt -0.9534419 6.448668
vt 4.95198 -4.570774
vt 3.379269 6.448668
vt 14.66679 0.5865347
vt -4.935722 0.5865344
vt 11.83975 6.530974
vt -3.066367 12.47541
vt 2.973169 12.47541
vt -1.602952 5.652949
vt -3.348141 2.786634
vt -8.017451 5.652949
vt 2.852247 11.0471
vt 7.849005 17.40348
vt 9.987887 11.0471
vt -6.324497 15.96946
vt 8.87456 15.96946
vt -5.7311 11.37327
vt 0.9419138 6.777066
vt 7.021539 6.777069
vt 18.89685 1.372678
vt 6.538737 1.372679
vt 15.33711 7.269933
vt 7.969848 13.16718
vt 4.162314 13.16718
vt 5.030406 4.346854
vt -7.697028 4.346853
vt 6.25464 13.23613
vt -9.654653 13.23613
vt 14.59727 -2.852247
vt 14.59727 -9.987887
vt 11.94322 1.318087
vt 10.20312 -14.89736
vt 8.730657 9.943933
vt 2.037492 -12.32071
vt -3.307707 14.07496
vt -5.70471 -11.07986
vt -17.25133 1.709749
vt -15.34911 -4.064628
vt -11.24355 -2.291417
vt -9.199266 0.9207829
vt -10.74852 -8.340729
vt -7.858954 -11.56917
vt -6.724788 7.56484
vt -1.569378 -9.584501
vt 2.547761 10.74677
vt 4.394053 -8.628734
vt 13.28783 1.222461
vt 11.82266 -3.225252

usemtl dirt

f 3/3/1 2/2/1 1/1/1
f 2/2/1 3/3/1 4/4/1
f 7/7/2 6/6/2 5/5/2
f 6/6/2 7/7/2 8/8/2
f 6/6/2 8/8/2 9/9/2
f 9/9/2 8/8/2 10/10/2
f 11/13/3 10/12/3 8/11/3
f 10/12/3 11/13/3 12/14/3
f 12/14/3 11/13/3 13/15/3
f 16/18/4 15/17/4 14/16/4
f 15/17/4 16/18/4 17/19/4
f 17/19/4 16/18/4 18/20/4
f 20/23/5 19/22/5 17/21/5
f 19/22/5 20/23/5 21/24/5
f 21/24/5 20/23/5 22/25/5
f 23/28/6 16/27/6 14/26/6
f 2/31/7 24/30/7 18/29/7
f 24/30/7 2/31/7 25/32/7
f 25/32/7 2/31/7 26/33/7
f 24/36/8 25/35/8 27/34/8
f 17/39/9 6/38/9 15/37/9
f 6/38/9 17/39/9 5/40/9
f 5/40/9 17/39/9 19/41/9
f 30/44/10 29/43/10 28/42/10
f 11/47/11 31/46/11 13/45/11
f 31/46/11 11/47/11 32/48/11
f 34/51/12 11/50/12 33/49/12
f 11/50/12 34/51/12 32/52/12
f 35/55/13 2/54/13 4/53/13
f 2/54/13 35/55/13 26/56/13
f 34/59/14 4/58/14 32/57/14
f 4/58/14 34/59/14 35/60/14
f 21/63/15 7/62/15 19/61/15
f 7/66/16 28/65/16 8/64/16
f 28/65/16 7/66/16 30/67/16
f 30/67/16 7/66/16 21/68/16
f 30/67/16 21/68/16 22/69/16
f 24/72/17 17/71/17 18/70/17
f 17/71/17 24/72/17 20/73/17
f 20/73/17 24/72/17 27/74/17
f 7/77/18 5/76/18 19/75/18
f 9/80/19 10/79/19 12/78/19
f 16/83/20 2/82/20 18/81/20
f 2/82/20 16/83/20 23/84/20
f 2/82/20 23/84/20 1/85/20
f 28/88/21 11/87/21 8/86/21
f 11/87/21 28/88/21 29/89/21
f 11/87/21 29/89/21 33/90/21
f 32/93/22 3/92/22 31/91/22
f 3/92/22 32/93/22 4/94/22
f 13/97/23 9/96/23 12/95/23
f 9/96/23 13/97/23 6/98/23
f 6/98/23 13/97/23 31/99/23
f 6/98/23 31/99/23 15/100/23
f 15/100/23 31/99/23 3/101/23
f 15/100/23 3/101/23 14/102/23
f 14/102/23 3/101/23 1/103/23
f 14/102/23 1/103/23 23/104/23

usemtl grass

f 30/107/24 33/106/24 29/105/24
f 33/106/24 30/107/24 22/108/24
f 33/106/24 22/108/24 34/109/24
f 34/109/24 22/108/24 20/110/24
f 34/109/24 20/110/24 35/111/24
f 35/111/24 20/110/24 27/112/24
f 35/111/24 27/112/24 26/113/24
f 26/113/24 27/112/24 25/114/24

usemtl _defaultMat

f 7/44/24 11/43/24 8/42/24
f 11/44/24 7/43/24 19/42/24
f 11/44/24 19/43/24 32/42/24
f 32/44/24 19/43/24 4/42/24
f 4/44/24 19/43/24 17/42/24
f 4/44/24 17/43/24 18/42/24
f 4/44/24 18/43/24 2/42/24

