# Created by Kenney (www.kenney.nl)

mtllib rock_smallTopB.mtl

g rock_smallTopB

v -0.08725818 0.16 -0.02403352
v 0.04830386 0.16 -0.06251042
v -0.07892283 0.1954933 -0.01800836
v 0.03988329 0.28 -0.03175108
v -0.02667954 0.28 -0.01285839
v 0.05958598 0.19 -0.1399178
v 0.07173277 0.16 -0.138784
v 0.02978266 0.19 -0.1082369
v 0.03145802 0.16 -0.09597207
v -0.2960467 0 -0.2139954
v -0.2320917 0.1329415 -0.167766
v -0.3110718 0 0.185416
v -0.2212797 0.16 -0.09973733
v -0.2272047 0.16 0.0577666
v -0.2914399 0.03883719 0.1737143
v -0.0217041 0.16 -0.121046
v -0.009557309 0.19 -0.1267917
v -0.01428535 0.16 -0.1793545
v 0.04346181 0.16 -0.1903172
v -0.004067433 0.19 -0.1699399
v 0.03866547 0.19 -0.1780523
v 0.2516654 0.1175221 0.007144932
v 0.3110718 0 0.008831516
v 0.1922125 0.16 0.05487938
v 0.06414808 0 0.3231307
v 0.04746958 0.16 0.2391167
v -0.06034299 0.28 0.02999044
v 0.0397327 0.16 0.1653366
v -0.09255545 0.16 0.1167837
v 0.03362634 0.28 0.1345772
v -0.06294401 0.28 0.0991336
v 0.1107275 0.16 -0.171613
v 0.1119828 0.22 0.05410638
v 0.1267885 0.16 0.05452672
v 0.06540173 0.28 0.09413164
v 0.07793301 0.28 0.02498905
v -0.1555635 0.16 0.1645987
v 0.08845916 0 -0.3231307
v 0.06545978 0.16 -0.2391167
v -0.02667954 0.16 -0.2129646

vn -0.2662482 0.2217646 -0.9380471
vn 0.6935459 0.3054692 0.6524435
vn -0.8960031 0.4427666 -0.03370595
vn -0.4031422 0.3269321 0.8547466
vn -0.1748144 0.3485237 -0.9208534
vn 0.7284988 0.3764637 0.5723326
vn -0.6965812 0.4639876 -0.5472571
vn -0.3362828 0.2177466 0.9162425
vn -0.9714661 0.2343457 -0.03654464
vn 0.4776265 0.8615949 -0.1718353
vn -0.9280816 0.3531585 -0.1180824
vn 0.7713202 0.1945777 0.6059741
vn 0.8269091 0.5419971 0.1498675
vn -0.5951726 0.6974759 0.3991205
vn -0.2475048 0.4223035 -0.8720098
vn 0.8142486 0.1971001 -0.5460319
vn 0 -1 0
vn -0.3133744 0.4156667 0.8538254
vn -0.1952272 0.9215776 -0.3355309
vn 0.767963 0.3808081 -0.5149932
vn 0.8308737 0.3191888 -0.4558152
vn 0 1 0

vt 3.046463 5.732485
vt -2.501442 5.732485
vt 2.795539 7.165542
vt -1.851862 10.57753
vt 0.8722359 10.57753
vt 5.619627 7.753803
vt 5.914789 6.513412
vt 3.907179 7.753803
vt 3.600673 6.513412
vt -7.980917 -5.297194
vt -6.256801 0.5400825
vt 7.755063 -5.297194
vt -3.596401 1.728183
vt 2.608927 1.728183
vt 7.265637 -3.591907
vt -0.4916535 7.243039
vt -2.805768 7.243039
vt -0.7572936 8.492819
vt -2.46974 8.49282
vt -0.7644276 3.449879
vt -3.078543 3.449879
vt -1.090519 4.709991
vt -2.802964 4.709991
vt 5.89984 1.28793
vt 7.292515 -3.706346
vt 2.976025 3.093092
vt -8.44347 -3.706346
vt -6.248167 3.093092
vt 1.362057 5.48105
vt 0.2508249 9.236839
vt 2.396133 9.236839
vt 3.711281 4.934833
vt -1.836624 4.934833
vt 3.068343 9.775389
vt -0.9816271 9.775389
vt -0.8163926 5.310972
vt -0.5916854 6.748373
vt 4.731514 5.310972
vt 1.269198 10.17071
vt 3.993295 10.17071
vt -3.618845 -5.602094
vt -4.594814 -2.307434
vt 4.881736 -2.307434
vt -6.933746 5.381534
vt -6.61683 6.643984
vt -4.619629 5.381534
vt -4.904388 6.643984
vt 1.048598 7.565243
vt 1.395691 5.15701
vt -1.32348 9.973475
vt -4.152214 5.15701
vt -3.348464 9.973475
vt -0.4208843 7.532629
vt -1.309797 4.721753
vt -3.18738 7.532629
vt -3.093144 -1.551125
vt 1.971011 -1.551125
vt -0.7103475 -8.207745
vt 8.912059 -4.766684
vt -6.823925 -4.766683
vt 6.986785 1.007371
vt -5.049704 2.182604
vt -1.278883 2.182604
vt 0.9848137 5.594167
vt -4.56309 5.594167
vt 0.1636723 10.41311
vt -2.525977 10.41311
vt -4.224694 8.003637
vt 12.24692 0.3476975
vt 3.482644 -12.72168
vt 2.525515 12.72168
vt -11.65538 -8.425016
vt -12.24692 7.299842
vt 6.754132 -4.602485
vt -8.981853 -4.602485
vt 4.998057 2.323403
vt -8.415003 -2.921347
vt -3.516751 2.323403
vt -3.308748 -4.720161
vt 5.555173 -4.720161
vt 4.57615 -7.464396
vt 8.62619 -3.799672
vt -7.109794 -3.799672
vt 6.38338 3.012836
vt 3.183507 3.012836
vt -5.752014 1.204204
vt 5.746207 4.340561
vt 3.432091 4.340561
vt 5.413682 5.586856
vt 3.701238 5.586855
vt -2.345905 -5.508575
vt -1.172546 -4.261295
vt -1.522263 -7.009933
vt 0.1601351 -6.690547
vt 0.376272 -4.991799
vt -4.35935 -6.756417
vt -2.824125 -5.463937
vt -2.577157 -9.414043
vt -1.711095 -7.492803
vt 1.050376 -8.384434
vt 0.5624154 -7.061201
vt 0.8544921 -4.76559
vt -1.901727 -2.46104
vt -4.991673 2.146721
vt -7.567421 2.160605
vt -1.238505 -3.778428
vt 3.435361 -0.9462016
vt 8.711799 -3.926666
vt 3.643915 4.597784
vt 6.124547 6.480264
vt 8.945067 2.274276
vt -1.868881 9.414043
vt -1.56428 6.509315
vt -3.068229 0.9838209
vt -2.574871 3.70597
vt -1.570208 -1.250043
vt -1.323872 5.298315
vt 1.050376 -0.5062358
vt 2.478111 3.902898
vt 2.375708 1.180726

usemtl dirt

f 3/3/1 2/2/1 1/1/1
f 2/2/1 3/3/1 4/4/1
f 4/4/1 3/3/1 5/5/1
f 8/8/2 7/7/2 6/6/2
f 7/7/2 8/8/2 9/9/2
f 12/12/3 11/11/3 10/10/3
f 11/11/3 12/12/3 13/13/3
f 13/13/3 12/12/3 14/14/3
f 14/14/3 12/12/3 15/15/3
f 8/18/4 16/17/4 9/16/4
f 16/17/4 8/18/4 17/19/4
f 20/22/5 19/21/5 18/20/5
f 19/21/5 20/22/5 21/23/5
f 24/26/6 23/25/6 22/24/6
f 23/25/6 24/26/6 25/27/6
f 25/27/6 24/26/6 26/28/6
f 27/31/7 5/30/7 3/29/7
f 30/34/8 29/33/8 28/32/8
f 29/33/8 30/34/8 31/35/8
f 29/38/9 3/37/9 1/36/9
f 3/37/9 29/38/9 27/39/9
f 27/39/9 29/38/9 31/40/9
f 32/43/10 24/42/10 22/41/10
f 16/46/11 20/45/11 18/44/11
f 20/45/11 16/46/11 17/47/11
f 35/50/12 34/49/12 33/48/12
f 34/49/12 35/50/12 28/51/12
f 28/51/12 35/50/12 30/52/12
f 35/55/13 33/54/13 36/53/13
f 15/58/14 37/57/14 14/56/14
f 11/61/15 38/60/15 10/59/15
f 38/60/15 11/61/15 39/62/15
f 39/62/15 11/61/15 40/63/15
f 4/66/16 34/65/16 2/64/16
f 34/65/16 4/66/16 36/67/16
f 34/65/16 36/67/16 33/68/16
f 25/71/17 38/70/17 23/69/17
f 38/70/17 25/71/17 10/72/17
f 10/72/17 25/71/17 12/73/17
f 26/76/18 12/75/18 25/74/18
f 12/75/18 26/76/18 15/77/18
f 15/77/18 26/76/18 37/78/18
f 11/81/19 13/80/19 40/79/19
f 39/84/20 23/83/20 38/82/20
f 23/83/20 39/84/20 32/85/20
f 23/83/20 32/85/20 22/86/20
f 21/89/21 7/88/21 19/87/21
f 7/88/21 21/89/21 6/90/21

usemtl grass

f 21/93/22 8/92/22 6/91/22
f 8/92/22 21/93/22 20/94/22
f 8/92/22 20/94/22 17/95/22
f 39/98/22 7/97/22 32/96/22
f 7/97/22 39/98/22 19/99/22
f 19/99/22 39/98/22 40/100/22
f 19/99/22 40/100/22 18/101/22
f 18/101/22 40/100/22 16/102/22
f 2/103/22 32/96/22 7/97/22
f 34/104/22 32/96/22 2/103/22
f 32/96/22 34/104/22 24/105/22
f 2/103/22 7/97/22 9/106/22
f 2/103/22 9/106/22 1/107/22
f 1/107/22 9/106/22 16/102/22
f 1/107/22 16/102/22 40/100/22
f 1/107/22 40/100/22 13/108/22
f 1/107/22 13/108/22 29/109/22
f 29/109/22 13/108/22 37/110/22
f 37/110/22 13/108/22 14/111/22
f 34/104/22 26/112/22 24/105/22
f 26/112/22 34/104/22 28/113/22
f 26/112/22 28/113/22 37/110/22
f 37/110/22 28/113/22 29/109/22
f 4/116/22 35/115/22 36/114/22
f 35/115/22 4/116/22 30/117/22
f 30/117/22 4/116/22 5/118/22
f 30/117/22 5/118/22 31/119/22
f 31/119/22 5/118/22 27/120/22

