# Created by Kenney (www.kenney.nl)

mtllib sign.mtl

g sign

v 0.01749999 0 0.0175
v -0.01749999 0 0.0175
v 0.01749999 0.2031705 0.0175
v -0.01749999 0.2031705 0.0175
v -0.01749999 0 -0.0175
v -0.01749999 0.4087705 -0.0175
v -0.01749999 0.4087705 0.0175
v -0.01749999 0.3807705 0.0175
v 0.01749999 0.4087705 0.0175
v 0.01749999 0.4087705 -0.0175
v 0.12 0.2331705 0.0525
v -0.12 0.2331705 0.0525
v 0.12 0.3507705 0.0525
v -0.12 0.3507705 0.0525
v 0.01749999 0.3807705 0.0175
v 0.01749999 0 -0.0175
v -0.15 0.2031705 0.0175
v -0.15 0.3807705 0.0175
v -0.15 0.2031705 0.0525
v -0.15 0.3807705 0.0525
v 0.15 0.3807705 0.0175
v 0.15 0.2031705 0.0175
v 0.15 0.3807705 0.0525
v 0.15 0.2031705 0.0525

vn 0 0 1
vn -1 0 0
vn 0 1 0
vn 1 0 0
vn 0 0 -1
vn 0 -1 0

vt 0.6889762 0
vt -0.6889762 0
vt 0.6889762 7.998837
vt -0.6889762 7.998837
vt -0.6889763 0
vt -0.6889763 16.09333
vt 0.6889763 0
vt 0.6889763 16.09333
vt 0.6889763 7.998837
vt 0.6889763 14.99096
vt -0.6889762 0.6889763
vt 0.6889762 0.6889763
vt -0.6889762 -0.6889763
vt 0.6889762 -0.6889763
vt 4.72441 9.17994
vt -4.72441 9.17994
vt 4.72441 13.80986
vt -4.72441 13.80986
vt 0.6889762 14.99096
vt -0.6889762 14.99096
vt 0.6889762 16.09333
vt -0.6889762 16.09333
vt -0.6889763 14.99096
vt -0.6889763 7.998837
vt 0.6889762 -2.883133E-15
vt -0.6889762 -2.883133E-15
vt 2.066929 7.998837
vt 2.066929 14.99096
vt -2.066929 14.99096
vt -2.066929 7.998837
vt -5.905512 7.998837
vt -5.905512 14.99096
vt 5.905512 2.066929
vt 5.905512 0.6889763
vt -5.905512 2.066929
vt -5.905512 0.6889763
vt 5.905512 7.998837
vt 5.905512 14.99096

usemtl wood

f 3/3/1 2/2/1 1/1/1
f 2/2/1 3/3/1 4/4/1
f 2/7/2 6/6/2 5/5/2
f 6/6/2 2/7/2 7/8/2
f 7/8/2 2/7/2 4/9/2
f 7/8/2 4/9/2 8/10/2
f 10/13/3 7/12/3 9/11/3
f 7/12/3 10/13/3 6/14/3
f 13/17/1 12/16/1 11/15/1
f 12/16/1 13/17/1 14/18/1
f 9/21/1 8/20/1 15/19/1
f 8/20/1 9/21/1 7/22/1
f 9/6/4 16/7/4 10/8/4
f 16/7/4 9/6/4 1/5/4
f 1/5/4 9/6/4 15/23/4
f 1/5/4 15/23/4 3/24/4
f 6/21/5 16/26/5 5/25/5
f 16/26/5 6/21/5 10/22/5

usemtl woodDark

f 19/27/2 18/10/2 17/9/2
f 18/10/2 19/27/2 20/28/2
f 23/29/4 22/24/4 21/23/4
f 22/24/4 23/29/4 24/30/4
f 3/4/5 21/32/5 22/31/5
f 21/32/5 3/4/5 15/20/5
f 19/35/6 22/34/6 24/33/6
f 22/34/6 19/35/6 3/12/6
f 3/12/6 19/35/6 4/11/6
f 4/11/6 19/35/6 17/36/6
f 15/11/3 23/35/3 21/36/3
f 23/35/3 15/11/3 20/33/3
f 20/33/3 15/11/3 8/12/3
f 20/33/3 8/12/3 18/34/3
f 18/38/5 4/3/5 17/37/5
f 4/3/5 18/38/5 8/19/5
f 24/37/1 11/15/1 19/31/1
f 11/15/1 24/37/1 23/38/1
f 11/15/1 23/38/1 13/17/1
f 13/17/1 23/38/1 14/18/1
f 12/16/1 19/31/1 11/15/1
f 19/31/1 12/16/1 20/32/1
f 20/32/1 12/16/1 14/18/1
f 20/32/1 14/18/1 23/38/1

usemtl _defaultMat

f 2/26/6 16/21/6 1/22/6
f 16/26/6 2/21/6 5/22/6

