# Created by Kenney (www.kenney.nl)

mtllib statue_head.mtl

g statue_head

v 0.1072101 0.3398097 0.3144203
v -0.1072101 0.3398097 0.2644203
v -0.1072101 0.3398097 0.3144203
v -0.1608152 0.3398097 0.1644203
v 0.1072101 0.3398097 0.2644203
v 0.1608152 0.3398097 0.2144203
v 0.1608152 0.3398097 0.1644203
v -0.1608152 0.3398097 0.2144203
v 0.09089717 0.6456779 0.1817943
v -0.09089717 0.6456779 0.1817943
v 0.2 0 0.2
v -0.2 0 0.2
v 0.24 0.1 0.24
v -0.24 0.1 0.24
v -0.08624849 0.2302932 0.1644203
v -0.08624849 0.2702932 0.1644203
v -0.08624849 0.2302932 0.2261021
v -0.08624849 0.2702932 0.2261021
v -0.21632 0.322 0.039045
v -0.306 0.322 0.039045
v -0.21024 0.379 0.039045
v -0.2823898 0.379 0.039045
v -0.363 0.379 0.039045
v -0.306 0.4026102 0.039045
v -0.363 0.493 0.039045
v -0.306 0.4693898 0.039045
v -0.2823898 0.493 0.039045
v -0.306 0.55 0.039045
v -0.19808 0.493 0.039045
v -0.192 0.55 0.039045
v 0.144 1 -0.144
v 0.192 0.55 -0.039045
v 0.144 1 0.044
v 0.192 0.55 0.039045
v 0.19808 0.493 0.039045
v 0.21024 0.379 0.039045
v 0.21632 0.322 0.039045
v 0.21632 0.322 -0.039045
v 0.24 0.1 -0.24
v 0.1940291 0.5309773 0.1240291
v 0.1817943 0.6456779 0.1240291
v 0.1817943 0.6456779 0.1817943
v 0.1940291 0.5309773 0.1940291
v 0.21024 0.379 6.641585E-14
v 0.19808 0.493 6.298677E-14
v 0.2 0 -0.2
v -0.144 1 0.044
v -0.044 1 0.144
v -0.1817943 0.6456779 0.1817943
v 0.1 0.2702932 0.1644203
v 0.1 0.2702932 0.2261021
v 0.044 1 0.144
v 0.306 0.322 0.039045
v 0.363 0.379 0.039045
v 0.2823898 0.379 0.039045
v 0.306 0.4026102 0.039045
v 0.363 0.493 0.039045
v 0.306 0.4693898 0.039045
v 0.2823898 0.493 0.039045
v 0.306 0.55 0.039045
v 0.1 0.2302932 0.1644203
v 0.1 0.2302932 0.2261021
v 0.306 0.322 -0.039045
v 0.363 0.379 -0.039045
v 0.363 0.493 -0.039045
v 0.306 0.55 -0.039045
v -0.09701454 0.5309773 0.1940291
v -0.1021123 0.4353935 0.2042247
v -0.24 0.1 -0.24
v -0.144 1 -0.144
v 0.09701454 0.5309773 0.1940291
v 0.1021123 0.4353935 0.2042247
v -0.192 0.55 -0.039045
v -0.21632 0.322 -0.039045
v -0.19808 0.493 -4.854854E-14
v -0.21024 0.379 -5.197762E-14
v -0.1940291 0.5309773 0.1240291
v -0.1940291 0.5309773 0.1940291
v -0.1817943 0.6456779 0.1240291
v -0.2 0 -0.2
v -0.306 0.322 -0.039045
v -0.363 0.379 -0.039045
v -0.363 0.493 -0.039045
v -0.306 0.55 -0.039045
v 0.172497 0.2302932 0.2261021
v -0.172497 0.2302932 0.2261021
v 0.09089717 0.6456779 0.1240291
v 0.09701454 0.5309773 0.1240291
v 0.2823898 0.493 8.662937E-14
v 0.172497 0.2302932 0.1644203
v -0.172497 0.2302932 0.1644203
v 0.306 0.4026102 9.330705E-14
v 0.306 0.4693898 9.330705E-14
v -0.306 0.4693898 -7.90493E-14
v -0.306 0.4026102 -7.90493E-14
v -0.2823898 0.379 -7.219114E-14
v -0.2823898 0.493 -7.219114E-14
v 0.2823898 0.379 8.662937E-14
v -0.09701454 0.5309773 0.1240291
v -0.09089717 0.6456779 0.1240291

vn 0 -1 0
vn 0 0.3978171 0.9174647
vn 0 -0.3713907 0.9284768
vn -1 0 0
vn 0 0 1
vn 0.9943592 0.106065 0
vn 0.9284768 -0.3713907 0
vn -0.6673221 0.3306997 0.6673221
vn 0 1 0
vn 0 0.106065 0.9943592
vn 1 0 0
vn 0 0 -1
vn -0.9985808 0.05325764 0
vn 0 0.106065 -0.9943592
vn 0.9985808 0.05325764 0
vn -0.9943592 0.106065 0
vn 0 -0.3713907 -0.9284768
vn 0.6673221 0.3306997 0.6673221
vn -0.9284768 -0.3713907 0
vn -0.6108328 0.4449967 0.6548748
vn -0.7071068 -0.7071068 0
vn 0.6108328 0.4449967 0.6548748
vn 0.7071068 0.7071068 0
vn 0.7071068 -0.7071068 0
vn -0.7071068 0.7071068 0
vn -0.9943592 -0.106065 0
vn 0.9943592 -0.106065 0

vt 4.220872 12.37875
vt -4.220872 10.41025
vt -4.220872 12.37875
vt -6.331308 6.47324
vt 4.220872 10.41025
vt 6.331308 8.441744
vt 6.331308 6.47324
vt -6.331308 8.441744
vt 4.220872 7.34967
vt -4.220872 7.34967
vt 3.578629 20.47503
vt -3.578629 20.47503
vt 7.874016 2.924336
vt -7.874016 2.924336
vt 9.448819 7.164623
vt -9.448819 7.164623
vt 6.47324 9.066663
vt 6.47324 10.64147
vt 8.901656 9.066663
vt 8.901656 10.64147
vt -8.516536 12.67717
vt -12.04724 12.67717
vt -8.277165 14.92126
vt -11.11771 14.92126
vt -14.29134 14.92126
vt -12.04724 15.85079
vt -14.29134 19.40945
vt -12.04724 18.47991
vt -11.11771 19.40945
vt -12.04724 21.65354
vt -7.798425 19.40945
vt -7.559055 21.65354
vt 5.669291 38.54669
vt 1.537205 20.72965
vt -1.732283 38.54669
vt -1.537205 20.72965
vt -1.537205 18.47282
vt -1.537205 13.95917
vt -1.537205 11.70235
vt 1.537205 11.70235
vt 9.448819 2.912611
vt -9.448819 2.912611
vt -4.883035 19.97648
vt -4.883035 24.51787
vt -7.157258 24.51787
vt -7.63894 19.97648
vt -2.848903E-13 13.95917
vt -2.846459E-13 18.47282
vt -2.783885 35.42418
vt 2.783885 35.42418
vt -3.002043E-13 20.64283
vt -3.937008 6.47324
vt -3.937008 8.901656
vt 3.39561 6.47324
vt 3.39561 8.901656
vt 3.578629 24.51787
vt -3.578629 24.51787
vt 7.157258 24.51787
vt 1.732283 38.54669
vt 12.04724 12.67717
vt 8.516536 12.67717
vt 14.29134 14.92126
vt 11.11771 14.92126
vt 8.277165 14.92126
vt 12.04724 15.85079
vt 14.29134 19.40945
vt 12.04724 18.47991
vt 11.11771 19.40945
vt 12.04724 21.65354
vt 7.798425 19.40945
vt 7.559055 21.65354
vt -6.47324 10.64147
vt -6.47324 9.066663
vt -8.901656 10.64147
vt -8.901656 9.066663
vt 7.157258 25.19373
vt 12.37875 13.13455
vt 7.63894 20.67154
vt 8.040342 16.90305
vt 10.41025 13.13455
vt -5.669291 38.54669
vt -7.157258 25.19373
vt -7.63894 20.67154
vt -12.37875 13.13455
vt -8.040342 16.90305
vt -10.41025 13.13455
vt 1.537205 13.95917
vt 1.537205 18.47282
vt 2.820796E-13 18.47282
vt 2.817303E-13 13.95917
vt 4.883035 19.97648
vt 7.63894 19.97648
vt 4.883035 24.51787
vt -5.669291 -5.669291
vt -5.669291 1.732283
vt 5.669291 -5.669291
vt -1.732283 5.669291
vt 1.732283 5.669291
vt 5.669291 1.732283
vt -7.300827E-13 20.64283
vt -12.04724 -1.537205
vt -12.04724 1.537205
vt -7.559055 -1.537205
vt -7.559055 1.537205
vt 4.014126 7.311954
vt 1.128134 7.311954
vt 2.544405 11.51408
vt -1.537205 20.65643
vt 1.537205 20.65643
vt -1.537205 17.4828
vt 1.537205 17.4828
vt -1.537205 14.92126
vt -1.537205 19.40945
vt 1.537205 14.92126
vt 1.537205 19.40945
vt -8.516536 -1.537205
vt -8.516536 1.537205
vt -1.128134 7.311954
vt -4.014126 7.311954
vt -2.544405 11.51408
vt 12.04724 -1.537205
vt 8.516536 -1.537205
vt 12.04724 1.537205
vt 8.516536 1.537205
vt 7.559055 -1.537205
vt 7.559055 1.537205
vt 6.79122 8.071365
vt 6.331308 12.4075
vt 4.020171 16.19199
vt 3.81947 19.97648
vt -6.79122 8.071365
vt 3.937008 8.071365
vt -3.39561 8.071365
vt -6.331308 12.4075
vt -4.020171 16.19199
vt -3.81947 19.97648
vt 1.537205 6.792679
vt 1.537205 3.619051
vt -1.537205 6.792679
vt -1.537205 3.619051
vt 3.937008 9.066663
vt -3.39561 9.066663
vt 3.937008 10.64147
vt -3.39561 10.64147
vt -4.883035 25.19373
vt -4.883035 20.67154
vt 11.11771 3.410605E-12
vt 7.798425 2.479794E-12
vt 11.11771 1.537205
vt 7.798425 1.537205
vt 6.47324 12.63134
vt 8.441744 12.63134
vt 6.47324 8.295209
vt 8.901656 8.295209
vt 7.157258 4.883035
vt 3.578629 4.883035
vt 7.157258 7.157258
vt 3.578629 7.157258
vt -7.63894 4.883035
vt -7.63894 7.63894
vt -3.81947 4.883035
vt -3.81947 7.63894
vt 6.79122 6.47324
vt 6.79122 8.901656
vt 6.79122 9.066663
vt 6.331308 13.37833
vt -6.331308 13.37833
vt -6.79122 9.066663
vt 2.822423E-13 15.85079
vt 2.822423E-13 18.47991
vt 1.537205 15.85079
vt 1.537205 18.47991
vt -2.790865E-13 18.47991
vt -2.790865E-13 15.85079
vt -1.537205 18.47991
vt -1.537205 15.85079
vt 8.277165 -2.046363E-12
vt 8.277165 1.537205
vt 11.11771 -2.842171E-12
vt -6.79122 6.47324
vt -6.79122 8.901656
vt -7.798425 -1.91136E-12
vt -11.11771 -2.842171E-12
vt -7.798425 1.537205
vt -11.11771 1.537205
vt -2.790865E-13 19.72689
vt -2.874315E-13 18.41233
vt -1.537205 19.72689
vt -1.537205 18.41233
vt 2.810027E-13 18.41233
vt 2.822423E-13 19.72689
vt 1.537205 18.41233
vt 1.537205 19.72689
vt 3.81947 4.883035
vt 3.81947 7.63894
vt 7.63894 4.883035
vt 7.63894 7.63894
vt 7.63894 20.90462
vt 3.81947 20.90462
vt 7.157258 25.42039
vt 3.578629 25.42039
vt -3.81947 20.90462
vt -7.63894 20.90462
vt -3.578629 25.42039
vt -7.157258 25.42039
vt -2.790865E-13 4.548585
vt -1.537205 4.548585
vt -2.874315E-13 5.863145
vt -1.537205 5.863145
vt -6.47324 8.295209
vt -8.901656 8.295209
vt -6.47324 12.63134
vt -8.441744 12.63134
vt -11.11771 3.384741E-12
vt -8.277165 2.588933E-12
vt -8.277165 1.537205
vt 4.883035 20.67154
vt 4.883035 25.19373
vt 2.810027E-13 5.863145
vt 1.537205 5.863145
vt 2.822423E-13 4.548585
vt 1.537205 4.548585
vt -3.578629 4.883035
vt -7.157258 4.883035
vt -3.578629 7.157258
vt -7.157258 7.157258

usemtl stone

f 3/3/1 2/2/1 1/1/1
f 4/4/1 1/1/1 2/2/1
f 4/4/1 5/5/1 1/1/1
f 4/4/1 6/6/1 5/5/1
f 6/6/1 4/4/1 7/7/1
f 4/4/1 2/2/1 8/8/1
f 9/11/2 3/10/2 1/9/2
f 3/10/2 9/11/2 10/12/2
f 13/15/3 12/14/3 11/13/3
f 12/14/3 13/15/3 14/16/3
f 17/19/4 16/18/4 15/17/4
f 16/18/4 17/19/4 18/20/4
f 21/23/5 20/22/5 19/21/5
f 20/22/5 21/23/5 22/24/5
f 22/24/5 23/25/5 20/22/5
f 23/25/5 22/24/5 24/26/5
f 23/25/5 24/26/5 25/27/5
f 25/27/5 24/26/5 26/28/5
f 25/27/5 26/28/5 27/29/5
f 25/27/5 27/29/5 28/30/5
f 28/30/5 27/29/5 29/31/5
f 28/30/5 29/31/5 30/32/5
f 33/35/6 32/34/6 31/33/6
f 32/34/6 33/35/6 34/36/6
f 34/36/6 33/35/6 35/37/6
f 35/37/6 33/35/6 36/38/6
f 36/38/6 33/35/6 37/39/6
f 38/40/6 31/33/6 32/34/6
f 38/40/6 39/41/6 31/33/6
f 39/41/6 38/40/6 13/42/6
f 13/42/6 38/40/6 37/39/6
f 13/42/6 37/39/6 40/43/6
f 40/43/6 37/39/6 33/35/6
f 40/43/6 33/35/6 41/44/6
f 42/45/6 41/44/6 33/35/6
f 13/42/6 40/43/6 43/46/6
f 44/47/6 35/37/6 36/38/6
f 35/37/6 44/47/6 45/48/6
f 13/16/7 46/13/7 39/15/7
f 46/13/7 13/16/7 11/14/7
f 49/51/8 48/50/8 47/49/8
f 16/54/9 51/53/9 50/52/9
f 51/53/9 16/54/9 18/55/9
f 42/58/10 10/57/10 9/56/10
f 10/57/10 42/58/10 49/45/10
f 49/45/10 42/58/10 48/35/10
f 48/35/10 42/58/10 52/59/10
f 54/62/5 37/61/5 53/60/5
f 37/61/5 54/62/5 55/63/5
f 37/61/5 55/63/5 36/64/5
f 55/63/5 54/62/5 56/65/5
f 56/65/5 54/62/5 57/66/5
f 56/65/5 57/66/5 58/67/5
f 58/67/5 57/66/5 59/68/5
f 59/68/5 57/66/5 60/69/5
f 59/68/5 60/69/5 35/70/5
f 35/70/5 60/69/5 34/71/5
f 51/74/11 61/73/11 50/72/11
f 61/73/11 51/74/11 62/75/11
f 32/32/12 63/22/12 38/21/12
f 63/22/12 32/32/12 64/25/12
f 64/25/12 32/32/12 65/27/12
f 65/27/12 32/32/12 66/30/12
f 67/78/13 3/77/13 10/76/13
f 3/77/13 67/78/13 68/79/13
f 3/77/13 68/79/13 2/80/13
f 70/33/14 39/42/14 69/41/14
f 39/42/14 70/33/14 31/81/14
f 1/84/15 71/83/15 9/82/15
f 71/83/15 1/84/15 72/85/15
f 72/85/15 1/84/15 5/86/15
f 70/81/16 73/36/16 47/59/16
f 73/36/16 70/81/16 74/39/16
f 47/59/16 73/36/16 30/34/16
f 69/42/16 74/39/16 70/81/16
f 74/39/16 69/42/16 14/41/16
f 74/39/16 14/41/16 19/40/16
f 19/40/16 14/41/16 21/87/16
f 21/87/16 14/41/16 29/88/16
f 29/88/16 14/41/16 30/34/16
f 75/89/16 21/87/16 29/88/16
f 21/87/16 75/89/16 76/90/16
f 30/34/16 14/41/16 77/91/16
f 30/34/16 77/91/16 47/59/16
f 77/91/16 14/41/16 78/92/16
f 79/93/16 47/59/16 77/91/16
f 47/59/16 79/93/16 49/58/16
f 69/15/17 46/14/17 80/13/17
f 46/14/17 69/15/17 39/16/17
f 70/96/9 33/95/9 31/94/9
f 33/95/9 70/96/9 52/97/9
f 52/97/9 70/96/9 48/98/9
f 48/98/9 70/96/9 47/99/9
f 52/49/18 42/100/18 33/50/18
f 80/14/19 14/15/19 69/16/19
f 14/15/19 80/14/19 12/13/19
f 32/103/9 60/102/9 66/101/9
f 60/102/9 32/103/9 34/104/9
f 82/62/12 74/61/12 81/60/12
f 74/61/12 82/62/12 73/71/12
f 73/71/12 82/62/12 83/66/12
f 73/71/12 83/66/12 84/69/12
f 68/107/20 8/106/20 2/105/20
f 81/110/21 23/109/21 82/108/21
f 23/109/21 81/110/21 20/111/21
f 23/114/4 83/113/4 82/112/4
f 83/113/4 23/114/4 25/115/4
f 57/113/11 64/114/11 65/115/11
f 64/114/11 57/113/11 54/112/11
f 19/117/1 81/101/1 74/116/1
f 81/101/1 19/117/1 20/102/1
f 72/120/22 5/119/22 6/118/22
f 53/123/1 38/122/1 63/121/1
f 38/122/1 53/123/1 37/124/1
f 84/121/9 30/126/9 73/125/9
f 30/126/9 84/121/9 28/123/9
f 13/41/10 85/127/10 14/42/10
f 85/127/10 13/41/10 43/92/10
f 85/127/10 43/92/10 6/128/10
f 6/128/10 43/92/10 72/129/10
f 72/129/10 43/92/10 71/130/10
f 86/131/10 14/42/10 85/127/10
f 14/42/10 86/131/10 78/46/10
f 86/131/10 85/127/10 62/132/10
f 86/131/10 62/132/10 17/133/10
f 78/46/10 86/131/10 8/134/10
f 78/46/10 8/134/10 68/135/10
f 78/46/10 68/135/10 67/136/10
f 60/139/23 65/138/23 66/137/23
f 65/138/23 60/139/23 57/140/23
f 64/109/24 53/110/24 63/111/24
f 53/110/24 64/109/24 54/108/24
f 25/138/25 84/139/25 83/140/25
f 84/139/25 25/138/25 28/137/25
f 51/143/5 17/142/5 62/141/5
f 17/142/5 51/143/5 18/144/5

usemtl stoneDark

f 9/82/15 88/146/15 87/145/15
f 88/146/15 9/82/15 71/83/15
f 59/149/1 45/148/1 89/147/1
f 45/148/1 59/149/1 35/150/1
f 90/153/26 6/152/26 7/151/26
f 6/152/26 90/153/26 85/154/26
f 42/157/1 87/156/1 41/155/1
f 87/156/1 42/157/1 9/158/1
f 88/161/9 43/160/9 40/159/9
f 43/160/9 88/161/9 71/162/9
f 91/163/9 17/55/9 15/54/9
f 17/55/9 91/163/9 86/164/9
f 7/166/5 61/141/5 90/165/5
f 61/141/5 7/166/5 50/143/5
f 50/143/5 7/166/5 16/144/5
f 4/167/5 16/144/5 7/166/5
f 91/168/5 16/144/5 4/167/5
f 16/144/5 91/168/5 15/142/5
f 56/171/4 93/170/4 92/169/4
f 93/170/4 56/171/4 58/172/4
f 26/175/11 95/174/11 94/173/11
f 95/174/11 26/175/11 24/176/11
f 96/179/9 21/178/9 76/177/9
f 21/178/9 96/179/9 22/149/9
f 61/52/9 85/181/9 90/180/9
f 85/181/9 61/52/9 62/53/9
f 29/184/1 97/183/1 75/182/1
f 97/183/1 29/184/1 27/185/1
f 24/188/23 96/187/23 95/186/23
f 96/187/23 24/188/23 22/189/23
f 55/192/25 92/191/25 98/190/25
f 92/191/25 55/192/25 56/193/25
f 77/196/9 67/195/9 99/194/9
f 67/195/9 77/196/9 78/197/9
f 41/200/5 88/199/5 40/198/5
f 88/199/5 41/200/5 87/201/5
f 100/204/5 77/203/5 99/202/5
f 77/203/5 100/204/5 79/205/5
f 76/23/5 95/26/5 96/24/5
f 95/26/5 76/23/5 75/31/5
f 95/26/5 75/31/5 94/28/5
f 94/28/5 75/31/5 97/29/5
f 97/208/24 26/207/24 94/206/24
f 26/207/24 97/208/24 27/209/24
f 92/65/5 44/64/5 98/63/5
f 44/64/5 92/65/5 45/70/5
f 45/70/5 92/65/5 93/67/5
f 45/70/5 93/67/5 89/68/5
f 4/212/27 86/211/27 91/210/27
f 86/211/27 4/212/27 8/213/27
f 44/215/9 55/185/9 98/214/9
f 55/185/9 44/215/9 36/216/9
f 67/78/13 100/218/13 99/217/13
f 100/218/13 67/78/13 10/76/13
f 93/221/21 59/220/21 89/219/21
f 59/220/21 93/221/21 58/222/21
f 10/225/1 79/224/1 100/223/1
f 79/224/1 10/225/1 49/226/1

usemtl _defaultMat

f 11/167/1 80/144/1 46/166/1
f 80/167/1 11/144/1 12/166/1

