# Created by Kenney (www.kenney.nl)

mtllib statue_columnDamaged.mtl

g statue_columnDamaged

v 0.11 0.25 -0.06
v 0.08 0.25 -0.06
v 0.11 0.65 -0.06
v 0.08 0.5 -0.06
v 0.06 0.5 -0.06
v 0.06 0.65 -0.06
v -0.06 0.5 -0.06
v -0.06 0.5 0.06
v -0.08 0.5 -0.06
v -0.08 0.5 0.06
v -0.06 0.5 0.08
v -0.06 0.5 -0.08
v 0.06 0.5 0.08
v 0.06 0.5 0.06
v 0.06 0.5 -0.08
v 0.08 0.5 0.06
v -0.06 0.25 -0.11
v -0.06 0.55 -0.11
v -0.06 0.55 -0.06
v -0.06 0.25 -0.08
v -0.11 0.25 0.06
v -0.08 0.25 0.06
v -0.11 0.6 0.06
v -0.06 0.6 0.06
v 0.15 0.16 -0.15
v 0.15 0.16 0.15
v 0.11 0.2 -0.11
v 0.11 0.2 0.11
v -0.15 0.16 -0.15
v -0.11 0.2 -0.11
v -0.15 0.16 0.15
v -0.11 0.2 0.11
v 0.06 0.25 0.08
v 0.06 0.25 0.11
v 0.06 0.7 0.11
v 0.06 0.7 0.06
v 0.06 0.25 -0.11
v 0.06 0.65 -0.11
v 0.06 0.25 -0.08
v -0.11 0.55 -0.06
v -0.11 0.25 -0.06
v -0.08 0.25 -0.06
v 0.08 0.25 0.06
v 0.11 0.7 0.06
v 0.11 0.25 0.06
v -0.06 0.25 0.08
v -0.06 0.6 0.11
v -0.06 0.25 0.11
v 0.11 0.65 -0.11
v -0.11 0.55 -0.11
v -0.15 0 -0.15
v -0.15 0 0.15
v 0.15 0 -0.15
v 0.11 0.7 0.11
v 0.15 0 0.15
v -0.11 0.6 0.11

vn 0 0 1
vn 0 1 0
vn 1 0 0
vn 0 0 -1
vn 0.7071068 0.7071068 0
vn 0 0.7071068 -0.7071068
vn 0 0.7071068 0.7071068
vn -1 0 0
vn -0.7071068 0.7071068 0
vn 0 -1 0

vt 4.330709 9.84252
vt 3.149606 9.84252
vt 4.330709 25.59055
vt 3.149606 19.68504
vt 2.362205 19.68504
vt 2.362205 25.59055
vt 2.362205 -2.362205
vt 2.362205 2.362205
vt 3.149606 -2.362205
vt 3.149606 2.362205
vt 2.362205 3.149606
vt 2.362205 -3.149606
vt -2.362205 3.149606
vt -2.362205 2.362205
vt -2.362205 -2.362205
vt -2.362205 -3.149606
vt -3.149606 2.362205
vt -3.149606 -2.362205
vt 4.330709 21.65354
vt 2.362205 21.65354
vt 4.330709 23.62205
vt 2.362205 23.62205
vt 5.905512 0.2783885
vt -5.905512 0.2783885
vt 4.330709 2.505497
vt -4.330709 2.505497
vt 4.330709 27.55906
vt 2.362205 27.55906
vt -4.330709 9.84252
vt -4.330709 25.59055
vt -3.149606 9.84252
vt -3.149606 19.68504
vt -2.362205 25.59055
vt -2.362205 19.68504
vt -2.362205 21.65354
vt -4.330709 21.65354
vt -2.362205 9.84252
vt 2.362205 9.84252
vt -2.362205 27.55906
vt -4.330709 27.55906
vt -2.362205 23.62205
vt -4.330709 23.62205
vt -4.330709 -2.362205
vt -4.330709 2.362205
vt -2.362205 -4.330709
vt 2.362205 -4.330709
vt -2.362205 4.330709
vt 2.362205 4.330709
vt 4.330709 -2.362205
vt 4.330709 2.362205
vt -4.330709 -4.330709
vt 4.330709 -4.330709
vt -5.905512 0
vt -5.905512 6.299212
vt 5.905512 0
vt 5.905512 6.299212
vt -4.330709 7.874016
vt 4.330709 7.874016
vt 4.330709 4.330709
vt -4.330709 4.330709
vt 5.905512 5.905512
vt 5.905512 -5.905512
vt -5.905512 5.905512
vt -5.905512 -5.905512

usemtl stoneDark

f 3/3/1 2/2/1 1/1/1
f 2/2/1 3/3/1 4/4/1
f 4/4/1 3/3/1 5/5/1
f 5/5/1 3/3/1 6/6/1
f 9/9/2 8/8/2 7/7/2
f 8/8/2 9/9/2 10/10/2
f 11/11/2 7/7/2 8/8/2
f 11/11/2 12/12/2 7/7/2
f 13/13/2 12/12/2 11/11/2
f 14/14/2 12/12/2 13/13/2
f 5/15/2 12/12/2 14/14/2
f 12/12/2 5/15/2 15/16/2
f 16/17/2 5/15/2 14/14/2
f 5/15/2 16/17/2 4/18/2
f 18/19/3 12/4/3 17/1/3
f 12/4/3 18/19/3 19/20/3
f 12/4/3 19/20/3 7/5/3
f 20/2/3 17/1/3 12/4/3
f 23/21/4 22/2/4 21/1/4
f 22/2/4 23/21/4 10/4/4
f 10/4/4 23/21/4 8/5/4
f 8/5/4 23/21/4 24/22/4
f 27/25/5 26/24/5 25/23/5
f 26/24/5 27/25/5 28/26/5
f 29/23/6 27/26/6 25/24/6
f 27/26/6 29/23/6 30/25/6
f 28/25/7 31/24/7 26/23/7
f 31/24/7 28/25/7 32/26/7
f 34/1/8 13/4/8 33/2/8
f 35/27/8 13/4/8 34/1/8
f 36/28/8 13/4/8 35/27/8
f 13/4/8 36/28/8 14/5/8
f 31/23/9 30/26/9 29/24/9
f 30/26/9 31/23/9 32/25/9
f 39/31/8 38/30/8 37/29/8
f 38/30/8 39/31/8 15/32/8
f 38/30/8 15/32/8 6/33/8
f 6/33/8 15/32/8 5/34/8
f 19/35/1 9/32/1 7/34/1
f 40/36/1 9/32/1 19/35/1
f 41/29/1 9/32/1 40/36/1
f 9/32/1 41/29/1 42/31/1
f 22/38/8 9/34/8 42/37/8
f 9/34/8 22/38/8 10/5/8
f 12/5/4 39/37/4 20/38/4
f 39/37/4 12/5/4 15/34/4
f 16/34/3 2/38/3 4/5/3
f 2/38/3 16/34/3 43/37/3
f 36/39/4 16/32/4 14/34/4
f 44/40/4 16/32/4 36/39/4
f 45/29/4 16/32/4 44/40/4
f 16/32/4 45/29/4 43/31/4
f 13/5/1 46/37/1 33/38/1
f 46/37/1 13/5/1 11/34/1
f 47/42/3 8/34/3 24/41/3
f 8/34/3 47/42/3 11/32/3
f 11/32/3 47/42/3 46/31/3
f 46/31/3 47/42/3 48/29/3
f 2/18/2 45/44/2 1/43/2
f 45/44/2 2/18/2 43/17/2
f 17/46/2 39/16/2 37/45/2
f 39/16/2 17/46/2 20/12/2
f 46/11/2 34/47/2 33/13/2
f 34/47/2 46/11/2 48/48/2
f 41/49/2 22/10/2 42/9/2
f 22/10/2 41/49/2 21/50/2

usemtl stone

f 38/45/2 3/43/2 49/51/2
f 3/43/2 38/45/2 6/15/2
f 50/52/2 19/7/2 18/46/2
f 19/7/2 50/52/2 40/49/2
f 52/55/8 29/54/8 51/53/8
f 29/54/8 52/55/8 31/56/8
f 29/56/4 53/53/4 51/55/4
f 53/53/4 29/56/4 25/54/4
f 54/40/3 45/37/3 44/39/3
f 28/57/3 45/37/3 54/40/3
f 28/57/3 1/38/3 45/37/3
f 27/58/3 1/38/3 28/57/3
f 27/58/3 3/6/3 1/38/3
f 3/6/3 27/58/3 49/3/3
f 26/54/3 53/55/3 25/56/3
f 53/55/3 26/54/3 55/53/3
f 26/56/1 52/53/1 55/55/1
f 52/53/1 26/56/1 31/54/1
f 23/50/2 47/48/2 24/8/2
f 47/48/2 23/50/2 56/59/2
f 36/14/2 54/60/2 44/44/2
f 54/60/2 36/14/2 35/47/2
f 52/63/10 53/62/10 55/61/10
f 53/62/10 52/63/10 51/64/10
f 28/58/1 34/38/1 32/57/1
f 34/38/1 28/58/1 54/27/1
f 34/38/1 54/27/1 35/28/1
f 48/37/1 32/57/1 34/38/1
f 32/57/1 48/37/1 56/42/1
f 56/42/1 48/37/1 47/41/1
f 30/57/8 41/37/8 50/36/8
f 41/37/8 30/57/8 32/58/8
f 41/37/8 32/58/8 21/38/8
f 21/38/8 32/58/8 23/22/8
f 23/22/8 32/58/8 56/21/8
f 40/35/8 50/36/8 41/37/8
f 30/58/4 17/38/4 27/57/4
f 17/38/4 30/58/4 50/19/4
f 17/38/4 50/19/4 18/20/4
f 37/37/4 27/57/4 17/38/4
f 27/57/4 37/37/4 49/30/4
f 49/30/4 37/37/4 38/33/4

