# Created by Kenney (www.kenney.nl)

mtllib statue_ring.mtl

g statue_ring

v -0.1669873 0.2 -0.08660254
v 0.1669873 0.2 -0.08660254
v -0.3 0.2767949 -0.08660254
v 5.775291E-15 0.2400546 -0.08660254
v -0.181818 0.3450273 -0.08660254
v -0.3 0.6232051 -0.08660254
v -0.181818 0.5549727 -0.08660254
v 0 0.6599454 -0.08660254
v 0 0.7964101 -0.08660254
v 0.3 0.2767949 -0.08660254
v 0.181818 0.3450273 -0.08660254
v 0.3 0.6232051 -0.08660254
v 0.181818 0.5549727 -0.08660254
v 0.3 0.16 -0.2
v 0.3 0 -0.2
v 0.3 0.16 0.2
v 0.3 0 0.2
v -0.3 0 -0.2
v -0.3 0.16 -0.2
v -0.3 0 0.2
v 0.3 0.2767949 0.08660254
v 0.1669873 0.2 0.08660254
v 0 0.7964101 0.08660254
v -0.3 0.6232051 0.08660254
v -0.3 0.16 0.2
v 0.3 0.6232051 0.08660254
v 0.26 0.2 0.16
v 0.26 0.2 -0.16
v -0.26 0.2 -0.16
v -0.1669873 0.2 0.08660254
v -0.26 0.2 0.16
v 5.775291E-15 0.2400546 0.08660254
v 0.181818 0.3450273 0.08660254
v 0.181818 0.5549727 0.08660254
v 0 0.6599454 0.08660254
v -0.3 0.2767949 0.08660254
v -0.181818 0.3450273 0.08660254
v -0.181818 0.5549727 0.08660254

vn 0 0 -1
vn 1 0 0
vn 0 -1 0
vn 0.5 -0.8660254 0
vn -0.5 0.8660254 0
vn 0 0 1
vn 0 1 0
vn -1 0 0
vn 0.5 0.8660254 0
vn -0.5 -0.8660254 0
vn -0.7071068 0.7071068 0
vn 0 0.7071068 0.7071068
vn 0.7071068 0.7071068 0
vn 0 0.7071068 -0.7071068

vt 6.574303 7.874016
vt -6.574303 7.874016
vt 11.81102 10.89744
vt -2.263851E-13 9.450969
vt 7.158191 13.58375
vt 11.81102 24.53563
vt 7.158191 21.84932
vt 9.885796E-16 25.9821
vt 9.885796E-16 31.35473
vt -11.81102 10.89744
vt -7.158191 13.58375
vt -11.81102 24.53563
vt -7.158191 21.84932
vt 7.874016 6.299212
vt 7.874016 0
vt -7.874016 6.299212
vt -7.874016 0
vt 11.81102 0
vt -11.81102 0
vt 11.81102 6.299212
vt -11.81102 6.299212
vt 11.81102 7.874016
vt 11.81102 -7.874016
vt -11.81102 7.874016
vt -11.81102 -7.874016
vt -3.409549 15.67737
vt 3.409549 15.67737
vt -3.409549 9.630522
vt 3.409549 9.630522
vt -3.409549 2.03917
vt 3.409549 2.03917
vt 3.409549 24.53563
vt 3.409549 10.89744
vt -3.409549 24.53563
vt -3.409549 10.89744
vt -10.23622 6.299212
vt -6.574303 -3.409549
vt -10.23622 -6.299212
vt 10.23622 -6.299212
vt 6.574303 -3.409549
vt 6.574303 3.409549
vt -6.574303 3.409549
vt 10.23622 6.299212
vt 2.273737E-13 9.450969
vt 5.981069E-30 25.9821
vt 5.981069E-30 31.35473
vt -3.409549 13.58375
vt -3.409549 21.84932
vt 3.409549 13.58375
vt 3.409549 21.84932
vt 3.409549 4.725484
vt -3.409549 4.725484
vt 3.409549 12.99105
vt -3.409549 12.99105
vt -7.874016 -3.897439
vt -6.299212 -1.670331
vt 7.874016 -3.897439
vt 6.299212 -1.670331
vt 11.81102 -1.113554
vt -11.81102 -1.113554
vt 10.23622 1.113554
vt -10.23622 1.113554

usemtl stone

f 3/3/1 2/2/1 1/1/1
f 2/2/1 3/3/1 4/4/1
f 4/4/1 3/3/1 5/5/1
f 5/5/1 3/3/1 6/6/1
f 5/5/1 6/6/1 7/7/1
f 7/7/1 6/6/1 8/8/1
f 8/8/1 6/6/1 9/9/1
f 4/4/1 10/10/1 2/2/1
f 10/10/1 4/4/1 11/11/1
f 10/10/1 11/11/1 12/12/1
f 12/12/1 8/8/1 9/9/1
f 12/12/1 11/11/1 13/13/1
f 12/12/1 13/13/1 8/8/1
f 16/16/2 15/15/2 14/14/2
f 15/15/2 16/16/2 17/17/2
f 19/20/1 15/19/1 18/18/1
f 15/19/1 19/20/1 14/21/1
f 20/24/3 15/23/3 17/22/3
f 15/23/3 20/24/3 18/25/3
f 22/28/4 10/27/4 21/26/4
f 10/27/4 22/28/4 2/29/4
f 6/30/5 23/27/5 9/26/5
f 23/27/5 6/30/5 24/31/5
f 16/20/6 20/19/6 17/18/6
f 20/19/6 16/20/6 25/21/6
f 26/34/2 10/33/2 12/32/2
f 10/33/2 26/34/2 21/35/2
f 28/38/7 2/37/7 27/36/7
f 2/37/7 28/38/7 29/39/7
f 2/37/7 29/39/7 1/40/7
f 1/40/7 29/39/7 30/41/7
f 22/42/7 27/36/7 2/37/7
f 27/36/7 22/42/7 31/43/7
f 31/43/7 22/42/7 30/41/7
f 31/43/7 30/41/7 29/39/7
f 20/15/8 19/16/8 18/17/8
f 19/16/8 20/15/8 25/14/8
f 21/3/6 30/2/6 22/1/6
f 30/2/6 21/3/6 32/44/6
f 32/44/6 21/3/6 33/5/6
f 33/5/6 21/3/6 26/6/6
f 33/5/6 26/6/6 34/7/6
f 34/7/6 26/6/6 35/45/6
f 35/45/6 26/6/6 23/46/6
f 32/44/6 36/10/6 30/2/6
f 36/10/6 32/44/6 37/11/6
f 36/10/6 37/11/6 24/12/6
f 24/12/6 35/45/6 23/46/6
f 24/12/6 37/11/6 38/13/6
f 24/12/6 38/13/6 35/45/6
f 36/33/8 6/34/8 3/35/8
f 6/34/8 36/33/8 24/32/8
f 9/27/9 26/30/9 12/31/9
f 26/30/9 9/27/9 23/26/9
f 36/27/10 1/28/10 30/29/10
f 1/28/10 36/27/10 3/26/10

usemtl stoneDark

f 33/49/8 13/48/8 11/47/8
f 13/48/8 33/49/8 34/50/8
f 5/53/9 32/52/9 4/51/9
f 32/52/9 5/53/9 37/54/9
f 4/52/5 33/53/5 11/54/5
f 33/53/5 4/52/5 32/51/5
f 35/53/10 13/52/10 34/51/10
f 13/52/10 35/53/10 8/54/10
f 25/57/11 29/56/11 19/55/11
f 29/56/11 25/57/11 31/58/11
f 38/48/2 5/49/2 7/50/2
f 5/49/2 38/48/2 37/47/2
f 27/61/12 25/60/12 16/59/12
f 25/60/12 27/61/12 31/62/12
f 28/58/13 16/55/13 14/57/13
f 16/55/13 28/58/13 27/56/13
f 38/52/4 8/53/4 35/54/4
f 8/53/4 38/52/4 7/51/4
f 19/59/14 28/62/14 14/60/14
f 28/62/14 19/59/14 29/61/14

