# Created by Kenney (www.kenney.nl)

mtllib stone_smallF.mtl

g stone_smallF

v -0.08839601 0 -0.1531064
v 0.08839601 0 -0.1531064
v -0.0707168 0.115456 -0.1224851
v 0.07670955 0.0763197 -0.1328648
v 0.02620202 0.115456 -0.1224851
v 0.08493578 0.115456 -0.09785708
v -0.05045146 0.115456 -0.08738449
v 0.05045146 0.115456 -0.08738449
v -0.04423155 0.1580105 -0.0766113
v 0.03146658 0.245344 -0.05450172
v 0.007196062 0.245344 -0.05450172
v 0.1414336 0.115456 0
v 0.176792 0 0
v 0.09297419 0.115456 0.08393417
v 0.08839601 0 0.1531064
v 0.08493578 0.02259728 0.1471131
v -0.06293315 0.245344 -1.443823E-15
v -0.03146658 0.245344 0.05450172
v -0.1009029 0.115456 0
v -0.05045146 0.115456 0.08738449
v 0.1009029 0.115456 0
v 0.06293315 0.245344 -1.443823E-15
v 0.03146658 0.245344 0.05450172
v 0.05045146 0.115456 0.08738449
v -0.04260882 0.245344 -0.03520279
v -0.08839601 0 0.1531064
v -0.176792 0 0
v 0.02620202 0.115456 0.1224851
v -0.0707168 0.115456 0.1224851
v -0.1244615 0.115456 -0.02939646
v -0.161304 0.05057316 0
v -0.1171438 0.115456 0.04207115

vn 0 0.2563575 -0.9665821
vn 0.3103015 0.5967291 -0.7400186
vn 0 0.2454199 -0.9694168
vn 0.8370847 0.2563572 0.483291
vn -0.8395395 0.2454201 0.4847085
vn 0.8395395 0.2454201 -0.4847085
vn 0.8395395 0.2454201 0.4847085
vn -0.8395395 0.2454201 -0.4847085
vn 0 -1 0
vn 0 0.2454199 0.9694168
vn 0 1 0
vn 0.4388578 0.4791813 0.7601244
vn 0.8370847 0.2563572 -0.483291
vn 0 0.2563575 0.9665821
vn -0.8370847 0.2563573 -0.483291
vn -0.3296344 0.4094728 -0.8506898
vn -0.8488756 0.5213974 0.0869185
vn -0.8370847 0.2563573 0.483291

vt 3.480158 -1.545274
vt -3.480157 -1.545274
vt 2.784126 3.157391
vt -3.020061 1.563321
vt -1.031575 3.157391
vt 0.9134174 0.7557541
vt -0.7623542 -1.164382
vt -1.593994 0.7557541
vt 1.986278 3.562169
vt -1.986278 3.562169
vt 1.7414 5.290397
vt -1.238842 8.837197
vt -0.2833095 8.837197
vt 2.784126 3.157393
vt 3.480157 -1.545272
vt -1.031576 3.157393
vt -3.480158 -1.545272
vt -3.34393 -0.6248574
vt -1.238842 8.837196
vt 1.238842 8.837196
vt -1.986279 3.562168
vt 1.986278 3.562168
vt 1.238842 8.837196
vt 1.986279 3.562168
vt -1.238842 8.837196
vt -1.986278 3.562168
vt -1.986277 3.562168
vt -1.741399 5.290396
vt 1.986279 3.562168
vt -0.3614998 8.837196
vt 6.960315 0
vt 3.480158 -6.02781
vt 3.480158 6.02781
vt -3.480158 6.02781
vt -3.480158 -6.02781
vt -6.960315 0
vt 1.986278 3.562169
vt 1.238842 8.837197
vt -1.238842 8.837197
vt -2.477683 -5.684342E-14
vt -1.238842 2.145737
vt -1.238842 -2.145737
vt -0.2833095 -2.145737
vt 1.238842 2.145737
vt 1.677513 -1.385937
vt 2.477683 -5.684342E-14
vt 1.517755 1.741361
vt 1.145996E-06 -2.423831
vt -1.517751 1.741361
vt 3.480158 -1.545273
vt -3.480158 -1.545273
vt 3.020061 1.563323
vt 1.664521 3.157392
vt -2.784126 3.157392
vt 3.480158 -1.545274
vt -3.480157 -1.545274
vt 3.343929 -0.6248595
vt -2.784126 3.157391
vt 1.031576 3.157391
vt -3.480158 -1.545273
vt -2.784125 3.157392
vt 3.480157 -1.545273
vt 1.447743 3.157392
vt 3.175275 0.5146338
vt 1.063429 8.034966
vt 0.533967 4.266201
vt -1.039454 8.034966
vt -0.6468666 -1.594931
vt -1.650441 1.398625
vt 1.177956 1.398625
vt -5.568252 0
vt -3.972557 0
vt -3.343928 -3.852641
vt -1.986278 -3.440334
vt -1.031576 -4.822247
vt 1.986278 -3.440334
vt 2.784126 -4.822247
vt 3.972557 0
vt 4.90006 -1.157341
vt 4.61196 1.656345
vt -3.660401 3.304495
vt -1.986278 3.440334
vt -1.031576 4.822247
vt 1.986278 3.440334
vt 2.784126 4.822247
vt -3.480157 -1.545273
vt -3.175275 0.5146335
vt 3.480158 -1.545273
vt -0.8715432 3.157392
vt 2.784126 3.157392

usemtl stone

f 3/3/1 2/2/1 1/1/1
f 2/2/1 3/3/1 4/4/1
f 4/4/1 3/3/1 5/5/1
f 6/8/2 4/7/2 5/6/2
f 9/11/3 8/10/3 7/9/3
f 8/10/3 9/11/3 10/12/3
f 10/12/3 9/11/3 11/13/3
f 14/16/4 13/15/4 12/14/4
f 13/15/4 14/16/4 15/17/4
f 15/17/4 14/16/4 16/18/4
f 19/21/5 18/20/5 17/19/5
f 18/20/5 19/21/5 20/22/5
f 10/20/6 21/21/6 8/22/6
f 21/21/6 10/20/6 22/19/6
f 23/25/7 21/24/7 22/23/7
f 21/24/7 23/25/7 24/26/7
f 19/29/8 9/28/8 7/27/8
f 9/28/8 19/29/8 25/30/8
f 25/30/8 19/29/8 17/23/8
f 15/33/9 2/32/9 13/31/9
f 2/32/9 15/33/9 26/34/9
f 2/32/9 26/34/9 1/35/9
f 1/35/9 26/34/9 27/36/9
f 23/38/10 20/10/10 24/37/10
f 20/10/10 23/38/10 18/39/10
f 10/42/11 23/41/11 22/40/11
f 23/41/11 10/42/11 11/43/11
f 23/41/11 11/43/11 18/44/11
f 18/44/11 11/43/11 25/45/11
f 18/44/11 25/45/11 17/46/11
f 28/49/12 16/48/12 14/47/12
f 4/52/13 13/51/13 2/50/13
f 13/51/13 4/52/13 6/53/13
f 13/51/13 6/53/13 12/54/13
f 16/57/14 26/56/14 15/55/14
f 26/56/14 16/57/14 29/58/14
f 29/58/14 16/57/14 28/59/14
f 27/62/15 3/61/15 1/60/15
f 3/61/15 27/62/15 30/63/15
f 30/63/15 27/62/15 31/64/15
f 11/67/16 9/66/16 25/65/16
f 32/70/17 30/69/17 31/68/17
f 6/73/11 21/72/11 12/71/11
f 21/72/11 6/73/11 8/74/11
f 8/74/11 6/73/11 5/75/11
f 8/74/11 5/75/11 7/76/11
f 7/76/11 5/75/11 3/77/11
f 7/76/11 3/77/11 19/78/11
f 19/78/11 3/77/11 30/79/11
f 19/78/11 30/79/11 32/80/11
f 21/72/11 14/81/11 12/71/11
f 14/81/11 21/72/11 24/82/11
f 14/81/11 24/82/11 28/83/11
f 28/83/11 24/82/11 20/84/11
f 28/83/11 20/84/11 29/85/11
f 29/85/11 20/84/11 19/78/11
f 29/85/11 19/78/11 32/80/11
f 26/88/18 31/87/18 27/86/18
f 31/87/18 26/88/18 32/89/18
f 32/89/18 26/88/18 29/90/18

