# Created by Kenney (www.kenney.nl)

mtllib stone_tallE.mtl

g stone_tallE

v 0 0 0.263384
v -0.2280972 0 0.131692
v 0 0.382448 0.1659319
v -0.1437013 0.382448 0.08296596
v -0.04728172 0.382448 0.1386338
v -0.2280972 0 -0.131692
v 0 0 -0.263384
v -0.1437013 0.382448 -0.08296596
v 0 0.382448 -0.1659319
v 0.2280972 0 -0.131692
v 0.1437013 0.382448 -0.08296596
v 0.08950217 0.382448 -0.1142578
v 0.1437013 0.382448 -4.331469E-15
v 0.07185064 0.382448 0.1244489
v 0.1140486 0 0.197538
v -0.1168829 0.443784 -0.06702308
v -0.1168829 0.443784 0.06074451
v 0.2280972 0 0
v -0.006232895 0.443784 -0.1309069
v 0.06268377 0.443784 -0.0911178
v -0.04263981 0.443784 0.1036087

vn -0.4882532 0.2154887 0.8456793
vn -0.4882532 0.2154886 -0.8456793
vn 0.4882532 0.2154886 -0.8456793
vn 0 1 0
vn 0.4882531 0.2154886 0.8456793
vn -0.9162456 0.4006171 0
vn 0.9765064 0.2154886 0
vn 0.4389687 0.4787754 -0.7603161
vn -0.4570282 0.4055872 -0.7915961
vn 0.8616451 0.20092 0.4660461
vn 0.8506312 0.1877114 0.491112
vn -0.4413525 0.4699273 0.7644451
vn -0.9765064 0.2154886 0
vn 0 -1 0

vt 5.184725 -1.935133
vt -5.184723 -1.935133
vt 3.266376 13.48413
vt -3.266376 13.48413
vt 1.116918 13.48413
vt 5.184723 -1.935132
vt -5.184725 -1.935133
vt 5.184725 -1.935132
vt -5.184723 -1.935132
vt -0.8024506 13.48413
vt -5.65753 -3.266376
vt -5.65753 -1.705303E-13
vt -3.523708 -4.498339
vt -2.828766 4.899565
vt 1.861485 5.458024
vt 0 6.532753
vt 7.482743E-07 -1.935133
vt -5.184724 -1.935133
vt 8.574106E-07 13.48413
vt -3.266376 13.48413
vt -3.266376 11.52941
vt -2.638704 14.16496
vt 3.266376 11.52941
vt 2.391516 14.16496
vt 5.184724 -1.935132
vt 2.130926E-16 -1.935132
vt 3.266376 13.48413
vt 1.706645E-13 13.48413
vt 3.266376 10.51042
vt -0.8024509 10.51042
vt 2.78942 13.26097
vt -0.3435762 13.26097
vt 3.266377 11.46833
vt -3.266376 11.46833
vt 2.665826 14.11019
vt -2.364393 14.11019
vt -2.467865 -3.587315
vt 1.678733 4.079084
vt 0.2453896 -5.153813
vt 4.601687 -2.638704
vt 4.601687 2.391516
vt 5.633053 14.55722
vt -5.686375 14.55722
vt 4.329418 17.02229
vt -4.386541 17.02229
vt 2.828764 13.86965
vt 4.490102 -1.459847
vt -2.828765 13.86965
vt -4.490104 -1.459847
vt 1.116918 10.63227
vt -3.266377 10.63227
vt 0.5857163 13.36796
vt -2.789421 13.36796
vt -5.184724 -1.935132

usemtl stone

f 3/3/1 2/2/1 1/1/1
f 2/2/1 3/3/1 4/4/1
f 4/4/1 3/3/1 5/5/1
f 8/3/2 7/7/2 6/6/2
f 7/7/2 8/3/2 9/4/2
f 9/3/3 10/9/3 7/8/3
f 10/9/3 9/3/3 11/4/3
f 11/4/3 9/3/3 12/10/3
f 12/13/4 13/12/4 11/11/4
f 13/12/4 12/13/4 14/14/4
f 14/14/4 12/13/4 5/15/4
f 14/14/4 5/15/4 3/16/4
f 14/19/5 1/18/5 15/17/5
f 1/18/5 14/19/5 3/20/5
f 4/23/6 16/22/6 8/21/6
f 16/22/6 4/23/6 17/24/6
f 11/27/7 18/26/7 10/25/7
f 18/26/7 11/27/7 13/28/7
f 19/31/8 12/30/8 9/29/8
f 12/30/8 19/31/8 20/32/8
f 16/35/9 9/34/9 8/33/9
f 9/34/9 16/35/9 19/36/9
f 19/39/4 21/38/4 20/37/4
f 21/38/4 19/39/4 16/40/4
f 21/38/4 16/40/4 17/41/4
f 20/44/10 5/43/10 12/42/10
f 5/43/10 20/44/10 21/45/10
f 14/48/11 18/47/11 13/46/11
f 18/47/11 14/48/11 15/49/11
f 21/52/12 4/51/12 5/50/12
f 4/51/12 21/52/12 17/53/12
f 2/25/13 8/20/13 6/54/13
f 8/20/13 2/25/13 4/27/13

usemtl _defaultMat

f 15/18/14 10/19/14 18/20/14
f 10/18/14 15/19/14 7/20/14
f 7/18/14 15/19/14 1/20/14
f 7/18/14 1/19/14 2/20/14
f 7/18/14 2/19/14 6/20/14

