# Created by Kenney (www.kenney.nl)

mtllib stone_tallD.mtl

g stone_tallD

v 0.09954082 0.772112 -0.08600725
v -0.05590632 0.772112 -0.03172419
v 0.04133646 0.772112 -0.1196115
v -0.001517544 0.772112 -0.1014223
v -0.0371799 0.772112 -0.06825077
v 0.2214182 0 -0.01903871
v -0.03024247 0 0.2307409
v 0.1328509 0.515944 -0.01142322
v -0.0225128 0.3296751 0.1717659
v 0.03114787 0.515944 0.08951963
v -0.07491755 0.515944 0.1056672
v 0.1328509 0.515944 -0.09043842
v -0.08921642 0.515944 -0.01289118
v -0.2214182 0 0.1203656
v -0.1328509 0.515944 0.07221936
v 0.2214182 0 -0.1507307
v 0.04970185 0.515944 -0.1384446
v -0.04558196 0.515944 -0.09800172
v -0.03453872 0.6558529 -0.09434234
v -0.07596993 0 -0.1633362
v 0.08283639 0 -0.2307409

vn 0 1 0
vn 0.7001914 0.1097825 0.7054644
vn 0.1400703 0.3658947 0.9200551
vn 0.3295664 0.02652923 0.9437596
vn -0.4931986 0.1643782 0.8542452
vn 0.9855841 0.169186 0
vn 0.4984078 0.07974181 -0.8632676
vn -0.8868791 0.08189522 -0.4546851
vn -0.390121 0.05483303 -0.9191295
vn -0.3869576 0.1382374 -0.9116766
vn 0.4914777 0.1838446 -0.8512642
vn -0.6736514 0.1472331 -0.7242349
vn -0.8845152 0.1095198 -0.4534734
vn 0 -1 0

vt -3.91893 -3.386112
vt 2.201036 -1.248984
vt -1.62742 -4.709116
vt 0.05974584 -3.993005
vt 1.463776 -2.687038
vt 6.715131 -0.6157545
vt -7.244489 -0.6157546
vt 4.029079 19.82053
vt -5.39287 12.44251
vt -1.61239 19.82053
vt 0.6818791 17.56179
vt -1.894028 9.681955
vt -3.54204 17.56179
vt 6.111789 20.34904
vt -3.14876 20.34904
vt 4.816172 30.43794
vt -1.666212 30.43794
vt 3.511012 -1.391059
vt -5.179961 -1.391059
vt 2.613632 11.76726
vt -3.107977 19.20181
vt -0.4742887 19.20181
vt 5.934279 -1.474837
vt 0.7495555 -1.474837
vt 3.560568 19.13503
vt 0.4497332 19.13503
vt 1.030677 19.79365
vt -2.749334 19.79365
vt 0.9451711 29.91122
vt -1.700837 29.91122
vt -2.614698 19.96959
vt -2.684846 25.49638
vt 1.150813 19.96959
vt -1.72331 30.08893
vt -0.1072794 30.08893
vt 0.1444375 20.049
vt -3.930818 20.049
vt -0.1994881 25.56553
vt -3.337956 30.14955
vt -1.505105 30.14955
vt 0.2407297 -0.9798282
vt -6.551363 -0.9798282
vt 0.1444374 19.52984
vt -3.930818 19.52984
vt 1.717797 -1.74613
vt -4.582222 -1.74613
vt 1.030678 18.91885
vt -2.749333 18.91885
vt -5.230351 -3.560568
vt -5.230351 -0.4497332
vt 3.512458 -0.5075269
vt -1.226294 3.524395
vt 2.94951 4.160125
vt 5.230351 2.843282
vt -0.7582734 29.63036
vt -1.534029 25.0028
vt -2.675784 29.63036
vt -4.357829 -0.6127938
vt -2.614697 19.82289
vt 8.193874 -0.6127938
vt 1.150813 19.82289
vt 4.916325 19.82289

usemtl stone

f 3/3/1 2/2/1 1/1/1
f 2/2/1 3/3/1 4/4/1
f 2/2/1 4/4/1 5/5/1
f 8/8/2 7/7/2 6/6/2
f 7/7/2 8/8/2 9/9/2
f 9/9/2 8/8/2 10/10/2
f 11/13/3 9/12/3 10/11/3
f 1/16/4 13/15/4 12/14/4
f 13/15/4 1/16/4 2/17/4
f 9/20/5 14/19/5 7/18/5
f 14/19/5 9/20/5 15/21/5
f 15/21/5 9/20/5 11/22/5
f 12/25/6 6/24/6 16/23/6
f 6/24/6 12/25/6 8/26/6
f 3/29/7 12/28/7 17/27/7
f 12/28/7 3/29/7 1/30/7
f 13/33/8 19/32/8 18/31/8
f 19/32/8 13/33/8 5/34/8
f 5/34/8 13/33/8 2/35/8
f 19/38/9 17/37/9 18/36/9
f 17/37/9 19/38/9 3/39/9
f 3/39/9 19/38/9 4/40/9
f 18/43/10 21/42/10 20/41/10
f 21/42/10 18/43/10 17/44/10
f 17/47/11 16/46/11 21/45/11
f 16/46/11 17/47/11 12/48/11
f 13/51/1 8/50/1 12/49/1
f 8/50/1 13/51/1 10/52/1
f 10/52/1 13/51/1 11/53/1
f 11/53/1 13/51/1 15/54/1
f 4/57/12 19/56/12 5/55/12
f 14/60/13 18/59/13 20/58/13
f 18/59/13 14/60/13 13/61/13
f 13/61/13 14/60/13 15/62/13

usemtl _defaultMat

f 7/15/14 16/16/14 6/17/14
f 16/15/14 7/16/14 21/17/14
f 21/15/14 7/16/14 20/17/14
f 20/15/14 7/16/14 14/17/14

