# Created by Kenney (www.kenney.nl)

mtllib stone_smallA.mtl

g stone_smallA

v 0.06475415 0.191224 -0.0106847
v 0.03877723 0.191224 0.08026119
v 0.01069347 0.191224 -0.04947582
v -0.05248803 0.191224 0.08026119
v -0.06758697 0.191224 0.02880464
v 3.609557E-16 0 -0.1804
v -0.1804 0 1.443823E-15
v 0.1143181 0 0.1804
v -0.1274651 0 0.1804
v 0.1804 0 -0.05095435

vn 0 1 0
vn -0.6264127 0.4639119 -0.6264127
vn 0 0.463912 0.8858814
vn 0.8518149 0.4639119 0.2433043
vn 0.5164617 0.4639119 -0.719759
vn 0 -1 0
vn -0.8500419 0.463912 0.2494285

vt -2.549376 -0.4206576
vt -1.526663 3.159889
vt -0.4210029 -1.947867
vt 2.066458 3.159889
vt 2.660904 1.134041
vt -5.022129 -2.329825
vt -1.675044 6.168496
vt 5.022129 -2.329825
vt 2.683431 6.168496
vt 4.500714 -3.294871
vt -5.018311 -3.294871
vt 1.526663 5.203451
vt -2.066458 5.203451
vt 3.879573 -2.912569
vt -5.593136 -2.912569
vt 1.104659 5.585752
vt -2.619084 5.585752
vt 4.14062 -2.67701
vt -4.600986 -2.677009
vt 0.7935351 5.821312
vt -1.826072 5.821311
vt 7.102362 -2.006077
vt 1.421085E-14 -7.102362
vt 4.500714 7.102362
vt -5.018311 7.102362
vt -7.102362 5.684342E-14
vt -1.999739 -3.161572
vt 0.3389584 5.336749
vt 5.402073 -3.161572
vt 2.450221 5.336749

usemtl stone

f 3/3/1 2/2/1 1/1/1
f 2/2/1 3/3/1 4/4/1
f 4/4/1 3/3/1 5/5/1
f 7/8/2 3/7/2 6/6/2
f 3/7/2 7/8/2 5/9/2
f 2/12/3 9/11/3 8/10/3
f 9/11/3 2/12/3 4/13/3
f 1/16/4 8/15/4 10/14/4
f 8/15/4 1/16/4 2/17/4
f 3/20/5 10/19/5 6/18/5
f 10/19/5 3/20/5 1/21/5
f 8/24/6 6/23/6 10/22/6
f 6/23/6 8/24/6 9/25/6
f 6/23/6 9/25/6 7/26/6
f 9/29/7 5/28/7 7/27/7
f 5/28/7 9/29/7 4/30/7

