# Created by Kenney (www.kenney.nl)

mtllib stone_largeC.mtl

g stone_largeC

v 0.161732 0 0.4062648
v -0.2860111 0 0.2930947
v 0.202165 0.104632 0.507831
v -0.3575139 0.104632 0.3663686
v 0.3432401 0.104632 0.3484186
v 0.274592 0 0.2787349
v -0.4257638 0 0.05048718
v -0.5322049 0.104632 0.06310897
v -0.4508264 0.104632 -0.3400723
v -0.3606611 0 -0.2720578
v 0.1968991 0 0.06742597
v 0.2461239 0.104632 0.08428248
v 0.5322049 0.104632 -0.2879802
v 0.2461239 0.104632 -0.507831
v 0.4257638 0 -0.2303842
v 0.1968991 0 -0.4062648
v 0.2451735 0.321112 -0.2506805
v 0.2451735 0.321112 -0.06416478
v 0.155058 0.321112 -0.3199335
v 0.155058 0.321112 0.05309796
v 0.002170328 0.321112 -0.318496
v 0.127364 0.321112 0.3199335
v -0.2252337 0.321112 0.2308121
v -0.2840206 0.321112 -0.2142455
v -0.335289 0.321112 0.03975864
v 0.2162413 0.321112 0.2195037
v 0.5322049 0.173184 -0.2879802
v 0.2461239 0.173184 0.08428248
v 0.3432401 0.173184 0.3484186
v 0.202165 0.173184 0.507831
v -0.3575139 0.173184 0.3663686
v -0.5322049 0.173184 0.06310897
v 0.003444964 0.104632 -0.5055493
v -0.4508264 0.173184 -0.3400723
v 0.003444964 0.173184 -0.5055493
v 0.2461239 0.173184 -0.507831
v 0.002755972 0 -0.4044395
v 0.4337469 0.247148 -0.2347039

vn -0.1870443 -0.6460558 0.7400177
vn 0.5476378 -0.6820663 0.4846426
vn -0.6308284 -0.6855704 0.3633852
vn -0.7024384 -0.6974801 -0.1417807
vn 0.8756147 -0.360073 -0.3219415
vn 0.418907 -0.726209 -0.5451031
vn 0 1 0
vn 0.7929069 0 0.6093428
vn 0.4746202 0.7735085 0.4200241
vn -0.2450501 0 0.9695105
vn 0.9385701 0 -0.3450885
vn 0.8377852 0.4508124 -0.3080325
vn -0.8665149 0 0.4991511
vn 0.7488651 0 0.6627225
vn -0.3422681 0 -0.9396023
vn 0.7172692 -0.4262465 0.5512158
vn 0.6093425 0 -0.7929072
vn 0 -1 0
vn 0.3571628 0.8102065 -0.4647581
vn -0.9802321 0 -0.1978509
vn -0.2536832 -0.6713036 -0.6964167
vn -0.005832306 0.784331 -0.6203151
vn -0.6053474 0.7865275 -0.1221838
vn -0.1642199 0.7422271 0.6497158
vn -0.006761063 -0.6948611 -0.7191122
vn 0.6749267 0.5248327 0.5186758
vn -0.2207207 0.7642867 -0.6059276
vn 0.3651461 0.9309502 0
vn -0.5460193 0.7764876 0.3145314
vn -0.009401724 0 -0.9999558

vt 10.09276 9.010328
vt -8.089286 9.010327
vt 12.61595 14.40719
vt -10.11161 14.40719
vt -1.316754 16.11526
vt -1.053405 10.48224
vt -9.697542 16.11526
vt -7.758032 10.48224
vt 4.378275 10.63799
vt -6.644592 10.63799
vt 5.472849 16.29641
vt -8.305741 16.29641
vt -9.612338 16.93446
vt 6.581049 16.93446
vt -7.689869 11.186
vt 5.264839 11.186
vt -5.1666 2.289947
vt -14.03035 2.289947
vt -6.458251 6.705493
vt -17.53794 6.705493
vt -9.70514 18.63234
vt 4.499589 18.63234
vt -7.76411 12.6403
vt 3.59967 12.6403
vt -9.652501 -9.869311
vt -9.652501 -2.526172
vt -6.104648 -12.59581
vt -6.104648 2.090471
vt -0.08544598 -12.53922
vt -5.01433 12.59581
vt 8.86747 9.087091
vt 11.18192 -8.434863
vt 13.20036 1.565301
vt -8.513435 8.641879
vt 21.75735 6.818268
vt 21.75735 4.11937
vt 3.273452 6.818268
vt 3.273452 4.11937
vt -1.316758 -10.53812
vt -9.697546 -10.53812
vt -0.8295574 -1.348998
vt -6.109454 -1.348999
vt 12.61595 4.11937
vt -10.11161 4.11937
vt 12.61595 6.818268
vt -10.11161 6.818268
vt -6.458251 6.818268
vt -6.458251 4.11937
vt -17.53794 6.818268
vt -17.53794 4.11937
vt -4.068697 9.026892
vt -6.458251 2.502339
vt -11.0489 9.026892
vt -17.53794 2.502339
vt -8.305741 4.11937
vt -8.305741 6.818268
vt 5.472849 4.11937
vt 5.472849 6.818268
vt -1.316757 6.818268
vt -1.316757 4.11937
vt -9.697545 6.818268
vt -9.697545 4.11937
vt 12.09455 4.11937
vt -6.939776 4.11937
vt 12.09455 6.818268
vt -6.939776 6.818268
vt 21.75735 7.863189
vt 17.40588 3.309421
vt 3.273451 7.863189
vt 2.61876 3.309422
vt 4.49959 4.11937
vt -9.705138 4.11937
vt 4.49959 6.818268
vt -9.705138 6.818268
vt 10.81071 10.97382
vt 7.751933 2.654566
vt 6.367403 15.99468
vt 7.751933 -15.99468
vt 0.1085028 -15.92281
vt -11.26028 11.53916
vt -14.19926 -10.71094
vt -16.76236 1.987684
vt 16.76236 -9.070244
vt -9.705134 -13.63146
vt -7.909682 -8.663449
vt 4.499594 -13.63145
vt -1.639745 -3.695445
vt 2.834744 -3.695446
vt -9.612338 4.11937
vt -9.612338 6.818268
vt 6.58105 4.11937
vt 6.58105 6.818268
vt 9.675642 10.01852
vt -5.551822 10.01852
vt 12.09455 15.57635
vt -6.939777 15.57635
vt -9.877462 -11.37959
vt -6.222801 -1.991334
vt -0.3227504 -11.37959
vt -0.2033328 -1.991333
vt -6.055772 -2.126363
vt 4.14606 -2.126362
vt -9.612338 -11.557
vt 6.581049 -11.557
vt 12.61595 -8.370249
vt -10.11161 -8.37025
vt 7.94805 0.3202687
vt -6.370311 0.3202701
vt -0.2581971 11.06295
vt -7.901965 11.06295
vt -0.3227463 16.7911
vt -9.877458 16.7911
vt 21.75735 0.7101766
vt 3.273451 0.7101775
vt 17.73224 4.131172
vt 7.884701 7.552166
vt 2.062274 7.552166
vt -6.939776 -9.860804
vt -4.372059 -0.829716
vt 12.09455 -9.860804
vt 7.619569 -0.8297155
vt 9.869311 -4.369746
vt 9.24031 -12.34455
vt 2.526172 -4.369746
vt 3.447893 -1.522124
vt 5.472849 -10.76452
vt -5.232616 -1.522124
vt -8.305741 -10.76452
vt -0.3227499 4.11937
vt -9.877461 4.11937
vt -0.3227499 6.818268
vt -9.877461 6.818268

usemtl stone

f 3/3/1 2/2/1 1/1/1
f 2/2/1 3/3/1 4/4/1
f 3/7/2 6/6/2 5/5/2
f 6/6/2 3/7/2 1/8/2
f 4/11/3 7/10/3 2/9/3
f 7/10/3 4/11/3 8/12/3
f 10/15/4 8/14/4 9/13/4
f 8/14/4 10/15/4 7/16/4
f 12/19/5 6/18/5 11/17/5
f 6/18/5 12/19/5 5/20/5
f 15/23/6 14/22/6 13/21/6
f 14/22/6 15/23/6 16/24/6
f 19/27/7 18/26/7 17/25/7
f 18/26/7 19/27/7 20/28/7
f 20/28/7 19/27/7 21/29/7
f 20/28/7 21/29/7 22/30/7
f 22/30/7 21/29/7 23/31/7
f 23/31/7 21/29/7 24/32/7
f 23/31/7 24/32/7 25/33/7
f 22/30/7 26/34/7 20/28/7
f 28/37/8 13/36/8 27/35/8
f 13/36/8 28/37/8 12/38/8
f 26/41/9 30/40/9 29/39/9
f 30/40/9 26/41/9 22/42/9
f 30/45/10 4/44/10 3/43/10
f 4/44/10 30/45/10 31/46/10
f 29/49/11 12/48/11 28/47/11
f 12/48/11 29/49/11 5/50/11
f 26/53/12 28/52/12 20/51/12
f 28/52/12 26/53/12 29/54/12
f 4/57/13 32/56/13 8/55/13
f 32/56/13 4/57/13 31/58/13
f 30/61/14 5/60/14 29/59/14
f 5/60/14 30/61/14 3/62/14
f 34/65/15 33/64/15 9/63/15
f 33/64/15 34/65/15 35/66/15
f 12/69/16 15/68/16 13/67/16
f 15/68/16 12/69/16 11/70/16
f 36/73/17 13/72/17 14/71/17
f 13/72/17 36/73/17 27/74/17
f 1/77/18 11/76/18 6/75/18
f 11/76/18 1/77/18 16/78/18
f 16/78/18 1/77/18 37/79/18
f 37/79/18 1/77/18 2/80/18
f 37/79/18 2/80/18 10/81/18
f 10/81/18 2/80/18 7/82/18
f 16/78/18 15/83/18 11/76/18
f 36/86/19 38/85/19 27/84/19
f 38/85/19 36/86/19 17/87/19
f 17/87/19 36/86/19 19/88/19
f 8/91/20 34/90/20 9/89/20
f 34/90/20 8/91/20 32/92/20
f 9/95/21 37/94/21 10/93/21
f 37/94/21 9/95/21 33/96/21
f 35/99/22 19/98/22 36/97/22
f 19/98/22 35/99/22 21/100/22
f 34/103/23 25/102/23 24/101/23
f 25/102/23 34/103/23 32/104/23
f 22/107/24 31/106/24 30/105/24
f 31/106/24 22/107/24 23/108/24
f 33/111/25 16/110/25 37/109/25
f 16/110/25 33/111/25 14/112/25
f 38/115/26 28/114/26 27/113/26
f 28/114/26 38/115/26 18/116/26
f 28/114/26 18/116/26 20/117/26
f 34/120/27 21/119/27 35/118/27
f 21/119/27 34/120/27 24/121/27
f 18/124/28 38/123/28 17/122/28
f 25/127/29 31/126/29 23/125/29
f 31/126/29 25/127/29 32/128/29
f 35/131/30 14/130/30 33/129/30
f 14/130/30 35/131/30 36/132/30

