# Created by Kenney (www.kenney.nl)

mtllib stone_smallH.mtl

g stone_smallH

v 0 0.273896 0.230912
v -0.1632795 0.273896 0.1632795
v 0 0.4073919 0.1408563
v -0.09960046 0.4073919 0.09960046
v 0.1632795 0.129888 -0.1632795
v 0.1077644 0 -0.1077644
v 0.230912 0.129888 0
v 0.1524019 0 0
v -0.1632795 0.129888 -0.1632795
v -0.230912 0.129888 0
v -0.1077644 0 -0.1077644
v -0.1524019 0 0
v 0.230912 0.273896 0
v 0.1632795 0.273896 0.1632795
v 0.1632795 0.129888 0.1632795
v 0 0.129888 -0.230912
v -0.1632795 0.273896 -0.1632795
v 0 0.273896 -0.230912
v 0.1632795 0.273896 -0.1632795
v 0 0.4073919 -0.1408563
v 0.09960046 0.4073919 -0.09960046
v 0.1077644 0 0.1077644
v 0 0 0.1524019
v 0 0 -0.1524019
v -0.1077644 0 0.1077644
v 0 0.129888 0.230912
v -0.1408563 0.4073919 -1.443823E-15
v -0.230912 0.273896 0
v -0.1632795 0.129888 0.1632795
v 0.09960046 0.4073919 0.09960046
v 0.1408563 0.4073919 -1.443823E-15
v -0.09960046 0.4073919 -0.09960046

vn -0.3247708 0.5289272 0.7840663
vn 0.8066284 -0.4875621 -0.3341163
vn -0.8066284 -0.4875621 -0.3341163
vn 0.9238796 0 0.3826832
vn -0.3826832 0 -0.9238796
vn 0.3247708 0.5289272 -0.7840663
vn 0 -1 0
vn 0.3826832 0 0.9238796
vn -0.7840663 0.5289272 0.3247708
vn -0.3341163 -0.4875622 0.8066284
vn 0.3341163 -0.4875622 0.8066284
vn -0.9238796 0 -0.3826832
vn -0.8066284 -0.4875621 0.3341163
vn 0.3247708 0.5289272 0.7840663
vn 0.8066284 -0.4875621 0.3341163
vn -0.3826832 0 0.9238796
vn 0.3341163 -0.4875622 -0.8066284
vn -0.9238796 0 0.3826832
vn 0.7840663 0.5289272 0.3247708
vn 0.3826832 0 -0.9238796
vn -0.7840663 0.5289272 -0.3247708
vn 0.9238796 0 -0.3826832
vn 0 1 0
vn 0.7840663 0.5289272 -0.3247708
vn -0.3341163 -0.4875622 -0.8066284
vn -0.3247708 0.5289272 -0.7840663

vt 3.478983 4.708973
vt -3.478986 4.708973
vt 2.12218 10.90191
vt -2.122181 10.90191
vt 3.478986 8.559752
vt 2.29613 2.702726
vt -3.478983 8.559752
vt -2.296129 2.702726
vt -3.478986 8.559752
vt 3.478983 8.559752
vt -2.29613 2.702726
vt 2.296129 2.702726
vt 3.478983 10.78331
vt 3.478983 5.1137
vt -3.478986 10.78331
vt -3.478986 5.1137
vt 3.478986 5.1137
vt -3.478983 5.1137
vt 3.478986 10.78331
vt -3.478983 10.78331
vt 6.000075 0
vt 4.242694 -4.242694
vt 4.242694 4.242694
vt 0 6.000075
vt 0 -6.000075
vt -4.242694 4.242694
vt -4.242694 -4.242694
vt -6.000075 0
vt -2.12218 10.90191
vt 2.122181 10.90191
vt -3.478983 4.708973
vt 3.478986 4.708973
vt -5.545525 -5.684342E-14
vt -3.921278 3.921278
vt -3.921278 -3.921278
vt 0 -5.545525
vt 0 5.545525
vt 3.921278 -3.921278
vt 3.921278 3.921278
vt 5.545525 -5.684342E-14

usemtl stone

f 3/3/1 2/2/1 1/1/1
f 2/2/1 3/3/1 4/4/1
f 7/7/2 6/6/2 5/5/2
f 6/6/2 7/7/2 8/8/2
f 11/11/3 10/10/3 9/9/3
f 10/10/3 11/11/3 12/12/3
f 14/15/4 7/14/4 13/13/4
f 7/14/4 14/15/4 15/16/4
f 17/19/5 16/18/5 9/17/5
f 16/18/5 17/19/5 18/20/5
f 20/3/6 19/2/6 18/1/6
f 19/2/6 20/3/6 21/4/6
f 22/23/7 6/22/7 8/21/7
f 6/22/7 22/23/7 23/24/7
f 6/22/7 23/24/7 24/25/7
f 24/25/7 23/24/7 25/26/7
f 24/25/7 25/26/7 11/27/7
f 11/27/7 25/26/7 12/28/7
f 14/19/8 26/18/8 15/17/8
f 26/18/8 14/19/8 1/20/8
f 28/31/9 4/30/9 27/29/9
f 4/30/9 28/31/9 2/32/9
f 26/10/10 25/11/10 23/12/10
f 25/11/10 26/10/10 29/9/10
f 15/5/11 23/8/11 22/6/11
f 23/8/11 15/5/11 26/7/11
f 10/14/12 17/15/12 9/16/12
f 17/15/12 10/14/12 28/13/12
f 25/6/13 10/7/13 12/8/13
f 10/7/13 25/6/13 29/5/13
f 30/30/14 1/31/14 14/32/14
f 1/31/14 30/30/14 3/29/14
f 15/9/15 8/12/15 7/10/15
f 8/12/15 15/9/15 22/11/15
f 1/13/16 29/16/16 26/14/16
f 29/16/16 1/13/16 2/15/16
f 16/10/17 6/11/17 24/12/17
f 6/11/17 16/10/17 5/9/17
f 29/17/18 28/20/18 10/18/18
f 28/20/18 29/17/18 2/19/18
f 30/4/19 13/1/19 31/3/19
f 13/1/19 30/4/19 14/2/19
f 18/13/20 5/16/20 16/14/20
f 5/16/20 18/13/20 19/15/20
f 28/1/21 32/4/21 17/2/21
f 32/4/21 28/1/21 27/3/21
f 13/20/22 5/17/22 19/19/22
f 5/17/22 13/20/22 7/18/22
f 21/35/23 30/34/23 31/33/23
f 30/34/23 21/35/23 20/36/23
f 30/34/23 20/36/23 3/37/23
f 3/37/23 20/36/23 32/38/23
f 3/37/23 32/38/23 4/39/23
f 4/39/23 32/38/23 27/40/23
f 21/30/24 13/31/24 19/32/24
f 13/31/24 21/30/24 31/29/24
f 9/5/25 24/8/25 11/6/25
f 24/8/25 9/5/25 16/7/25
f 32/30/26 18/31/26 17/32/26
f 18/31/26 32/30/26 20/29/26

