# Created by Kenney (www.kenney.nl)

mtllib stone_tallC.mtl

g stone_tallC

v 0.2280972 0 -0.1109762
v 0.2280972 0 0.1524078
v 0.1368583 0.645832 -0.06658571
v 0.1368583 0.645832 0.09144469
v -0.1368583 0.645832 0.03006557
v -0.1368583 0.645832 0.09144469
v -0.2280972 0 0.05010928
v -0.2280972 0 0.1524078
v -0.1140486 0 0.2182538
v -0.06842914 0.645832 0.1309523
v 0.03421458 0.645832 0.1111985
v -0.05574309 0.645832 -0.05044337
v 0.0253721 0.645832 -0.1309523
v -0.02492688 0.782936 -0.03746208
v 0.03023147 0.782936 -0.09220818
v 0.1060421 0.782936 -0.04843888
v 0.1060421 0.782936 0.05902179
v 0.03624434 0.782936 0.07245437
v 0.04228684 0 -0.2182538

vn 0.9901679 0.1398844 0
vn -0.9901679 0.1398844 0
vn 0.1876496 0.11855 0.9750557
vn -0.6871886 0.2200104 -0.6923635
vn 0.9756588 0.2192941 0
vn 0.1822317 0.2648868 0.9469036
vn 0.4875943 0.2213756 -0.8445382
vn -0.7023437 0.07726076 -0.7076328
vn 0.4958175 0.1290731 -0.8587812
vn 0 1 0
vn -0.8640849 0.1486851 0.4808845
vn -0.4942939 0.1506459 0.8561421
vn 0 -1 0

vt 4.36914 -1.25619
vt -6.000309 -1.25619
vt 2.621485 24.42274
vt -3.600184 24.42274
vt 1.183684 24.42274
vt 3.600184 24.42274
vt 1.972806 -1.25619
vt 6.000309 -1.25619
vt 7.684434 -0.8997099
vt -6.033056 -0.8997099
vt 4.610661 24.70732
vt -3.619833 24.70732
vt 0.4954138 24.70732
vt 0.1586258 24.1532
vt -4.340835 24.1532
vt -0.3424479 29.68657
vt -3.402083 29.68657
vt 2.621485 23.62596
vt -3.600184 23.62596
vt 1.907043 29.15843
vt -2.323693 29.15843
vt 4.610661 23.31203
vt 0.4954138 23.31203
vt 3.660521 28.90978
vt 0.8621515 28.90978
vt 1.712726 23.69661
vt -3.35551 23.69661
vt 0.7843644 29.23174
vt -2.662037 29.23174
vt 7.763481 -0.3805781
vt -7.234725 -0.3805782
vt 4.658089 25.12211
vt -4.340835 25.12211
vt 0.1586259 25.12211
vt 2.854544 -1.067936
vt -5.592516 -1.067936
vt 1.712726 24.573
vt -3.355509 24.573
vt -1.347031 4.377893
vt 2.694061 5.155602
vt 2.19461 -1.98596
vt 5.388123 1.183684
vt 5.388123 3.600184
vt -4.174887 -1.907043
vt -4.174887 2.323693
vt -1.190215 -3.630243
vt -1.426943 2.852534
vt 0.9813733 -1.474885
vt -2.802543 25.0023
vt -1.765983 30.46077
vt 4.48044 25.0023
vt 3.186445 30.46077
vt 0.407792 -1.459235
vt -4.776931 -1.459235
vt 0.2446761 24.26074
vt -2.866159 24.26074

usemtl stone

f 3/3/1 2/2/1 1/1/1
f 2/2/1 3/3/1 4/4/1
f 7/7/2 6/6/2 5/5/2
f 6/6/2 7/7/2 8/8/2
f 4/11/3 9/10/3 2/9/3
f 9/10/3 4/11/3 10/12/3
f 10/12/3 4/11/3 11/13/3
f 14/16/4 13/15/4 12/14/4
f 13/15/4 14/16/4 15/17/4
f 16/20/5 4/19/5 3/18/5
f 4/19/5 16/20/5 17/21/5
f 17/24/6 11/23/6 4/22/6
f 11/23/6 17/24/6 18/25/6
f 15/28/7 3/27/7 13/26/7
f 3/27/7 15/28/7 16/29/7
f 5/32/8 19/31/8 7/30/8
f 19/31/8 5/32/8 13/33/8
f 13/33/8 5/32/8 12/34/8
f 13/37/9 1/36/9 19/35/9
f 1/36/9 13/37/9 3/38/9
f 12/41/10 10/40/10 11/39/10
f 10/40/10 12/41/10 5/42/10
f 10/40/10 5/42/10 6/43/10
f 15/46/10 17/45/10 16/44/10
f 17/45/10 15/46/10 18/47/10
f 18/47/10 15/46/10 14/48/10
f 11/51/11 14/50/11 12/49/11
f 14/50/11 11/51/11 18/52/11
f 10/55/12 8/54/12 9/53/12
f 8/54/12 10/55/12 6/56/12

usemtl _defaultMat

f 13/23/10 4/24/10 3/25/10
f 4/23/10 13/24/10 11/25/10
f 11/23/10 13/24/10 12/25/10
f 9/54/13 1/55/13 2/56/13
f 1/54/13 9/55/13 19/56/13
f 19/54/13 9/55/13 7/56/13
f 7/54/13 9/55/13 8/56/13

