# Created by Kenney (www.kenney.nl)

mtllib stone_tallF.mtl

g stone_tallF

v -0.03590878 0.266992 0.06626697
v -0.166386 0.266992 0
v -0.02764976 0.573672 0.03655178
v -0.1281172 0.573672 -0.01447379
v -1.443823E-15 0 0.256168
v -0.221848 0 0.128084
v -1.443823E-15 0.266992 0.192126
v -0.2004156 0.1031749 0.11571
v -0.1143178 0.266992 0.1261246
v -1.443823E-15 0 -0.256168
v 0.221848 0 -0.128084
v -1.443823E-15 0.266992 -0.192126
v 0.166386 0.266992 -0.09606301
v -0.166386 0.266992 0.03593981
v 0.166386 0.266992 -1.443823E-15
v 0.1642958 0.2837427 -0.0007905487
v 0.08634606 0.573672 -0.0007905487
v 0.1281172 0.573672 -0.058429
v -0.221848 0 -0.128084
v -0.166386 0.266992 -0.09606301
v 0.221848 0 0.128084
v 0.166386 0.266992 0.09606301
v -0.1281172 0.573672 -0.0884423
v 1.443823E-15 0.573672 -0.1624108
v 0.1281172 0.573672 -0.0884423

vn -0.4506419 0.09810901 0.8872973
vn -0.4895492 0.2033872 0.8479241
vn 0.4895492 0.2033872 -0.8479241
vn -0.7974966 0.3898706 0.4604347
vn 0.310215 0.08340368 0.9470008
vn 0.7911906 0.2127177 0.5733835
vn -0.9790983 0.2033873 0
vn -0.4895492 0.2033872 -0.8479241
vn 0.9790983 0.2033872 0
vn -0.4982488 0.08361809 -0.8629925
vn -0.9923041 0.1238238 0
vn 0.4982488 0.08361809 -0.8629925
vn 0 1 0
vn 0.9923041 0.1238238 0
vn 0.4895492 0.2033872 0.8479241
vn 0 -1 0

vt -0.07908567 10.16976
vt -5.840533 10.16976
vt -0.318932 22.30231
vt -4.755246 22.30231
vt 5.042677 -1.776419
vt -5.042678 -1.776419
vt 3.782007 8.959475
vt -4.555513 2.3723
vt -1.414954 8.959475
vt 5.042677 -1.776419
vt -5.042678 -1.776419
vt 3.782008 8.959475
vt -3.782008 8.959475
vt 6.345267E-07 0.188456
vt -2.049929 7.192153
vt 2.04993 7.192153
vt 6.225141 10.30479
vt -2.155646 10.30479
vt 6.156628 10.96658
vt -1.482459 22.42103
vt 3.240227 22.42103
vt 2.020046 21.48697
vt 4.822526 21.48697
vt 3.82091 9.805074
vt -5.042677 -1.77642
vt -3.782008 8.959474
vt 5.042678 -1.77642
vt 3.896317E-07 8.959474
vt 1.414953 8.959474
vt 4.555512 2.372299
vt 5.042678 -1.776419
vt -5.042677 -1.776419
vt 3.782008 8.959475
vt -3.782008 8.959475
vt 5.042677 -1.77642
vt -5.042677 -1.77642
vt 3.782008 8.959474
vt 5.682666E-14 8.959474
vt -3.782008 8.959474
vt 3.782008 9.926932
vt -3.782007 9.926932
vt 2.627229 22.04338
vt -3.197063 22.04338
vt -3.782008 9.619478
vt -3.48198 21.78713
vt -2.295917E-17 9.619478
vt -0.5698342 21.78713
vt 3.782007 9.926932
vt -3.782008 9.926932
vt 3.197063 22.04338
vt -2.627229 22.04338
vt -5.043984 -3.48198
vt -5.043984 -2.300354
vt -5.684342E-14 -6.394126
vt -3.399451 -0.03112396
vt 1.088573 1.439046
vt 5.043984 -3.48198
vt 5.043984 -0.5698342
vt -6.55063 -5.684342E-14
vt -6.55063 3.782008
vt 1.413731 2.608936
vt 5.684342E-14 7.564016
vt 4.500701 4.965535
vt 6.55063 0
vt 6.55063 1.414953
vt 3.782007 9.619478
vt -9.370543E-07 9.619478
vt 3.48198 21.78713
vt 2.300354 21.78713
vt 0.03112304 10.28407

usemtl stone

f 3/3/1 2/2/1 1/1/1
f 2/2/1 3/3/1 4/4/1
f 7/7/2 6/6/2 5/5/2
f 6/6/2 7/7/2 8/8/2
f 8/8/2 7/7/2 9/9/2
f 12/12/3 11/11/3 10/10/3
f 11/11/3 12/12/3 13/13/3
f 9/16/4 14/15/4 8/14/4
f 16/19/5 1/18/5 15/17/5
f 1/18/5 16/19/5 3/20/5
f 3/20/5 16/19/5 17/21/5
f 16/24/6 18/23/6 17/22/6
f 6/27/7 20/26/7 19/25/7
f 20/26/7 6/27/7 2/28/7
f 2/28/7 6/27/7 14/29/7
f 14/29/7 6/27/7 8/30/7
f 20/33/8 10/32/8 19/31/8
f 10/32/8 20/33/8 12/34/8
f 13/37/9 21/36/9 11/35/9
f 21/36/9 13/37/9 15/38/9
f 21/36/9 15/38/9 22/39/9
f 23/42/10 12/41/10 20/40/10
f 12/41/10 23/42/10 24/43/10
f 2/46/11 23/45/11 20/44/11
f 23/45/11 2/46/11 4/47/11
f 24/50/12 13/49/12 12/48/12
f 13/49/12 24/50/12 25/51/12
f 24/54/13 18/53/13 25/52/13
f 18/53/13 24/54/13 17/55/13
f 17/55/13 24/54/13 3/56/13
f 3/56/13 24/54/13 23/57/13
f 3/56/13 23/57/13 4/58/13
f 1/61/13 22/60/13 15/59/13
f 22/60/13 1/61/13 7/62/13
f 7/62/13 1/61/13 9/63/13
f 9/63/13 1/61/13 2/64/13
f 9/63/13 2/64/13 14/65/13
f 25/68/14 15/67/14 13/66/14
f 15/67/14 25/68/14 18/69/14
f 15/67/14 18/69/14 16/70/14
f 22/33/15 5/32/15 21/31/15
f 5/32/15 22/33/15 7/34/15

usemtl _defaultMat

f 5/56/16 11/57/16 21/58/16
f 11/56/16 5/57/16 10/58/16
f 10/56/16 5/57/16 6/58/16
f 10/56/16 6/57/16 19/58/16

