# Created by Kenney (www.kenney.nl)

mtllib stone_tallB.mtl

g stone_tallB

v 0.3600568 0 0.08356034
v 0.3090084 0 0.3614163
v 0.2336455 0.2484108 0.1068408
v 0.2071961 0.2484108 0.2508045
v 0.01186151 0.6099324 -0.1639817
v 0.02828816 0.8837796 -0.1355299
v -0.04897795 0.6099324 -0.05860467
v -0.01612463 0.8837796 -0.05860467
v -0.07064554 0.176792 -0.249302
v -0.04950735 0.6099324 -0.2126896
v -0.1117665 0.176792 -0.1780785
v -0.1184505 0.4525875 -0.1198766
v -0.1550414 0.6099324 -0.02989933
v -0.1703989 0.4525875 -0.02989933
v -0.2904344 0 -0.2460769
v -0.2064731 0.176792 -0.1903995
v -0.3104571 0 -0.1713514
v -0.2145595 0.176792 -0.1602207
v -0.3182681 0 0.09656523
v -0.268504 0.1967632 0.1038892
v -0.3438868 0 0.1409381
v -0.2557577 0.3211651 0.1409381
v -0.2192105 0.3211651 0.07763629
v -0.1119607 0 -0.3850187
v -0.09078308 0.176792 -0.2804643
v -0.1527445 0.176792 -0.1780785
v -0.144506 0.4525875 -0.1198766
v 0.2939981 0 -0.37683
v 0.3823942 0 -0.1778684
v 0.2763189 0.173184 -0.3370377
v 0.3470356 0.173184 -0.1778684
v 0.1335404 0.6099324 -0.1639817
v 0.1171137 0.8837796 -0.1355299
v -0.1917444 0.3211651 0.07763629
v -0.2055423 0.4525875 0.04990185
v -0.2347606 0.4525875 0.04990185
v 0.1792037 0.2484108 0.1834495
v 0.1247873 0.2484108 0.1834495
v 0.1615607 0.6099324 0.1528909
v 0.03659638 0.3211651 0.1772998
v -0.0635998 0.3211651 0.1772998
v -0.04950735 0.6099324 0.1528909
v 0.07582186 0.1472947 0.1919966
v 0.2670946 0.6099324 -0.02989933
v 0.1943798 0.6099324 -0.05860467
v 0.1615607 0.6099324 -0.2126896
v 0.1335404 0.6099324 0.04677231
v 0.01186151 0.6099324 0.04677231
v -0.1594859 0.4525875 -0.01099746
v -0.1517063 0.3211651 0.02469487
v 0.02828816 0.8837796 0.01832053
v -0.2868833 0.4525875 -0.0570265
v -0.3823942 0 -0.03498736
v 0.07112605 0 0.3850187
v 0.1516743 0.2484108 0.2563134
v 0.01982204 0 -0.3497078
v -0.06256052 0.176792 -0.2729021
v -0.05797861 0.176792 -0.249302
v 0.1484263 0.368016 -0.2331382
v 0.1733667 0.368016 -0.2331382
v 0.1365716 0.173184 -0.249607
v 0.09604096 0.173184 -0.249607
v 0.03641428 0 -0.2642457
v 0.06718641 0 -0.2642457
v 0.1551506 0.173184 -0.2914245
v 0.1647364 0.368016 -0.2698489
v 0.1615265 0.8837796 -0.05860467
v 0.1171137 0.8837796 0.01832053
v 0.04526362 0 0.3149316
v 0.306505 0.173184 -0.1778684
v 0.2560536 0.173184 -0.2914245
v 0.1348853 0.173184 -0.3370377
v 0.2936577 0.173184 -0.05772536
v 0.270753 0.173184 -0.09739767
v 0.1172061 0 -0.37683
v 0.2464678 0.368016 -0.2698489
v -0.2868833 0.4525875 -0.07874518
v 0.2873335 0.368016 -0.1778684
v -0.2214854 0 0.3529435
v -0.1774209 0.3211651 0.2766216
v -0.3823942 0 -0.1505695
v 0.02331741 0 0.3529435
v -0.02074709 0.3211651 0.2766216
v 0.2516489 0.368016 -0.0975495
v 0.3209906 0 -0.0396613
v 0.3266266 0 -0.02989933
v 0.3093284 0 6.203122E-05
v 0.2284095 0.2484108 0.09822246

vn 0.8854463 0.4353404 0.1626765
vn -0.8613888 0.1033404 -0.497323
vn -0.862948 0.08422745 -0.4982233
vn -0.8498368 0.4753149 -0.2277129
vn -0.842561 0.2312022 -0.4864529
vn -0.540467 0.4753147 -0.6942414
vn -0.1370748 0.2084543 -0.9683787
vn 0 0.206485 -0.9784498
vn -0.1370748 0.2084543 -0.9683787
vn 0.8983616 0.1834159 -0.3991303
vn 0 0.1033405 -0.9946461
vn 0 0.206485 0.9784498
vn 0 0.08422738 0.9964465
vn 0 1 0
vn -0.862948 0.08422739 0.4982234
vn -0.8613886 0.1033403 0.4973232
vn -0.8795208 0.2064851 0.4287274
vn 0.08888711 0.4353401 0.8958672
vn 0.2277123 0.4753146 -0.8498371
vn 0 0.08422735 -0.9964465
vn -0.9101922 0.08956347 -0.4043865
vn 0.8613887 0.1033404 0.4973231
vn -0.8445987 0.4353403 0.3116601
vn 0 0.1033403 0.9946461
vn -0.8983617 0.1834154 -0.3991303
vn 0.780404 0.206485 0.5901979
vn 0 0.110067 -0.9939242
vn 0.9101924 0.08956332 -0.4043863
vn -0.8425611 0.2312022 0.4864528
vn 0.8613888 0.1033404 -0.4973229
vn -0.2715596 0.2064849 -0.9400102
vn 0 0.2312021 0.9729057
vn 0.8629481 0.08422744 -0.4982232
vn 0 0.2239334 -0.9746044
vn 0.862948 0.08422743 0.4982232
vn 0.7694012 0.4353405 -0.4674404
vn -0.9784498 0.2064853 0
vn 0.9101925 0.08956337 0.4043861
vn 0.8983616 0.1834161 0.3991303
vn 0.8425611 0.2312022 0.4864529
vn 0.8636886 0.475315 -0.167683
vn 0 -1 0

vt -0.6741405 -6.328359
vt -11.79644 -6.328359
vt -2.47491 4.535046
vt -8.237636 4.535046
vt -5.824532 23.59274
vt -5.177812 34.43216
vt -1.034022 23.59274
vt -1.680741 34.43216
vt -7.109412 6.319356
vt -6.277201 23.43294
vt -3.871545 6.319356
vt -1.755547 17.21617
vt 2.032563 23.43294
vt 2.334877 17.21617
vt -6.398511 -6.441593
vt -5.136722 1.469513
vt -3.352781 -6.441593
vt -3.906666 1.469513
vt 9.55756 -2.069402
vt 8.827664 5.892913
vt 11.57478 -2.069402
vt 9.839955 10.92702
vt 6.962214 10.92702
vt 3.071292 -6.972269
vt -5.833458 -6.972268
vt 1.809501 0.9388366
vt -3.962727 0.9388357
vt 6.013565 5.362659
vt 4.400254 5.362659
vt 5.689212 16.4599
vt 4.663405 16.4599
vt 8.85839 -3.044953
vt 0.2869548 -3.044954
vt 7.70931 3.89098
vt 0.8521608 3.89098
vt -0.4669887 23.21736
vt -5.257497 23.21736
vt -1.113707 34.05678
vt -4.610777 34.05678
vt -7.548994 11.74068
vt -8.630333 11.74068
vt -8.092218 17.02875
vt -9.242541 17.02875
vt -10.57102 6.735092
vt 7.055263 9.136875
vt 4.912884 9.136875
vt 6.360656 23.42077
vt 1.440802 12.01143
vt -2.503929 12.01143
vt -1.949108 23.42077
vt 2.985113 5.14173
vt -10.51554 -1.177139
vt -7.65275 -2.307271
vt -6.360656 -8.373606
vt -5.257497 -6.455974
vt 1.949108 -8.373606
vt -0.4669887 -6.455974
vt 1.928266 -2.307271
vt -6.360656 6.019327
vt -5.257497 1.841429
vt 1.949108 6.019327
vt -0.4669887 1.841429
vt 6.10399 -1.177139
vt -4.373742 17.31532
vt -4.071428 23.53209
vt -3.514451 17.31532
vt 4.238336 23.53209
vt -2.144361 12.12275
vt 4.793157 12.12275
vt -2.962288 23.83117
vt -2.315569 34.67059
vt 1.828219 23.83117
vt 1.181501 34.67059
vt -6.9671 15.54118
vt -2.283805 15.54117
vt -7.834785 -2.669679
vt -2.072985 -2.669679
vt -0.9553237 5.24752
vt 10.70135 -6.687099
vt 1.28992 -6.687099
vt 7.142548 4.176304
vt 4.945916 4.176303
vt 8.180928 -6.417162
vt 2.809609 -6.417162
vt 6.310196 1.493941
vt 5.159875 1.493942
vt 2.781321 6.108887
vt 2.282623 6.108887
vt 1.949108 23.22247
vt -5.843556 13.66424
vt -6.825459 13.66424
vt -6.360656 23.22247
vt -5.376835 5.966334
vt -3.78114 5.966334
vt -1.433633 -0.8762488
vt -2.645134 -0.8762488
vt -12.96522 6.8736
vt -12.34218 14.5751
vt -11.16369 6.8736
vt -10.76066 14.5751
vt 5.177812 34.15828
vt 5.82453 23.31885
vt 1.680741 34.15828
vt 1.034024 23.31885
vt 8.476603 9.722602
vt 11.53433 9.722602
vt 8.124928 5.300632
vt 12.24912 -1.140803
vt 15.19032 -1.140803
vt -6.359313 -2.307271
vt -4.610777 0.7212808
vt -4.610777 -5.335823
vt -1.113707 -5.335823
vt -1.113707 0.7212808
vt 0.6348282 -2.307271
vt 5.257497 23.69423
vt 0.4669887 23.69423
vt 4.610777 34.53365
vt 1.113707 34.53365
vt -13.66282 -7.002693
vt -12.06713 -7.002693
vt -10.8787 -13.2692
vt -10.08085 -11.47341
vt -5.310445 -13.2692
vt -6.108291 -11.47341
vt -5.376835 -9.827045
vt -3.78114 -9.827045
vt -11.56133 -2.272652
vt -10.65957 -3.834554
vt -15.43148 -0.33137
vt -14.2824 6.604563
vt -10.58125 -0.33137
vt -10.5158 6.604563
vt -3.442123 18.52243
vt -4.378158 13.23436
vt -6.448183 18.52243
vt -6.991408 13.23436
vt -6.108291 5.513998
vt -10.08085 5.513998
vt -6.485685 13.23144
vt -9.703456 13.23144
vt 4.663405 -4.71955
vt 6.708619 -1.177139
vt 5.689212 -4.71955
vt 11.29462 -3.100204
vt 8.092218 1.96464
vt 9.242541 1.96464
vt 11.29462 -2.245138
vt 6.278973 -0.4329709
vt 6.39214 5.548538
vt 1.500046 5.548538
vt 5.769099 13.25004
vt 1.806502 13.25004
vt -1.964072 -3.352284
vt -0.2292489 9.644139
vt 7.673832 -3.352284
vt 5.939011 9.644139
vt 2.96229 23.08042
vt -1.828219 23.08042
vt 2.315571 33.91984
vt -1.181501 33.91984
vt 12.8182 -2.038707
vt 9.870214 -2.038707
vt 9.990464 16.17215
vt 6.364666 5.074908
vt 3.831487 5.074908
vt 4.155838 16.17215
vt 0.9180082 -3.212649
vt -8.719898 -3.212649
vt -0.8168147 9.783774
vt -6.985074 9.783774
vt 4.536233 13.55292
vt -1.627719 13.55292
vt 4.071428 23.11115
vt -4.238335 23.11115
vt -2.008961 5.855011
vt -3.812488 5.855011
vt -4.966439 -0.987572
vt -5.410225 -0.9875721
vt -4.614413 -3.322238
vt -11.57473 -3.322238
vt -5.310445 3.673696
vt -10.8787 3.673696
vt -1.440802 6.980305
vt 0.8168147 10.89061
vt 2.503929 6.980305
vt 6.985074 10.89061
vt 5.972689 0.972239
vt 7.548994 3.056547
vt 10.0692 5.548743
vt 8.630333 3.056547
vt 6.2772 23.2103
vt 7.44909 -0.8884247
vt -2.032563 23.2103
vt 6.087028 -0.8884248
vt 1.147307 8.926405
vt -2.72717 8.926405
vt -6.325355 -4.530481
vt -10.17182 -4.530481
vt -7.974035 6.332923
vt -8.371052 6.332923
vt -5.927934 -3.108613
vt -3.100204 15.10224
vt -1.377455 -3.108613
vt -2.245138 15.10224
vt 10.99253 13.75934
vt 11.29899 6.057834
vt 7.532323 13.75934
vt 7.832239 6.057834
vt 2.282623 -9.815039
vt 2.781321 -9.815039
vt 2.463013 -10.74418
vt 3.574137 -11.0419
vt 4.400254 -7.010963
vt 8.128862 -7.496045
vt 6.013565 -7.010963
vt 8.447225 -6.307902
vt 11.94687 4.933962
vt 12.51208 -2.001971
vt 6.771008 4.933962
vt 6.557996 -2.001971
vt -5.32472 11.20629
vt -5.053663 4.170365
vt -9.839954 11.20629
vt -9.846729 -1.790135
vt -11.57478 -1.790135
vt 13.36692 -1.611376
vt 9.939447 -1.611376
vt 11.01666 6.29973
vt 10.07017 6.29973
vt -11.31234 -7.002693
vt -9.907436 -3.840531
vt -9.703456 -10.62397
vt -6.825459 -9.178671
vt -6.485685 -10.62397
vt -5.843556 -9.178671
vt -9.198641 4.206331
vt -8.157327 9.874194
vt -8.9925 3.867026
vt -7.055263 7.222422
vt -5.971429 10.09108
vt -4.912884 7.222422

usemtl stone

f 3/3/1 2/2/1 1/1/1
f 2/2/1 3/3/1 4/4/1
f 7/7/2 6/6/2 5/5/2
f 6/6/2 7/7/2 8/8/2
f 11/11/3 10/10/3 9/9/3
f 10/10/3 11/11/3 12/12/3
f 10/10/3 12/12/3 13/13/3
f 13/13/3 12/12/3 14/14/3
f 17/17/4 16/16/4 15/15/4
f 16/16/4 17/17/4 18/18/4
f 21/21/5 20/20/5 19/19/5
f 22/22/5 20/20/5 21/21/5
f 20/20/5 22/22/5 23/23/5
f 16/26/6 24/25/6 15/24/6
f 24/25/6 16/26/6 25/27/6
f 27/30/9 11/29/8 26/28/7
f 11/29/8 27/30/9 12/31/8
f 30/34/10 29/33/10 28/32/10
f 29/33/10 30/34/10 31/35/10
f 6/38/11 32/37/11 5/36/11
f 32/37/11 6/38/11 33/39/11
f 35/42/12 23/41/12 34/40/12
f 36/43/12 23/41/12 35/42/12
f 23/41/12 36/43/12 20/44/12
f 39/47/13 38/46/13 37/45/13
f 38/46/13 39/47/13 40/48/13
f 40/48/13 39/47/13 41/49/13
f 41/49/13 39/47/13 42/50/13
f 40/48/13 43/51/13 38/46/13
f 46/54/14 45/53/14 44/52/14
f 45/53/14 46/54/14 32/55/14
f 32/55/14 46/54/14 10/56/14
f 32/55/14 10/56/14 5/57/14
f 5/57/14 10/56/14 7/58/14
f 45/53/14 39/59/14 44/52/14
f 39/59/14 45/53/14 47/60/14
f 39/59/14 47/60/14 42/61/14
f 42/61/14 7/58/14 10/56/14
f 42/61/14 47/60/14 48/62/14
f 42/61/14 48/62/14 7/58/14
f 42/61/14 10/56/14 13/63/14
f 49/66/15 13/65/15 14/64/15
f 13/65/15 49/66/15 42/67/15
f 42/67/15 49/66/15 50/68/15
f 42/67/15 50/68/15 41/69/15
f 48/72/16 8/71/16 7/70/16
f 8/71/16 48/72/16 51/73/16
f 53/76/17 36/75/17 52/74/17
f 36/75/17 53/76/17 19/77/17
f 36/75/17 19/77/17 20/78/17
f 4/81/18 54/80/18 2/79/18
f 54/80/18 4/81/18 55/82/18
f 25/85/19 56/84/19 24/83/19
f 56/84/19 25/85/19 57/86/19
f 10/89/20 58/88/20 9/87/20
f 58/88/20 10/89/20 59/90/20
f 59/90/20 10/89/20 60/91/20
f 60/91/20 10/89/20 46/92/20
f 61/93/20 58/88/20 59/90/20
f 62/94/20 58/88/20 61/93/20
f 62/94/20 63/95/20 58/88/20
f 63/95/20 62/94/20 64/96/20
f 61/99/21 66/98/21 65/97/21
f 66/98/21 61/99/21 59/100/21
f 68/103/22 45/102/22 67/101/22
f 45/102/22 68/103/22 47/104/22
f 43/107/23 55/106/23 38/105/23
f 55/106/23 43/107/23 69/108/23
f 55/106/23 69/108/23 54/109/23
f 33/112/14 68/111/14 67/110/14
f 68/111/14 33/112/14 6/113/14
f 68/111/14 6/113/14 51/114/14
f 51/114/14 6/113/14 8/115/14
f 68/118/24 48/117/24 47/116/24
f 48/117/24 68/118/24 51/119/24
f 30/122/14 70/121/14 31/120/14
f 70/121/14 30/122/14 71/123/14
f 71/123/14 30/122/14 72/124/14
f 71/123/14 72/124/14 65/125/14
f 65/125/14 72/124/14 61/126/14
f 61/126/14 72/124/14 62/127/14
f 70/121/14 73/128/14 31/120/14
f 73/128/14 70/121/14 74/129/14
f 64/132/25 72/131/25 75/130/25
f 72/131/25 64/132/25 62/133/25
f 35/136/26 50/135/26 49/134/26
f 50/135/26 35/136/26 34/137/26
f 66/140/27 71/139/27 65/138/27
f 71/139/27 66/140/27 76/141/27
f 27/144/14 14/143/14 12/142/14
f 14/143/14 27/144/14 77/145/14
f 14/143/14 77/145/14 35/146/14
f 35/146/14 77/145/14 36/147/14
f 36/147/14 77/145/14 52/148/14
f 35/146/14 49/149/14 14/143/14
f 76/152/28 70/151/28 71/150/28
f 70/151/28 76/152/28 78/153/28
f 79/156/29 22/155/29 21/154/29
f 22/155/29 79/156/29 80/157/29
f 33/160/30 45/159/30 32/158/30
f 45/159/30 33/160/30 67/161/30
f 77/164/31 17/163/31 81/162/31
f 17/163/31 77/164/31 18/165/31
f 18/165/31 77/164/31 26/166/7
f 26/166/7 77/164/31 27/167/9
f 83/170/32 79/169/32 82/168/32
f 79/169/32 83/170/32 80/171/32
f 46/174/33 84/173/33 60/172/33
f 84/173/33 46/174/33 44/175/33
f 84/173/33 44/175/33 74/176/33
f 74/176/33 44/175/33 73/177/33
f 73/177/33 44/175/33 85/178/33
f 85/178/33 44/175/33 86/179/33
f 72/182/34 28/181/34 75/180/34
f 28/181/34 72/182/34 30/183/34
f 41/186/14 83/185/14 40/184/14
f 83/185/14 41/186/14 80/187/14
f 80/187/14 41/186/14 50/188/14
f 80/187/14 50/188/14 34/189/14
f 80/187/14 34/189/14 22/190/14
f 22/190/14 34/189/14 23/191/14
f 39/194/35 86/193/35 44/192/35
f 86/193/35 39/194/35 87/195/35
f 87/195/35 39/194/35 88/196/35
f 88/196/35 39/194/35 37/197/35
f 88/200/36 1/199/36 87/198/36
f 1/199/36 88/200/36 3/201/36
f 53/204/37 77/203/37 81/202/37
f 77/203/37 53/204/37 52/205/37
f 84/208/38 70/207/38 78/206/38
f 70/207/38 84/208/38 74/209/38
f 57/212/14 9/211/14 58/210/14
f 9/211/14 57/212/14 25/213/14
f 9/211/14 25/213/14 11/214/14
f 11/214/14 25/213/14 16/215/14
f 11/214/14 16/215/14 26/216/14
f 26/216/14 16/215/14 18/217/14
f 73/220/39 29/219/39 31/218/39
f 29/219/39 73/220/39 85/221/39
f 83/224/40 43/223/40 40/222/40
f 43/223/40 83/224/40 69/225/40
f 69/225/40 83/224/40 82/226/40
f 57/229/41 63/228/41 56/227/41
f 63/228/41 57/229/41 58/230/41
f 76/233/14 84/232/14 78/231/14
f 84/232/14 76/233/14 60/234/14
f 60/234/14 76/233/14 66/235/14
f 60/234/14 66/235/14 59/236/14
f 88/239/14 4/238/14 3/237/14
f 4/238/14 88/239/14 37/240/14
f 4/238/14 37/240/14 55/241/14
f 55/241/14 37/240/14 38/242/14

usemtl _defaultMat

f 87/225/42 85/224/42 86/226/42
f 2/225/42 87/224/42 1/226/42
f 85/225/42 28/224/42 29/226/42
f 28/225/42 85/224/42 87/226/42
f 28/225/42 87/224/42 2/226/42
f 28/225/42 2/224/42 54/226/42
f 28/225/42 54/224/42 75/226/42
f 75/225/42 54/224/42 64/226/42
f 64/225/42 54/224/42 69/226/42
f 64/225/42 69/224/42 63/226/42
f 63/225/42 69/224/42 82/226/42
f 63/225/42 82/224/42 56/226/42
f 56/225/42 82/224/42 79/226/42
f 56/225/42 79/224/42 24/226/42
f 24/225/42 79/224/42 15/226/42
f 15/225/42 79/224/42 19/226/42
f 19/225/42 79/224/42 21/226/42
f 15/225/42 19/224/42 17/226/42
f 19/225/42 81/224/42 17/226/42
f 81/225/42 19/224/42 53/226/42

