# Created by Kenney (www.kenney.nl)

mtllib stone_smallE.mtl

g stone_smallE

v -0.02944341 0.176792 -0.05111443
v -0.01849232 0.256168 -0.03214657
v -0.07000306 0.176792 0.0191369
v -0.04810084 0.256168 0.0191369
v 0.05167584 0.176792 -0.05111443
v 0.04292784 0.2401995 -0.03596244
v -0.002625154 0.256168 -0.03214657
v 0.055529 0.256168 0.04477864
v 0.04894966 0.196552 0.08466636
v 0.01111621 0.256168 0.07042037
v 0.07033326 0.256168 0.0191369
v 0.06239967 0.256168 0.005395533
v -0.01849232 0.256168 0.07042037
v -0.07397611 0.14454 -0.1281304
v 0.01315432 0.176792 -0.1218602
v -0.09056469 0.176792 -0.08685769
v -0.02944341 0.176792 0.08938823
v 0.1804 0 0
v 0.0902 0 -0.156231
v 0.0902 0 0.156231
v -0.0902 0 0.156231
v -0.0902 0 -0.156231
v -0.1804 0 0
v 0.09223549 0.176792 0.0191369
v 0.05167584 0.176792 0.08938823
v 0.070356 0.176792 0.1218602
v -0.08403681 0.05490831 0.145556
v -0.03875988 0.176792 0.1218602
v 0.1261496 0.176792 -0.02522277
v 0.1219007 0.176792 0.03258205
v 0.070356 0.176792 -0.1218602
v -0.09056469 0.176792 0.08685769
v -0.140712 0.176792 0
v 0.1540032 0.1175856 0

vn -0.84231 0.2324185 -0.4863081
vn 0 0.2324183 -0.9726159
vn 0.4428342 0.464318 0.7670115
vn 0 1 0
vn -0.2207371 0.723496 -0.6540862
vn -0.84231 0.2324185 0.4863081
vn 0 -1 0
vn 0.84231 0.2324185 -0.486308
vn 0 0.2324185 0.9726159
vn 0 0.1908407 0.981621
vn -0.8501087 0.1908407 0.4908105
vn -0.5252212 0.3462338 0.7773447
vn 0.8918736 0.4475086 0.06555635
vn 0.8501087 0.1908407 -0.4908105
vn 0.8501087 0.1908407 0.4908105
vn 0.261082 0.8528451 -0.4522072
vn 0.84231 0.2324186 0.4863081
vn -0.8501087 0.1908407 -0.4908105
vn 0 0.1908407 -0.981621

vt -1.163176 6.302534
vt -0.732031 9.515558
vt 2.030495 6.302534
vt 1.599349 9.515559
vt 1.159189 6.302
vt -2.034482 6.302
vt 0.7280439 9.515024
vt -1.690072 8.868644
vt 0.1033525 9.515024
vt 1.011819 7.715842
vt 0.00230207 5.065767
vt -1.007215 7.715842
vt -2.769026 0.7534212
vt -2.186181 1.762938
vt -2.45668 0.2124226
vt 0.1033525 -1.265613
vt -0.4376462 2.772455
vt 0.728044 2.772455
vt 0.728044 -1.265613
vt 1.893734 0.7534212
vt 1.146528 -0.2034921
vt -2.024776 1.635869
vt 2.28491 1.635869
vt -0.7255316 6.127424
vt -0.2943854 9.340449
vt 2.46814 6.127425
vt 2.036994 9.340449
vt 7.102362 0
vt 3.551181 -6.150826
vt 3.551181 6.150826
vt -3.551181 6.150826
vt -3.551181 -6.150826
vt -7.102362 0
vt 0.7255302 6.126355
vt -2.468142 6.126355
vt 0.3811205 8.692999
vt -1.412304 9.339379
vt -2.036995 9.339379
vt 2.034482 5.951781
vt -1.159189 5.951781
vt 1.927153 6.751635
vt -0.7280436 9.164805
vt 0.4376465 9.164805
vt 3.551181 -1.173828
vt -3.551181 -1.173828
vt 2.769922 5.916806
vt -3.308536 1.028391
vt -1.525979 5.916806
vt -4.966521 -0.9930224
vt -4.799242 1.282758
vt -2.769921 -4.797644
vt -3.631319 0.7534212
vt -2.034482 -2.012379
vt -0.5178865 -4.797644
vt 1.15919 -2.012379
vt 3.565539 -3.419594
vt 2.756026 0.7534212
vt -2.769921 4.797644
vt -2.034482 3.519222
vt 1.525979 4.797644
vt 1.15919 3.519222
vt 3.565539 3.419594
vt 5.539843 0
vt -3.551181 -1.173828
vt -2.769922 5.916806
vt 3.55118 -1.173828
vt 1.178685 5.916806
vt 3.308535 1.028391
vt 1.421537 4.857629
vt 0.4668076 -0.2573091
vt -1.039931 4.857629
vt 1.354428 4.040463
vt 0.444465 1.433939
vt -0.9274918 4.040463
vt 3.551181 -1.173828
vt -3.551181 -1.173828
vt 2.769921 5.916806
vt -1.623278 5.916806
vt -3.031559 3.542202
vt 3.031559 3.542202
vt 3.551181 -1.173828
vt 1.28872 5.916806
vt -3.551181 -1.173828
vt -2.769921 5.916806
vt -0.7557234 3.171527
vt -2.233758 4.375516
vt 0.7223126 4.375516
vt 0.7320317 9.16427
vt 1.163178 5.951245
vt -0.4336585 9.16427
vt -2.030494 5.951245
vt -1.923165 6.7511
vt -3.551181 -1.173828
vt -2.912446 4.623268
vt 3.551181 -1.173828
vt -1.178686 5.916806
vt 3.551181 -1.173828
vt -3.551181 -1.173828
vt 2.912446 4.623269
vt -0.5178865 5.916806

usemtl stone

f 3/3/1 2/2/1 1/1/1
f 2/2/1 3/3/1 4/4/1
f 2/7/2 5/6/2 1/5/2
f 5/6/2 2/7/2 6/8/2
f 6/8/2 2/7/2 7/9/2
f 10/12/3 9/11/3 8/10/3
f 12/15/4 8/14/4 11/13/4
f 8/14/4 12/15/4 7/16/4
f 8/14/4 7/16/4 10/17/4
f 10/17/4 7/16/4 13/18/4
f 13/18/4 7/16/4 2/19/4
f 13/18/4 2/19/4 4/20/4
f 16/23/5 15/22/5 14/21/5
f 17/26/6 4/25/6 3/24/6
f 4/25/6 17/26/6 13/27/6
f 20/30/7 19/29/7 18/28/7
f 19/29/7 20/30/7 21/31/7
f 19/29/7 21/31/7 22/32/7
f 22/32/7 21/31/7 23/33/7
f 6/36/8 24/35/8 5/34/8
f 24/35/8 6/36/8 12/37/8
f 24/35/8 12/37/8 11/38/8
f 9/41/9 17/40/9 25/39/9
f 17/40/9 9/41/9 13/42/9
f 13/42/9 9/41/9 10/43/9
f 26/46/10 21/45/10 20/44/10
f 21/45/10 26/46/10 27/47/10
f 27/47/10 26/46/10 28/48/10
f 31/51/4 30/50/4 29/49/4
f 30/50/4 31/51/4 24/52/4
f 24/52/4 31/51/4 5/53/4
f 5/53/4 31/51/4 15/54/4
f 5/53/4 15/54/4 1/55/4
f 1/55/4 15/54/4 16/56/4
f 1/55/4 16/56/4 3/57/4
f 24/52/4 26/58/4 30/50/4
f 26/58/4 24/52/4 25/59/4
f 26/58/4 25/59/4 28/60/4
f 28/60/4 25/59/4 17/61/4
f 28/60/4 17/61/4 3/57/4
f 28/60/4 3/57/4 32/62/4
f 32/62/4 3/57/4 16/56/4
f 32/62/4 16/56/4 33/63/4
f 21/66/11 33/65/11 23/64/11
f 33/65/11 21/66/11 32/67/11
f 32/67/11 21/66/11 27/68/11
f 32/71/12 27/70/12 28/69/12
f 30/74/13 34/73/13 29/72/13
f 31/77/14 18/76/14 19/75/14
f 18/76/14 31/77/14 29/78/14
f 18/76/14 29/78/14 34/79/14
f 30/82/15 18/81/15 34/80/15
f 18/81/15 30/82/15 20/83/15
f 20/83/15 30/82/15 26/84/15
f 7/87/16 12/86/16 6/85/16
f 8/90/17 24/89/17 11/88/17
f 24/89/17 8/90/17 25/91/17
f 25/91/17 8/90/17 9/92/17
f 23/95/18 14/94/18 22/93/18
f 14/94/18 23/95/18 16/96/18
f 16/96/18 23/95/18 33/46/18
f 14/99/19 19/98/19 22/97/19
f 19/98/19 14/99/19 31/84/19
f 31/84/19 14/99/19 15/100/19

