# Created by Kenney (www.kenney.nl)

mtllib stump_squareDetailed.mtl

g stump_squareDetailed

v 0.12 0.1 -0.12
v 0.12 0.1 -0.1
v 0.102 0.2 -0.102
v 0.102 0.2 0.102
v 0.12 0.1 0.1
v 0.12 0.1 0.12
v 0.1 0.1 0.12
v -0.102 0.2 0.102
v -0.12 0.1 0.12
v -0.1 0.1 0.12
v 0.22 0 0.05
v 0.171 0 0.0745
v 0.171 0 -0.0745
v 0.22 0 -0.05
v 0.0745 0 -0.171
v 0.171 0 -0.171
v 0.1 0.1 -0.12
v -0.1 0.1 -0.12
v 0.05 0 -0.22
v -0.05 0 -0.22
v 0.171 0 0.171
v -0.0745 0 -0.171
v -0.171 0 0.171
v -0.0745 0 0.171
v 0.06846625 0.2 -0.06846625
v -0.102 0.2 -0.102
v -0.06846625 0.2 -0.06846625
v -0.06846625 0.2 0.06846625
v 0.06846625 0.2 0.06846625
v -0.171 0 -0.171
v -0.12 0.1 -0.12
v 0.0745 0 0.171
v -0.12 0.1 -0.1
v -0.12 0.1 0.1
v 0.05 0 0.22
v -0.05 0 0.22
v -0.171 0 -0.0745
v -0.171 0 0.0745
v -0.22 0 0.05
v -0.22 0 -0.05
v -0.05134968 0.1 -0.05134968
v -0.05134968 0.1 0.05134968
v 0.05134968 0.1 -0.05134968
v 0.05134968 0.1 0.05134968

vn 0.9841834 0.177153 0
vn 0 0.177153 0.9841834
vn 0.4472136 0 0.8944272
vn 0.4472136 0 -0.8944272
vn 0 0.4543261 -0.8908355
vn 0 0.7071068 -0.7071068
vn 0.8908355 0.4543261 0
vn -0.8944272 0 -0.4472136
vn 0.8944272 0 -0.4472136
vn 0 0.4543261 0.8908355
vn 0 1 0
vn 0 0.177153 -0.9841834
vn -0.9841834 0.177153 0
vn 0.7071068 0.7071068 0
vn 0 0.7071068 0.7071068
vn 0.8944272 0 0.4472136
vn -0.8944272 0 0.4472136
vn -0.8908355 0.4543261 0
vn 0 -1 0
vn -0.7071068 0.7071068 0
vn -0.4472136 0 -0.8944272
vn -0.4472136 0 0.8944272
vn 0.9856654 0.168712 0
vn -0.9856654 0.168712 0
vn 0 0.168712 0.9856654
vn 0 0.168712 -0.9856654

vt 4.72441 3.037794
vt 3.937008 3.037794
vt 4.015748 7.038073
vt -4.015748 7.038073
vt -3.937008 3.037794
vt -4.72441 3.037794
vt 6.866665 -2.160154E-13
vt 4.709828 -2.160154E-13
vt 2.464957 3.937008
vt -4.709828 -1.582867E-13
vt -6.866665 -1.582867E-13
vt -2.464957 3.937008
vt -2.933071 -3.058652
vt -6.732284 -3.058652
vt -3.937008 1.360804
vt -4.72441 1.360804
vt -3.937008 -0.556777
vt 3.937008 -0.556777
vt -1.968504 -6.124547
vt 1.968504 -6.124547
vt -4.709828 -1.952381E-13
vt -6.866665 -1.983243E-13
vt 6.866665 -7.821131E-14
vt 4.709828 -7.821131E-14
vt -4.015748 4.015748
vt -2.695522 -2.695522
vt -4.015748 -4.015748
vt 4.015748 -4.015748
vt 2.695522 -2.695522
vt 2.695522 2.695522
vt -2.695522 2.695522
vt 4.015748 4.015748
vt 6.732284 -3.058652
vt 2.933071 -3.058652
vt 4.72441 1.360804
vt 3.937008 1.360804
vt -4.709828 -8.165824E-13
vt -6.866665 -8.165806E-13
vt 4.709828 6.163995E-13
vt 6.866665 6.136025E-13
vt 6.732284 6.732284
vt 6.732284 2.933071
vt 2.933071 6.732284
vt 2.933071 -6.732284
vt 6.732284 -6.732284
vt 6.732284 -2.933071
vt 8.661417 1.968504
vt 8.661417 -1.968504
vt 1.968504 8.661417
vt 1.968504 -8.661417
vt -1.968504 -8.661417
vt -1.968504 8.661417
vt -2.933071 -6.732284
vt -2.933071 6.732284
vt -6.732284 6.732284
vt -6.732284 2.933071
vt -6.732284 -2.933071
vt -8.661417 1.968504
vt -8.661417 -1.968504
vt -6.732284 -6.732284
vt 6.866665 -8.026139E-13
vt 4.709828 -8.026139E-13
vt -4.709828 -1.161091E-12
vt -6.866665 -1.161091E-12
vt 2.695522 8.215912
vt 2.021641 4.221648
vt -2.695522 8.215912
vt -2.021641 4.221648
vt -2.021641 -2.021641
vt -2.021641 2.021641
vt 2.021641 -2.021641
vt 2.021641 2.021641

usemtl woodBark

f 3/3/1 2/2/1 1/1/1
f 2/2/1 3/3/1 4/4/1
f 2/2/1 4/4/1 5/5/1
f 5/5/1 4/4/1 6/6/1
f 4/3/2 7/2/2 6/1/2
f 8/4/2 7/2/2 4/3/2
f 9/6/2 7/2/2 8/4/2
f 7/2/2 9/6/2 10/5/2
f 5/9/3 12/8/3 11/7/3
f 2/12/4 14/11/4 13/10/4
f 17/15/5 16/14/5 15/13/5
f 16/14/5 17/15/5 1/16/5
f 19/19/6 18/18/6 17/17/6
f 18/18/6 19/19/6 20/20/6
f 5/15/7 21/14/7 12/13/7
f 21/14/7 5/15/7 6/16/7
f 18/12/8 20/22/8 22/21/8
f 17/9/9 15/24/9 19/23/9
f 24/13/10 9/16/10 23/14/10
f 9/16/10 24/13/10 10/15/10
f 3/27/11 25/26/11 4/25/11
f 25/26/11 3/27/11 26/28/11
f 25/26/11 26/28/11 27/29/11
f 27/29/11 26/28/11 28/30/11
f 29/31/11 4/25/11 25/26/11
f 4/25/11 29/31/11 8/32/11
f 8/32/11 29/31/11 28/30/11
f 8/32/11 28/30/11 26/28/11
f 31/35/5 22/34/5 30/33/5
f 22/34/5 31/35/5 18/36/5
f 1/35/7 13/34/7 16/33/7
f 13/34/7 1/35/7 2/36/7
f 21/33/10 7/36/10 32/34/10
f 7/36/10 21/33/10 6/35/10
f 31/1/12 17/5/12 18/2/12
f 17/5/12 31/1/12 26/3/12
f 3/4/12 17/5/12 26/3/12
f 17/5/12 3/4/12 1/6/12
f 33/5/13 26/4/13 31/6/13
f 26/4/13 33/5/13 8/3/13
f 8/3/13 33/5/13 34/2/13
f 8/3/13 34/2/13 9/1/13
f 2/18/14 11/19/14 14/20/14
f 11/19/14 2/18/14 5/17/14
f 10/17/15 35/20/15 7/18/15
f 35/20/15 10/17/15 36/19/15
f 35/38/16 32/37/16 7/12/16
f 36/40/17 10/9/17 24/39/17
f 37/13/18 31/16/18 30/14/18
f 31/16/18 37/13/18 33/15/18
f 23/33/18 34/36/18 38/34/18
f 34/36/18 23/33/18 9/35/18
f 32/43/19 12/42/19 21/41/19
f 15/44/19 12/42/19 32/43/19
f 16/45/19 12/42/19 15/44/19
f 13/46/19 12/42/19 16/45/19
f 13/46/19 11/47/19 12/42/19
f 11/47/19 13/46/19 14/48/19
f 15/44/19 32/43/19 35/49/19
f 15/44/19 35/49/19 19/50/19
f 19/50/19 35/49/19 20/51/19
f 20/51/19 35/49/19 36/52/19
f 20/51/19 36/52/19 22/53/19
f 22/53/19 36/52/19 24/54/19
f 22/53/19 24/54/19 23/55/19
f 22/53/19 23/55/19 38/56/19
f 37/57/19 22/53/19 38/56/19
f 39/58/19 37/57/19 38/56/19
f 37/57/19 39/58/19 40/59/19
f 22/53/19 37/57/19 30/60/19
f 40/19/20 34/18/20 33/17/20
f 34/18/20 40/19/20 39/20/20
f 33/9/21 37/62/21 40/61/21
f 34/12/22 39/64/22 38/63/22

usemtl woodInner

f 28/67/23 41/66/23 27/65/23
f 41/66/23 28/67/23 42/68/23
f 43/68/24 29/65/24 25/67/24
f 29/65/24 43/68/24 44/66/24
f 25/65/25 41/68/25 43/66/25
f 41/68/25 25/65/25 27/67/25
f 28/65/26 44/68/26 42/66/26
f 44/68/26 28/65/26 29/67/26
f 41/71/11 44/70/11 43/69/11
f 44/70/11 41/71/11 42/72/11

