# Created by Kenney (www.kenney.nl)

mtllib stump_square.mtl

g stump_square

v 0.1125 0.1 0.1125
v -0.1125 0.1 0.1125
v 0.08437499 0.3 0.08437499
v -0.08437499 0.3 0.08437499
v -0.09460799 0.2272321 -0.0275
v -0.09460799 0.2272321 0.0275
v -0.2051446 0.2311126 -0.01595
v -0.2051446 0.2311126 0.01595
v 0.15 0 0.15
v -0.15 0 0.15
v -0.15 0 -0.15
v 0.15 0 -0.15
v -0.1125 0.1 -0.1125
v 0.1125 0.1 -0.1125
v -0.102267 0.1727679 0.0275
v -0.2095868 0.1995234 0.01595
v -0.102267 0.1727679 -0.0275
v -0.2095868 0.1995234 -0.01595
v 0.08437499 0.3 -0.08437499
v 0.05099433 0.3 -0.05099433
v -0.08437499 0.3 -0.08437499
v -0.05099433 0.3 -0.05099433
v -0.05099433 0.3 0.05099433
v 0.05099433 0.3 0.05099433

vn 0 0.1392548 0.9902565
vn 0.03508501 0.9993843 0
vn 0 0.3511235 0.9363292
vn 0 0.3511235 -0.9363292
vn -0.1034085 0.01454182 0.9945327
vn 0.9363292 0.3511235 0
vn -0.241902 -0.9703007 0
vn 0.9902565 0.1392548 0
vn 0 1 0
vn 0 0.1392548 -0.9902565
vn -0.9902565 0.1392548 0
vn -0.9363292 0.3511235 0
vn -0.1034085 0.01454182 -0.9945327
vn 0 -1 0

vt 4.429134 3.28187
vt -4.429134 3.28187
vt 3.32185 11.23336
vt -3.32185 11.23336
vt 1.082677 4.036306
vt -1.082677 4.036306
vt 0.6279528 8.390822
vt -0.6279528 8.390822
vt 5.905512 -2.073564
vt -5.905512 -2.073564
vt 4.429134 2.131163
vt -4.429134 2.131163
vt -3.892701 6.779454
vt -8.142262 7.832931
vt -3.592782 8.923937
vt -7.968309 9.076731
vt 1.082677 5.552073
vt -1.082677 5.552073
vt 0.6279528 9.90659
vt -0.6279528 9.90659
vt -3.32185 3.32185
vt -2.007651 -2.007651
vt -3.32185 -3.32185
vt 3.32185 -3.32185
vt 2.007651 -2.007651
vt 2.007651 2.007651
vt -2.007651 2.007651
vt 3.32185 3.32185
vt -0.6279528 6.629662
vt -0.6279528 7.885568
vt 0.6279528 6.629662
vt 0.6279528 7.885568
vt 3.892701 6.779454
vt 3.592782 8.923937
vt 8.142262 7.832931
vt 7.968309 9.076731
vt 5.905512 5.905512
vt 5.905512 -5.905512
vt -5.905512 5.905512
vt -5.905512 -5.905512
vt -1.082677 6.174938
vt 1.082677 6.174938
vt 1.082677 8.340292
vt -1.082677 8.340292

usemtl woodBark

f 3/3/1 2/2/1 1/1/1
f 2/2/1 3/3/1 4/4/1
f 7/7/2 6/6/2 5/5/2
f 6/6/2 7/7/2 8/8/2
f 1/11/3 10/10/3 9/9/3
f 10/10/3 1/11/3 2/12/3
f 13/11/4 12/10/4 11/9/4
f 12/10/4 13/11/4 14/12/4
f 6/15/5 16/14/5 15/13/5
f 16/14/5 6/15/5 8/16/5
f 14/11/6 9/10/6 12/9/6
f 9/10/6 14/11/6 1/12/6
f 16/19/7 17/18/7 15/17/7
f 17/18/7 16/19/7 18/20/7
f 19/3/8 1/2/8 14/1/8
f 1/2/8 19/3/8 3/4/8
f 19/23/9 20/22/9 3/21/9
f 20/22/9 19/23/9 21/24/9
f 20/22/9 21/24/9 22/25/9
f 22/25/9 21/24/9 23/26/9
f 24/27/9 3/21/9 20/22/9
f 3/21/9 24/27/9 4/28/9
f 4/28/9 24/27/9 23/26/9
f 4/28/9 23/26/9 21/24/9
f 21/3/10 14/2/10 13/1/10
f 14/2/10 21/3/10 19/4/10
f 16/31/11 7/30/11 18/29/11
f 7/30/11 16/31/11 8/32/11
f 10/9/12 13/12/12 11/10/12
f 13/12/12 10/9/12 2/11/12
f 18/35/13 5/34/13 17/33/13
f 5/34/13 18/35/13 7/36/13
f 10/39/14 12/38/14 9/37/14
f 12/38/14 10/39/14 11/40/14
f 13/2/11 17/41/11 21/4/11
f 17/41/11 13/2/11 2/1/11
f 17/41/11 2/1/11 15/42/11
f 15/42/11 2/1/11 6/43/11
f 6/43/11 2/1/11 4/3/11
f 21/4/11 5/44/11 4/3/11
f 5/44/11 21/4/11 17/41/11
f 4/3/11 5/44/11 6/43/11

usemtl woodInner

f 22/25/9 24/27/9 20/22/9
f 24/27/9 22/25/9 23/26/9

