# Created by Kenney (www.kenney.nl)

mtllib stump_old.mtl

g stump_old

v -0.08466791 0.1865 0.04888302
v -0.1188793 0.1865 0.068635
v -0.08466791 0.2665 0.04888302
v -0.1188793 0.2665 0.068635
v -0.08466791 0.04849999 0.04888302
v 0 0.04849999 0.09776609
v 0 0.1865 0.09776609
v -0.1188793 0.2265 -0.068635
v -0.08466791 0.2265 -0.04888302
v -0.1188793 0.2665 -0.068635
v -0.08466791 0.2665 -0.04888302
v 0.08466791 0.04849999 0.04888302
v 0.08466791 0.1465 0.04888302
v 0.08466791 0.2265 0.04888302
v 0 0.2265 0.09776609
v 0 0.07349999 0.13727
v -0.1188793 0.07349999 0.068635
v 0 0.1865 0.13727
v 0.1188793 0.1465 -0.068635
v 0.1188793 0.1465 0.068635
v 0.08466791 0.1465 -0.04888302
v 0 0.2265 -0.13727
v 0 0.1865 -0.13727
v 0 0.2265 -0.09776609
v 0 0.1865 -0.09776609
v -0.1188793 0.1749303 -0.03706528
v -0.1188793 0.1749303 0.03706528
v -0.1573793 0.1672456 -0.02891093
v -0.1573793 0.1672456 0.02891093
v -0.1958793 0.1672456 -0.02891093
v -0.1958793 0.1672456 0.02891093
v -0.1188793 0.07349999 -0.068635
v 0 0.07349999 -0.13727
v 0.1188793 0.1865 -0.068635
v 0.08466791 0.1865 -0.04888302
v 0.1606477 0 -0.09275
v 0.1606477 0 0.09275
v 0.1188793 0.07349999 -0.068635
v 0.1188793 0.07349999 0.068635
v 0.1210712 0.1002928 -0.1360742
v 0.09179088 0.1002928 -0.1529792
v 0.09789865 0.09269784 -0.08074819
v 0.0554634 0.09269784 -0.1052482
v 0.09179088 0.1341029 -0.1529792
v 0.0554634 0.1416979 -0.1052482
v 0 0 0.1855
v 0.1210712 0.1341029 -0.1360742
v 0.09789865 0.1416979 -0.08074819
v -0.1606477 0 -0.09275
v -0.1606477 0 0.09275
v 0.1188793 0.2265 0.068635
v 0 0.2265 0.13727
v 0 0 -0.1855
v -0.1188793 0.1050697 -0.03706528
v -0.1573793 0.1127544 -0.02891093
v -0.1573793 0.1127544 0.02891093
v -0.1958793 0.1127544 0.02891093
v -0.1958793 0.1127544 -0.02891093
v -0.1188793 0.1050697 0.03706528
v 0 0.04849999 -0.09776609
v -0.08466791 0.04849999 -0.04888302
v 0.08466791 0.04849999 -0.04888302

vn 0.5000004 0 0.8660253
vn 0.5000002 0 -0.8660253
vn 0.5000004 0 -0.8660253
vn 0 1 0
vn -0.5000002 0 -0.8660253
vn -0.5 0 0.8660254
vn 1 0 0
vn -0.1957395 0.980656 0
vn -0.5 0 -0.8660254
vn 0.8694206 0.4940724 0
vn 0.0633098 -0.9919513 -0.1096559
vn -0.795745 0 -0.6056318
vn 0.4347104 0.4940724 0.7529404
vn 0.9223648 0 0.3863201
vn 0.4999996 0 -0.8660256
vn -0.8694208 0.4940723 0
vn -0.4347104 0.4940724 -0.7529404
vn -0.2072048 0 -0.9782975
vn 0.5000005 0 -0.8660251
vn 0 -1 0
vn 0.5000005 0 0.8660251
vn 0.5 0 -0.8660254
vn -0.4347104 0.4940724 0.7529404
vn -0.2072048 0 0.9782975
vn -1 0 0
vn 0.4347104 0.4940724 -0.7529404
vn 0 0 -1
vn 0 0 1
vn 0.5000002 0 0.8660253
vn 0.0633098 0.9919513 -0.1096559
vn 0.5 0 0.8660254
vn -0.1957399 -0.9806559 0
vn -0.5000002 0 0.8660253

vt -3.849058 7.342519
vt -5.404331 7.342519
vt -3.849058 10.49212
vt -5.404331 10.49212
vt 1.924529 1.909449
vt -1.92453 1.909449
vt 1.924529 7.342519
vt -1.92453 7.342519
vt 5.404331 8.917322
vt 3.849058 8.917322
vt 5.404331 10.49212
vt 3.849058 10.49212
vt 3.333383 -1.924529
vt 3.333383 1.924529
vt 4.680287 -2.702165
vt 4.680287 2.702165
vt 1.92453 1.909449
vt -1.924529 1.909449
vt 1.92453 7.342519
vt -1.924529 5.767716
vt -1.924529 8.917322
vt 1.92453 8.917322
vt 2.702165 2.893701
vt -2.702165 2.893701
vt 2.702165 7.342519
vt -2.702165 7.342519
vt -4.680287 -2.702165
vt -4.680287 2.702165
vt -3.333383 -1.924529
vt -3.333383 1.924529
vt 0 3.849059
vt 0 5.404331
vt 5.404331 7.342519
vt 3.849059 8.917322
vt 3.849059 7.342519
vt -1.459263 -3.24169
vt 1.459263 -3.24169
vt -1.138225 -4.787337
vt 1.138225 -4.787337
vt 6.196035 -1.138225
vt 6.196035 1.138225
vt 7.711783 -1.138225
vt 7.711783 1.138225
vt 2.702165 2.893701
vt -2.702165 2.893701
vt 2.702165 8.917322
vt -2.702165 7.342519
vt -2.702165 8.917322
vt 0 -5.404331
vt 0 -3.849059
vt 3.651575 -3.124866
vt -3.651575 -3.124866
vt 2.702165 0.2034422
vt -2.702165 0.2034422
vt -1.449358 7.466246
vt -0.118255 7.466245
vt -1.748372 5.104718
vt 0.1807621 5.104719
vt -6.981256 3.948537
vt -6.981256 5.27964
vt -4.619729 3.649522
vt -4.619729 5.578656
vt 3.651575 -3.124866
vt -3.651575 -3.124866
vt 2.702165 0.2034422
vt -2.702165 0.2034422
vt 6.782767 5.27964
vt 6.782767 3.948537
vt 4.42124 5.578656
vt 4.42124 3.649522
vt -0.1182565 3.948537
vt -1.449359 3.948537
vt -0.1182565 5.27964
vt -1.449359 5.27964
vt -3.651575 -3.124866
vt -2.702165 0.2034426
vt 3.651575 -3.124866
vt 2.702165 0.2034426
vt 3.651574 -3.124866
vt 2.702165 0.2034422
vt -2.702165 0.2034423
vt 4.276348 4.136603
vt 4.276348 6.887019
vt 5.825721 4.439148
vt 5.825721 6.584474
vt -3.849058 5.767716
vt -5.40433 5.767716
vt -3.849058 8.917322
vt -5.40433 8.917322
vt 6.324713 3.651575
vt 6.324713 -3.651575
vt 0 7.30315
vt 0 -7.30315
vt -6.324713 3.651575
vt -6.324713 -3.651575
vt 5.40433 5.767716
vt 3.849058 5.767716
vt 5.40433 7.342519
vt 3.849058 7.342519
vt 0.1807631 3.649522
vt 0.1807631 5.578655
vt -1.748371 5.578655
vt -2.702165 5.767715
vt -1.748371 3.649522
vt 3.651575 -3.124866
vt -3.651574 -3.124866
vt 2.702165 0.2034423
vt -2.702165 0.2034422
vt -6.196035 1.138225
vt -6.196035 -1.138225
vt -7.711783 1.138225
vt -7.711783 -1.138225
vt -4.276348 4.136603
vt -5.825721 4.439148
vt -4.276348 6.887019
vt -5.825721 6.584474
vt -1.459263 4.136603
vt -2.702165 10.49212
vt 1.459263 4.136603
vt 1.459263 6.887019
vt -1.459263 6.887019
vt 2.702165 10.49212
vt -1.138225 4.439148
vt -1.138225 6.584474
vt 1.138225 4.439148
vt 1.138225 6.584474
vt -3.651575 -3.124866
vt 2.702165 0.2034422
vt -2.702165 0.2034422
vt 7.711783 4.439148
vt 6.196035 4.439148
vt 7.711783 6.584474
vt 6.196035 6.584474
vt -6.196035 4.439148
vt -7.711783 4.439148
vt -6.196035 6.584474
vt -7.711783 6.584474
vt 2.702165 5.767716
vt -2.702165 5.767716
vt -1.449358 -6.297777
vt -1.748372 -3.93625
vt -0.118255 -6.297777
vt 0.1807621 -3.93625
vt 2.702165 2.893701
vt 2.702165 5.767716
vt 2.702165 8.917322
vt -1.924529 1.909449
vt -1.924529 5.767716
vt 1.924529 1.909449
vt 1.924529 5.767716
vt 1.459263 5.399449
vt -1.459263 5.399449
vt 1.138225 6.945096
vt -1.138225 6.945096
vt 1.924529 5.767716
vt 1.924529 10.49212
vt 1.924529 8.917322
vt -1.924529 10.49212
vt -1.924529 7.342519

usemtl woodBark

f 3/3/1 2/2/1 1/1/1
f 2/2/1 3/3/1 4/4/1
f 1/7/2 6/6/2 5/5/2
f 6/6/2 1/7/2 7/8/2
f 10/11/3 9/10/3 8/9/3
f 9/10/3 10/11/3 11/12/3
f 10/15/4 3/14/4 11/13/4
f 3/14/4 10/15/4 4/16/4
f 7/19/5 12/18/5 6/17/5
f 12/18/5 7/19/5 13/20/5
f 13/20/5 7/19/5 14/21/5
f 14/21/5 7/19/5 15/22/5
f 18/25/6 17/24/6 16/23/6
f 17/24/6 18/25/6 2/26/6
f 21/29/4 20/28/4 19/27/4
f 20/28/4 21/29/4 13/30/4
f 1/14/4 18/32/4 7/31/4
f 18/32/4 1/14/4 2/16/4
f 24/34/7 23/33/7 22/9/7
f 23/33/7 24/34/7 25/35/7
f 28/38/8 27/37/8 26/36/8
f 27/37/8 28/38/8 29/39/8
f 30/42/4 29/41/4 28/40/4
f 29/41/4 30/42/4 31/43/4
f 8/46/9 33/45/9 32/44/9
f 33/45/9 8/46/9 23/47/9
f 23/47/9 8/46/9 22/48/9
f 23/49/4 35/29/4 34/27/4
f 35/29/4 23/49/4 25/50/4
f 38/53/10 37/52/10 36/51/10
f 37/52/10 38/53/10 39/54/10
f 42/57/11 41/56/11 40/55/11
f 41/56/11 42/57/11 43/58/11
f 8/15/4 24/50/4 22/49/4
f 24/50/4 8/15/4 9/13/4
f 43/61/12 44/60/12 41/59/12
f 44/60/12 43/61/12 45/62/12
f 39/65/13 46/64/13 37/63/13
f 46/64/13 39/65/13 16/66/13
f 48/69/14 40/68/14 47/67/14
f 40/68/14 48/69/14 42/70/14
f 44/73/15 40/72/15 41/71/15
f 40/72/15 44/73/15 47/74/15
f 50/77/16 32/76/16 49/75/16
f 32/76/16 50/77/16 17/78/16
f 14/30/4 52/32/4 51/28/4
f 52/32/4 14/30/4 15/31/4
f 32/80/17 53/64/17 49/79/17
f 53/64/17 32/80/17 33/81/17
f 55/84/18 26/83/18 54/82/18
f 26/83/18 55/84/18 28/85/18
f 14/88/19 20/87/19 13/86/19
f 20/87/19 14/88/19 51/89/19
f 46/92/20 36/91/20 37/90/20
f 36/91/20 46/92/20 53/93/20
f 53/93/20 46/92/20 50/94/20
f 53/93/20 50/94/20 49/95/20
f 34/98/21 21/97/21 19/96/21
f 21/97/21 34/98/21 35/99/21
f 33/23/22 43/100/22 38/24/22
f 43/100/22 33/23/22 23/25/22
f 43/100/22 23/25/22 45/101/22
f 45/101/22 23/25/22 48/102/22
f 48/102/22 23/25/22 19/103/22
f 19/103/22 23/25/22 34/26/22
f 38/24/22 42/104/22 19/103/22
f 42/104/22 38/24/22 43/100/22
f 19/103/22 42/104/22 48/102/22
f 16/107/23 50/106/23 46/105/23
f 50/106/23 16/107/23 17/108/23
f 57/111/20 55/110/20 56/109/20
f 55/110/20 57/111/20 58/112/20
f 27/115/24 56/114/24 59/113/24
f 56/114/24 27/115/24 29/116/24
f 32/45/25 54/117/25 8/48/25
f 54/117/25 32/45/25 17/23/25
f 8/48/25 54/117/25 10/118/25
f 54/117/25 17/23/25 59/119/25
f 59/119/25 17/23/25 27/120/25
f 26/121/25 10/118/25 54/117/25
f 10/118/25 26/121/25 4/122/25
f 4/122/25 26/121/25 27/120/25
f 4/122/25 27/120/25 17/23/25
f 4/122/25 17/23/25 2/25/25
f 57/125/25 30/124/25 58/123/25
f 30/124/25 57/125/25 31/126/25
f 33/128/26 36/127/26 53/105/26
f 36/127/26 33/128/26 38/129/26
f 30/132/27 55/131/27 58/130/27
f 55/131/27 30/132/27 28/133/27
f 29/136/28 57/135/28 56/134/28
f 57/135/28 29/136/28 31/137/28
f 25/19/29 61/18/29 60/17/29
f 61/18/29 25/19/29 9/21/29
f 9/21/29 25/19/29 24/22/29
f 20/139/7 38/23/7 19/138/7
f 38/23/7 20/139/7 39/45/7
f 44/142/30 48/141/30 47/140/30
f 48/141/30 44/142/30 45/143/30
f 60/50/4 12/30/4 62/29/4
f 12/30/4 60/50/4 6/31/4
f 6/31/4 60/50/4 61/13/4
f 6/31/4 61/13/4 5/14/4
f 20/145/31 16/45/31 39/144/31
f 16/45/31 20/145/31 18/47/31
f 18/47/31 20/145/31 51/146/31
f 18/47/31 51/146/31 52/48/31
f 12/149/25 21/148/25 62/147/25
f 21/148/25 12/149/25 13/150/25
f 56/153/32 54/152/32 59/151/32
f 54/152/32 56/153/32 55/154/32
f 21/155/33 60/6/33 62/5/33
f 60/6/33 21/155/33 25/8/33
f 25/8/33 21/155/33 35/7/33
f 3/158/7 9/157/7 11/156/7
f 9/157/7 3/158/7 61/149/7
f 61/149/7 3/158/7 5/147/7
f 5/147/7 3/158/7 1/159/7
f 18/33/25 15/34/25 7/35/25
f 15/34/25 18/33/25 52/9/25

