# Created by Kenney (www.kenney.nl)

mtllib tent_smallClosed.mtl

g tent_smallClosed

v -0.2738 0 -0.3182
v 0.2738 0 -0.3182
v -0.2738 0.111 -0.3182
v 0.2738 0.111 -0.3182
v -0.06472136 0.1945 -0.3182
v -0.06472136 0.2745 -0.3182
v -4.741421E-09 0.5179999 -0.3182
v 0.06472135 0.2745 -0.3182
v 0.06472135 0.1945 -0.3182
v 0.014208 0.49688 0.260184
v 0.014208 0.49688 0.2886
v 3.876934E-09 0.5179999 0.260184
v 4.300354E-09 0.5179999 0.2886
v 0.1845961 0.2436003 0.1803261
v 0.1475688 0.2986411 0.1744057
v 0.1523421 0.2915456 0.07858657
v 0.1121744 0.3512542 0.05836095
v 0.1001593 0.3691145 -0.0730882
v -3.894581E-09 0.5179999 -0.261368
v 0.1572263 0.2842852 -0.08983037
v 0.210235 0.2054885 0.0639406
v 0.2378335 0.1644636 -0.004426627
v 0.014208 0.49688 -0.261368
v 0.01420799 0.49688 -0.289784
v -4.318001E-09 0.5179999 -0.289784
v 0.2738 0.111 0.3182
v 0.2391309 0.1625351 0.06213281
v 0.1893695 0.2365048 0.08450694
v 0.01 0.5031352 0.3182
v 4.741417E-09 0.5179999 0.3182
v 0.2089376 0.2074171 -0.002618833
v 0.1692414 0.2664249 0.04161881
v -0.009999993 0 0.3182
v 0.01 0 0.3182
v -0.009999993 0.5031352 0.3182
v 0.2738 0 0.3182
v -0.2738 0 0.3182
v -0.2738 0.111 0.3182
v -0.014208 0.49688 -0.289784
v -0.2253367 0.1830399 -0.2139391
v -0.014208 0.49688 -0.261368
v -0.1843308 0.2439947 -0.2228293
v -0.2183896 0.1933668 -0.1110895
v -0.1851761 0.2427382 -0.09143765
v -0.1894837 0.2363351 -0.01412183
v -0.1607131 0.2791022 -0.00897707
v -0.014208 0.49688 0.260184
v -0.01420799 0.49688 0.2886
v -0.1564055 0.2855053 -0.08629289
v -0.1773837 0.2543216 -0.1199796
v 0.01420799 0.5611308 -0.289784
v 0.014208 0.5611308 -0.261368
v 0.01420799 0 -0.289784
v 0.014208 0 -0.261368
v -0.014208 0.5611308 0.260184
v -0.01420799 0.5611308 0.2886
v -0.01420799 0 0.2886
v -0.014208 0 0.260184
v -0.014208 0 -0.261368
v -0.014208 0.5611308 -0.261368
v 0.014208 0.5611308 0.2886
v 0.014208 0.5611308 0.260184
v 0.014208 0 0.260184
v 0.014208 0 0.2886
v -0.014208 0 -0.289784
v -0.014208 0.5611308 -0.289784

vn 0 0 -1
vn 0 0 1
vn 0.8297218 0.5581771 0
vn 0.8297222 0.5581767 0
vn -0.8297218 -0.5581771 0
vn -0.8297222 -0.5581767 0
vn -0.8297226 -0.558176 0
vn -0.8297222 0.5581767 0
vn 0.8297222 -0.5581767 0
vn 1 0 0
vn -1 0 0
vn -0.8297229 -0.5581756 0
vn -0.829722 -0.5581768 0
vn 0 1 0
vn 0 -1 0
vn 0.8297226 0.558176 0
vn 0.8297229 0.5581756 0
vn 0.829722 0.5581768 0

vt 10.77953 -2.951276E-19
vt -10.77953 -2.951276E-19
vt 10.77953 4.370079
vt -10.77953 4.370079
vt 2.548085 7.657481
vt 2.548085 10.80709
vt 3.395948E-14 20.3937
vt -2.548085 10.80709
vt -2.548085 7.657481
vt -10.24346 15.91896
vt -11.3622 15.91896
vt -10.24346 16.9211
vt -11.3622 16.9211
vt -7.099453 3.900918
vt -6.866366 6.512586
vt -3.09396 6.175907
vt -2.297676 9.009065
vt 2.877488 9.85653
vt 10.29008 16.9211
vt 3.536629 5.831404
vt -2.517347 2.092522
vt 0.1742764 0.1459045
vt 10.29008 15.91897
vt 11.40882 15.91897
vt 12.52756 16.9211
vt 11.40882 16.9211
vt 12.52756 -2.39093
vt -12.52756 -2.39093
vt -2.446174 0.05439641
vt -3.327045 3.564237
vt -12.52756 16.21577
vt -12.52756 16.9211
vt 0.1031034 2.184034
vt -1.638536 4.983938
vt -0.1742753 0.1459143
vt -0.1031025 2.184044
vt 2.446175 0.05440634
vt 2.517348 2.092532
vt 0.3937007 19.80847
vt -0.3937007 -2.951276E-19
vt 0.3937007 -2.951276E-19
vt -0.3937007 19.80847
vt -1.365708E-13 20.3937
vt -11.40882 16.9211
vt -12.52756 -2.39093
vt -11.40882 15.91897
vt -8.422799 1.027345
vt 12.52756 -2.39093
vt -10.29008 15.91897
vt -8.772807 3.919631
vt -4.373602 1.517351
vt -3.599907 3.860011
vt -0.5559775 3.556184
vt -0.3534279 5.585471
vt 10.24346 15.91897
vt 10.24346 16.9211
vt 11.3622 15.91897
vt 11.3622 16.9211
vt -10.29008 16.9211
vt -3.397358 5.889297
vt -4.723606 4.409638
vt 12.52756 16.21577
vt 12.52756 4.370079
vt 12.52756 -2.951276E-19
vt -12.52756 4.370079
vt -12.52756 -2.951276E-19
vt 3.093958 6.175921
vt 6.866364 6.512599
vt 3.327043 3.564251
vt 7.099451 3.900932
vt -3.536629 5.831403
vt -2.877489 9.856529
vt 1.638535 4.983936
vt 2.297675 9.009063
vt 11.40882 22.09176
vt 11.40882 19.5622
vt 10.29008 22.09176
vt 10.29008 19.5622
vt 11.40882 1.418147E-16
vt 10.29008 1.418147E-16
vt 10.24346 19.5622
vt 10.24346 22.09176
vt 11.3622 19.5622
vt 11.3622 22.09176
vt 11.3622 -1.051633E-14
vt 10.24346 -1.051633E-14
vt 0.55937 1.418147E-16
vt -0.55937 1.418147E-16
vt 0.55937 19.5622
vt -0.55937 19.5622
vt -1.117757E-14 20.3937
vt 0.55937 22.09176
vt -0.55937 22.09176
vt -0.5593702 11.3622
vt 0.5593699 11.3622
vt -0.5593702 10.24346
vt 0.5593699 10.24346
vt -10.24346 19.5622
vt -10.24346 -1.051633E-14
vt -11.3622 19.5622
vt -11.3622 -1.051633E-14
vt -11.3622 22.09176
vt -10.24346 22.09176
vt -1.463499E-13 20.3937
vt -0.55937 -1.051633E-14
vt 0.55937 -1.051633E-14
vt -11.40882 1.418147E-16
vt -11.40882 19.5622
vt -10.29008 1.418147E-16
vt -10.29008 19.5622
vt -11.40882 22.09176
vt -10.29008 22.09176
vt 2.978604E-14 20.3937
vt -0.5593699 -10.29008
vt 0.5593702 -10.29008
vt -0.5593699 -11.40882
vt 0.5593702 -11.40882
vt 1.505234E-13 20.3937

usemtl colorRed

f 3/3/1 2/2/1 1/1/1
f 2/2/1 3/3/1 4/4/1
f 4/4/1 3/3/1 5/5/1
f 5/5/1 3/3/1 6/6/1
f 6/6/1 3/3/1 7/7/1
f 6/6/1 7/7/1 8/8/1
f 4/4/1 8/8/1 7/7/1
f 8/8/1 4/4/1 9/9/1
f 9/9/1 4/4/1 5/5/1
f 1/1/2 2/2/2 3/3/2
f 4/4/2 3/3/2 2/2/2
f 5/5/2 3/3/2 4/4/2
f 6/6/2 3/3/2 5/5/2
f 7/7/2 3/3/2 6/6/2
f 8/8/2 7/7/2 6/6/2
f 7/7/2 8/8/2 4/4/2
f 9/9/2 4/4/2 8/8/2
f 5/5/2 4/4/2 9/9/2
f 12/12/3 11/11/3 10/10/3
f 11/11/3 12/12/3 13/13/3
f 14/14/4 12/12/3 10/10/3
f 15/15/4 12/12/3 14/14/4
f 16/16/4 12/12/3 15/15/4
f 17/17/4 12/12/3 16/16/4
f 18/18/4 12/12/3 17/17/4
f 18/18/4 19/19/4 12/12/3
f 19/19/4 18/18/4 20/20/4
f 17/17/4 16/16/4 21/21/4
f 22/22/4 19/19/4 20/20/4
f 22/22/4 23/23/4 19/19/4
f 22/22/4 24/24/4 23/23/4
f 22/22/4 7/25/4 24/24/4
f 25/26/4 24/24/4 7/25/4
f 22/22/4 4/27/4 7/25/4
f 4/27/4 22/22/4 26/28/4
f 26/28/4 22/22/4 27/29/4
f 26/28/4 27/29/4 21/21/4
f 26/28/4 21/21/4 28/30/4
f 28/30/4 21/21/4 16/16/4
f 26/28/4 28/30/4 14/14/4
f 26/28/4 14/14/4 10/10/3
f 26/28/4 10/10/3 11/11/3
f 26/28/4 11/11/3 13/13/3
f 26/28/4 13/13/3 29/31/4
f 29/31/4 13/13/3 30/32/4
f 20/20/4 31/33/4 22/22/4
f 31/33/4 20/20/4 32/34/4
f 31/33/4 32/34/4 21/21/4
f 21/21/4 32/34/4 17/17/4
f 10/10/5 11/11/5 12/12/5
f 13/13/5 12/12/5 11/11/5
f 10/10/5 12/12/5 14/14/6
f 14/14/6 12/12/5 15/15/6
f 15/15/6 12/12/5 16/16/6
f 16/16/6 12/12/5 17/17/6
f 17/17/6 12/12/5 18/18/6
f 12/12/5 19/19/6 18/18/6
f 20/20/6 18/18/6 19/19/6
f 21/21/6 16/16/6 17/17/6
f 20/20/6 19/19/6 22/22/6
f 19/19/6 23/23/6 22/22/6
f 23/23/6 24/24/6 22/22/6
f 24/24/6 7/25/6 22/22/6
f 7/25/6 24/24/6 25/26/6
f 7/25/6 4/27/6 22/22/6
f 26/28/6 22/22/6 4/27/6
f 27/29/6 22/22/6 26/28/6
f 21/21/6 27/29/6 26/28/6
f 28/30/6 21/21/6 26/28/6
f 16/16/6 21/21/6 28/30/6
f 14/14/6 28/30/6 26/28/6
f 10/10/5 14/14/6 26/28/6
f 11/11/5 10/10/5 26/28/6
f 13/13/5 11/11/5 26/28/6
f 29/31/6 13/13/5 26/28/6
f 30/32/6 13/13/5 29/31/6
f 22/22/6 31/33/6 20/20/6
f 32/34/6 20/20/6 31/33/6
f 21/21/6 32/34/6 31/33/6
f 17/17/6 32/34/6 21/21/6
f 27/37/7 31/36/7 22/35/7
f 31/36/7 27/37/7 21/38/7
f 34/41/1 33/40/1 29/39/1
f 35/42/1 29/39/1 33/40/1
f 30/43/1 29/39/1 35/42/1
f 29/39/1 26/3/1 34/41/1
f 36/1/1 34/41/1 26/3/1
f 33/40/1 37/2/1 35/42/1
f 38/4/1 35/42/1 37/2/1
f 3/45/8 25/44/8 7/32/8
f 25/44/8 3/45/8 39/46/8
f 39/46/8 3/45/8 40/47/8
f 40/47/8 3/45/8 38/48/8
f 39/46/8 40/47/8 41/49/8
f 41/49/8 40/47/8 42/50/8
f 40/47/8 38/48/8 43/51/8
f 43/51/8 38/48/8 44/52/8
f 44/52/8 38/48/8 45/53/8
f 45/53/8 38/48/8 46/54/8
f 46/54/8 38/48/8 47/55/8
f 46/54/8 47/55/8 12/56/8
f 12/56/8 41/49/8 42/50/8
f 47/55/8 38/48/8 48/57/8
f 48/57/8 38/48/8 30/25/8
f 30/25/8 13/58/8 48/57/8
f 47/55/8 13/58/8 12/56/8
f 13/58/8 47/55/8 48/57/8
f 41/49/8 12/56/8 19/59/8
f 12/56/8 42/50/8 49/60/8
f 49/60/8 43/51/8 44/52/8
f 12/56/8 49/60/8 46/54/8
f 49/60/8 42/50/8 50/61/8
f 49/60/8 50/61/8 43/51/8
f 7/32/9 25/44/9 3/45/9
f 39/46/9 3/45/9 25/44/9
f 40/47/9 3/45/9 39/46/9
f 38/48/9 3/45/9 40/47/9
f 41/49/9 40/47/9 39/46/9
f 42/50/9 40/47/9 41/49/9
f 43/51/9 38/48/9 40/47/9
f 44/52/9 38/48/9 43/51/9
f 45/53/9 38/48/9 44/52/9
f 46/54/9 38/48/9 45/53/9
f 47/55/9 38/48/9 46/54/9
f 12/56/9 47/55/9 46/54/9
f 42/50/9 41/49/9 12/56/9
f 48/57/9 38/48/9 47/55/9
f 30/25/9 38/48/9 48/57/9
f 48/57/9 13/58/9 30/25/9
f 12/56/9 13/58/9 47/55/9
f 48/57/9 47/55/9 13/58/9
f 19/59/9 12/56/9 41/49/9
f 49/60/9 42/50/9 12/56/9
f 44/52/9 43/51/9 49/60/9
f 46/54/9 49/60/9 12/56/9
f 44/52/9 49/60/9 45/53/9
f 46/54/9 45/53/9 49/60/9
f 50/61/9 42/50/9 49/60/9
f 43/51/9 50/61/9 49/60/9
f 42/50/9 50/61/9 40/47/9
f 43/51/9 40/47/9 50/61/9
f 30/25/8 38/48/8 35/62/8
f 35/62/9 38/48/9 30/25/9
f 26/3/2 34/41/2 36/1/2
f 34/41/2 26/3/2 29/39/2
f 26/65/10 2/64/10 4/63/10
f 2/64/10 26/65/10 36/66/10
f 4/63/11 2/64/11 26/65/11
f 36/66/11 26/65/11 2/64/11
f 37/64/11 3/65/11 1/66/11
f 3/65/11 37/64/11 38/63/11
f 1/66/10 3/65/10 37/64/10
f 38/63/10 37/64/10 3/65/10
f 28/69/12 15/68/12 16/67/12
f 15/68/12 28/69/12 14/70/12
f 35/42/2 37/2/2 33/40/2
f 37/2/2 35/42/2 38/4/2
f 32/73/13 18/72/13 20/71/13
f 18/72/13 32/73/13 17/74/13

usemtl wood

f 52/77/10 24/76/10 51/75/10
f 24/76/10 52/77/10 23/78/10
f 23/78/10 53/79/10 24/76/10
f 53/79/10 23/78/10 54/80/10
f 48/83/11 55/82/11 47/81/11
f 55/82/11 48/83/11 56/84/11
f 47/81/11 57/85/11 48/83/11
f 57/85/11 47/81/11 58/86/11
f 23/89/2 59/88/2 54/87/2
f 59/88/2 23/89/2 41/90/2
f 41/90/2 23/89/2 19/91/2
f 52/92/2 19/91/2 23/89/2
f 19/91/2 60/93/2 41/90/2
f 60/93/2 19/91/2 52/92/2
f 62/96/14 56/95/14 61/94/14
f 56/95/14 62/96/14 55/97/14
f 11/100/10 63/99/10 10/98/10
f 63/99/10 11/100/10 64/101/10
f 10/98/10 61/102/10 11/100/10
f 61/102/10 10/98/10 62/103/10
f 61/92/2 13/104/2 11/89/2
f 56/93/2 13/104/2 61/92/2
f 13/104/2 56/93/2 48/90/2
f 48/90/2 11/89/2 13/104/2
f 57/105/2 11/89/2 48/90/2
f 11/89/2 57/105/2 64/106/2
f 59/109/11 39/108/11 65/107/11
f 39/108/11 59/109/11 41/110/11
f 41/110/11 66/111/11 39/108/11
f 66/111/11 41/110/11 60/112/11
f 66/92/1 25/113/1 39/89/1
f 51/93/1 25/113/1 66/92/1
f 25/113/1 51/93/1 24/90/1
f 24/90/1 39/89/1 25/113/1
f 53/88/1 39/89/1 24/90/1
f 39/89/1 53/88/1 65/87/1
f 51/116/14 60/115/14 52/114/14
f 60/115/14 51/116/14 66/117/14
f 55/92/1 12/118/1 47/89/1
f 62/93/1 12/118/1 55/92/1
f 12/118/1 62/93/1 10/90/1
f 10/90/1 47/89/1 12/118/1
f 63/105/1 47/89/1 10/90/1
f 47/89/1 63/105/1 58/106/1

usemtl _defaultMat

f 59/82/15 53/83/15 54/84/15
f 53/82/15 59/83/15 65/84/15
f 57/56/15 63/60/15 64/54/15
f 63/56/15 57/60/15 58/54/15

usemtl colorRedDark

f 22/35/16 31/36/16 27/37/16
f 21/38/16 27/37/16 31/36/16
f 29/39/2 33/40/2 34/41/2
f 33/40/2 29/39/2 35/42/2
f 35/42/2 29/39/2 30/43/2
f 45/53/8 49/60/8 44/52/8
f 49/60/8 45/53/8 46/54/8
f 40/47/8 50/61/8 42/50/8
f 50/61/8 40/47/8 43/51/8
f 16/67/17 15/68/17 28/69/17
f 14/70/17 28/69/17 15/68/17
f 20/71/18 18/72/18 32/73/18
f 17/74/18 32/73/18 18/72/18

