# Created by Kenney (www.kenney.nl)

mtllib tent_detailedOpen.mtl

g tent_detailedOpen

v 2.165734E-15 0.4441358 0.3182
v -0.1369 0 0.3182
v -0.1369 0 0.3482
v -0.2738 0 -0.3182
v -0.2738 0.111 -0.3182
v -0.2738 0 0.3182
v -0.2738 0.111 0.3182
v 0.014208 0.49688 0.260184
v 2.165734E-15 0.5179999 0.260184
v 0.014208 0.49688 0.2886
v 2.165734E-15 0.5179999 0.2886
v 4.331469E-15 0.5179999 -0.261368
v 0.014208 0.49688 -0.261368
v 0.2738 0.111 0.3182
v 0.014208 0.49688 -0.289784
v 0.2738 0.111 -0.3182
v 2.165734E-15 0.5179999 0.3182
v 4.331469E-15 0.5179999 -0.289784
v 4.331469E-15 0.5179999 -0.3182
v -0.409048 0.081 -0.289784
v -0.014208 0.49688 -0.289784
v -0.409048 0.081 -0.261368
v -0.014208 0.49688 -0.261368
v -0.409048 0.081 0.260184
v -0.014208 0.49688 0.260184
v -0.409048 0.081 0.2886
v -0.014208 0.49688 0.2886
v -0.20535 0 0.3182
v 0.1369 0 0.3182
v 0.1369 0 0.3482
v 0.2738 0 0.3182
v 0.20535 0 0.3182
v 0.409048 0.081 -0.289784
v 0.409048 0.081 -0.261368
v 0.409048 0.081 0.260184
v 0.409048 0.081 0.2886
v 0.2738 0 -0.3182
v -0.06472136 0.1945 -0.3182
v -0.06472136 0.2745 -0.3182
v 0.06472136 0.2745 -0.3182
v 0.06472136 0.1945 -0.3182
v -0.014208 0 -0.289784
v -0.014208 0 -0.261368
v -0.014208 0.5611308 -0.289784
v -0.014208 0.5611308 -0.261368
v 0.014208 0 0.260184
v 0.014208 0 0.2886
v 0.014208 0.5611308 0.2886
v 0.014208 0.5611308 0.260184
v -0.014208 0.5611308 0.2886
v -0.014208 0 0.2886
v 0.014208 0.5611308 -0.289784
v 0.014208 0.5611308 -0.261368
v 0.014208 0 -0.261368
v 0.409048 0 0.260184
v 0.409048 0 0.2886
v 0.409048 0.111 0.260184
v 0.409048 0.111 0.2886
v 0.014208 0 -0.289784
v -0.409048 0 -0.261368
v -0.437464 0 -0.261368
v -0.437464 0.111 -0.261368
v -0.409048 0.111 -0.261368
v 0.437464 0.111 0.260184
v 0.437464 0 0.260184
v 0.437464 0.111 0.2886
v 0.437464 0 0.2886
v -0.437464 0 0.260184
v -0.437464 0.111 0.260184
v -0.437464 0 0.2886
v -0.437464 0.111 0.2886
v -0.409048 0 0.260184
v -0.409048 0.111 0.260184
v -0.409048 0.111 -0.289784
v -0.409048 0 -0.289784
v -0.014208 0.5611308 0.260184
v -0.014208 0 0.260184
v 0.437464 0 -0.261368
v 0.437464 0 -0.289784
v 0.409048 0 -0.261368
v 0.409048 0 -0.289784
v -0.409048 0.111 0.2886
v -0.409048 0 0.2886
v -0.437464 0 -0.289784
v -0.437464 0.111 -0.289784
v 0.437464 0.111 -0.261368
v 0.409048 0.111 -0.261368
v 0.437464 0.111 -0.289784
v 0.409048 0.111 -0.289784

vn 0.9556321 -0.2945631 0
vn -1 0 0
vn 1 0 0
vn -0.8297218 -0.5581771 0
vn -0.8297222 -0.5581767 0
vn 0.8297218 0.5581771 0
vn 0.8297222 0.5581767 0
vn -0.7252136 0.6885239 0
vn 0.7252136 -0.6885239 0
vn 0.8297218 -0.5581771 0
vn 0.8297222 -0.5581767 0
vn -0.8297218 0.5581771 0
vn -0.8297222 0.5581767 0
vn 0 -1 0
vn -0.3946753 0.1824815 0.9005176
vn -0.9556321 -0.2945631 0
vn 0 0 1
vn 0 0 -1
vn 0.3946753 0.1824815 0.9005176
vn 0.7252136 0.6885239 0
vn -0.7252136 -0.6885239 0
vn 0 1 0

vt -12.52756 16.70986
vt -12.52756 -1.587626
vt -13.70866 -1.587626
vt -12.52756 -5.861978E-16
vt -12.52756 4.370079
vt 12.52756 -5.861978E-16
vt 12.52756 4.370079
vt 10.24346 15.91896
vt 10.24346 16.9211
vt 11.3622 15.91896
vt 11.3622 16.9211
vt -10.29008 16.9211
vt -10.29008 15.91896
vt 12.52756 -2.39093
vt -11.40882 15.91897
vt -12.52756 -2.39093
vt 12.52756 16.9211
vt -11.40882 16.9211
vt -12.52756 16.9211
vt -11.40882 -8.775474
vt -11.40882 13.80164
vt -10.29008 -8.775474
vt -10.29008 13.80164
vt 10.24346 -8.775474
vt 10.24346 13.80164
vt 11.3622 -8.775474
vt 11.3622 13.80164
vt -10.24346 16.9211
vt -10.24346 15.91896
vt -11.3622 16.9211
vt -11.3622 15.91896
vt 10.29008 15.91896
vt 10.29008 16.9211
vt 11.40882 15.91897
vt 11.40882 16.9211
vt -5.389764 13.70866
vt -5.389764 12.52756
vt -8.084645 12.52756
vt 0.5664034 -2.68599
vt -2.375941 -2.68599
vt 5.028755 15.09828
vt 12.52756 -1.587626
vt 12.52756 16.70986
vt 13.70866 -1.587626
vt -5.389764 4.671822E-15
vt -8.084645 2.04281E-15
vt 1.315105E-13 17.48566
vt -10.77953 4.370079
vt -10.77953 -5.861978E-16
vt 1.315105E-13 20.3937
vt 10.77953 4.370079
vt 10.77953 -5.861978E-16
vt 8.084645 -5.844214E-15
vt 5.389764 -1.110223E-14
vt 2.375941 -2.68599
vt -0.5664034 -2.68599
vt -5.028755 15.09828
vt 5.389764 13.70866
vt 8.084645 12.52756
vt 5.389764 12.52756
vt 11.40882 13.80164
vt 11.40882 -8.775474
vt 10.29008 13.80164
vt 10.29008 -8.775474
vt -10.24346 13.80164
vt -10.24346 -8.775474
vt -11.3622 13.80164
vt -11.3622 -8.775474
vt 2.548085 7.657481
vt 2.548085 10.80709
vt -1.242849E-13 20.3937
vt -2.548085 10.80709
vt -2.548085 7.657481
vt -11.40882 -4.44088E-16
vt -11.40882 19.5622
vt -10.29008 -4.44088E-16
vt -10.29008 19.5622
vt -11.40882 22.09176
vt -10.29008 22.09176
vt -10.24346 19.5622
vt -10.24346 -1.110223E-14
vt -11.3622 19.5622
vt -11.3622 -1.110223E-14
vt -11.3622 22.09176
vt -10.24346 22.09176
vt 0.55937 19.5622
vt 1.272086E-13 20.3937
vt 0.55937 22.09176
vt -0.55937 22.09176
vt -0.55937 19.5622
vt -0.55937 -1.110223E-14
vt 0.55937 -1.110223E-14
vt -0.55937 -11.40882
vt -0.55937 -10.29008
vt 0.55937 -11.40882
vt 0.55937 -10.29008
vt 0.55937 -4.44088E-16
vt -0.55937 -4.44088E-16
vt 1.325445E-13 20.3937
vt 10.24346 -6.661349E-16
vt 10.24346 3.188976
vt 11.3622 -6.661349E-16
vt 11.3622 3.188976
vt 10.24346 4.370079
vt 11.3622 4.370079
vt -16.10425 -5.764186E-16
vt -17.22299 -5.764186E-16
vt -16.10425 3.188976
vt -17.22299 4.370079
vt -16.10425 4.370079
vt -10.24346 4.370079
vt -10.24346 -6.661349E-16
vt -11.3622 4.370079
vt -11.3622 -6.661349E-16
vt 11.40882 19.5622
vt 11.40882 -4.44088E-16
vt 10.29008 19.5622
vt 10.29008 -4.44088E-16
vt 10.29008 22.09176
vt 11.40882 22.09176
vt 10.24346 -6.563557E-16
vt 11.3622 -6.563557E-16
vt 17.22299 -6.563557E-16
vt 16.10425 -6.563557E-16
vt 17.22299 4.370079
vt 16.10425 3.188976
vt 16.10425 4.370079
vt 11.40882 4.370079
vt 11.40882 3.188976
vt 10.29008 4.370079
vt 10.29008 3.188976
vt 11.40882 -5.764186E-16
vt 10.29008 -5.764186E-16
vt -0.55937 10.24346
vt -0.55937 11.3622
vt 0.55937 10.24346
vt 0.55937 11.3622
vt -17.22299 10.24346
vt -17.22299 11.3622
vt -16.10425 10.24346
vt -16.10425 11.3622
vt 10.24346 19.5622
vt 10.24346 22.09176
vt 11.3622 19.5622
vt 11.3622 22.09176
vt 11.3622 -1.110223E-14
vt 10.24346 -1.110223E-14
vt -16.10425 -6.661349E-16
vt -17.22299 -6.661349E-16
vt 17.22299 -10.29008
vt 17.22299 -11.40882
vt 16.10425 -10.29008
vt 16.10425 -11.40882
vt -1.230788E-13 20.3937
vt -1.284147E-13 20.3937
vt -10.24346 3.188976
vt -11.3622 3.188976
vt -10.24346 -6.563557E-16
vt -11.3622 -6.563557E-16
vt 17.22299 -6.661349E-16
vt 16.10425 -6.661349E-16
vt 17.22299 -5.764186E-16
vt 16.10425 -5.764186E-16
vt -11.40882 -5.764186E-16
vt -11.40882 4.370079
vt -10.29008 -5.764186E-16
vt -10.29008 4.370079
vt 17.22299 -5.861978E-16
vt 16.10425 -5.861978E-16
vt -16.10425 -5.861978E-16
vt -17.22299 -5.861978E-16
vt -11.40882 3.188976
vt -10.29008 3.188976
vt -10.29008 -5.861978E-16
vt -11.40882 -5.861978E-16
vt -17.22299 -11.40882
vt -17.22299 -10.29008
vt -16.10425 -11.40882
vt -16.10425 -10.29008
vt 17.22299 11.3622
vt 17.22299 10.24346
vt 16.10425 11.3622
vt 16.10425 10.24346
vt -16.10425 -6.563557E-16
vt -17.22299 -6.563557E-16
vt 11.40882 -5.861978E-16
vt 10.29008 -5.861978E-16

usemtl colorRed

f 3/3/1 2/2/1 1/1/1
f 6/6/2 5/5/2 4/4/2
f 5/5/2 6/6/2 7/7/2
f 4/4/3 5/5/3 6/6/3
f 7/7/3 6/6/3 5/5/3
f 10/10/4 9/9/4 8/8/4
f 9/9/4 10/10/4 11/11/4
f 12/12/4 8/8/4 9/9/4
f 8/8/4 12/12/4 13/13/4
f 13/13/4 14/14/5 8/8/4
f 8/8/4 14/14/5 10/10/4
f 10/10/4 14/14/5 11/11/4
f 15/15/5 14/14/5 13/13/4
f 14/14/5 15/15/5 16/16/5
f 11/11/4 14/14/5 17/17/5
f 18/18/5 16/16/5 15/15/5
f 16/16/5 18/18/5 19/19/5
f 8/8/6 9/9/6 10/10/6
f 11/11/6 10/10/6 9/9/6
f 9/9/6 8/8/6 12/12/6
f 13/13/6 12/12/6 8/8/6
f 8/8/6 14/14/7 13/13/6
f 10/10/6 14/14/7 8/8/6
f 11/11/6 14/14/7 10/10/6
f 13/13/6 14/14/7 15/15/7
f 16/16/7 15/15/7 14/14/7
f 17/17/7 14/14/7 11/11/6
f 15/15/7 16/16/7 18/18/7
f 19/19/7 18/18/7 16/16/7
f 22/22/8 21/21/8 20/20/8
f 21/21/8 22/22/8 23/23/8
f 23/23/8 22/22/8 24/24/8
f 23/23/8 24/24/8 25/25/8
f 25/25/8 24/24/8 26/26/8
f 25/25/8 26/26/8 27/27/8
f 20/20/9 21/21/9 22/22/9
f 23/23/9 22/22/9 21/21/9
f 24/24/9 22/22/9 23/23/9
f 25/25/9 24/24/9 23/23/9
f 26/26/9 24/24/9 25/25/9
f 27/27/9 26/26/9 25/25/9
f 11/30/10 25/29/10 9/28/10
f 25/29/10 11/30/10 27/31/10
f 23/32/10 9/28/10 25/29/10
f 9/28/10 23/32/10 12/33/10
f 17/19/11 27/31/10 11/30/10
f 7/16/11 23/32/10 25/29/10
f 7/16/11 25/29/10 27/31/10
f 7/16/11 27/31/10 17/19/11
f 7/16/11 21/34/11 23/32/10
f 5/14/11 21/34/11 7/16/11
f 5/14/11 18/35/11 21/34/11
f 18/35/11 5/14/11 19/17/11
f 9/28/12 25/29/12 11/30/12
f 27/31/12 11/30/12 25/29/12
f 25/29/12 9/28/12 23/32/12
f 12/33/12 23/32/12 9/28/12
f 11/30/12 27/31/12 17/19/13
f 25/29/12 23/32/12 7/16/13
f 27/31/12 25/29/12 7/16/13
f 17/19/13 27/31/12 7/16/13
f 23/32/12 21/34/13 7/16/13
f 7/16/13 21/34/13 5/14/13
f 21/34/13 18/35/13 5/14/13
f 19/17/13 5/14/13 18/35/13
f 28/38/14 2/37/14 3/36/14
f 1/41/15 28/40/15 3/39/15
f 30/44/16 1/43/16 29/42/16
f 1/47/17 28/46/17 2/45/17
f 7/48/17 28/46/17 1/47/17
f 28/46/17 7/48/17 6/49/17
f 7/48/17 1/47/17 17/50/17
f 1/47/17 14/51/17 17/50/17
f 1/47/17 31/52/17 14/51/17
f 31/52/17 1/47/17 32/53/17
f 1/47/17 29/54/17 32/53/17
f 2/45/18 28/46/18 1/47/18
f 1/47/18 28/46/18 7/48/18
f 6/49/18 7/48/18 28/46/18
f 17/50/18 1/47/18 7/48/18
f 17/50/18 14/51/18 1/47/18
f 14/51/18 31/52/18 1/47/18
f 32/53/18 1/47/18 31/52/18
f 32/53/18 29/54/18 1/47/18
f 1/57/19 30/56/19 32/55/19
f 29/60/14 32/59/14 30/58/14
f 13/63/20 33/62/20 15/61/20
f 33/62/20 13/63/20 34/64/20
f 34/64/20 13/63/20 8/65/20
f 34/64/20 8/65/20 35/66/20
f 35/66/20 8/65/20 10/67/20
f 35/66/20 10/67/20 36/68/20
f 15/61/21 33/62/21 13/63/21
f 34/64/21 13/63/21 33/62/21
f 8/65/21 13/63/21 34/64/21
f 35/66/21 8/65/21 34/64/21
f 10/67/21 8/65/21 35/66/21
f 36/68/21 10/67/21 35/66/21
f 14/5/3 37/6/3 16/7/3
f 37/6/3 14/5/3 31/4/3
f 16/7/2 37/6/2 14/5/2
f 31/4/2 14/5/2 37/6/2
f 5/51/18 37/49/18 4/52/18
f 37/49/18 5/51/18 16/48/18
f 16/48/18 5/51/18 38/69/18
f 38/69/18 5/51/18 39/70/18
f 39/70/18 5/51/18 19/71/18
f 39/70/18 19/71/18 40/72/18
f 16/48/18 40/72/18 19/71/18
f 40/72/18 16/48/18 41/73/18
f 41/73/18 16/48/18 38/69/18
f 4/52/17 37/49/17 5/51/17
f 16/48/17 5/51/17 37/49/17
f 38/69/17 5/51/17 16/48/17
f 39/70/17 5/51/17 38/69/17
f 19/71/17 5/51/17 39/70/17
f 40/72/17 19/71/17 39/70/17
f 19/71/17 40/72/17 16/48/17
f 41/73/17 16/48/17 40/72/17
f 38/69/17 16/48/17 41/73/17

usemtl wood

f 43/76/2 21/75/2 42/74/2
f 21/75/2 43/76/2 23/77/2
f 23/77/2 44/78/2 21/75/2
f 44/78/2 23/77/2 45/79/2
f 10/82/3 46/81/3 8/80/3
f 46/81/3 10/82/3 47/83/3
f 8/80/3 48/84/3 10/82/3
f 48/84/3 8/80/3 49/85/3
f 48/88/17 11/87/17 10/86/17
f 50/89/17 11/87/17 48/88/17
f 11/87/17 50/89/17 27/90/17
f 27/90/17 10/86/17 11/87/17
f 51/91/17 10/86/17 27/90/17
f 10/86/17 51/91/17 47/92/17
f 44/95/22 53/94/22 52/93/22
f 53/94/22 44/95/22 45/96/22
f 13/86/17 43/98/17 54/97/17
f 43/98/17 13/86/17 23/90/17
f 23/90/17 13/86/17 12/99/17
f 53/88/17 12/99/17 13/86/17
f 12/99/17 45/89/17 23/90/17
f 45/89/17 12/99/17 53/88/17
f 56/102/2 35/101/2 55/100/2
f 35/101/2 56/102/2 36/103/2
f 36/103/2 57/104/2 35/101/2
f 57/104/2 36/103/2 58/105/2
f 43/94/14 59/95/14 54/96/14
f 59/95/14 43/94/14 42/93/14
f 22/108/17 61/107/17 60/106/17
f 61/107/17 22/108/17 62/109/17
f 62/109/17 22/108/17 63/110/17
f 66/113/3 65/112/3 64/111/3
f 65/112/3 66/113/3 67/114/3
f 13/117/3 59/116/3 15/115/3
f 59/116/3 13/117/3 54/118/3
f 15/115/3 53/119/3 13/117/3
f 53/119/3 15/115/3 52/120/3
f 70/122/2 69/104/2 68/121/2
f 69/104/2 70/122/2 71/105/2
f 69/125/18 72/124/18 68/123/18
f 72/124/18 69/125/18 24/126/18
f 24/126/18 69/125/18 73/127/18
f 63/130/3 20/129/3 74/128/3
f 20/129/3 63/130/3 22/131/3
f 22/131/3 75/132/3 20/129/3
f 75/132/3 22/131/3 60/133/3
f 76/136/22 48/135/22 49/134/22
f 48/135/22 76/136/22 50/137/22
f 57/140/22 66/139/22 64/138/22
f 66/139/22 57/140/22 58/141/22
f 27/144/2 76/143/2 25/142/2
f 76/143/2 27/144/2 50/145/2
f 25/142/2 51/146/2 27/144/2
f 51/146/2 25/142/2 77/147/2
f 35/108/18 65/149/18 55/148/18
f 65/149/18 35/108/18 64/109/18
f 64/109/18 35/108/18 57/110/18
f 80/152/14 79/151/14 78/150/14
f 79/151/14 80/152/14 81/153/14
f 25/86/18 46/91/18 77/92/18
f 46/91/18 25/86/18 8/90/18
f 8/90/18 25/86/18 9/154/18
f 76/88/18 9/154/18 25/86/18
f 9/154/18 49/89/18 8/90/18
f 49/89/18 9/154/18 76/88/18
f 44/88/18 18/155/18 21/86/18
f 52/89/18 18/155/18 44/88/18
f 18/155/18 52/89/18 15/90/18
f 15/90/18 21/86/18 18/155/18
f 59/98/18 21/86/18 15/90/18
f 21/86/18 59/98/18 42/97/18
f 51/135/14 46/136/14 47/137/14
f 46/136/14 51/135/14 77/134/14
f 82/113/3 24/156/3 73/111/3
f 24/156/3 82/113/3 26/157/3
f 26/157/3 72/158/3 24/156/3
f 72/158/3 26/157/3 83/159/3
f 66/125/17 56/161/17 67/160/17
f 56/161/17 66/125/17 36/126/17
f 36/126/17 66/125/17 58/127/17
f 70/139/14 72/140/14 83/141/14
f 72/140/14 70/139/14 68/138/14
f 85/125/18 75/163/18 84/162/18
f 75/163/18 85/125/18 20/126/18
f 20/126/18 85/125/18 74/127/18
f 61/166/2 85/165/2 84/164/2
f 85/165/2 61/166/2 62/167/2
f 86/125/17 80/169/17 78/168/17
f 80/169/17 86/125/17 34/126/17
f 34/126/17 86/125/17 87/127/17
f 33/108/18 79/171/18 81/170/18
f 79/171/18 33/108/18 88/109/18
f 88/109/18 33/108/18 89/110/18
f 34/173/2 89/165/2 33/172/2
f 89/165/2 34/173/2 87/167/2
f 33/172/2 80/174/2 34/173/2
f 80/174/2 33/172/2 81/175/2
f 89/178/22 86/177/22 88/176/22
f 86/177/22 89/178/22 87/179/22
f 56/182/14 65/181/14 67/180/14
f 65/181/14 56/182/14 55/183/14
f 26/108/17 70/185/17 83/184/17
f 70/185/17 26/108/17 71/109/17
f 71/109/17 26/108/17 82/110/17
f 61/177/14 75/178/14 60/179/14
f 75/178/14 61/177/14 84/176/14
f 85/151/22 63/152/22 74/153/22
f 63/152/22 85/151/22 62/150/22
f 86/130/3 79/186/3 88/128/3
f 79/186/3 86/130/3 78/187/3
f 69/181/22 82/182/22 73/183/22
f 82/182/22 69/181/22 71/180/22

