# Created by Kenney (www.kenney.nl)

mtllib tree_tall.mtl

g tree_tall

v 0 0.3374208 -0.139872
v 0.1211327 0.3374208 -0.069936
v 0 0.6639115 -0.2306995
v 0.1997916 0.6639115 -0.1153498
v 0 0.2899837 -0.0839232
v -0.07267962 0.2899837 -0.0419616
v -0.1211327 0.3374208 -0.069936
v -0.1997916 0.6639115 -0.1153498
v 0.1211327 0.3374208 0.069936
v 0.07267962 0.2899837 0.0419616
v 0.07267962 0.2899837 -0.0419616
v 0.1997916 0.6639115 0.1153498
v 0.108939 1.60998 -0.06289598
v 0.108939 1.60998 0.06289598
v 0 0.3374208 0.139872
v 0 0.6639115 0.2306995
v -2.887646E-15 1.60998 -0.125792
v -0.07267962 0.2899837 0.0419616
v -0.1211327 0.3374208 0.069936
v 0 0.2899837 0.0839232
v -0.108939 1.60998 -0.06289598
v -0.1997916 0.6639115 0.1153498
v -2.887646E-15 1.60998 0.125792
v -0.108939 1.60998 0.06289598
v -0.05836952 1.687719 -0.03369967
v 0 1.687719 -0.06739933
v 0 1.687719 0.06739933
v -0.05836952 1.687719 0.03369967
v 0.05836952 1.687719 -0.03369967
v 0.02964596 0.2899837 0.02964596
v -0.02964596 0.2899837 0.02964596
v -0.02964596 0.2899837 -0.02964596
v 0.02964596 0.2899837 -0.02964596
v 0.05836952 1.687719 0.03369967
v -0.04668656 0 -0.04668656
v 0.04668656 0 -0.04668656
v -0.04668656 0 0.04668656
v 0.04668656 0 0.04668656

vn 0.4860917 -0.2342208 -0.8419356
vn -0.3497879 -0.7145585 -0.6058503
vn -0.4860917 -0.2342208 -0.8419356
vn 0.6995756 -0.7145585 0
vn 0.9954205 0.09559201 0
vn 0.4860917 -0.2342208 0.8419356
vn 0.4977103 0.09559202 -0.8620595
vn -0.6995756 -0.7145585 0
vn 0.3497879 -0.7145585 0.6058503
vn -0.3497879 -0.7145585 0.6058503
vn -0.4977103 0.09559202 -0.8620595
vn -0.4860917 -0.2342208 0.8419356
vn 0.9721834 -0.2342207 0
vn 0.4977103 0.09559202 0.8620595
vn -0.9721834 -0.2342207 0
vn -0.9954205 0.09559201 0
vn -0.4191257 0.5452842 -0.7259469
vn -0.4191257 0.5452842 0.7259469
vn 0.4191257 0.5452842 -0.7259469
vn 0 -1 0
vn -0.4977103 0.09559202 0.8620595
vn 0 1 0
vn 0.8382512 0.5452842 0
vn 0.3497879 -0.7145585 -0.6058503
vn 0.4191257 0.5452842 0.7259469
vn -0.8382512 0.5452842 0
vn 0 0.05866279 -0.9982778
vn -0.9982778 0.05866279 0
vn 0 0.05866279 0.9982778
vn 0.9982778 0.05866279 0

vt 2.753386 14.03176
vt -2.753386 14.03176
vt 4.541329 27.25351
vt -4.541328 27.25351
vt -1.652032 10.03147
vt -2.753386 12.70109
vt 1.652031 10.03147
vt 2.753386 12.70109
vt 2.753386 14.03176
vt -2.753386 14.03176
vt 4.541328 27.25351
vt -4.541329 27.25351
vt -2.753386 12.70109
vt 2.753386 12.70109
vt -1.652032 10.03147
vt 1.652032 10.03147
vt 4.541329 25.26664
vt -4.541329 25.26664
vt 2.476219 62.68477
vt -2.476219 62.68477
vt 4.541329 25.26664
vt -4.541328 25.26664
vt -2.476219 62.68477
vt 2.753386 12.70109
vt 1.652032 10.03147
vt -2.753386 12.70109
vt -1.652031 10.03147
vt 4.541328 25.26664
vt -4.541329 25.26664
vt 2.476219 62.68477
vt 4.541329 27.25351
vt -4.541329 27.25351
vt 2.476219 50.79389
vt -2.47622 50.79389
vt 1.326758 54.44506
vt -1.326759 54.44506
vt 2.47622 50.79389
vt -2.476219 50.79389
vt 1.326759 54.44506
vt -1.326758 54.44506
vt 2.861402 1.652032
vt 2.861402 -1.652032
vt 0 3.304063
vt 1.167164 1.167164
vt -1.167164 1.167164
vt -2.861402 1.652032
vt -1.167164 -1.167164
vt 1.167164 -1.167164
vt 0 -3.304063
vt -2.861402 -1.652032
vt -2.298012 -1.326759
vt -2.298012 1.326759
vt 0 -2.653517
vt 0 2.653517
vt 2.298012 -1.326759
vt 2.298012 1.326759
vt 2.476219 50.79389
vt -2.476219 50.79389
vt 1.326759 54.44506
vt -1.326759 54.44506
vt 1.838053 -0.1078254
vt -1.838053 -0.1078254
vt 1.167164 11.32855
vt -1.167164 11.32855
vt 1.838053 1.838053
vt 1.838053 -1.838053
vt -1.838053 1.838053
vt -1.838053 -1.838053

usemtl leafsGreen

f 3/3/1 2/2/1 1/1/1
f 2/2/1 3/3/1 4/4/1
f 6/7/2 1/6/2 5/5/2
f 1/6/2 6/7/2 7/8/2
f 8/11/3 1/10/3 7/9/3
f 1/10/3 8/11/3 3/12/3
f 10/15/4 2/14/4 9/13/4
f 2/14/4 10/15/4 11/16/4
f 13/19/5 12/18/5 4/17/5
f 12/18/5 13/19/5 14/20/5
f 12/11/6 15/10/6 9/9/6
f 15/10/6 12/11/6 16/12/6
f 17/19/7 4/22/7 3/21/7
f 4/22/7 17/19/7 13/23/7
f 19/14/8 6/15/8 18/16/8
f 6/15/8 19/14/8 7/13/8
f 15/6/9 10/7/9 9/8/9
f 10/7/9 15/6/9 20/5/9
f 19/26/10 20/25/10 15/24/10
f 20/25/10 19/26/10 18/27/10
f 21/30/11 3/29/11 8/28/11
f 3/29/11 21/30/11 17/20/11
f 16/3/12 19/2/12 15/1/12
f 19/2/12 16/3/12 22/4/12
f 12/32/13 2/1/13 4/31/13
f 2/1/13 12/32/13 9/10/13
f 14/30/14 16/29/14 12/28/14
f 16/29/14 14/30/14 23/20/14
f 7/10/15 22/31/15 8/32/15
f 22/31/15 7/10/15 19/1/15
f 22/17/16 21/20/16 8/18/16
f 21/20/16 22/17/16 24/19/16
f 25/35/17 17/34/17 21/33/17
f 17/34/17 25/35/17 26/36/17
f 27/39/18 24/38/18 23/37/18
f 24/38/18 27/39/18 28/40/18
f 26/39/19 13/38/19 17/37/19
f 13/38/19 26/39/19 29/40/19
f 20/43/20 11/42/20 10/41/20
f 11/42/20 20/43/20 30/44/20
f 30/44/20 20/43/20 31/45/20
f 31/45/20 20/43/20 18/46/20
f 31/45/20 18/46/20 32/47/20
f 33/48/20 11/42/20 30/44/20
f 11/42/20 33/48/20 5/49/20
f 5/49/20 33/48/20 32/47/20
f 5/49/20 32/47/20 6/50/20
f 6/50/20 32/47/20 18/46/20
f 23/19/21 22/22/21 16/21/21
f 22/22/21 23/19/21 24/23/21
f 26/53/22 34/52/22 29/51/22
f 34/52/22 26/53/22 27/54/22
f 27/54/22 26/53/22 25/55/22
f 27/54/22 25/55/22 28/56/22
f 29/59/23 14/58/23 13/57/23
f 14/58/23 29/59/23 34/60/23
f 11/27/24 1/24/24 2/26/24
f 1/24/24 11/27/24 5/25/24
f 34/35/25 23/34/25 14/33/25
f 23/34/25 34/35/25 27/36/25
f 24/57/26 25/60/26 21/58/26
f 25/60/26 24/57/26 28/59/26

usemtl woodBark

f 32/63/27 36/62/27 35/61/27
f 36/62/27 32/63/27 33/64/27
f 37/61/28 32/64/28 35/62/28
f 32/64/28 37/61/28 31/63/28
f 30/63/29 37/62/29 38/61/29
f 37/62/29 30/63/29 31/64/29
f 33/63/30 38/62/30 36/61/30
f 38/62/30 33/63/30 30/64/30
f 37/67/20 36/66/20 38/65/20
f 36/66/20 37/67/20 35/68/20

