# Created by Kenney (www.kenney.nl)

mtllib tree_pineSmallD.mtl

g tree_pineSmallD

v 0.1534885 0.3315001 -0.1534885
v 0.1249325 0.3315001 0.1249325
v 0.1534885 0.3315001 0.1534885
v -0.1534885 0.3315001 0.1534885
v -0.1249325 0.3315001 0.1249325
v -0.1249325 0.3315001 -0.1249325
v 0.1249325 0.3315001 -0.1249325
v -0.1534885 0.3315001 -0.1534885
v -0.107442 0.5562696 -0.107442
v -0.107442 0.5562696 0.107442
v 0.107442 0.5562696 -0.107442
v -0.178475 0.15 -0.178475
v 0.178475 0.15 -0.178475
v 0.178475 0.15 0.178475
v 0.1320001 0.5562696 0.1320001
v -0.1320001 0.5562696 0.1320001
v 0 0.9555697 7.219114E-16
v -0.178475 0.15 0.178475
v 0.05950081 0.15 0.05950081
v -0.05950081 0.15 0.05950081
v -0.05950081 0.15 -0.05950081
v 0.05950081 0.15 -0.05950081
v 0.1320001 0.5562696 -0.1320001
v 0.107442 0.5562696 0.107442
v -0.1320001 0.5562696 -0.1320001
v -0.07497102 0 -0.07497102
v 0.07497102 0 -0.07497102
v 0.07497102 0 0.07497102
v -0.07497102 0 0.07497102

vn 0 -1 0
vn -0.9796541 0.200693 0
vn 0 0.200693 -0.9796541
vn 0 0.282945 -0.9591361
vn 0.9591361 0.282945 0
vn 0 0.313873 0.9494649
vn 0 0.282945 0.9591361
vn -0.9494649 0.313873 0
vn 0.9494649 0.313873 0
vn -0.9591361 0.282945 0
vn 0.9796541 0.200693 0
vn 0 0.313873 -0.9494649
vn 0 0.200693 0.9796541
vn 0 0.1025906 -0.9947237
vn 0 0.1025906 0.9947237
vn -0.9947237 0.1025906 0
vn 0.9947237 0.1025906 0

vt 6.042854 -6.042854
vt 4.918602 4.918602
vt 6.042854 6.042854
vt -6.042854 6.042854
vt -4.918602 4.918602
vt -4.918602 -4.918602
vt 4.918602 -4.918602
vt -6.042854 -6.042854
vt -6.042854 11.57289
vt -4.229998 20.60587
vt 6.042854 11.57289
vt 4.229998 20.60587
vt 7.026575 3.676055
vt -7.026575 3.676055
vt 4.918602 11.12617
vt -4.918602 11.12617
vt 5.196855 19.16249
vt -5.196855 19.16249
vt 0 35.71968
vt 7.026575 -7.026575
vt 2.342552 2.342552
vt 7.026575 7.026575
vt -7.026575 7.026575
vt -2.342552 2.342552
vt -2.342552 -2.342552
vt 2.342552 -2.342552
vt -7.026575 -7.026575
vt 5.196855 -5.196855
vt 4.229998 4.229998
vt 5.196855 5.196855
vt -5.196855 5.196855
vt -4.229998 4.229998
vt -4.229998 -4.229998
vt 4.229998 -4.229998
vt -5.196855 -5.196855
vt 2.842171E-14 35.71968
vt -2.842171E-14 35.71968
vt 2.951615 -0.3028079
vt -2.951615 -0.3028079
vt 2.342552 5.634028
vt -2.342552 5.634028
vt 2.951615 2.951615
vt 2.951615 -2.951615
vt -2.951615 2.951615
vt -2.951615 -2.951615

usemtl leafsDark

f 3/3/1 2/2/1 1/1/1
f 2/2/1 3/3/1 4/4/1
f 2/2/1 4/4/1 5/5/1
f 5/5/1 4/4/1 6/6/1
f 7/7/1 1/1/1 2/2/1
f 1/1/1 7/7/1 8/8/1
f 8/8/1 7/7/1 6/6/1
f 8/8/1 6/6/1 4/4/1
f 4/11/2 9/10/2 8/9/2
f 9/10/2 4/11/2 10/12/2
f 9/12/3 1/9/3 8/11/3
f 1/9/3 9/12/3 11/10/3
f 6/15/4 13/14/4 12/13/4
f 13/14/4 6/15/4 7/16/4
f 7/15/5 14/14/5 13/13/5
f 14/14/5 7/15/5 2/16/5
f 17/19/6 16/18/6 15/17/6
f 2/15/7 18/14/7 14/13/7
f 18/14/7 2/15/7 5/16/7
f 14/22/1 19/21/1 13/20/1
f 19/21/1 14/22/1 18/23/1
f 19/21/1 18/23/1 20/24/1
f 20/24/1 18/23/1 21/25/1
f 22/26/1 13/20/1 19/21/1
f 13/20/1 22/26/1 12/27/1
f 12/27/1 22/26/1 21/25/1
f 12/27/1 21/25/1 18/23/1
f 15/30/1 24/29/1 23/28/1
f 24/29/1 15/30/1 16/31/1
f 24/29/1 16/31/1 10/32/1
f 10/32/1 16/31/1 9/33/1
f 11/34/1 23/28/1 24/29/1
f 23/28/1 11/34/1 25/35/1
f 25/35/1 11/34/1 9/33/1
f 25/35/1 9/33/1 16/31/1
f 16/17/8 17/36/8 25/18/8
f 15/18/9 23/17/9 17/37/9
f 18/13/10 6/16/10 12/14/10
f 6/16/10 18/13/10 5/15/10
f 11/12/11 3/9/11 1/11/11
f 3/9/11 11/12/11 24/10/11
f 17/19/12 23/18/12 25/17/12
f 24/12/13 4/9/13 3/11/13
f 4/9/13 24/12/13 10/10/13

usemtl woodBarkDark

f 21/40/14 27/39/14 26/38/14
f 27/39/14 21/40/14 22/41/14
f 19/40/15 29/39/15 28/38/15
f 29/39/15 19/40/15 20/41/15
f 29/44/1 27/43/1 28/42/1
f 27/43/1 29/44/1 26/45/1
f 29/38/16 21/41/16 26/39/16
f 21/41/16 29/38/16 20/40/16
f 22/40/17 28/39/17 27/38/17
f 28/39/17 22/40/17 19/41/17

