# Created by Kenney (www.kenney.nl)

mtllib tree_pineTallD.mtl

g tree_pineTallD

v 0.2401921 1.033531 0.138675
v 0.2401921 1.033531 -0.138675
v 0 1.033531 0.27735
v 0.024505 1.033531 0.024505
v -0.024505 1.033531 0.024505
v -0.2401921 1.033531 0.138675
v -0.024505 1.033531 -0.024505
v 0.024505 1.033531 -0.024505
v 0 1.033531 -0.27735
v -0.2401921 1.033531 -0.138675
v 0.0145428 1.481892 0.1760645
v -0.01067886 1.72429 0.09357255
v 0.1586464 1.494024 0.09133337
v 0.07940999 1.720989 0.04493392
v -0.1444059 1.255792 -0.0833728
v -2.887646E-15 1.249933 -0.1696611
v -0.1295608 1.442453 -0.07336038
v -0.0923362 1.738317 -0.05343237
v -0.1295608 1.456106 0.09371758
v -0.09396117 1.733063 0.03945367
v -0.1951536 1.26186 -0.1140345
v -0.1229114 1.443632 -0.06968885
v -0.1951536 1.247663 0.1019397
v -0.1142254 1.456451 0.07312158
v -0.008260068 1.225691 0.2091746
v 0.006822117 1.47715 0.1305347
v 0.0145428 1.454585 -0.1580915
v 0.1586464 1.480371 -0.0757446
v -0.01344694 1.735723 -0.1011377
v 0.07440672 1.727222 -0.0571091
v 0.1786334 1.217916 0.1004351
v 0.1116485 1.485735 0.06595594
v 0.1786334 1.232112 -0.1155391
v 0.1161236 1.476167 -0.05837855
v -0.008260068 1.254084 -0.222774
v 0.00439633 1.455054 -0.1359448
v 0 1.226874 0.1811358
v -0.1490457 1.245026 0.08605158
v 0.1598523 1.21995 0.09229072
v 0.1545272 1.232306 -0.08921635
v 0.0945252 1.726475 -0.06779402
v 0.0945252 1.719567 0.05181985
v -0.009013723 1.723117 0.111938
v -0.1125526 1.733574 0.05244227
v -0.009013723 1.736932 -0.1272897
v -0.1125526 1.740482 -0.06717157
v 0.009013723 2.075499 0.007675869
v 0.046371 0 0.046371
v 0.046371 0 -0.046371
v -0.046371 0 0.046371
v -0.046371 0 -0.046371

vn 0 -1 0
vn 0.4579717 0.3287357 0.8259509
vn -0.4591741 0.395774 -0.7953126
vn -0.9920399 0.1255058 -0.01025571
vn -0.9310219 0.3641772 0.02393826
vn -0.4501655 0.2910094 0.8441946
vn -0.5135165 0.228081 0.8272121
vn 0.4539923 0.2201081 -0.8633907
vn -0.5106876 0.1215807 -0.8511266
vn 0.4963835 0.2318518 0.8365692
vn 0.4997831 0.3168149 -0.8061298
vn -0.459174 0.3957741 0.7953126
vn 0.9454625 0.3246491 -0.02652911
vn -0.9183478 0.3957741 0
vn 0.4591739 0.395774 0.7953126
vn -0.07942501 -0.9946943 -0.06538322
vn 0.130672 -0.9881321 0.08074623
vn 0.9695024 0.244554 0.01607513
vn 0.4591741 0.3957739 -0.7953126
vn -0.4539441 0.3773348 -0.8071884
vn -0.0675484 -0.9960564 -0.05752256
vn 0.918348 0.3957741 0
vn 0.4951809 0.2231027 0.8396553
vn 0.9718593 0.2351704 0.01358099
vn 0.4980298 0.2980976 -0.8143122
vn -0.4614489 0.3496103 -0.8153757
vn -0.9412346 0.3371915 0.01947322
vn -0.458281 0.2736492 0.8456327
vn 0 0.02115187 -0.9997763
vn -0.9997763 0.02115187 0
vn 0 0.02115187 0.9997763
vn 0.9997763 0.02115187 0

vt 9.456384 5.459646
vt 9.456384 -5.459646
vt 0 10.91929
vt 0.9647636 0.9647636
vt -0.9647636 0.9647636
vt -9.456384 5.459646
vt -0.9647636 -0.9647636
vt 0.9647636 -0.9647636
vt 0 -10.91929
vt -9.456384 -5.459646
vt -2.860597 53.01553
vt -2.154123 63.12039
vt 3.718729 53.52129
vt 1.876342 62.98279
vt 5.459644 33.62517
vt -5.459647 33.62517
vt 3.282393 43.15361
vt -3.339786 42.90245
vt -2.83532 55.69655
vt -2.065945 67.43759
vt 3.742201 56.23835
vt 1.591452 67.2291
vt -4.68555 43.5129
vt -2.867128 51.19697
vt 3.814565 42.91277
vt 2.762262 51.73885
vt 3.587967 44.00788
vt -4.891129 44.91205
vt 2.655126 54.35568
vt -2.613575 53.50389
vt -2.387689 54.4874
vt -2.323677 65.68642
vt 4.142332 55.53008
vt 1.585789 65.33168
vt 2.389959 54.59149
vt -4.140375 55.63219
vt 2.32173 65.93815
vt -1.546388 65.59505
vt 2.887897 55.74802
vt -3.693269 56.22924
vt 2.03488 67.48328
vt -1.594693 67.38036
vt 4.030492 45.02237
vt -4.482008 45.33707
vt 2.455178 55.86181
vt -2.391467 55.51434
vt -3.580389 43.61068
vt -2.674549 53.74097
vt 4.897868 44.52269
vt 2.673087 52.8646
vt 5.459646 33.62516
vt -5.459646 33.62516
vt 3.565666 41.91391
vt -3.387857 42.69206
vt 2.80571 53.07134
vt -3.769575 53.63964
vt 2.16534 63.34643
vt -1.856046 63.08701
vt -5.459645 33.62516
vt -3.282394 43.1536
vt 3.387857 42.69206
vt 5.459646 33.62517
vt -5.459645 33.62517
vt 3.633494 41.61707
vt -3.565666 41.91391
vt -7.981667 2.465095
vt -1.194576 -2.189051
vt -1.416963 -2.96784
vt 6.564704 0.007840566
vt 5.505762 0.4607581
vt 6.345026 7.40717
vt 7.981669 8.416455
vt -6.57838 2.539566
vt -6.564703 10.87371
vt -5.156979 9.28522
vt 1.079145 11.52734
vt 1.416966 13.84939
vt 5.820096 12.65389
vt 0.1016497 14.02873
vt 0.224365 16.15319
vt -5.595733 13.04356
vt 4.358444 11.57633
vt -4.230645 11.82829
vt -5.8201 6.434629
vt -4.812929 6.523043
vt -0.2097216 3.237598
vt 5.595729 6.044955
vt 4.644011 6.164894
vt -0.2243689 2.935328
vt 4.664754 45.3342
vt -3.837002 44.75778
vt 2.373846 55.24355
vt -2.523461 55.63205
vt 3.339786 42.90245
vt -3.512454 42.14678
vt -4.015734 42.77879
vt -2.774382 51.32257
vt 4.496166 43.10936
vt 2.87292 50.83702
vt -4.444869 4.932067
vt -0.6801069 2.498113
vt -0.8595273 1.866791
vt 3.585341 3.441971
vt 3.077353 3.962721
vt 4.444868 8.082427
vt 3.58099 7.855806
vt -3.611064 5.263675
vt -3.585341 9.572524
vt -2.688293 9.035749
vt 0.8595271 11.1477
vt 0.755318 10.18724
vt 5.459645 33.62517
vt -5.459646 33.62517
vt 3.512455 42.14678
vt -3.633493 41.61707
vt 2.169178 65.17929
vt -2.544366 65.32265
vt 0.1521611 79.5547
vt -0.2972115 79.33642
vt 2.720795 65.1988
vt -1.987953 64.919
vt 2.917445 64.0549
vt -1.782191 63.62358
vt -0.4604126 78.01918
vt 2.553939 62.63111
vt -2.159425 62.48195
vt -0.1600003 76.70915
vt -2.735642 63.03453
vt 0.3094753 77.04467
vt 1.972557 62.74565
vt 1.787799 64.14323
vt -2.912137 64.57127
vt 0.4559881 78.56712
vt 1.82563 1.82563
vt 1.82563 -1.82563
vt -1.82563 1.82563
vt -1.82563 -1.82563
vt 1.82563 -0.03861548
vt -1.82563 -0.03861548
vt 0.9647636 40.66069
vt -0.9647636 40.66069

usemtl leafsDark

f 3/3/1 2/2/1 1/1/1
f 2/2/1 3/3/1 4/4/1
f 4/4/1 3/3/1 5/5/1
f 5/5/1 3/3/1 6/6/1
f 5/5/1 6/6/1 7/7/1
f 8/8/1 2/2/1 4/4/1
f 2/2/1 8/8/1 9/9/1
f 9/9/1 8/8/1 7/7/1
f 9/9/1 7/7/1 10/10/1
f 10/10/1 7/7/1 6/6/1
f 13/13/2 12/12/2 11/11/2
f 12/12/2 13/13/2 14/14/2
f 15/17/3 9/16/3 10/15/3
f 9/16/3 15/17/3 16/18/3
f 19/21/4 18/20/4 17/19/4
f 18/20/4 19/21/4 20/22/4
f 23/25/5 22/24/5 21/23/5
f 22/24/5 23/25/5 24/26/5
f 26/29/6 23/28/6 25/27/6
f 23/28/6 26/29/6 24/30/6
f 11/33/7 20/32/7 19/31/7
f 20/32/7 11/33/7 12/34/7
f 29/37/8 28/36/8 27/35/8
f 28/36/8 29/37/8 30/38/8
f 18/41/9 27/40/9 17/39/9
f 27/40/9 18/41/9 29/42/9
f 32/45/10 25/44/10 31/43/10
f 25/44/10 32/45/10 26/46/10
f 35/49/11 34/48/11 33/47/11
f 34/48/11 35/49/11 36/50/11
f 37/53/12 6/52/12 3/51/12
f 6/52/12 37/53/12 38/54/12
f 30/57/13 13/56/13 28/55/13
f 13/56/13 30/57/13 14/58/13
f 6/51/14 15/60/14 10/59/14
f 15/60/14 6/51/14 38/61/14
f 39/64/15 3/63/15 1/62/15
f 3/63/15 39/64/15 37/65/15
f 31/68/16 39/67/16 33/66/16
f 39/67/16 31/68/16 25/69/16
f 39/67/16 25/69/16 37/70/16
f 37/70/16 25/69/16 38/71/16
f 38/71/16 25/69/16 23/72/16
f 40/73/16 33/66/16 39/67/16
f 33/66/16 40/73/16 35/74/16
f 35/74/16 40/73/16 16/75/16
f 35/74/16 16/75/16 15/76/16
f 35/74/16 15/76/16 21/77/16
f 21/77/16 15/76/16 38/71/16
f 21/77/16 38/71/16 23/72/16
f 13/80/17 32/79/17 28/78/17
f 32/79/17 13/80/17 11/81/17
f 28/78/17 32/79/17 34/82/17
f 32/79/17 11/81/17 26/83/17
f 26/83/17 11/81/17 19/84/17
f 26/83/17 19/84/17 24/85/17
f 24/85/17 19/84/17 22/86/17
f 34/82/17 27/87/17 28/78/17
f 27/87/17 34/82/17 36/88/17
f 27/87/17 36/88/17 17/89/17
f 17/89/17 36/88/17 22/86/17
f 17/89/17 22/86/17 19/84/17
f 34/92/18 31/91/18 33/90/18
f 31/91/18 34/92/18 32/93/18
f 16/94/19 2/63/19 9/62/19
f 2/63/19 16/94/19 40/95/19
f 21/98/20 36/97/20 35/96/20
f 36/97/20 21/98/20 22/99/20
f 42/102/21 14/101/21 41/100/21
f 14/101/21 42/102/21 43/103/21
f 14/101/21 43/103/21 12/104/21
f 12/104/21 43/103/21 44/105/21
f 12/104/21 44/105/21 20/106/21
f 30/107/21 41/100/21 14/101/21
f 41/100/21 30/107/21 45/108/21
f 45/108/21 30/107/21 29/109/21
f 45/108/21 29/109/21 46/110/21
f 46/110/21 20/106/21 44/105/21
f 46/110/21 29/109/21 18/111/21
f 46/110/21 18/111/21 20/106/21
f 40/114/22 1/113/22 2/112/22
f 1/113/22 40/114/22 39/115/22
f 47/118/23 43/117/23 42/116/23
f 42/121/24 41/120/24 47/119/24
f 47/124/25 41/123/25 45/122/25
f 47/127/26 45/126/26 46/125/26
f 44/130/27 47/129/27 46/128/27
f 47/133/28 44/132/28 43/131/28

usemtl woodBarkDark

f 50/136/1 49/135/1 48/134/1
f 49/135/1 50/136/1 51/137/1
f 7/140/29 49/139/29 51/138/29
f 49/139/29 7/140/29 8/141/29
f 50/138/30 7/141/30 51/139/30
f 7/141/30 50/138/30 5/140/30
f 4/140/31 50/139/31 48/138/31
f 50/139/31 4/140/31 5/141/31
f 8/140/32 48/139/32 49/138/32
f 48/139/32 8/140/32 4/141/32

