# Created by Kenney (www.kenney.nl)

mtllib tree_pineTallC.mtl

g tree_pineTallC

v -0.008260068 0.849084 -0.222774
v 0.00439633 1.050053 -0.1359448
v -0.1951536 0.8568595 -0.1140345
v -0.1229114 1.038632 -0.06968885
v -0.008260068 0.820691 0.2091746
v -0.1951536 0.842663 0.1019397
v 0.006822117 1.07215 0.1305347
v -0.1142254 1.051451 0.07312158
v 0.2401921 0.628531 0.138675
v 0.2401921 0.628531 -0.138675
v 0 0.628531 0.27735
v 0.024505 0.628531 0.024505
v -0.024505 0.628531 0.024505
v -0.2401921 0.628531 0.138675
v -0.024505 0.628531 -0.024505
v 0.024505 0.628531 -0.024505
v 0 0.628531 -0.27735
v -0.2401921 0.628531 -0.138675
v -0.1295608 1.037453 -0.07336038
v 0.0145428 1.049586 -0.1580915
v -0.0923362 1.333317 -0.05343237
v -0.01344694 1.330723 -0.1011377
v -0.1295608 1.051106 0.09371758
v -0.09396117 1.328063 0.03945367
v 0.0145428 1.076891 0.1760645
v -0.01067886 1.31929 0.09357255
v 0.1786334 0.827112 -0.1155391
v 0.1161236 1.071167 -0.05837855
v 0.1786334 0.8129155 0.1004351
v 0.1116485 1.080735 0.06595594
v -0.1444059 0.8507918 -0.0833728
v 0 0.8449332 -0.1696611
v 0.1586464 1.075371 -0.0757446
v 0.07440672 1.322222 -0.0571091
v 0.1586464 1.089024 0.09133337
v 0.07940999 1.31599 0.04493392
v 0.1598523 0.8149505 0.09229072
v 0 0.8218746 0.1811358
v -0.1490457 0.8400257 0.08605158
v 0.1545272 0.8273064 -0.08921635
v 0.0945252 1.321475 -0.06779402
v 0.0945252 1.314567 0.05181985
v -0.009013723 1.318117 0.111938
v -0.1125526 1.328574 0.05244227
v -0.009013723 1.331932 -0.1272897
v -0.1125526 1.335482 -0.06717157
v 0.009013729 1.670499 0.007675856
v 0.046371 0 0.046371
v -0.046371 0 0.046371
v -0.046371 0 -0.046371
v 0.046371 0 -0.046371

vn -0.4539443 0.377335 -0.8071883
vn -0.4501655 0.2910094 0.8441946
vn 0 -1 0
vn -0.5106876 0.1215807 -0.8511266
vn -0.5135159 0.2280811 0.8272125
vn 0.4997834 0.3168151 -0.8061295
vn 0.4963835 0.2318518 0.8365692
vn -0.4591741 0.395774 -0.7953126
vn 0.4539922 0.220108 -0.8633907
vn 0.4579714 0.3287351 0.8259512
vn -0.931022 0.3641771 0.02393833
vn -0.9920399 0.1255057 -0.01025588
vn 0.1306711 -0.9881322 0.0807459
vn -0.07942502 -0.9946943 -0.06538349
vn 0.9695024 0.2445541 0.01607504
vn 0.9454625 0.3246486 -0.02652882
vn 0.4591739 0.395774 0.7953126
vn 0.4591741 0.3957739 -0.7953126
vn -0.9183478 0.3957741 0
vn -0.06754807 -0.9960564 -0.05752183
vn 0.918348 0.3957741 0
vn -0.459174 0.3957741 0.7953126
vn -0.4614484 0.3496102 -0.815376
vn 0.4980289 0.2980977 -0.8143126
vn -0.4582804 0.2736493 0.845633
vn 0.4951808 0.2231028 0.8396553
vn -0.9412345 0.3371918 0.01947216
vn 0.9718593 0.2351704 0.01358119
vn 0 0.03476803 0.9993954
vn -0.9993954 0.03476803 0
vn 0.9993954 0.03476803 0
vn 0 0.03476803 -0.9993954

vt -4.015736 28.01261
vt -2.774383 36.55638
vt 4.496163 28.34317
vt 2.872919 36.07084
vt 3.587967 28.75309
vt -4.891129 29.65726
vt 2.655126 39.10089
vt -2.613575 38.2491
vt 9.456384 5.459646
vt 9.456384 -5.459646
vt 0 10.91929
vt 0.9647636 0.9647636
vt -0.9647636 0.9647636
vt -9.456384 5.459646
vt -0.9647636 -0.9647636
vt 0.9647636 -0.9647636
vt 0 -10.91929
vt -9.456384 -5.459646
vt 2.887897 39.92142
vt -3.693269 40.40265
vt 2.034881 51.65668
vt -1.594693 51.55376
vt -2.387693 38.9628
vt -2.323679 50.16182
vt 4.142328 40.00545
vt 1.585786 49.80707
vt -3.580385 28.48716
vt -2.674547 38.61744
vt 4.897871 29.39918
vt 2.673089 37.74108
vt 4.030492 29.51197
vt -4.482008 29.82667
vt 2.455178 40.35141
vt -2.391467 40.00394
vt 5.459644 18.98222
vt -5.459647 18.98222
vt 3.282393 28.51066
vt -3.339786 28.2595
vt 2.389958 39.03765
vt -4.140375 40.07835
vt 2.32173 50.38431
vt -1.546389 50.04123
vt -2.860594 37.95683
vt -2.154122 48.06171
vt 3.718732 38.4626
vt 1.876343 47.92412
vt -4.68555 28.66296
vt -2.867129 36.34703
vt 3.814564 28.06283
vt 2.762261 36.88891
vt -2.835319 39.87775
vt -2.065944 51.61879
vt 3.742202 40.41955
vt 1.591453 51.41029
vt 5.8201 10.2046
vt 0.1016549 11.57945
vt 0.2243724 13.70391
vt -5.595729 10.59429
vt 4.358447 9.127048
vt -4.230642 9.379018
vt -5.820102 3.985356
vt -4.812932 4.073766
vt -0.2097273 0.7883181
vt 5.595726 3.595668
vt 4.644008 3.715608
vt -0.2243749 0.4860467
vt -7.981672 0.8247837
vt -1.194591 -3.829375
vt -1.416979 -4.608164
vt 6.564694 -1.632499
vt 5.505753 -1.17958
vt 6.34503 5.766831
vt 7.981676 6.776113
vt -6.578385 0.8992524
vt -6.564691 9.233397
vt -5.156971 7.644904
vt 1.079158 9.887009
vt 1.416983 12.20906
vt 4.664753 29.87347
vt -3.837003 29.29705
vt 2.373845 39.78281
vt -2.523462 40.17132
vt 2.805712 37.99014
vt -3.769573 38.55843
vt 2.165341 48.26524
vt -1.856045 48.00582
vt 5.459646 18.98222
vt -5.459645 18.98222
vt 3.633494 26.97412
vt -3.565666 27.27096
vt 5.459646 18.98222
vt 3.339786 28.2595
vt -3.512454 27.50383
vt -5.459645 18.98221
vt -3.282394 28.51065
vt 5.459646 18.98221
vt 3.387857 28.04911
vt -4.444865 3.517349
vt -0.6800939 1.083409
vt -0.859512 0.4520847
vt 3.585351 2.027281
vt 3.077361 2.548029
vt 4.44486 6.667741
vt 3.580983 6.441117
vt -3.611062 3.84896
vt -3.585354 8.157807
vt -2.688303 7.621036
vt 0.8595083 9.733004
vt 0.7553028 8.772544
vt 5.459645 18.98222
vt -5.459646 18.98222
vt 3.512455 27.50383
vt -3.633493 26.97412
vt 5.459646 18.98222
vt -5.459646 18.98222
vt 3.565666 27.27096
vt -3.387857 28.04911
vt 2.553941 47.69243
vt -2.159422 47.54326
vt -0.160001 61.77047
vt 2.917441 48.83494
vt -1.782195 48.40363
vt -0.4604125 62.79922
vt 1.787796 48.80698
vt -2.91214 49.23503
vt 0.455988 63.23085
vt 2.169178 49.6363
vt -2.544366 49.77967
vt 0.1521616 64.0117
vt -2.735637 48.02344
vt 0.3094744 62.03358
vt 1.972562 47.73457
vt -0.2972109 63.83872
vt 2.720796 49.70111
vt -1.987952 49.42131
vt 1.82563 -0.06347356
vt -1.82563 -0.06347356
vt 0.9647636 24.69681
vt -0.9647636 24.69681
vt 1.82563 1.82563
vt 1.82563 -1.82563
vt -1.82563 1.82563
vt -1.82563 -1.82563

usemtl leafsDark

f 3/3/1 2/2/1 1/1/1
f 2/2/1 3/3/1 4/4/1
f 7/7/2 6/6/2 5/5/2
f 6/6/2 7/7/2 8/8/2
f 11/11/3 10/10/3 9/9/3
f 10/10/3 11/11/3 12/12/3
f 12/12/3 11/11/3 13/13/3
f 13/13/3 11/11/3 14/14/3
f 13/13/3 14/14/3 15/15/3
f 16/16/3 10/10/3 12/12/3
f 10/10/3 16/16/3 17/17/3
f 17/17/3 16/16/3 15/15/3
f 17/17/3 15/15/3 18/18/3
f 18/18/3 15/15/3 14/14/3
f 21/21/4 20/20/4 19/19/4
f 20/20/4 21/21/4 22/22/4
f 25/25/5 24/24/5 23/23/5
f 24/24/5 25/25/5 26/26/5
f 1/29/6 28/28/6 27/27/6
f 28/28/6 1/29/6 2/30/6
f 30/33/7 5/32/7 29/31/7
f 5/32/7 30/33/7 7/34/7
f 31/37/8 17/36/8 18/35/8
f 17/36/8 31/37/8 32/38/8
f 22/41/9 33/40/9 20/39/9
f 33/40/9 22/41/9 34/42/9
f 35/45/10 26/44/10 25/43/10
f 26/44/10 35/45/10 36/46/10
f 6/49/11 4/48/11 3/47/11
f 4/48/11 6/49/11 8/50/11
f 23/53/12 21/52/12 19/51/12
f 21/52/12 23/53/12 24/54/12
f 35/57/13 30/56/13 33/55/13
f 30/56/13 35/57/13 25/58/13
f 33/55/13 30/56/13 28/59/13
f 30/56/13 25/58/13 7/60/13
f 7/60/13 25/58/13 23/61/13
f 7/60/13 23/61/13 8/62/13
f 8/62/13 23/61/13 4/63/13
f 28/59/13 20/64/13 33/55/13
f 20/64/13 28/59/13 2/65/13
f 20/64/13 2/65/13 19/66/13
f 19/66/13 2/65/13 4/63/13
f 19/66/13 4/63/13 23/61/13
f 29/69/14 37/68/14 27/67/14
f 37/68/14 29/69/14 5/70/14
f 37/68/14 5/70/14 38/71/14
f 38/71/14 5/70/14 39/72/14
f 39/72/14 5/70/14 6/73/14
f 40/74/14 27/67/14 37/68/14
f 27/67/14 40/74/14 1/75/14
f 1/75/14 40/74/14 32/76/14
f 1/75/14 32/76/14 31/77/14
f 1/75/14 31/77/14 3/78/14
f 3/78/14 31/77/14 39/72/14
f 3/78/14 39/72/14 6/73/14
f 28/81/15 29/80/15 27/79/15
f 29/80/15 28/81/15 30/82/15
f 34/85/16 35/84/16 33/83/16
f 35/84/16 34/85/16 36/86/16
f 37/89/17 11/88/17 9/87/17
f 11/88/17 37/89/17 38/90/17
f 32/92/18 10/88/18 17/91/18
f 10/88/18 32/92/18 40/93/18
f 14/96/19 31/95/19 18/94/19
f 31/95/19 14/96/19 39/97/19
f 42/100/20 36/99/20 41/98/20
f 36/99/20 42/100/20 43/101/20
f 36/99/20 43/101/20 26/102/20
f 26/102/20 43/101/20 44/103/20
f 26/102/20 44/103/20 24/104/20
f 34/105/20 41/98/20 36/99/20
f 41/98/20 34/105/20 45/106/20
f 45/106/20 34/105/20 22/107/20
f 45/106/20 22/107/20 46/108/20
f 46/108/20 24/104/20 44/103/20
f 46/108/20 22/107/20 21/109/20
f 46/108/20 21/109/20 24/104/20
f 40/112/21 9/111/21 10/110/21
f 9/111/21 40/112/21 37/113/21
f 38/116/22 14/115/22 11/114/22
f 14/115/22 38/116/22 39/117/22
f 47/120/23 45/119/23 46/118/23
f 47/123/24 41/122/24 45/121/24
f 47/126/25 44/125/25 43/124/25
f 47/129/26 43/128/26 42/127/26
f 44/132/27 47/131/27 46/130/27
f 42/135/28 41/134/28 47/133/28

usemtl woodBarkDark

f 12/138/29 49/137/29 48/136/29
f 49/137/29 12/138/29 13/139/29
f 49/136/30 15/139/30 50/137/30
f 15/139/30 49/136/30 13/138/30
f 49/142/3 51/141/3 48/140/3
f 51/141/3 49/142/3 50/143/3
f 16/138/31 48/137/31 51/136/31
f 48/137/31 16/138/31 12/139/31
f 15/138/32 51/137/32 50/136/32
f 51/137/32 15/138/32 16/139/32

