# Created by Kenney (www.kenney.nl)

mtllib tree_pineTallB_detailed.mtl

g tree_pineTallB_detailed

v 0.1121978 1.426443 0.1474386
v 0.1081464 1.426443 0.1228804
v -0.09969307 1.426443 0.1474386
v -0.1067375 1.426443 0.1228804
v -0.1312957 1.426443 0.115836
v -0.1067375 1.426443 -0.09200345
v 0.1081464 1.426443 -0.09200345
v 0.1352713 1.426443 -0.1165616
v 0.1677045 1.426443 -0.08412835
v 0.1677045 1.426443 0.115836
v -0.09433715 1.426443 -0.1165616
v -0.1312957 1.426443 -0.0887259
v -0.1764686 1.209063 0.168927
v -0.2070935 1.209063 0.1383021
v 0.1791794 1.033531 -0.167384
v 0.1791794 1.033531 0.1638553
v 0.1256369 1.209063 -0.109494
v 0.1256369 1.209063 0.140371
v 0.1491212 1.033531 0.1939135
v 0.1485269 1.033531 -0.1980365
v 0.024505 1.033531 0.024505
v -0.1335767 1.033531 0.1939135
v -0.024505 1.033531 0.024505
v -0.024505 1.033531 -0.02450501
v 0.024505 1.033531 -0.02450501
v -0.1505301 1.033531 -0.1980365
v -0.1777706 1.033531 0.1497197
v -0.1777706 1.033531 -0.1597324
v -0.1644831 1.209063 -0.13805
v 0.1352713 1.209063 -0.13805
v -0.2070935 1.209063 -0.1034483
v -0.1242281 1.209063 -0.109494
v -0.1242281 1.209063 0.140371
v 0.1541929 1.209063 -0.1034483
v 0.1541929 1.209063 0.1500054
v 0.1352713 1.209063 0.168927
v -0.05609317 1.934606 0.01555803
v 0.0695565 0 0.0695565
v 0.0695565 0 -0.0695565
v -0.0695565 0 0.0695565
v -0.0695565 0 -0.0695565
v -0.03741013 0.4825688 -0.02272105
v -0.046371 0.1 -0.046371
v -0.046371 0.1 0.046371
v -0.03741013 0.4825688 0.01727895
v -0.03647347 0.5225579 0.01727895
v -0.02953161 0.8189284 0.02207175
v -0.02859495 0.8589174 0.02207175
v -0.02859495 0.8589174 -0.01792825
v -0.03647347 0.5225579 -0.02272105
v -0.02953161 0.8189284 -0.01792825
v 0.02662217 0.9431419 -0.01910886
v 0.02662217 0.9431419 0.02089114
v 0.02755883 0.9031529 0.02089114
v 0.02755883 0.9031529 -0.01910886
v 0.046371 0.1 -0.046371
v 0.046371 0.1 0.046371
v -0.02025325 0.658498 -0.03328936
v -0.02025325 0.6984871 -0.0323527
v 0.01974675 0.6984871 -0.0323527
v 0.01974675 0.658498 -0.03328936
v 0.01784288 0.5946178 0.03478562
v 0.01784288 0.6346068 0.03384896
v -0.02215712 0.6346068 0.03384896
v -0.02215712 0.5946178 0.03478562
v -0.1064543 0.524197 -0.01272105
v -0.1059859 0.5441915 -0.01272105
v -0.1064543 0.524197 0.007278945
v -0.1059859 0.5441915 0.007278945
v 0.007842878 0.636246 0.1038298
v -0.01215712 0.636246 0.1038298
v 0.007842878 0.6562405 0.1033614
v -0.01215712 0.6562405 0.1033614
v 0.009746753 0.7001262 -0.1023335
v -0.01025325 0.7001262 -0.1023335
v -0.01025325 0.7201208 -0.1018652
v 0.009746753 0.7201208 -0.1018652
v -0.09857576 0.8605565 -0.007928246
v -0.09810743 0.8805511 -0.007928246
v -0.09857576 0.8605565 0.01207175
v -0.09810743 0.8805511 0.01207175
v 0.09613465 0.9647756 -0.009108861
v 0.09613465 0.9647756 0.01089114
v 0.09660298 0.9447811 0.01089114
v 0.09660298 0.9447811 -0.009108861

vn 0 -1 0
vn -0.6617339 0.3524438 0.6617339
vn 0.9564921 0.2917583 0
vn 0.6753426 0.2963529 0.6753426
vn 0.6450937 0.4095224 -0.6450934
vn 0 0.2072277 -0.9782928
vn -0.9079164 0.4191513 0
vn -0.9564921 0.2917583 0
vn 0 0.2917583 0.9564921
vn 0.9782928 0.2072276 0
vn -0.7528389 0.3828702 -0.5353913
vn 0 0.2072277 0.9782928
vn -0.5982906 0.3149987 -0.736766
vn 0.6878899 0.2315488 0.6878899
vn 0 0.4503701 -0.8928421
vn -0.6854508 0.2455891 0.6854511
vn 0.8584617 0.2065601 -0.4694426
vn 0.6447955 0.4104604 -0.6447954
vn 0.9151784 0.4030489 0
vn 0.4610547 0.3628508 0.8097949
vn 0 0.2512021 0.9679346
vn -0.6869247 0.2372108 0.6869247
vn -0.9892264 0.1463944 0
vn 0 0.2516286 -0.9678238
vn -0.5832438 0.2452327 -0.774395
vn -0.9997258 0.02341647 0
vn 0.9997258 0.02341647 0
vn -0.9741589 0.2258636 0
vn 0.9741589 0.2258636 0
vn 0 0.2258636 -0.9741589
vn 0 0.02341646 -0.9997258
vn 0 0.02341647 0.9997258
vn 0 0.2258636 0.9741589
vn -0.5163341 -0.8563873 0
vn 0.2971613 0.9548272 0
vn -0.1413826 0.00331159 -0.9899495
vn -0.1413826 0.00331159 0.9899495
vn 0 -0.8563873 0.5163341
vn 0 0.9548272 -0.2971613
vn -0.9899495 0.003311589 0.1413826
vn 0.9899495 0.003311589 0.1413826
vn 0 -0.8563873 -0.5163341
vn 0 0.9548272 0.2971613
vn 0.9899495 0.003311588 -0.1413826
vn -0.9899495 0.003311588 -0.1413826
vn -0.2971613 0.9548272 0
vn 0.1413826 0.003311589 0.9899495
vn 0.1413826 0.003311589 -0.9899495
vn 0.5163341 -0.8563873 0

vt 4.417237 5.804669
vt 4.257731 4.837813
vt -3.924924 5.804669
vt -4.202265 4.837813
vt -5.169121 4.560472
vt -4.202265 -3.622183
vt 4.257731 -3.622183
vt 5.325641 -4.58904
vt 6.60254 -3.31214
vt 6.60254 4.560472
vt -3.714061 -4.58904
vt -5.169121 -3.493146
vt -0.2099495 41.15761
vt -1.915072 41.15761
vt 0.4494003 50.30266
vt 6.58992 36.8617
vt -6.450996 36.8617
vt 4.310787 44.08677
vt -5.526417 44.08677
vt 0.4266061 36.03225
vt -1.246966 36.03225
vt -0.4101798 43.26801
vt 1.378292 33.17063
vt -0.3283701 33.17063
vt -0.4493992 40.74568
vt 7.054308 6.450996
vt 7.054308 -6.58992
vt 5.870914 7.63439
vt 5.847516 -7.796713
vt 0.9647638 0.9647638
vt -5.258926 7.63439
vt -0.9647637 0.9647638
vt -0.9647637 -0.9647642
vt 0.9647638 -0.9647642
vt -5.926381 -7.796713
vt -6.998842 5.894475
vt -6.998842 -6.288675
vt 6.475715 45.44134
vt -5.325641 45.44134
vt 4.202265 54.18948
vt -4.257731 54.18948
vt -4.072768 39.80019
vt -3.622183 49.22643
vt 5.444965 39.80019
vt 4.837813 49.22643
vt -6.288675 36.87788
vt -4.310787 44.10295
vt 5.894475 36.87788
vt 5.526417 44.10295
vt 5.870914 36.69246
vt -5.258926 36.69246
vt 4.946335 43.91752
vt -4.890869 43.91752
vt 4.072768 45.30964
vt -5.905723 45.30964
vt 3.622183 54.05777
vt -4.837813 54.05777
vt -1.068671 34.01054
vt -2.91917 34.01054
vt -0.6784997 41.49127
vt 5.325641 45.18943
vt -6.947583 45.18943
vt 4.257731 53.93756
vt -4.202265 53.93756
vt 3.761875 42.56275
vt 1.600849 42.56275
vt 0.9787962 51.58004
vt -0.4101794 53.14372
vt 0.1165772 44.3464
vt -0.9369367 44.3464
vt 5.926381 32.81851
vt -5.847516 32.81851
vt 4.890869 40.55865
vt -4.946335 40.55865
vt 1.679704 37.20499
vt -0.7809073 37.20499
vt 0.4493985 44.33405
vt 6.070588 5.905723
vt 6.070588 -4.072768
vt 5.325641 6.650669
vt 5.325641 -5.435039
vt 4.946335 5.526417
vt -6.947583 6.650669
vt -4.890869 5.526417
vt -4.890869 -4.310787
vt -6.475715 -5.435039
vt -8.153287 -4.072768
vt -8.153287 5.444965
vt 4.946335 -4.310787
vt 2.213426 45.07053
vt 0.6607731 45.07053
vt 1.135227 53.81741
vt -0.520855 48.33269
vt -2.326664 48.33269
vt 1.128452 70.27251
vt -0.6125208 70.5952
vt 3.31214 48.7345
vt -4.560472 48.7345
vt 3.481339 49.70837
vt 0.9666674 49.70837
vt -2.2222 71.17803
vt 4.417237 52.90025
vt -3.924924 52.90025
vt -2.208393 73.56946
vt 1.32918 52.92429
vt -0.4303795 52.92429
vt -1.128452 73.51853
vt -3.493146 54.79738
vt 0.6125208 75.02171
vt 4.560472 54.79738
vt 3.714061 53.19744
vt -5.325641 53.19744
vt 2.208393 73.86901
vt 2.027497 52.99739
vt 0.2059089 52.99739
vt 2.132536 73.634
vt 2.738445 2.738445
vt 2.738445 -2.738445
vt -2.738445 2.738445
vt -2.738445 -2.738445
vt -0.9647642 40.65645
vt -0.8945297 18.95907
vt -1.82563 3.893178
vt 1.82563 3.893178
vt 0.6802734 18.95907
vt 0.6802734 20.53388
vt 0.8689667 32.20521
vt 0.8689667 33.78001
vt 0.9647638 40.65645
vt -0.7058365 33.78001
vt -0.8945297 20.53388
vt -0.7058365 32.20521
vt 0.9647642 40.65645
vt 0.7523174 37.09685
vt -0.9647638 40.65645
vt -0.8224857 37.09685
vt -0.8224857 35.52205
vt 0.7523174 35.52205
vt -2.738445 -0.6185151
vt -1.82563 3.422928
vt 2.738445 -0.6185151
vt 1.82563 3.422928
vt 0.7973719 25.88732
vt 0.9647637 40.65645
vt 0.7973719 27.46213
vt -0.7774312 27.46213
vt -0.7774312 25.88732
vt 0.7024755 23.37166
vt 0.7024755 24.94646
vt -0.8723277 24.94646
vt -0.8723277 23.37166
vt -0.9647637 40.65645
vt -0.5008289 20.53388
vt -0.5008289 21.32128
vt 0.2865726 20.53388
vt 0.2865726 21.32128
vt 0.6802734 11.07104
vt -0.8945297 11.07104
vt 0.2865726 14.24515
vt -0.5008289 14.24515
vt 0.8945297 7.484639
vt -0.6802734 7.484639
vt 0.5008289 10.35082
vt -0.2865726 10.35082
vt 1.331573 18.99505
vt 1.295067 20.56943
vt 4.078204 20.63396
vt 4.059951 21.42115
vt -1.361866 18.99575
vt -4.108497 20.63466
vt -1.32536 20.57013
vt -4.090244 21.42185
vt 0.3087747 24.94646
vt -0.4786269 24.94646
vt 0.3087747 25.73387
vt -0.4786269 25.73387
vt 0.7024755 13.26029
vt -0.8723277 13.26029
vt 0.3087747 16.43441
vt -0.4786269 16.43441
vt -0.7024755 8.69687
vt -0.3087747 11.56306
vt 0.8723277 8.69687
vt 0.4786269 11.56306
vt 1.195917 24.9809
vt 3.960801 25.83262
vt 1.232423 23.40652
vt 3.979054 25.04543
vt -1.219931 24.98146
vt -1.256437 23.40708
vt -3.984815 25.83318
vt -4.003068 25.04599
vt -0.7774312 14.50841
vt -0.3837304 17.68253
vt 0.7973719 14.50841
vt 0.4036711 17.68253
vt 0.4036711 27.46213
vt -0.3837304 27.46213
vt 0.4036711 28.24953
vt -0.3837304 28.24953
vt 0.7774312 9.387976
vt -0.7973719 9.387976
vt 0.3837304 12.25416
vt -0.4036711 12.25416
vt 3.934155 27.56073
vt 1.187524 25.92182
vt 3.915902 28.34792
vt 1.151018 27.4962
vt -3.931336 27.56067
vt -3.913083 28.34785
vt -1.184705 25.92175
vt -1.148199 27.49613
vt -0.3121357 33.78001
vt -0.3121357 34.56741
vt 0.4752659 33.78001
vt 0.4752659 34.56741
vt 0.7058365 11.12363
vt -0.8689667 11.12363
vt 0.3121357 13.98982
vt -0.4752659 13.98982
vt 0.8689667 17.64296
vt -0.7058365 17.64296
vt 0.4752659 20.81708
vt -0.3121357 20.81708
vt -1.028125 32.23771
vt -3.774756 33.87662
vt -0.9916195 33.81209
vt -3.756503 34.66381
vt 1.051189 32.23824
vt 1.014683 33.81262
vt 3.79782 33.87716
vt 3.779567 34.66434
vt -0.3586166 14.90102
vt 0.428785 14.90102
vt -0.7523174 12.03484
vt 0.8224857 12.03484
vt 0.9578088 35.5538
vt 0.9213029 37.12818
vt 3.70444 37.19271
vt 3.686187 37.9799
vt -0.9677294 35.55403
vt -3.71436 37.19294
vt -0.9312235 37.12841
vt -3.696107 37.98014
vt 0.3586166 37.88425
vt 0.3586166 37.09685
vt -0.428785 37.88425
vt -0.428785 37.09685
vt -0.428785 22.46269
vt 0.3586166 22.46269
vt -0.8224857 19.28857
vt 0.7523174 19.28857

usemtl leafsDark

f 3/3/1 2/2/1 1/1/1
f 2/2/1 3/3/1 4/4/1
f 4/4/1 3/3/1 5/5/1
f 4/4/1 5/5/1 6/6/1
f 7/7/1 1/1/1 2/2/1
f 8/8/1 1/1/1 7/7/1
f 9/9/1 1/1/1 8/8/1
f 1/1/1 9/9/1 10/10/1
f 8/8/1 7/7/1 11/11/1
f 11/11/1 7/7/1 6/6/1
f 11/11/1 6/6/1 12/12/1
f 12/12/1 6/6/1 5/5/1
f 4/15/2 14/14/2 13/13/2
f 17/18/3 16/17/3 15/16/3
f 16/17/3 17/18/3 18/19/3
f 18/22/4 19/21/4 16/20/4
f 17/25/5 15/24/5 20/23/5
f 19/28/1 15/27/1 16/26/1
f 15/27/1 19/28/1 20/29/1
f 20/29/1 19/28/1 21/30/1
f 21/30/1 19/28/1 22/31/1
f 21/30/1 22/31/1 23/32/1
f 23/32/1 22/31/1 24/33/1
f 25/34/1 20/29/1 21/30/1
f 20/29/1 25/34/1 26/35/1
f 26/35/1 25/34/1 24/33/1
f 26/35/1 24/33/1 22/31/1
f 26/35/1 22/31/1 27/36/1
f 26/35/1 27/36/1 28/37/1
f 6/40/6 30/39/6 29/38/6
f 30/39/6 6/40/6 7/41/6
f 14/44/7 6/43/7 31/42/7
f 6/43/7 14/44/7 4/45/7
f 27/48/8 32/47/8 28/46/8
f 32/47/8 27/48/8 33/49/8
f 18/52/9 22/51/9 19/50/9
f 22/51/9 18/52/9 33/53/9
f 7/56/10 35/55/10 34/54/10
f 35/55/10 7/56/10 2/57/10
f 32/60/11 26/59/11 28/58/11
f 2/63/12 13/62/12 36/61/12
f 13/62/12 2/63/12 4/64/12
f 6/67/13 29/66/13 31/65/13
f 36/70/14 35/69/14 2/68/14
f 32/73/15 20/72/15 26/71/15
f 20/72/15 32/73/15 17/74/15
f 33/77/16 27/76/16 22/75/16
f 36/80/1 34/79/1 35/78/1
f 34/79/1 36/80/1 30/81/1
f 30/81/1 36/80/1 18/82/1
f 18/82/1 36/80/1 13/83/1
f 18/82/1 13/83/1 33/84/1
f 33/84/1 13/83/1 32/85/1
f 32/85/1 13/83/1 29/86/1
f 29/86/1 13/83/1 31/87/1
f 31/87/1 13/83/1 14/88/1
f 30/81/1 17/89/1 29/86/1
f 17/89/1 30/81/1 18/82/1
f 29/86/1 17/89/1 32/85/1
f 7/92/17 34/91/17 30/90/17
f 37/95/18 9/94/18 8/93/18
f 10/98/19 9/97/19 37/96/19
f 37/101/20 1/100/20 10/99/20
f 37/104/21 3/103/21 1/102/21
f 37/107/22 5/106/22 3/105/22
f 5/110/23 37/109/23 12/108/23
f 37/113/24 8/112/24 11/111/24
f 37/116/25 11/115/25 12/114/25

usemtl woodBarkDark

f 40/119/1 39/118/1 38/117/1
f 39/118/1 40/119/1 41/120/1
f 43/123/26 42/122/26 24/121/26
f 42/122/26 43/123/26 44/124/26
f 42/122/26 44/124/26 45/125/26
f 45/125/26 44/124/26 46/126/26
f 46/126/26 44/124/26 47/127/26
f 47/127/26 44/124/26 48/128/26
f 48/128/26 44/124/26 23/129/26
f 24/121/26 49/130/26 23/129/26
f 23/129/26 49/130/26 48/128/26
f 49/130/26 24/121/26 50/131/26
f 50/131/26 24/121/26 42/122/26
f 49/130/26 50/131/26 51/132/26
f 46/126/26 51/132/26 50/131/26
f 51/132/26 46/126/26 47/127/26
f 21/135/27 52/134/27 25/133/27
f 52/134/27 21/135/27 53/136/27
f 53/136/27 21/135/27 54/137/27
f 55/138/27 25/133/27 52/134/27
f 55/138/27 56/124/27 25/133/27
f 56/124/27 55/138/27 57/123/27
f 57/123/27 55/138/27 54/137/27
f 57/123/27 54/137/27 21/135/27
f 40/141/28 43/140/28 41/139/28
f 43/140/28 40/141/28 44/142/28
f 56/142/29 38/139/29 39/141/29
f 38/139/29 56/142/29 57/140/29
f 43/142/30 39/139/30 41/141/30
f 39/139/30 43/142/30 56/140/30
f 43/124/31 58/143/31 56/123/31
f 58/143/31 43/124/31 24/144/31
f 58/143/31 24/144/31 59/145/31
f 59/145/31 24/144/31 60/146/31
f 61/147/31 56/123/31 58/143/31
f 56/123/31 61/147/31 25/135/31
f 25/135/31 61/147/31 60/146/31
f 25/135/31 60/146/31 24/144/31
f 57/124/32 62/148/32 44/123/32
f 62/148/32 57/124/32 21/129/32
f 62/148/32 21/129/32 63/149/32
f 63/149/32 21/129/32 64/150/32
f 65/151/32 44/123/32 62/148/32
f 44/123/32 65/151/32 23/152/32
f 23/152/32 65/151/32 64/150/32
f 23/152/32 64/150/32 21/129/32
f 57/142/33 40/139/33 38/141/33
f 40/139/33 57/142/33 44/140/33
f 68/155/26 67/154/26 66/153/26
f 67/154/26 68/155/26 69/156/26
f 68/159/34 42/158/34 45/157/34
f 42/158/34 68/159/34 66/160/34
f 67/163/35 46/162/35 50/161/35
f 46/162/35 67/163/35 69/164/35
f 66/167/36 50/166/36 42/165/36
f 50/166/36 66/167/36 67/168/36
f 46/171/37 68/170/37 45/169/37
f 68/170/37 46/171/37 69/172/37
f 72/175/32 71/174/32 70/173/32
f 71/174/32 72/175/32 73/176/32
f 70/179/38 65/178/38 62/177/38
f 65/178/38 70/179/38 71/180/38
f 64/183/39 72/182/39 63/181/39
f 72/182/39 64/183/39 73/184/39
f 65/187/40 73/186/40 64/185/40
f 73/186/40 65/187/40 71/188/40
f 72/191/41 62/190/41 63/189/41
f 62/190/41 72/191/41 70/192/41
f 58/195/42 74/194/42 61/193/42
f 74/194/42 58/195/42 75/196/42
f 76/199/31 74/198/31 75/197/31
f 74/198/31 76/199/31 77/200/31
f 77/203/43 59/202/43 60/201/43
f 59/202/43 77/203/43 76/204/43
f 77/207/44 61/206/44 74/205/44
f 61/206/44 77/207/44 60/208/44
f 58/211/45 76/210/45 75/209/45
f 76/210/45 58/211/45 59/212/45
f 80/215/26 79/214/26 78/213/26
f 79/214/26 80/215/26 81/216/26
f 79/219/35 48/218/35 49/217/35
f 48/218/35 79/219/35 81/220/35
f 80/223/34 51/222/34 47/221/34
f 51/222/34 80/223/34 78/224/34
f 48/227/37 80/226/37 47/225/37
f 80/226/37 48/227/37 81/228/37
f 78/231/36 49/230/36 51/229/36
f 49/230/36 78/231/36 79/232/36
f 52/235/46 83/234/46 82/233/46
f 83/234/46 52/235/46 53/236/46
f 84/239/47 53/238/47 54/237/47
f 53/238/47 84/239/47 83/240/47
f 52/243/48 85/242/48 55/241/48
f 85/242/48 52/243/48 82/244/48
f 83/247/27 85/246/27 82/245/27
f 85/246/27 83/247/27 84/248/27
f 54/251/49 85/250/49 84/249/49
f 85/250/49 54/251/49 55/252/49

