# Created by Kenney (www.kenney.nl)

mtllib tree_palmTall.mtl

g tree_palmTall

v -0.5171648 1.161922 -0.04140862
v -0.5171648 1.186139 -0.04140862
v -0.5171648 1.161922 0.05584387
v -0.5171648 1.186139 0.05584387
v 0.08104349 1.277419 0.2705819
v 0.08104349 1.277419 0.1290045
v -0.081044 1.277419 0.2705819
v -0.081044 1.277419 0.1290045
v 0.08104349 1.277419 -0.1341385
v -0.081044 1.277419 -0.1341385
v 0.06078266 1.247613 -0.06334977
v -0.06078298 1.247613 -0.06334977
v -0.081044 1.230847 0.4140221
v -0.081044 1.281144 0.4140221
v -0.03884183 1.161922 0.5145977
v -0.03884183 1.186139 0.5145977
v -0.05841098 1.161922 -0.5197315
v 0.03884151 1.161922 -0.5197315
v -0.05841098 1.186139 -0.5197315
v 0.03884151 1.186139 -0.5197315
v -0.06078298 1.301636 -0.06334977
v -0.1315717 1.277419 -0.0836106
v -0.1315717 1.355659 -0.0836106
v 0.08104349 1.281144 -0.419156
v 0.08104349 1.230847 -0.419156
v 0.08104349 1.355659 -0.2757158
v 0.08104349 1.277419 -0.2757158
v 0.08104349 1.355659 -0.1341385
v -0.1315717 1.277419 0.07847688
v -0.273149 1.277419 0.07847688
v -0.273149 1.277419 -0.0836106
v 0.06078266 1.301636 0.05821586
v -0.06078298 1.301636 0.05821586
v 0.04254784 1.329579 0.03998105
v -0.04254816 1.329579 0.03998105
v 0.08104349 1.230847 0.4140221
v 0.05841066 1.161922 0.5145977
v -0.081044 1.281144 -0.419156
v 0.06078266 1.301636 -0.06334977
v 0.04254784 1.329579 -0.04511496
v -0.04254816 1.329579 -0.04511496
v -0.081044 1.277419 -0.2757158
v -0.081044 1.230847 -0.419156
v -0.4165893 1.281144 -0.0836106
v -0.4165893 1.281144 0.07847688
v -0.4165893 1.230847 0.07847688
v -0.4165893 1.230847 -0.0836106
v -0.081044 1.355659 -0.2757158
v -0.081044 1.355659 -0.1341385
v -0.1315717 1.355659 0.07847688
v -0.273149 1.355659 -0.0836106
v -0.273149 1.355659 0.07847688
v 0.5171644 1.186139 -0.06097777
v 0.5171644 1.161922 -0.06097777
v 0.5171644 1.186139 0.03627472
v 0.5171644 1.161922 0.03627472
v -0.06078298 1.247613 0.05821586
v 0.08104349 1.355659 0.1290045
v 0.08104349 1.355659 0.2705819
v 0.08104349 1.281144 0.4140221
v 0.05841066 1.186139 0.5145977
v 0.2731487 1.277419 0.07847688
v 0.2731487 1.277419 -0.0836106
v 0.1315713 1.277419 0.07847688
v 0.1315713 1.277419 -0.0836106
v 0.416589 1.230847 0.07847688
v 0.416589 1.230847 -0.0836106
v -0.081044 1.355659 0.2705819
v 0.2731487 1.355659 -0.0836106
v 0.2731487 1.355659 0.07847688
v 0.1315713 1.355659 -0.0836106
v 0.1315713 1.355659 0.07847688
v 0.416589 1.281144 -0.0836106
v 0.06078266 1.247613 0.05821586
v 0.416589 1.281144 0.07847688
v 0.03765083 1.247613 0.03508373
v -0.03765083 1.247613 0.03508373
v -0.03765083 1.247613 -0.04021794
v 0.03765083 1.247613 -0.04021794
v -0.081044 1.355659 0.1290045
v 0.0482703 0.8676815 0.02360864
v 0.0482703 0.8676815 0.1201493
v 0.08471444 0.06674473 0.08471446
v -0.08471446 0.06674473 0.08471446
v 0.06523015 0.3568276 0.06523015
v -0.06523015 0.3568276 0.06523015
v -0.04827031 0.8676815 0.02360864
v -0.07285444 0 -0.07285444
v 0.07285444 0 -0.07285444
v -0.08471446 0.06674473 -0.08471446
v 0.08471444 0.06674473 -0.08471446
v -0.04827031 0.8676815 0.1201493
v -0.06523015 0.3568276 -0.06523015
v 0.06523015 0.3568276 -0.06523015
v 0.07285444 0 0.07285444
v -0.07285444 0 0.07285444

vn -1 0 0
vn 0 -1 0
vn 0 -0.9216354 -0.3880571
vn -0.9221115 0 0.3869242
vn 0 0 -1
vn 0.2751669 0 -0.9613966
vn 1 0 0
vn 0.922112 0 -0.3869231
vn 0 0.5465028 0.8374573
vn 0 -0.8248827 -0.5653039
vn 0 0.7269483 -0.6866922
vn 0.8374573 0.5465028 0
vn -0.8374573 0.5465028 0
vn 0 -0.9511248 0.3088067
vn -0.6866919 0.7269485 0
vn 0.3088068 -0.9511247 0
vn 0 1 0
vn -0.3869229 0 -0.9221121
vn -0.3880571 -0.9216354 0
vn 0 0.8874055 -0.4609897
vn 0.9756027 0 0.2195431
vn -0.2195447 0 0.9756025
vn -0.3088067 -0.9511248 0
vn 0 0.8874055 0.4609899
vn 0 0 1
vn 0.2195432 0 -0.9756027
vn -0.2751691 0 0.9613959
vn 0.3880571 -0.9216354 0
vn 0.4609897 0.8874055 0
vn 0.3869244 0 0.9221114
vn -0.2751669 0 -0.9613966
vn -0.5653042 -0.8248825 0
vn -0.6066734 0.7949512 0
vn 0 -0.9511247 -0.3088068
vn 0.6866922 0.7269483 0
vn -0.9613959 0 -0.2751691
vn 0 0.7949512 -0.6066734
vn 0.2751691 0 0.9613959
vn 0.5653039 -0.8248827 0
vn 0 -0.8248825 0.5653042
vn 0 -0.9216354 0.3880571
vn 0 0.7269485 0.6866919
vn 0.9613966 0 -0.2751669
vn 0 0.7949512 0.6066734
vn -0.9613959 0 0.2751691
vn -0.4609899 0.8874055 0
vn 0.9613966 0 0.2751669
vn -0.9756024 0 -0.2195448
vn 0.6066734 0.7949512 0
vn 0 0.5465028 -0.8374573
vn 0.9996096 0.02794009 0
vn 0 0.06701713 0.9977518
vn 0 -0.1656734 -0.9861807
vn 0 -0.1749517 -0.984577
vn 0 0.2184876 0.9758397
vn -0.9977518 0.06701713 0
vn 0.9977518 0.06701704 0
vn 0 -0.1749518 0.984577
vn 0.9994493 0.03318072 0
vn -0.984577 -0.1749518 0
vn 0 0.1713311 -0.9852135
vn 0.9845771 -0.1749514 0
vn -0.9994493 0.03318072 0
vn 0 0.06701712 -0.9977518
vn -0.9996096 0.02794011 0
vn 0 -0.1068886 0.994271

vt -1.630261 45.74494
vt -1.630261 46.69838
vt 2.198578 45.74494
vt 2.198578 46.69838
vt 3.190689 10.65283
vt 3.190689 5.078919
vt -3.190708 10.65283
vt -3.190708 5.078919
vt -3.190689 24.38339
vt 3.190708 24.38339
vt -2.393018 21.35947
vt 2.393031 21.35947
vt 13.79593 48.45856
vt 13.79593 50.43876
vt 18.09006 45.74494
vt 18.09006 46.69838
vt 2.299645 45.74494
vt -1.529193 45.74494
vt 2.299645 46.69838
vt -1.529193 46.69838
vt 2.986941 49.11863
vt 2.986941 51.24551
vt 5.885803 50.29208
vt 5.885803 53.3724
vt 16.50221 50.43876
vt 16.50221 48.45856
vt 10.85495 53.3724
vt 10.85495 50.29208
vt 5.281041 53.3724
vt 5.281041 50.29208
vt 18.27646 46.69838
vt 18.27646 45.74494
vt 13.98233 50.43876
vt 13.98233 48.45856
vt -5.179986 3.089641
vt -5.179986 -3.291756
vt -10.7539 3.089641
vt -10.7539 -3.291756
vt 2.393018 41.66336
vt -2.393031 41.66336
vt 1.675112 42.977
vt -1.675125 42.977
vt -3.190689 13.94816
vt 3.190708 13.94816
vt -2.299632 9.147881
vt 1.529206 9.147881
vt -3.190689 22.63965
vt 3.190708 22.63965
vt -1.529193 17.19268
vt 2.299645 17.19268
vt 2.494085 41.60814
vt -2.291963 41.60814
vt 1.776179 42.92178
vt -1.574057 42.92178
vt -2.494085 41.60813
vt -1.776179 42.92177
vt 2.291963 41.60813
vt 1.574057 42.92177
vt 3.190689 5.206116
vt 3.190689 -0.7313319
vt -3.190708 5.206116
vt -3.190708 -0.7313319
vt 3.190689 -5.281041
vt 3.190689 -10.85495
vt -3.190708 -5.281041
vt -3.190708 -10.85495
vt -3.291756 22.7131
vt 3.089641 22.7131
vt -1.630261 17.26613
vt 2.198578 17.26613
vt -3.089641 5.302236
vt 3.291756 5.302236
vt -3.089641 -0.63521
vt 3.291756 -0.63521
vt -16.50221 48.45856
vt -16.50221 50.43876
vt -10.85495 50.29208
vt -10.85495 53.3724
vt -5.281041 50.29208
vt -5.281041 53.3724
vt 5.179986 -3.291756
vt 5.179986 3.089641
vt 10.7539 -3.291756
vt 10.7539 3.089641
vt 2.4007 46.69838
vt 2.4007 45.74494
vt -1.428138 46.69838
vt -1.428138 45.74494
vt 18.14417 45.74494
vt 13.85004 48.45856
vt 18.14417 46.69838
vt 13.85004 50.43876
vt 2.291963 21.26633
vt -2.494085 21.26633
vt 3.089641 24.29025
vt -3.291756 24.29025
vt -5.078919 53.3724
vt -5.078919 50.29208
vt -10.65283 53.3724
vt -10.65283 50.29208
vt -16.30009 50.43876
vt -16.30009 48.45856
vt -3.190689 8.607604
vt -3.190689 14.97139
vt 3.190708 8.607604
vt 3.190708 14.97139
vt -15.20191 50.43876
vt -15.20191 48.45856
vt -19.2606 46.69838
vt -19.2606 45.74494
vt 10.75389 3.089641
vt 10.75389 -3.291756
vt 5.179974 3.089641
vt 5.179974 -3.291756
vt -19.38138 45.74494
vt -19.38138 46.69838
vt -15.32269 48.45856
vt -15.32269 50.43876
vt 3.089641 -0.6352042
vt -3.291756 -0.6352042
vt 3.089641 5.302244
vt -3.291756 5.302244
vt 3.190689 15.15076
vt 3.190689 8.786977
vt -3.190708 15.15076
vt -3.190708 8.786977
vt -10.75389 -3.291756
vt -10.75389 3.089641
vt -5.179974 -3.291756
vt -5.179974 3.089641
vt 2.299632 45.74494
vt -1.529206 45.74494
vt 2.299632 46.69838
vt -1.529206 46.69838
vt -19.337 45.74494
vt -19.337 46.69838
vt -15.27832 48.45856
vt -15.27832 50.43876
vt 2.931315 49.11863
vt 2.931315 51.24551
vt 5.830179 50.29208
vt 5.830179 53.3724
vt -3.089641 24.29024
vt 3.291756 24.29024
vt -2.291963 21.26632
vt 2.494085 21.26632
vt 3.291756 8.697291
vt -3.089641 8.697291
vt 3.291756 15.06107
vt -3.089641 15.06107
vt 18.22235 45.74494
vt 13.92822 48.45856
vt 18.22235 46.69838
vt 13.92822 50.43876
vt -2.986929 49.11863
vt -5.885791 50.29208
vt -2.986929 51.24551
vt -5.885791 53.3724
vt 1.428138 9.064535
vt -2.4007 9.064535
vt 3.089641 13.86481
vt -3.291756 13.86481
vt -5.179974 50.29208
vt -10.75389 50.29208
vt -5.179974 53.3724
vt -16.40114 50.43876
vt -10.75389 53.3724
vt -16.40114 48.45856
vt -3.291756 36.49744
vt 3.089641 36.49744
vt -2.494085 32.99162
vt 2.291963 32.99162
vt 16.40114 48.45856
vt 10.75389 50.29208
vt 16.40114 50.43876
vt 5.179974 50.29208
vt 5.179974 53.3724
vt 10.75389 53.3724
vt -3.190689 -0.5390823
vt -3.190689 5.398364
vt 3.190708 -0.5390823
vt 3.190708 5.398364
vt 2.4007 17.26616
vt -1.428138 17.26616
vt 3.291756 22.71312
vt -3.089641 22.71312
vt 2.393018 -2.494082
vt 1.482317 1.381252
vt 2.393018 2.291966
vt -2.39303 2.291966
vt -1.482316 1.381252
vt -1.482316 -1.58338
vt 1.482317 -1.58338
vt -2.39303 -2.494082
vt 2.861972 49.11863
vt 2.861972 51.24551
vt 5.760836 50.29208
vt 5.760836 53.3724
vt -3.190689 36.41711
vt 3.190708 36.41711
vt -2.393018 32.91129
vt 2.393031 32.91129
vt -1.675112 -1.776179
vt -1.675112 1.574057
vt 1.675125 -1.776179
vt 1.675125 1.574057
vt -2.931327 49.11863
vt -5.830191 50.29208
vt -2.931327 51.24551
vt -5.830191 53.3724
vt 5.078919 50.29208
vt 5.078919 53.3724
vt 10.65283 50.29208
vt 10.65283 53.3724
vt 16.30009 48.45856
vt 16.30009 50.43876
vt -3.190689 5.078919
vt -3.190689 10.65283
vt 3.190708 5.078919
vt 3.190708 10.65283
vt -3.089641 13.86479
vt 3.291756 13.86479
vt -2.198578 9.064511
vt 1.630261 9.064511
vt 3.190689 13.78144
vt 1.529193 8.981167
vt -3.190708 13.78144
vt -2.299645 8.981167
vt 3.190689 24.19711
vt 2.393018 21.17318
vt -3.190708 24.19711
vt -2.393031 21.17318
vt 3.190689 22.78657
vt 2.299632 17.3396
vt -3.190708 22.78657
vt -1.529206 17.3396
vt -2.861964 51.24551
vt -2.861964 49.11863
vt -5.760827 53.3724
vt -5.760827 50.29208
vt 3.190689 36.57778
vt 2.393018 33.07196
vt -3.190708 36.57778
vt -2.393031 33.07196
vt 16.40115 48.45856
vt 10.7539 50.29208
vt 16.40115 50.43876
vt 5.179986 50.29208
vt 5.179986 53.3724
vt 10.7539 53.3724
vt -3.190689 -10.85495
vt -3.190689 -5.281041
vt 3.190708 -10.85495
vt 3.190708 -5.281041
vt -5.179986 50.29208
vt -10.7539 50.29208
vt -5.179986 53.3724
vt -16.40115 50.43876
vt -10.7539 53.3724
vt -16.40115 48.45856
vt -5.955155 50.29208
vt -5.955155 53.3724
vt -3.056291 49.11863
vt -3.056291 51.24551
vt -3.291756 15.06107
vt 3.089641 15.06107
vt -3.291756 8.697289
vt 3.089641 8.697289
vt 5.955146 53.3724
vt 5.955146 50.29208
vt 3.056284 51.24551
vt 3.056284 49.11863
vt -2.393018 -2.494085
vt -2.393018 2.291963
vt 2.393031 -2.494085
vt 2.393031 2.291963
vt -19.45778 45.74494
vt -19.45778 46.69838
vt -15.39909 48.45856
vt -15.39909 50.43876
vt 2.494085 32.99163
vt -2.291963 32.99163
vt 3.291756 36.49745
vt -3.089641 36.49745
vt 2.393031 41.55291
vt -2.393018 41.55291
vt 1.675125 42.86654
vt -1.675112 42.86654
vt 1.583383 49.05803
vt -0.9294741 34.09426
vt -1.381249 49.05803
vt -4.730286 34.09426
vt 3.335214 2.398321
vt -3.335215 2.398321
vt 2.568116 13.84464
vt -2.568116 13.84464
vt 1.900406 33.53462
vt -1.900406 33.53462
vt 1.482316 48.70216
vt -1.482316 48.70216
vt 2.868285 0.5018114
vt -2.868285 0.5018114
vt 3.335215 3.170719
vt -3.335214 3.170719
vt 1.900406 32.30185
vt -1.900406 32.30185
vt 1.482316 47.63012
vt -1.482316 47.63012
vt 3.335215 2.398321
vt 3.335215 2.398322
vt -3.335215 2.398322
vt 2.568116 13.84464
vt -2.568116 13.84464
vt 2.868285 0.5018116
vt -2.868285 0.5018116
vt 3.335214 3.170719
vt -3.335215 3.170719
vt 2.568116 13.95538
vt -2.568116 13.95538
vt -0.9294741 34.07882
vt -4.730286 34.07882
vt 2.568116 13.40061
vt -2.568116 13.40061
vt 1.900406 33.81482
vt -1.900406 33.81482
vt 3.335215 3.170718
vt 2.868285 0.5018104
vt -3.335215 3.170718
vt -2.868285 0.5018104
vt 0.9294741 34.07882
vt 4.730286 34.07882
vt -3.335214 2.398321
vt -1.583383 49.05803
vt 1.381249 49.05803
vt 0.9294741 34.09426
vt 4.730286 34.09426
vt 2.568116 14.24235
vt -2.568116 14.24235
vt 1.900406 34.4706
vt -1.900406 34.4706
vt 2.868285 2.868285
vt 2.868285 -2.868285
vt -2.868285 2.868285
vt -2.868285 -2.868285

usemtl leafsGreen

f 3/3/1 2/2/1 1/1/1
f 2/2/1 3/3/1 4/4/1
f 7/7/2 6/6/2 5/5/2
f 6/6/2 7/7/2 8/8/2
f 11/11/3 10/10/3 9/9/3
f 10/10/3 11/11/3 12/12/3
f 15/15/4 14/14/4 13/13/4
f 14/14/4 15/15/4 16/16/4
f 19/19/5 18/18/5 17/17/5
f 18/18/5 19/19/5 20/20/5
f 22/23/6 21/22/6 12/21/6
f 21/22/6 22/23/6 23/24/6
f 26/27/7 25/26/7 24/25/7
f 25/26/7 26/27/7 27/28/7
f 27/28/7 26/27/7 28/29/7
f 27/28/7 28/29/7 9/30/7
f 24/33/8 18/32/8 20/31/8
f 18/32/8 24/33/8 25/34/8
f 30/37/2 22/36/2 29/35/2
f 22/36/2 30/37/2 31/38/2
f 34/41/9 33/40/9 32/39/9
f 33/40/9 34/41/9 35/42/9
f 37/45/10 13/44/10 36/43/10
f 13/44/10 37/45/10 15/46/10
f 20/49/11 38/48/11 24/47/11
f 38/48/11 20/49/11 19/50/11
f 40/53/12 32/52/12 39/51/12
f 32/52/12 40/53/12 34/54/12
f 33/57/13 41/56/13 21/55/13
f 41/56/13 33/57/13 35/58/13
f 42/61/14 25/60/14 27/59/14
f 25/60/14 42/61/14 43/62/14
f 10/65/2 27/64/2 9/63/2
f 27/64/2 10/65/2 42/66/2
f 2/69/15 45/68/15 44/67/15
f 45/68/15 2/69/15 4/70/15
f 46/73/16 31/72/16 30/71/16
f 31/72/16 46/73/16 47/74/16
f 42/77/1 38/76/1 43/75/1
f 38/76/1 42/77/1 48/78/1
f 48/78/1 42/77/1 10/79/1
f 48/78/1 10/79/1 49/80/1
f 51/83/17 50/82/17 23/81/17
f 50/82/17 51/83/17 52/84/17
f 55/87/7 54/86/7 53/85/7
f 54/86/7 55/87/7 56/88/7
f 2/91/18 47/90/18 1/89/18
f 47/90/18 2/91/18 44/92/18
f 29/95/19 12/94/19 57/93/19
f 12/94/19 29/95/19 22/96/19
f 59/99/7 6/98/7 58/97/7
f 6/98/7 59/99/7 5/100/7
f 5/100/7 59/99/7 60/101/7
f 5/100/7 60/101/7 36/102/7
f 38/105/20 26/104/20 24/103/20
f 26/104/20 38/105/20 48/106/20
f 61/109/21 36/108/21 60/107/21
f 36/108/21 61/109/21 37/110/21
f 64/113/2 63/112/2 62/111/2
f 63/112/2 64/113/2 65/114/2
f 46/117/22 4/116/22 3/115/22
f 4/116/22 46/117/22 45/118/22
f 62/121/23 67/120/23 66/119/23
f 67/120/23 62/121/23 63/122/23
f 68/125/24 60/124/24 59/123/24
f 60/124/24 68/125/24 14/126/24
f 71/129/17 70/128/17 69/127/17
f 70/128/17 71/129/17 72/130/17
f 61/133/25 15/132/25 37/131/25
f 15/132/25 61/133/25 16/134/25
f 67/137/26 53/136/26 54/135/26
f 53/136/26 67/137/26 73/138/26
f 64/141/27 32/140/27 74/139/27
f 32/140/27 64/141/27 72/142/27
f 74/145/28 65/144/28 64/143/28
f 65/144/28 74/145/28 11/146/28
f 69/149/29 75/148/29 73/147/29
f 75/148/29 69/149/29 70/150/29
f 55/153/30 66/152/30 56/151/30
f 66/152/30 55/153/30 75/154/30
f 39/157/31 65/156/31 11/155/31
f 65/156/31 39/157/31 71/158/31
f 66/161/32 54/160/32 56/159/32
f 54/160/32 66/161/32 67/162/32
f 71/165/5 63/164/5 65/163/5
f 63/164/5 71/165/5 73/166/5
f 73/166/5 71/165/5 69/167/5
f 73/166/5 67/168/5 63/164/5
f 39/171/33 72/170/33 71/169/33
f 72/170/33 39/171/33 32/172/33
f 75/175/25 62/174/25 66/173/25
f 62/174/25 75/175/25 64/176/25
f 64/176/25 75/175/25 72/177/25
f 72/177/25 75/175/25 70/178/25
f 13/181/34 5/180/34 36/179/34
f 5/180/34 13/181/34 7/182/34
f 73/185/35 55/184/35 53/183/35
f 55/184/35 73/185/35 75/186/35
f 74/189/2 76/188/2 11/187/2
f 76/188/2 74/189/2 57/190/2
f 76/188/2 57/190/2 77/191/2
f 77/191/2 57/190/2 78/192/2
f 79/193/2 11/187/2 76/188/2
f 11/187/2 79/193/2 12/194/2
f 12/194/2 79/193/2 78/192/2
f 12/194/2 78/192/2 57/190/2
f 8/197/36 33/196/36 57/195/36
f 33/196/36 8/197/36 80/198/36
f 32/201/37 80/200/37 58/199/37
f 80/200/37 32/201/37 33/202/37
f 41/205/17 34/204/17 40/203/17
f 34/204/17 41/205/17 35/206/17
f 33/209/38 29/208/38 57/207/38
f 29/208/38 33/209/38 50/210/38
f 7/213/1 80/212/1 8/211/1
f 80/212/1 7/213/1 68/214/1
f 68/214/1 7/213/1 13/215/1
f 68/214/1 13/215/1 14/216/1
f 80/219/17 59/218/17 58/217/17
f 59/218/17 80/219/17 68/220/17
f 3/223/39 47/222/39 46/221/39
f 47/222/39 3/223/39 1/224/39
f 43/227/40 18/226/40 25/225/40
f 18/226/40 43/227/40 17/228/40
f 8/231/41 74/230/41 6/229/41
f 74/230/41 8/231/41 57/232/41
f 14/235/42 61/234/42 60/233/42
f 61/234/42 14/235/42 16/236/42
f 58/239/43 74/238/43 32/237/43
f 74/238/43 58/239/43 6/240/43
f 49/243/44 39/242/44 28/241/44
f 39/242/44 49/243/44 21/244/44
f 44/247/5 31/246/5 47/245/5
f 31/246/5 44/247/5 22/248/5
f 22/248/5 44/247/5 23/249/5
f 23/249/5 44/247/5 51/250/5
f 48/253/17 28/252/17 26/251/17
f 28/252/17 48/253/17 49/254/17
f 50/257/25 30/256/25 29/255/25
f 30/256/25 50/257/25 45/258/25
f 45/258/25 50/257/25 52/259/25
f 45/258/25 46/260/25 30/256/25
f 12/263/45 49/262/45 10/261/45
f 49/262/45 12/263/45 21/264/45
f 44/267/46 52/266/46 51/265/46
f 52/266/46 44/267/46 45/268/46
f 39/271/47 9/270/47 28/269/47
f 9/270/47 39/271/47 11/272/47
f 21/275/17 32/274/17 39/273/17
f 32/274/17 21/275/17 33/276/17
f 43/279/48 19/278/48 17/277/48
f 19/278/48 43/279/48 38/280/48
f 23/283/49 33/282/49 21/281/49
f 33/282/49 23/283/49 50/284/49
f 41/287/50 39/286/50 21/285/50
f 39/286/50 41/287/50 40/288/50

usemtl woodBark

f 76/291/51 81/290/51 79/289/51
f 81/290/51 76/291/51 82/292/51
f 85/295/52 84/294/52 83/293/52
f 84/294/52 85/295/52 86/296/52
f 78/299/53 81/298/53 87/297/53
f 81/298/53 78/299/53 79/300/53
f 90/303/54 89/302/54 88/301/54
f 89/302/54 90/303/54 91/304/54
f 76/307/55 92/306/55 82/305/55
f 92/306/55 76/307/55 77/308/55
f 84/309/56 93/296/56 90/294/56
f 93/296/56 84/309/56 86/295/56
f 94/312/57 83/311/57 91/310/57
f 83/311/57 94/312/57 85/313/57
f 83/316/58 96/315/58 95/314/58
f 96/315/58 83/316/58 84/317/58
f 81/320/59 85/319/59 94/318/59
f 85/319/59 81/320/59 82/321/59
f 88/315/60 84/303/60 90/317/60
f 84/303/60 88/315/60 96/314/60
f 87/324/61 94/323/61 93/322/61
f 94/323/61 87/324/61 81/325/61
f 83/328/62 89/327/62 91/326/62
f 89/327/62 83/328/62 95/329/62
f 86/318/63 87/330/63 93/319/63
f 87/330/63 86/318/63 92/331/63
f 93/295/64 91/332/64 90/309/64
f 91/332/64 93/295/64 94/296/64
f 87/335/65 77/334/65 78/333/65
f 77/334/65 87/335/65 92/336/65
f 82/339/66 86/338/66 85/337/66
f 86/338/66 82/339/66 92/340/66
f 96/343/2 89/342/2 95/341/2
f 89/342/2 96/343/2 88/344/2

