# Created by Kenney (www.kenney.nl)

mtllib tree_blocks_dark.mtl

g tree_blocks_dark

v 0.04500001 0.585 -0.04500001
v 0.04500001 0.31 -0.04500001
v 0.04500001 0.585 0.04500001
v 0.04500001 0.31 0.04500001
v 0.06975 0 0.06975
v 0.06975 0 -0.06975
v -0.06975 0 0.06975
v -0.06975 0 -0.06975
v -0.04500001 0.31 -0.04500001
v -0.04500001 0.585 -0.04500001
v -0.04500001 0.31 0.04500001
v -0.04500001 0.585 0.04500001
v -0.3 0.585 0.0825
v -0.3 0.8013605 0.0825
v -0.3 0.585 0.3
v -0.3 0.8013605 0.3
v -0.0856632 1.135 -0.05382786
v 0.25 1.135 -0.05382786
v -0.0856632 1.185 -0.05382786
v 0.3 1.185 -0.05382786
v 0.3 0.835 -0.05382786
v 0.25 0.835 -0.05382786
v 0.25 0.635 -0.25
v 0.05534229 0.635 0.05535081
v 0.25 0.635 0.25
v -0.0825 0.635 0.25
v -0.0825 0.635 0.0825
v -0.25 0.635 0.05535081
v -0.25 0.635 0.0825
v 0.05534229 0.635 -0.25
v 0.3 0.975 -0.08
v 0.3 0.975 -0.3
v 0.25 0.975 -0.08
v 0.25 0.975 -0.25
v 0.0825 0.975 -0.3
v 0.0825 0.975 -0.25
v -0.3 0.585 -0.3
v 0.05534229 0.585 -0.3
v -0.3 0.94 -0.3
v 0.05534229 0.94 -0.3
v -0.25 0.94 0.05535081
v -0.25 0.8013605 0.0825
v -0.25 1.135 0.25
v -0.25 1.135 -0.25
v -0.25 0.94 -0.25
v -0.25 0.8013605 0.25
v 0.3 1.185 -0.3
v 0.3 1.185 -0.08
v 0.0825 1.185 -0.3
v 0.0825 1.185 -0.08
v -0.0856632 0.835 0.25
v -0.0856632 1.135 0.25
v -0.0856632 0.835 0.3
v -0.0856632 1.185 0.3
v 0.25 1.135 -0.08
v 0.25 0.835 0.25
v 0.3 0.835 0.3
v -0.0825 0.585 0.0825
v 0.3 1.185 0.3
v 0.0825 1.135 -0.25
v 0.0825 1.135 -0.08
v 0.05534229 0.585 0.05535081
v -0.3 0.585 0.05535081
v 0.05534229 0.94 -0.25
v -0.0825 0.585 0.3
v -0.0825 0.8013605 0.3
v -0.0825 0.8013605 0.25
v -0.3 0.94 0.05535081

vn 1 0 0
vn 0 -1 0
vn 0 0 -1
vn 0 0.07958546 0.996828
vn 0 0 1
vn 0 0.07958546 -0.996828
vn -0.996828 0.07958546 0
vn -1 0 0
vn 0.996828 0.07958546 0
vn 0 1 0

vt 1.771654 23.0315
vt 1.771654 12.20472
vt -1.771654 23.0315
vt -1.771654 12.20472
vt 2.746063 2.746063
vt 2.746063 -2.746063
vt -2.746063 2.746063
vt -2.746063 -2.746063
vt 2.746063 -0.2185467
vt -2.746063 -0.2185467
vt 1.771654 12.02501
vt -1.771654 12.02501
vt 3.248032 23.0315
vt 3.248032 31.54963
vt 11.81102 23.0315
vt 11.81102 31.54963
vt 3.372567 44.68504
vt -9.84252 44.68504
vt 3.372567 46.65355
vt -11.81102 46.65355
vt -11.81102 32.87402
vt -9.84252 32.87402
vt 9.84252 -9.84252
vt 2.17883 2.179166
vt 9.84252 9.84252
vt -3.248032 9.84252
vt -3.248032 3.248032
vt -9.84252 2.179166
vt -9.84252 3.248032
vt 2.17883 -9.84252
vt 11.81102 -3.149606
vt 11.81102 -11.81102
vt 9.84252 -3.149606
vt 3.248032 -11.81102
vt 3.248032 -9.84252
vt -2.17883 23.0315
vt 11.81102 37.00787
vt -2.17883 37.00787
vt 2.179166 25
vt 2.179166 37.00787
vt 3.248032 25
vt 9.84252 44.68504
vt -9.84252 37.00787
vt 9.84252 31.54963
vt -11.81102 -11.81102
vt -11.81102 -3.149606
vt -3.248032 -11.81102
vt -3.248032 -3.149606
vt 9.84252 32.87402
vt 11.81102 32.87402
vt 11.81102 46.65355
vt -2.119207 46.65355
vt -2.119207 44.68504
vt 3.149606 44.68504
vt 3.149606 38.38583
vt 2.119207 44.68504
vt 2.119207 32.87402
vt 9.84252 25
vt 9.84252 38.38583
vt -9.84252 25
vt 11.81102 38.38583
vt 3.149606 46.65355
vt 11.81102 -2.119207
vt 11.81102 11.81102
vt -3.372567 11.81102
vt -3.372567 9.84252
vt 9.84252 -2.119207
vt -3.372567 32.87402
vt -3.372567 46.65355
vt 2.119207 46.65355
vt -11.81102 38.38583
vt -9.84252 38.38583
vt -3.149606 46.65355
vt -3.149606 44.68504
vt 2.17883 -11.81102
vt 1.771654 1.771654
vt -11.81102 2.179166
vt -1.771654 1.771654
vt -1.771654 -1.771654
vt 1.771654 -1.771654
vt 9.84252 37.00787
vt -2.179166 23.0315
vt -2.179166 25
vt -3.248032 23.0315
vt -11.81102 23.0315
vt -3.248032 31.54963
vt -11.81102 31.54963
vt -3.248032 38.38583
vt -3.248032 46.65355
vt -3.248032 11.81102
vt -11.81102 11.81102
vt -11.81102 3.248032
vt 3.248032 44.68504
vt 3.248032 46.65355
vt -11.81102 -2.119207
vt 3.372567 -2.119207
vt 3.372567 11.81102
vt 9.84252 3.248032
vt 11.81102 3.248032
vt 3.248032 11.81102
vt 3.248032 9.84252
vt -9.84252 31.54963
vt -3.248032 25
vt 2.17883 23.0315
vt 2.17883 25
vt -11.81102 37.00787
vt -3.248032 44.68504
vt -2.17883 25
vt -3.372567 44.68504
vt 2.179166 23.0315
vt -2.17883 -11.81102
vt -2.17883 -9.84252
vt 9.84252 2.179166
vt 11.81102 2.179166
vt -3.248032 -9.84252
vt 3.372567 9.84252
vt -9.84252 -2.119207
vt -9.84252 -3.149606

usemtl woodBarkDark

f 3/3/1 2/2/1 1/1/1
f 2/2/1 3/3/1 4/4/1
f 7/7/2 6/6/2 5/5/2
f 6/6/2 7/7/2 8/8/2
f 10/1/3 2/4/3 9/2/3
f 2/4/3 10/1/3 1/3/3
f 4/11/4 7/10/4 5/9/4
f 7/10/4 4/11/4 11/12/4
f 3/1/5 11/4/5 4/2/5
f 11/4/5 3/1/5 12/3/5
f 9/11/6 6/10/6 8/9/6
f 6/10/6 9/11/6 2/12/6
f 7/9/7 9/12/7 8/10/7
f 9/12/7 7/9/7 11/11/7
f 11/2/8 10/3/8 9/4/8
f 10/3/8 11/2/8 12/1/8
f 2/11/9 5/10/9 6/9/9
f 5/10/9 2/11/9 4/12/9

usemtl leafsDark

f 15/15/8 14/14/8 13/13/8
f 14/14/8 15/15/8 16/16/8
f 19/19/3 18/18/3 17/17/3
f 20/20/3 18/18/3 19/19/3
f 21/21/3 18/18/3 20/20/3
f 18/18/3 21/21/3 22/22/3
f 25/25/2 24/24/2 23/23/2
f 24/24/2 25/25/2 26/26/2
f 24/24/2 26/26/2 27/27/2
f 24/24/2 27/27/2 28/28/2
f 28/28/2 27/27/2 29/29/2
f 30/30/2 23/23/2 24/24/2
f 33/33/2 32/32/2 31/31/2
f 32/32/2 33/33/2 34/23/2
f 32/32/2 34/23/2 35/34/2
f 35/34/2 34/23/2 36/35/2
f 39/37/3 38/36/3 37/15/3
f 38/36/3 39/37/3 40/38/3
f 29/41/8 41/40/8 28/39/8
f 42/14/8 41/40/8 29/41/8
f 43/42/8 41/40/8 42/14/8
f 44/18/8 41/40/8 43/42/8
f 41/40/8 44/18/8 45/43/8
f 43/42/8 42/14/8 46/44/8
f 49/47/10 48/46/10 47/45/10
f 48/46/10 49/47/10 50/48/10
f 53/50/8 52/42/8 51/49/8
f 54/51/8 52/42/8 53/50/8
f 19/52/8 52/42/8 54/51/8
f 52/42/8 19/52/8 17/53/8
f 18/56/1 33/55/1 55/54/1
f 22/57/1 33/55/1 18/56/1
f 23/58/1 33/55/1 22/57/1
f 33/55/1 23/58/1 34/59/1
f 23/58/1 22/57/1 25/60/1
f 25/60/1 22/57/1 56/22/1
f 48/62/1 32/61/1 47/51/1
f 32/61/1 48/62/1 31/55/1
f 57/64/2 56/25/2 21/63/2
f 56/25/2 57/64/2 53/65/2
f 56/25/2 53/65/2 51/66/2
f 22/67/2 21/63/2 56/25/2
f 13/15/3 29/58/3 58/13/3
f 29/58/3 13/15/3 14/16/3
f 29/58/3 14/16/3 42/44/3
f 27/41/3 58/13/3 29/58/3
f 59/51/5 53/68/5 57/50/5
f 53/68/5 59/51/5 54/69/5
f 59/20/1 21/57/1 20/70/1
f 21/57/1 59/20/1 57/21/1
f 36/72/8 49/20/8 35/71/8
f 49/20/8 36/72/8 60/18/8
f 49/20/8 60/18/8 50/73/8
f 50/73/8 60/18/8 61/74/8
f 62/24/2 3/76/2 38/75/2
f 3/76/2 62/24/2 63/77/2
f 3/76/2 63/77/2 12/78/2
f 12/78/2 63/77/2 10/79/2
f 1/80/2 38/75/2 3/76/2
f 38/75/2 1/80/2 37/45/2
f 37/45/2 1/80/2 10/79/2
f 37/45/2 10/79/2 63/77/2
f 64/81/1 38/15/1 40/37/1
f 38/15/1 64/81/1 30/58/1
f 38/15/1 30/58/1 62/82/1
f 62/82/1 30/58/1 24/83/1
f 66/86/5 15/85/5 65/84/5
f 15/85/5 66/86/5 16/87/5
f 49/89/3 32/71/3 35/88/3
f 32/71/3 49/89/3 47/20/3
f 15/91/2 58/27/2 65/90/2
f 58/27/2 15/91/2 13/92/2
f 48/51/5 33/59/5 31/61/5
f 33/59/5 48/51/5 55/42/5
f 55/42/5 48/51/5 61/93/5
f 61/93/5 48/51/5 50/94/5
f 19/96/10 59/91/10 20/95/10
f 59/91/10 19/96/10 54/97/10
f 14/99/10 46/25/10 42/98/10
f 16/64/10 46/25/10 14/99/10
f 66/100/10 46/25/10 16/64/10
f 46/25/10 66/100/10 67/101/10
f 66/87/1 26/60/1 67/102/1
f 65/85/1 26/60/1 66/87/1
f 58/84/1 26/60/1 65/85/1
f 26/60/1 58/84/1 27/103/1
f 24/105/5 63/85/5 62/104/5
f 63/85/5 24/105/5 28/60/5
f 63/85/5 28/60/5 68/106/5
f 68/106/5 28/60/5 41/43/5
f 44/42/3 64/38/3 45/81/3
f 64/38/3 44/42/3 36/88/3
f 36/88/3 44/42/3 60/107/3
f 34/72/3 64/38/3 36/88/3
f 23/60/3 64/38/3 34/72/3
f 64/38/3 23/60/3 30/108/3
f 56/49/5 26/103/5 25/58/5
f 26/103/5 56/49/5 67/86/5
f 67/86/5 56/49/5 46/102/5
f 46/102/5 56/49/5 51/68/5
f 46/102/5 51/68/5 43/18/5
f 43/18/5 51/68/5 52/109/5
f 63/110/8 39/106/8 37/85/8
f 39/106/8 63/110/8 68/40/8
f 39/32/10 64/112/10 40/111/10
f 64/112/10 39/32/10 45/23/10
f 45/23/10 39/32/10 41/113/10
f 41/113/10 39/32/10 68/114/10
f 44/23/10 61/48/10 60/115/10
f 61/48/10 44/23/10 17/96/10
f 17/96/10 44/23/10 52/116/10
f 52/116/10 44/23/10 43/25/10
f 18/117/10 61/48/10 17/96/10
f 61/48/10 18/117/10 55/118/10

