# Created by Kenney (www.kenney.nl)

mtllib tree_cone_dark.mtl

g tree_cone_dark

v 0.0750464 0 0.0750464
v -0.0750464 0 0.0750464
v 0.04878016 0.0917696 0.04878016
v -0.04878016 0.0917696 0.04878016
v -0.0750464 0 -0.0750464
v -0.04878016 0.0917696 -0.04878016
v 0.0750464 0 -0.0750464
v 0.04878016 0.0917696 -0.04878016
v -0.0949105 0.1790125 -0.007591996
v -0.09377697 0.2047796 -0.007591996
v -0.0949105 0.1790125 0.01304161
v -0.09377697 0.2047796 0.01304161
v -0.04355784 0.210482 -0.0139152
v -0.04355784 0.210482 0.0193648
v -0.04538611 0.1689222 0.0193648
v -0.04538611 0.1689222 -0.0139152
v -0.02890224 0.5436288 -0.02890224
v -0.02890224 0.5436288 0.02890224
v 0 1.382285 -0.09716997
v 0.03067391 1.430333 -0.03067391
v 0.06870955 1.382285 -0.06870955
v 0 1.430333 -0.04337946
v 0 1.150781 0.1927976
v -0.1872644 0.6965088 0.1872644
v 0 0.6965088 0.2648318
v -0.1363285 1.150781 0.1363285
v 0.1363285 1.150781 -0.1363285
v 0.2648318 0.6965088 -2.887646E-15
v 0.1872644 0.6965088 -0.1872644
v 0.1927976 1.150781 -4.331469E-15
v -0.1451662 0.5436288 -0.1451662
v -0.2648318 0.6965088 -2.887646E-15
v -0.1872644 0.6965088 -0.1872644
v -0.205296 0.5436288 -1.443823E-15
v -0.01791644 0.3900567 0.0356581
v -0.01126044 0.3859667 0.09413435
v -0.01791644 0.3568089 0.03712071
v -0.01126044 0.366018 0.09501191
v 0 1.382285 0.09716997
v -0.06870955 1.382285 0.06870955
v 0 1.150781 -0.1927976
v 0.06870955 1.382285 0.06870955
v 0.1363285 1.150781 0.1363285
v -0.1451662 0.5436288 0.1451662
v 0 0.6965088 -0.2648318
v 0 0.5436288 0.205296
v 0.03067391 1.430333 0.03067391
v 0 1.430333 0.04337946
v 0.01536356 0.3900567 0.0356581
v 0.01536356 0.3568089 0.03712071
v 0.008707563 0.3859667 0.09413435
v 0.008707563 0.366018 0.09501191
v 0.1451662 0.5436288 -0.1451662
v 0 0.5436288 -0.205296
v 0.02890224 0.5436288 0.02890224
v 0.1872644 0.6965088 0.1872644
v 0.205296 0.5436288 -1.443823E-15
v 0.1451662 0.5436288 0.1451662
v -0.1927976 1.150781 -4.331469E-15
v 0.02890224 0.5436288 -0.02890224
v -0.06870955 1.382285 -0.06870955
v -0.1363285 1.150781 -0.1363285
v -0.03067391 1.430333 -0.03067391
v 0.09716997 1.382285 -5.775291E-15
v -0.04337946 1.430333 -5.775291E-15
v -0.09716997 1.382285 -5.775291E-15
v -0.03067391 1.430333 0.03067391
v 0.04337946 1.430333 -5.775291E-15

vn 0 0.2751701 0.9613956
vn 0 -0.2751701 -0.9613956
vn -0.9613956 0.2751701 0
vn 0.9613956 -0.2751701 0
vn 0 0.2751701 -0.9613956
vn 0 -0.2751701 0.9613956
vn 0.9613956 0.2751701 0
vn -0.9613956 -0.2751701 0
vn -0.9990338 0.04394889 0
vn 0.9990338 -0.04394889 0
vn -0.112826 0.9936148 0
vn 0.112826 -0.9936148 0
vn -0.1255412 0.005522731 0.992073
vn 0.1255412 -0.005522731 -0.992073
vn 0 -1 0
vn 0 1 0
vn -0.1255412 0.005522731 -0.992073
vn 0.1255412 -0.005522731 0.992073
vn -0.1996423 -0.9798688 0
vn 0.1996423 0.9798688 0
vn -0.265998 -0.7189265 0.6421759
vn 0.3786418 -0.144953 -0.914122
vn -0.914122 -0.144953 0.3786418
vn 0.8693262 0.3385404 0.3600867
vn -0.9935327 0.004990246 0.1134369
vn 0.9935327 -0.004990246 -0.1134369
vn 0.3575325 -0.3565464 -0.86316
vn -0.3575325 -0.3565464 0.86316
vn -0.3575325 -0.3565464 -0.86316
vn 0.8693262 0.3385404 -0.3600867
vn -0.3786418 -0.144953 0.914122
vn 0.3600867 0.3385404 -0.8693262
vn -0.265998 -0.7189265 -0.6421759
vn 0.9935327 0.004990246 0.1134369
vn -0.9935327 -0.004990246 -0.1134369
vn -0.3600867 0.3385404 0.8693262
vn 0 0.04394889 0.9990338
vn 0 -0.04394889 -0.9990338
vn 0.3600867 0.3385404 0.8693262
vn -0.8693262 0.3385404 -0.3600867
vn -0.3600867 0.3385404 -0.8693262
vn -0.8693262 0.3385404 0.3600867
vn 0.914122 -0.144953 -0.3786418
vn 0 -0.9875824 0.1571015
vn 0 0.9875824 -0.1571015
vn 0 0.04394889 -0.9990338
vn 0 -0.04394889 0.9990338
vn 0.3575325 -0.3565464 0.86316
vn 0.914122 -0.144953 0.3786418
vn 0.265998 -0.7189265 0.6421759
vn -0.86316 -0.3565464 -0.3575325
vn 0.6421759 -0.7189265 0.265998
vn 0.9990338 0.04394889 0
vn -0.9990338 -0.04394889 0
vn 0.6421759 -0.7189265 -0.265998
vn 0 0.997563 0.06977224
vn 0 -0.997563 -0.06977224
vn 0.3786418 -0.144953 0.914122
vn -0.3786418 -0.144953 -0.914122
vn -0.6421759 -0.7189265 -0.265998
vn 0.265998 -0.7189265 -0.6421759
vn 0.86316 -0.3565464 0.3575325
vn -0.6421759 -0.7189265 0.265998
vn -0.86316 -0.3565464 0.3575325
vn -0.914122 -0.144953 -0.3786418
vn 0.86316 -0.3565464 -0.3575325
vn 0.265998 0.7189265 -0.6421759
vn -0.3786418 0.144953 0.914122
vn 0.914122 0.144953 -0.3786418
vn -0.8693262 -0.3385404 -0.3600867
vn -0.3575325 0.3565464 0.86316
vn 0.3575325 0.3565464 -0.86316
vn 0.3575325 0.3565464 0.86316
vn -0.8693262 -0.3385404 0.3600867
vn 0.3786418 0.144953 -0.914122
vn -0.3600867 -0.3385404 0.8693262
vn 0.265998 0.7189265 0.6421759
vn 0.3600867 -0.3385404 -0.8693262
vn -0.3600867 -0.3385404 -0.8693262
vn 0.8693262 -0.3385404 0.3600867
vn 0.3600867 -0.3385404 0.8693262
vn 0.8693262 -0.3385404 -0.3600867
vn -0.914122 0.144953 0.3786418
vn -0.3575325 0.3565464 -0.86316
vn -0.914122 0.144953 -0.3786418
vn -0.265998 0.7189265 -0.6421759
vn 0.86316 0.3565464 0.3575325
vn -0.6421759 0.7189265 -0.265998
vn -0.6421759 0.7189265 0.265998
vn -0.3786418 0.144953 -0.914122
vn 0.3786418 0.144953 0.914122
vn 0.6421759 0.7189265 0.265998
vn -0.265998 0.7189265 0.6421759
vn -0.86316 0.3565464 -0.3575325
vn 0.6421759 0.7189265 -0.265998
vn 0.86316 0.3565464 -0.3575325
vn 0.914122 0.144953 0.3786418
vn -0.86316 0.3565464 0.3575325

vt 2.954583 -0.8130127
vt -2.954583 -0.8130127
vt 1.920479 2.945041
vt -1.920479 2.945041
vt -0.2988975 6.876705
vt -0.2988975 7.892138
vt 0.513449 6.876705
vt 0.513449 7.892138
vt -0.5478424 -0.7689713
vt 0.7623939 -0.7689713
vt -0.2988975 -2.758808
vt 0.513449 -2.758808
vt -1.677004 6.644963
vt -3.64261 7.042224
vt -1.605594 8.2812
vt -3.598336 8.056692
vt 2.954583 2.954583
vt 2.954583 -2.954583
vt -2.954583 2.954583
vt -2.954583 -2.954583
vt 1.70394 6.646138
vt 1.63253 8.282376
vt 3.669546 7.0434
vt 3.625272 8.057867
vt 0.7623939 3.0786
vt -0.5478424 3.0786
vt 0.513449 5.068437
vt -0.2988975 5.068437
vt -1.137884 21.33202
vt -0.5478424 6.565524
vt -1.920479 3.525083
vt 1.920479 3.525083
vt 0.7623939 6.565524
vt 0.7623939 8.20332
vt 1.137884 21.33202
vt -0.5478424 8.20332
vt 1.46399 35.28609
vt -0.6535669 38.00755
vt -1.46399 35.28609
vt 0.6535669 38.00755
vt 2.904742 43.81132
vt -3.99003 25.73569
vt 3.99003 25.73569
vt -2.904742 43.81132
vt -3.093046 22.66689
vt 3.99003 29.0635
vt -3.99003 29.0635
vt 3.093046 22.66689
vt 1.314784 15.35208
vt 3.631864 15.19106
vt 1.371996 14.04309
vt 3.666191 14.40566
vt 1.46399 49.58384
vt -2.904742 39.82835
vt 2.904742 39.82835
vt -1.46399 49.58384
vt -1.326185 15.35258
vt -1.383397 14.04359
vt -3.643265 15.19155
vt -3.677593 14.40616
vt 0.6048647 13.96979
vt 0.6048647 15.28003
vt -0.7053715 15.28003
vt -0.7053715 13.96979
vt 0.6048647 3.650196
vt -0.7053715 3.650196
vt 0.3428175 5.958035
vt -0.4433243 5.958035
vt 5.715205 5.715205
vt 5.715205 -5.715205
vt 8.08252 -5.684342E-14
vt 0 8.08252
vt 1.137884 1.137884
vt -1.137884 1.137884
vt -5.715205 5.715205
vt -1.137884 -1.137884
vt 1.137884 -1.137884
vt 0 -8.08252
vt -5.715205 -5.715205
vt -8.08252 -5.684342E-14
vt 0.3428175 14.23184
vt -0.4433243 14.23184
vt 0.3428175 15.01798
vt -0.4433243 15.01798
vt 0.6048647 -0.328979
vt 0.3428175 -2.636818
vt -0.7053715 -0.328979
vt -0.4433243 -2.636818
vt -1.207634 -1.207634
vt -1.207634 1.207634
vt -1.707853 -2.273737E-13
vt 0 -1.707853
vt 0 1.707853
vt 1.207634 -1.207634
vt 1.207634 1.207634
vt 1.707853 -2.273737E-13

usemtl woodBarkDark

f 3/3/1 2/2/1 1/1/1
f 2/2/1 3/3/1 4/4/1
f 1/1/2 2/2/2 3/3/2
f 4/4/2 3/3/2 2/2/2
f 2/1/3 6/4/3 5/2/3
f 6/4/3 2/1/3 4/3/3
f 5/2/4 6/4/4 2/1/4
f 4/3/4 2/1/4 6/4/4
f 6/3/5 7/2/5 5/1/5
f 7/2/5 6/3/5 8/4/5
f 5/1/6 7/2/6 6/3/6
f 8/4/6 6/3/6 7/2/6
f 8/3/7 1/2/7 7/1/7
f 1/2/7 8/3/7 3/4/7
f 7/1/8 1/2/8 8/3/8
f 3/4/8 8/3/8 1/2/8
f 11/7/9 10/6/9 9/5/9
f 10/6/9 11/7/9 12/8/9
f 9/5/10 10/6/10 11/7/10
f 12/8/10 11/7/10 10/6/10
f 10/11/11 14/10/11 13/9/11
f 14/10/11 10/11/11 12/12/11
f 13/9/12 14/10/12 10/11/12
f 12/12/12 10/11/12 14/10/12
f 14/15/13 11/14/13 15/13/13
f 11/14/13 14/15/13 12/16/13
f 15/13/14 11/14/14 14/15/14
f 12/16/14 14/15/14 11/14/14
f 2/19/15 7/18/15 1/17/15
f 7/18/15 2/19/15 5/20/15
f 1/17/16 7/18/16 2/19/16
f 5/20/16 2/19/16 7/18/16
f 9/23/17 13/22/17 16/21/17
f 13/22/17 9/23/17 10/24/17
f 16/21/18 13/22/18 9/23/18
f 10/24/18 9/23/18 13/22/18
f 11/27/19 16/26/19 15/25/19
f 16/26/19 11/27/19 9/28/19
f 15/25/20 16/26/20 11/27/20
f 9/28/20 11/27/20 16/26/20
f 6/31/9 16/30/9 17/29/9
f 16/30/9 6/31/9 4/32/9
f 16/30/9 4/32/9 15/33/9
f 15/33/9 4/32/9 14/34/9
f 14/34/9 4/32/9 18/35/9
f 17/29/9 13/36/9 18/35/9
f 13/36/9 17/29/9 16/30/9
f 18/35/9 13/36/9 14/34/9
f 17/29/10 16/30/10 6/31/10
f 4/32/10 6/31/10 16/30/10
f 15/33/10 4/32/10 16/30/10
f 14/34/10 4/32/10 15/33/10
f 18/35/10 4/32/10 14/34/10
f 18/35/10 13/36/10 17/29/10
f 16/30/10 17/29/10 13/36/10
f 14/34/10 13/36/10 18/35/10
f 21/39/21 20/38/21 19/37/21
f 22/40/21 19/37/21 20/38/21
f 25/43/22 24/42/22 23/41/22
f 26/44/22 23/41/22 24/42/22
f 29/43/23 28/42/23 27/41/23
f 30/44/23 27/41/23 28/42/23
f 33/47/24 32/46/24 31/45/24
f 34/48/24 31/45/24 32/46/24
f 37/51/25 36/50/25 35/49/25
f 36/50/25 37/51/25 38/52/25
f 35/49/26 36/50/26 37/51/26
f 38/52/26 37/51/26 36/50/26
f 23/55/27 26/54/27 39/53/27
f 40/56/27 39/53/27 26/54/27
f 41/55/28 27/54/28 19/53/28
f 21/56/28 19/53/28 27/54/28
f 43/55/29 23/54/29 42/53/29
f 39/56/29 42/53/29 23/54/29
f 32/47/30 24/46/30 34/45/30
f 44/48/30 34/45/30 24/46/30
f 45/43/31 29/42/31 41/41/31
f 27/44/31 41/41/31 29/42/31
f 46/48/32 44/45/32 25/46/32
f 24/47/32 25/46/32 44/45/32
f 42/37/33 39/39/33 47/40/33
f 48/38/33 47/40/33 39/39/33
f 51/59/34 50/58/34 49/57/34
f 50/58/34 51/59/34 52/60/34
f 49/57/35 50/58/35 51/59/35
f 52/60/35 51/59/35 50/58/35
f 54/48/36 53/45/36 45/46/36
f 29/47/36 45/46/36 53/45/36
f 3/32/37 50/61/37 4/31/37
f 50/61/37 3/32/37 55/35/37
f 50/61/37 55/35/37 49/62/37
f 49/62/37 55/35/37 35/63/37
f 37/64/37 4/31/37 50/61/37
f 4/31/37 37/64/37 18/29/37
f 18/29/37 37/64/37 35/63/37
f 18/29/37 35/63/37 55/35/37
f 4/31/38 50/61/38 3/32/38
f 55/35/38 3/32/38 50/61/38
f 49/62/38 55/35/38 50/61/38
f 35/63/38 55/35/38 49/62/38
f 50/61/38 4/31/38 37/64/38
f 18/29/38 37/64/38 4/31/38
f 35/63/38 37/64/38 18/29/38
f 55/35/38 35/63/38 18/29/38
f 31/48/39 54/45/39 33/46/39
f 45/47/39 33/46/39 54/45/39
f 28/46/40 57/48/40 56/47/40
f 58/45/40 56/47/40 57/48/40
f 58/48/41 46/45/41 56/46/41
f 25/47/41 56/46/41 46/45/41
f 29/46/42 53/48/42 28/47/42
f 57/45/42 28/47/42 53/48/42
f 59/44/43 26/41/43 32/42/43
f 24/43/43 32/42/43 26/41/43
f 52/67/44 37/66/44 50/65/44
f 37/66/44 52/67/44 38/68/44
f 50/65/45 37/66/45 52/67/45
f 38/68/45 52/67/45 37/66/45
f 57/71/16 53/70/16 58/69/16
f 46/72/16 58/69/16 53/70/16
f 55/73/16 46/72/16 53/70/16
f 18/74/16 46/72/16 55/73/16
f 44/75/16 46/72/16 18/74/16
f 17/76/16 44/75/16 18/74/16
f 55/73/16 53/70/16 60/77/16
f 54/78/16 60/77/16 53/70/16
f 17/76/16 60/77/16 54/78/16
f 31/79/16 17/76/16 54/78/16
f 44/75/16 17/76/16 31/79/16
f 34/80/16 44/75/16 31/79/16
f 17/35/46 8/31/46 6/32/46
f 8/31/46 17/35/46 60/29/46
f 6/32/47 8/31/47 17/35/47
f 60/29/47 17/35/47 8/31/47
f 62/55/48 41/54/48 61/53/48
f 19/56/48 61/53/48 41/54/48
f 33/42/49 62/44/49 32/43/49
f 59/41/49 32/43/49 62/44/49
f 19/39/50 22/38/50 61/37/50
f 63/40/50 61/37/50 22/38/50
f 64/53/51 30/55/51 42/56/51
f 43/54/51 42/56/51 30/55/51
f 63/38/52 65/40/52 61/39/52
f 66/37/52 61/39/52 65/40/52
f 60/35/53 3/31/53 8/32/53
f 3/31/53 60/35/53 55/29/53
f 8/32/54 3/31/54 60/35/54
f 55/29/54 60/35/54 3/31/54
f 51/83/37 38/82/37 52/81/37
f 38/82/37 51/83/37 36/84/37
f 52/81/38 38/82/38 51/83/38
f 36/84/38 51/83/38 38/82/38
f 67/40/55 40/37/55 65/38/55
f 66/39/55 65/38/55 40/37/55
f 35/87/56 51/86/56 49/85/56
f 51/86/56 35/87/56 36/88/56
f 49/85/57 51/86/57 35/87/57
f 36/88/57 35/87/57 51/86/57
f 33/43/58 45/42/58 62/41/58
f 41/44/58 62/41/58 45/42/58
f 56/43/59 25/42/59 43/41/59
f 23/44/59 43/41/59 25/42/59
f 64/37/60 42/39/60 68/40/60
f 47/38/60 68/40/60 42/39/60
f 48/40/61 39/37/61 67/38/61
f 40/39/61 67/38/61 39/37/61
f 62/54/62 61/56/62 59/55/62
f 66/53/62 59/55/62 61/56/62
f 64/39/63 68/38/63 21/37/63
f 20/40/63 21/37/63 68/38/63
f 27/55/64 30/54/64 21/53/64
f 64/56/64 21/53/64 30/54/64
f 68/91/15 47/90/15 20/89/15
f 22/92/15 20/89/15 47/90/15
f 48/93/15 22/92/15 47/90/15
f 63/94/15 22/92/15 48/93/15
f 67/95/15 63/94/15 48/93/15
f 65/96/15 63/94/15 67/95/15
f 30/41/65 28/43/65 43/44/65
f 56/42/65 43/44/65 28/43/65
f 66/56/66 40/53/66 59/54/66
f 26/55/66 59/54/66 40/53/66

usemtl leafsDark

f 19/37/67 20/38/67 21/39/67
f 20/38/67 19/37/67 22/40/67
f 23/41/68 24/42/68 25/43/68
f 24/42/68 23/41/68 26/44/68
f 27/41/69 28/42/69 29/43/69
f 28/42/69 27/41/69 30/44/69
f 31/45/70 32/46/70 33/47/70
f 32/46/70 31/45/70 34/48/70
f 39/53/71 26/54/71 23/55/71
f 26/54/71 39/53/71 40/56/71
f 19/53/72 27/54/72 41/55/72
f 27/54/72 19/53/72 21/56/72
f 42/53/73 23/54/73 43/55/73
f 23/54/73 42/53/73 39/56/73
f 34/45/74 24/46/74 32/47/74
f 24/46/74 34/45/74 44/48/74
f 41/41/75 29/42/75 45/43/75
f 29/42/75 41/41/75 27/44/75
f 25/46/76 44/45/76 46/48/76
f 44/45/76 25/46/76 24/47/76
f 47/40/77 39/39/77 42/37/77
f 39/39/77 47/40/77 48/38/77
f 45/46/78 53/45/78 54/48/78
f 53/45/78 45/46/78 29/47/78
f 33/46/79 54/45/79 31/48/79
f 54/45/79 33/46/79 45/47/79
f 56/47/80 57/48/80 28/46/80
f 57/48/80 56/47/80 58/45/80
f 56/46/81 46/45/81 58/48/81
f 46/45/81 56/46/81 25/47/81
f 28/47/82 53/48/82 29/46/82
f 53/48/82 28/47/82 57/45/82
f 32/42/83 26/41/83 59/44/83
f 26/41/83 32/42/83 24/43/83
f 58/69/15 53/70/15 57/71/15
f 53/70/15 58/69/15 46/72/15
f 53/70/15 46/72/15 55/73/15
f 55/73/15 46/72/15 18/74/15
f 18/74/15 46/72/15 44/75/15
f 18/74/15 44/75/15 17/76/15
f 60/77/15 53/70/15 55/73/15
f 53/70/15 60/77/15 54/78/15
f 54/78/15 60/77/15 17/76/15
f 54/78/15 17/76/15 31/79/15
f 31/79/15 17/76/15 44/75/15
f 31/79/15 44/75/15 34/80/15
f 61/53/84 41/54/84 62/55/84
f 41/54/84 61/53/84 19/56/84
f 32/43/85 62/44/85 33/42/85
f 62/44/85 32/43/85 59/41/85
f 61/37/86 22/38/86 19/39/86
f 22/38/86 61/37/86 63/40/86
f 42/56/87 30/55/87 64/53/87
f 30/55/87 42/56/87 43/54/87
f 61/39/88 65/40/88 63/38/88
f 65/40/88 61/39/88 66/37/88
f 65/38/89 40/37/89 67/40/89
f 40/37/89 65/38/89 66/39/89
f 62/41/90 45/42/90 33/43/90
f 45/42/90 62/41/90 41/44/90
f 43/41/91 25/42/91 56/43/91
f 25/42/91 43/41/91 23/44/91
f 68/40/92 42/39/92 64/37/92
f 42/39/92 68/40/92 47/38/92
f 67/38/93 39/37/93 48/40/93
f 39/37/93 67/38/93 40/39/93
f 59/55/94 61/56/94 62/54/94
f 61/56/94 59/55/94 66/53/94
f 21/37/95 68/38/95 64/39/95
f 68/38/95 21/37/95 20/40/95
f 21/53/96 30/54/96 27/55/96
f 30/54/96 21/53/96 64/56/96
f 20/89/16 47/90/16 68/91/16
f 47/90/16 20/89/16 22/92/16
f 47/90/16 22/92/16 48/93/16
f 48/93/16 22/92/16 63/94/16
f 48/93/16 63/94/16 67/95/16
f 67/95/16 63/94/16 65/96/16
f 43/44/97 28/43/97 30/41/97
f 28/43/97 43/44/97 56/42/97
f 59/54/98 40/53/98 66/56/98
f 40/53/98 59/54/98 26/55/98

