# Created by Kenney (www.kenney.nl)

mtllib tree_simple.mtl

g tree_simple

v 0 1.519437 0
v 0 1.443893 0.118755
v -0.1028448 1.443893 0.0593775
v 0.1028448 1.443893 0.0593775
v 0.1028448 1.443893 -0.0593775
v 0.1773187 0.9150872 0.102375
v 0 0.9150872 0.20475
v 0.1773187 1.143229 0.102375
v 0 1.143229 0.20475
v 0.1773187 1.143229 -0.102375
v 0.1773187 0.9150872 -0.102375
v -0.1773187 0.9150872 -0.102375
v 0 0.9150872 -0.20475
v -0.1773187 1.143229 -0.102375
v 0 1.143229 -0.20475
v -0.1028448 1.443893 -0.0593775
v -0.1773187 1.143229 0.102375
v 0.09929848 0.86825 0.05733
v 0.09929848 0.86825 -0.05733
v 0 0.86825 0.11466
v 0.02570758 0.86825 0.02570758
v -0.02570758 0.86825 0.02570758
v -0.09929848 0.86825 0.05733
v -0.02570758 0.86825 -0.02570758
v 0.02570758 0.86825 -0.02570758
v 0 0.86825 -0.11466
v -0.09929848 0.86825 -0.05733
v 0 1.443893 -0.118755
v -0.1773187 0.9150872 0.102375
v 0.04048436 0 0.04048436
v 0.04048436 0 -0.04048436
v -0.04048436 0 0.04048436
v -0.04048436 0 -0.04048436

vn -0.2959976 0.8059414 0.512683
vn 0.2959976 0.8059414 0.512683
vn 0.5919953 0.8059414 0
vn 0.5 0 0.8660254
vn 1 0 0
vn -0.5 0 -0.8660254
vn -0.9706661 0.2404318 0
vn 0.5146978 -0.8573717 0
vn 0 -1 0
vn -0.2573488 -0.8573718 -0.4457412
vn 0.2573488 -0.8573718 -0.4457412
vn 0.5 0 -0.8660254
vn -0.2959976 0.8059414 -0.512683
vn -0.485333 0.2404318 0.8406214
vn 0.485333 0.2404318 -0.8406214
vn -0.5146978 -0.8573717 0
vn 0.2573488 -0.8573718 0.4457412
vn -0.2573488 -0.8573718 0.4457412
vn -1 0 0
vn 0.485333 0.2404318 0.8406214
vn -0.5 0 0.8660254
vn 0.9706661 0.2404318 0
vn -0.485333 0.2404318 -0.8406214
vn 0.2959976 0.8059414 -0.512683
vn -0.5919953 0.8059414 0
vn 0 0.01701658 -0.9998552
vn -0.9998552 0.01701658 0
vn 0 0.01701658 0.9998552
vn 0.9998552 0.01701658 0

vt -1.776357E-15 35.41337
vt 2.337697 30.38942
vt -2.337697 30.38942
vt 0 35.41337
vt 2.337697 30.38942
vt -2.337697 30.38942
vt 4.030512 36.02705
vt -4.030511 36.02705
vt 4.030512 45.00903
vt -4.030511 45.00903
vt -4.030512 45.00903
vt -4.030512 36.02705
vt -4.030512 42.01027
vt -2.337697 54.20516
vt 4.030512 42.01027
vt 2.337697 54.20516
vt -4.030512 24.5284
vt 4.030512 24.5284
vt -2.257087 20.94575
vt 2.257087 20.94575
vt 3.909389 2.257087
vt 3.909389 -2.257087
vt 0 4.514174
vt 1.012109 1.012109
vt -1.012109 1.012109
vt -3.909389 2.257087
vt -1.012109 -1.012109
vt 1.012109 -1.012109
vt 0 -4.514174
vt -3.909389 -2.257087
vt -2.257087 20.94575
vt -4.030511 24.52839
vt 2.257087 20.94575
vt 4.030512 24.52839
vt -4.030512 24.52839
vt 4.030511 24.52839
vt -2.257087 20.94575
vt 2.257087 20.94575
vt 4.030511 36.02705
vt 4.030511 45.00903
vt 1.776357E-15 35.41337
vt 4.030511 42.01027
vt -4.030511 42.01027
vt 2.337697 54.20516
vt -2.337697 54.20516
vt 1.593872 1.593872
vt 1.593872 -1.593872
vt -1.593872 1.593872
vt -1.593872 -1.593872
vt 1.593872 -0.02712225
vt -1.593872 -0.02712225
vt 1.012109 34.1609
vt -1.012109 34.1609

usemtl leafsGreen

f 3/3/1 2/2/1 1/1/1
f 2/6/2 4/5/2 1/4/2
f 1/4/3 4/6/3 5/2/3
f 8/9/4 7/8/4 6/7/4
f 7/8/4 8/9/4 9/10/4
f 8/11/5 11/7/5 10/9/5
f 11/7/5 8/11/5 6/12/5
f 14/9/6 13/8/6 12/7/6
f 13/8/6 14/9/6 15/10/6
f 17/15/7 16/14/7 14/13/7
f 16/14/7 17/15/7 3/16/7
f 18/19/8 11/18/8 6/17/8
f 11/18/8 18/19/8 19/20/8
f 20/23/9 19/22/9 18/21/9
f 19/22/9 20/23/9 21/24/9
f 21/24/9 20/23/9 22/25/9
f 22/25/9 20/23/9 23/26/9
f 22/25/9 23/26/9 24/27/9
f 25/28/9 19/22/9 21/24/9
f 19/22/9 25/28/9 26/29/9
f 26/29/9 25/28/9 24/27/9
f 26/29/9 24/27/9 27/30/9
f 27/30/9 24/27/9 23/26/9
f 27/33/10 13/32/10 26/31/10
f 13/32/10 27/33/10 12/34/10
f 19/37/11 13/36/11 11/35/11
f 13/36/11 19/37/11 26/38/11
f 15/40/12 11/12/12 13/39/12
f 11/12/12 15/40/12 10/11/12
f 16/5/13 1/41/13 28/6/13
f 2/44/14 17/43/14 9/42/14
f 17/43/14 2/44/14 3/14/14
f 28/44/15 10/43/15 15/42/15
f 10/43/15 28/44/15 5/14/15
f 29/18/16 27/19/16 23/20/16
f 27/19/16 29/18/16 12/17/16
f 7/32/17 18/33/17 6/34/17
f 18/33/17 7/32/17 20/31/17
f 29/35/18 20/38/18 7/36/18
f 20/38/18 29/35/18 23/37/18
f 29/7/19 14/11/19 12/12/19
f 14/11/19 29/7/19 17/9/19
f 4/16/20 9/43/20 8/42/20
f 9/43/20 4/16/20 2/45/20
f 9/40/21 29/12/21 7/39/21
f 29/12/21 9/40/21 17/11/21
f 5/16/22 8/13/22 10/15/22
f 8/13/22 5/16/22 4/14/22
f 16/16/23 15/43/23 14/42/23
f 15/43/23 16/16/23 28/45/23
f 1/4/24 5/3/24 28/2/24
f 3/2/25 1/4/25 16/6/25

usemtl woodBark

f 32/48/9 31/47/9 30/46/9
f 31/47/9 32/48/9 33/49/9
f 24/52/26 31/51/26 33/50/26
f 31/51/26 24/52/26 25/53/26
f 32/50/27 24/53/27 33/51/27
f 24/53/27 32/50/27 22/52/27
f 21/52/28 32/51/28 30/50/28
f 32/51/28 21/52/28 22/53/28
f 25/52/29 30/51/29 31/50/29
f 30/51/29 25/52/29 21/53/29

