# Created by Kenney (www.kenney.nl)

mtllib tree_small_dark.mtl

g tree_small_dark

v 0.04048436 0 0.04048436
v -0.04048436 0 0.04048436
v 0.02570758 0.28575 0.02570758
v -0.02570758 0.28575 0.02570758
v 0.1773187 0.6338249 0.102375
v 0.1773187 0.3450375 -0.102375
v 0.1773187 0.6338249 -0.102375
v 0.1773187 0.3450375 0.102375
v 0 1.014413 0.118755
v 0.1028448 1.014413 0.0593775
v 0 1.110037 0
v -0.1773187 0.6338249 0.102375
v 0 0.6338249 0.20475
v -0.1028448 1.014413 0.0593775
v 0 0.28575 0.11466
v 0.09929848 0.28575 -0.05733
v 0.09929848 0.28575 0.05733
v -0.09929848 0.28575 0.05733
v -0.02570758 0.28575 -0.02570758
v 0.02570758 0.28575 -0.02570758
v 0 0.28575 -0.11466
v -0.09929848 0.28575 -0.05733
v 0.1028448 1.014413 -0.0593775
v 0 1.014413 -0.118755
v -0.1028448 1.014413 -0.0593775
v 0 0.3450375 -0.20475
v -0.1773187 0.3450375 -0.102375
v 0.04048436 0 -0.04048436
v -0.04048436 0 -0.04048436
v 0 0.3450375 0.20475
v 0 0.6338249 -0.20475
v -0.1773187 0.3450375 0.102375
v -0.1773187 0.6338249 -0.102375

vn 0 0.05164327 0.9986656
vn 0 -0.05164327 -0.9986656
vn -1 0 0
vn -0.3404668 -0.7323452 -0.5897058
vn 0.4906936 -0.1920391 -0.8499063
vn 0.3404668 -0.7323452 -0.5897058
vn 0 1 0
vn -0.3404668 -0.7323452 0.5897058
vn 0.6809335 -0.7323452 0
vn 0.3025162 0.7962008 0.5239735
vn 0.3404668 -0.7323452 0.5897058
vn 0 -1 0
vn -0.9813873 -0.1920391 0
vn -0.6809335 -0.7323452 0
vn -0.5 0 -0.8660254
vn 0.9986656 0.05164327 0
vn -0.9986656 -0.05164327 0
vn -0.4906936 -0.1920391 0.8499063
vn 1 0 0
vn -0.6050325 0.7962008 0
vn 0.5 0 -0.8660254
vn 0 0.05164327 -0.9986656
vn 0 -0.05164327 0.9986656
vn 0.6050325 0.7962008 0
vn 0.9813873 -0.1920391 0
vn -0.4906936 -0.1920391 -0.8499063
vn -0.3025162 0.7962008 -0.5239735
vn -0.5 0 0.8660254
vn 0.4906936 -0.1920391 0.8499063
vn -0.3025162 0.7962008 0.5239735
vn 0.3025162 0.7962008 -0.5239735
vn 0.5 0 0.8660254
vn -0.9986656 0.05164327 0
vn 0.9986656 -0.05164327 0
vn 0.3404668 0.7323452 0.5897058
vn -0.4906936 0.1920391 0.8499063
vn -0.3404668 0.7323452 0.5897058
vn 0.3404668 0.7323452 -0.5897058
vn -0.6809335 0.7323452 0
vn -0.3025162 -0.7962008 -0.5239735
vn -0.3404668 0.7323452 -0.5897058
vn 0.9813873 0.1920391 0
vn 0.6809335 0.7323452 0
vn 0.4906936 0.1920391 -0.8499063
vn 0.6050325 -0.7962008 0
vn -0.6050325 -0.7962008 0
vn -0.9813873 0.1920391 0
vn 0.4906936 0.1920391 0.8499063
vn 0.3025162 -0.7962008 0.5239735
vn -0.4906936 0.1920391 -0.8499063
vn 0.3025162 -0.7962008 -0.5239735
vn -0.3025162 -0.7962008 0.5239735

vt 1.593872 -0.08231279
vt -1.593872 -0.08231279
vt 1.012109 11.18272
vt -1.012109 11.18272
vt -4.030512 24.95374
vt 4.030512 13.58415
vt 4.030512 24.95374
vt -4.030512 13.58415
vt -2.337697 24.22951
vt 2.337697 24.22951
vt -1.776357E-15 29.75834
vt 2.337697 38.41658
vt -4.030511 23.14865
vt 4.030511 23.14865
vt -2.337697 38.41658
vt -2.337697 24.22951
vt 2.337697 24.22951
vt 0 29.75834
vt 0 4.514174
vt 3.909389 -2.257087
vt 3.909389 2.257087
vt 1.012109 1.012109
vt -1.012109 1.012109
vt -3.909389 2.257087
vt -1.012109 -1.012109
vt 1.012109 -1.012109
vt 0 -4.514174
vt -3.909389 -2.257087
vt 2.257087 9.919273
vt -4.030511 13.77717
vt -2.257087 9.919273
vt 4.030512 13.77717
vt 1.593872 1.593872
vt 1.593872 -1.593872
vt -1.593872 1.593872
vt -1.593872 -1.593872
vt 2.337697 38.41658
vt -4.030512 23.14865
vt 4.030512 23.14865
vt -4.030511 13.58415
vt -4.030511 24.95374
vt -2.257087 9.919274
vt -4.030512 13.77717
vt 2.257087 9.919274
vt 4.030511 24.95374
vt 4.030511 13.58415
vt -2.337697 38.41658
vt -2.257087 9.919273
vt 4.030511 13.77717
vt 2.257087 9.919273

usemtl woodBarkDark

f 3/3/1 2/2/1 1/1/1
f 2/2/1 3/3/1 4/4/1
f 1/1/2 2/2/2 3/3/2
f 4/4/2 3/3/2 2/2/2
f 7/7/3 6/6/3 5/5/3
f 8/8/3 5/5/3 6/6/3
f 11/11/4 10/10/4 9/9/4
f 13/14/5 12/13/5 9/12/5
f 14/15/5 9/12/5 12/13/5
f 11/18/6 9/17/6 14/16/6
f 17/21/7 16/20/7 15/19/7
f 3/22/7 15/19/7 16/20/7
f 4/23/7 15/19/7 3/22/7
f 18/24/7 15/19/7 4/23/7
f 19/25/7 18/24/7 4/23/7
f 3/22/7 16/20/7 20/26/7
f 21/27/7 20/26/7 16/20/7
f 19/25/7 20/26/7 21/27/7
f 22/28/7 19/25/7 21/27/7
f 18/24/7 19/25/7 22/28/7
f 24/17/8 23/16/8 11/18/8
f 25/9/9 11/18/9 14/17/9
f 21/31/10 26/30/10 22/29/10
f 27/32/10 22/29/10 26/30/10
f 24/9/11 11/11/11 25/10/11
f 2/35/12 28/34/12 1/33/12
f 28/34/12 2/35/12 29/36/12
f 1/33/7 28/34/7 2/35/7
f 29/36/7 2/35/7 28/34/7
f 7/39/13 5/38/13 23/37/13
f 10/15/13 23/37/13 5/38/13
f 23/17/14 10/9/14 11/18/14
f 8/6/15 30/40/15 5/7/15
f 13/41/15 5/7/15 30/40/15
f 20/3/16 1/2/16 28/1/16
f 1/2/16 20/3/16 3/4/16
f 28/1/17 1/2/17 20/3/17
f 3/4/17 20/3/17 1/2/17
f 31/14/18 7/13/18 24/12/18
f 23/15/18 24/12/18 7/13/18
f 27/8/19 33/5/19 32/6/19
f 12/7/19 32/6/19 33/5/19
f 8/43/20 6/32/20 17/42/20
f 16/44/20 17/42/20 6/32/20
f 30/46/21 32/8/21 13/45/21
f 12/5/21 13/45/21 32/8/21
f 19/3/22 28/2/22 29/1/22
f 28/2/22 19/3/22 20/4/22
f 29/1/23 28/2/23 19/3/23
f 20/4/23 19/3/23 28/2/23
f 18/44/24 22/42/24 32/32/24
f 27/43/24 32/32/24 22/42/24
f 33/38/25 25/15/25 12/39/25
f 14/37/25 12/39/25 25/15/25
f 5/14/26 13/13/26 10/37/26
f 9/47/26 10/37/26 13/13/26
f 8/32/27 17/29/27 30/30/27
f 15/31/27 30/30/27 17/29/27
f 26/46/28 6/8/28 31/45/28
f 7/5/28 31/45/28 6/8/28
f 33/14/29 31/13/29 25/37/29
f 24/47/29 25/37/29 31/13/29
f 6/43/30 26/49/30 16/48/30
f 21/50/30 16/48/30 26/49/30
f 30/49/31 15/50/31 32/43/31
f 18/48/31 32/43/31 15/50/31
f 27/6/32 26/40/32 33/7/32
f 31/41/32 33/7/32 26/40/32
f 2/1/33 19/4/33 29/2/33
f 19/4/33 2/1/33 4/3/33
f 29/2/34 19/4/34 2/1/34
f 4/3/34 2/1/34 19/4/34

usemtl leafsDark

f 5/5/19 6/6/19 7/7/19
f 6/6/19 5/5/19 8/8/19
f 9/9/35 10/10/35 11/11/35
f 9/12/36 12/13/36 13/14/36
f 12/13/36 9/12/36 14/15/36
f 14/16/37 9/17/37 11/18/37
f 15/19/12 16/20/12 17/21/12
f 16/20/12 15/19/12 3/22/12
f 3/22/12 15/19/12 4/23/12
f 4/23/12 15/19/12 18/24/12
f 4/23/12 18/24/12 19/25/12
f 20/26/12 16/20/12 3/22/12
f 16/20/12 20/26/12 21/27/12
f 21/27/12 20/26/12 19/25/12
f 21/27/12 19/25/12 22/28/12
f 22/28/12 19/25/12 18/24/12
f 11/18/38 23/16/38 24/17/38
f 14/17/39 11/18/39 25/9/39
f 22/29/40 26/30/40 21/31/40
f 26/30/40 22/29/40 27/32/40
f 25/10/41 11/11/41 24/9/41
f 23/37/42 5/38/42 7/39/42
f 5/38/42 23/37/42 10/15/42
f 11/18/43 10/9/43 23/17/43
f 5/7/32 30/40/32 8/6/32
f 30/40/32 5/7/32 13/41/32
f 24/12/44 7/13/44 31/14/44
f 7/13/44 24/12/44 23/15/44
f 32/6/3 33/5/3 27/8/3
f 33/5/3 32/6/3 12/7/3
f 17/42/45 6/32/45 8/43/45
f 6/32/45 17/42/45 16/44/45
f 13/45/28 32/8/28 30/46/28
f 32/8/28 13/45/28 12/5/28
f 32/32/46 22/42/46 18/44/46
f 22/42/46 32/32/46 27/43/46
f 12/39/47 25/15/47 33/38/47
f 25/15/47 12/39/47 14/37/47
f 10/37/48 13/13/48 5/14/48
f 13/13/48 10/37/48 9/47/48
f 30/30/49 17/29/49 8/32/49
f 17/29/49 30/30/49 15/31/49
f 31/45/21 6/8/21 26/46/21
f 6/8/21 31/45/21 7/5/21
f 25/37/50 31/13/50 33/14/50
f 31/13/50 25/37/50 24/47/50
f 16/48/51 26/49/51 6/43/51
f 26/49/51 16/48/51 21/50/51
f 32/43/52 15/50/52 30/49/52
f 15/50/52 32/43/52 18/48/52
f 33/7/15 26/40/15 27/6/15
f 26/40/15 33/7/15 31/41/15

