# Created by Kenney (www.kenney.nl)

mtllib tree_pineRoundD.mtl

g tree_pineRoundD

v -0.1969576 0.3774601 -0.124306
v -0.1146971 0.560056 -0.07105117
v -0.1969576 0.3703165 0.1030087
v -0.1182661 0.5478442 0.0631328
v 5.775291E-15 0.3667446 0.2166661
v 5.775291E-15 0.541449 0.1334058
v 0.1969576 0.3703165 0.1030087
v 0.1182661 0.5478442 0.0631328
v -0.113743 0.7071612 -0.06336613
v -0.0634323 0.8706217 -0.01165667
v -0.113743 0.6893365 0.0667578
v -0.064508 0.8570178 0.06103597
v 5.775291E-15 0.6804242 0.1318198
v 5.775291E-15 0.8500412 0.09831475
v 0.113743 0.6893365 0.0667578
v 0.064508 0.8570178 0.06103597
v -0.2401921 0.1913106 -0.138675
v -0.1493254 0.376263 -0.08621305
v -0.2401921 0.1913106 0.138675
v -0.1520116 0.3707955 0.0877639
v 0.2401921 0.1913106 -0.138675
v 0.2401921 0.1913106 0.138675
v 0.1493254 0.376263 -0.08621305
v 0.1520116 0.3707955 0.0877639
v 5.775291E-15 0.7160738 -0.1284281
v 2.887646E-15 0.8772553 -0.04710137
v 5.775291E-15 0.1913106 -0.27735
v 5.775291E-15 0.3789249 -0.170916
v 5.775291E-15 0.1913106 0.27735
v 5.775291E-15 0.3679874 0.1771209
v 0.113743 0.7071612 -0.06336613
v 0.0634323 0.8706217 -0.01165667
v 0.1969576 0.3774601 -0.124306
v 0.1146971 0.560056 -0.07105117
v 5.775291E-15 0.381032 -0.2379634
v 2.887646E-15 0.5658895 -0.1351513
v -0.0568715 0.6720484 -0.1013174
v -0.113743 0.6586797 -0.00372445
v 0.005 0.8475752 0.1114911
v -0.03537875 0.8239912 0.08336008
v -0.07575753 0.8561523 0.0656614
v 0.09847877 0.3224482 0.1583892
v -0.09847877 0.3331637 -0.1825829
v -0.2401921 0.1401962 -2.887646E-15
v 0.1200961 0.1401962 0.2080125
v 0.0568715 0.6720484 -0.1013174
v -0.1969576 0.3278059 -0.01209684
v 0.1477182 0.5617782 -0.0899747
v 0.1477182 0.5463189 0.07989354
v 0.08246905 0.7038532 -0.03921758
v 0.08442327 0.690763 0.05634462
v -0.07575753 0.8368565 0.01461547
v -0.07575753 0.8733058 -0.02599807
v -0.0568715 0.6453112 0.0938685
v 0.1200961 0.1401962 -0.2080125
v -0.1200961 0.1401962 0.2080125
v 0.0568715 0.6453112 0.0938685
v 0.08575752 0.8733058 -0.02599807
v 0.01890838 1.08024 0.051994
v 0.005 0.8818825 -0.0718278
v 0.005 1.081717 0.044101
v 0.09847877 0.3331637 -0.1825829
v 0.1969576 0.3278059 -0.01209684
v 0.08575752 0.8368565 0.01461547
v 0.08575752 0.8561523 0.0656614
v 0.005 1.075808 0.07567292
v 0.01890838 1.077286 0.06777995
v -0.09847877 0.3224482 0.1583892
v -0.1477182 0.519612 -0.008174553
v -0.1477182 0.5617782 -0.0899747
v -0.1477182 0.5463189 0.07989354
v 0.07385907 0.5080177 0.1192266
v 5.775291E-15 0.5385892 0.1648277
v -0.1200961 0.1401962 -0.2080125
v -0.07385907 0.5312065 -0.1355757
v 5.775291E-15 0.5695078 -0.1749088
v 0.1477182 0.519612 -0.008174553
v 0.0797011 0.1913106 0.04601544
v 5.775291E-15 0.1913106 0.09203089
v -0.0797011 0.1913106 0.04601544
v -0.0797011 0.1913106 -0.04601544
v 0.0797011 0.1913106 -0.04601544
v 5.775291E-15 0.1913106 -0.09203089
v -0.008908383 1.077286 0.06777995
v 0.04537875 0.8497218 -0.05412912
v 0.2401921 0.1401962 -2.165734E-15
v -0.008908383 1.08024 0.051994
v 5.775291E-15 0.7101737 -0.0853586
v 2.887646E-15 0.6839823 0.1058445
v 0.04537875 0.8239912 0.08336008
v 0.07385907 0.5312065 -0.1355757
v -0.08246905 0.7038532 -0.03921758
v -0.08442327 0.690763 0.05634462
v -0.03537875 0.8497218 -0.05412912
v -0.07385907 0.5080177 0.1192266
v 0.113743 0.6586797 -0.00372445
v 0.1036114 0 0.05982007
v 0.1036114 0 -0.05982007
v 0 0 0.1196401
v 0 0 -0.1196401
v -0.1036114 0 0.05982007
v -0.1036114 0 -0.05982007

vn -0.9130678 0.4076065 0.0128096
vn 0.4565341 0.3827686 0.8031593
vn -0.9584161 0.2827341 0.03872969
vn 0.4792081 0.1700885 0.8610629
vn -0.8975295 0.4409544 0
vn 0.8975295 0.4409544 0
vn -0.4792086 0.3953798 -0.7836031
vn -0.4565341 0.3827686 0.8031593
vn 0.4487647 0.4409544 -0.7772834
vn 0.4487647 0.4409544 0.7772834
vn 0.4792086 0.3953798 -0.7836031
vn 0.4565339 0.4324441 -0.7775403
vn -0.5000002 0.1175335 -0.8580126
vn -1 0 0
vn -0.5000003 -0.1593066 0.8512469
vn -0.4792081 0.1700885 0.8610629
vn -0.4487647 0.4409544 0.7772834
vn -0.4487647 0.4409544 -0.7772834
vn 0.9130678 0.4076065 0.0128096
vn -0.4565339 0.4324441 -0.7775403
vn 0.5 -0.02720274 0.8655981
vn -0.4999999 0.02720259 -0.8655981
vn 0.5 0 0.8660254
vn 0.5000002 0.1175335 -0.8580126
vn 0.9130678 0.4061293 0.03696058
vn 0 -0.9995066 -0.03141078
vn -0.4999999 -0.1175325 0.8580129
vn 0.5 0 -0.8660254
vn -0.5 0 0.8660254
vn 0.4999999 -0.1175325 0.8580129
vn 0.477982 0.4407648 -0.7597761
vn 0.4999999 0.02720259 -0.8655981
vn 1 0 0
vn 0.477982 0.1361818 0.8677487
vn -0.5 -0.02720274 0.8655981
vn 0.5000001 -0.0784912 0.8624611
vn 0 -0.9829353 -0.1839513
vn -0.5 0 -0.8660254
vn -0.5 0.07849035 -0.8624612
vn 0 -1 0
vn -0.477982 0.1361818 0.8677487
vn 0.4999998 0.1593067 -0.851247
vn -0.9559647 0.2884734 0.05398602
vn 0 0.9829353 0.1839513
vn 0.9559647 0.2884734 0.05398602
vn 0.4565337 0.4777963 -0.750525
vn 0.4565338 0.3344624 0.8244464
vn 0.5000003 -0.1593064 0.8512469
vn 0.5 0.07849035 -0.8624612
vn -0.477982 0.4407648 -0.7597761
vn -0.4565337 0.4777963 -0.750525
vn 0 -0.9907479 -0.1357154
vn 0.9584161 0.2827341 0.03872969
vn -0.4999998 0.1593066 -0.851247
vn -0.9130678 0.4061293 0.03696058
vn -0.5000001 -0.0784912 0.8624611
vn -0.4565338 0.3344624 0.8244464
vn 0 -0.9958844 -0.09063265
vn 0.4961401 0.1240169 0.8593398
vn -0.4961401 0.1240169 -0.8593398
vn 0.4961401 0.1240169 -0.8593398
vn 0.9922801 0.1240169 0
vn -0.9922801 0.1240169 0
vn -0.4961401 0.1240169 0.8593398

vt -5.002231 10.43772
vt -2.860359 18.3102
vt 3.946288 10.12973
vt 2.419983 17.7837
vt -4.215331 10.50062
vt -2.595466 17.94573
vt 4.737195 10.65284
vt 2.819621 18.21827
vt -2.673507 25.46844
vt -0.5593851 32.17764
vt 2.445305 24.73683
vt 2.298486 31.61927
vt -2.523746 25.6267
vt -1.882279 32.40328
vt 2.634809 25.98277
vt 1.050604 32.68201
vt -5.459646 2.590279
vt -3.394215 10.70321
vt 5.459646 2.590279
vt 3.455272 10.46338
vt 5.459646 2.590279
vt -5.459646 2.590279
vt 3.394215 10.70321
vt -3.455272 10.46338
vt 2.518769 23.80724
vt -2.637931 24.18925
vt 1.891089 30.81358
vt -0.9674688 31.09791
vt 4.215331 10.50062
vt -4.737195 10.65284
vt 2.595466 17.94573
vt -2.819621 18.21827
vt 5.459646 2.59028
vt -5.459646 2.59028
vt 3.364489 10.81997
vt -3.394215 10.70321
vt 3.455272 10.46338
vt -3.486631 10.3402
vt -2.518769 23.80724
vt -1.891089 30.81358
vt 2.637931 24.18925
vt 0.9674688 31.09791
vt -4.20888 9.876381
vt -2.477682 17.84924
vt 4.743581 10.03234
vt 2.694116 18.10395
vt 2.612986 27.12969
vt -0.07382926 25.73765
vt -2.545758 27.48302
vt -0.1466319 25.93227
vt -2.49473 27.84099
vt 2.62826 27.13923
vt 2.392835 33.53001
vt 0.4611652 32.5895
vt -1.262487 33.87206
vt 2.523746 25.6267
vt -2.634809 25.98277
vt 1.882279 32.40328
vt -1.050604 32.68201
vt 3.486631 10.3402
vt -3.455272 10.46338
vt 3.394215 10.70321
vt -3.364489 10.81997
vt 5.002231 10.43772
vt -3.946288 10.12973
vt 2.860359 18.3102
vt -2.419983 17.7837
vt 4.20888 9.876381
vt -4.743581 10.03234
vt 2.477682 17.84924
vt -2.694116 18.10395
vt 0.2382151 12.88975
vt -4.26666 14.63435
vt 4.686054 14.77503
vt 4.266661 14.63435
vt -0.2382149 12.88975
vt -4.686053 14.77503
vt -1.136868E-13 5.519537
vt -5.459646 7.531912
vt 5.459646 7.531912
vt 5.459646 7.531914
vt 5.177688E-07 5.519539
vt -5.459645 7.531914
vt 0.07382926 25.73765
vt -2.612986 27.12969
vt 2.545758 27.48302
vt -0.4762537 12.90574
vt -4.893938 14.86063
vt 4.055461 14.57939
vt 3.774636 17.90929
vt -2.907618 17.24326
vt 1.674058 24.03034
vt -2.082043 23.46637
vt 0.575412 32.94711
vt -1.023546 34.38212
vt 2.585094 33.70678
vt -7.754236 5.358306
vt -5.984706 -2.995025
vt -7.754235 -3.595512
vt 1.347097E-06 -8.07242
vt 1.101228E-06 -6.514752
vt 7.754236 -3.595509
vt 5.984707 -2.995023
vt -5.878953 3.857843
vt -1.47951E-06 9.835217
vt -1.062651E-06 7.194252
vt 5.878952 3.857845
vt 7.754234 5.358308
vt 2.612987 27.1297
vt -0.07382814 25.73765
vt -2.545757 27.48302
vt 5.459645 7.531914
vt -5.177688E-07 5.519539
vt -5.459646 7.531914
vt -5.177685E-07 5.519539
vt 0.07382814 25.73765
vt -2.612987 27.1297
vt 2.545757 27.48302
vt -2.312754 29.68787
vt -1.720131 38.76408
vt 1.339212 30.06405
vt -1.091175 38.82886
vt 0.2382149 12.88975
vt -4.266661 14.63435
vt 4.686053 14.77503
vt 4.893938 14.86063
vt 0.4762537 12.90574
vt -4.055461 14.57939
vt 1.023546 34.38212
vt -0.575412 32.94711
vt -2.585094 33.70678
vt -1.945368 32.52172
vt -1.264996 41.59177
vt 1.710065 32.86257
vt -0.6354424 41.65047
vt 4.26666 14.63435
vt -0.2382151 12.88975
vt -4.686054 14.77503
vt -0.3218328 20.45716
vt -3.542311 22.11725
vt 3.145415 21.50862
vt 0.1614138 20.37221
vt -3.254681 21.57954
vt 3.453742 21.8848
vt -3.37628 7.330717
vt -2.539686 3.844691
vt -3.376282 3.659428
vt -0.1968533 1.82378
vt -2.52964E-06 2.351542
vt 2.982578 3.659424
vt 2.539683 3.844688
vt -2.497334 6.756291
vt -0.1968485 9.166359
vt 1.211919E-06 8.175979
vt 2.98258 7.330713
vt 2.497335 6.756288
vt 5.177684E-07 5.519539
vt 3.254681 21.57954
vt -0.1614145 20.3722
vt -3.453742 21.88479
vt 3.542311 22.11725
vt 0.3218328 20.45716
vt -3.145415 21.50862
vt 9.456384 5.459646
vt 9.456384 -5.459646
vt 2.273737E-13 10.91929
vt 3.137838 1.811632
vt 2.273737E-13 3.623263
vt -9.456384 5.459646
vt -3.137838 1.811632
vt -3.137838 -1.811632
vt 3.137838 -1.811632
vt 2.273737E-13 -10.91929
vt 2.273737E-13 -3.623263
vt -9.456384 -5.459646
vt 2.290213 32.54758
vt -1.36522 32.88844
vt 1.609841 41.61763
vt 0.9802883 41.67634
vt -0.4611641 32.5895
vt -2.392834 33.53002
vt 1.262487 33.87206
vt 8.526513E-14 5.519537
vt -1.190085 32.07808
vt 2.023977 40.58681
vt 2.412815 31.37276
vt 2.644482 40.46534
vt 0.7444245 5.81121
vt 0.7444245 5.178926
vt 0.1968504 6.127352
vt 0.1968504 4.862783
vt -0.3507237 5.81121
vt -0.3507237 5.178926
vt 1.212283 31.96469
vt -2.390617 31.25937
vt -2.001779 40.47342
vt -2.622284 40.35195
vt -3.127738 16.53929
vt -1.971525 22.90661
vt 3.578686 16.8857
vt 1.746462 23.18988
vt -3.143619 18.08438
vt -2.018682 24.15832
vt 3.563978 18.4073
vt 1.833099 24.44159
vt -0.1216933 32.62127
vt -2.053363 33.56178
vt 1.601959 33.90383
vt 0.1614145 20.3722
vt -3.254681 21.57954
vt 3.453742 21.88479
vt 1.979514 29.78028
vt -1.672452 30.15645
vt 1.386891 38.85648
vt 0.7579339 38.92126
vt 3.127738 16.53929
vt -3.578686 16.8857
vt 1.971525 22.90661
vt -1.746462 23.18988
vt -4.478069 6.250098
vt -3.323751 1.493064
vt -4.47807 1.079268
vt -1.060844E-06 -1.506147
vt -8.518034E-07 -0.4739493
vt 4.478069 1.079266
vt 3.32375 1.493063
vt -3.246813 5.290489
vt 1.033549E-06 8.835514
vt 6.869391E-07 7.124028
vt 3.246813 5.290488
vt 4.47807 6.250097
vt 2.673507 25.46844
vt -2.445305 24.73683
vt 0.5593851 32.17764
vt -2.298486 31.61927
vt 2.053363 33.56178
vt 0.1216922 32.62127
vt -1.601959 33.90382
vt -3.774636 17.90929
vt -1.674058 24.03034
vt 2.907618 17.24326
vt 2.082043 23.46637
vt 3.254681 21.57954
vt -0.1614138 20.37221
vt -3.453742 21.8848
vt 3.143619 18.08438
vt -3.563978 18.4073
vt 2.018682 24.15832
vt -1.833099 24.44159
vt 2.49473 27.84099
vt 0.1466319 25.93227
vt -2.62826 27.13923
vt -5.815676 5.532278
vt -4.656145 -0.5204877
vt -5.815676 -1.183086
vt -1.325392E-07 -4.540769
vt -1.072727E-07 -3.298575
vt 5.815676 -1.183087
vt 4.656145 -0.5204879
vt -4.515633 4.784178
vt 1.406451E-07 8.889959
vt 1.086759E-07 7.318233
vt 5.815676 5.532278
vt 4.515633 4.784178
vt 4.07919 2.355121
vt 4.07919 -2.355121
vt 0 4.710242
vt 0 -4.710242
vt -4.07919 2.355121
vt -4.07919 -2.355121
vt 2.355122 -0.5058884
vt -2.355121 -0.5058884
vt 1.811632 7.084621
vt -1.811632 7.084621
vt 2.355121 -0.5058884
vt -2.355122 -0.5058884
vt 1.811632 7.084621
vt -1.811632 7.084621
vt 2.355121 -0.5058885
vt -2.355121 -0.5058885
vt 1.811632 7.084621
vt -1.811632 7.084621

usemtl leafsDark

f 3/3/1 2/2/1 1/1/1
f 2/2/1 3/3/1 4/4/1
f 7/7/2 6/6/2 5/5/2
f 6/6/2 7/7/2 8/8/2
f 11/11/3 10/10/3 9/9/3
f 10/10/3 11/11/3 12/12/3
f 15/15/4 14/14/4 13/13/4
f 14/14/4 15/15/4 16/16/4
f 19/19/5 18/18/5 17/17/5
f 18/18/5 19/19/5 20/20/5
f 23/23/6 22/22/6 21/21/6
f 22/22/6 23/23/6 24/24/6
f 10/27/7 25/26/7 9/25/7
f 25/26/7 10/27/7 26/28/7
f 6/31/8 3/30/8 5/29/8
f 3/30/8 6/31/8 4/32/8
f 28/35/9 21/34/9 27/33/9
f 21/34/9 28/35/9 23/36/9
f 24/37/10 29/22/10 22/19/10
f 29/22/10 24/37/10 30/38/10
f 25/41/11 32/40/11 31/39/11
f 32/40/11 25/41/11 26/42/11
f 35/45/12 34/44/12 33/43/12
f 34/44/12 35/45/12 36/46/12
f 25/49/13 37/48/13 9/47/13
f 11/52/14 9/51/14 38/50/14
f 41/55/15 40/54/15 39/53/15
f 14/58/16 11/57/16 13/56/16
f 11/57/16 14/58/16 12/59/16
f 30/60/17 19/22/17 29/19/17
f 19/22/17 30/60/17 20/61/17
f 18/62/18 27/34/18 17/33/18
f 27/34/18 18/62/18 28/63/18
f 34/66/19 7/65/19 33/64/19
f 7/65/19 34/66/19 8/67/19
f 2/70/20 35/69/20 1/68/20
f 35/69/20 2/70/20 36/71/20
f 7/74/21 5/73/21 42/72/21
f 35/77/22 43/76/22 1/75/22
f 19/80/14 17/79/14 44/78/14
f 29/83/23 45/82/23 22/81/23
f 25/86/24 31/85/24 46/84/24
f 3/89/14 1/88/14 47/87/14
f 50/92/25 49/91/25 48/90/25
f 49/91/25 50/92/25 51/93/25
f 41/96/14 53/95/14 52/94/14
f 7/99/26 24/98/26 33/97/26
f 24/98/26 7/99/26 5/100/26
f 24/98/26 5/100/26 30/101/26
f 30/101/26 5/100/26 3/102/26
f 30/101/26 3/102/26 20/103/26
f 23/104/26 33/97/26 24/98/26
f 33/97/26 23/104/26 35/105/26
f 35/105/26 23/104/26 28/106/26
f 35/105/26 28/106/26 18/107/26
f 35/105/26 18/107/26 1/108/26
f 1/108/26 18/107/26 20/103/26
f 1/108/26 20/103/26 3/102/26
f 11/111/27 54/110/27 13/109/27
f 21/114/28 55/113/28 27/112/28
f 19/114/29 56/115/29 29/112/29
f 15/118/30 13/117/30 57/116/30
f 60/121/31 59/120/31 58/119/31
f 59/120/31 60/121/31 61/122/31
f 35/125/32 33/124/32 62/123/32
f 7/128/33 63/127/33 33/126/33
f 65/131/33 64/130/33 58/129/33
f 65/134/34 66/133/34 39/132/34
f 66/133/34 65/134/34 67/135/34
f 3/138/35 68/137/35 5/136/35
f 71/141/14 70/140/14 69/139/14
f 49/144/36 73/143/36 72/142/36
f 65/147/37 16/146/37 58/145/37
f 16/146/37 65/147/37 39/148/37
f 16/146/37 39/148/37 14/149/37
f 14/149/37 39/148/37 41/150/37
f 14/149/37 41/150/37 12/151/37
f 32/152/37 58/145/37 16/146/37
f 58/145/37 32/152/37 60/153/37
f 60/153/37 32/152/37 26/154/37
f 60/153/37 26/154/37 53/155/37
f 53/155/37 12/151/37 41/150/37
f 53/155/37 26/154/37 10/156/37
f 53/155/37 10/156/37 12/151/37
f 27/83/38 74/157/38 17/81/38
f 76/160/39 75/159/39 70/158/39
f 49/163/33 77/162/33 48/161/33
f 29/166/40 21/165/40 22/164/40
f 21/165/40 29/166/40 78/167/40
f 78/167/40 29/166/40 79/168/40
f 79/168/40 29/166/40 19/169/40
f 79/168/40 19/169/40 80/170/40
f 80/170/40 19/169/40 81/171/40
f 82/172/40 21/165/40 78/167/40
f 21/165/40 82/172/40 27/173/40
f 27/173/40 82/172/40 83/174/40
f 27/173/40 83/174/40 81/171/40
f 27/173/40 81/171/40 17/175/40
f 17/175/40 81/171/40 19/169/40
f 66/178/41 41/177/41 39/176/41
f 41/177/41 66/178/41 84/179/41
f 60/182/42 58/181/42 85/180/42
f 22/79/33 86/183/33 21/80/33
f 41/186/43 87/185/43 53/184/43
f 87/185/43 41/186/43 84/187/43
f 61/190/44 67/189/44 59/188/44
f 67/189/44 61/190/44 66/191/44
f 66/191/44 61/190/44 87/192/44
f 66/191/44 87/192/44 84/193/44
f 59/196/45 65/195/45 58/194/45
f 65/195/45 59/196/45 67/197/45
f 76/200/46 50/199/46 48/198/46
f 50/199/46 76/200/46 88/201/46
f 49/204/47 89/203/47 73/202/47
f 89/203/47 49/204/47 51/205/47
f 65/208/48 39/207/48 90/206/48
f 76/211/49 48/210/49 91/209/49
f 87/214/50 60/213/50 53/212/50
f 60/213/50 87/214/50 61/215/50
f 92/218/51 76/217/51 70/216/51
f 76/217/51 92/218/51 88/219/51
f 15/222/52 51/221/52 31/220/52
f 51/221/52 15/222/52 13/223/52
f 51/221/52 13/223/52 89/224/52
f 89/224/52 13/223/52 11/225/52
f 89/224/52 11/225/52 93/226/52
f 50/227/52 31/220/52 51/221/52
f 31/220/52 50/227/52 25/228/52
f 25/228/52 50/227/52 88/229/52
f 25/228/52 88/229/52 92/230/52
f 25/228/52 92/230/52 9/231/52
f 9/231/52 92/230/52 93/226/52
f 9/231/52 93/226/52 11/225/52
f 32/234/53 15/233/53 31/232/53
f 15/233/53 32/234/53 16/235/53
f 60/238/54 94/237/54 53/236/54
f 71/241/55 92/240/55 70/239/55
f 92/240/55 71/241/55 93/242/55
f 71/245/56 95/244/56 73/243/56
f 89/248/57 71/247/57 73/246/57
f 71/247/57 89/248/57 93/249/57
f 15/252/33 96/251/33 31/250/33
f 49/255/58 8/254/58 48/253/58
f 8/254/58 49/255/58 73/256/58
f 8/254/58 73/256/58 6/257/58
f 6/257/58 73/256/58 71/258/58
f 6/257/58 71/258/58 4/259/58
f 34/260/58 48/253/58 8/254/58
f 48/253/58 34/260/58 76/261/58
f 76/261/58 34/260/58 36/262/58
f 76/261/58 36/262/58 70/263/58
f 70/263/58 4/259/58 71/258/58
f 70/263/58 36/262/58 2/264/58
f 70/263/58 2/264/58 4/259/58

usemtl woodBarkDark

f 99/267/40 98/266/40 97/265/40
f 98/266/40 99/267/40 100/268/40
f 100/268/40 99/267/40 101/269/40
f 100/268/40 101/269/40 102/270/40
f 78/273/59 99/272/59 97/271/59
f 99/272/59 78/273/59 79/274/59
f 81/273/60 100/272/60 102/271/60
f 100/272/60 81/273/60 83/274/60
f 83/277/61 98/276/61 100/275/61
f 98/276/61 83/277/61 82/278/61
f 82/281/62 97/280/62 98/279/62
f 97/280/62 82/281/62 78/282/62
f 101/279/63 81/282/63 102/280/63
f 81/282/63 101/279/63 80/281/63
f 79/277/64 101/276/64 99/275/64
f 101/276/64 79/277/64 80/278/64

