# Created by Kenney (www.kenney.nl)

mtllib tree_pineRoundB.mtl

g tree_pineRoundB

v -0.04298025 0.1715721 -0.0535698
v -0.05253707 0.0826152 -0.02787504
v -0.05613467 0.049128 -0.06672423
v -0.05613467 0.049128 0.06672422
v -0.05253707 0.0826152 0.02787503
v -0.04358205 0.1659704 0.0541716
v -0.04596378 0.1438008 -0.02130174
v -0.04596378 0.1438008 0.02130174
v 0.03606283 1.078102 -0.02547326
v 0.03426335 1.137084 -0.02367381
v -0.01486257 1.078795 -0.02545212
v -0.01300452 1.139698 -0.02359407
v -0.03854992 0.3023762 -0.04913947
v -0.03537845 0.40633 -0.045968
v -0.03870607 0.2972586 0.04929562
v -0.03520365 0.4120598 0.0457932
v -0.1152755 0.1024309 -0.01561002
v -0.1115944 0.1366948 -0.01192898
v 0.07731377 0.049128 -0.06672423
v 0.06415935 0.1715721 -0.0535698
v -0.1152755 0.1024309 0.01561001
v 0.03592367 1.082663 0.02533412
v -0.01472367 1.083348 0.02531321
v 0.0343581 1.133979 0.02376855
v -0.01309861 1.136614 0.02368816
v 0.1 0 -0.08941045
v 0.1 0 0.08941045
v 0.07731377 0.049128 0.06672422
v -0.01965516 0.9217045 0.03024472
v -0.01718919 1.002533 0.02777873
v 0.04072705 0.9252186 0.0301375
v 0.03839124 1.001781 0.02780169
v -0.02479597 0.7532004 -0.03538552
v -0.02270414 0.8217657 -0.03329369
v -0.02499751 0.7465944 0.03558706
v -0.02277251 0.8195247 0.03336206
v 0.05285546 0.5276766 -0.04226591
v 0.04962905 0.6334305 -0.03903951
v -0.0315832 0.5307298 -0.04217275
v -0.02841732 0.6345007 -0.03900687
v 0.04620656 0.7456122 0.03561701
v 0.04383335 0.8234008 0.0332438
v 0.04600468 0.7522295 -0.03541514
v 0.04376546 0.8256261 -0.03317592
v 0.05269437 0.5329565 0.04210482
v -0.03142282 0.5359867 0.04201237
v 0.0498516 0.6261361 0.03926205
v -0.02863948 0.6272187 0.03922903
v 0.0406655 0.9272361 -0.03007596
v 0.03854392 0.9967765 -0.02795438
v 0.06476115 0.1659704 0.0541716
v 0.05972901 0.3023762 -0.04913947
v 0.05665909 0.4030019 -0.04606955
v -0.1115944 0.1366948 0.01192897
v -0.0788209 0 0.08941045
v -0.0788209 0 -0.08941045
v 0.05988516 0.2972586 0.04929562
v 0.0564835 0.4087569 0.04589394
v -0.01959317 0.9237362 -0.03018272
v -0.01734162 0.997537 -0.02793117
v 0.02849725 0.989036 -0.1157399
v 0.1256527 0.9946492 -0.03848735
v 0.02166093 1.074254 -0.07053687
v 0.07669947 1.077434 -0.02677326
v 0.1884865 0.8328924 0.0010074
v 0.1009772 0.8328924 -0.150563
v 0.101297 0.8227423 0.1523933
v -0.07340176 0.8125923 0.1522087
v -0.07372152 0.8227423 -0.1507477
v -0.160911 0.8125923 0.0006381826
v 0.1096626 0.7544694 -0.06886834
v -0.006738559 0.7603357 -0.1146765
v -0.1049316 0.7544694 -0.03717983
v -0.08672357 0.742737 0.08612488
v 0.02967755 0.7368709 0.131933
v 0.1278706 0.742737 0.05443637
v 0.2765027 0.1768101 -0.1543164
v 0.1612293 0.3040062 -0.08049005
v 0.01058955 0.1847804 -0.3076168
v 0.01058955 0.3085215 -0.1673347
v 0.06621963 1.083794 0.04252141
v -0.04385744 1.077434 -0.0450058
v 0.0007012681 1.086973 0.06805246
v -0.05433728 1.083794 0.02428886
v -0.04218261 0.9241404 -0.08134893
v 0.0567842 0.9298904 -0.08124436
v -0.04200147 0.9183905 0.09027582
v 0.05696534 0.9241404 0.09038042
v -0.08715743 0.9946492 -0.07067186
v 0.1071534 1.005876 0.08383331
v -0.09157548 0.9183905 0.004411158
v 0.1063582 0.9298904 0.004620318
v -0.02243171 0.6513608 -0.2209503
v -0.1957646 0.6410057 -0.08415136
v 0.2765027 0.1608694 0.1522843
v 0.1612293 0.2949758 0.09319923
v -0.1056567 1.005876 0.05164882
v 0.01058955 0.152899 0.3055847
v 0.01058955 0.2904607 0.1800439
v -0.2553236 0.1608694 0.1522843
v -0.1400502 0.2949758 0.09319923
v -0.2553236 0.1768101 -0.1543164
v -0.1400502 0.3040062 -0.08049005
v 0.04185092 0.6099404 0.2143708
v -0.1636233 0.6202955 0.1335092
v -0.008501269 1.011489 0.1289014
v 0.1624961 0.5262777 -0.001340322
v 0.2720465 0.3985571 0.007183045
v 0.08791086 0.5370452 0.1278452
v 0.1403867 0.4175642 0.2352246
v 0.1830425 0.6410057 -0.1400887
v 0.2151838 0.6202955 0.07757188
v -0.07277558 1.143324 -0.02838852
v -0.006435506 1.143324 -0.084649
v -0.03402861 1.195917 -0.0118495
v 0.003553041 1.195917 -0.04372106
v 0.09062473 1.130466 0.0298005
v 0.02428465 1.130466 0.08606099
v 0.05853766 1.188633 0.02111458
v 0.02095601 1.188633 0.05298613
v 0.07526466 1.136895 -0.0555545
v 0.04983617 1.192275 -0.02723902
v 0.08759507 0.5208941 -0.1307082
v -0.06189138 0.5262777 -0.1308905
v -0.06157556 0.5424291 0.1276629
v -0.1364767 0.5370452 -0.001704989
v -0.1234905 0.4270678 0.2349027
v -0.05741552 1.136895 0.05696648
v 0.1398292 0.3890536 -0.2211804
v -0.124048 0.3985571 -0.2215022
v -0.2557079 0.4175642 0.006539326
v -0.02532713 1.192275 0.03650412

vn -0.9942787 0.1068174 0
vn 0 0.03049408 -0.999535
vn -0.999535 0.0304943 0
vn -0.153237 0.1218161 -0.9806525
vn 0 0.1068174 -0.9942787
vn -0.3011808 -0.953567 0
vn 0 0.03049422 0.999535
vn 0.9078766 0.4192374 0
vn 0 0.03049436 0.999535
vn -0.999535 0.03049441 0
vn 0 0.0304943 -0.999535
vn 0 0.0304943 0.999535
vn 0 0.03049435 -0.999535
vn 0 0.03049428 0.999535
vn 0.999535 0.03049427 0
vn 0.9942787 0.1068174 0
vn 0 0.03049417 -0.999535
vn -0.9942787 0.1068174 0
vn -0.1076428 0.9941896 0
vn -0.999535 0.03049421 0
vn 0 0.4192376 0.9078766
vn 0.999535 0.03049443 0
vn 0 0.4192374 -0.9078766
vn 0 0.03049443 0.999535
vn 0.999535 0.03049427 0
vn -0.999535 0.03049408 0
vn 0 0.03049431 -0.999535
vn 0 0.1068174 0.9942787
vn -0.999535 0.03049424 0
vn -0.9078766 0.4192374 0
vn 0.999535 0.03049434 0
vn 0.999535 0.03049439 0
vn -0.153237 0.1218161 0.9806525
vn 0 -1 0
vn 0.5479102 0.4258797 -0.7200145
vn 0.0580054 -0.9977544 -0.03348944
vn 0.01369032 0.995599 0.09270944
vn 0.3744599 0.6953738 -0.6133801
vn 0.01351415 0.9959078 -0.08935912
vn -0.0323284 0.5713338 -0.8200809
vn -0.03063778 0.5117121 0.8586105
vn -0.3104925 0.4258797 -0.8498358
vn 0.8628778 0.4982531 0.0847693
vn -0.7588974 0.5117121 -0.4027722
vn 0.6940466 0.5713339 0.4380376
vn -0.4988036 0.6408729 -0.5835039
vn -0.7589136 0.4817331 0.438159
vn 0.7503762 0.6601195 0.03432071
vn -0.8493555 0.498253 -0.1741816
vn 0.3758814 0.6246638 0.6844767
vn -0.3758813 0.6246638 0.6844767
vn -0.7503762 0.6601195 0.03432071
vn -0.2951133 0.5003518 0.8139756
vn 0 -0.9986512 -0.05192159
vn 0 0.9986512 0.05192119
vn -0.3744599 0.6953738 -0.6133801
vn 0.3221962 0.5700056 0.7558328
vn 0.6921927 0.6009651 -0.3996377
vn -0.5312929 0.5700057 0.6267546
vn 0.6988574 0.6228955 0.3515673
vn 0.8182847 0.5709525 -0.06650806
vn -0.0135143 -0.9959078 0.08935904
vn -0.01369007 -0.9955992 -0.09270883
vn -0.05800553 0.9977544 0.03348923
vn -0.5258003 0.5823494 -0.6200024
vn 0.5852056 0.4258687 0.6900509
vn 0.3192273 0.5435144 -0.7763284
vn 0.0359976 0.997405 -0.06234968
vn 0.02337005 0.6739125 0.7384415
vn -0.05521332 -0.9963497 -0.06510498
vn -0.03599767 -0.997405 0.06234976
vn 0.05521312 0.9963497 0.06510507
vn 0.3088633 0.6408729 -0.7027697
vn 0.6996362 0.571482 -0.428856
vn -0.8025828 0.5709526 0.1728409
vn 0.8766266 0.4652607 -0.122712
vn 0.02158214 0.571482 -0.8203307
vn 0.5177826 0.5003517 0.6939375
vn -0.6511941 0.6739125 0.3489816
vn -0.2642399 0.4652606 0.8448135
vn -0.8180423 0.5435144 0.1881461
vn -0.6538948 0.6228956 -0.4294446
vn 0 1 0

vt -2.109047 6.53541
vt -1.097442 3.013018
vt -2.626938 1.687038
vt 2.626938 1.687038
vt 1.097442 3.013018
vt 2.13274 6.313603
vt -0.8386512 5.435761
vt 0.8386509 5.435761
vt -1.419796 42.39463
vt -1.348951 44.71784
vt 0.5851408 42.42192
vt 0.5119891 44.82081
vt -1.934625 11.85276
vt -1.809764 15.94733
vt 1.940773 11.65118
vt 1.802882 16.17302
vt 1.874159 3.057361
vt 1.658425 5.484317
vt 4.389111 3.843361
vt 4.2683 5.202456
vt 2.210027 1.642504
vt -3.043849 1.642504
vt 1.692136 6.490877
vt -2.525959 6.490877
vt 1.097442 2.951958
vt -1.097442 2.951958
vt 0.6145675 5.54225
vt -0.6145677 5.54225
vt 1.414318 42.57427
vt -0.579672 42.60127
vt 1.352681 44.59553
vt -0.5156935 44.69933
vt 3.520097 -1.650541
vt -3.520097 -1.650541
vt 2.626938 0.4798949
vt -2.626938 0.4798949
vt -0.773825 36.23439
vt -0.6767396 39.41812
vt 1.603427 36.37281
vt 1.511466 39.38849
vt -1.393131 29.61
vt -1.310775 32.31068
vt 1.401065 29.3498
vt 1.313467 32.2224
vt -2.080924 20.71426
vt -1.9539 24.87974
vt 1.243433 20.83453
vt 1.118792 24.92189
vt 1.819156 29.2984
vt -0.9841543 29.33708
vt 1.725722 32.36237
vt -0.8965558 32.20969
vt -1.811208 29.55905
vt -1.72305 32.45002
vt 0.9762195 29.59729
vt 0.8938638 32.29797
vt 2.074581 20.92224
vt -1.237119 21.04159
vt 1.962661 24.59243
vt -1.127539 24.63507
vt 1.184093 36.43956
vt -1.186516 36.3601
vt 1.100566 39.17865
vt -1.094555 39.37578
vt 2.626938 1.597971
vt -2.626938 1.597971
vt 2.109047 6.446343
vt -2.13274 6.224536
vt 1.517713 11.84004
vt -2.351536 11.84004
vt 1.392852 15.93462
vt -2.230673 15.80353
vt -0.6145677 3.52486
vt -0.4696447 4.881596
vt 0.6145675 3.52486
vt 0.4696445 4.881596
vt -0.8386512 -1.189669
vt 0.838651 -1.189669
vt -0.4696447 -3.788655
vt 0.4696445 -3.788655
vt -1.660344 20.84724
vt -1.535703 24.93461
vt 1.65403 21.0543
vt 1.54445 24.64778
vt 3.937008 -1.475757
vt -3.103185 -1.475757
vt 3.043849 0.6546795
vt -2.210027 0.6546795
vt 1.002884 42.38192
vt -0.9974064 42.56156
vt 0.93204 44.70513
vt -0.9357696 44.58282
vt 3.103185 -1.475756
vt -3.937008 -1.475756
vt 2.210027 0.6546797
vt -3.043849 0.6546797
vt 2.357684 11.63847
vt -1.523861 11.63847
vt 2.22376 16.03021
vt -1.385971 16.1603
vt 1.394297 29.54633
vt -1.402244 29.28569
vt 1.306139 32.43731
vt -1.308811 32.34966
vt -1.002052 42.43464
vt -0.9289004 44.83352
vt 0.9965832 42.61398
vt 0.9326047 44.71204
vt 0.7713842 36.31442
vt -1.601004 36.45227
vt 0.6827409 39.22131
vt -1.517478 39.19136
vt 3.043849 1.642504
vt -2.210027 1.642504
vt 2.549651 6.26907
vt -1.715829 6.26907
vt -1.188296 36.32713
vt -1.099653 39.23403
vt 1.190737 36.2471
vt 1.093651 39.43083
vt -3.520097 -1.300972
vt -2.626938 0.8294646
vt 3.520097 -1.300972
vt 2.626938 0.8294646
vt 1.934625 11.82733
vt -1.940772 11.62575
vt 1.813762 15.79081
vt -1.806848 16.0175
vt 1.664012 20.70155
vt -1.65767 20.90952
vt 1.536988 24.86703
vt -1.54575 24.57971
vt -1.874159 3.057361
vt -4.389111 3.843361
vt -1.658425 5.484317
vt -4.2683 5.202456
vt 3.937008 3.520097
vt 3.937008 -3.520097
vt -3.103185 3.520097
vt -3.103185 -3.520097
vt 1.866581 33.39704
vt -3.019143 33.64129
vt 1.003058 37.10516
vt -1.764704 37.24353
vt -3.744712 8.588628
vt 3.14578 8.588627
vt -7.189958 2.622424
vt -1.996325 3.009505
vt -3.744712 -3.343778
vt -0.6892178 0.7311015
vt 0.2696243 4.317603
vt 6.591026 2.622424
vt 1.582097 2.048512
vt 3.145781 -3.343778
vt 1.594793 1.105303
vt 1.995463 3.885238
vt 4.667195 4.826185
vt 0.397096 7.290619
vt -0.7622311 4.293081
vt -3.873013 4.826202
vt -1.178271 1.517807
vt -3.873022 -0.1026483
vt 0.3970766 -2.567081
vt 4.667186 -0.1026651
vt -6.125672 -2.547668
vt -3.766616 4.420585
vt 5.95468 -2.111022
vt 3.076901 4.667947
vt -2.828094 2.345953
vt -2.82809 5.11645
vt -0.4279429 0.9607
vt -1.253868 2.636984
vt 0.7284023 2.938847
vt 1.972213 2.345945
vt -1.547562 4.623734
vt -0.4279339 6.501693
vt 0.4241317 4.922311
vt 1.972218 5.116441
vt 2.66639 23.1307
vt -4.205889 23.6176
vt 1.533288 27.99479
vt -2.359858 28.27063
vt -2.674302 24.3688
vt -1.525807 29.2169
vt 4.199485 24.83391
vt 2.368193 29.48038
vt -2.617524 33.57192
vt -1.754001 37.28004
vt 2.2682 33.81617
vt 1.013761 37.41841
vt 1.991652 31.57324
vt -2.872257 32.08301
vt 1.344247 35.33232
vt -1.411158 35.6211
vt -3.881713 25.0937
vt -2.050421 29.74017
vt 2.992074 24.62858
vt 1.84358 29.47669
vt 3.927088 23.31475
vt -2.945191 22.82784
vt 2.081056 27.96777
vt -1.812091 27.69194
vt -2.731994 20.66928
vt 2.189049 20.36842
vt -4.981058 15.08032
vt 3.70569 14.54924
vt -3.145781 25.386
vt -1.652267 30.13917
vt 3.744712 25.386
vt 2.251197 30.13917
vt 6.566485 -1.766423
vt -5.491802 -2.601911
vt 3.455614 4.900223
vt -3.375405 4.42692
vt -2.036286 31.99911
vt -1.38888 35.75818
vt 2.827625 32.50888
vt 1.366525 36.04696
vt -5.425607 -2.012005
vt -3.046521 4.9234
vt 6.655953 -1.610166
vt 3.79768 5.151037
vt 6.156476 -1.761291
vt -5.925084 -1.359452
vt 3.777391 5.174114
vt -3.066811 5.401751
vt -6.528388 -1.216575
vt -3.417517 5.45007
vt 5.5299 -2.052064
vt 3.413503 4.976767
vt 4.425693 17.10234
vt -4.264527 17.5732
vt 2.868876 22.87404
vt -2.054134 23.14078
vt -10.88593 -5.658514
vt -10.88593 6.428682
vt -0.4169118 -11.70212
vt -2.549651 -1.790594
vt 1.715829 -1.790594
vt 10.05211 -5.658515
vt -2.525958 2.456923
vt -0.4169108 12.47228
vt 1.692136 2.456923
vt 10.05211 6.428681
vt 6.347611 3.786057
vt 6.34761 -3.06134
vt 0.4169118 7.209756
vt 2.351536 2.550115
vt 2.357684 -1.330516
vt -1.517713 2.550115
vt -5.513789 3.786058
vt -1.523861 -1.330516
vt 0.4169108 -6.485038
vt -5.513789 -3.061339
vt -6.666364 -1.808902
vt -3.788584 4.970068
vt 5.41399 -2.245547
vt 3.054933 4.722705
vt 2.586493 29.86454
vt -2.297931 30.13351
vt 1.741797 33.59809
vt -1.025229 33.75045
vt 3.145779 22.35886
vt -3.744712 22.35886
vt 1.652266 27.13671
vt -2.251198 27.13671
vt -1.858206 30.12081
vt -1.013511 33.85435
vt 3.026218 30.38977
vt 1.753516 34.00672
vt 2.922165 12.66392
vt 4.560655 6.236287
vt -2.940985 13.20581
vt -5.789127 7.192836
vt 4.913383 16.36261
vt -3.730276 15.36945
vt 2.352685 21.80374
vt -2.543948 21.24111
vt 1.335842 2.236882
vt 1.658147 4.417143
vt 4.664751 6.200789
vt 0.4279391 8.646065
vt -0.505591 4.744804
vt -3.808873 6.200791
vt -0.8395017 2.568152
vt -3.808875 1.310241
vt 0.4279374 -1.135035
vt 4.66475 1.31024
vt -7.934781 -1.951493
vt -7.934782 6.749037
vt -0.3970853 -6.301756
vt -1.715798 0.5022628
vt 1.341061 0.9569768
vt 7.140607 -1.95149
vt -2.157467 3.566697
vt -0.3970893 11.0993
vt 0.8824494 4.016273
vt 7.140606 6.749041
vt 1.829263 3.233339
vt -0.2249597 4.419201
vt -1.652279 5.979526
vt -3.603998 2.599665
vt -1.414786 2.362129
vt 0.6443006 1.167825
vt 2.251209 -0.7801669
vt -1.652255 -0.7801815
vt 4.202929 2.599693
vt 2.251185 5.97954
vt 1.462292 35.01701
vt -1.962282 35.01701
vt 0.7200161 37.56404
vt -1.220005 37.56404
vt 1.962282 38.90503
vt -1.462292 38.90503
vt 1.220005 41.43603
vt -0.7200158 41.43603
vt -1.908731 35.85931
vt -1.406789 38.45675
vt 1.501745 36.16082
vt 0.5252455 38.62757
vt -0.413601 -4.68838
vt -0.9701265 -0.9794223
vt 4.686801 -1.744311
vt 1.907017 0.6902649
vt -0.4135998 7.087896
vt 4.686801 4.143827
vt -2.625475 1.907903
vt -5.514002 4.143827
vt -5.514001 -1.744311
vt 0.2443614 3.564901
vt 5.231331 5.79004
vt -5.151936 6.296469
vt 3.300113 12.157
vt -2.582007 12.44389
vt -1.962274 0.608501
vt -3.674568 3.573347
vt 1.462301 0.6085101
vt -0.4263967 2.228318
vt 0.9965032 3.443618
vt 3.174581 3.573364
vt -1.631636 3.660474
vt -1.962289 6.5382
vt -0.2103282 4.866121
vt 1.462286 6.538209
vt 9.416955 -3.967383
vt 0.4135974 -9.164326
vt 9.41696 6.426508
vt 2.829257 1.610326
vt 0.4136023 11.62345
vt 1.024938 -1.536837
vt -0.2988442 3.416444
vt -2.111128 0.2831118
vt -8.589758 -3.967377
vt -8.589758 6.426513
vt 1.220005 1.877933
vt -0.7200162 1.877933
vt 2.190016 3.557519
vt 1.220005 5.237107
vt -1.690027 3.557519
vt -0.720016 5.237107
vt -4.378266 14.27859
vt -2.861625 20.09777
vt 4.308482 14.80967
vt 2.059417 20.39863
vt 4.547158 7.286475
vt -5.838447 7.742416
vt 2.585085 13.6117
vt -3.29836 13.86998
vt -4.861397 16.81507
vt -2.300697 22.2562
vt 3.782264 15.82191
vt 2.595936 21.69357
vt 1.75528 38.11366
vt -1.656539 37.82772
vt 0.7900471 40.57678
vt -1.142748 40.41481
vt -5.274165 7.511991
vt -3.312093 13.83721
vt 5.111441 7.967932
vt 2.571354 14.0955
vt -3.726627 16.91378
vt -2.169811 22.68548
vt 4.963593 17.38464
vt 2.753199 22.95222
vt 3.284942 12.73775
vt 5.854869 6.590328
vt -2.597178 12.45086
vt -4.528396 6.083899
vt 1.92394 38.02429
vt -1.487878 38.31022
vt 1.410149 40.61137
vt -0.5226455 40.77335
vt -1.731433 36.40221
vt -0.7549331 38.86895
vt 1.679044 36.10069
vt 1.177102 38.69814
vt -4.608197 6.750692
vt -2.969707 13.17833
vt 5.741585 7.707242
vt 2.893443 13.72021

usemtl woodBarkDark

f 3/3/1 2/2/1 1/1/1
f 2/2/1 3/3/1 4/4/1
f 2/2/1 4/4/1 5/5/1
f 5/5/1 4/4/1 6/6/1
f 1/1/1 7/7/1 6/6/1
f 7/7/1 1/1/1 2/2/1
f 6/6/1 7/7/1 8/8/1
f 6/6/1 8/8/1 5/5/1
f 11/11/2 10/10/2 9/9/2
f 10/10/2 11/11/2 12/12/2
f 15/15/3 14/14/3 13/13/3
f 14/14/3 15/15/3 16/16/3
f 17/19/4 7/18/4 2/17/4
f 7/18/4 17/19/4 18/20/4
f 1/23/5 19/22/5 3/21/5
f 19/22/5 1/23/5 20/24/5
f 21/27/6 2/26/6 5/25/6
f 2/26/6 21/27/6 17/28/6
f 24/31/7 23/30/7 22/29/7
f 23/30/7 24/31/7 25/32/7
f 19/35/8 27/34/8 26/33/8
f 27/34/8 19/35/8 28/36/8
f 31/39/9 30/38/9 29/37/9
f 30/38/9 31/39/9 32/40/9
f 35/43/10 34/42/10 33/41/10
f 34/42/10 35/43/10 36/44/10
f 39/47/11 38/46/11 37/45/11
f 38/46/11 39/47/11 40/48/11
f 42/51/12 35/50/12 41/49/12
f 35/50/12 42/51/12 36/52/12
f 33/55/13 44/54/13 43/53/13
f 44/54/13 33/55/13 34/56/13
f 47/59/14 46/58/14 45/57/14
f 46/58/14 47/59/14 48/60/14
f 50/63/15 31/62/15 49/61/15
f 31/62/15 50/63/15 32/64/15
f 20/67/16 28/66/16 19/65/16
f 28/66/16 20/67/16 51/68/16
f 14/71/17 52/70/17 13/69/17
f 52/70/17 14/71/17 53/72/17
f 21/75/18 18/74/18 17/73/18
f 18/74/18 21/75/18 54/76/18
f 18/79/19 8/78/19 7/77/19
f 8/78/19 18/79/19 54/80/19
f 46/83/20 40/82/20 39/81/20
f 40/82/20 46/83/20 48/84/20
f 28/87/21 55/86/21 27/85/21
f 55/86/21 28/87/21 4/88/21
f 10/91/22 22/90/22 9/89/22
f 22/90/22 10/91/22 24/92/22
f 3/95/23 26/94/23 56/93/23
f 26/94/23 3/95/23 19/96/23
f 58/99/24 15/98/24 57/97/24
f 15/98/24 58/99/24 16/100/24
f 44/103/25 41/102/25 43/101/25
f 41/102/25 44/103/25 42/104/25
f 23/107/26 12/106/26 11/105/26
f 12/106/26 23/107/26 25/108/26
f 60/111/27 49/110/27 59/109/27
f 49/110/27 60/111/27 50/112/27
f 51/115/28 4/114/28 28/113/28
f 4/114/28 51/115/28 6/116/28
f 29/119/29 60/118/29 59/117/29
f 60/118/29 29/119/29 30/120/29
f 55/123/30 3/122/30 56/121/30
f 3/122/30 55/123/30 4/124/30
f 53/127/31 57/126/31 52/125/31
f 57/126/31 53/127/31 58/128/31
f 38/131/32 45/130/32 37/129/32
f 45/130/32 38/131/32 47/132/32
f 8/135/33 21/134/33 5/133/33
f 21/134/33 8/135/33 54/136/33
f 55/139/34 26/138/34 27/137/34
f 26/138/34 55/139/34 56/140/34

usemtl leafsDark

f 63/143/35 62/142/35 61/141/35
f 62/142/35 63/143/35 64/144/35
f 67/147/36 66/146/36 65/145/36
f 66/146/36 67/147/36 42/148/36
f 42/148/36 67/147/36 68/149/36
f 42/148/36 68/149/36 36/150/36
f 44/151/36 66/146/36 42/148/36
f 66/146/36 44/151/36 69/152/36
f 69/152/36 36/150/36 68/149/36
f 69/152/36 44/151/36 34/153/36
f 69/152/36 34/153/36 36/150/36
f 69/152/36 68/149/36 70/154/36
f 71/157/37 43/156/37 41/155/37
f 43/156/37 71/157/37 72/158/37
f 43/156/37 72/158/37 33/159/37
f 33/159/37 72/158/37 73/160/37
f 33/159/37 73/160/37 35/161/37
f 35/161/37 73/160/37 74/162/37
f 75/163/37 71/157/37 41/155/37
f 75/163/37 41/155/37 35/161/37
f 75/163/37 35/161/37 74/162/37
f 71/157/37 75/163/37 76/164/37
f 79/167/38 78/166/38 77/165/38
f 78/166/38 79/167/38 80/168/38
f 63/171/39 81/170/39 64/169/39
f 81/170/39 63/171/39 9/172/39
f 9/172/39 63/171/39 11/173/39
f 11/173/39 63/171/39 82/174/39
f 22/175/39 81/170/39 9/172/39
f 81/170/39 22/175/39 83/176/39
f 83/176/39 22/175/39 23/177/39
f 83/176/39 23/177/39 84/178/39
f 84/178/39 23/177/39 11/173/39
f 84/178/39 11/173/39 82/174/39
f 85/181/40 66/180/40 69/179/40
f 66/180/40 85/181/40 86/182/40
f 67/185/41 87/184/41 68/183/41
f 87/184/41 67/185/41 88/186/41
f 89/189/42 63/188/42 61/187/42
f 63/188/42 89/189/42 82/190/42
f 64/193/43 90/192/43 62/191/43
f 90/192/43 64/193/43 81/194/43
f 70/197/44 85/196/44 69/195/44
f 85/196/44 70/197/44 91/198/44
f 92/201/45 67/200/45 65/199/45
f 67/200/45 92/201/45 88/202/45
f 93/205/46 73/204/46 72/203/46
f 73/204/46 93/205/46 94/206/46
f 68/209/47 91/208/47 70/207/47
f 91/208/47 68/209/47 87/210/47
f 78/213/48 95/212/48 77/211/48
f 95/212/48 78/213/48 96/214/48
f 97/217/49 82/216/49 89/215/49
f 82/216/49 97/217/49 84/218/49
f 95/221/50 99/220/50 98/219/50
f 99/220/50 95/221/50 96/222/50
f 99/225/51 100/224/51 98/223/51
f 100/224/51 99/225/51 101/226/51
f 100/229/52 103/228/52 102/227/52
f 103/228/52 100/229/52 101/230/52
f 75/233/53 105/232/53 104/231/53
f 105/232/53 75/233/53 74/234/53
f 98/237/54 77/236/54 95/235/54
f 77/236/54 98/237/54 51/238/54
f 51/238/54 98/237/54 6/239/54
f 6/239/54 98/237/54 100/240/54
f 20/241/54 77/236/54 51/238/54
f 77/236/54 20/241/54 79/242/54
f 79/242/54 20/241/54 1/243/54
f 79/242/54 1/243/54 102/244/54
f 102/244/54 1/243/54 6/239/54
f 102/244/54 6/239/54 100/240/54
f 80/247/55 96/246/55 78/245/55
f 96/246/55 80/247/55 52/248/55
f 96/246/55 52/248/55 57/249/55
f 52/248/55 80/247/55 13/250/55
f 13/250/55 80/247/55 103/251/55
f 13/250/55 103/251/55 15/252/55
f 57/249/55 99/253/55 96/246/55
f 99/253/55 57/249/55 15/252/55
f 99/253/55 15/252/55 101/254/55
f 101/254/55 15/252/55 103/251/55
f 102/257/56 80/256/56 79/255/56
f 80/256/56 102/257/56 103/258/56
f 81/261/57 106/260/57 90/259/57
f 106/260/57 81/261/57 83/262/57
f 86/265/58 65/264/58 66/263/58
f 65/264/58 86/265/58 92/266/58
f 106/269/59 84/268/59 97/267/59
f 84/268/59 106/269/59 83/270/59
f 109/273/60 108/272/60 107/271/60
f 108/272/60 109/273/60 110/274/60
f 71/277/61 112/276/61 111/275/61
f 112/276/61 71/277/61 76/278/61
f 90/281/62 32/280/62 50/279/62
f 32/280/62 90/281/62 106/282/62
f 32/280/62 106/282/62 30/283/62
f 30/283/62 106/282/62 97/284/62
f 30/283/62 97/284/62 60/285/62
f 60/285/62 97/284/62 89/286/62
f 61/287/62 90/281/62 50/279/62
f 61/287/62 50/279/62 60/285/62
f 61/287/62 60/285/62 89/286/62
f 90/281/62 61/287/62 62/288/62
f 104/291/63 111/290/63 112/289/63
f 111/290/63 104/291/63 47/292/63
f 47/292/63 104/291/63 48/293/63
f 48/293/63 104/291/63 105/294/63
f 38/295/63 111/290/63 47/292/63
f 111/290/63 38/295/63 93/296/63
f 93/296/63 38/295/63 40/297/63
f 93/296/63 40/297/63 94/298/63
f 94/298/63 40/297/63 48/293/63
f 94/298/63 48/293/63 105/294/63
f 86/301/64 49/300/64 31/299/64
f 49/300/64 86/301/64 85/302/64
f 49/300/64 85/302/64 59/303/64
f 59/303/64 85/302/64 29/304/64
f 29/304/64 85/302/64 87/305/64
f 87/305/64 31/299/64 29/304/64
f 87/305/64 85/302/64 91/306/64
f 88/307/64 86/301/64 31/299/64
f 88/307/64 31/299/64 87/305/64
f 86/301/64 88/307/64 92/308/64
f 115/311/65 114/310/65 113/309/65
f 114/310/65 115/311/65 116/312/65
f 119/315/66 118/314/66 117/313/66
f 118/314/66 119/315/66 120/316/66
f 114/319/67 122/318/67 121/317/67
f 122/318/67 114/319/67 116/320/67
f 124/323/68 37/322/68 123/321/68
f 37/322/68 124/323/68 39/324/68
f 39/324/68 124/323/68 125/325/68
f 125/325/68 124/323/68 126/326/68
f 45/327/68 123/321/68 37/322/68
f 109/328/68 123/321/68 45/327/68
f 109/328/68 45/327/68 125/325/68
f 123/321/68 109/328/68 107/329/68
f 125/325/68 45/327/68 46/330/68
f 125/325/68 46/330/68 39/324/68
f 109/333/69 127/332/69 110/331/69
f 127/332/69 109/333/69 125/334/69
f 118/337/70 121/336/70 117/335/70
f 121/336/70 118/337/70 24/338/70
f 24/338/70 118/337/70 25/339/70
f 25/339/70 118/337/70 128/340/70
f 10/341/70 121/336/70 24/338/70
f 121/336/70 10/341/70 114/342/70
f 114/342/70 10/341/70 12/343/70
f 114/342/70 12/343/70 113/344/70
f 113/344/70 12/343/70 25/339/70
f 113/344/70 25/339/70 128/340/70
f 110/347/71 129/346/71 108/345/71
f 129/346/71 110/347/71 58/348/71
f 58/348/71 110/347/71 127/349/71
f 129/346/71 58/348/71 53/350/71
f 58/348/71 127/349/71 16/351/71
f 16/351/71 127/349/71 14/352/71
f 53/350/71 130/353/71 129/346/71
f 130/353/71 53/350/71 14/352/71
f 130/353/71 14/352/71 127/349/71
f 130/353/71 127/349/71 131/354/71
f 122/357/72 120/356/72 119/355/72
f 120/356/72 122/357/72 116/358/72
f 120/356/72 116/358/72 132/359/72
f 132/359/72 116/358/72 115/360/72
f 93/363/73 71/362/73 111/361/73
f 71/362/73 93/363/73 72/364/73
f 123/367/74 108/366/74 129/365/74
f 108/366/74 123/367/74 107/368/74
f 105/371/75 73/370/75 94/369/75
f 73/370/75 105/371/75 74/372/75
f 122/375/76 117/374/76 121/373/76
f 117/374/76 122/375/76 119/376/76
f 130/379/77 123/378/77 129/377/77
f 123/378/77 130/379/77 124/380/77
f 112/383/78 75/382/78 104/381/78
f 75/382/78 112/383/78 76/384/78
f 126/387/79 127/386/79 125/385/79
f 127/386/79 126/387/79 131/388/79
f 120/391/80 128/390/80 118/389/80
f 128/390/80 120/391/80 132/392/80
f 128/395/81 115/394/81 113/393/81
f 115/394/81 128/395/81 132/396/81
f 131/399/82 124/398/82 130/397/82
f 124/398/82 131/399/82 126/400/82

usemtl _defaultMat

f 3/90/83 28/91/83 19/92/83
f 28/90/83 3/91/83 4/92/83

