# Created by Kenney (www.kenney.nl)

mtllib tree_palm.mtl

g tree_palm

v 0.031 0 0.031
v -0.031 0 0.031
v 0.053816 0.06036 0.053816
v -0.053816 0.06036 0.053816
v 0.053816 0.06036 -0.053816
v 0.031 0 -0.031
v -0.031 0 -0.031
v 0.017794 1.43468 -0.017794
v 0.017794 1.43468 0.017794
v -0.053816 0.06036 -0.053816
v -0.017794 1.43468 -0.017794
v -0.017794 1.43468 0.017794
v 0.3919605 1.414189 0.1327171
v 0.3109167 1.414189 0.273089
v 0.2677376 1.488703 0.060997
v 0.1866938 1.488703 0.2013689
v -3.291916E-13 1.43468 -0.05
v 0.02886751 1.43468 -0.05
v -0.02886751 1.43468 -0.05
v -0.02886751 1.43468 0.05
v -0.04330127 1.43468 0.025
v -0.04330127 1.43468 -0.025
v -0.05773503 1.43468 -4.331469E-15
v 0.02886751 1.43468 0.05
v 0.04330127 1.43468 -0.025
v 0.04330127 1.43468 0.025
v 0.05773503 1.43468 -3.681748E-13
v -2.887646E-15 1.43468 0.05
v 0.145128 1.488703 -0.009791677
v 0.06408424 1.488703 0.1305802
v 0.07369268 1.43468 -0.02763946
v 0.01290986 1.43468 0.07763946
v -0.05841082 1.269183 -0.5063818
v 0.03884167 1.269183 -0.5063818
v -0.08104383 1.414189 -0.4058063
v 0.08104365 1.414189 -0.4058063
v 0.08104365 1.488703 -0.262366
v -0.08104383 1.488703 -0.262366
v -0.1866938 1.514591 -0.2013689
v -0.2677376 1.514591 -0.060997
v -0.3109167 1.454369 -0.273089
v -0.3919605 1.454369 -0.1327171
v 0.08104365 1.488703 -0.1207887
v 0.06078281 1.43468 -0.05
v -0.08104383 1.488703 -0.1207887
v -0.06078281 1.43468 -0.05
v 0.2677375 1.514591 -0.06099715
v 0.1451279 1.514591 0.009791522
v 0.1866937 1.514591 -0.201369
v 0.06408415 1.514591 -0.1305804
v 0.08104383 1.454369 0.4058063
v -0.08104365 1.454369 0.4058063
v 0.08104383 1.514591 0.262366
v -0.08104365 1.514591 0.262366
v 0.3919604 1.454369 -0.1327173
v 0.3109167 1.454369 -0.2730892
v -0.06408424 1.514591 -0.1305802
v -0.145128 1.514591 0.009791677
v 0.05841082 1.289876 0.5063818
v -0.03884167 1.289876 0.5063818
v 0.1118313 1.477344 0.01811061
v 0.04023143 1.477344 -0.1059042
v 0.4677449 1.269183 0.2026056
v 0.4191186 1.269183 0.2868287
v -0.07159989 1.477344 0.08779343
v 0.07160002 1.477344 0.08779354
v -0.08104365 1.514591 0.1207887
v 0.08104383 1.514591 0.1207887
v -0.01290986 1.43468 0.07763946
v -0.06408415 1.488703 0.1305804
v -0.07369268 1.43468 -0.02763946
v -0.1451279 1.488703 -0.009791522
v -0.1866937 1.488703 0.201369
v -0.3109167 1.414189 0.2730892
v -0.2677375 1.488703 0.06099715
v -0.3919604 1.414189 0.1327173
v -0.4579603 1.269183 0.219553
v -0.409334 1.269183 0.3037761
v -0.04023139 1.477344 -0.105904
v -0.1118314 1.477344 0.01811066
v -0.4191186 1.289876 -0.2868287
v -0.4677449 1.289876 -0.2026056
v 0.409334 1.289876 -0.3037761
v 0.4579603 1.289876 -0.219553

vn 0 -0.3535814 0.9354037
vn 0.9354037 -0.3535814 0
vn 0 -1 0
vn 0.9996567 0.02620178 0
vn -0.9996567 0.02620178 0
vn 0 -0.3535814 -0.9354037
vn 0 0.02620178 0.9996567
vn 0 0.02620178 -0.9996567
vn -0.9354037 -0.3535814 0
vn 0.3992289 0.8874055 0.2304949
vn -0.3992289 -0.8874055 -0.2304949
vn 0 1 0
vn -0.5253946 0.7949512 -0.3033367
vn 0.5253946 -0.7949512 0.3033367
vn 0 0.5699252 -0.8216965
vn 0 -0.5699252 0.8216965
vn 0 0.8874055 -0.4609897
vn 0 -0.8874055 0.4609897
vn -0.3352433 0.9220353 -0.1935528
vn 0.3352433 -0.9220353 0.1935528
vn 0 0.7949512 0.6066734
vn 0 -0.7949512 -0.6066734
vn 0 0.9220353 0.3871056
vn 0 -0.9220353 -0.3871056
vn 0.3352433 0.9220353 -0.1935528
vn -0.3352433 -0.9220353 0.1935528
vn 0 0.5216469 0.8531615
vn 0 -0.5216469 -0.8531615
vn -0.6482537 0.6630909 0.3742695
vn 0.6482537 -0.6630909 -0.3742695
vn 0.7116101 0.5699252 0.4108483
vn -0.7116101 -0.5699252 -0.4108483
vn 0 0.6630908 -0.7485389
vn 0 -0.6630908 0.7485389
vn 0.5253946 0.7949512 -0.3033367
vn -0.5253946 -0.7949512 0.3033367
vn -0.3992289 0.8874055 0.2304949
vn 0.3992289 -0.8874055 -0.2304949
vn -0.7116101 0.5699252 0.4108483
vn 0.7116101 -0.5699252 -0.4108483
vn 0.6482537 0.6630909 0.3742695
vn -0.6482537 -0.6630909 -0.3742695
vn -0.7388595 0.5216469 -0.4265808
vn 0.7388595 -0.5216469 0.4265808
vn 0.7388595 0.5216469 -0.4265808
vn -0.7388595 -0.5216469 0.4265808

vt 1.220472 0.4315363
vt -1.220472 0.4315363
vt 2.11874 2.97202
vt -2.11874 2.97202
vt 1.220472 1.220472
vt 1.220472 -1.220472
vt -1.220472 1.220472
vt -1.220472 -1.220472
vt 2.11874 2.320047
vt -2.11874 2.320047
vt 0.7005512 56.44572
vt -0.7005512 56.44572
vt 3.190702 11.48865
vt -3.190695 11.48865
vt 3.190702 17.85243
vt -3.190695 17.85243
vt -0.7005512 -0.7005512
vt -0.7005512 0.7005512
vt 0.7005512 -0.7005512
vt 0.7005512 0.7005512
vt 1.29603E-11 -1.968504
vt -1.136516 -1.968504
vt 1.136516 -1.968504
vt 1.136516 1.968504
vt 1.704774 0.984252
vt 1.704774 -0.984252
vt 2.273033 -1.705303E-13
vt -1.136516 1.968504
vt -1.704774 -0.984252
vt -1.704774 0.984252
vt -2.273033 -1.449507E-11
vt 1.136868E-13 1.968504
vt -3.190702 39.3377
vt 3.190695 39.3377
vt -2.393024 35.83188
vt -1.136516 35.83188
vt 3.907985E-14 35.83188
vt 2.393024 35.83188
vt 1.136516 35.83188
vt 2.299639 29.6962
vt -1.5292 29.6962
vt 3.190702 36.64389
vt -3.190695 36.64389
vt -10.54085 2.401457
vt -7.350151 7.927909
vt -5.7137 -0.3854991
vt -2.523001 5.140953
vt -3.190695 13.5589
vt 3.190702 13.5589
vt -3.190695 7.434126
vt 3.190702 7.434126
vt -1.296028E-11 35.83188
vt -10.54085 -2.401463
vt -5.713696 0.385493
vt -7.350147 -7.927915
vt -2.522998 -5.140959
vt 2.523001 -5.140953
vt 5.7137 0.3854991
vt 7.350151 -7.927909
vt 10.54085 -2.401457
vt 2.299639 32.926
vt -1.5292 32.926
vt 3.190702 40.5167
vt -3.190695 40.5167
vt 3.190695 47.78835
vt 2.818893 45.8293
vt -3.190702 47.78835
vt 1.136516 43.58537
vt -2.818898 45.8293
vt -1.295652E-11 43.58537
vt -1.136516 43.58537
vt 1.280792E-11 43.58537
vt 1.290346E-11 35.83188
vt -3.441691E-15 43.58537
vt 2.522998 5.140959
vt 7.350147 7.927915
vt 5.713696 -0.385493
vt 10.54085 2.401463
vt -3.190695 -10.32937
vt -3.190695 -4.75546
vt 3.190702 -10.32937
vt 3.190702 -4.75546
vt -3.190702 10.32937
vt 3.190695 10.32937
vt -3.190702 4.75546
vt 3.190695 4.75546

usemtl woodBark

f 3/3/1 2/2/1 1/1/1
f 2/2/1 3/3/1 4/4/1
f 3/4/2 6/1/2 5/3/2
f 6/1/2 3/4/2 1/2/2
f 2/7/3 6/6/3 1/5/3
f 6/6/3 2/7/3 7/8/3
f 8/11/4 3/10/4 5/9/4
f 3/10/4 8/11/4 9/12/4
f 4/9/5 11/12/5 10/10/5
f 11/12/5 4/9/5 12/11/5
f 10/3/6 6/2/6 7/1/6
f 6/2/6 10/3/6 5/4/6
f 9/11/7 4/10/7 3/9/7
f 4/10/7 9/11/7 12/12/7
f 11/11/8 5/10/8 10/9/8
f 5/10/8 11/11/8 8/12/8
f 7/2/9 4/3/9 10/4/9
f 4/3/9 7/2/9 2/1/9

usemtl leafsGreen

f 15/15/10 14/14/10 13/13/10
f 14/14/10 15/15/10 16/16/10
f 13/13/11 14/14/11 15/15/11
f 16/16/11 15/15/11 14/14/11
f 11/19/12 9/18/12 8/17/12
f 9/18/12 11/19/12 12/20/12
f 8/17/12 17/21/12 11/19/12
f 17/21/12 8/17/12 18/22/12
f 9/18/12 18/22/12 8/17/12
f 11/19/12 17/21/12 19/23/12
f 11/19/12 19/23/12 12/20/12
f 12/20/12 19/23/12 20/24/12
f 20/24/12 19/23/12 21/25/12
f 21/25/12 19/23/12 22/26/12
f 21/25/12 22/26/12 23/27/12
f 24/28/12 18/22/12 9/18/12
f 24/28/12 25/29/12 18/22/12
f 26/30/12 25/29/12 24/28/12
f 25/29/12 26/30/12 27/31/12
f 24/28/12 9/18/12 28/32/12
f 28/32/12 9/18/12 12/20/12
f 28/32/12 12/20/12 20/24/12
f 8/17/3 9/18/3 11/19/3
f 12/20/3 11/19/3 9/18/3
f 11/19/3 17/21/3 8/17/3
f 18/22/3 8/17/3 17/21/3
f 8/17/3 18/22/3 9/18/3
f 19/23/3 17/21/3 11/19/3
f 12/20/3 19/23/3 11/19/3
f 20/24/3 19/23/3 12/20/3
f 21/25/3 19/23/3 20/24/3
f 22/26/3 19/23/3 21/25/3
f 23/27/3 22/26/3 21/25/3
f 9/18/3 18/22/3 24/28/3
f 18/22/3 25/29/3 24/28/3
f 24/28/3 25/29/3 26/30/3
f 27/31/3 26/30/3 25/29/3
f 28/32/3 9/18/3 24/28/3
f 12/20/3 9/18/3 28/32/3
f 20/24/3 12/20/3 28/32/3
f 31/35/13 30/34/13 29/33/13
f 30/34/13 31/35/13 27/36/13
f 30/34/13 27/36/13 26/37/13
f 30/34/13 26/37/13 32/38/13
f 32/38/13 26/37/13 24/39/13
f 29/33/14 30/34/14 31/35/14
f 27/36/14 31/35/14 30/34/14
f 26/37/14 27/36/14 30/34/14
f 32/38/14 26/37/14 30/34/14
f 24/39/14 26/37/14 32/38/14
f 35/42/15 34/41/15 33/40/15
f 34/41/15 35/42/15 36/43/15
f 33/40/16 34/41/16 35/42/16
f 36/43/16 35/42/16 34/41/16
f 29/46/12 16/45/12 15/44/12
f 16/45/12 29/46/12 30/47/12
f 15/44/3 16/45/3 29/46/3
f 30/47/3 29/46/3 16/45/3
f 35/13/17 37/16/17 36/14/17
f 37/16/17 35/13/17 38/15/17
f 36/14/18 37/16/18 35/13/18
f 38/15/18 35/13/18 37/16/18
f 41/50/19 40/49/19 39/48/19
f 40/49/19 41/50/19 42/51/19
f 39/48/20 40/49/20 41/50/20
f 42/51/20 41/50/20 40/49/20
f 45/33/21 44/38/21 43/34/21
f 44/38/21 45/33/21 18/39/21
f 18/39/21 45/33/21 17/52/21
f 17/52/21 45/33/21 19/36/21
f 19/36/21 45/33/21 46/35/21
f 43/34/22 44/38/22 45/33/22
f 18/39/22 45/33/22 44/38/22
f 17/52/22 45/33/22 18/39/22
f 19/36/22 45/33/22 17/52/22
f 46/35/22 45/33/22 19/36/22
f 49/55/12 48/54/12 47/53/12
f 48/54/12 49/55/12 50/56/12
f 47/53/3 48/54/3 49/55/3
f 50/56/3 49/55/3 48/54/3
f 53/49/23 52/50/23 51/51/23
f 52/50/23 53/49/23 54/48/23
f 51/51/24 52/50/24 53/49/24
f 54/48/24 53/49/24 52/50/24
f 56/51/25 47/48/25 55/50/25
f 47/48/25 56/51/25 49/49/25
f 55/50/26 47/48/26 56/51/26
f 49/49/26 56/51/26 47/48/26
f 39/59/12 58/58/12 57/57/12
f 58/58/12 39/59/12 40/60/12
f 57/57/3 58/58/3 39/59/3
f 40/60/3 39/59/3 58/58/3
f 51/63/27 60/62/27 59/61/27
f 60/62/27 51/63/27 52/64/27
f 59/61/28 60/62/28 51/63/28
f 52/64/28 51/63/28 60/62/28
f 50/67/29 61/66/29 48/65/29
f 61/66/29 50/67/29 27/68/29
f 27/68/29 50/67/29 62/69/29
f 27/68/29 62/69/29 25/70/29
f 25/70/29 62/69/29 18/71/29
f 48/65/30 61/66/30 50/67/30
f 27/68/30 50/67/30 61/66/30
f 62/69/30 50/67/30 27/68/30
f 25/70/30 62/69/30 27/68/30
f 18/71/30 62/69/30 25/70/30
f 14/43/31 63/40/31 13/42/31
f 63/40/31 14/43/31 64/41/31
f 13/42/32 63/40/32 14/43/32
f 64/41/32 14/43/32 63/40/32
f 65/66/33 28/72/33 20/68/33
f 28/72/33 65/66/33 24/71/33
f 24/71/33 65/66/33 66/69/33
f 66/69/33 65/66/33 67/65/33
f 66/69/33 67/65/33 68/67/33
f 20/68/34 28/72/34 65/66/34
f 24/71/34 65/66/34 28/72/34
f 66/69/34 65/66/34 24/71/34
f 67/65/34 65/66/34 66/69/34
f 68/67/34 67/65/34 66/69/34
f 20/36/35 70/33/35 69/35/35
f 70/33/35 20/36/35 21/73/35
f 70/33/35 21/73/35 23/39/35
f 70/33/35 23/39/35 71/38/35
f 70/33/35 71/38/35 72/34/35
f 69/35/36 70/33/36 20/36/36
f 21/73/36 20/36/36 70/33/36
f 23/39/36 21/73/36 70/33/36
f 71/38/36 23/39/36 70/33/36
f 72/34/36 71/38/36 70/33/36
f 75/16/37 74/13/37 73/15/37
f 74/13/37 75/16/37 76/14/37
f 73/15/38 74/13/38 75/16/38
f 76/14/38 75/16/38 74/13/38
f 77/41/39 74/42/39 76/43/39
f 74/42/39 77/41/39 78/40/39
f 76/43/40 74/42/40 77/41/40
f 78/40/40 77/41/40 74/42/40
f 79/66/41 22/74/41 19/68/41
f 22/74/41 79/66/41 57/65/41
f 22/74/41 57/65/41 23/71/41
f 23/71/41 57/65/41 80/69/41
f 80/69/41 57/65/41 58/67/41
f 19/68/42 22/74/42 79/66/42
f 57/65/42 79/66/42 22/74/42
f 23/71/42 57/65/42 22/74/42
f 80/69/42 57/65/42 23/71/42
f 58/67/42 57/65/42 80/69/42
f 72/77/12 73/76/12 70/75/12
f 73/76/12 72/77/12 75/78/12
f 70/75/3 73/76/3 72/77/3
f 75/78/3 72/77/3 73/76/3
f 38/81/12 43/80/12 37/79/12
f 43/80/12 38/81/12 45/82/12
f 37/79/3 43/80/3 38/81/3
f 45/82/3 38/81/3 43/80/3
f 68/85/12 54/84/12 53/83/12
f 54/84/12 68/85/12 67/86/12
f 53/83/3 54/84/3 68/85/3
f 67/86/3 68/85/3 54/84/3
f 82/61/43 41/64/43 81/62/43
f 41/64/43 82/61/43 42/63/43
f 81/62/44 41/64/44 82/61/44
f 42/63/44 82/61/44 41/64/44
f 56/63/45 84/62/45 83/61/45
f 84/62/45 56/63/45 55/64/45
f 83/61/46 84/62/46 56/63/46
f 55/64/46 56/63/46 84/62/46

