# Created by Kenney (www.kenney.nl)

mtllib tree_plateau.mtl

g tree_plateau

v -0.1086532 0.452775 0.1868883
v -0.2379656 0.452775 0.1122297
v -0.1086532 0.5382237 0.1868883
v -0.2379656 0.5382237 0.1122297
v 0.02065931 0.5382237 -0.03708752
v -0.01942755 0.5819902 -0.01394335
v -0.1086532 0.5382237 -0.1117461
v -0.1086532 0.5819902 -0.06545777
v -0.009082552 0.415261 0.0950582
v -0.009082552 0.415261 0.06330955
v -0.1086532 0.415261 0.1525453
v -0.0461316 0.415261 0.06330955
v -0.0461316 0.415261 -0.0289537
v -0.1086532 0.415261 -0.07740315
v -0.02473623 0.415261 -0.0289537
v -0.2082238 0.415261 0.0950582
v -0.2082238 0.415261 -0.01991604
v 0.1580113 0.7093242 0.3193882
v 0.1580113 0.672761 0.2742003
v -0.0121367 0.7093242 0.2211533
v 0.02699733 0.672761 0.1985592
v -0.01942755 0.5819902 4.092231E-05
v -0.04059637 0.5819902 4.092231E-05
v -0.04059637 0.5819902 0.08123367
v -0.1086532 0.5819902 0.1406
v -0.01942755 0.5819902 0.08908553
v -0.01942755 0.5819902 0.08123367
v -0.1978788 0.5819902 -0.01394335
v -0.1978788 0.5819902 0.08908553
v -0.2379656 0.452775 -0.03708752
v 0.02065931 0.452775 0.1122297
v -0.1086532 0.452775 -0.1117461
v -0.2379656 0.5382237 -0.03708752
v 0.02065931 0.5382237 0.1122297
v 0.02065931 0.452775 -0.03708752
v -0.2835801 1.039439 -0.1657
v -0.2835801 1.178244 -0.1657
v -0.2835801 1.039439 0.16175
v -0.2835801 1.178244 0.16175
v 0.02699733 0.672761 0.09099195
v 0.01261348 0.6862 0.09243672
v -0.0121367 0.7093242 0.08725923
v 0.2835799 1.039439 -0.1657
v 2.980232E-09 1.039439 -0.329425
v 0.2183566 0.9784999 -0.1280432
v 2.980232E-09 0.9784999 -0.2541115
v 0.02065931 0.5382237 -0.007570162
v 0.02065931 0.452775 -0.0224299
v 0.2835799 1.178244 0.16175
v 2.980232E-09 1.178244 0.325475
v 0.1956702 1.24934 0.1109952
v 2.980232E-09 1.24934 0.2239655
v 0.02065931 0.5382237 0.0765286
v 0.3281594 0.7926077 0.2211533
v 0.1580113 0.7926077 0.3193882
v 0.2754134 0.835265 0.1907004
v 0.1580113 0.835265 0.2584825
v 0.02065931 0.452775 0.06734248
v 0.005884901 0.7093242 0.0142785
v 0.1580113 0.7093242 -0.07355172
v 0.03011832 0.7926077 0.0002873294
v 0.1580113 0.7926077 -0.07355172
v 0.2835799 1.178244 -0.1657
v 0.1956702 1.24934 -0.1149452
v -0.1956702 1.24934 0.1109952
v 0.3281594 0.7093242 0.02468328
v 0.2890252 0.672761 0.04727732
v 0.1580113 0.672761 -0.0283636
v 0.3281594 0.7093242 0.2211533
v -0.0121367 0.7926077 0.2211533
v 0.3281594 0.7926077 0.02468328
v 0.1580113 0.835265 -0.01264601
v 0.03412203 0.7940563 4.398376E-05
v 0.04060917 0.835265 0.05513613
v 0.03313906 0.8292237 0.05082328
v 2.980232E-09 1.178244 -0.329425
v 0.2890252 0.672761 0.1985592
v 0.2835799 1.039439 0.16175
v 0.2183566 0.9784999 0.1240932
v 2.980232E-09 1.039439 0.325475
v 2.980232E-09 0.9784999 0.2501615
v -0.0121367 0.7926077 0.06861235
v 0.04060917 0.835265 0.1907004
v 0.03758288 0.672761 0.04116577
v 0.03695996 0.6925238 0.01710092
v 0.03713672 0.6862 0.02481432
v 0.2754134 0.835265 0.05513613
v -0.2183566 0.9784999 0.1240932
v 2.980232E-09 1.24934 -0.2279155
v -0.1956702 1.24934 -0.1149452
v 0.03758288 0.672761 0.09099195
v 0.002261339 0.4295692 -0.02646544
v 0.02896664 0.9784999 0.02699162
v -0.02896663 0.9784999 0.02699162
v -0.02896663 0.9784999 -0.03094162
v 0.02896664 0.9784999 -0.03094162
v -0.2183566 0.9784999 -0.1280432
v 0.03313906 0.8292237 0.06041415
v 0.065175 0 0.065175
v 0.065175 0 -0.065175
v -0.065175 0 0.065175
v -0.065175 0 -0.065175
v 0.03713672 0.6862 0.01816328
v 0.05018475 0.293175 -0.05018475
v 0.05018475 0.293175 0.05018475
v -0.0371367 0.6862 0.01816328
v -0.05018475 0.293175 -0.05018475
v -0.05018475 0.293175 0.05018475
v 0.03416252 0.7926077 0.0002873294
v -0.0371367 0.6862 0.09243672

vn -0.5000004 0 0.8660253
vn 0.3687131 0.6754277 -0.6386299
vn 0 -1 0
vn -0.3413497 -0.7306995 0.5912349
vn 0 1 0
vn -0.7836066 -0.6212574 0
vn 0.3918029 -0.6212586 0.6786224
vn -0.5000001 0 -0.8660254
vn 0.5000001 0 0.8660253
vn -0.3687133 0.6754276 0.6386299
vn 0.4999999 0 -0.8660255
vn -1 0 0
vn -0.6826989 -0.7306998 0
vn 0.3413504 -0.7306982 -0.5912361
vn 1 0 0
vn 0.3144132 0.7775458 0.5445795
vn 0.7374263 0.6754277 0
vn 0.3144124 0.7775465 0.5445789
vn -0.3687132 0.6754276 -0.63863
vn 0.7836058 -0.6212583 0
vn 0.6288267 0.7775455 0
vn -0.314413 0.7775459 0.5445793
vn 0.3413491 -0.7307005 -0.591234
vn 0.4999997 0 0.8660256
vn -0.391803 -0.6212583 0.6786225
vn 0.3687131 0.6754277 0.6386297
vn -0.4999999 0 0.8660255
vn 0.4999998 0 -0.8660255
vn -0.3144129 0.7775462 -0.5445792
vn 0.5000002 0 -0.8660253
vn 0.3413494 -0.7306999 0.5912345
vn -0.391803 -0.6212582 -0.6786227
vn 0.3413504 -0.7306982 0.5912361
vn 0.6827012 -0.7306976 0
vn -0.3144126 0.7775465 0.544579
vn -0.3413495 -0.7307 -0.5912343
vn 0.682697 -0.7307016 0
vn -0.3413501 -0.7306985 0.5912359
vn 0.3918028 -0.6212583 -0.6786227
vn 0.628825 0.7775468 0
vn -0.7374269 0.6754271 0
vn -0.6288258 0.7775462 0
vn 0.3144132 0.7775458 -0.5445795
vn -0.314413 0.7775459 -0.5445793
vn -0.4999999 0 -0.8660255
vn -0.628826 0.7775461 0
vn 0.7836061 -0.621258 0
vn -0.6827 -0.7306988 0
vn 0.3144127 0.7775465 -0.544579
vn -0.3413501 -0.7306985 -0.5912359
vn 0.5000002 0 0.8660253
vn 0.9996096 0.0279404 0
vn 0.9994493 0.03318069 0
vn 0 0.1713311 -0.9852135
vn -0.9994493 0.03318087 0
vn 0 -0.1656733 -0.9861807
vn 0 -0.1656727 -0.9861808
vn 0 0.05106403 0.9986954
vn 0.9996096 0.02794009 0
vn -0.9996096 0.02794008 0
vn 0 0.2184876 0.9758397
vn -0.9986954 0.05106401 0
vn 0 -0.1068886 0.994271
vn 0 0.05106403 -0.9986954
vn -0.9994493 0.03318086 0
vn 0.9986954 0.05106403 0

vt -0.02567646 17.82579
vt -5.904305 17.82579
vt -0.02567646 21.18991
vt -5.904305 21.18991
vt 0.02567985 14.49722
vt 0.9368672 16.83385
vt 5.904309 14.49722
vt 4.993122 16.83385
vt -0.3575808 3.742449
vt -0.3575808 2.492502
vt -4.277684 6.005721
vt -1.816205 2.492502
vt -1.816205 -1.13991
vt -4.277684 -3.047368
vt -0.9738672 -1.13991
vt -8.197787 3.742449
vt -8.197787 -0.7840959
vt 11.67464 24.74945
vt 10.78512 22.64091
vt 3.939605 24.74945
vt 4.829134 22.64091
vt 0.7648643 -0.5489507
vt 0.7648643 0.001611115
vt 4.277684 -2.577078
vt 1.598282 0.001611115
vt 1.598282 3.198176
vt 4.277684 5.535431
vt 0.7648643 3.507304
vt 0.7648643 3.198176
vt 7.790504 -0.5489507
vt 7.790504 3.507304
vt -1.460139 19.78879
vt 4.418491 19.78879
vt -0.7840959 17.90401
vt 3.742449 17.90401
vt -2.180899 14.71352
vt -6.707444 14.71352
vt -1.504857 16.5983
vt -7.383487 16.5983
vt 7.383483 17.82579
vt 1.504856 17.82579
vt 7.383483 21.18991
vt 1.504856 21.18991
vt -1.504857 17.82579
vt -7.383487 17.82579
vt -1.504857 21.18991
vt -7.383487 21.18991
vt -0.9368659 12.21414
vt -0.02567765 9.877508
vt -4.993121 12.21414
vt -5.904305 9.877508
vt 5.904309 17.82579
vt 0.02567981 17.82579
vt 5.904309 21.18991
vt 0.02567981 21.18991
vt -6.523622 40.92279
vt -6.523622 46.38758
vt 6.36811 40.92279
vt 6.36811 46.38758
vt 7.817293 17.30576
vt 3.58236 17.30576
vt 8.706822 19.4143
vt 3.639241 18.08076
vt 3.435403 19.4143
vt -6.406983 36.14515
vt 6.484745 36.14515
vt -4.924438 32.63091
vt 5.002195 32.63091
vt 1.460139 21.18991
vt 1.460139 17.82579
vt 0.2980379 21.18991
vt 0.883067 17.82579
vt 6.484738 20.54113
vt -6.406989 20.54113
vt 4.486524 24.99233
vt -4.408771 24.99233
vt -3.012937 15.07663
vt -4.418491 15.07663
vt -3.198176 17.41326
vt -3.507304 17.41326
vt 6.83535 8.73674
vt -0.8996917 8.73674
vt 5.636415 11.40746
vt 0.2992398 11.40746
vt 1.504857 11.60796
vt 2.416044 13.94459
vt 7.383484 11.60796
vt 6.472299 13.94459
vt -2.651279 17.82579
vt -4.418491 17.82579
vt -3.012937 21.18991
vt -4.418491 21.18991
vt -2.492502 12.58891
vt -3.742449 12.58891
vt -2.651279 14.4737
vt -4.418491 14.4737
vt 0.08042437 27.92615
vt -6.835341 27.92615
vt -1.021243 31.20503
vt -6.835341 31.20503
vt 6.523622 20.48879
vt -6.36811 20.48879
vt 4.525403 24.93999
vt -4.369892 24.93999
vt 4.408769 24.99232
vt 6.406987 20.54111
vt -4.486526 24.99232
vt -6.484748 20.54111
vt -11.67465 23.17039
vt -3.939604 23.17039
vt -10.78511 21.06184
vt -4.829134 21.06185
vt 6.835349 27.92615
vt -0.8996928 27.92615
vt 6.835349 31.20503
vt -0.8996928 31.20503
vt -0.701721 17.37107
vt -5.228267 17.37107
vt -0.02567787 19.25585
vt -5.904306 19.25585
vt -1.504857 12.76677
vt -7.383487 12.76677
vt -2.416044 15.1034
vt -6.472299 15.1034
vt 11.67464 27.92615
vt 3.939604 27.92615
vt 11.67464 31.20503
vt 3.939604 31.20503
vt -3.939605 27.92615
vt -11.67465 27.92615
vt -3.939605 31.20503
vt -11.67465 31.20503
vt -0.9717825 31.20503
vt -0.9717825 27.92615
vt -8.706822 31.20503
vt -8.706822 27.92615
vt -1.460139 17.82579
vt -1.460139 21.18991
vt 4.418491 17.82579
vt 4.418491 21.18991
vt -6.835341 20.09114
vt -5.63641 22.76186
vt -1.021243 20.09114
vt -1.162542 20.18183
vt -0.2992331 22.76186
vt -0.1294346 22.38362
vt 6.484746 40.92279
vt -6.406982 40.92279
vt 6.484746 46.38758
vt -6.406982 46.38758
vt 6.835343 29.29507
vt 5.945807 27.18652
vt -0.8996985 29.29506
vt -0.01017095 27.18653
vt 6.707444 15.7794
vt 2.180899 15.7794
vt 7.383484 17.66418
vt 1.504857 17.66418
vt 6.484738 36.04674
vt 5.002194 32.5325
vt -6.406989 36.04675
vt -4.924439 32.5325
vt -6.36811 36.09596
vt 6.523622 36.09596
vt -4.885561 32.58173
vt 5.041073 32.58173
vt 6.523622 46.38758
vt 6.523622 40.92279
vt -6.36811 46.38758
vt -6.36811 40.92279
vt 2.701274 31.20503
vt 8.706822 31.20503
vt 3.435403 27.92615
vt 8.706822 27.92615
vt 10.47571 16.24452
vt 11.67464 13.5738
vt 5.138534 16.24452
vt 3.939602 13.5738
vt -5.94581 16.51623
vt -6.835341 18.62477
vt -0.4710564 16.51623
vt -0.9235355 17.65591
vt 0.08042444 18.62477
vt -0.7777234 17.29123
vt -8.706822 28.50552
vt -0.9717825 28.50552
vt -7.817293 26.39697
vt -1.861312 26.39697
vt -10.84305 2.170714
vt -10.84305 7.507892
vt -6.220917 -0.4978746
vt -6.220917 10.17648
vt -1.598786 2.170714
vt -1.598786 7.507892
vt 6.406987 36.04673
vt 4.924438 32.53249
vt -6.484748 36.04673
vt -5.002196 32.53249
vt -7.703551 -4.525403
vt -7.703551 4.369892
vt -1.17332E-07 -8.973051
vt -1.17332E-07 8.817539
vt 7.703551 -4.525403
vt 7.703551 4.369892
vt 1.460139 15.07663
vt 0.2980379 15.07663
vt 0.5489507 17.41326
vt -0.001611115 17.41326
vt 11.37894 7.817293
vt 11.37894 1.861312
vt 6.220917 10.79529
vt 6.220917 -1.116677
vt 1.062887 7.817293
vt 1.479641 3.58236
vt 1.062887 3.58236
vt 1.479641 1.6207
vt 5.228267 13.12185
vt 1.413348 13.12185
vt 5.904309 15.00664
vt 0.4438716 13.84073
vt 0.02567976 15.00664
vt -0.9717825 9.576861
vt -8.706822 9.576861
vt -2.170714 12.24759
vt -7.507892 12.24759
vt -1.460139 9.298119
vt -0.5489507 11.63474
vt 4.418491 9.298119
vt 3.507304 11.63474
vt 8.596718 4.885561
vt 8.596718 -5.041073
vt 1.17332E-07 9.848878
vt 1.140419 1.062662
vt -1.140418 1.062662
vt -8.596717 4.885561
vt -1.140418 -1.218174
vt 1.140419 -1.218174
vt 1.17332E-07 -10.00439
vt -8.596717 -5.041073
vt -4.525403 24.93995
vt 4.369892 24.93995
vt -6.523622 20.48874
vt 6.36811 20.48874
vt -6.406982 20.43641
vt -4.408769 24.88761
vt 6.484745 20.43641
vt 4.486526 24.88762
vt -6.484743 20.4364
vt -4.486525 24.8876
vt 6.406992 20.4364
vt 4.408771 24.8876
vt 6.406992 40.92279
vt -6.484743 40.92279
vt 6.406992 46.38758
vt -6.484743 46.38758
vt 2.170714 21.92172
vt 7.507892 21.92172
vt 2.000917 21.54349
vt 2.37851 21.54349
vt 8.706822 19.251
vt 2.701273 19.251
vt 1.460139 14.4737
vt 1.041946 13.30779
vt 0.883067 14.4737
vt 4.885561 32.58169
vt -5.041073 32.58169
vt 6.36811 36.09593
vt -6.523622 36.09593
vt -11.67465 15.25408
vt -10.47571 17.9248
vt -3.939605 15.25408
vt -5.138535 17.9248
vt -5.002194 32.6309
vt -6.484743 36.14515
vt 4.92444 32.6309
vt 6.406992 36.14515
vt 6.406987 40.92279
vt -6.484748 40.92279
vt 6.406987 46.38758
vt -6.484748 46.38758
vt 6.484738 40.92279
vt -6.40699 40.92279
vt 6.484738 46.38758
vt -6.40699 46.38758
vt 2.565945 2.565945
vt 2.565945 -2.565945
vt -2.565945 2.565945
vt -2.565945 -2.565945
vt -0.6732647 27.21342
vt -0.71509 26.96435
vt -0.9769419 26.96435
vt 1.975778 11.47041
vt -1.975778 11.47041
vt -0.7150899 26.95236
vt -0.9769419 26.95236
vt -1.6207 26.42297
vt -3.58236 26.42297
vt 1.598282 22.57447
vt 0.7648643 22.57447
vt 1.462075 26.7388
vt -1.462076 26.7388
vt -0.8133587 20.82552
vt -0.8133586 17.41091
vt -1.975777 11.03314
vt -0.08902895 16.48359
vt 0.9738673 15.91181
vt 1.816205 15.91181
vt 1.975778 11.03314
vt -1.13991 16.27959
vt 2.492502 16.27959
vt -1.462076 26.52394
vt -0.231689 27.4471
vt 1.462075 26.52394
vt 1.140418 38.19307
vt -1.455117 26.77639
vt -1.185761 30.77192
vt -1.343387 30.82975
vt -1.140419 38.19307
vt -1.344981 30.77193
vt 2.565945 -0.1310275
vt -2.565945 -0.1310275
vt 1.975778 11.42637
vt -1.975778 11.42637
vt 1.218174 38.47672
vt -0.001731648 31.21232
vt -1.062662 38.47672
vt -2.000916 32.5974
vt -2.37851 32.5974
vt -1.218174 38.47672
vt 1.062662 38.47672
vt 0.71509 26.96435
vt 3.639241 26.96435
vt 0.4965943 25.56791
vt -1.462074 25.56791
vt -0.4778224 26.50086
vt -1.140418 37.3607
vt -0.4778225 29.86091
vt 1.304688 31.33818
vt 1.140419 37.3607
vt -2.565945 -0.1310274
vt -1.975778 11.42637
vt 2.565945 -0.1310274
vt 1.975778 11.42637
vt -1.975778 11.68739
vt 0.8133587 18.00706
vt 1.975778 11.68739
vt 1.479641 26.71782
vt -0.3575808 16.52162
vt 0.8133587 21.39056
vt -0.7648643 23.12358
vt -1.598282 23.12358
vt 1.062887 26.71782
vt -1.462075 27.24997
vt 0.4965939 27.24997
vt -1.816205 16.52162
vt 1.975778 11.42637
vt -1.975778 11.42637
vt 0.001611115 22.84735
vt 0.71509 26.95236
vt 3.198176 22.84735
vt 3.639241 26.95236

usemtl leafsGreen

f 3/3/1 2/2/1 1/1/1
f 2/2/1 3/3/1 4/4/1
f 7/7/2 6/6/2 5/5/2
f 6/6/2 7/7/2 8/8/2
f 11/11/3 10/10/3 9/9/3
f 10/10/3 11/11/3 12/12/3
f 12/12/3 11/11/3 13/13/3
f 14/14/3 13/13/3 11/11/3
f 13/13/3 14/14/3 15/15/3
f 14/14/3 11/11/3 16/16/3
f 14/14/3 16/16/3 17/17/3
f 20/20/4 19/19/4 18/18/4
f 19/19/4 20/20/4 21/21/4
f 8/24/5 22/23/5 6/22/5
f 22/23/5 8/24/5 23/25/5
f 23/25/5 8/24/5 24/26/5
f 25/27/5 24/26/5 8/24/5
f 26/28/5 24/26/5 25/27/5
f 24/26/5 26/28/5 27/29/5
f 25/27/5 8/24/5 28/30/5
f 25/27/5 28/30/5 29/31/5
f 17/34/6 2/33/6 30/32/6
f 2/33/6 17/34/6 16/35/6
f 31/38/7 11/37/7 9/36/7
f 11/37/7 31/38/7 1/39/7
f 33/42/8 32/41/8 30/40/8
f 32/41/8 33/42/8 7/43/8
f 34/46/9 1/45/9 31/44/9
f 1/45/9 34/46/9 3/47/9
f 29/50/10 3/49/10 25/48/10
f 3/49/10 29/50/10 4/51/10
f 7/54/11 35/53/11 32/52/11
f 35/53/11 7/54/11 5/55/11
f 38/58/12 37/57/12 36/56/12
f 37/57/12 38/58/12 39/59/12
f 20/62/13 40/61/13 21/60/13
f 40/61/13 20/62/13 41/63/13
f 41/63/13 20/62/13 42/64/13
f 45/67/14 44/66/14 43/65/14
f 44/66/14 45/67/14 46/68/14
f 47/71/15 35/70/15 5/69/15
f 35/70/15 47/71/15 48/72/15
f 51/75/16 50/74/16 49/73/16
f 50/74/16 51/75/16 52/76/16
f 27/79/17 34/78/17 53/77/17
f 34/78/17 27/79/17 26/80/17
f 56/83/18 55/82/18 54/81/18
f 55/82/18 56/83/18 57/84/18
f 33/87/19 8/86/19 7/85/19
f 8/86/19 33/87/19 28/88/19
f 53/91/15 31/90/15 58/89/15
f 31/90/15 53/91/15 34/92/15
f 58/95/20 9/94/20 10/93/20
f 9/94/20 58/95/20 31/96/20
f 61/99/8 60/98/8 59/97/8
f 60/98/8 61/99/8 62/100/8
f 64/103/21 49/102/21 63/101/21
f 49/102/21 64/103/21 51/104/21
f 65/107/22 50/106/22 52/105/22
f 50/106/22 65/107/22 39/108/22
f 67/111/23 60/110/23 66/109/23
f 60/110/23 67/111/23 68/112/23
f 54/115/24 18/114/24 69/113/24
f 18/114/24 54/115/24 55/116/24
f 1/119/25 16/118/25 11/117/25
f 16/118/25 1/119/25 2/120/25
f 26/123/26 3/122/26 34/121/26
f 3/122/26 26/123/26 25/124/26
f 55/127/27 20/126/27 18/125/27
f 20/126/27 55/127/27 70/128/27
f 62/131/28 66/130/28 60/129/28
f 66/130/28 62/131/28 71/132/28
f 54/135/15 66/134/15 71/133/15
f 66/134/15 54/135/15 69/136/15
f 2/139/12 33/138/12 30/137/12
f 33/138/12 2/139/12 4/140/12
f 61/143/29 72/142/29 62/141/29
f 72/142/29 61/143/29 73/144/29
f 72/142/29 73/144/29 74/145/29
f 75/146/29 74/145/29 73/144/29
f 76/149/30 43/148/30 44/147/30
f 43/148/30 76/149/30 63/150/30
f 18/153/31 77/152/31 69/151/31
f 77/152/31 18/153/31 19/154/31
f 30/157/32 14/156/32 17/155/32
f 14/156/32 30/157/32 32/158/32
f 80/161/33 79/160/33 78/159/33
f 79/160/33 80/161/33 81/162/33
f 79/165/34 43/164/34 78/163/34
f 43/164/34 79/165/34 45/166/34
f 49/169/15 43/168/15 63/167/15
f 43/168/15 49/169/15 78/170/15
f 42/173/12 70/172/12 82/171/12
f 70/172/12 42/173/12 20/174/12
f 83/177/35 55/176/35 57/175/35
f 55/176/35 83/177/35 70/178/35
f 84/181/36 60/180/36 68/179/36
f 60/180/36 84/181/36 85/182/36
f 60/180/36 85/182/36 59/183/36
f 85/182/36 84/181/36 86/184/36
f 77/187/37 66/186/37 69/185/37
f 66/186/37 77/187/37 67/188/37
f 72/191/5 56/190/5 87/189/5
f 56/190/5 72/191/5 57/192/5
f 57/192/5 72/191/5 74/193/5
f 57/192/5 74/193/5 83/194/5
f 38/197/38 81/196/38 80/195/38
f 81/196/38 38/197/38 88/198/38
f 89/201/5 51/200/5 64/199/5
f 51/200/5 89/201/5 52/202/5
f 52/202/5 89/201/5 90/203/5
f 52/202/5 90/203/5 65/204/5
f 6/207/17 47/206/17 5/205/17
f 47/206/17 6/207/17 22/208/17
f 19/211/3 67/210/3 77/209/3
f 67/210/3 19/211/3 68/212/3
f 68/212/3 19/211/3 21/213/3
f 68/212/3 21/213/3 91/214/3
f 91/214/3 21/213/3 40/215/3
f 84/216/3 68/212/3 91/214/3
f 32/219/39 15/218/39 14/217/39
f 15/218/39 32/219/39 92/220/39
f 92/220/39 32/219/39 35/221/39
f 87/224/40 54/223/40 71/222/40
f 54/223/40 87/224/40 56/225/40
f 4/228/41 28/227/41 33/226/41
f 28/227/41 4/228/41 29/229/41
f 81/232/3 45/231/3 79/230/3
f 45/231/3 81/232/3 93/233/3
f 93/233/3 81/232/3 94/234/3
f 94/234/3 81/232/3 88/235/3
f 94/234/3 88/235/3 95/236/3
f 96/237/3 45/231/3 93/233/3
f 45/231/3 96/237/3 46/238/3
f 46/238/3 96/237/3 95/236/3
f 46/238/3 95/236/3 97/239/3
f 97/239/3 95/236/3 88/235/3
f 37/242/42 65/241/42 90/240/42
f 65/241/42 37/242/42 39/243/42
f 76/246/43 64/245/43 63/244/43
f 64/245/43 76/246/43 89/247/43
f 37/250/44 89/249/44 76/248/44
f 89/249/44 37/250/44 90/251/44
f 37/254/45 44/253/45 36/252/45
f 44/253/45 37/254/45 76/255/45
f 75/258/46 83/257/46 74/256/46
f 83/257/46 75/258/46 98/259/46
f 83/257/46 98/259/46 70/260/46
f 70/260/46 98/259/46 82/261/46
f 48/264/47 92/263/47 35/262/47
f 38/267/48 97/266/48 88/265/48
f 97/266/48 38/267/48 36/268/48
f 62/271/49 87/270/49 71/269/49
f 87/270/49 62/271/49 72/272/49
f 97/275/50 44/274/50 46/273/50
f 44/274/50 97/275/50 36/276/50
f 50/279/27 38/278/27 80/277/27
f 38/278/27 50/279/27 39/280/27
f 49/283/51 80/282/51 78/281/51
f 80/282/51 49/283/51 50/284/51

usemtl woodBark

f 101/287/3 100/286/3 99/285/3
f 100/286/3 101/287/3 102/288/3
f 86/291/52 103/290/52 85/289/52
f 103/294/53 105/293/53 104/292/53
f 105/293/53 103/294/53 86/295/53
f 105/293/53 86/295/53 84/296/53
f 105/293/53 84/296/53 91/297/53
f 106/300/54 22/299/54 23/298/54
f 103/301/54 22/299/54 106/300/54
f 103/301/54 47/302/54 22/299/54
f 103/301/54 48/303/54 47/302/54
f 104/304/54 48/303/54 103/301/54
f 104/304/54 92/305/54 48/303/54
f 104/304/54 15/306/54 92/305/54
f 104/304/54 13/307/54 15/306/54
f 13/307/54 104/304/54 107/308/54
f 108/292/55 13/309/55 107/293/55
f 13/309/55 108/292/55 12/310/55
f 106/313/56 59/312/56 103/311/56
f 59/312/56 106/313/56 95/314/56
f 103/311/56 59/312/56 85/315/56
f 59/312/56 95/314/56 61/316/56
f 61/316/56 95/314/56 73/317/56
f 73/317/56 95/314/56 96/318/56
f 73/317/56 109/319/57 61/316/56
f 105/322/58 101/321/58 99/320/58
f 101/321/58 105/322/58 108/323/58
f 93/326/59 73/325/59 96/324/59
f 73/325/59 93/326/59 75/327/59
f 75/327/59 93/326/59 98/328/59
f 106/331/60 94/330/60 95/329/60
f 94/330/60 106/331/60 110/332/60
f 42/335/61 110/334/61 41/333/61
f 110/334/61 42/335/61 94/336/61
f 94/336/61 42/335/61 82/337/61
f 94/336/61 82/337/61 98/338/61
f 94/336/61 98/338/61 93/339/61
f 101/342/62 107/341/62 102/340/62
f 107/341/62 101/342/62 108/343/62
f 105/346/63 58/345/63 108/344/63
f 58/345/63 105/346/63 91/347/63
f 108/344/63 58/345/63 10/348/63
f 58/345/63 91/347/63 53/349/63
f 53/349/63 91/347/63 27/350/63
f 27/350/63 91/347/63 24/351/63
f 24/351/63 91/347/63 40/352/63
f 24/351/63 40/352/63 110/353/63
f 110/353/63 40/352/63 41/354/63
f 12/355/63 108/344/63 10/348/63
f 107/356/64 100/321/64 102/320/64
f 100/321/64 107/356/64 104/357/64
f 24/360/65 106/359/65 23/358/65
f 106/359/65 24/360/65 110/361/65
f 104/343/66 99/321/66 100/320/66
f 99/321/66 104/343/66 105/341/66

