# Created by Kenney (www.kenney.nl)

mtllib tree_pineTallA_detailed.mtl

g tree_pineTallA_detailed

v 0.046371 0.1 -0.046371
v -0.0226523 0.4441597 -0.03213268
v -0.046371 0.1 -0.046371
v -0.024505 0.628531 -0.02450501
v -0.0226523 0.4841255 -0.03047924
v 0.0173477 0.4841255 -0.03047924
v 0.0173477 0.4441597 -0.03213268
v 0.024505 0.628531 -0.02450501
v 0.03822127 0.29699 -0.02172101
v 0.024505 0.628531 0.024505
v 0.03822127 0.29699 0.01827899
v 0.03987471 0.2570242 0.01827899
v 0.03987471 0.2570242 -0.02172101
v 0.046371 0.1 0.046371
v -0.046371 0.1 0.046371
v 0.02122833 0.5140535 0.02924108
v 0.02122833 0.5540193 0.02758764
v -0.01877167 0.5540193 0.02758764
v -0.01877167 0.5140535 0.02924108
v -0.024505 0.628531 0.024505
v 0.0695565 0 0.0695565
v 0.0695565 0 -0.0695565
v -0.0695565 0 0.0695565
v -0.0695565 0 -0.0695565
v -0.0126523 0.487019 -0.1004194
v 0.007347698 0.487019 -0.1004194
v -0.0126523 0.5070019 -0.09959269
v 0.007347698 0.5070019 -0.09959269
v 0.1081614 0.2998835 -0.01172101
v 0.1073347 0.3198664 -0.01172101
v 0.1073347 0.3198664 0.008278987
v 0.1081614 0.2998835 0.008278987
v 0.01122833 0.5768957 0.09670109
v -0.008771666 0.5768957 0.09670109
v 0.01122833 0.5569128 0.09752782
v -0.008771666 0.5569128 0.09752782
v -0.1777706 0.628531 -0.1597324
v -0.1242281 0.8040632 -0.109494
v -0.1777706 0.628531 0.1497197
v -0.1242281 0.8040632 0.140371
v -0.1764686 0.8040632 0.168927
v -0.2070935 0.8040632 0.1383021
v -0.1067375 1.021443 0.1228804
v 0.1541929 0.8040632 0.1500054
v 0.1541929 0.8040632 -0.1034483
v 0.1352713 0.8040632 0.168927
v 0.1352713 0.8040632 -0.13805
v 0.1256369 0.8040632 0.140371
v -0.1644831 0.8040632 -0.13805
v -0.2070935 0.8040632 -0.1034483
v 0.1256369 0.8040632 -0.109494
v -0.1067375 1.021443 -0.09200345
v 0.1081464 1.021443 -0.09200345
v 0.1081464 1.021443 0.1228804
v 0.1121978 1.021443 0.1474386
v -0.09969307 1.021443 0.1474386
v -0.1312957 1.021443 0.115836
v 0.1352713 1.021443 -0.1165616
v 0.1677045 1.021443 -0.08412835
v 0.1677045 1.021443 0.115836
v -0.09433715 1.021443 -0.1165616
v -0.1312957 1.021443 -0.0887259
v 0.1485269 0.628531 -0.1980365
v 0.1791794 0.628531 -0.167384
v 0.1791794 0.628531 0.1638553
v 0.1491212 0.628531 0.1939135
v -0.1335767 0.628531 0.1939135
v -0.1505301 0.628531 -0.1980365
v -0.05609317 1.529606 0.01555803

vn 0 0.0413359 -0.9991453
vn 0.9991453 0.04133591 0
vn 0 0.04133591 0.9991453
vn -0.9991453 0.04133592 0
vn 0 -1 0
vn -0.9741589 0.2258636 0
vn 0.9741589 0.2258636 0
vn 0 0.2258636 -0.9741589
vn 0 0.2258636 0.9741589
vn 0 -0.8469928 -0.5316045
vn 0.9899495 0.005845778 -0.1413005
vn -0.9899495 0.005845778 -0.1413005
vn 0 0.9493463 0.3142318
vn 0.1413005 0.005845781 -0.9899495
vn 0.5316045 -0.8469927 0
vn -0.3142318 0.9493463 0
vn 0.1413005 0.005845781 0.9899495
vn 0 0.9493463 -0.3142318
vn 0.9899495 0.005845781 0.1413005
vn 0 -0.8469927 0.5316045
vn -0.9899495 0.005845781 0.1413005
vn -0.9564921 0.2917583 0
vn -0.6617339 0.3524438 0.6617339
vn -0.9079164 0.4191513 0
vn 0 0.2072277 -0.9782928
vn 0.9782928 0.2072276 0
vn 0.6450937 0.4095224 -0.6450934
vn 0.6878899 0.2315488 0.6878899
vn 0.9564921 0.2917583 0
vn 0 0.2072277 0.9782928
vn 0 0.2917583 0.9564921
vn -0.5982906 0.3149987 -0.736766
vn 0.6753426 0.2963529 0.6753426
vn 0.8584617 0.2065601 -0.4694426
vn -0.7528389 0.3828702 -0.5353913
vn -0.6854508 0.2455891 0.6854511
vn 0 0.4503701 -0.8928421
vn -0.6869247 0.2372108 0.6869247
vn -0.9892264 0.1463944 0
vn -0.5832438 0.2452328 -0.774395
vn 0 0.2516287 -0.9678238
vn 0.6447954 0.4104606 -0.6447952
vn 0.9151784 0.4030491 0
vn 0 0.2512022 0.9679346
vn 0.4610547 0.3628509 0.8097949

vt -1.82563 3.858179
vt 0.8918229 17.41936
vt 1.82563 3.858179
vt 0.9647637 24.68428
vt 0.8918229 18.99417
vt -0.6829802 18.99417
vt -0.6829802 17.41936
vt -0.9647638 24.68428
vt 0.9647642 24.68428
vt 0.855158 11.62032
vt -0.7196452 11.62032
vt -0.7196452 10.04552
vt 0.855158 10.04552
vt 0.8357612 20.17344
vt 0.9647638 24.68428
vt 0.8357612 21.74825
vt -0.739042 21.74825
vt -0.739042 20.17344
vt -0.9647637 24.68428
vt -0.9647642 24.68428
vt 2.738445 2.738445
vt 2.738445 -2.738445
vt -2.738445 2.738445
vt -2.738445 -2.738445
vt -2.738445 -0.6185151
vt -1.82563 3.422928
vt 2.738445 -0.6185151
vt 1.82563 3.422928
vt 0.4981221 18.99417
vt -0.2892795 18.99417
vt 0.4981221 19.78157
vt -0.2892795 19.78157
vt -0.6829802 10.36746
vt -0.2892795 13.54158
vt 0.8918229 10.36746
vt 0.4981221 13.54158
vt 3.872976 19.16871
vt 1.155866 17.48131
vt 3.840755 19.95545
vt 1.091423 19.05479
vt -3.843466 19.1675
vt -3.811245 19.95424
vt -1.126356 17.4801
vt -1.061913 19.05358
vt 0.6829802 7.128464
vt -0.8918229 7.128464
vt 0.2892795 9.994649
vt -0.4981221 9.994649
vt -1.433283 10.11264
vt -4.150393 11.80005
vt -1.36884 11.68613
vt -4.118172 12.58679
vt 0.4614572 12.40773
vt 0.4614572 11.62032
vt -0.3259444 12.40773
vt -0.3259444 11.62032
vt -0.3259444 9.883125
vt 0.4614572 9.883125
vt -0.7196452 6.709008
vt 0.855158 6.709008
vt -0.4614572 7.968898
vt 0.3259444 7.968898
vt -0.855158 5.102714
vt 0.7196452 5.102714
vt 1.452431 10.11343
vt 1.387988 11.68691
vt 4.169541 11.80083
vt 4.13732 12.58757
vt -0.8357612 7.885067
vt -0.4420604 10.75125
vt 0.739042 7.885067
vt 0.3453412 10.75125
vt -0.9571344 21.80568
vt -1.021577 20.23219
vt -3.706466 22.70634
vt -3.738688 21.9196
vt 0.8357612 11.73386
vt -0.739042 11.73386
vt 0.4420604 14.90798
vt -0.3453412 14.90798
vt 0.4420604 21.74825
vt -0.3453412 21.74825
vt 0.4420604 22.53565
vt -0.3453412 22.53565
vt 0.9708011 21.80624
vt 3.720133 22.7069
vt 1.035244 20.23275
vt 3.752354 21.92016
vt -6.288675 21.62673
vt -4.310787 28.85179
vt 5.894475 21.62673
vt 5.526417 28.85179
vt -0.2099495 26.23587
vt -1.915072 26.23587
vt 0.4494003 35.38092
vt 6.070588 5.905723
vt 6.070588 -4.072768
vt 5.325641 6.650669
vt 5.325641 -5.435039
vt 4.946335 5.526417
vt -6.947583 6.650669
vt -4.890869 5.526417
vt -4.890869 -4.310787
vt -6.475715 -5.435039
vt -8.153287 -4.072768
vt -8.153287 5.444965
vt 4.946335 -4.310787
vt -4.072768 25.32357
vt -3.622183 34.74981
vt 5.444965 25.32357
vt 4.837813 34.74981
vt 6.475715 29.84258
vt -5.325641 29.84258
vt 4.202265 38.59071
vt -4.257731 38.59071
vt 4.072768 29.71087
vt -5.905723 29.71087
vt 3.622183 38.45901
vt -4.837813 38.45901
vt 4.417237 5.804669
vt 4.257731 4.837813
vt -3.924924 5.804669
vt -4.202265 4.837813
vt -5.169121 4.560472
vt -4.202265 -3.622183
vt 4.257731 -3.622183
vt 5.325641 -4.58904
vt 6.60254 -3.31214
vt 6.60254 4.560472
vt -3.714061 -4.58904
vt -5.169121 -3.493146
vt 1.378292 18.62411
vt -0.3283701 18.62411
vt -0.4493992 26.19916
vt -0.4101794 37.63217
vt 0.1165772 28.83485
vt -0.9369367 28.83485
vt 6.58992 21.61054
vt -6.450996 21.61054
vt 4.310787 28.83561
vt -5.526417 28.83561
vt 5.325641 29.59066
vt -6.947583 29.59066
vt 4.257731 38.3388
vt -4.202265 38.3388
vt 5.870914 21.4413
vt -5.258926 21.4413
vt 4.946335 28.66637
vt -4.890869 28.66637
vt 3.761875 27.42959
vt 1.600849 27.42959
vt 0.9787962 36.44688
vt 7.054308 6.450996
vt 7.054308 -6.58992
vt 5.870914 7.63439
vt 5.847516 -7.796713
vt 0.9647638 0.9647638
vt -5.258926 7.63439
vt -0.9647637 0.9647638
vt -0.9647637 -0.9647642
vt 0.9647638 -0.9647642
vt -5.926381 -7.796713
vt -6.998842 5.894475
vt -6.998842 -6.288675
vt 0.4266061 20.80364
vt -1.246966 20.80364
vt -0.4101798 28.0394
vt 2.213426 29.46951
vt 0.6607731 29.46951
vt 1.135227 38.21639
vt -1.068671 19.28062
vt -2.91917 19.28062
vt -0.6784997 26.76135
vt 1.679704 21.74844
vt -0.7809073 21.74844
vt 0.4493985 28.87749
vt 5.926381 18.58225
vt -5.847516 18.58225
vt 4.890869 26.32239
vt -4.946335 26.32239
vt 1.32918 37.43451
vt -0.4303795 37.43451
vt -1.128452 58.02874
vt -3.493146 39.02428
vt 0.6125208 59.24861
vt 4.560472 39.02428
vt 2.027497 37.5394
vt 0.2059089 37.5394
vt 2.132536 58.17599
vt 3.714061 37.7656
vt -5.325641 37.7656
vt 2.208393 58.43716
vt -0.520855 33.79289
vt -2.326664 33.79289
vt 1.128452 55.7327
vt -0.6125208 56.00278
vt 3.31214 34.14209
vt -4.560472 34.14209
vt 4.417237 37.46664
vt -3.924924 37.46664
vt -2.208393 58.13584
vt 3.481339 34.85017
vt 0.9666674 34.85017
vt -2.2222 56.31983

usemtl woodBarkDark

f 3/3/1 2/2/1 1/1/1
f 2/2/1 3/3/1 4/4/1
f 2/2/1 4/4/1 5/5/1
f 5/5/1 4/4/1 6/6/1
f 7/7/1 1/1/1 2/2/1
f 1/1/1 7/7/1 8/8/1
f 8/8/1 7/7/1 6/6/1
f 8/8/1 6/6/1 4/4/1
f 10/8/2 9/10/2 8/9/2
f 9/10/2 10/8/2 11/11/2
f 11/11/2 10/8/2 12/12/2
f 13/13/2 8/9/2 9/10/2
f 13/13/2 1/3/2 8/9/2
f 1/3/2 13/13/2 14/1/2
f 14/1/2 13/13/2 12/12/2
f 14/1/2 12/12/2 10/8/2
f 14/3/3 16/14/3 15/1/3
f 16/14/3 14/3/3 10/15/3
f 16/14/3 10/15/3 17/16/3
f 17/16/3 10/15/3 18/17/3
f 19/18/3 15/1/3 16/14/3
f 15/1/3 19/18/3 20/19/3
f 20/19/3 19/18/3 18/17/3
f 20/19/3 18/17/3 10/15/3
f 15/3/4 4/20/4 3/1/4
f 4/20/4 15/3/4 20/15/4
f 23/23/5 22/22/5 21/21/5
f 22/22/5 23/23/5 24/24/5
f 23/27/6 3/26/6 24/25/6
f 3/26/6 23/27/6 15/28/6
f 1/28/7 21/25/7 22/27/7
f 21/25/7 1/28/7 14/26/7
f 3/28/8 22/25/8 24/27/8
f 22/25/8 3/28/8 1/26/8
f 14/28/9 23/25/9 21/27/9
f 23/25/9 14/28/9 15/26/9
f 27/31/1 26/30/1 25/29/1
f 26/30/1 27/31/1 28/32/1
f 2/35/10 26/34/10 7/33/10
f 26/34/10 2/35/10 25/36/10
f 28/39/11 7/38/11 26/37/11
f 7/38/11 28/39/11 6/40/11
f 2/43/12 27/42/12 25/41/12
f 27/42/12 2/43/12 5/44/12
f 28/47/13 5/46/13 6/45/13
f 5/46/13 28/47/13 27/48/13
f 9/51/14 29/50/14 13/49/14
f 29/50/14 9/51/14 30/52/14
f 31/55/2 29/54/2 30/53/2
f 29/54/2 31/55/2 32/56/2
f 12/59/15 29/58/15 32/57/15
f 29/58/15 12/59/15 13/60/15
f 9/63/16 31/62/16 30/61/16
f 31/62/16 9/63/16 11/64/16
f 32/67/17 11/66/17 12/65/17
f 11/66/17 32/67/17 31/68/17
f 18/71/18 33/70/18 17/69/18
f 33/70/18 18/71/18 34/72/18
f 33/75/19 16/74/19 17/73/19
f 16/74/19 33/75/19 35/76/19
f 35/79/20 19/78/20 16/77/20
f 19/78/20 35/79/20 36/80/20
f 33/83/3 36/82/3 35/81/3
f 36/82/3 33/83/3 34/84/3
f 19/87/21 34/86/21 18/85/21
f 34/86/21 19/87/21 36/88/21

usemtl leafsDark

f 39/91/22 38/90/22 37/89/22
f 38/90/22 39/91/22 40/92/22
f 43/95/23 42/94/23 41/93/23
f 46/98/5 45/97/5 44/96/5
f 45/97/5 46/98/5 47/99/5
f 47/99/5 46/98/5 48/100/5
f 48/100/5 46/98/5 41/101/5
f 48/100/5 41/101/5 40/102/5
f 40/102/5 41/101/5 38/103/5
f 38/103/5 41/101/5 49/104/5
f 49/104/5 41/101/5 50/105/5
f 50/105/5 41/101/5 42/106/5
f 47/99/5 51/107/5 49/104/5
f 51/107/5 47/99/5 48/100/5
f 49/104/5 51/107/5 38/103/5
f 42/110/24 52/109/24 50/108/24
f 52/109/24 42/110/24 43/111/24
f 52/114/25 47/113/25 49/112/25
f 47/113/25 52/114/25 53/115/25
f 53/118/26 44/117/26 45/116/26
f 44/117/26 53/118/26 54/119/26
f 56/122/5 54/121/5 55/120/5
f 54/121/5 56/122/5 43/123/5
f 43/123/5 56/122/5 57/124/5
f 43/123/5 57/124/5 52/125/5
f 53/126/5 55/120/5 54/121/5
f 58/127/5 55/120/5 53/126/5
f 59/128/5 55/120/5 58/127/5
f 55/120/5 59/128/5 60/129/5
f 58/127/5 53/126/5 61/130/5
f 61/130/5 53/126/5 52/125/5
f 61/130/5 52/125/5 62/131/5
f 62/131/5 52/125/5 57/124/5
f 51/134/27 64/133/27 63/132/27
f 46/137/28 44/136/28 54/135/28
f 51/140/29 65/139/29 64/138/29
f 65/139/29 51/140/29 48/141/29
f 54/144/30 41/143/30 46/142/30
f 41/143/30 54/144/30 43/145/30
f 48/148/31 67/147/31 66/146/31
f 67/147/31 48/148/31 40/149/31
f 52/152/32 49/151/32 50/150/32
f 66/155/5 64/154/5 65/153/5
f 64/154/5 66/155/5 63/156/5
f 63/156/5 66/155/5 10/157/5
f 10/157/5 66/155/5 67/158/5
f 10/157/5 67/158/5 20/159/5
f 20/159/5 67/158/5 4/160/5
f 8/161/5 63/156/5 10/157/5
f 63/156/5 8/161/5 68/162/5
f 68/162/5 8/161/5 4/160/5
f 68/162/5 4/160/5 67/158/5
f 68/162/5 67/158/5 39/163/5
f 68/162/5 39/163/5 37/164/5
f 48/167/33 66/166/33 65/165/33
f 53/170/34 45/169/34 47/168/34
f 38/173/35 68/172/35 37/171/35
f 40/176/36 39/175/36 67/174/36
f 38/179/37 63/178/37 68/177/37
f 63/178/37 38/179/37 51/180/37
f 69/183/38 57/182/38 56/181/38
f 57/186/39 69/185/39 62/184/39
f 69/189/40 61/188/40 62/187/40
f 69/192/41 58/191/41 61/190/41
f 69/195/42 59/194/42 58/193/42
f 60/198/43 59/197/43 69/196/43
f 69/201/44 56/200/44 55/199/44
f 69/204/45 55/203/45 60/202/45

