# Created by Kenney (www.kenney.nl)

mtllib tree_pineTallA.mtl

g tree_pineTallA

v 0.046371 0 0.046371
v 0.046371 0 -0.046371
v -0.046371 0 0.046371
v -0.046371 0 -0.046371
v -0.024505 0.628531 -0.02450501
v 0.024505 0.628531 -0.02450501
v 0.024505 0.628531 0.024505
v -0.024505 0.628531 0.024505
v -0.1777706 0.628531 -0.1597324
v -0.1242281 0.8040632 -0.109494
v -0.1777706 0.628531 0.1497197
v -0.1242281 0.8040632 0.140371
v -0.1764686 0.8040632 0.168927
v -0.2070935 0.8040632 0.1383021
v -0.1067375 1.021443 0.1228804
v 0.1541929 0.8040632 0.1500054
v 0.1541929 0.8040632 -0.1034483
v 0.1352713 0.8040632 0.168927
v 0.1352713 0.8040632 -0.13805
v 0.1256369 0.8040632 0.140371
v -0.1644831 0.8040632 -0.13805
v -0.2070935 0.8040632 -0.1034483
v 0.1256369 0.8040632 -0.109494
v -0.1067375 1.021443 -0.09200345
v 0.1081464 1.021443 -0.09200345
v 0.1081464 1.021443 0.1228804
v 0.1121978 1.021443 0.1474386
v -0.09969307 1.021443 0.1474386
v -0.1312957 1.021443 0.115836
v 0.1352713 1.021443 -0.1165616
v 0.1677045 1.021443 -0.08412835
v 0.1677045 1.021443 0.115836
v -0.09433715 1.021443 -0.1165616
v -0.1312957 1.021443 -0.0887259
v 0.1485269 0.628531 -0.1980365
v 0.1791794 0.628531 -0.167384
v 0.1791794 0.628531 0.1638553
v 0.1491212 0.628531 0.1939135
v -0.1335767 0.628531 0.1939135
v -0.1505301 0.628531 -0.1980365
v -0.05609317 1.529606 0.01555803

vn 0 -1 0
vn 0 0.03476801 -0.9993954
vn 0.9993954 0.03476802 0
vn 0 0.03476802 0.9993954
vn -0.9993954 0.03476803 0
vn -0.9564921 0.2917583 0
vn -0.6617339 0.3524438 0.6617339
vn -0.9079164 0.4191513 0
vn 0 0.2072277 -0.9782928
vn 0.9782928 0.2072276 0
vn 0.6450937 0.4095224 -0.6450934
vn 0.6878899 0.2315488 0.6878899
vn 0.9564921 0.2917583 0
vn 0 0.2072277 0.9782928
vn 0 0.2917583 0.9564921
vn -0.5982906 0.3149987 -0.736766
vn 0.6753426 0.2963529 0.6753426
vn 0.8584617 0.2065601 -0.4694426
vn -0.7528389 0.3828702 -0.5353913
vn -0.6854508 0.2455891 0.6854511
vn 0 0.4503701 -0.8928421
vn -0.6869247 0.2372108 0.6869247
vn -0.9892264 0.1463944 0
vn -0.5832438 0.2452328 -0.774395
vn 0 0.2516287 -0.9678238
vn 0.6447954 0.4104606 -0.6447952
vn 0.9151784 0.4030491 0
vn 0 0.2512022 0.9679346
vn 0.4610547 0.3628509 0.8097949

vt 1.82563 1.82563
vt 1.82563 -1.82563
vt -1.82563 1.82563
vt -1.82563 -1.82563
vt 1.82563 -0.06347352
vt -1.82563 -0.06347352
vt 0.9647637 24.69681
vt -0.9647638 24.69681
vt 1.82563 -0.06347355
vt -1.82563 -0.06347355
vt 0.9647642 24.69681
vt 0.9647638 24.69681
vt -0.9647637 24.69681
vt -1.82563 -0.06347355
vt -0.9647642 24.69681
vt 1.82563 -0.06347355
vt -6.288675 21.62673
vt -4.310787 28.85179
vt 5.894475 21.62673
vt 5.526417 28.85179
vt -0.2099495 26.23587
vt -1.915072 26.23587
vt 0.4494003 35.38092
vt 6.070588 5.905723
vt 6.070588 -4.072768
vt 5.325641 6.650669
vt 5.325641 -5.435039
vt 4.946335 5.526417
vt -6.947583 6.650669
vt -4.890869 5.526417
vt -4.890869 -4.310787
vt -6.475715 -5.435039
vt -8.153287 -4.072768
vt -8.153287 5.444965
vt 4.946335 -4.310787
vt -4.072768 25.32357
vt -3.622183 34.74981
vt 5.444965 25.32357
vt 4.837813 34.74981
vt 6.475715 29.84258
vt -5.325641 29.84258
vt 4.202265 38.59071
vt -4.257731 38.59071
vt 4.072768 29.71087
vt -5.905723 29.71087
vt 3.622183 38.45901
vt -4.837813 38.45901
vt 4.417237 5.804669
vt 4.257731 4.837813
vt -3.924924 5.804669
vt -4.202265 4.837813
vt -5.169121 4.560472
vt -4.202265 -3.622183
vt 4.257731 -3.622183
vt 5.325641 -4.58904
vt 6.60254 -3.31214
vt 6.60254 4.560472
vt -3.714061 -4.58904
vt -5.169121 -3.493146
vt 1.378292 18.62411
vt -0.3283701 18.62411
vt -0.4493992 26.19916
vt -0.4101794 37.63217
vt 0.1165772 28.83485
vt -0.9369367 28.83485
vt 6.58992 21.61054
vt -6.450996 21.61054
vt 4.310787 28.83561
vt -5.526417 28.83561
vt 5.325641 29.59066
vt -6.947583 29.59066
vt 4.257731 38.3388
vt -4.202265 38.3388
vt 5.870914 21.4413
vt -5.258926 21.4413
vt 4.946335 28.66637
vt -4.890869 28.66637
vt 3.761875 27.42959
vt 1.600849 27.42959
vt 0.9787962 36.44688
vt 7.054308 6.450996
vt 7.054308 -6.58992
vt 5.870914 7.63439
vt 5.847516 -7.796713
vt 0.9647638 0.9647638
vt -5.258926 7.63439
vt -0.9647637 0.9647638
vt -0.9647637 -0.9647642
vt 0.9647638 -0.9647642
vt -5.926381 -7.796713
vt -6.998842 5.894475
vt -6.998842 -6.288675
vt 0.4266061 20.80364
vt -1.246966 20.80364
vt -0.4101798 28.0394
vt 2.213426 29.46951
vt 0.6607731 29.46951
vt 1.135227 38.21639
vt -1.068671 19.28062
vt -2.91917 19.28062
vt -0.6784997 26.76135
vt 1.679704 21.74844
vt -0.7809073 21.74844
vt 0.4493985 28.87749
vt 5.926381 18.58225
vt -5.847516 18.58225
vt 4.890869 26.32239
vt -4.946335 26.32239
vt 1.32918 37.43451
vt -0.4303795 37.43451
vt -1.128452 58.02874
vt -3.493146 39.02428
vt 0.6125208 59.24861
vt 4.560472 39.02428
vt 2.027497 37.5394
vt 0.2059089 37.5394
vt 2.132536 58.17599
vt 3.714061 37.7656
vt -5.325641 37.7656
vt 2.208393 58.43716
vt -0.520855 33.79289
vt -2.326664 33.79289
vt 1.128452 55.7327
vt -0.6125208 56.00278
vt 3.31214 34.14209
vt -4.560472 34.14209
vt 4.417237 37.46664
vt -3.924924 37.46664
vt -2.208393 58.13584
vt 3.481339 34.85017
vt 0.9666674 34.85017
vt -2.2222 56.31983

usemtl woodBarkDark

f 3/3/1 2/2/1 1/1/1
f 2/2/1 3/3/1 4/4/1
f 5/7/2 2/6/2 4/5/2
f 2/6/2 5/7/2 6/8/2
f 6/11/3 1/10/3 2/9/3
f 1/10/3 6/11/3 7/8/3
f 7/12/4 3/10/4 1/9/4
f 3/10/4 7/12/4 8/13/4
f 3/16/5 5/15/5 4/14/5
f 5/15/5 3/16/5 8/12/5

usemtl leafsDark

f 11/19/6 10/18/6 9/17/6
f 10/18/6 11/19/6 12/20/6
f 15/23/7 14/22/7 13/21/7
f 18/26/1 17/25/1 16/24/1
f 17/25/1 18/26/1 19/27/1
f 19/27/1 18/26/1 20/28/1
f 20/28/1 18/26/1 13/29/1
f 20/28/1 13/29/1 12/30/1
f 12/30/1 13/29/1 10/31/1
f 10/31/1 13/29/1 21/32/1
f 21/32/1 13/29/1 22/33/1
f 22/33/1 13/29/1 14/34/1
f 19/27/1 23/35/1 21/32/1
f 23/35/1 19/27/1 20/28/1
f 21/32/1 23/35/1 10/31/1
f 14/38/8 24/37/8 22/36/8
f 24/37/8 14/38/8 15/39/8
f 24/42/9 19/41/9 21/40/9
f 19/41/9 24/42/9 25/43/9
f 25/46/10 16/45/10 17/44/10
f 16/45/10 25/46/10 26/47/10
f 28/50/1 26/49/1 27/48/1
f 26/49/1 28/50/1 15/51/1
f 15/51/1 28/50/1 29/52/1
f 15/51/1 29/52/1 24/53/1
f 25/54/1 27/48/1 26/49/1
f 30/55/1 27/48/1 25/54/1
f 31/56/1 27/48/1 30/55/1
f 27/48/1 31/56/1 32/57/1
f 30/55/1 25/54/1 33/58/1
f 33/58/1 25/54/1 24/53/1
f 33/58/1 24/53/1 34/59/1
f 34/59/1 24/53/1 29/52/1
f 23/62/11 36/61/11 35/60/11
f 18/65/12 16/64/12 26/63/12
f 23/68/13 37/67/13 36/66/13
f 37/67/13 23/68/13 20/69/13
f 26/72/14 13/71/14 18/70/14
f 13/71/14 26/72/14 15/73/14
f 20/76/15 39/75/15 38/74/15
f 39/75/15 20/76/15 12/77/15
f 24/80/16 21/79/16 22/78/16
f 38/83/1 36/82/1 37/81/1
f 36/82/1 38/83/1 35/84/1
f 35/84/1 38/83/1 7/85/1
f 7/85/1 38/83/1 39/86/1
f 7/85/1 39/86/1 8/87/1
f 8/87/1 39/86/1 5/88/1
f 6/89/1 35/84/1 7/85/1
f 35/84/1 6/89/1 40/90/1
f 40/90/1 6/89/1 5/88/1
f 40/90/1 5/88/1 39/86/1
f 40/90/1 39/86/1 11/91/1
f 40/90/1 11/91/1 9/92/1
f 20/95/17 38/94/17 37/93/17
f 25/98/18 17/97/18 19/96/18
f 10/101/19 40/100/19 9/99/19
f 12/104/20 11/103/20 39/102/20
f 10/107/21 35/106/21 40/105/21
f 35/106/21 10/107/21 23/108/21
f 41/111/22 29/110/22 28/109/22
f 29/114/23 41/113/23 34/112/23
f 41/117/24 33/116/24 34/115/24
f 41/120/25 30/119/25 33/118/25
f 41/123/26 31/122/26 30/121/26
f 32/126/27 31/125/27 41/124/27
f 41/129/28 28/128/28 27/127/28
f 41/132/29 27/131/29 32/130/29

