# Created by Kenney (www.kenney.nl)

mtllib tree_pineRoundE.mtl

g tree_pineRoundE

v -0.1888458 0.4011488 -2.165734E-15
v -0.1335341 0.4011488 0.1335341
v -0.26598 0.2524288 7.219114E-16
v -0.1880763 0.2524288 0.1880763
v 0 0.4989608 -0.212784
v 0.150461 0.4989608 -0.150461
v 0 0.6179368 -0.1510766
v 0.1068273 0.6179368 -0.1068273
v 0.1038181 0.6958432 -0.1038181
v 0.1468209 0.6958432 0
v 0.07371084 0.8042066 -0.07371084
v 0.1042429 0.8042066 -1.443823E-15
v 0 0.9121215 -0.1042429
v 0.07371084 0.9121215 -0.07371084
v 0 0.9840565 -0.07401244
v 0.0523347 0.9840565 -0.0523347
v -0.07401244 0.9840565 -1.443823E-15
v 0 1.254636 -1.443823E-15
v -0.0523347 0.9840565 0.0523347
v 0 0.6179368 0.1510766
v -0.1068273 0.6179368 0.1068273
v 0 0.6958432 0.1209212
v -0.08550422 0.6958432 0.08550422
v 0.1042429 0.9121215 0
v 0.07401244 0.9840565 -1.443823E-15
v 0.212784 0.4989608 1.443823E-15
v 0.1510766 0.6179368 0
v 0.150461 0.4989608 0.150461
v 0 0.4989608 0.212784
v 0.1068273 0.6179368 0.1068273
v 0.1888458 0.4011488 -2.165734E-15
v 0.26598 0.2524288 7.219114E-16
v 0.1335341 0.4011488 0.1335341
v 0.1880763 0.2524288 0.1880763
v -0.07371084 0.9121215 -0.07371084
v -0.0523347 0.9840565 -0.0523347
v -0.1042429 0.9121215 0
v 0.0523347 0.9840565 0.0523347
v 0 0.9840565 0.07401244
v -0.150461 0.4989608 -0.150461
v -0.1068273 0.6179368 -0.1068273
v 0.1880763 0.2524288 -0.1880763
v 0.1335341 0.4011488 -0.1335341
v 0 0.2524288 0.26598
v 0.03853633 0.2524288 0.03853633
v -0.03853633 0.2524288 0.03853633
v -0.03853633 0.2524288 -0.03853633
v 0.03853633 0.2524288 -0.03853633
v 0 0.2524288 -0.26598
v -0.1880763 0.2524288 -0.1880763
v -0.1509855 0.4989608 -1.443823E-15
v -0.1067628 0.4989608 0.1067628
v 0 0.4011488 0.1888458
v 5.775291E-15 0.4989608 0.1509855
v -0.1335341 0.4011488 -0.1335341
v -0.1067628 0.4989608 -0.1067628
v 0.1038181 0.6958432 0.1038181
v 0 0.6958432 0.1468209
v 0.07371084 0.8042066 0.07371084
v 0 0.8042066 0.1042429
v 0.05133471 0.9121215 0.05133471
v 5.775291E-15 0.9121215 0.07259824
v 0 0.4011488 -0.1888458
v 0.1209212 0.6958432 0
v 0.08550422 0.6958432 0.08550422
v -0.1038181 0.6958432 0.1038181
v -0.1209212 0.6958432 -2.165734E-15
v -0.1468209 0.6958432 0
v 0.08550422 0.6958432 -0.08550422
v 0 0.6958432 -0.1468209
v 0 0.6958432 -0.1209212
v -0.08550422 0.6958432 -0.08550422
v -0.1038181 0.6958432 -0.1038181
v 0 0.8042066 -0.1042429
v 0 0.9121215 -0.07259824
v 0.05133471 0.9121215 -0.05133471
v -0.1042429 0.8042066 -1.443823E-15
v -0.07371084 0.8042066 0.07371084
v -0.1510766 0.6179368 0
v -0.212784 0.4989608 1.443823E-15
v -0.150461 0.4989608 0.150461
v 0.1509855 0.4989608 -1.443823E-15
v 0.1067628 0.4989608 0.1067628
v 0.1067628 0.4989608 -0.1067628
v 5.775291E-15 0.4989608 -0.1509855
v -0.07371084 0.8042066 -0.07371084
v -0.05133471 0.9121215 0.05133471
v 0.07259824 0.9121215 -1.443823E-15
v 0.07371084 0.9121215 0.07371084
v 0 0.9121215 0.1042429
v -0.07371084 0.9121215 0.07371084
v -0.07259824 0.9121215 -2.165734E-15
v -0.05133471 0.9121215 -0.05133471
v 0.0750464 0 -0.0750464
v 0.0750464 0 0.0750464
v 0.04878016 0.0709696 -0.04878016
v 0.04878016 0.0709696 0.04878016
v -0.04878016 0.0709696 0.04878016
v -0.0750464 0 -0.0750464
v -0.04878016 0.0709696 -0.04878016
v -0.0750464 0 0.0750464

vn -0.8508487 0.3896761 0.3524331
vn -0.8331671 0.4321253 0.3451091
vn 0.3451091 0.4321253 -0.8331671
vn 0.3524331 0.3896761 -0.8508487
vn 0.8684304 0.3412233 -0.3597156
vn 0.8799357 0.3047398 -0.3644813
vn 0.3567388 0.3619348 -0.8612435
vn 0.3640014 0.3086322 -0.8787771
vn -0.8787771 0.3086322 0.3640014
vn -0.8957203 0.2450095 0.3710195
vn -0.3524331 0.3896761 0.8508487
vn -0.3603359 0.336725 0.8699278
vn 0.8612435 0.3619348 -0.3567388
vn 0.8787771 0.3086322 -0.3640014
vn 0.8331671 0.4321253 -0.3451091
vn 0.8508487 0.3896761 -0.3524331
vn 0.3451091 0.4321253 0.8331671
vn 0.3524331 0.3896761 0.8508487
vn 0.8508487 0.3896761 0.3524331
vn 0.8331671 0.4321253 0.3451091
vn -0.8612435 0.3619348 -0.3567388
vn -0.8787771 0.3086322 -0.3640014
vn 0.3640014 0.3086322 0.8787771
vn 0.3710195 0.2450095 0.8957203
vn -0.3451091 0.4321253 -0.8331671
vn -0.3524331 0.3896761 -0.8508487
vn 0 -1 0
vn -0.8699278 0.336725 0.3603359
vn -0.3567388 0.3619348 -0.8612435
vn -0.3640014 0.3086322 -0.8787771
vn -0.8508487 0.3896761 -0.3524331
vn -0.8699278 0.336725 -0.3603359
vn 0.3597156 0.3412233 0.8684304
vn 0.3644813 0.3047398 0.8799357
vn 0.3693685 0.2614892 0.8917344
vn -0.3710195 0.2450095 -0.8957203
vn 0.8957203 0.2450095 -0.3710195
vn -0.3451091 0.4321253 0.8331671
vn 0.3644813 0.3047398 -0.8799357
vn 0.3693685 0.2614892 -0.8917344
vn -0.8799357 0.3047398 0.3644813
vn -0.8684304 0.3412233 0.3597156
vn -0.3597156 0.3412233 0.8684304
vn -0.3644813 0.3047398 0.8799357
vn -0.3640014 0.3086322 0.8787771
vn -0.3710195 0.2450095 0.8957203
vn -0.8684304 0.3412233 -0.3597156
vn -0.8799357 0.3047398 -0.3644813
vn 0.3603359 0.336725 0.8699278
vn -0.3693685 0.2614892 0.8917344
vn 0.3603359 0.336725 -0.8699278
vn -0.8331671 0.4321253 -0.3451091
vn 0.8917344 0.2614892 -0.3693685
vn -0.3603359 0.336725 -0.8699278
vn 0.8787771 0.3086322 0.3640014
vn 0.8612435 0.3619348 0.3567388
vn -0.3567388 0.3619348 0.8612435
vn 0.8699278 0.336725 -0.3603359
vn -0.3597156 0.3412233 -0.8684304
vn -0.3644813 0.3047398 -0.8799357
vn 0.8699278 0.336725 0.3603359
vn -0.3693685 0.2614892 -0.8917344
vn 0.8917344 0.2614892 0.3693685
vn 0.8799357 0.3047398 0.3644813
vn 0.3567388 0.3619348 0.8612435
vn 0.8957203 0.2450095 0.3710195
vn -0.8612435 0.3619348 0.3567388
vn -0.8957203 0.2450095 -0.3710195
vn -0.8917344 0.2614892 0.3693685
vn 0.3597156 0.3412233 -0.8684304
vn 0.3710195 0.2450095 -0.8957203
vn 0.8684304 0.3412233 0.3597156
vn -0.8917344 0.2614892 -0.3693685
vn 0.9378296 0.3470959 0
vn 0 0.05636281 0.9984103
vn 0 0.3470959 -0.9378296
vn 0 0.05636281 -0.9984103
vn -0.9378296 0.3470959 0
vn -0.9984103 0.05636281 0
vn 0.9984103 0.05636281 0
vn 0 0.3470959 0.9378296

vt -2.845203 11.27434
vt 2.845203 11.27434
vt -4.007329 4.781734
vt 4.007329 4.781734
vt 3.205863 14.37085
vt -3.205863 14.37085
vt 2.276162 19.56493
vt -2.276162 19.56493
vt 2.212045 23.92894
vt -2.212045 23.92894
vt 1.570552 28.46761
vt -1.570552 28.46761
vt 1.570552 32.10337
vt -1.570552 32.10337
vt 1.115092 35.14143
vt -1.115092 35.14143
vt -1.115092 36.90196
vt -5.340465E-14 47.88958
vt 1.115092 36.90196
vt 2.276162 21.05717
vt -2.276162 21.05717
vt 1.821833 24.31458
vt -1.821833 24.31458
vt 2.086486E-14 47.88958
vt 10.47165 2.842171E-14
vt 7.404577 -7.404577
vt 7.404577 7.404577
vt 0 10.47165
vt 1.517178 1.517178
vt -1.517178 1.517178
vt -7.404577 7.404577
vt -1.517178 -1.517178
vt 1.517178 -1.517178
vt 0 -10.47165
vt -7.404577 -7.404577
vt -10.47165 2.842171E-14
vt -2.845203 12.55804
vt -2.274789 16.64773
vt 2.845203 12.55804
vt 2.274789 16.64773
vt 1.570552 29.56857
vt -1.570552 29.56857
vt 1.093785 33.97035
vt -1.093785 33.97035
vt -2.175303E-14 47.88958
vt 5.780353 0
vt 4.760678 0
vt 4.087327 4.087327
vt 3.366308 3.366308
vt 0 5.780353
vt 0 4.760678
vt -4.087327 4.087327
vt -3.366308 3.366308
vt -4.760678 -8.526513E-14
vt -5.780353 0
vt 4.087327 -4.087327
vt 3.366308 -3.366308
vt 0 -5.780353
vt 0 -4.760678
vt -3.366308 -3.366308
vt -4.087327 -4.087327
vt 5.340465E-14 47.88958
vt 8.377323 5.684342E-14
vt 5.94431 -5.684342E-14
vt 5.923662 5.923662
vt 4.203262 4.203262
vt 0 8.377323
vt 2.273737E-13 5.94431
vt -4.203262 4.203262
vt -5.923662 5.923662
vt -5.94431 -5.684342E-14
vt -8.377323 5.684342E-14
vt 5.923662 -5.923662
vt 4.203262 -4.203262
vt 0 -8.377323
vt 2.273737E-13 -5.94431
vt -4.203262 -4.203262
vt -5.923662 -5.923662
vt 4.104051 0
vt 2.902002 -2.902002
vt 2.902002 2.902002
vt 2.858198 -5.684342E-14
vt 2.021051 2.021051
vt 0 4.104051
vt 2.273737E-13 2.858198
vt -2.021051 2.021051
vt -2.902002 2.902002
vt -2.858198 -8.526513E-14
vt 2.021051 -2.021051
vt 0 -4.104051
vt 0 -2.858198
vt -2.021051 -2.021051
vt -2.902002 -2.902002
vt -4.104051 0
vt -5.251647E-14 47.88958
vt 2.175303E-14 47.88958
vt 2.954583 -1.025524
vt -2.954583 -1.025524
vt 1.920479 1.95378
vt -1.920479 1.95378
vt 1.920479 2.681394
vt -1.920479 2.681394
vt 1.517178 9.836831
vt -1.517178 9.836831
vt 2.954583 2.954583
vt 2.954583 -2.954583
vt -2.954583 2.954583
vt -2.954583 -2.954583

usemtl leafsDark

f 3/3/2 2/2/1 1/1/1
f 2/2/1 3/3/2 4/4/2
f 7/7/4 6/6/3 5/5/3
f 6/6/3 7/7/4 8/8/4
f 11/11/6 10/10/5 9/9/5
f 10/10/5 11/11/6 12/12/6
f 15/15/8 14/14/7 13/13/7
f 14/14/7 15/15/8 16/16/8
f 19/19/9 18/18/10 17/17/9
f 22/22/12 21/21/11 20/20/11
f 21/21/11 22/22/12 23/23/12
f 16/15/14 24/14/13 14/13/13
f 24/14/13 16/15/14 25/16/14
f 8/7/16 26/6/15 6/5/15
f 26/6/15 8/7/16 27/8/16
f 30/7/18 29/6/17 28/5/17
f 29/6/17 30/7/18 20/8/18
f 33/1/19 32/4/20 31/2/19
f 32/4/20 33/1/19 34/3/20
f 37/13/21 36/16/22 35/14/21
f 36/16/22 37/13/21 17/15/22
f 18/24/24 39/17/23 38/19/23
f 41/7/26 5/6/25 40/5/25
f 5/6/25 41/7/26 7/8/26
f 43/2/16 32/3/15 42/4/15
f 32/3/15 43/2/16 31/1/16
f 34/27/27 42/26/27 32/25/27
f 42/26/27 34/27/27 44/28/27
f 42/26/27 44/28/27 45/29/27
f 45/29/27 44/28/27 46/30/27
f 46/30/27 44/28/27 4/31/27
f 46/30/27 4/31/27 47/32/27
f 48/33/27 42/26/27 45/29/27
f 42/26/27 48/33/27 49/34/27
f 49/34/27 48/33/27 47/32/27
f 49/34/27 47/32/27 50/35/27
f 50/35/27 47/32/27 4/31/27
f 50/35/27 4/31/27 3/36/27
f 2/39/1 51/38/28 1/37/1
f 51/38/28 2/39/1 52/40/28
f 36/15/30 13/14/29 35/13/29
f 13/14/29 36/15/30 15/16/30
f 54/40/12 2/37/11 53/39/11
f 2/37/11 54/40/12 52/38/12
f 1/39/31 56/38/32 55/37/31
f 56/38/32 1/39/31 51/40/32
f 59/11/34 58/10/33 57/9/33
f 58/10/33 59/11/34 60/12/34
f 61/43/35 60/42/34 59/41/34
f 60/42/34 61/43/35 62/44/35
f 18/45/36 15/17/30 36/19/30
f 55/2/26 49/3/25 50/4/25
f 49/3/25 55/2/26 63/1/26
f 57/48/27 64/47/27 10/46/27
f 64/47/27 57/48/27 65/49/27
f 65/49/27 57/48/27 58/50/27
f 65/49/27 58/50/27 22/51/27
f 22/51/27 58/50/27 66/52/27
f 22/51/27 66/52/27 23/53/27
f 23/53/27 66/52/27 67/54/27
f 67/54/27 66/52/27 68/55/27
f 64/47/27 9/56/27 10/46/27
f 9/56/27 64/47/27 69/57/27
f 9/56/27 69/57/27 70/58/27
f 70/58/27 69/57/27 71/59/27
f 70/58/27 71/59/27 72/60/27
f 70/58/27 72/60/27 73/61/27
f 73/61/27 72/60/27 67/54/27
f 73/61/27 67/54/27 68/55/27
f 25/17/14 16/19/14 18/62/37
f 53/2/11 4/3/38 44/4/38
f 4/3/38 53/2/11 2/1/11
f 75/43/40 11/42/39 74/41/39
f 11/42/39 75/43/40 76/44/40
f 68/10/42 78/11/41 77/12/41
f 78/11/41 68/10/42 66/9/42
f 80/6/2 21/7/1 79/8/1
f 21/7/1 80/6/2 81/5/2
f 33/2/18 44/3/17 34/4/17
f 44/3/17 33/2/18 53/1/18
f 60/11/44 66/10/43 58/9/43
f 66/10/43 60/11/44 78/12/44
f 79/21/1 23/22/28 67/23/28
f 23/22/28 79/21/1 21/20/1
f 30/8/19 26/5/20 27/7/19
f 26/5/20 30/8/19 28/6/20
f 63/2/4 42/3/3 49/4/3
f 42/3/3 63/2/4 43/1/4
f 18/45/46 19/17/45 39/19/45
f 28/65/27 82/64/27 26/63/27
f 82/64/27 28/65/27 83/66/27
f 83/66/27 28/65/27 29/67/27
f 83/66/27 29/67/27 54/68/27
f 54/68/27 29/67/27 52/69/27
f 52/69/27 29/67/27 81/70/27
f 52/69/27 81/70/27 51/71/27
f 51/71/27 81/70/27 80/72/27
f 82/64/27 6/73/27 26/63/27
f 6/73/27 82/64/27 84/74/27
f 6/73/27 84/74/27 5/75/27
f 5/75/27 84/74/27 85/76/27
f 5/75/27 85/76/27 56/77/27
f 5/75/27 56/77/27 40/78/27
f 40/78/27 56/77/27 51/71/27
f 40/78/27 51/71/27 80/72/27
f 68/9/47 86/12/48 73/10/47
f 86/12/48 68/9/47 77/11/48
f 65/22/49 20/21/18 30/20/18
f 20/21/18 65/22/49 22/23/49
f 62/43/50 78/42/44 60/41/44
f 78/42/44 62/43/50 87/44/50
f 85/40/51 43/37/4 63/39/4
f 43/37/4 85/40/51 84/38/51
f 80/5/52 41/8/31 40/6/52
f 41/8/31 80/5/52 79/7/31
f 76/43/53 12/42/6 11/41/6
f 12/42/6 76/43/53 88/44/53
f 89/81/27 14/80/27 24/79/27
f 14/80/27 89/81/27 88/82/27
f 88/82/27 89/81/27 61/83/27
f 61/83/27 89/81/27 90/84/27
f 61/83/27 90/84/27 62/85/27
f 62/85/27 90/84/27 87/86/27
f 87/86/27 90/84/27 91/87/27
f 87/86/27 91/87/27 92/88/27
f 76/89/27 14/80/27 88/82/27
f 14/80/27 76/89/27 13/90/27
f 13/90/27 76/89/27 75/91/27
f 13/90/27 75/91/27 93/92/27
f 13/90/27 93/92/27 35/93/27
f 35/93/27 93/92/27 92/88/27
f 35/93/27 92/88/27 91/87/27
f 35/93/27 91/87/27 37/94/27
f 72/22/54 7/21/26 41/20/26
f 7/21/26 72/22/54 71/23/54
f 83/40/49 53/37/18 33/39/18
f 53/37/18 83/40/49 54/38/49
f 38/16/55 24/13/56 25/15/55
f 24/13/56 38/16/55 89/14/56
f 39/15/45 91/14/57 90/13/57
f 91/14/57 39/15/45 19/16/45
f 84/40/58 31/37/16 43/39/16
f 31/37/16 84/40/58 82/38/58
f 86/11/60 70/10/59 73/9/59
f 70/10/59 86/11/60 74/12/60
f 65/23/61 27/20/19 64/22/61
f 27/20/19 65/23/61 30/21/19
f 93/43/62 74/42/60 86/41/60
f 74/42/60 93/43/62 75/44/62
f 61/44/63 12/41/64 88/43/63
f 12/41/64 61/44/63 59/42/64
f 38/15/23 90/14/65 89/13/65
f 90/14/65 38/15/23 39/16/23
f 38/17/55 25/19/55 18/62/66
f 56/40/54 63/37/26 55/39/26
f 63/37/26 56/40/54 85/38/54
f 37/14/67 19/15/9 17/16/9
f 19/15/9 37/14/67 91/13/67
f 3/4/52 55/1/31 50/3/52
f 55/1/31 3/4/52 1/2/31
f 18/95/68 36/17/22 17/19/22
f 69/22/58 27/21/16 8/20/16
f 27/21/16 69/22/58 64/23/58
f 82/40/61 33/37/19 31/39/19
f 33/37/19 82/40/61 83/38/61
f 20/7/11 81/6/38 29/5/38
f 81/6/38 20/7/11 21/8/11
f 77/42/41 87/43/69 92/44/69
f 87/43/69 77/42/41 78/41/41
f 71/22/51 8/21/4 7/20/4
f 8/21/4 71/22/51 69/23/51
f 79/20/31 72/23/32 41/21/31
f 72/23/32 79/20/31 67/22/32
f 74/11/39 9/10/70 70/9/70
f 9/10/70 74/11/39 11/12/39
f 18/96/71 16/17/8 15/19/8
f 59/12/64 10/9/72 12/11/64
f 10/9/72 59/12/64 57/10/72
f 77/41/48 93/44/73 86/42/48
f 93/44/73 77/41/48 92/43/73

usemtl woodBarkDark

f 96/99/74 95/98/74 94/97/74
f 95/98/74 96/99/74 97/100/74
f 45/103/75 98/102/75 97/101/75
f 98/102/75 45/103/75 46/104/75
f 100/99/76 94/98/76 99/97/76
f 94/98/76 100/99/76 96/100/76
f 101/107/27 94/106/27 95/105/27
f 94/106/27 101/107/27 99/108/27
f 47/103/77 96/102/77 100/101/77
f 96/102/77 47/103/77 48/104/77
f 101/97/78 100/100/78 99/98/78
f 100/100/78 101/97/78 98/99/78
f 98/101/79 47/104/79 100/102/79
f 47/104/79 98/101/79 46/103/79
f 48/103/80 97/102/80 96/101/80
f 97/102/80 48/103/80 45/104/80
f 97/99/81 101/98/81 95/97/81
f 101/98/81 97/99/81 98/100/81

