# Created by Kenney (www.kenney.nl)

mtllib tree_pineSmallA.mtl

g tree_pineSmallA

v -0.15 0.2 -0.25
v -0.15 0.3 -0.25
v -0.25 0.2 -0.15
v -0.25 0.3 -0.15
v 0.25 0.3 0.15
v 0.25 0.2 0.15
v 0.15 0.3 0.25
v 0.15 0.2 0.25
v -0.25 0.2 0.15
v -0.25 0.3 0.15
v -0.15 0.2 0.25
v -0.15 0.3 0.25
v 0.15 0.3 -0.25
v 0.15 0.2 -0.25
v 0.25 0.3 -0.15
v 0.25 0.2 -0.15
v -0.08184 0.5 0.1364
v -0.1364 0.5 0.08184
v 0.1364 0.5 0.08184
v 0.08184 0.5 0.1364
v -0.08184 0.5 -0.1364
v 0.08184 0.5 -0.1364
v -0.1364 0.5 -0.08184
v 0.1364 0.5 -0.08184
v 0.108 0.5 0.18
v -0.108 0.5 0.18
v 0.108 0.572 0.18
v -0.108 0.572 0.18
v -0.108 0.5 -0.18
v -0.108 0.572 -0.18
v -0.18 0.5 -0.108
v -0.18 0.572 -0.108
v 0.18 0.572 0.108
v 0.0792 0.716 0.04752
v 0.04752 0.716 0.0792
v -0.18 0.5 0.108
v -0.18 0.572 0.108
v -0.04752 0.716 0.0792
v -0.0792 0.716 0.04752
v 0.108 0.572 -0.18
v 0.108 0.5 -0.18
v 0.18 0.572 -0.108
v 0.18 0.5 -0.108
v 0.18 0.5 0.108
v 0.05548985 0.2 0.05548985
v -0.05548985 0.2 0.05548985
v -0.05548985 0.2 -0.05548985
v 0.05548985 0.2 -0.05548985
v -0.0792 0.716 -0.04752
v -0.04752 0.716 -0.0792
v 0.0792 0.716 -0.04752
v 0.04752 0.716 -0.0792
v -0.0756 0.716 -0.126
v -0.0756 0.7664 -0.126
v -0.126 0.716 -0.0756
v -0.126 0.7664 -0.0756
v 0.0756 0.7664 -0.126
v 0.0756 0.716 -0.126
v 0.126 0.7664 -0.0756
v 0.126 0.716 -0.0756
v 0.0756 0.716 0.126
v -0.0756 0.716 0.126
v 0.0756 0.7664 0.126
v -0.0756 0.7664 0.126
v -0.126 0.716 0.0756
v -0.126 0.7664 0.0756
v 0.126 0.716 0.0756
v 0.0393624 0.9672 0.02361744
v 0.126 0.7664 0.0756
v 0.02361744 0.9672 0.0393624
v 0.02361744 0.9672 -0.0393624
v 0.0393624 0.9672 -0.02361744
v -0.02361744 0.9672 -0.0393624
v -0.02361744 0.9672 0.0393624
v -0.0393624 0.9672 -0.02361744
v -0.0393624 0.9672 0.02361744
v 0.09333394 0 0.09333394
v 0.09333394 0 -0.09333394
v -0.09333394 0 0.09333394
v -0.09333394 0 -0.09333394
v -0.06325843 0.1 -0.06325843
v 0.06325843 0.1 -0.06325843
v 0.06325843 0.1 0.06325843
v -0.06325843 0.1 0.06325843

vn -0.7071068 0 -0.7071068
vn 0.7071068 0 0.7071068
vn -1 0 0
vn 0 0 1
vn 0.7071068 0 -0.7071068
vn -0.7071068 0 0.7071068
vn 1 0 0
vn 0 0 -1
vn -0.5948675 0.5406156 0.5948675
vn 0.5948675 0.5406156 0.5948675
vn 0 0.4938899 -0.8695245
vn -0.8695245 0.4938899 0
vn 0.8695245 0.4938899 0
vn 0 0.4938899 0.8695245
vn -0.5948675 0.5406156 -0.5948675
vn 0.554325 0.6208441 0.554325
vn -0.554325 0.6208441 0.554325
vn 0 -1 0
vn 0.5948675 0.5406156 -0.5948675
vn -0.8192319 0.5734624 0
vn -0.554325 0.6208441 -0.554325
vn 0.554325 0.6208441 -0.554325
vn 0 0.5734624 0.8192319
vn 0 0.5734624 -0.8192319
vn 0.8192319 0.5734624 0
vn 0.6354404 0.4386695 0.6354404
vn 0.6354404 0.4386695 -0.6354404
vn 0 1 0
vn 0.9181813 0.3961605 0
vn 0 0.3961605 -0.9181813
vn -0.9181813 0.3961605 0
vn 0 0.3961605 0.9181813
vn -0.6354404 0.4386695 0.6354404
vn -0.6354404 0.4386695 -0.6354404
vn 0 0.07745243 -0.996996
vn 0 0.2880111 0.9576271
vn 0.9576271 0.2880111 0
vn 0 0.2880111 -0.9576271
vn 0 0.07745243 0.996996
vn -0.9576271 0.2880111 0
vn 0.996996 0.07745243 0
vn -0.996996 0.07745243 0

vt -2.783885 7.874016
vt -2.783885 11.81102
vt 2.783885 7.874016
vt 2.783885 11.81102
vt -5.905512 7.874016
vt -5.905512 11.81102
vt 5.905512 7.874016
vt 5.905512 11.81102
vt 2.783885 3.91621
vt -2.783885 3.91621
vt 1.518888 13.27589
vt -1.518888 13.27589
vt 5.905512 5.408853
vt -5.905512 5.408853
vt 3.222047 14.4644
vt -3.222047 14.4644
vt 4.251968 19.68504
vt -4.251968 19.68504
vt 4.251968 22.51969
vt -4.251968 22.51969
vt -2.004397 19.68504
vt -2.004397 22.51969
vt 2.004397 19.68504
vt 2.004397 22.51969
vt 2.004397 12.67628
vt -2.004397 12.67628
vt 0.8819348 19.90812
vt -0.8819348 19.90812
vt 7.086614 -4.251968
vt 5.370079 3.222047
vt 7.086614 4.251968
vt 4.251968 7.086614
vt 3.222047 5.370079
vt -4.251968 7.086614
vt -3.222047 5.370079
vt -5.370079 3.222047
vt -7.086614 4.251968
vt -5.370079 -3.222047
vt 5.370079 -3.222047
vt 4.251968 -7.086614
vt 3.222047 -5.370079
vt -4.251968 -7.086614
vt -3.222047 -5.370079
vt -7.086614 -4.251968
vt 9.84252 5.905512
vt 9.84252 -5.905512
vt 5.905512 9.84252
vt 5.905512 -9.84252
vt 2.18464 2.18464
vt -5.905512 9.84252
vt -2.18464 2.18464
vt -2.18464 -2.18464
vt 2.18464 -2.18464
vt -5.905512 -9.84252
vt -9.84252 5.905512
vt -9.84252 -5.905512
vt -4.251968 14.38494
vt -1.870866 21.30519
vt 4.251968 14.38494
vt 1.870866 21.30519
vt -1.403078 28.18898
vt -1.403078 30.17323
vt 1.403078 28.18898
vt 1.403078 30.17323
vt 2.976378 28.18898
vt -2.976378 28.18898
vt 2.976378 30.17323
vt -2.976378 30.17323
vt 4.96063 2.976378
vt 4.96063 -2.976378
vt 2.976378 4.96063
vt 3.11811 1.870866
vt 1.870866 3.11811
vt -2.976378 4.96063
vt -1.870866 3.11811
vt -3.11811 1.870866
vt -4.96063 2.976378
vt -3.11811 -1.870866
vt 3.11811 -1.870866
vt 2.976378 -4.96063
vt 1.870866 -3.11811
vt -2.976378 -4.96063
vt -1.870866 -3.11811
vt -4.96063 -2.976378
vt 0.4383216 33.45029
vt 1.403078 24.65317
vt -0.4383216 33.45029
vt -1.403078 24.65317
vt -1.549701 -0.9298205
vt -1.549701 0.9298205
vt -0.9298205 -1.549701
vt -0.9298205 1.549701
vt 0.9298205 -1.549701
vt 0.9298205 1.549701
vt 1.549701 -0.9298205
vt 1.549701 0.9298205
vt 2.976378 25.73929
vt -2.976378 25.73929
vt 0.9298205 34.34925
vt -0.9298205 34.34925
vt 3.674564 3.674564
vt 3.674564 -3.674564
vt -3.674564 3.674564
vt -3.674564 -3.674564
vt 2.490489 3.732287
vt -2.490489 3.732287
vt 2.18464 7.681157
vt -2.18464 7.681157
vt 3.674564 -1.058315
vt -3.674564 -1.058315
vt 2.490489 3.052896
vt -2.490489 3.052896

usemtl leafsDark

f 3/3/1 2/2/1 1/1/1
f 2/2/1 3/3/1 4/4/1
f 7/2/2 6/3/2 5/4/2
f 6/3/2 7/2/2 8/1/2
f 9/7/3 4/6/3 3/5/3
f 4/6/3 9/7/3 10/8/3
f 7/8/4 11/5/4 8/7/4
f 11/5/4 7/8/4 12/6/4
f 15/2/5 14/3/5 13/4/5
f 14/3/5 15/2/5 16/1/5
f 11/3/6 10/2/6 9/1/6
f 10/2/6 11/3/6 12/4/6
f 5/6/7 16/7/7 15/8/7
f 16/7/7 5/6/7 6/5/7
f 2/8/8 14/5/8 1/7/8
f 14/5/8 2/8/8 13/6/8
f 17/11/9 10/10/9 12/9/9
f 10/10/9 17/11/9 18/12/9
f 20/12/10 5/9/10 19/11/10
f 5/9/10 20/12/10 7/10/10
f 21/15/11 13/14/11 2/13/11
f 13/14/11 21/15/11 22/16/11
f 10/13/12 23/16/12 4/14/12
f 23/16/12 10/13/12 18/15/12
f 24/15/13 5/14/13 15/13/13
f 5/14/13 24/15/13 19/16/13
f 20/15/14 12/14/14 7/13/14
f 12/14/14 20/15/14 17/16/14
f 23/11/15 2/10/15 4/9/15
f 2/10/15 23/11/15 21/12/15
f 27/19/4 26/18/4 25/17/4
f 26/18/4 27/19/4 28/20/4
f 31/23/1 30/22/1 29/21/1
f 30/22/1 31/23/1 32/24/1
f 34/27/16 27/26/16 33/25/16
f 27/26/16 34/27/16 35/28/16
f 26/23/6 37/22/6 36/21/6
f 37/22/6 26/23/6 28/24/6
f 39/28/17 28/25/17 38/27/17
f 28/25/17 39/28/17 37/26/17
f 42/22/5 41/23/5 40/24/5
f 41/23/5 42/22/5 43/21/5
f 44/31/18 19/30/18 43/29/18
f 19/30/18 44/31/18 25/32/18
f 19/30/18 25/32/18 20/33/18
f 20/33/18 25/32/18 26/34/18
f 20/33/18 26/34/18 17/35/18
f 17/35/18 26/34/18 18/36/18
f 18/36/18 26/34/18 36/37/18
f 18/36/18 36/37/18 23/38/18
f 24/39/18 43/29/18 19/30/18
f 43/29/18 24/39/18 41/40/18
f 41/40/18 24/39/18 22/41/18
f 41/40/18 22/41/18 29/42/18
f 29/42/18 22/41/18 21/43/18
f 29/42/18 21/43/18 23/38/18
f 29/42/18 23/38/18 31/44/18
f 31/44/18 23/38/18 36/37/18
f 22/11/19 15/10/19 13/9/19
f 15/10/19 22/11/19 24/12/19
f 8/47/18 16/46/18 6/45/18
f 16/46/18 8/47/18 14/48/18
f 14/48/18 8/47/18 45/49/18
f 45/49/18 8/47/18 11/50/18
f 45/49/18 11/50/18 46/51/18
f 46/51/18 11/50/18 47/52/18
f 48/53/18 14/48/18 45/49/18
f 14/48/18 48/53/18 1/54/18
f 1/54/18 48/53/18 47/52/18
f 1/54/18 47/52/18 11/50/18
f 1/54/18 11/50/18 9/55/18
f 1/54/18 9/55/18 3/56/18
f 33/20/7 43/17/7 42/19/7
f 43/17/7 33/20/7 44/18/7
f 27/22/2 44/23/2 33/24/2
f 44/23/2 27/22/2 25/21/2
f 37/59/20 49/58/20 32/57/20
f 49/58/20 37/59/20 39/60/20
f 30/26/21 49/27/21 50/28/21
f 49/27/21 30/26/21 32/25/21
f 40/25/22 51/28/22 42/26/22
f 51/28/22 40/25/22 52/27/22
f 35/60/23 28/57/23 27/59/23
f 28/57/23 35/60/23 38/58/23
f 36/17/3 32/20/3 31/18/3
f 32/20/3 36/17/3 37/19/3
f 50/60/24 40/57/24 30/59/24
f 40/57/24 50/60/24 52/58/24
f 51/60/25 33/57/25 42/59/25
f 33/57/25 51/60/25 34/58/25
f 55/63/1 54/62/1 53/61/1
f 54/62/1 55/63/1 56/64/1
f 30/19/8 41/18/8 29/17/8
f 41/18/8 30/19/8 40/20/8
f 59/62/5 58/63/5 57/64/5
f 58/63/5 59/62/5 60/61/5
f 63/67/4 62/66/4 61/65/4
f 62/66/4 63/67/4 64/68/4
f 65/65/3 56/68/3 55/66/3
f 56/68/3 65/65/3 66/67/3
f 54/67/8 58/66/8 53/65/8
f 58/66/8 54/67/8 57/68/8
f 61/71/18 60/70/18 67/69/18
f 60/70/18 61/71/18 34/72/18
f 34/72/18 61/71/18 35/73/18
f 35/73/18 61/71/18 62/74/18
f 35/73/18 62/74/18 38/75/18
f 38/75/18 62/74/18 39/76/18
f 39/76/18 62/74/18 65/77/18
f 39/76/18 65/77/18 49/78/18
f 51/79/18 60/70/18 34/72/18
f 60/70/18 51/79/18 58/80/18
f 58/80/18 51/79/18 52/81/18
f 58/80/18 52/81/18 53/82/18
f 53/82/18 52/81/18 50/83/18
f 53/82/18 50/83/18 49/78/18
f 53/82/18 49/78/18 55/84/18
f 55/84/18 49/78/18 65/77/18
f 70/87/26 69/86/26 68/85/26
f 69/86/26 70/87/26 63/88/26
f 71/85/27 59/88/27 57/86/27
f 59/88/27 71/85/27 72/87/27
f 71/91/28 68/90/28 72/89/28
f 68/90/28 71/91/28 70/92/28
f 70/92/28 71/91/28 73/93/28
f 70/92/28 73/93/28 74/94/28
f 74/94/28 73/93/28 75/95/28
f 74/94/28 75/95/28 76/96/28
f 62/63/6 66/62/6 65/61/6
f 66/62/6 62/63/6 64/64/6
f 69/68/7 60/65/7 59/67/7
f 60/65/7 69/68/7 67/66/7
f 63/62/2 67/63/2 69/64/2
f 67/63/2 63/62/2 61/61/2
f 72/99/29 69/98/29 59/97/29
f 69/98/29 72/99/29 68/100/29
f 73/99/30 57/98/30 54/97/30
f 57/98/30 73/99/30 71/100/30
f 66/97/31 75/100/31 56/98/31
f 75/100/31 66/97/31 76/99/31
f 70/99/32 64/98/32 63/97/32
f 64/98/32 70/99/32 74/100/32
f 66/88/33 74/85/33 76/87/33
f 74/85/33 66/88/33 64/86/33
f 56/86/34 73/87/34 54/88/34
f 73/87/34 56/86/34 75/85/34

usemtl woodBarkDark

f 79/103/18 78/102/18 77/101/18
f 78/102/18 79/103/18 80/104/18
f 47/107/35 82/106/35 81/105/35
f 82/106/35 47/107/35 48/108/35
f 83/111/36 79/110/36 77/109/36
f 79/110/36 83/111/36 84/112/36
f 82/111/37 77/110/37 78/109/37
f 77/110/37 82/111/37 83/112/37
f 81/111/38 78/110/38 80/109/38
f 78/110/38 81/111/38 82/112/38
f 45/107/39 84/106/39 83/105/39
f 84/106/39 45/107/39 46/108/39
f 79/109/40 81/112/40 80/110/40
f 81/112/40 79/109/40 84/111/40
f 48/107/41 83/106/41 82/105/41
f 83/106/41 48/107/41 45/108/41
f 84/105/42 47/108/42 81/106/42
f 47/108/42 84/105/42 46/107/42

